<svg xmlns="http://www.w3.org/2000/svg" xmlns:xlink="http://www.w3.org/1999/xlink" contentStyleType="text/css" height="518px" preserveAspectRatio="none" style="width:1060px;height:518px;background:#FFFFFF;" version="1.1" viewBox="0 0 1060 518" width="1060px" zoomAndPan="magnify"><defs/><g><rect fill="#FFFFFF" height="306.5527" style="stroke:#181818;stroke-width:1.0;" width="10" x="238.5" y="112.7988"/><rect fill="#FFFFFF" height="263.2422" style="stroke:#181818;stroke-width:1.0;" width="10" x="468.5" y="142.1094"/><rect fill="#FFFFFF" height="42" style="stroke:#181818;stroke-width:1.0;" width="10" x="906.5" y="195.7305"/><rect fill="#FFFFFF" height="42" style="stroke:#181818;stroke-width:1.0;" width="10" x="906.5" y="269.041"/><rect fill="#FFFFFF" height="42" style="stroke:#181818;stroke-width:1.0;" width="10" x="906.5" y="342.3516"/><rect fill="#FFFFFF" height="14" style="stroke:#181818;stroke-width:1.0;" width="10" x="1004" y="209.7305"/><rect fill="#FFFFFF" height="14" style="stroke:#181818;stroke-width:1.0;" width="10" x="1004" y="283.041"/><rect fill="#FFFFFF" height="14" style="stroke:#181818;stroke-width:1.0;" width="10" x="1004" y="356.3516"/><rect fill="none" height="235.2422" style="stroke:#000000;stroke-width:1.5;" width="651.5" x="402" y="157.1094"/><line style="stroke:#181818;stroke-width:0.5;stroke-dasharray:5.0,5.0;" x1="18" x2="18" y1="81.4883" y2="437.3516"/><line style="stroke:#181818;stroke-width:0.5;stroke-dasharray:5.0,5.0;" x1="243" x2="243" y1="81.4883" y2="437.3516"/><line style="stroke:#181818;stroke-width:0.5;stroke-dasharray:5.0,5.0;" x1="473" x2="473" y1="81.4883" y2="437.3516"/><line style="stroke:#181818;stroke-width:0.5;stroke-dasharray:5.0,5.0;" x1="911.5" x2="911.5" y1="81.4883" y2="437.3516"/><line style="stroke:#181818;stroke-width:0.5;stroke-dasharray:5.0,5.0;" x1="1008.5" x2="1008.5" y1="81.4883" y2="437.3516"/><text fill="#000000" font-family="sans-serif" font-size="14" lengthAdjust="spacing" textLength="14" x="8.5" y="78.5352">UI</text><ellipse cx="18.5" cy="13.5" fill="#E2E2F0" rx="8" ry="8" style="stroke:#181818;stroke-width:0.5;"/><path d="M18.5,21.5 L18.5,48.5 M5.5,29.5 L31.5,29.5 M18.5,48.5 L5.5,63.5 M18.5,48.5 L31.5,63.5 " fill="none" style="stroke:#181818;stroke-width:0.5;"/><text fill="#000000" font-family="sans-serif" font-size="14" lengthAdjust="spacing" textLength="14" x="8.5" y="449.8867">UI</text><ellipse cx="18.5" cy="461.3398" fill="#E2E2F0" rx="8" ry="8" style="stroke:#181818;stroke-width:0.5;"/><path d="M18.5,469.3398 L18.5,496.3398 M5.5,477.3398 L31.5,477.3398 M18.5,496.3398 L5.5,511.3398 M18.5,496.3398 L31.5,511.3398 " fill="none" style="stroke:#181818;stroke-width:0.5;"/><text fill="#000000" font-family="sans-serif" font-size="14" lengthAdjust="spacing" textLength="131" x="175" y="78.5352">AnalyticsController</text><path d="M223,37 L223,61 M223,49 L240,49 " fill="none" style="stroke:#181818;stroke-width:0.5;"/><ellipse cx="252" cy="49" fill="#E2E2F0" rx="12" ry="12" style="stroke:#181818;stroke-width:0.5;"/><text fill="#000000" font-family="sans-serif" font-size="14" lengthAdjust="spacing" textLength="131" x="175" y="449.8867">AnalyticsController</text><path d="M223,456.8398 L223,480.8398 M223,468.8398 L240,468.8398 " fill="none" style="stroke:#181818;stroke-width:0.5;"/><ellipse cx="252" cy="468.8398" fill="#E2E2F0" rx="12" ry="12" style="stroke:#181818;stroke-width:0.5;"/><rect fill="#E2E2F0" height="30.4883" rx="2.5" ry="2.5" style="stroke:#181818;stroke-width:0.5;" width="123" x="412" y="50"/><text fill="#000000" font-family="sans-serif" font-size="14" lengthAdjust="spacing" textLength="109" x="419" y="70.5352">AnalyticsService</text><rect fill="#E2E2F0" height="30.4883" rx="2.5" ry="2.5" style="stroke:#181818;stroke-width:0.5;" width="123" x="412" y="436.3516"/><text fill="#000000" font-family="sans-serif" font-size="14" lengthAdjust="spacing" textLength="109" x="419" y="456.8867">AnalyticsService</text><rect fill="#E2E2F0" height="30.4883" rx="2.5" ry="2.5" style="stroke:#181818;stroke-width:0.5;" width="106" x="858.5" y="50"/><text fill="#000000" font-family="sans-serif" font-size="14" lengthAdjust="spacing" textLength="92" x="865.5" y="70.5352">AnalyticsDAO</text><rect fill="#E2E2F0" height="30.4883" rx="2.5" ry="2.5" style="stroke:#181818;stroke-width:0.5;" width="106" x="858.5" y="436.3516"/><text fill="#000000" font-family="sans-serif" font-size="14" lengthAdjust="spacing" textLength="92" x="865.5" y="456.8867">AnalyticsDAO</text><text fill="#000000" font-family="sans-serif" font-size="14" lengthAdjust="spacing" textLength="63" x="974.5" y="78.5352">Database</text><path d="M991,29 C991,19 1009,19 1009,19 C1009,19 1027,19 1027,29 L1027,55 C1027,65 1009,65 1009,65 C1009,65 991,65 991,55 L991,29 " fill="#E2E2F0" style="stroke:#181818;stroke-width:1.5;"/><path d="M991,29 C991,39 1009,39 1009,39 C1009,39 1027,39 1027,29 " fill="none" style="stroke:#181818;stroke-width:1.5;"/><text fill="#000000" font-family="sans-serif" font-size="14" lengthAdjust="spacing" textLength="63" x="974.5" y="449.8867">Database</text><path d="M991,462.8398 C991,452.8398 1009,452.8398 1009,452.8398 C1009,452.8398 1027,452.8398 1027,462.8398 L1027,488.8398 C1027,498.8398 1009,498.8398 1009,498.8398 C1009,498.8398 991,498.8398 991,488.8398 L991,462.8398 " fill="#E2E2F0" style="stroke:#181818;stroke-width:1.5;"/><path d="M991,462.8398 C991,472.8398 1009,472.8398 1009,472.8398 C1009,472.8398 1027,472.8398 1027,462.8398 " fill="none" style="stroke:#181818;stroke-width:1.5;"/><rect fill="#FFFFFF" height="306.5527" style="stroke:#181818;stroke-width:1.0;" width="10" x="238.5" y="112.7988"/><rect fill="#FFFFFF" height="263.2422" style="stroke:#181818;stroke-width:1.0;" width="10" x="468.5" y="142.1094"/><rect fill="#FFFFFF" height="42" style="stroke:#181818;stroke-width:1.0;" width="10" x="906.5" y="195.7305"/><rect fill="#FFFFFF" height="42" style="stroke:#181818;stroke-width:1.0;" width="10" x="906.5" y="269.041"/><rect fill="#FFFFFF" height="42" style="stroke:#181818;stroke-width:1.0;" width="10" x="906.5" y="342.3516"/><rect fill="#FFFFFF" height="14" style="stroke:#181818;stroke-width:1.0;" width="10" x="1004" y="209.7305"/><rect fill="#FFFFFF" height="14" style="stroke:#181818;stroke-width:1.0;" width="10" x="1004" y="283.041"/><rect fill="#FFFFFF" height="14" style="stroke:#181818;stroke-width:1.0;" width="10" x="1004" y="356.3516"/><polygon fill="#181818" points="226.5,108.7988,236.5,112.7988,226.5,116.7988,230.5,112.7988" style="stroke:#181818;stroke-width:1.0;"/><line style="stroke:#181818;stroke-width:1.0;" x1="18.5" x2="232.5" y1="112.7988" y2="112.7988"/><text fill="#000000" font-family="sans-serif" font-size="13" lengthAdjust="spacing" textLength="201" x="25.5" y="108.0566">getLearningMaterialEngagement</text><polygon fill="#181818" points="456.5,138.1094,466.5,142.1094,456.5,146.1094,460.5,142.1094" style="stroke:#181818;stroke-width:1.0;"/><line style="stroke:#181818;stroke-width:1.0;" x1="248.5" x2="462.5" y1="142.1094" y2="142.1094"/><text fill="#000000" font-family="sans-serif" font-size="13" lengthAdjust="spacing" textLength="201" x="255.5" y="137.3672">getLearningMaterialEngagement</text><path d="M402,157.1094 L470,157.1094 L470,164.4199 L460,174.4199 L402,174.4199 L402,157.1094 " fill="#EEEEEE" style="stroke:#000000;stroke-width:1.5;"/><rect fill="none" height="235.2422" style="stroke:#000000;stroke-width:1.5;" width="651.5" x="402" y="157.1094"/><text fill="#000000" font-family="sans-serif" font-size="13" font-weight="bold" lengthAdjust="spacing" textLength="23" x="417" y="170.6777">par</text><polygon fill="#181818" points="894.5,191.7305,904.5,195.7305,894.5,199.7305,898.5,195.7305" style="stroke:#181818;stroke-width:1.0;"/><line style="stroke:#181818;stroke-width:1.0;" x1="478.5" x2="900.5" y1="195.7305" y2="195.7305"/><text fill="#000000" font-family="sans-serif" font-size="13" lengthAdjust="spacing" textLength="409" x="485.5" y="190.9883">getLearningMaterialEngagementCurrentOccupationHeatMapChart</text><polygon fill="#181818" points="992,205.7305,1002,209.7305,992,213.7305,996,209.7305" style="stroke:#181818;stroke-width:1.0;"/><line style="stroke:#181818;stroke-width:1.0;" x1="916.5" x2="998" y1="209.7305" y2="209.7305"/><polygon fill="#181818" points="927.5,219.7305,917.5,223.7305,927.5,227.7305,923.5,223.7305" style="stroke:#181818;stroke-width:1.0;"/><line style="stroke:#181818;stroke-width:1.0;stroke-dasharray:2.0,2.0;" x1="921.5" x2="1008" y1="223.7305" y2="223.7305"/><polygon fill="#181818" points="489.5,233.7305,479.5,237.7305,489.5,241.7305,485.5,237.7305" style="stroke:#181818;stroke-width:1.0;"/><line style="stroke:#181818;stroke-width:1.0;stroke-dasharray:2.0,2.0;" x1="483.5" x2="910.5" y1="237.7305" y2="237.7305"/><line style="stroke:#000000;stroke-width:1.0;stroke-dasharray:2.0,2.0;" x1="402" x2="1053.5" y1="246.7305" y2="246.7305"/><polygon fill="#181818" points="894.5,265.041,904.5,269.041,894.5,273.041,898.5,269.041" style="stroke:#181818;stroke-width:1.0;"/><line style="stroke:#181818;stroke-width:1.0;" x1="478.5" x2="900.5" y1="269.041" y2="269.041"/><text fill="#000000" font-family="sans-serif" font-size="13" lengthAdjust="spacing" textLength="390" x="485.5" y="264.2988">getLearningMaterialEngagementGoalOccupationHeatMapChart</text><polygon fill="#181818" points="992,279.041,1002,283.041,992,287.041,996,283.041" style="stroke:#181818;stroke-width:1.0;"/><line style="stroke:#181818;stroke-width:1.0;" x1="916.5" x2="998" y1="283.041" y2="283.041"/><polygon fill="#181818" points="927.5,293.041,917.5,297.041,927.5,301.041,923.5,297.041" style="stroke:#181818;stroke-width:1.0;"/><line style="stroke:#181818;stroke-width:1.0;stroke-dasharray:2.0,2.0;" x1="921.5" x2="1008" y1="297.041" y2="297.041"/><polygon fill="#181818" points="489.5,307.041,479.5,311.041,489.5,315.041,485.5,311.041" style="stroke:#181818;stroke-width:1.0;"/><line style="stroke:#181818;stroke-width:1.0;stroke-dasharray:2.0,2.0;" x1="483.5" x2="910.5" y1="311.041" y2="311.041"/><line style="stroke:#000000;stroke-width:1.0;stroke-dasharray:2.0,2.0;" x1="402" x2="1053.5" y1="320.041" y2="320.041"/><polygon fill="#181818" points="894.5,338.3516,904.5,342.3516,894.5,346.3516,898.5,342.3516" style="stroke:#181818;stroke-width:1.0;"/><line style="stroke:#181818;stroke-width:1.0;" x1="478.5" x2="900.5" y1="342.3516" y2="342.3516"/><text fill="#000000" font-family="sans-serif" font-size="13" lengthAdjust="spacing" textLength="261" x="485.5" y="337.6094">getLearningMaterialEngagementMapChart</text><polygon fill="#181818" points="992,352.3516,1002,356.3516,992,360.3516,996,356.3516" style="stroke:#181818;stroke-width:1.0;"/><line style="stroke:#181818;stroke-width:1.0;" x1="916.5" x2="998" y1="356.3516" y2="356.3516"/><polygon fill="#181818" points="927.5,366.3516,917.5,370.3516,927.5,374.3516,923.5,370.3516" style="stroke:#181818;stroke-width:1.0;"/><line style="stroke:#181818;stroke-width:1.0;stroke-dasharray:2.0,2.0;" x1="921.5" x2="1008" y1="370.3516" y2="370.3516"/><polygon fill="#181818" points="489.5,380.3516,479.5,384.3516,489.5,388.3516,485.5,384.3516" style="stroke:#181818;stroke-width:1.0;"/><line style="stroke:#181818;stroke-width:1.0;stroke-dasharray:2.0,2.0;" x1="483.5" x2="910.5" y1="384.3516" y2="384.3516"/><polygon fill="#181818" points="259.5,401.3516,249.5,405.3516,259.5,409.3516,255.5,405.3516" style="stroke:#181818;stroke-width:1.0;"/><line style="stroke:#181818;stroke-width:1.0;stroke-dasharray:2.0,2.0;" x1="253.5" x2="472.5" y1="405.3516" y2="405.3516"/><polygon fill="#181818" points="29.5,415.3516,19.5,419.3516,29.5,423.3516,25.5,419.3516" style="stroke:#181818;stroke-width:1.0;"/><line style="stroke:#181818;stroke-width:1.0;stroke-dasharray:2.0,2.0;" x1="23.5" x2="242.5" y1="419.3516" y2="419.3516"/><!--SRC=[pP11QWCn34NtEeKlq0jq4GYJaWOQiYWvm8z7J0skF2Xo8BUl0YQPq84iieat-l97Nm-XMa6qT89nA4BaJT6mtz2XLEcXvx0KvBEbUEoAc9QSMMc4-ayQ8NRplrbFAVAykLhkg8VXW2E7LHD4-qruMyoj2EzXOFjYg2GPjewd2Vb31Wpyos8qDpEDQZGFSvoMWhz_WzCmftyKr5LLBxiOwmXBHJuPjiNO_VWvxZTSqZpzUeMBgMnLPIevD-jPidL1Va6ifo2afoPR-GC0]--></g></svg>