<svg xmlns="http://www.w3.org/2000/svg" xmlns:xlink="http://www.w3.org/1999/xlink" contentStyleType="text/css" height="518px" preserveAspectRatio="none" style="width:949px;height:518px;background:#FFFFFF;" version="1.1" viewBox="0 0 949 518" width="949px" zoomAndPan="magnify"><defs/><g><rect fill="#FFFFFF" height="306.5527" style="stroke:#181818;stroke-width:1.0;" width="10" x="201.5" y="112.7988"/><rect fill="#FFFFFF" height="263.2422" style="stroke:#181818;stroke-width:1.0;" width="10" x="394.5" y="142.1094"/><rect fill="#FFFFFF" height="42" style="stroke:#181818;stroke-width:1.0;" width="10" x="795.5" y="195.7305"/><rect fill="#FFFFFF" height="42" style="stroke:#181818;stroke-width:1.0;" width="10" x="795.5" y="269.041"/><rect fill="#FFFFFF" height="42" style="stroke:#181818;stroke-width:1.0;" width="10" x="795.5" y="342.3516"/><rect fill="#FFFFFF" height="14" style="stroke:#181818;stroke-width:1.0;" width="10" x="893" y="209.7305"/><rect fill="#FFFFFF" height="14" style="stroke:#181818;stroke-width:1.0;" width="10" x="893" y="283.041"/><rect fill="#FFFFFF" height="14" style="stroke:#181818;stroke-width:1.0;" width="10" x="893" y="356.3516"/><rect fill="none" height="235.2422" style="stroke:#000000;stroke-width:1.5;" width="614.5" x="328" y="157.1094"/><line style="stroke:#181818;stroke-width:0.5;stroke-dasharray:5.0,5.0;" x1="18" x2="18" y1="81.4883" y2="437.3516"/><line style="stroke:#181818;stroke-width:0.5;stroke-dasharray:5.0,5.0;" x1="206" x2="206" y1="81.4883" y2="437.3516"/><line style="stroke:#181818;stroke-width:0.5;stroke-dasharray:5.0,5.0;" x1="399" x2="399" y1="81.4883" y2="437.3516"/><line style="stroke:#181818;stroke-width:0.5;stroke-dasharray:5.0,5.0;" x1="800.5" x2="800.5" y1="81.4883" y2="437.3516"/><line style="stroke:#181818;stroke-width:0.5;stroke-dasharray:5.0,5.0;" x1="897.5" x2="897.5" y1="81.4883" y2="437.3516"/><text fill="#000000" font-family="sans-serif" font-size="14" lengthAdjust="spacing" textLength="14" x="8.5" y="78.5352">UI</text><ellipse cx="18.5" cy="13.5" fill="#E2E2F0" rx="8" ry="8" style="stroke:#181818;stroke-width:0.5;"/><path d="M18.5,21.5 L18.5,48.5 M5.5,29.5 L31.5,29.5 M18.5,48.5 L5.5,63.5 M18.5,48.5 L31.5,63.5 " fill="none" style="stroke:#181818;stroke-width:0.5;"/><text fill="#000000" font-family="sans-serif" font-size="14" lengthAdjust="spacing" textLength="14" x="8.5" y="449.8867">UI</text><ellipse cx="18.5" cy="461.3398" fill="#E2E2F0" rx="8" ry="8" style="stroke:#181818;stroke-width:0.5;"/><path d="M18.5,469.3398 L18.5,496.3398 M5.5,477.3398 L31.5,477.3398 M18.5,496.3398 L5.5,511.3398 M18.5,496.3398 L31.5,511.3398 " fill="none" style="stroke:#181818;stroke-width:0.5;"/><text fill="#000000" font-family="sans-serif" font-size="14" lengthAdjust="spacing" textLength="131" x="138" y="78.5352">AnalyticsController</text><path d="M186,37 L186,61 M186,49 L203,49 " fill="none" style="stroke:#181818;stroke-width:0.5;"/><ellipse cx="215" cy="49" fill="#E2E2F0" rx="12" ry="12" style="stroke:#181818;stroke-width:0.5;"/><text fill="#000000" font-family="sans-serif" font-size="14" lengthAdjust="spacing" textLength="131" x="138" y="449.8867">AnalyticsController</text><path d="M186,456.8398 L186,480.8398 M186,468.8398 L203,468.8398 " fill="none" style="stroke:#181818;stroke-width:0.5;"/><ellipse cx="215" cy="468.8398" fill="#E2E2F0" rx="12" ry="12" style="stroke:#181818;stroke-width:0.5;"/><rect fill="#E2E2F0" height="30.4883" rx="2.5" ry="2.5" style="stroke:#181818;stroke-width:0.5;" width="123" x="338" y="50"/><text fill="#000000" font-family="sans-serif" font-size="14" lengthAdjust="spacing" textLength="109" x="345" y="70.5352">AnalyticsService</text><rect fill="#E2E2F0" height="30.4883" rx="2.5" ry="2.5" style="stroke:#181818;stroke-width:0.5;" width="123" x="338" y="436.3516"/><text fill="#000000" font-family="sans-serif" font-size="14" lengthAdjust="spacing" textLength="109" x="345" y="456.8867">AnalyticsService</text><rect fill="#E2E2F0" height="30.4883" rx="2.5" ry="2.5" style="stroke:#181818;stroke-width:0.5;" width="106" x="747.5" y="50"/><text fill="#000000" font-family="sans-serif" font-size="14" lengthAdjust="spacing" textLength="92" x="754.5" y="70.5352">AnalyticsDAO</text><rect fill="#E2E2F0" height="30.4883" rx="2.5" ry="2.5" style="stroke:#181818;stroke-width:0.5;" width="106" x="747.5" y="436.3516"/><text fill="#000000" font-family="sans-serif" font-size="14" lengthAdjust="spacing" textLength="92" x="754.5" y="456.8867">AnalyticsDAO</text><text fill="#000000" font-family="sans-serif" font-size="14" lengthAdjust="spacing" textLength="63" x="863.5" y="78.5352">Database</text><path d="M880,29 C880,19 898,19 898,19 C898,19 916,19 916,29 L916,55 C916,65 898,65 898,65 C898,65 880,65 880,55 L880,29 " fill="#E2E2F0" style="stroke:#181818;stroke-width:1.5;"/><path d="M880,29 C880,39 898,39 898,39 C898,39 916,39 916,29 " fill="none" style="stroke:#181818;stroke-width:1.5;"/><text fill="#000000" font-family="sans-serif" font-size="14" lengthAdjust="spacing" textLength="63" x="863.5" y="449.8867">Database</text><path d="M880,462.8398 C880,452.8398 898,452.8398 898,452.8398 C898,452.8398 916,452.8398 916,462.8398 L916,488.8398 C916,498.8398 898,498.8398 898,498.8398 C898,498.8398 880,498.8398 880,488.8398 L880,462.8398 " fill="#E2E2F0" style="stroke:#181818;stroke-width:1.5;"/><path d="M880,462.8398 C880,472.8398 898,472.8398 898,472.8398 C898,472.8398 916,472.8398 916,462.8398 " fill="none" style="stroke:#181818;stroke-width:1.5;"/><rect fill="#FFFFFF" height="306.5527" style="stroke:#181818;stroke-width:1.0;" width="10" x="201.5" y="112.7988"/><rect fill="#FFFFFF" height="263.2422" style="stroke:#181818;stroke-width:1.0;" width="10" x="394.5" y="142.1094"/><rect fill="#FFFFFF" height="42" style="stroke:#181818;stroke-width:1.0;" width="10" x="795.5" y="195.7305"/><rect fill="#FFFFFF" height="42" style="stroke:#181818;stroke-width:1.0;" width="10" x="795.5" y="269.041"/><rect fill="#FFFFFF" height="42" style="stroke:#181818;stroke-width:1.0;" width="10" x="795.5" y="342.3516"/><rect fill="#FFFFFF" height="14" style="stroke:#181818;stroke-width:1.0;" width="10" x="893" y="209.7305"/><rect fill="#FFFFFF" height="14" style="stroke:#181818;stroke-width:1.0;" width="10" x="893" y="283.041"/><rect fill="#FFFFFF" height="14" style="stroke:#181818;stroke-width:1.0;" width="10" x="893" y="356.3516"/><polygon fill="#181818" points="189.5,108.7988,199.5,112.7988,189.5,116.7988,193.5,112.7988" style="stroke:#181818;stroke-width:1.0;"/><line style="stroke:#181818;stroke-width:1.0;" x1="18.5" x2="195.5" y1="112.7988" y2="112.7988"/><text fill="#000000" font-family="sans-serif" font-size="13" lengthAdjust="spacing" textLength="164" x="25.5" y="108.0566">getJobPostingEngagement</text><polygon fill="#181818" points="382.5,138.1094,392.5,142.1094,382.5,146.1094,386.5,142.1094" style="stroke:#181818;stroke-width:1.0;"/><line style="stroke:#181818;stroke-width:1.0;" x1="211.5" x2="388.5" y1="142.1094" y2="142.1094"/><text fill="#000000" font-family="sans-serif" font-size="13" lengthAdjust="spacing" textLength="164" x="218.5" y="137.3672">getJobPostingEngagement</text><path d="M328,157.1094 L396,157.1094 L396,164.4199 L386,174.4199 L328,174.4199 L328,157.1094 " fill="#EEEEEE" style="stroke:#000000;stroke-width:1.5;"/><rect fill="none" height="235.2422" style="stroke:#000000;stroke-width:1.5;" width="614.5" x="328" y="157.1094"/><text fill="#000000" font-family="sans-serif" font-size="13" font-weight="bold" lengthAdjust="spacing" textLength="23" x="343" y="170.6777">par</text><polygon fill="#181818" points="783.5,191.7305,793.5,195.7305,783.5,199.7305,787.5,195.7305" style="stroke:#181818;stroke-width:1.0;"/><line style="stroke:#181818;stroke-width:1.0;" x1="404.5" x2="789.5" y1="195.7305" y2="195.7305"/><text fill="#000000" font-family="sans-serif" font-size="13" lengthAdjust="spacing" textLength="372" x="411.5" y="190.9883">getJobPostingEngagementCurrentOccupationHeatMapChart</text><polygon fill="#181818" points="881,205.7305,891,209.7305,881,213.7305,885,209.7305" style="stroke:#181818;stroke-width:1.0;"/><line style="stroke:#181818;stroke-width:1.0;" x1="805.5" x2="887" y1="209.7305" y2="209.7305"/><polygon fill="#181818" points="816.5,219.7305,806.5,223.7305,816.5,227.7305,812.5,223.7305" style="stroke:#181818;stroke-width:1.0;"/><line style="stroke:#181818;stroke-width:1.0;stroke-dasharray:2.0,2.0;" x1="810.5" x2="897" y1="223.7305" y2="223.7305"/><polygon fill="#181818" points="415.5,233.7305,405.5,237.7305,415.5,241.7305,411.5,237.7305" style="stroke:#181818;stroke-width:1.0;"/><line style="stroke:#181818;stroke-width:1.0;stroke-dasharray:2.0,2.0;" x1="409.5" x2="799.5" y1="237.7305" y2="237.7305"/><line style="stroke:#000000;stroke-width:1.0;stroke-dasharray:2.0,2.0;" x1="328" x2="942.5" y1="246.7305" y2="246.7305"/><polygon fill="#181818" points="783.5,265.041,793.5,269.041,783.5,273.041,787.5,269.041" style="stroke:#181818;stroke-width:1.0;"/><line style="stroke:#181818;stroke-width:1.0;" x1="404.5" x2="789.5" y1="269.041" y2="269.041"/><text fill="#000000" font-family="sans-serif" font-size="13" lengthAdjust="spacing" textLength="353" x="411.5" y="264.2988">getJobPostingEngagementGoalOccupationHeatMapChart</text><polygon fill="#181818" points="881,279.041,891,283.041,881,287.041,885,283.041" style="stroke:#181818;stroke-width:1.0;"/><line style="stroke:#181818;stroke-width:1.0;" x1="805.5" x2="887" y1="283.041" y2="283.041"/><polygon fill="#181818" points="816.5,293.041,806.5,297.041,816.5,301.041,812.5,297.041" style="stroke:#181818;stroke-width:1.0;"/><line style="stroke:#181818;stroke-width:1.0;stroke-dasharray:2.0,2.0;" x1="810.5" x2="897" y1="297.041" y2="297.041"/><polygon fill="#181818" points="415.5,307.041,405.5,311.041,415.5,315.041,411.5,311.041" style="stroke:#181818;stroke-width:1.0;"/><line style="stroke:#181818;stroke-width:1.0;stroke-dasharray:2.0,2.0;" x1="409.5" x2="799.5" y1="311.041" y2="311.041"/><line style="stroke:#000000;stroke-width:1.0;stroke-dasharray:2.0,2.0;" x1="328" x2="942.5" y1="320.041" y2="320.041"/><polygon fill="#181818" points="783.5,338.3516,793.5,342.3516,783.5,346.3516,787.5,342.3516" style="stroke:#181818;stroke-width:1.0;"/><line style="stroke:#181818;stroke-width:1.0;" x1="404.5" x2="789.5" y1="342.3516" y2="342.3516"/><text fill="#000000" font-family="sans-serif" font-size="13" lengthAdjust="spacing" textLength="224" x="411.5" y="337.6094">getJobPostingEngagementMapChart</text><polygon fill="#181818" points="881,352.3516,891,356.3516,881,360.3516,885,356.3516" style="stroke:#181818;stroke-width:1.0;"/><line style="stroke:#181818;stroke-width:1.0;" x1="805.5" x2="887" y1="356.3516" y2="356.3516"/><polygon fill="#181818" points="816.5,366.3516,806.5,370.3516,816.5,374.3516,812.5,370.3516" style="stroke:#181818;stroke-width:1.0;"/><line style="stroke:#181818;stroke-width:1.0;stroke-dasharray:2.0,2.0;" x1="810.5" x2="897" y1="370.3516" y2="370.3516"/><polygon fill="#181818" points="415.5,380.3516,405.5,384.3516,415.5,388.3516,411.5,384.3516" style="stroke:#181818;stroke-width:1.0;"/><line style="stroke:#181818;stroke-width:1.0;stroke-dasharray:2.0,2.0;" x1="409.5" x2="799.5" y1="384.3516" y2="384.3516"/><polygon fill="#181818" points="222.5,401.3516,212.5,405.3516,222.5,409.3516,218.5,405.3516" style="stroke:#181818;stroke-width:1.0;"/><line style="stroke:#181818;stroke-width:1.0;stroke-dasharray:2.0,2.0;" x1="216.5" x2="398.5" y1="405.3516" y2="405.3516"/><polygon fill="#181818" points="29.5,415.3516,19.5,419.3516,29.5,423.3516,25.5,419.3516" style="stroke:#181818;stroke-width:1.0;"/><line style="stroke:#181818;stroke-width:1.0;stroke-dasharray:2.0,2.0;" x1="23.5" x2="205.5" y1="419.3516" y2="419.3516"/><!--SRC=[pOzTgW8n38NViufku6x01q56yGSkNhYuW4mdZ8MQ39bKSFTMA3hYw8E-s9USzZHVJZ2PeBTmH2Cd390lecwtXbeIDwWdDsEC9mk-huHD9KPIw53pI-YGxUR_anw3ft5pFjj2WuOrzkJcHG3irkvdEZR2JLnBjf7wJteBt2wunPOEn0PZluUGakC58IS4byz3on2J4pz7L4arbwttgKCBmYj2-yMkskVbxzaNJkPUTxwOIfQKXv9YiTxFj1ICNnNee_7SG96bd040]--></g></svg>