<svg xmlns="http://www.w3.org/2000/svg" xmlns:xlink="http://www.w3.org/1999/xlink" contentStyleType="text/css" height="340px" preserveAspectRatio="none" style="width:529px;height:340px;background:#FFFFFF;" version="1.1" viewBox="0 0 529 340" width="529px" zoomAndPan="magnify"><defs/><g><rect fill="#FFFFFF" height="128.6211" style="stroke:#181818;stroke-width:1.0;" width="10" x="126.5" y="112.7988"/><rect fill="#FFFFFF" height="85.3105" style="stroke:#181818;stroke-width:1.0;" width="10" x="266.5" y="142.1094"/><rect fill="#FFFFFF" height="42" style="stroke:#181818;stroke-width:1.0;" width="10" x="391" y="171.4199"/><rect fill="#FFFFFF" height="14" style="stroke:#181818;stroke-width:1.0;" width="10" x="488.5" y="185.4199"/><line style="stroke:#181818;stroke-width:0.5;stroke-dasharray:5.0,5.0;" x1="18" x2="18" y1="81.4883" y2="259.4199"/><line style="stroke:#181818;stroke-width:0.5;stroke-dasharray:5.0,5.0;" x1="131" x2="131" y1="81.4883" y2="259.4199"/><line style="stroke:#181818;stroke-width:0.5;stroke-dasharray:5.0,5.0;" x1="271" x2="271" y1="81.4883" y2="259.4199"/><line style="stroke:#181818;stroke-width:0.5;stroke-dasharray:5.0,5.0;" x1="396" x2="396" y1="81.4883" y2="259.4199"/><line style="stroke:#181818;stroke-width:0.5;stroke-dasharray:5.0,5.0;" x1="493" x2="493" y1="81.4883" y2="259.4199"/><text fill="#000000" font-family="sans-serif" font-size="14" lengthAdjust="spacing" textLength="14" x="8.5" y="78.5352">UI</text><ellipse cx="18.5" cy="13.5" fill="#E2E2F0" rx="8" ry="8" style="stroke:#181818;stroke-width:0.5;"/><path d="M18.5,21.5 L18.5,48.5 M5.5,29.5 L31.5,29.5 M18.5,48.5 L5.5,63.5 M18.5,48.5 L31.5,63.5 " fill="none" style="stroke:#181818;stroke-width:0.5;"/><text fill="#000000" font-family="sans-serif" font-size="14" lengthAdjust="spacing" textLength="14" x="8.5" y="271.9551">UI</text><ellipse cx="18.5" cy="283.4082" fill="#E2E2F0" rx="8" ry="8" style="stroke:#181818;stroke-width:0.5;"/><path d="M18.5,291.4082 L18.5,318.4082 M5.5,299.4082 L31.5,299.4082 M18.5,318.4082 L5.5,333.4082 M18.5,318.4082 L31.5,333.4082 " fill="none" style="stroke:#181818;stroke-width:0.5;"/><text fill="#000000" font-family="sans-serif" font-size="14" lengthAdjust="spacing" textLength="131" x="63" y="78.5352">AnalyticsController</text><path d="M111,37 L111,61 M111,49 L128,49 " fill="none" style="stroke:#181818;stroke-width:0.5;"/><ellipse cx="140" cy="49" fill="#E2E2F0" rx="12" ry="12" style="stroke:#181818;stroke-width:0.5;"/><text fill="#000000" font-family="sans-serif" font-size="14" lengthAdjust="spacing" textLength="131" x="63" y="271.9551">AnalyticsController</text><path d="M111,278.9082 L111,302.9082 M111,290.9082 L128,290.9082 " fill="none" style="stroke:#181818;stroke-width:0.5;"/><ellipse cx="140" cy="290.9082" fill="#E2E2F0" rx="12" ry="12" style="stroke:#181818;stroke-width:0.5;"/><rect fill="#E2E2F0" height="30.4883" rx="2.5" ry="2.5" style="stroke:#181818;stroke-width:0.5;" width="123" x="210" y="50"/><text fill="#000000" font-family="sans-serif" font-size="14" lengthAdjust="spacing" textLength="109" x="217" y="70.5352">AnalyticsService</text><rect fill="#E2E2F0" height="30.4883" rx="2.5" ry="2.5" style="stroke:#181818;stroke-width:0.5;" width="123" x="210" y="258.4199"/><text fill="#000000" font-family="sans-serif" font-size="14" lengthAdjust="spacing" textLength="109" x="217" y="278.9551">AnalyticsService</text><rect fill="#E2E2F0" height="30.4883" rx="2.5" ry="2.5" style="stroke:#181818;stroke-width:0.5;" width="106" x="343" y="50"/><text fill="#000000" font-family="sans-serif" font-size="14" lengthAdjust="spacing" textLength="92" x="350" y="70.5352">AnalyticsDAO</text><rect fill="#E2E2F0" height="30.4883" rx="2.5" ry="2.5" style="stroke:#181818;stroke-width:0.5;" width="106" x="343" y="258.4199"/><text fill="#000000" font-family="sans-serif" font-size="14" lengthAdjust="spacing" textLength="92" x="350" y="278.9551">AnalyticsDAO</text><text fill="#000000" font-family="sans-serif" font-size="14" lengthAdjust="spacing" textLength="63" x="459" y="78.5352">Database</text><path d="M475.5,29 C475.5,19 493.5,19 493.5,19 C493.5,19 511.5,19 511.5,29 L511.5,55 C511.5,65 493.5,65 493.5,65 C493.5,65 475.5,65 475.5,55 L475.5,29 " fill="#E2E2F0" style="stroke:#181818;stroke-width:1.5;"/><path d="M475.5,29 C475.5,39 493.5,39 493.5,39 C493.5,39 511.5,39 511.5,29 " fill="none" style="stroke:#181818;stroke-width:1.5;"/><text fill="#000000" font-family="sans-serif" font-size="14" lengthAdjust="spacing" textLength="63" x="459" y="271.9551">Database</text><path d="M475.5,284.9082 C475.5,274.9082 493.5,274.9082 493.5,274.9082 C493.5,274.9082 511.5,274.9082 511.5,284.9082 L511.5,310.9082 C511.5,320.9082 493.5,320.9082 493.5,320.9082 C493.5,320.9082 475.5,320.9082 475.5,310.9082 L475.5,284.9082 " fill="#E2E2F0" style="stroke:#181818;stroke-width:1.5;"/><path d="M475.5,284.9082 C475.5,294.9082 493.5,294.9082 493.5,294.9082 C493.5,294.9082 511.5,294.9082 511.5,284.9082 " fill="none" style="stroke:#181818;stroke-width:1.5;"/><rect fill="#FFFFFF" height="128.6211" style="stroke:#181818;stroke-width:1.0;" width="10" x="126.5" y="112.7988"/><rect fill="#FFFFFF" height="85.3105" style="stroke:#181818;stroke-width:1.0;" width="10" x="266.5" y="142.1094"/><rect fill="#FFFFFF" height="42" style="stroke:#181818;stroke-width:1.0;" width="10" x="391" y="171.4199"/><rect fill="#FFFFFF" height="14" style="stroke:#181818;stroke-width:1.0;" width="10" x="488.5" y="185.4199"/><polygon fill="#181818" points="114.5,108.7988,124.5,112.7988,114.5,116.7988,118.5,112.7988" style="stroke:#181818;stroke-width:1.0;"/><line style="stroke:#181818;stroke-width:1.0;" x1="18.5" x2="120.5" y1="112.7988" y2="112.7988"/><text fill="#000000" font-family="sans-serif" font-size="13" lengthAdjust="spacing" textLength="89" x="25.5" y="108.0566">saveClickData</text><polygon fill="#181818" points="254.5,138.1094,264.5,142.1094,254.5,146.1094,258.5,142.1094" style="stroke:#181818;stroke-width:1.0;"/><line style="stroke:#181818;stroke-width:1.0;" x1="136.5" x2="260.5" y1="142.1094" y2="142.1094"/><text fill="#000000" font-family="sans-serif" font-size="13" lengthAdjust="spacing" textLength="89" x="143.5" y="137.3672">saveClickData</text><polygon fill="#181818" points="379,167.4199,389,171.4199,379,175.4199,383,171.4199" style="stroke:#181818;stroke-width:1.0;"/><line style="stroke:#181818;stroke-width:1.0;" x1="276.5" x2="385" y1="171.4199" y2="171.4199"/><text fill="#000000" font-family="sans-serif" font-size="13" lengthAdjust="spacing" textLength="89" x="283.5" y="166.6777">saveClickData</text><polygon fill="#181818" points="476.5,181.4199,486.5,185.4199,476.5,189.4199,480.5,185.4199" style="stroke:#181818;stroke-width:1.0;"/><line style="stroke:#181818;stroke-width:1.0;" x1="401" x2="482.5" y1="185.4199" y2="185.4199"/><polygon fill="#181818" points="412,195.4199,402,199.4199,412,203.4199,408,199.4199" style="stroke:#181818;stroke-width:1.0;"/><line style="stroke:#181818;stroke-width:1.0;stroke-dasharray:2.0,2.0;" x1="406" x2="492.5" y1="199.4199" y2="199.4199"/><polygon fill="#181818" points="287.5,209.4199,277.5,213.4199,287.5,217.4199,283.5,213.4199" style="stroke:#181818;stroke-width:1.0;"/><line style="stroke:#181818;stroke-width:1.0;stroke-dasharray:2.0,2.0;" x1="281.5" x2="395" y1="213.4199" y2="213.4199"/><polygon fill="#181818" points="147.5,223.4199,137.5,227.4199,147.5,231.4199,143.5,227.4199" style="stroke:#181818;stroke-width:1.0;"/><line style="stroke:#181818;stroke-width:1.0;stroke-dasharray:2.0,2.0;" x1="141.5" x2="270.5" y1="227.4199" y2="227.4199"/><polygon fill="#181818" points="29.5,237.4199,19.5,241.4199,29.5,245.4199,25.5,241.4199" style="stroke:#181818;stroke-width:1.0;"/><line style="stroke:#181818;stroke-width:1.0;stroke-dasharray:2.0,2.0;" x1="23.5" x2="130.5" y1="241.4199" y2="241.4199"/><!--SRC=[TOuz3eCm38Ltdy8Nw0KwL4AmC7MeE8097g963dASIDo-GQ8jGvZyyzwdzoXR96U-a3560QX7L9n6c6EMXNJ3JYXivbtgevZ645XX9QqVlvBONt-n5k-uBGxT4nOocYan3iS2C8ruUxGYy8w92lV1k_TkXvRdZ1xfrzpNS8PggsjW5wlvLrRPiafxV000]--></g></svg>