<svg xmlns="http://www.w3.org/2000/svg" xmlns:xlink="http://www.w3.org/1999/xlink" contentStyleType="text/css" height="445px" preserveAspectRatio="none" style="width:892px;height:445px;background:#FFFFFF;" version="1.1" viewBox="0 0 892 445" width="892px" zoomAndPan="magnify"><defs/><g><rect fill="#FFFFFF" height="233.2422" style="stroke:#181818;stroke-width:1.0;" width="10" x="245.5" y="112.7988"/><rect fill="#FFFFFF" height="189.9316" style="stroke:#181818;stroke-width:1.0;" width="10" x="482.5" y="142.1094"/><rect fill="#FFFFFF" height="42" style="stroke:#181818;stroke-width:1.0;" width="10" x="738.5" y="195.7305"/><rect fill="#FFFFFF" height="42" style="stroke:#181818;stroke-width:1.0;" width="10" x="738.5" y="269.041"/><rect fill="#FFFFFF" height="14" style="stroke:#181818;stroke-width:1.0;" width="10" x="836" y="209.7305"/><rect fill="#FFFFFF" height="14" style="stroke:#181818;stroke-width:1.0;" width="10" x="836" y="283.041"/><rect fill="none" height="161.9316" style="stroke:#000000;stroke-width:1.5;" width="469.5" x="416" y="157.1094"/><line style="stroke:#181818;stroke-width:0.5;stroke-dasharray:5.0,5.0;" x1="18" x2="18" y1="81.4883" y2="364.041"/><line style="stroke:#181818;stroke-width:0.5;stroke-dasharray:5.0,5.0;" x1="250" x2="250" y1="81.4883" y2="364.041"/><line style="stroke:#181818;stroke-width:0.5;stroke-dasharray:5.0,5.0;" x1="487" x2="487" y1="81.4883" y2="364.041"/><line style="stroke:#181818;stroke-width:0.5;stroke-dasharray:5.0,5.0;" x1="743.5" x2="743.5" y1="81.4883" y2="364.041"/><line style="stroke:#181818;stroke-width:0.5;stroke-dasharray:5.0,5.0;" x1="840.5" x2="840.5" y1="81.4883" y2="364.041"/><text fill="#000000" font-family="sans-serif" font-size="14" lengthAdjust="spacing" textLength="14" x="8.5" y="78.5352">UI</text><ellipse cx="18.5" cy="13.5" fill="#E2E2F0" rx="8" ry="8" style="stroke:#181818;stroke-width:0.5;"/><path d="M18.5,21.5 L18.5,48.5 M5.5,29.5 L31.5,29.5 M18.5,48.5 L5.5,63.5 M18.5,48.5 L31.5,63.5 " fill="none" style="stroke:#181818;stroke-width:0.5;"/><text fill="#000000" font-family="sans-serif" font-size="14" lengthAdjust="spacing" textLength="14" x="8.5" y="376.5762">UI</text><ellipse cx="18.5" cy="388.0293" fill="#E2E2F0" rx="8" ry="8" style="stroke:#181818;stroke-width:0.5;"/><path d="M18.5,396.0293 L18.5,423.0293 M5.5,404.0293 L31.5,404.0293 M18.5,423.0293 L5.5,438.0293 M18.5,423.0293 L31.5,438.0293 " fill="none" style="stroke:#181818;stroke-width:0.5;"/><text fill="#000000" font-family="sans-serif" font-size="14" lengthAdjust="spacing" textLength="131" x="182" y="78.5352">AnalyticsController</text><path d="M230,37 L230,61 M230,49 L247,49 " fill="none" style="stroke:#181818;stroke-width:0.5;"/><ellipse cx="259" cy="49" fill="#E2E2F0" rx="12" ry="12" style="stroke:#181818;stroke-width:0.5;"/><text fill="#000000" font-family="sans-serif" font-size="14" lengthAdjust="spacing" textLength="131" x="182" y="376.5762">AnalyticsController</text><path d="M230,383.5293 L230,407.5293 M230,395.5293 L247,395.5293 " fill="none" style="stroke:#181818;stroke-width:0.5;"/><ellipse cx="259" cy="395.5293" fill="#E2E2F0" rx="12" ry="12" style="stroke:#181818;stroke-width:0.5;"/><rect fill="#E2E2F0" height="30.4883" rx="2.5" ry="2.5" style="stroke:#181818;stroke-width:0.5;" width="123" x="426" y="50"/><text fill="#000000" font-family="sans-serif" font-size="14" lengthAdjust="spacing" textLength="109" x="433" y="70.5352">AnalyticsService</text><rect fill="#E2E2F0" height="30.4883" rx="2.5" ry="2.5" style="stroke:#181818;stroke-width:0.5;" width="123" x="426" y="363.041"/><text fill="#000000" font-family="sans-serif" font-size="14" lengthAdjust="spacing" textLength="109" x="433" y="383.5762">AnalyticsService</text><rect fill="#E2E2F0" height="30.4883" rx="2.5" ry="2.5" style="stroke:#181818;stroke-width:0.5;" width="106" x="690.5" y="50"/><text fill="#000000" font-family="sans-serif" font-size="14" lengthAdjust="spacing" textLength="92" x="697.5" y="70.5352">AnalyticsDAO</text><rect fill="#E2E2F0" height="30.4883" rx="2.5" ry="2.5" style="stroke:#181818;stroke-width:0.5;" width="106" x="690.5" y="363.041"/><text fill="#000000" font-family="sans-serif" font-size="14" lengthAdjust="spacing" textLength="92" x="697.5" y="383.5762">AnalyticsDAO</text><text fill="#000000" font-family="sans-serif" font-size="14" lengthAdjust="spacing" textLength="63" x="806.5" y="78.5352">Database</text><path d="M823,29 C823,19 841,19 841,19 C841,19 859,19 859,29 L859,55 C859,65 841,65 841,65 C841,65 823,65 823,55 L823,29 " fill="#E2E2F0" style="stroke:#181818;stroke-width:1.5;"/><path d="M823,29 C823,39 841,39 841,39 C841,39 859,39 859,29 " fill="none" style="stroke:#181818;stroke-width:1.5;"/><text fill="#000000" font-family="sans-serif" font-size="14" lengthAdjust="spacing" textLength="63" x="806.5" y="376.5762">Database</text><path d="M823,389.5293 C823,379.5293 841,379.5293 841,379.5293 C841,379.5293 859,379.5293 859,389.5293 L859,415.5293 C859,425.5293 841,425.5293 841,425.5293 C841,425.5293 823,425.5293 823,415.5293 L823,389.5293 " fill="#E2E2F0" style="stroke:#181818;stroke-width:1.5;"/><path d="M823,389.5293 C823,399.5293 841,399.5293 841,399.5293 C841,399.5293 859,399.5293 859,389.5293 " fill="none" style="stroke:#181818;stroke-width:1.5;"/><rect fill="#FFFFFF" height="233.2422" style="stroke:#181818;stroke-width:1.0;" width="10" x="245.5" y="112.7988"/><rect fill="#FFFFFF" height="189.9316" style="stroke:#181818;stroke-width:1.0;" width="10" x="482.5" y="142.1094"/><rect fill="#FFFFFF" height="42" style="stroke:#181818;stroke-width:1.0;" width="10" x="738.5" y="195.7305"/><rect fill="#FFFFFF" height="42" style="stroke:#181818;stroke-width:1.0;" width="10" x="738.5" y="269.041"/><rect fill="#FFFFFF" height="14" style="stroke:#181818;stroke-width:1.0;" width="10" x="836" y="209.7305"/><rect fill="#FFFFFF" height="14" style="stroke:#181818;stroke-width:1.0;" width="10" x="836" y="283.041"/><polygon fill="#181818" points="233.5,108.7988,243.5,112.7988,233.5,116.7988,237.5,112.7988" style="stroke:#181818;stroke-width:1.0;"/><line style="stroke:#181818;stroke-width:1.0;" x1="18.5" x2="239.5" y1="112.7988" y2="112.7988"/><text fill="#000000" font-family="sans-serif" font-size="13" lengthAdjust="spacing" textLength="208" x="25.5" y="108.0566">getUserCurrentOccupationReport</text><polygon fill="#181818" points="470.5,138.1094,480.5,142.1094,470.5,146.1094,474.5,142.1094" style="stroke:#181818;stroke-width:1.0;"/><line style="stroke:#181818;stroke-width:1.0;" x1="255.5" x2="476.5" y1="142.1094" y2="142.1094"/><text fill="#000000" font-family="sans-serif" font-size="13" lengthAdjust="spacing" textLength="208" x="262.5" y="137.3672">getUserCurrentOccupationReport</text><path d="M416,157.1094 L484,157.1094 L484,164.4199 L474,174.4199 L416,174.4199 L416,157.1094 " fill="#EEEEEE" style="stroke:#000000;stroke-width:1.5;"/><rect fill="none" height="161.9316" style="stroke:#000000;stroke-width:1.5;" width="469.5" x="416" y="157.1094"/><text fill="#000000" font-family="sans-serif" font-size="13" font-weight="bold" lengthAdjust="spacing" textLength="23" x="431" y="170.6777">par</text><polygon fill="#181818" points="726.5,191.7305,736.5,195.7305,726.5,199.7305,730.5,195.7305" style="stroke:#181818;stroke-width:1.0;"/><line style="stroke:#181818;stroke-width:1.0;" x1="492.5" x2="732.5" y1="195.7305" y2="195.7305"/><text fill="#000000" font-family="sans-serif" font-size="13" lengthAdjust="spacing" textLength="219" x="499.5" y="190.9883">getUserCurrentOccupationPieChart</text><polygon fill="#181818" points="824,205.7305,834,209.7305,824,213.7305,828,209.7305" style="stroke:#181818;stroke-width:1.0;"/><line style="stroke:#181818;stroke-width:1.0;" x1="748.5" x2="830" y1="209.7305" y2="209.7305"/><polygon fill="#181818" points="759.5,219.7305,749.5,223.7305,759.5,227.7305,755.5,223.7305" style="stroke:#181818;stroke-width:1.0;"/><line style="stroke:#181818;stroke-width:1.0;stroke-dasharray:2.0,2.0;" x1="753.5" x2="840" y1="223.7305" y2="223.7305"/><polygon fill="#181818" points="503.5,233.7305,493.5,237.7305,503.5,241.7305,499.5,237.7305" style="stroke:#181818;stroke-width:1.0;"/><line style="stroke:#181818;stroke-width:1.0;stroke-dasharray:2.0,2.0;" x1="497.5" x2="742.5" y1="237.7305" y2="237.7305"/><line style="stroke:#000000;stroke-width:1.0;stroke-dasharray:2.0,2.0;" x1="416" x2="885.5" y1="246.7305" y2="246.7305"/><polygon fill="#181818" points="726.5,265.041,736.5,269.041,726.5,273.041,730.5,269.041" style="stroke:#181818;stroke-width:1.0;"/><line style="stroke:#181818;stroke-width:1.0;" x1="492.5" x2="732.5" y1="269.041" y2="269.041"/><text fill="#000000" font-family="sans-serif" font-size="13" lengthAdjust="spacing" textLength="227" x="499.5" y="264.2988">getUserCurrentOccupationMapChart</text><polygon fill="#181818" points="824,279.041,834,283.041,824,287.041,828,283.041" style="stroke:#181818;stroke-width:1.0;"/><line style="stroke:#181818;stroke-width:1.0;" x1="748.5" x2="830" y1="283.041" y2="283.041"/><polygon fill="#181818" points="759.5,293.041,749.5,297.041,759.5,301.041,755.5,297.041" style="stroke:#181818;stroke-width:1.0;"/><line style="stroke:#181818;stroke-width:1.0;stroke-dasharray:2.0,2.0;" x1="753.5" x2="840" y1="297.041" y2="297.041"/><polygon fill="#181818" points="503.5,307.041,493.5,311.041,503.5,315.041,499.5,311.041" style="stroke:#181818;stroke-width:1.0;"/><line style="stroke:#181818;stroke-width:1.0;stroke-dasharray:2.0,2.0;" x1="497.5" x2="742.5" y1="311.041" y2="311.041"/><polygon fill="#181818" points="266.5,328.041,256.5,332.041,266.5,336.041,262.5,332.041" style="stroke:#181818;stroke-width:1.0;"/><line style="stroke:#181818;stroke-width:1.0;stroke-dasharray:2.0,2.0;" x1="260.5" x2="486.5" y1="332.041" y2="332.041"/><polygon fill="#181818" points="29.5,342.041,19.5,346.041,29.5,350.041,25.5,346.041" style="stroke:#181818;stroke-width:1.0;"/><line style="stroke:#181818;stroke-width:1.0;stroke-dasharray:2.0,2.0;" x1="23.5" x2="249.5" y1="346.041" y2="346.041"/><!--SRC=[fOz12i8m44NtSufSm0ku44gxwK8gIWymJGSDb4cOJWgzlIa4hLWKD9jCyldl_y6e7gsw2PMCPu3qy6BQ6ZeVkKUPJS4upEhiM7fMySD00W4b_RY0h4_zGZ8vIzjYLJJGesA78vag3m1jRNQ7hGYpDrVITYGfemYnDjR6WEeydobuKTWohLcvpdTGwWicdJVdcfRwVo2T79MtjFOhP_4ancFRHHJIABmUQSZI7_b73B_dSmzvpDST]--></g></svg>