<svg xmlns="http://www.w3.org/2000/svg" xmlns:xlink="http://www.w3.org/1999/xlink" contentStyleType="text/css" height="518px" preserveAspectRatio="none" style="width:864px;height:518px;background:#FFFFFF;" version="1.1" viewBox="0 0 864 518" width="864px" zoomAndPan="magnify"><defs/><g><rect fill="#FFFFFF" height="306.5527" style="stroke:#181818;stroke-width:1.0;" width="10" x="226.5" y="112.7988"/><rect fill="#FFFFFF" height="263.2422" style="stroke:#181818;stroke-width:1.0;" width="10" x="444.5" y="142.1094"/><rect fill="#FFFFFF" height="42" style="stroke:#181818;stroke-width:1.0;" width="10" x="710.5" y="195.7305"/><rect fill="#FFFFFF" height="42" style="stroke:#181818;stroke-width:1.0;" width="10" x="710.5" y="269.041"/><rect fill="#FFFFFF" height="42" style="stroke:#181818;stroke-width:1.0;" width="10" x="710.5" y="342.3516"/><rect fill="#FFFFFF" height="14" style="stroke:#181818;stroke-width:1.0;" width="10" x="808" y="209.7305"/><rect fill="#FFFFFF" height="14" style="stroke:#181818;stroke-width:1.0;" width="10" x="808" y="283.041"/><rect fill="#FFFFFF" height="14" style="stroke:#181818;stroke-width:1.0;" width="10" x="808" y="356.3516"/><rect fill="none" height="235.2422" style="stroke:#000000;stroke-width:1.5;" width="479.5" x="378" y="157.1094"/><line style="stroke:#181818;stroke-width:0.5;stroke-dasharray:5.0,5.0;" x1="18" x2="18" y1="81.4883" y2="437.3516"/><line style="stroke:#181818;stroke-width:0.5;stroke-dasharray:5.0,5.0;" x1="231" x2="231" y1="81.4883" y2="437.3516"/><line style="stroke:#181818;stroke-width:0.5;stroke-dasharray:5.0,5.0;" x1="449" x2="449" y1="81.4883" y2="437.3516"/><line style="stroke:#181818;stroke-width:0.5;stroke-dasharray:5.0,5.0;" x1="715.5" x2="715.5" y1="81.4883" y2="437.3516"/><line style="stroke:#181818;stroke-width:0.5;stroke-dasharray:5.0,5.0;" x1="812.5" x2="812.5" y1="81.4883" y2="437.3516"/><text fill="#000000" font-family="sans-serif" font-size="14" lengthAdjust="spacing" textLength="14" x="8.5" y="78.5352">UI</text><ellipse cx="18.5" cy="13.5" fill="#E2E2F0" rx="8" ry="8" style="stroke:#181818;stroke-width:0.5;"/><path d="M18.5,21.5 L18.5,48.5 M5.5,29.5 L31.5,29.5 M18.5,48.5 L5.5,63.5 M18.5,48.5 L31.5,63.5 " fill="none" style="stroke:#181818;stroke-width:0.5;"/><text fill="#000000" font-family="sans-serif" font-size="14" lengthAdjust="spacing" textLength="14" x="8.5" y="449.8867">UI</text><ellipse cx="18.5" cy="461.3398" fill="#E2E2F0" rx="8" ry="8" style="stroke:#181818;stroke-width:0.5;"/><path d="M18.5,469.3398 L18.5,496.3398 M5.5,477.3398 L31.5,477.3398 M18.5,496.3398 L5.5,511.3398 M18.5,496.3398 L31.5,511.3398 " fill="none" style="stroke:#181818;stroke-width:0.5;"/><text fill="#000000" font-family="sans-serif" font-size="14" lengthAdjust="spacing" textLength="131" x="163" y="78.5352">AnalyticsController</text><path d="M211,37 L211,61 M211,49 L228,49 " fill="none" style="stroke:#181818;stroke-width:0.5;"/><ellipse cx="240" cy="49" fill="#E2E2F0" rx="12" ry="12" style="stroke:#181818;stroke-width:0.5;"/><text fill="#000000" font-family="sans-serif" font-size="14" lengthAdjust="spacing" textLength="131" x="163" y="449.8867">AnalyticsController</text><path d="M211,456.8398 L211,480.8398 M211,468.8398 L228,468.8398 " fill="none" style="stroke:#181818;stroke-width:0.5;"/><ellipse cx="240" cy="468.8398" fill="#E2E2F0" rx="12" ry="12" style="stroke:#181818;stroke-width:0.5;"/><rect fill="#E2E2F0" height="30.4883" rx="2.5" ry="2.5" style="stroke:#181818;stroke-width:0.5;" width="123" x="388" y="50"/><text fill="#000000" font-family="sans-serif" font-size="14" lengthAdjust="spacing" textLength="109" x="395" y="70.5352">AnalyticsService</text><rect fill="#E2E2F0" height="30.4883" rx="2.5" ry="2.5" style="stroke:#181818;stroke-width:0.5;" width="123" x="388" y="436.3516"/><text fill="#000000" font-family="sans-serif" font-size="14" lengthAdjust="spacing" textLength="109" x="395" y="456.8867">AnalyticsService</text><rect fill="#E2E2F0" height="30.4883" rx="2.5" ry="2.5" style="stroke:#181818;stroke-width:0.5;" width="106" x="662.5" y="50"/><text fill="#000000" font-family="sans-serif" font-size="14" lengthAdjust="spacing" textLength="92" x="669.5" y="70.5352">AnalyticsDAO</text><rect fill="#E2E2F0" height="30.4883" rx="2.5" ry="2.5" style="stroke:#181818;stroke-width:0.5;" width="106" x="662.5" y="436.3516"/><text fill="#000000" font-family="sans-serif" font-size="14" lengthAdjust="spacing" textLength="92" x="669.5" y="456.8867">AnalyticsDAO</text><text fill="#000000" font-family="sans-serif" font-size="14" lengthAdjust="spacing" textLength="63" x="778.5" y="78.5352">Database</text><path d="M795,29 C795,19 813,19 813,19 C813,19 831,19 831,29 L831,55 C831,65 813,65 813,65 C813,65 795,65 795,55 L795,29 " fill="#E2E2F0" style="stroke:#181818;stroke-width:1.5;"/><path d="M795,29 C795,39 813,39 813,39 C813,39 831,39 831,29 " fill="none" style="stroke:#181818;stroke-width:1.5;"/><text fill="#000000" font-family="sans-serif" font-size="14" lengthAdjust="spacing" textLength="63" x="778.5" y="449.8867">Database</text><path d="M795,462.8398 C795,452.8398 813,452.8398 813,452.8398 C813,452.8398 831,452.8398 831,462.8398 L831,488.8398 C831,498.8398 813,498.8398 813,498.8398 C813,498.8398 795,498.8398 795,488.8398 L795,462.8398 " fill="#E2E2F0" style="stroke:#181818;stroke-width:1.5;"/><path d="M795,462.8398 C795,472.8398 813,472.8398 813,472.8398 C813,472.8398 831,472.8398 831,462.8398 " fill="none" style="stroke:#181818;stroke-width:1.5;"/><rect fill="#FFFFFF" height="306.5527" style="stroke:#181818;stroke-width:1.0;" width="10" x="226.5" y="112.7988"/><rect fill="#FFFFFF" height="263.2422" style="stroke:#181818;stroke-width:1.0;" width="10" x="444.5" y="142.1094"/><rect fill="#FFFFFF" height="42" style="stroke:#181818;stroke-width:1.0;" width="10" x="710.5" y="195.7305"/><rect fill="#FFFFFF" height="42" style="stroke:#181818;stroke-width:1.0;" width="10" x="710.5" y="269.041"/><rect fill="#FFFFFF" height="42" style="stroke:#181818;stroke-width:1.0;" width="10" x="710.5" y="342.3516"/><rect fill="#FFFFFF" height="14" style="stroke:#181818;stroke-width:1.0;" width="10" x="808" y="209.7305"/><rect fill="#FFFFFF" height="14" style="stroke:#181818;stroke-width:1.0;" width="10" x="808" y="283.041"/><rect fill="#FFFFFF" height="14" style="stroke:#181818;stroke-width:1.0;" width="10" x="808" y="356.3516"/><polygon fill="#181818" points="214.5,108.7988,224.5,112.7988,214.5,116.7988,218.5,112.7988" style="stroke:#181818;stroke-width:1.0;"/><line style="stroke:#181818;stroke-width:1.0;" x1="18.5" x2="220.5" y1="112.7988" y2="112.7988"/><text fill="#000000" font-family="sans-serif" font-size="13" lengthAdjust="spacing" textLength="189" x="25.5" y="108.0566">getUserGoalOccupationReport</text><polygon fill="#181818" points="432.5,138.1094,442.5,142.1094,432.5,146.1094,436.5,142.1094" style="stroke:#181818;stroke-width:1.0;"/><line style="stroke:#181818;stroke-width:1.0;" x1="236.5" x2="438.5" y1="142.1094" y2="142.1094"/><text fill="#000000" font-family="sans-serif" font-size="13" lengthAdjust="spacing" textLength="189" x="243.5" y="137.3672">getUserGoalOccupationReport</text><path d="M378,157.1094 L446,157.1094 L446,164.4199 L436,174.4199 L378,174.4199 L378,157.1094 " fill="#EEEEEE" style="stroke:#000000;stroke-width:1.5;"/><rect fill="none" height="235.2422" style="stroke:#000000;stroke-width:1.5;" width="479.5" x="378" y="157.1094"/><text fill="#000000" font-family="sans-serif" font-size="13" font-weight="bold" lengthAdjust="spacing" textLength="23" x="393" y="170.6777">par</text><polygon fill="#181818" points="698.5,191.7305,708.5,195.7305,698.5,199.7305,702.5,195.7305" style="stroke:#181818;stroke-width:1.0;"/><line style="stroke:#181818;stroke-width:1.0;" x1="454.5" x2="704.5" y1="195.7305" y2="195.7305"/><text fill="#000000" font-family="sans-serif" font-size="13" lengthAdjust="spacing" textLength="200" x="461.5" y="190.9883">getUserGoalOccupationPieChart</text><polygon fill="#181818" points="796,205.7305,806,209.7305,796,213.7305,800,209.7305" style="stroke:#181818;stroke-width:1.0;"/><line style="stroke:#181818;stroke-width:1.0;" x1="720.5" x2="802" y1="209.7305" y2="209.7305"/><polygon fill="#181818" points="731.5,219.7305,721.5,223.7305,731.5,227.7305,727.5,223.7305" style="stroke:#181818;stroke-width:1.0;"/><line style="stroke:#181818;stroke-width:1.0;stroke-dasharray:2.0,2.0;" x1="725.5" x2="812" y1="223.7305" y2="223.7305"/><polygon fill="#181818" points="465.5,233.7305,455.5,237.7305,465.5,241.7305,461.5,237.7305" style="stroke:#181818;stroke-width:1.0;"/><line style="stroke:#181818;stroke-width:1.0;stroke-dasharray:2.0,2.0;" x1="459.5" x2="714.5" y1="237.7305" y2="237.7305"/><line style="stroke:#000000;stroke-width:1.0;stroke-dasharray:2.0,2.0;" x1="378" x2="857.5" y1="246.7305" y2="246.7305"/><polygon fill="#181818" points="698.5,265.041,708.5,269.041,698.5,273.041,702.5,269.041" style="stroke:#181818;stroke-width:1.0;"/><line style="stroke:#181818;stroke-width:1.0;" x1="454.5" x2="704.5" y1="269.041" y2="269.041"/><text fill="#000000" font-family="sans-serif" font-size="13" lengthAdjust="spacing" textLength="208" x="461.5" y="264.2988">getUserGoalOccupationMapChart</text><polygon fill="#181818" points="796,279.041,806,283.041,796,287.041,800,283.041" style="stroke:#181818;stroke-width:1.0;"/><line style="stroke:#181818;stroke-width:1.0;" x1="720.5" x2="802" y1="283.041" y2="283.041"/><polygon fill="#181818" points="731.5,293.041,721.5,297.041,731.5,301.041,727.5,297.041" style="stroke:#181818;stroke-width:1.0;"/><line style="stroke:#181818;stroke-width:1.0;stroke-dasharray:2.0,2.0;" x1="725.5" x2="812" y1="297.041" y2="297.041"/><polygon fill="#181818" points="465.5,307.041,455.5,311.041,465.5,315.041,461.5,311.041" style="stroke:#181818;stroke-width:1.0;"/><line style="stroke:#181818;stroke-width:1.0;stroke-dasharray:2.0,2.0;" x1="459.5" x2="714.5" y1="311.041" y2="311.041"/><line style="stroke:#000000;stroke-width:1.0;stroke-dasharray:2.0,2.0;" x1="378" x2="857.5" y1="320.041" y2="320.041"/><polygon fill="#181818" points="698.5,338.3516,708.5,342.3516,698.5,346.3516,702.5,342.3516" style="stroke:#181818;stroke-width:1.0;"/><line style="stroke:#181818;stroke-width:1.0;" x1="454.5" x2="704.5" y1="342.3516" y2="342.3516"/><text fill="#000000" font-family="sans-serif" font-size="13" lengthAdjust="spacing" textLength="237" x="461.5" y="337.6094">getUserGoalOccupationHeatMapChart</text><polygon fill="#181818" points="796,352.3516,806,356.3516,796,360.3516,800,356.3516" style="stroke:#181818;stroke-width:1.0;"/><line style="stroke:#181818;stroke-width:1.0;" x1="720.5" x2="802" y1="356.3516" y2="356.3516"/><polygon fill="#181818" points="731.5,366.3516,721.5,370.3516,731.5,374.3516,727.5,370.3516" style="stroke:#181818;stroke-width:1.0;"/><line style="stroke:#181818;stroke-width:1.0;stroke-dasharray:2.0,2.0;" x1="725.5" x2="812" y1="370.3516" y2="370.3516"/><polygon fill="#181818" points="465.5,380.3516,455.5,384.3516,465.5,388.3516,461.5,384.3516" style="stroke:#181818;stroke-width:1.0;"/><line style="stroke:#181818;stroke-width:1.0;stroke-dasharray:2.0,2.0;" x1="459.5" x2="714.5" y1="384.3516" y2="384.3516"/><polygon fill="#181818" points="247.5,401.3516,237.5,405.3516,247.5,409.3516,243.5,405.3516" style="stroke:#181818;stroke-width:1.0;"/><line style="stroke:#181818;stroke-width:1.0;stroke-dasharray:2.0,2.0;" x1="241.5" x2="448.5" y1="405.3516" y2="405.3516"/><polygon fill="#181818" points="29.5,415.3516,19.5,419.3516,29.5,423.3516,25.5,419.3516" style="stroke:#181818;stroke-width:1.0;"/><line style="stroke:#181818;stroke-width:1.0;stroke-dasharray:2.0,2.0;" x1="23.5" x2="230.5" y1="419.3516" y2="419.3516"/><!--SRC=[nOz12i8m44NtSufSm0ku44e5TI4LfGUOfeC6GYPCfq9lRmf1ArO4NPXD9ldyz_zWhunMtHML30U0z60nzGuQxaEBCfWYe1_KsQxaeCBUaq14IJykOj27VYAvEalpuhgee4N51Ziowpm0r3kpMCr5cAKvazOToORHLzRs4TLnE59aKPXpJ46vomTAQWecdHVR59MQlyCS79MNjEqpP3Gam7t9KHJINi9q99-bRyFt6FyNlYNKdmg45lAOhni0]--></g></svg>