<svg xmlns="http://www.w3.org/2000/svg" xmlns:xlink="http://www.w3.org/1999/xlink" contentStyleType="text/css" height="518px" preserveAspectRatio="none" style="width:850px;height:518px;background:#FFFFFF;" version="1.1" viewBox="0 0 850 518" width="850px" zoomAndPan="magnify"><defs/><g><rect fill="#FFFFFF" height="306.5527" style="stroke:#181818;stroke-width:1.0;" width="10" x="168.5" y="112.7988"/><rect fill="#FFFFFF" height="263.2422" style="stroke:#181818;stroke-width:1.0;" width="10" x="328.5" y="142.1094"/><rect fill="#FFFFFF" height="42" style="stroke:#181818;stroke-width:1.0;" width="10" x="696.5" y="195.7305"/><rect fill="#FFFFFF" height="42" style="stroke:#181818;stroke-width:1.0;" width="10" x="696.5" y="269.041"/><rect fill="#FFFFFF" height="42" style="stroke:#181818;stroke-width:1.0;" width="10" x="696.5" y="342.3516"/><rect fill="#FFFFFF" height="14" style="stroke:#181818;stroke-width:1.0;" width="10" x="794" y="209.7305"/><rect fill="#FFFFFF" height="14" style="stroke:#181818;stroke-width:1.0;" width="10" x="794" y="283.041"/><rect fill="#FFFFFF" height="14" style="stroke:#181818;stroke-width:1.0;" width="10" x="794" y="356.3516"/><rect fill="none" height="235.2422" style="stroke:#000000;stroke-width:1.5;" width="581.5" x="262" y="157.1094"/><line style="stroke:#181818;stroke-width:0.5;stroke-dasharray:5.0,5.0;" x1="18" x2="18" y1="81.4883" y2="437.3516"/><line style="stroke:#181818;stroke-width:0.5;stroke-dasharray:5.0,5.0;" x1="173" x2="173" y1="81.4883" y2="437.3516"/><line style="stroke:#181818;stroke-width:0.5;stroke-dasharray:5.0,5.0;" x1="333" x2="333" y1="81.4883" y2="437.3516"/><line style="stroke:#181818;stroke-width:0.5;stroke-dasharray:5.0,5.0;" x1="701.5" x2="701.5" y1="81.4883" y2="437.3516"/><line style="stroke:#181818;stroke-width:0.5;stroke-dasharray:5.0,5.0;" x1="798.5" x2="798.5" y1="81.4883" y2="437.3516"/><text fill="#000000" font-family="sans-serif" font-size="14" lengthAdjust="spacing" textLength="14" x="8.5" y="78.5352">UI</text><ellipse cx="18.5" cy="13.5" fill="#E2E2F0" rx="8" ry="8" style="stroke:#181818;stroke-width:0.5;"/><path d="M18.5,21.5 L18.5,48.5 M5.5,29.5 L31.5,29.5 M18.5,48.5 L5.5,63.5 M18.5,48.5 L31.5,63.5 " fill="none" style="stroke:#181818;stroke-width:0.5;"/><text fill="#000000" font-family="sans-serif" font-size="14" lengthAdjust="spacing" textLength="14" x="8.5" y="449.8867">UI</text><ellipse cx="18.5" cy="461.3398" fill="#E2E2F0" rx="8" ry="8" style="stroke:#181818;stroke-width:0.5;"/><path d="M18.5,469.3398 L18.5,496.3398 M5.5,477.3398 L31.5,477.3398 M18.5,496.3398 L5.5,511.3398 M18.5,496.3398 L31.5,511.3398 " fill="none" style="stroke:#181818;stroke-width:0.5;"/><text fill="#000000" font-family="sans-serif" font-size="14" lengthAdjust="spacing" textLength="131" x="105" y="78.5352">AnalyticsController</text><path d="M153,37 L153,61 M153,49 L170,49 " fill="none" style="stroke:#181818;stroke-width:0.5;"/><ellipse cx="182" cy="49" fill="#E2E2F0" rx="12" ry="12" style="stroke:#181818;stroke-width:0.5;"/><text fill="#000000" font-family="sans-serif" font-size="14" lengthAdjust="spacing" textLength="131" x="105" y="449.8867">AnalyticsController</text><path d="M153,456.8398 L153,480.8398 M153,468.8398 L170,468.8398 " fill="none" style="stroke:#181818;stroke-width:0.5;"/><ellipse cx="182" cy="468.8398" fill="#E2E2F0" rx="12" ry="12" style="stroke:#181818;stroke-width:0.5;"/><rect fill="#E2E2F0" height="30.4883" rx="2.5" ry="2.5" style="stroke:#181818;stroke-width:0.5;" width="123" x="272" y="50"/><text fill="#000000" font-family="sans-serif" font-size="14" lengthAdjust="spacing" textLength="109" x="279" y="70.5352">AnalyticsService</text><rect fill="#E2E2F0" height="30.4883" rx="2.5" ry="2.5" style="stroke:#181818;stroke-width:0.5;" width="123" x="272" y="436.3516"/><text fill="#000000" font-family="sans-serif" font-size="14" lengthAdjust="spacing" textLength="109" x="279" y="456.8867">AnalyticsService</text><rect fill="#E2E2F0" height="30.4883" rx="2.5" ry="2.5" style="stroke:#181818;stroke-width:0.5;" width="106" x="648.5" y="50"/><text fill="#000000" font-family="sans-serif" font-size="14" lengthAdjust="spacing" textLength="92" x="655.5" y="70.5352">AnalyticsDAO</text><rect fill="#E2E2F0" height="30.4883" rx="2.5" ry="2.5" style="stroke:#181818;stroke-width:0.5;" width="106" x="648.5" y="436.3516"/><text fill="#000000" font-family="sans-serif" font-size="14" lengthAdjust="spacing" textLength="92" x="655.5" y="456.8867">AnalyticsDAO</text><text fill="#000000" font-family="sans-serif" font-size="14" lengthAdjust="spacing" textLength="63" x="764.5" y="78.5352">Database</text><path d="M781,29 C781,19 799,19 799,19 C799,19 817,19 817,29 L817,55 C817,65 799,65 799,65 C799,65 781,65 781,55 L781,29 " fill="#E2E2F0" style="stroke:#181818;stroke-width:1.5;"/><path d="M781,29 C781,39 799,39 799,39 C799,39 817,39 817,29 " fill="none" style="stroke:#181818;stroke-width:1.5;"/><text fill="#000000" font-family="sans-serif" font-size="14" lengthAdjust="spacing" textLength="63" x="764.5" y="449.8867">Database</text><path d="M781,462.8398 C781,452.8398 799,452.8398 799,452.8398 C799,452.8398 817,452.8398 817,462.8398 L817,488.8398 C817,498.8398 799,498.8398 799,498.8398 C799,498.8398 781,498.8398 781,488.8398 L781,462.8398 " fill="#E2E2F0" style="stroke:#181818;stroke-width:1.5;"/><path d="M781,462.8398 C781,472.8398 799,472.8398 799,472.8398 C799,472.8398 817,472.8398 817,462.8398 " fill="none" style="stroke:#181818;stroke-width:1.5;"/><rect fill="#FFFFFF" height="306.5527" style="stroke:#181818;stroke-width:1.0;" width="10" x="168.5" y="112.7988"/><rect fill="#FFFFFF" height="263.2422" style="stroke:#181818;stroke-width:1.0;" width="10" x="328.5" y="142.1094"/><rect fill="#FFFFFF" height="42" style="stroke:#181818;stroke-width:1.0;" width="10" x="696.5" y="195.7305"/><rect fill="#FFFFFF" height="42" style="stroke:#181818;stroke-width:1.0;" width="10" x="696.5" y="269.041"/><rect fill="#FFFFFF" height="42" style="stroke:#181818;stroke-width:1.0;" width="10" x="696.5" y="342.3516"/><rect fill="#FFFFFF" height="14" style="stroke:#181818;stroke-width:1.0;" width="10" x="794" y="209.7305"/><rect fill="#FFFFFF" height="14" style="stroke:#181818;stroke-width:1.0;" width="10" x="794" y="283.041"/><rect fill="#FFFFFF" height="14" style="stroke:#181818;stroke-width:1.0;" width="10" x="794" y="356.3516"/><polygon fill="#181818" points="156.5,108.7988,166.5,112.7988,156.5,116.7988,160.5,112.7988" style="stroke:#181818;stroke-width:1.0;"/><line style="stroke:#181818;stroke-width:1.0;" x1="18.5" x2="162.5" y1="112.7988" y2="112.7988"/><text fill="#000000" font-family="sans-serif" font-size="13" lengthAdjust="spacing" textLength="131" x="25.5" y="108.0566">getNewsEngagement</text><polygon fill="#181818" points="316.5,138.1094,326.5,142.1094,316.5,146.1094,320.5,142.1094" style="stroke:#181818;stroke-width:1.0;"/><line style="stroke:#181818;stroke-width:1.0;" x1="178.5" x2="322.5" y1="142.1094" y2="142.1094"/><text fill="#000000" font-family="sans-serif" font-size="13" lengthAdjust="spacing" textLength="131" x="185.5" y="137.3672">getNewsEngagement</text><path d="M262,157.1094 L330,157.1094 L330,164.4199 L320,174.4199 L262,174.4199 L262,157.1094 " fill="#EEEEEE" style="stroke:#000000;stroke-width:1.5;"/><rect fill="none" height="235.2422" style="stroke:#000000;stroke-width:1.5;" width="581.5" x="262" y="157.1094"/><text fill="#000000" font-family="sans-serif" font-size="13" font-weight="bold" lengthAdjust="spacing" textLength="23" x="277" y="170.6777">par</text><polygon fill="#181818" points="684.5,191.7305,694.5,195.7305,684.5,199.7305,688.5,195.7305" style="stroke:#181818;stroke-width:1.0;"/><line style="stroke:#181818;stroke-width:1.0;" x1="338.5" x2="690.5" y1="195.7305" y2="195.7305"/><text fill="#000000" font-family="sans-serif" font-size="13" lengthAdjust="spacing" textLength="339" x="345.5" y="190.9883">getNewsEngagementCurrentOccupationHeatMapChart</text><polygon fill="#181818" points="782,205.7305,792,209.7305,782,213.7305,786,209.7305" style="stroke:#181818;stroke-width:1.0;"/><line style="stroke:#181818;stroke-width:1.0;" x1="706.5" x2="788" y1="209.7305" y2="209.7305"/><polygon fill="#181818" points="717.5,219.7305,707.5,223.7305,717.5,227.7305,713.5,223.7305" style="stroke:#181818;stroke-width:1.0;"/><line style="stroke:#181818;stroke-width:1.0;stroke-dasharray:2.0,2.0;" x1="711.5" x2="798" y1="223.7305" y2="223.7305"/><polygon fill="#181818" points="349.5,233.7305,339.5,237.7305,349.5,241.7305,345.5,237.7305" style="stroke:#181818;stroke-width:1.0;"/><line style="stroke:#181818;stroke-width:1.0;stroke-dasharray:2.0,2.0;" x1="343.5" x2="700.5" y1="237.7305" y2="237.7305"/><line style="stroke:#000000;stroke-width:1.0;stroke-dasharray:2.0,2.0;" x1="262" x2="843.5" y1="246.7305" y2="246.7305"/><polygon fill="#181818" points="684.5,265.041,694.5,269.041,684.5,273.041,688.5,269.041" style="stroke:#181818;stroke-width:1.0;"/><line style="stroke:#181818;stroke-width:1.0;" x1="338.5" x2="690.5" y1="269.041" y2="269.041"/><text fill="#000000" font-family="sans-serif" font-size="13" lengthAdjust="spacing" textLength="320" x="345.5" y="264.2988">getNewsEngagementGoalOccupationHeatMapChart</text><polygon fill="#181818" points="782,279.041,792,283.041,782,287.041,786,283.041" style="stroke:#181818;stroke-width:1.0;"/><line style="stroke:#181818;stroke-width:1.0;" x1="706.5" x2="788" y1="283.041" y2="283.041"/><polygon fill="#181818" points="717.5,293.041,707.5,297.041,717.5,301.041,713.5,297.041" style="stroke:#181818;stroke-width:1.0;"/><line style="stroke:#181818;stroke-width:1.0;stroke-dasharray:2.0,2.0;" x1="711.5" x2="798" y1="297.041" y2="297.041"/><polygon fill="#181818" points="349.5,307.041,339.5,311.041,349.5,315.041,345.5,311.041" style="stroke:#181818;stroke-width:1.0;"/><line style="stroke:#181818;stroke-width:1.0;stroke-dasharray:2.0,2.0;" x1="343.5" x2="700.5" y1="311.041" y2="311.041"/><line style="stroke:#000000;stroke-width:1.0;stroke-dasharray:2.0,2.0;" x1="262" x2="843.5" y1="320.041" y2="320.041"/><polygon fill="#181818" points="684.5,338.3516,694.5,342.3516,684.5,346.3516,688.5,342.3516" style="stroke:#181818;stroke-width:1.0;"/><line style="stroke:#181818;stroke-width:1.0;" x1="338.5" x2="690.5" y1="342.3516" y2="342.3516"/><text fill="#000000" font-family="sans-serif" font-size="13" lengthAdjust="spacing" textLength="191" x="345.5" y="337.6094">getNewsEngagementMapChart</text><polygon fill="#181818" points="782,352.3516,792,356.3516,782,360.3516,786,356.3516" style="stroke:#181818;stroke-width:1.0;"/><line style="stroke:#181818;stroke-width:1.0;" x1="706.5" x2="788" y1="356.3516" y2="356.3516"/><polygon fill="#181818" points="717.5,366.3516,707.5,370.3516,717.5,374.3516,713.5,370.3516" style="stroke:#181818;stroke-width:1.0;"/><line style="stroke:#181818;stroke-width:1.0;stroke-dasharray:2.0,2.0;" x1="711.5" x2="798" y1="370.3516" y2="370.3516"/><polygon fill="#181818" points="349.5,380.3516,339.5,384.3516,349.5,388.3516,345.5,384.3516" style="stroke:#181818;stroke-width:1.0;"/><line style="stroke:#181818;stroke-width:1.0;stroke-dasharray:2.0,2.0;" x1="343.5" x2="700.5" y1="384.3516" y2="384.3516"/><polygon fill="#181818" points="189.5,401.3516,179.5,405.3516,189.5,409.3516,185.5,405.3516" style="stroke:#181818;stroke-width:1.0;"/><line style="stroke:#181818;stroke-width:1.0;stroke-dasharray:2.0,2.0;" x1="183.5" x2="332.5" y1="405.3516" y2="405.3516"/><polygon fill="#181818" points="29.5,415.3516,19.5,419.3516,29.5,423.3516,25.5,419.3516" style="stroke:#181818;stroke-width:1.0;"/><line style="stroke:#181818;stroke-width:1.0;stroke-dasharray:2.0,2.0;" x1="23.5" x2="172.5" y1="419.3516" y2="419.3516"/><!--SRC=[pKyn3i8m3DpzYdo03p0WeHO10p0W7k2cLeaKdCfrGFqzGOgWY4omaCNddEzyngW1hRehAfd00Aa9OavRQ4Ba5cKqIqO_ghD35LWbU4y2FKhwSJsollWZoTLPAfFryW0jAZOuaAap03XjpMnHMc7cfYFTqsrOSOSTNOWLIdDJUKvGrAPKODBx69uQf9GbSHL5KZbO6tjK5tX3g3ligtCwzTtruP0SdnS-I26DmbD8FbFVf5a7z7yIvQV5t4A6kTm1]--></g></svg>