<svg xmlns="http://www.w3.org/2000/svg" xmlns:xlink="http://www.w3.org/1999/xlink" contentStyleType="text/css" height="518px" preserveAspectRatio="none" style="width:982px;height:518px;background:#FFFFFF;" version="1.1" viewBox="0 0 982 518" width="982px" zoomAndPan="magnify"><defs/><g><rect fill="#FFFFFF" height="306.5527" style="stroke:#181818;stroke-width:1.0;" width="10" x="212.5" y="112.7988"/><rect fill="#FFFFFF" height="263.2422" style="stroke:#181818;stroke-width:1.0;" width="10" x="416.5" y="142.1094"/><rect fill="#FFFFFF" height="42" style="stroke:#181818;stroke-width:1.0;" width="10" x="828.5" y="195.7305"/><rect fill="#FFFFFF" height="42" style="stroke:#181818;stroke-width:1.0;" width="10" x="828.5" y="269.041"/><rect fill="#FFFFFF" height="42" style="stroke:#181818;stroke-width:1.0;" width="10" x="828.5" y="342.3516"/><rect fill="#FFFFFF" height="14" style="stroke:#181818;stroke-width:1.0;" width="10" x="926" y="209.7305"/><rect fill="#FFFFFF" height="14" style="stroke:#181818;stroke-width:1.0;" width="10" x="926" y="283.041"/><rect fill="#FFFFFF" height="14" style="stroke:#181818;stroke-width:1.0;" width="10" x="926" y="356.3516"/><rect fill="none" height="235.2422" style="stroke:#000000;stroke-width:1.5;" width="625.5" x="350" y="157.1094"/><line style="stroke:#181818;stroke-width:0.5;stroke-dasharray:5.0,5.0;" x1="18" x2="18" y1="81.4883" y2="437.3516"/><line style="stroke:#181818;stroke-width:0.5;stroke-dasharray:5.0,5.0;" x1="217" x2="217" y1="81.4883" y2="437.3516"/><line style="stroke:#181818;stroke-width:0.5;stroke-dasharray:5.0,5.0;" x1="421" x2="421" y1="81.4883" y2="437.3516"/><line style="stroke:#181818;stroke-width:0.5;stroke-dasharray:5.0,5.0;" x1="833.5" x2="833.5" y1="81.4883" y2="437.3516"/><line style="stroke:#181818;stroke-width:0.5;stroke-dasharray:5.0,5.0;" x1="930.5" x2="930.5" y1="81.4883" y2="437.3516"/><text fill="#000000" font-family="sans-serif" font-size="14" lengthAdjust="spacing" textLength="14" x="8.5" y="78.5352">UI</text><ellipse cx="18.5" cy="13.5" fill="#E2E2F0" rx="8" ry="8" style="stroke:#181818;stroke-width:0.5;"/><path d="M18.5,21.5 L18.5,48.5 M5.5,29.5 L31.5,29.5 M18.5,48.5 L5.5,63.5 M18.5,48.5 L31.5,63.5 " fill="none" style="stroke:#181818;stroke-width:0.5;"/><text fill="#000000" font-family="sans-serif" font-size="14" lengthAdjust="spacing" textLength="14" x="8.5" y="449.8867">UI</text><ellipse cx="18.5" cy="461.3398" fill="#E2E2F0" rx="8" ry="8" style="stroke:#181818;stroke-width:0.5;"/><path d="M18.5,469.3398 L18.5,496.3398 M5.5,477.3398 L31.5,477.3398 M18.5,496.3398 L5.5,511.3398 M18.5,496.3398 L31.5,511.3398 " fill="none" style="stroke:#181818;stroke-width:0.5;"/><text fill="#000000" font-family="sans-serif" font-size="14" lengthAdjust="spacing" textLength="131" x="149" y="78.5352">AnalyticsController</text><path d="M197,37 L197,61 M197,49 L214,49 " fill="none" style="stroke:#181818;stroke-width:0.5;"/><ellipse cx="226" cy="49" fill="#E2E2F0" rx="12" ry="12" style="stroke:#181818;stroke-width:0.5;"/><text fill="#000000" font-family="sans-serif" font-size="14" lengthAdjust="spacing" textLength="131" x="149" y="449.8867">AnalyticsController</text><path d="M197,456.8398 L197,480.8398 M197,468.8398 L214,468.8398 " fill="none" style="stroke:#181818;stroke-width:0.5;"/><ellipse cx="226" cy="468.8398" fill="#E2E2F0" rx="12" ry="12" style="stroke:#181818;stroke-width:0.5;"/><rect fill="#E2E2F0" height="30.4883" rx="2.5" ry="2.5" style="stroke:#181818;stroke-width:0.5;" width="123" x="360" y="50"/><text fill="#000000" font-family="sans-serif" font-size="14" lengthAdjust="spacing" textLength="109" x="367" y="70.5352">AnalyticsService</text><rect fill="#E2E2F0" height="30.4883" rx="2.5" ry="2.5" style="stroke:#181818;stroke-width:0.5;" width="123" x="360" y="436.3516"/><text fill="#000000" font-family="sans-serif" font-size="14" lengthAdjust="spacing" textLength="109" x="367" y="456.8867">AnalyticsService</text><rect fill="#E2E2F0" height="30.4883" rx="2.5" ry="2.5" style="stroke:#181818;stroke-width:0.5;" width="106" x="780.5" y="50"/><text fill="#000000" font-family="sans-serif" font-size="14" lengthAdjust="spacing" textLength="92" x="787.5" y="70.5352">AnalyticsDAO</text><rect fill="#E2E2F0" height="30.4883" rx="2.5" ry="2.5" style="stroke:#181818;stroke-width:0.5;" width="106" x="780.5" y="436.3516"/><text fill="#000000" font-family="sans-serif" font-size="14" lengthAdjust="spacing" textLength="92" x="787.5" y="456.8867">AnalyticsDAO</text><text fill="#000000" font-family="sans-serif" font-size="14" lengthAdjust="spacing" textLength="63" x="896.5" y="78.5352">Database</text><path d="M913,29 C913,19 931,19 931,19 C931,19 949,19 949,29 L949,55 C949,65 931,65 931,65 C931,65 913,65 913,55 L913,29 " fill="#E2E2F0" style="stroke:#181818;stroke-width:1.5;"/><path d="M913,29 C913,39 931,39 931,39 C931,39 949,39 949,29 " fill="none" style="stroke:#181818;stroke-width:1.5;"/><text fill="#000000" font-family="sans-serif" font-size="14" lengthAdjust="spacing" textLength="63" x="896.5" y="449.8867">Database</text><path d="M913,462.8398 C913,452.8398 931,452.8398 931,452.8398 C931,452.8398 949,452.8398 949,462.8398 L949,488.8398 C949,498.8398 931,498.8398 931,498.8398 C931,498.8398 913,498.8398 913,488.8398 L913,462.8398 " fill="#E2E2F0" style="stroke:#181818;stroke-width:1.5;"/><path d="M913,462.8398 C913,472.8398 931,472.8398 931,472.8398 C931,472.8398 949,472.8398 949,462.8398 " fill="none" style="stroke:#181818;stroke-width:1.5;"/><rect fill="#FFFFFF" height="306.5527" style="stroke:#181818;stroke-width:1.0;" width="10" x="212.5" y="112.7988"/><rect fill="#FFFFFF" height="263.2422" style="stroke:#181818;stroke-width:1.0;" width="10" x="416.5" y="142.1094"/><rect fill="#FFFFFF" height="42" style="stroke:#181818;stroke-width:1.0;" width="10" x="828.5" y="195.7305"/><rect fill="#FFFFFF" height="42" style="stroke:#181818;stroke-width:1.0;" width="10" x="828.5" y="269.041"/><rect fill="#FFFFFF" height="42" style="stroke:#181818;stroke-width:1.0;" width="10" x="828.5" y="342.3516"/><rect fill="#FFFFFF" height="14" style="stroke:#181818;stroke-width:1.0;" width="10" x="926" y="209.7305"/><rect fill="#FFFFFF" height="14" style="stroke:#181818;stroke-width:1.0;" width="10" x="926" y="283.041"/><rect fill="#FFFFFF" height="14" style="stroke:#181818;stroke-width:1.0;" width="10" x="926" y="356.3516"/><polygon fill="#181818" points="200.5,108.7988,210.5,112.7988,200.5,116.7988,204.5,112.7988" style="stroke:#181818;stroke-width:1.0;"/><line style="stroke:#181818;stroke-width:1.0;" x1="18.5" x2="206.5" y1="112.7988" y2="112.7988"/><text fill="#000000" font-family="sans-serif" font-size="13" lengthAdjust="spacing" textLength="175" x="25.5" y="108.0566">getCertificationEngagement</text><polygon fill="#181818" points="404.5,138.1094,414.5,142.1094,404.5,146.1094,408.5,142.1094" style="stroke:#181818;stroke-width:1.0;"/><line style="stroke:#181818;stroke-width:1.0;" x1="222.5" x2="410.5" y1="142.1094" y2="142.1094"/><text fill="#000000" font-family="sans-serif" font-size="13" lengthAdjust="spacing" textLength="175" x="229.5" y="137.3672">getCertificationEngagement</text><path d="M350,157.1094 L418,157.1094 L418,164.4199 L408,174.4199 L350,174.4199 L350,157.1094 " fill="#EEEEEE" style="stroke:#000000;stroke-width:1.5;"/><rect fill="none" height="235.2422" style="stroke:#000000;stroke-width:1.5;" width="625.5" x="350" y="157.1094"/><text fill="#000000" font-family="sans-serif" font-size="13" font-weight="bold" lengthAdjust="spacing" textLength="23" x="365" y="170.6777">par</text><polygon fill="#181818" points="816.5,191.7305,826.5,195.7305,816.5,199.7305,820.5,195.7305" style="stroke:#181818;stroke-width:1.0;"/><line style="stroke:#181818;stroke-width:1.0;" x1="426.5" x2="822.5" y1="195.7305" y2="195.7305"/><text fill="#000000" font-family="sans-serif" font-size="13" lengthAdjust="spacing" textLength="383" x="433.5" y="190.9883">getCertificationEngagementCurrentOccupationHeatMapChart</text><polygon fill="#181818" points="914,205.7305,924,209.7305,914,213.7305,918,209.7305" style="stroke:#181818;stroke-width:1.0;"/><line style="stroke:#181818;stroke-width:1.0;" x1="838.5" x2="920" y1="209.7305" y2="209.7305"/><polygon fill="#181818" points="849.5,219.7305,839.5,223.7305,849.5,227.7305,845.5,223.7305" style="stroke:#181818;stroke-width:1.0;"/><line style="stroke:#181818;stroke-width:1.0;stroke-dasharray:2.0,2.0;" x1="843.5" x2="930" y1="223.7305" y2="223.7305"/><polygon fill="#181818" points="437.5,233.7305,427.5,237.7305,437.5,241.7305,433.5,237.7305" style="stroke:#181818;stroke-width:1.0;"/><line style="stroke:#181818;stroke-width:1.0;stroke-dasharray:2.0,2.0;" x1="431.5" x2="832.5" y1="237.7305" y2="237.7305"/><line style="stroke:#000000;stroke-width:1.0;stroke-dasharray:2.0,2.0;" x1="350" x2="975.5" y1="246.7305" y2="246.7305"/><polygon fill="#181818" points="816.5,265.041,826.5,269.041,816.5,273.041,820.5,269.041" style="stroke:#181818;stroke-width:1.0;"/><line style="stroke:#181818;stroke-width:1.0;" x1="426.5" x2="822.5" y1="269.041" y2="269.041"/><text fill="#000000" font-family="sans-serif" font-size="13" lengthAdjust="spacing" textLength="364" x="433.5" y="264.2988">getCertificationEngagementGoalOccupationHeatMapChart</text><polygon fill="#181818" points="914,279.041,924,283.041,914,287.041,918,283.041" style="stroke:#181818;stroke-width:1.0;"/><line style="stroke:#181818;stroke-width:1.0;" x1="838.5" x2="920" y1="283.041" y2="283.041"/><polygon fill="#181818" points="849.5,293.041,839.5,297.041,849.5,301.041,845.5,297.041" style="stroke:#181818;stroke-width:1.0;"/><line style="stroke:#181818;stroke-width:1.0;stroke-dasharray:2.0,2.0;" x1="843.5" x2="930" y1="297.041" y2="297.041"/><polygon fill="#181818" points="437.5,307.041,427.5,311.041,437.5,315.041,433.5,311.041" style="stroke:#181818;stroke-width:1.0;"/><line style="stroke:#181818;stroke-width:1.0;stroke-dasharray:2.0,2.0;" x1="431.5" x2="832.5" y1="311.041" y2="311.041"/><line style="stroke:#000000;stroke-width:1.0;stroke-dasharray:2.0,2.0;" x1="350" x2="975.5" y1="320.041" y2="320.041"/><polygon fill="#181818" points="816.5,338.3516,826.5,342.3516,816.5,346.3516,820.5,342.3516" style="stroke:#181818;stroke-width:1.0;"/><line style="stroke:#181818;stroke-width:1.0;" x1="426.5" x2="822.5" y1="342.3516" y2="342.3516"/><text fill="#000000" font-family="sans-serif" font-size="13" lengthAdjust="spacing" textLength="235" x="433.5" y="337.6094">getCertificationEngagementMapChart</text><polygon fill="#181818" points="914,352.3516,924,356.3516,914,360.3516,918,356.3516" style="stroke:#181818;stroke-width:1.0;"/><line style="stroke:#181818;stroke-width:1.0;" x1="838.5" x2="920" y1="356.3516" y2="356.3516"/><polygon fill="#181818" points="849.5,366.3516,839.5,370.3516,849.5,374.3516,845.5,370.3516" style="stroke:#181818;stroke-width:1.0;"/><line style="stroke:#181818;stroke-width:1.0;stroke-dasharray:2.0,2.0;" x1="843.5" x2="930" y1="370.3516" y2="370.3516"/><polygon fill="#181818" points="437.5,380.3516,427.5,384.3516,437.5,388.3516,433.5,384.3516" style="stroke:#181818;stroke-width:1.0;"/><line style="stroke:#181818;stroke-width:1.0;stroke-dasharray:2.0,2.0;" x1="431.5" x2="832.5" y1="384.3516" y2="384.3516"/><polygon fill="#181818" points="233.5,401.3516,223.5,405.3516,233.5,409.3516,229.5,405.3516" style="stroke:#181818;stroke-width:1.0;"/><line style="stroke:#181818;stroke-width:1.0;stroke-dasharray:2.0,2.0;" x1="227.5" x2="420.5" y1="405.3516" y2="405.3516"/><polygon fill="#181818" points="29.5,415.3516,19.5,419.3516,29.5,423.3516,25.5,419.3516" style="stroke:#181818;stroke-width:1.0;"/><line style="stroke:#181818;stroke-width:1.0;stroke-dasharray:2.0,2.0;" x1="23.5" x2="216.5" y1="419.3516" y2="419.3516"/><!--SRC=[pP112W8n34NtEKKlu0LS23AAkX0NuW4odJWMQZh4L9ZR6wNeY8CRDtQJj9-ylXQp9lGQhgZa4WFO9eaxRA1EcHkKtiqPOw_1Nwh4AYb64kXGx2HqoFhAzoJNu6ayNCntqA1YZHToYz8073PkCXkxmarTIrgHeOx1euR4IswnfJEnmjZ0a5DKlaFC4vojZwaXoRo_KgeiOcNdVUuUqPfGjzXL9_k5T_mTPUZdu- -Xa6RXOKknH3zfhHB6VtFwoO0RA6qfDm00]--></g></svg>