<?xml version="1.0" standalone="no"?>
<!DOCTYPE svg PUBLIC "-//W3C//DTD SVG 20010904//EN"
 "http://www.w3.org/TR/2001/REC-SVG-20010904/DTD/svg10.dtd">
<svg version="1.0" xmlns="http://www.w3.org/2000/svg"
 width="1948.000000pt" height="368.000000pt" viewBox="0 0 1948.000000 368.000000"
 preserveAspectRatio="xMidYMid meet" style="background: #FFFFFF;">

<g transform="translate(0.000000,368.000000) scale(0.100000,-0.100000)"
fill="#000000" stroke="none">
<path d="M0 3530 c0 -7 3253 -10 9740 -10 6487 0 9740 3 9740 10 0 7 -3253 10
-9740 10 -6487 0 -9740 -3 -9740 -10z"/>
<path d="M16790 2800 c-14 -4 -45 -8 -68 -9 -36 -1 -50 -7 -78 -35 -32 -32
-34 -39 -34 -98 0 -36 -3 -67 -6 -71 -5 -5 -56 22 -161 85 -18 11 -34 15 -37
9 -4 -5 34 -33 84 -61 49 -28 90 -53 90 -56 0 -2 -342 -4 -760 -4 l-760 0 0
71 c0 67 -2 73 -34 105 l-34 34 -1812 0 -1812 0 -34 -34 c-32 -32 -34 -39 -34
-98 0 -36 -3 -67 -6 -70 -3 -4 -44 16 -92 44 -100 57 -96 56 -100 44 -2 -5 34
-31 80 -57 l83 -49 -367 0 -368 0 0 76 c0 73 -1 77 -34 110 l-34 34 -1302 0
-1302 0 -34 -34 c-32 -32 -34 -39 -34 -98 0 -36 -3 -67 -6 -70 -3 -4 -44 16
-92 44 -100 57 -96 56 -100 44 -2 -5 34 -31 80 -57 l83 -49 -367 0 -368 0 0
73 c0 80 -12 107 -60 132 -25 13 -197 15 -1346 15 l-1316 0 -34 -34 c-32 -32
-34 -39 -34 -98 0 -36 -3 -67 -6 -70 -3 -4 -44 16 -92 44 -100 57 -96 56 -100
44 -2 -5 34 -31 80 -57 l83 -49 -297 0 -298 0 0 73 c0 80 -12 107 -60 132 -25
13 -155 15 -976 15 l-946 0 -34 -34 c-30 -30 -34 -40 -34 -88 0 -30 -3 -57 -6
-60 -3 -4 -44 16 -92 44 -100 57 -96 56 -100 44 -2 -5 34 -31 80 -57 l83 -49
-295 0 -296 0 -12 44 c-42 157 -247 208 -364 92 -45 -46 -61 -91 -56 -166 4
-77 32 -128 95 -170 31 -22 48 -25 117 -25 70 0 86 3 118 25 40 27 86 90 94
130 3 14 7 31 10 38 2 9 70 12 294 12 159 0 290 -3 290 -7 0 -5 -38 -30 -85
-56 -47 -27 -83 -53 -79 -58 3 -6 19 -2 37 9 105 63 156 90 161 85 3 -4 6 -37
6 -75 0 -79 16 -118 55 -136 19 -9 261 -12 975 -12 l950 0 32 29 c31 28 33 34
38 113 l5 83 293 3 c160 1 292 -1 292 -5 0 -5 -38 -30 -85 -56 -47 -27 -83
-53 -79 -58 3 -6 19 -2 37 9 105 63 156 90 161 85 3 -4 6 -32 6 -64 0 -32 5
-70 12 -84 26 -58 -48 -55 1387 -55 l1321 0 32 29 c31 28 33 34 38 113 l5 83
363 3 c199 1 362 -1 362 -5 0 -5 -38 -30 -85 -56 -47 -27 -83 -53 -79 -58 3
-6 19 -2 37 9 105 63 156 90 161 85 3 -4 6 -32 6 -64 0 -32 5 -70 12 -84 26
-58 -46 -55 1362 -55 l1296 0 32 29 c31 28 33 34 38 113 l5 83 363 3 c199 1
362 -1 362 -5 0 -5 -38 -30 -85 -56 -47 -27 -83 -53 -79 -58 3 -6 19 -2 37 9
105 63 156 90 161 85 3 -4 6 -33 6 -65 0 -68 18 -109 55 -126 20 -9 453 -12
1830 -12 l1805 0 32 29 c32 28 33 33 38 118 l5 88 755 2 755 3 -83 -49 c-46
-26 -82 -52 -80 -57 4 -12 0 -13 100 44 48 28 89 48 92 44 3 -3 6 -32 6 -64 0
-70 19 -111 57 -126 34 -13 117 -25 158 -22 17 1 200 3 408 6 l377 5 0 -161
c0 -88 -2 -160 -4 -160 -2 0 -25 36 -51 80 -26 44 -51 78 -56 75 -4 -3 17 -47
48 -98 30 -51 57 -95 60 -99 2 -4 -61 -50 -139 -103 l-143 -95 -1378 0 c-820
0 -1376 4 -1373 9 3 5 42 30 86 56 44 26 78 51 75 56 -3 4 -46 -16 -94 -46
-49 -29 -92 -51 -95 -48 -3 4 -6 35 -6 71 0 61 -2 66 -39 103 l-39 39 -1322 0
-1322 0 -34 -34 c-33 -33 -34 -36 -34 -115 l0 -81 -342 0 -343 0 83 49 c46 26
82 52 80 57 -4 12 0 13 -100 -44 -48 -28 -89 -48 -92 -44 -3 3 -6 30 -6 59 0
59 -18 103 -52 127 -20 14 -191 16 -1651 16 -1490 0 -1631 -1 -1657 -16 -43
-26 -60 -64 -60 -138 l0 -66 -332 0 -333 0 83 49 c46 26 82 52 80 57 -4 12 0
13 -100 -44 -48 -28 -89 -48 -92 -44 -3 3 -6 30 -6 59 0 30 -7 67 -15 83 -33
64 41 60 -1073 60 l-1014 0 -34 -34 c-33 -33 -34 -36 -34 -115 l0 -81 -347 0
-348 0 83 49 c46 26 82 52 80 57 -4 12 0 13 -100 -44 -48 -28 -89 -48 -92 -44
-3 3 -6 34 -6 70 0 59 -2 66 -34 98 l-34 34 -1102 0 -1102 0 -34 -34 -34 -34
0 -161 c0 -177 7 -207 55 -229 19 -9 167 -12 560 -12 l535 0 0 -142 0 -143
-49 83 c-26 46 -52 82 -57 80 -12 -4 -13 0 44 -100 28 -48 48 -89 44 -92 -3
-3 -199 -6 -435 -6 l-429 0 -34 -34 -34 -34 0 -161 c0 -177 7 -207 55 -229 19
-9 245 -12 905 -12 l880 0 32 29 c31 28 33 34 38 113 l5 83 463 3 c254 1 462
-1 462 -5 0 -5 -38 -30 -85 -56 -47 -27 -83 -53 -79 -58 3 -6 19 -2 37 9 105
63 156 90 161 85 3 -4 6 -32 6 -64 0 -32 5 -70 12 -84 26 -58 -38 -55 1274
-55 l1206 0 34 34 c32 32 34 38 34 105 l0 71 398 -1 c218 -1 620 -5 892 -8
l495 -6 -93 -53 c-51 -30 -90 -58 -86 -63 3 -6 19 -2 37 9 85 51 160 93 161
90 2 -2 8 -22 14 -44 15 -51 79 -118 129 -135 55 -18 151 -7 195 21 41 28 86
91 95 133 3 15 7 27 9 27 2 0 44 -25 93 -55 50 -30 93 -50 96 -46 3 5 -31 30
-75 56 -44 26 -83 51 -86 56 -3 5 1609 9 4021 9 l4026 0 2 297 2 298 162 109
163 109 -158 105 c-86 58 -159 106 -161 108 -2 1 24 48 57 103 34 55 57 103
52 106 -4 3 -29 -31 -55 -75 -26 -44 -51 -83 -56 -86 -6 -3 -8 59 -7 158 l3
163 365 -1 c201 -1 383 -2 405 -4 22 -1 69 2 104 7 53 8 69 15 93 42 l28 31 0
165 0 165 -28 31 c-24 27 -39 34 -98 42 -38 5 -85 8 -104 6 -64 -6 -1524 -4
-1555 3 -16 3 -41 3 -55 -2z m95 -45 c54 -53 17 -147 -59 -147 -78 0 -118 91
-65 148 31 33 91 33 124 -1z m1590 0 c34 -33 34 -93 1 -124 -56 -53 -148 -13
-148 64 0 78 92 116 147 60z m-1756 -26 c-27 -52 25 -135 92 -145 71 -10 143
72 120 137 l-10 29 700 0 700 0 -12 -21 c-27 -52 25 -135 92 -145 71 -10 143
72 120 137 -9 26 -8 29 10 29 10 0 28 -9 39 -20 18 -18 20 -33 20 -175 0 -142
-2 -157 -20 -175 -11 -11 -29 -20 -39 -20 -18 0 -19 3 -10 30 15 43 -14 99
-64 124 -34 16 -42 17 -75 4 -52 -19 -85 -72 -78 -120 l6 -38 -694 0 -695 0
10 30 c15 43 -14 99 -64 124 -34 16 -42 17 -75 4 -52 -19 -85 -72 -78 -120 5
-31 3 -38 -11 -38 -9 0 -25 7 -35 17 -16 14 -18 34 -18 175 0 145 2 160 20
178 11 11 29 20 40 20 18 0 19 -3 9 -21z m-13185 -20 l26 -20 0 -152 c0 -141
-1 -152 -22 -174 l-21 -23 -945 0 c-866 0 -947 1 -964 17 -16 14 -18 34 -18
175 0 145 2 160 20 178 20 20 33 20 959 20 934 0 938 0 965 -21z m3420 0 l26
-20 0 -152 c0 -141 -1 -152 -22 -174 l-21 -23 -1315 0 c-1210 0 -1317 1 -1334
17 -16 14 -18 34 -18 175 0 145 2 160 20 178 20 20 33 20 1329 20 l1308 0 27
-21z m3516 1 c18 -18 20 -33 20 -175 0 -142 -2 -157 -20 -175 -20 -20 -33 -20
-1312 -20 -1188 0 -1293 1 -1310 17 -16 14 -18 34 -18 175 0 145 2 160 20 178
20 20 33 20 1310 20 1277 0 1290 0 1310 -20z m4530 0 c18 -18 20 -33 20 -175
0 -142 -2 -157 -20 -175 -20 -20 -33 -20 -1822 -20 -1662 0 -1803 1 -1820 17
-16 14 -18 34 -18 175 0 145 2 160 20 178 20 20 33 20 1820 20 1787 0 1800 0
1820 -20z m1885 -235 c54 -53 17 -147 -59 -147 -78 0 -118 91 -65 148 31 33
91 33 124 -1z m1590 0 c34 -33 34 -93 1 -124 -56 -53 -148 -13 -148 64 0 78
92 116 147 60z m-4000 -540 c24 -23 25 -28 25 -175 0 -147 -1 -152 -25 -175
l-24 -25 -1307 0 -1308 0 -23 22 c-22 21 -23 27 -23 177 0 145 1 156 22 178
l21 23 1309 0 1309 0 24 -25z m-7626 -11 c19 -24 21 -40 21 -177 0 -141 -1
-152 -22 -174 l-21 -23 -1001 0 -1000 0 -23 22 c-22 21 -23 27 -23 177 0 145
1 156 22 178 l21 23 1003 0 1003 0 20 -26z m4120 0 c19 -24 21 -40 21 -177 0
-141 -1 -152 -22 -174 l-21 -23 -1624 0 -1624 0 -24 25 c-24 23 -25 28 -25
175 0 147 1 152 25 175 l24 25 1625 0 1625 0 20 -26z m-7019 -4 c18 -18 20
-33 20 -175 0 -142 -2 -157 -20 -175 -20 -20 -33 -20 -1112 -20 -1002 0 -1093
1 -1110 17 -16 14 -18 34 -18 175 0 145 2 160 20 178 20 20 33 20 1110 20
1077 0 1090 0 1110 -20z m13813 -102 c65 -43 115 -82 113 -87 -3 -4 -61 -45
-130 -90 l-124 -82 -131 87 -131 87 132 88 c72 48 136 85 142 82 6 -4 64 -42
129 -85z m-10153 -153 c5 -86 17 -113 61 -139 25 -15 174 -16 1656 -16 1460 0
1631 2 1651 16 35 24 52 68 52 132 0 32 3 61 6 65 5 5 56 -22 161 -85 18 -11
34 -15 37 -9 4 5 -32 31 -79 58 -47 26 -85 51 -85 56 0 4 152 6 338 5 l337 -3
5 -83 c5 -79 7 -85 38 -113 l32 -29 1316 0 c1200 0 1318 1 1344 16 41 25 60
65 60 126 0 30 3 57 6 61 3 3 46 -19 95 -48 48 -30 91 -50 94 -46 3 5 -32 31
-77 58 l-83 48 1353 3 1352 2 165 -110 165 -110 0 -290 0 -290 -4010 0 c-2206
0 -4010 2 -4010 4 0 2 36 25 80 51 44 26 78 51 75 56 -3 4 -46 -16 -96 -46
-49 -30 -91 -55 -93 -55 -1 0 -8 18 -15 40 -46 153 -248 200 -363 86 -29 -29
-58 -85 -58 -110 0 -9 -2 -16 -4 -16 -3 0 -44 23 -92 51 -102 58 -98 57 -102
45 -2 -5 34 -31 80 -58 l83 -49 -880 7 c-484 3 -883 8 -887 11 -5 2 -8 40 -8
85 0 78 -1 81 -34 114 l-34 34 -1212 0 -1212 0 -34 -34 c-32 -32 -34 -39 -34
-98 0 -36 -3 -67 -6 -70 -3 -4 -44 16 -92 44 -100 57 -96 56 -100 44 -2 -5 34
-31 80 -57 l83 -49 -467 0 -468 0 0 76 c0 73 -1 77 -34 110 l-34 34 -419 0
c-231 0 -422 3 -426 6 -5 5 22 56 85 161 11 18 15 34 9 37 -5 4 -31 -32 -58
-79 -26 -47 -52 -85 -56 -85 -4 0 -6 62 -5 138 l3 137 553 5 554 5 29 33 c26
28 29 40 29 95 0 35 3 66 6 70 5 5 56 -22 161 -85 18 -11 34 -15 37 -9 4 5
-32 31 -79 58 -47 26 -85 51 -85 56 0 4 154 6 343 5 l342 -3 5 -83 c5 -79 7
-85 38 -113 l32 -29 1013 0 c1113 0 1039 -4 1072 60 8 16 15 55 15 88 0 32 3
61 6 65 5 5 56 -22 161 -85 18 -11 34 -15 37 -9 4 5 -32 31 -79 58 -47 26 -85
51 -85 56 0 4 147 6 328 5 l327 -3 5 -80z m-3890 -535 c18 -18 20 -33 20 -175
0 -142 -2 -157 -20 -175 -20 -20 -33 -20 -897 -20 -801 0 -878 1 -895 17 -16
14 -18 34 -18 175 0 145 2 160 20 178 20 20 33 20 895 20 862 0 875 0 895 -20z
m3530 0 c18 -18 20 -33 20 -175 0 -142 -2 -157 -20 -175 -20 -20 -33 -20
-1222 -20 -1104 0 -1203 1 -1220 17 -16 14 -18 34 -18 175 0 145 2 160 20 178
20 20 33 20 1220 20 1187 0 1200 0 1220 -20z m2175 -53 c103 -59 115 -220 21
-292 -69 -53 -179 -47 -238 13 -81 81 -58 235 44 285 48 24 125 21 173 -6z"/>
<path d="M17240 2555 c0 -78 3 -95 15 -95 12 0 15 17 15 95 0 78 -3 95 -15 95
-12 0 -15 -17 -15 -95z"/>
<path d="M17040 2550 c0 -73 3 -90 15 -90 11 0 15 11 15 40 0 38 2 40 30 40
17 0 30 5 30 10 0 6 -13 10 -30 10 -25 0 -30 4 -30 25 0 22 4 25 35 25 24 0
35 5 35 15 0 11 -12 15 -50 15 l-50 0 0 -90z"/>
<path d="M17170 2626 c0 -9 7 -16 16 -16 17 0 14 22 -4 28 -7 2 -12 -3 -12
-12z"/>
<path d="M17710 2550 l0 -90 40 0 c51 0 85 16 99 47 34 74 -13 133 -105 133
l-34 0 0 -90z m104 44 c38 -37 4 -114 -49 -114 -24 0 -25 2 -25 65 l0 65 29 0
c16 0 37 -7 45 -16z"/>
<path d="M17309 2598 c-4 -37 4 -115 13 -125 12 -15 48 -17 48 -3 0 6 -7 10
-15 10 -11 0 -15 12 -15 45 0 33 4 45 15 45 8 0 15 5 15 10 0 6 -7 10 -15 10
-8 0 -15 5 -15 10 0 15 -30 12 -31 -2z"/>
<path d="M18019 2598 c-4 -37 4 -115 13 -125 12 -15 48 -17 48 -3 0 6 -7 10
-15 10 -11 0 -15 12 -15 45 0 33 4 45 15 45 8 0 15 5 15 10 0 6 -7 10 -15 10
-8 0 -15 5 -15 10 0 15 -30 12 -31 -2z"/>
<path d="M17170 2525 c0 -51 3 -65 15 -65 12 0 15 14 15 65 0 51 -3 65 -15 65
-12 0 -15 -14 -15 -65z"/>
<path d="M17406 2568 c-36 -51 -7 -108 55 -108 21 0 39 5 39 10 0 6 -13 10
-28 10 -27 0 -52 15 -52 32 0 4 18 8 40 8 43 0 50 13 30 51 -15 27 -64 25 -84
-3z m62 -15 c2 -8 -6 -13 -22 -13 -25 0 -33 10 -19 24 10 10 36 3 41 -11z"/>
<path d="M17530 2524 c0 -50 3 -64 15 -64 11 0 15 12 15 45 0 34 5 48 20 57
29 18 25 26 -15 26 l-35 0 0 -64z"/>
<path d="M17887 2583 c-14 -14 -6 -19 23 -15 23 3 30 0 30 -12 0 -9 -6 -16
-14 -16 -27 0 -59 -35 -52 -57 6 -18 14 -21 62 -21 39 0 52 4 45 11 -6 6 -11
28 -11 48 0 57 -8 69 -44 69 -18 0 -36 -3 -39 -7z m53 -78 c0 -16 -27 -32 -37
-22 -3 4 -3 13 0 22 8 20 37 20 37 0z"/>
<path d="M18117 2583 c-14 -14 -6 -19 23 -15 23 3 30 0 30 -12 0 -9 -6 -16
-14 -16 -27 0 -59 -35 -52 -57 6 -18 14 -21 62 -21 39 0 52 4 45 11 -6 6 -11
28 -11 48 0 57 -8 69 -44 69 -18 0 -36 -3 -39 -7z m53 -78 c0 -16 -27 -32 -37
-22 -3 4 -3 13 0 22 8 20 37 20 37 0z"/>
<path d="M1980 2530 c0 -73 3 -90 15 -90 12 0 15 17 15 90 0 73 -3 90 -15 90
-12 0 -15 -17 -15 -90z"/>
<path d="M2670 2530 l0 -90 40 0 c51 0 85 16 99 47 34 74 -13 133 -105 133
l-34 0 0 -90z m104 44 c38 -37 4 -114 -49 -114 -24 0 -25 2 -25 65 l0 65 29 0
c16 0 37 -7 45 -16z"/>
<path d="M2499 2578 c-4 -37 4 -115 13 -125 12 -15 48 -17 48 -3 0 6 -7 10
-15 10 -11 0 -15 12 -15 45 0 33 4 45 15 45 8 0 15 5 15 10 0 6 -7 10 -15 10
-8 0 -15 5 -15 10 0 15 -30 12 -31 -2z"/>
<path d="M2979 2578 c-4 -37 4 -115 13 -125 12 -15 48 -17 48 -3 0 6 -7 10
-15 10 -11 0 -15 12 -15 45 0 33 4 45 15 45 8 0 15 5 15 10 0 6 -7 10 -15 10
-8 0 -15 5 -15 10 0 15 -30 12 -31 -2z"/>
<path d="M2050 2504 c0 -50 3 -64 15 -64 11 0 15 11 15 43 0 43 13 67 37 67 9
0 13 -17 13 -55 0 -42 3 -55 15 -55 11 0 15 13 15 54 0 63 -11 75 -68 74 l-42
0 0 -64z"/>
<path d="M2200 2478 c0 -67 3 -89 13 -86 6 3 13 16 15 29 3 22 7 25 31 21 48
-7 78 58 51 108 -8 16 -21 19 -60 19 l-50 -2 0 -89z m85 27 c0 -36 -3 -40 -25
-40 -21 0 -26 5 -28 34 -4 35 11 53 38 48 10 -1 15 -15 15 -42z"/>
<path d="M2350 2518 c0 -29 4 -58 8 -65 4 -6 28 -11 55 -11 l47 1 0 64 c0 49
-3 63 -15 63 -11 0 -15 -11 -15 -43 0 -43 -13 -67 -37 -67 -9 0 -13 17 -13 55
0 42 -3 55 -15 55 -11 0 -15 -12 -15 -52z"/>
<path d="M2857 2563 c-14 -14 -6 -19 23 -15 23 3 30 0 30 -12 0 -9 -6 -16 -14
-16 -27 0 -59 -35 -52 -57 6 -18 14 -21 62 -21 39 0 52 4 45 11 -6 6 -11 28
-11 48 0 57 -8 69 -44 69 -18 0 -36 -3 -39 -7z m53 -78 c0 -16 -27 -32 -37
-22 -3 4 -3 13 0 22 8 20 37 20 37 0z"/>
<path d="M3077 2563 c-14 -14 -6 -19 23 -15 23 3 30 0 30 -12 0 -9 -6 -16 -14
-16 -27 0 -59 -35 -52 -57 6 -18 14 -21 62 -21 39 0 52 4 45 11 -6 6 -11 28
-11 48 0 57 -8 69 -44 69 -18 0 -36 -3 -39 -7z m53 -78 c0 -16 -27 -32 -37
-22 -3 4 -3 13 0 22 8 20 37 20 37 0z"/>
<path d="M4660 2530 l0 -90 40 0 c51 0 85 16 99 47 34 74 -13 133 -105 133
l-34 0 0 -90z m104 44 c38 -37 4 -114 -49 -114 -24 0 -25 2 -25 65 l0 65 29 0
c16 0 37 -7 45 -16z"/>
<path d="M5270 2531 c0 -74 3 -91 15 -91 10 0 15 11 15 35 0 27 4 35 18 35 28
0 62 29 62 53 0 36 -13 46 -63 53 l-47 7 0 -92z m76 44 c7 -18 -12 -45 -32
-45 -9 0 -14 11 -14 30 0 23 4 30 20 30 11 0 23 -7 26 -15z"/>
<path d="M6240 2606 c0 -9 7 -16 16 -16 9 0 14 5 12 12 -6 18 -28 21 -28 4z"/>
<path d="M4969 2578 c-4 -37 4 -115 13 -125 12 -15 48 -17 48 -3 0 6 -7 10
-15 10 -11 0 -15 12 -15 45 0 33 4 45 15 45 8 0 15 5 15 10 0 6 -7 10 -15 10
-8 0 -15 5 -15 10 0 15 -30 12 -31 -2z"/>
<path d="M6149 2578 c-4 -37 4 -115 13 -125 12 -15 48 -17 48 -3 0 6 -7 10
-15 10 -11 0 -15 12 -15 45 0 33 4 45 15 45 8 0 15 5 15 10 0 6 -7 10 -15 10
-8 0 -15 5 -15 10 0 15 -30 12 -31 -2z"/>
<path d="M4847 2563 c-14 -14 -6 -19 23 -15 23 3 30 0 30 -12 0 -9 -6 -16 -14
-16 -27 0 -59 -35 -52 -57 6 -18 14 -21 62 -21 39 0 52 4 45 11 -6 6 -11 28
-11 48 0 57 -8 69 -44 69 -18 0 -36 -3 -39 -7z m53 -78 c0 -16 -27 -32 -37
-22 -3 4 -3 13 0 22 8 20 37 20 37 0z"/>
<path d="M5067 2563 c-14 -14 -6 -19 23 -15 23 3 30 0 30 -12 0 -9 -6 -16 -14
-16 -27 0 -59 -35 -52 -57 6 -18 14 -21 62 -21 39 0 52 4 45 11 -6 6 -11 28
-11 48 0 57 -8 69 -44 69 -18 0 -36 -3 -39 -7z m53 -78 c0 -16 -27 -32 -37
-22 -3 4 -3 13 0 22 8 20 37 20 37 0z"/>
<path d="M5400 2504 c0 -50 3 -64 15 -64 11 0 15 12 15 45 0 34 5 48 20 57 29
18 25 26 -15 26 l-35 0 0 -64z"/>
<path d="M5506 2548 c-36 -51 -7 -108 55 -108 21 0 39 5 39 10 0 6 -13 10 -28
10 -27 0 -52 15 -52 32 0 4 18 8 40 8 43 0 50 13 30 51 -15 27 -64 25 -84 -3z
m62 -15 c2 -8 -6 -13 -22 -13 -25 0 -33 10 -19 24 10 10 36 3 41 -11z"/>
<path d="M5640 2478 c0 -67 3 -89 13 -86 6 3 13 16 15 29 3 22 7 25 31 21 48
-7 78 58 51 108 -8 16 -21 19 -60 19 l-50 -2 0 -89z m85 27 c0 -36 -3 -40 -25
-40 -21 0 -26 5 -28 34 -4 35 11 53 38 48 10 -1 15 -15 15 -42z"/>
<path d="M5797 2563 c-14 -14 -6 -19 23 -15 23 3 30 0 30 -12 0 -9 -6 -16 -14
-16 -27 0 -59 -35 -52 -57 6 -18 14 -21 62 -21 39 0 52 4 45 11 -6 6 -11 28
-11 48 0 57 -8 69 -44 69 -18 0 -36 -3 -39 -7z m53 -78 c0 -16 -27 -32 -37
-22 -3 4 -3 13 0 22 8 20 37 20 37 0z"/>
<path d="M5920 2504 c0 -50 3 -64 15 -64 11 0 15 12 15 45 0 34 5 48 20 57 29
18 25 26 -15 26 l-35 0 0 -64z"/>
<path d="M6027 2563 c-14 -14 -6 -19 23 -15 23 3 30 0 30 -12 0 -9 -6 -16 -14
-16 -27 0 -59 -35 -52 -57 6 -18 14 -21 62 -21 39 0 52 4 45 11 -6 6 -11 28
-11 48 0 57 -8 69 -44 69 -18 0 -36 -3 -39 -7z m53 -78 c0 -16 -27 -32 -37
-22 -3 4 -3 13 0 22 8 20 37 20 37 0z"/>
<path d="M6240 2505 c0 -51 3 -65 15 -65 12 0 15 14 15 65 0 51 -3 65 -15 65
-12 0 -15 -14 -15 -65z"/>
<path d="M6316 2548 c-34 -48 -7 -108 48 -108 41 0 58 19 58 65 0 46 -17 65
-58 65 -23 0 -38 -7 -48 -22z m72 -10 c27 -27 7 -78 -29 -78 -21 0 -33 32 -25
66 7 26 34 32 54 12z"/>
<path d="M6460 2504 c0 -50 3 -64 15 -64 11 0 15 11 15 43 0 43 13 67 37 67 9
0 13 -17 13 -55 0 -42 3 -55 15 -55 11 0 15 13 15 54 0 63 -11 75 -68 74 l-42
0 0 -64z"/>
<path d="M8220 2530 l0 -90 40 0 c51 0 85 16 99 47 34 74 -13 133 -105 133
l-34 0 0 -90z m104 44 c38 -37 4 -114 -49 -114 -24 0 -25 2 -25 65 l0 65 29 0
c16 0 37 -7 45 -16z"/>
<path d="M8853 2601 c-28 -26 -36 -55 -29 -95 9 -49 36 -68 87 -64 23 2 44 8
46 15 3 8 -8 10 -35 6 -33 -4 -42 -2 -56 18 -22 32 -20 75 5 100 17 17 28 20
56 14 27 -5 34 -3 31 7 -8 22 -80 22 -105 -1z"/>
<path d="M9770 2606 c0 -9 7 -16 16 -16 9 0 14 5 12 12 -6 18 -28 21 -28 4z"/>
<path d="M8529 2578 c-4 -37 4 -115 13 -125 12 -15 48 -17 48 -3 0 6 -7 10
-15 10 -11 0 -15 12 -15 45 0 33 4 45 15 45 8 0 15 5 15 10 0 6 -7 10 -15 10
-8 0 -15 5 -15 10 0 15 -30 12 -31 -2z"/>
<path d="M8407 2563 c-14 -14 -6 -19 23 -15 23 3 30 0 30 -12 0 -9 -6 -16 -14
-16 -27 0 -59 -35 -52 -57 6 -18 14 -21 62 -21 39 0 52 4 45 11 -6 6 -11 28
-11 48 0 57 -8 69 -44 69 -18 0 -36 -3 -39 -7z m53 -78 c0 -16 -27 -32 -37
-22 -3 4 -3 13 0 22 8 20 37 20 37 0z"/>
<path d="M8627 2563 c-14 -14 -6 -19 23 -15 23 3 30 0 30 -12 0 -9 -6 -16 -14
-16 -27 0 -59 -35 -52 -57 6 -18 14 -21 62 -21 39 0 52 4 45 11 -6 6 -11 28
-11 48 0 57 -8 69 -44 69 -18 0 -36 -3 -39 -7z m53 -78 c0 -16 -27 -32 -37
-22 -3 4 -3 13 0 22 8 20 37 20 37 0z"/>
<path d="M9006 2548 c-34 -48 -7 -108 48 -108 41 0 58 19 58 65 0 46 -17 65
-58 65 -23 0 -38 -7 -48 -22z m72 -10 c27 -27 7 -78 -29 -78 -21 0 -33 32 -25
66 7 26 34 32 54 12z"/>
<path d="M9150 2504 c0 -50 3 -64 15 -64 11 0 15 11 15 43 0 43 13 67 37 67 9
0 13 -17 13 -55 0 -42 3 -55 15 -55 11 0 15 13 15 54 0 63 -11 75 -68 74 l-42
0 0 -64z"/>
<path d="M9293 2508 c29 -83 46 -84 76 -8 22 58 23 79 3 67 -4 -4 -15 -24 -22
-47 -15 -45 -22 -43 -40 13 -6 20 -18 37 -25 37 -11 0 -10 -13 8 -62z"/>
<path d="M9426 2548 c-36 -51 -7 -108 55 -108 21 0 39 5 39 10 0 6 -13 10 -28
10 -27 0 -52 15 -52 32 0 4 18 8 40 8 43 0 50 13 30 51 -15 27 -64 25 -84 -3z
m62 -15 c2 -8 -6 -13 -22 -13 -25 0 -33 10 -19 24 10 10 36 3 41 -11z"/>
<path d="M9550 2504 c0 -50 3 -64 15 -64 11 0 15 12 15 45 0 34 5 48 20 57 29
18 25 26 -15 26 l-35 0 0 -64z"/>
<path d="M9657 2563 c-16 -15 -5 -43 23 -63 34 -24 30 -44 -6 -37 -16 3 -24 0
-24 -9 0 -22 67 -18 79 4 12 22 -11 62 -35 62 -8 0 -14 7 -14 15 0 9 9 15 25
15 14 0 25 5 25 10 0 11 -63 14 -73 3z"/>
<path d="M9770 2505 c0 -51 3 -65 15 -65 12 0 15 14 15 65 0 51 -3 65 -15 65
-12 0 -15 -14 -15 -65z"/>
<path d="M9846 2548 c-34 -48 -7 -108 48 -108 41 0 58 19 58 65 0 46 -17 65
-58 65 -23 0 -38 -7 -48 -22z m72 -10 c27 -27 7 -78 -29 -78 -21 0 -33 32 -25
66 7 26 34 32 54 12z"/>
<path d="M9990 2504 c0 -50 3 -64 15 -64 11 0 15 11 15 43 0 43 13 67 37 67 9
0 13 -17 13 -55 0 -42 3 -55 15 -55 11 0 15 13 15 54 0 63 -11 75 -68 74 l-42
0 0 -64z"/>
<path d="M12530 2535 c0 -78 3 -95 15 -95 11 0 15 11 15 43 0 43 13 67 37 67
9 0 13 -17 13 -55 0 -42 3 -55 15 -55 11 0 15 13 15 54 0 61 -15 81 -55 74
-23 -5 -25 -2 -25 28 0 24 -5 34 -15 34 -12 0 -15 -17 -15 -95z"/>
<path d="M13230 2535 c0 -78 3 -95 15 -95 11 0 15 11 15 43 0 43 13 67 37 67
9 0 13 -17 13 -55 0 -42 3 -55 15 -55 11 0 15 13 15 54 0 61 -15 81 -55 74
-23 -5 -25 -2 -25 28 0 24 -5 34 -15 34 -12 0 -15 -17 -15 -95z"/>
<path d="M11730 2530 l0 -90 55 0 c30 0 55 5 55 10 0 6 -18 10 -40 10 l-40 0
0 80 c0 64 -3 80 -15 80 -12 0 -15 -17 -15 -90z"/>
<path d="M12362 2608 c3 -7 17 -14 31 -16 27 -3 27 -5 27 -78 0 -59 3 -74 15
-74 12 0 15 15 15 75 l0 75 30 0 c20 0 30 5 30 15 0 12 -15 15 -76 15 -56 0
-75 -3 -72 -12z"/>
<path d="M13450 2530 c0 -73 3 -90 15 -90 12 0 15 17 15 90 0 73 -3 90 -15 90
-12 0 -15 -17 -15 -90z"/>
<path d="M14130 2530 l0 -90 40 0 c51 0 85 16 99 47 34 74 -13 133 -105 133
l-34 0 0 -90z m104 44 c38 -37 4 -114 -49 -114 -24 0 -25 2 -25 65 l0 65 29 0
c16 0 37 -7 45 -16z"/>
<path d="M13969 2578 c-4 -37 4 -115 13 -125 12 -15 48 -17 48 -3 0 6 -7 10
-15 10 -11 0 -15 12 -15 45 0 33 4 45 15 45 8 0 15 5 15 10 0 6 -7 10 -15 10
-8 0 -15 5 -15 10 0 15 -30 12 -31 -2z"/>
<path d="M14449 2578 c-4 -37 4 -115 13 -125 12 -15 48 -17 48 -3 0 6 -7 10
-15 10 -11 0 -15 12 -15 45 0 33 4 45 15 45 8 0 15 5 15 10 0 6 -7 10 -15 10
-8 0 -15 5 -15 10 0 15 -30 12 -31 -2z"/>
<path d="M11866 2548 c-34 -48 -7 -108 48 -108 41 0 58 19 58 65 0 46 -17 65
-58 65 -23 0 -38 -7 -48 -22z m72 -10 c27 -27 7 -78 -29 -78 -21 0 -33 32 -25
66 7 26 34 32 54 12z"/>
<path d="M12016 2548 c-34 -48 -7 -108 48 -108 41 0 58 19 58 65 0 46 -17 65
-58 65 -23 0 -38 -7 -48 -22z m72 -10 c27 -27 7 -78 -29 -78 -21 0 -33 32 -25
66 7 26 34 32 54 12z"/>
<path d="M12150 2478 c0 -67 3 -89 13 -86 6 3 13 16 15 29 3 22 7 25 31 21 48
-7 78 58 51 108 -8 16 -21 19 -60 19 l-50 -2 0 -89z m85 27 c0 -36 -3 -40 -25
-40 -21 0 -26 5 -28 34 -4 35 11 53 38 48 10 -1 15 -15 15 -42z"/>
<path d="M12680 2504 c0 -50 3 -64 15 -64 11 0 15 12 15 45 0 34 5 48 20 57
29 18 25 26 -15 26 l-35 0 0 -64z"/>
<path d="M12786 2548 c-34 -48 -7 -108 48 -108 41 0 58 19 58 65 0 46 -17 65
-58 65 -23 0 -38 -7 -48 -22z m72 -10 c27 -27 7 -78 -29 -78 -21 0 -33 32 -25
66 7 26 34 32 54 12z"/>
<path d="M12930 2518 c0 -29 4 -58 8 -65 4 -6 28 -11 55 -11 l47 1 0 64 c0 49
-3 63 -15 63 -11 0 -15 -11 -15 -43 0 -43 -13 -67 -37 -67 -9 0 -13 17 -13 55
0 42 -3 55 -15 55 -11 0 -15 -12 -15 -52z"/>
<path d="M13085 2547 c-36 -52 5 -124 56 -97 16 9 19 7 19 -9 0 -22 -30 -35
-60 -26 -24 7 -27 -10 -4 -19 29 -11 54 -6 74 14 16 16 20 33 20 89 l0 68 -45
1 c-35 1 -48 -3 -60 -21z m70 -37 c0 -29 -4 -36 -23 -38 -26 -4 -37 17 -28 54
5 19 12 25 29 22 18 -2 22 -9 22 -38z"/>
<path d="M13520 2504 c0 -50 3 -64 15 -64 11 0 15 11 15 43 0 43 13 67 37 67
9 0 13 -17 13 -55 0 -42 3 -55 15 -55 11 0 15 13 15 54 0 63 -11 75 -68 74
l-42 0 0 -64z"/>
<path d="M13670 2478 c0 -67 3 -89 13 -86 6 3 13 16 15 29 3 22 7 25 31 21 48
-7 78 58 51 108 -8 16 -21 19 -60 19 l-50 -2 0 -89z m85 27 c0 -36 -3 -40 -25
-40 -21 0 -26 5 -28 34 -4 35 11 53 38 48 10 -1 15 -15 15 -42z"/>
<path d="M13820 2518 c0 -29 4 -58 8 -65 4 -6 28 -11 55 -11 l47 1 0 64 c0 49
-3 63 -15 63 -11 0 -15 -11 -15 -43 0 -43 -13 -67 -37 -67 -9 0 -13 17 -13 55
0 42 -3 55 -15 55 -11 0 -15 -12 -15 -52z"/>
<path d="M14317 2563 c-14 -14 -6 -19 23 -15 23 3 30 0 30 -12 0 -9 -6 -16
-14 -16 -27 0 -59 -35 -52 -57 6 -18 14 -21 62 -21 39 0 52 4 45 11 -6 6 -11
28 -11 48 0 57 -8 69 -44 69 -18 0 -36 -3 -39 -7z m53 -78 c0 -16 -27 -32 -37
-22 -3 4 -3 13 0 22 8 20 37 20 37 0z"/>
<path d="M14547 2563 c-14 -14 -6 -19 23 -15 23 3 30 0 30 -12 0 -9 -6 -16
-14 -16 -27 0 -59 -35 -52 -57 6 -18 14 -21 62 -21 39 0 52 4 45 11 -6 6 -11
28 -11 48 0 57 -8 69 -44 69 -18 0 -36 -3 -39 -7z m53 -78 c0 -16 -27 -32 -37
-22 -3 4 -3 13 0 22 8 20 37 20 37 0z"/>
<path d="M12162 1828 c3 -7 17 -14 31 -16 27 -3 27 -5 27 -78 0 -59 3 -74 15
-74 12 0 15 15 15 75 l0 75 30 0 c20 0 30 5 30 15 0 12 -15 15 -76 15 -56 0
-75 -3 -72 -12z"/>
<path d="M12330 1826 c0 -9 7 -16 16 -16 9 0 14 5 12 12 -6 18 -28 21 -28 4z"/>
<path d="M12846 1825 c-29 -29 -16 -57 43 -96 17 -11 22 -21 18 -34 -6 -14
-15 -16 -42 -12 -26 4 -35 2 -35 -9 0 -20 74 -19 95 2 24 24 14 55 -25 82 -46
31 -47 58 -2 55 42 -1 38 21 -5 25 -18 2 -37 -3 -47 -13z"/>
<path d="M13200 1826 c0 -9 7 -16 16 -16 9 0 14 5 12 12 -6 18 -28 21 -28 4z"/>
<path d="M13600 1750 l0 -90 40 0 c51 0 85 16 99 47 34 74 -13 133 -105 133
l-34 0 0 -90z m104 44 c38 -37 4 -114 -49 -114 -24 0 -25 2 -25 65 l0 65 29 0
c16 0 37 -7 45 -16z"/>
<path d="M13909 1798 c-4 -37 4 -115 13 -125 12 -15 48 -17 48 -3 0 6 -7 10
-15 10 -11 0 -15 12 -15 45 0 33 4 45 15 45 8 0 15 5 15 10 0 6 -7 10 -15 10
-8 0 -15 5 -15 10 0 15 -30 12 -31 -2z"/>
<path d="M12330 1725 c0 -51 3 -65 15 -65 12 0 15 14 15 65 0 51 -3 65 -15 65
-12 0 -15 -14 -15 -65z"/>
<path d="M12400 1724 c0 -50 3 -64 15 -64 11 0 15 12 15 44 0 44 19 74 40 61
5 -3 10 -28 10 -56 0 -37 4 -49 15 -49 11 0 15 12 15 44 0 44 19 74 40 61 5
-3 10 -28 10 -56 0 -27 5 -49 10 -49 7 0 10 24 8 63 -3 56 -5 62 -26 65 -13 2
-29 -2 -37 -8 -9 -7 -15 -8 -19 -1 -4 6 -27 10 -51 9 l-45 -1 0 -63z"/>
<path d="M12636 1768 c-36 -51 -7 -108 55 -108 21 0 39 5 39 10 0 6 -13 10
-28 10 -27 0 -52 15 -52 32 0 4 18 8 40 8 43 0 50 13 30 51 -15 27 -64 25 -84
-3z m62 -15 c2 -8 -6 -13 -22 -13 -25 0 -33 10 -19 24 10 10 36 3 41 -11z"/>
<path d="M12966 1768 c-36 -51 -7 -108 55 -108 21 0 39 5 39 10 0 6 -13 10
-28 10 -27 0 -52 15 -52 32 0 4 18 8 40 8 43 0 50 13 30 51 -15 27 -64 25 -84
-3z m62 -15 c2 -8 -6 -13 -22 -13 -25 0 -33 10 -19 24 10 10 36 3 41 -11z"/>
<path d="M13100 1724 c0 -50 3 -64 15 -64 11 0 15 12 15 45 0 34 5 48 20 57
29 18 25 26 -15 26 l-35 0 0 -64z"/>
<path d="M13200 1725 c0 -51 3 -65 15 -65 12 0 15 14 15 65 0 51 -3 65 -15 65
-12 0 -15 -14 -15 -65z"/>
<path d="M13276 1768 c-36 -51 -7 -108 55 -108 21 0 39 5 39 10 0 6 -13 10
-28 10 -27 0 -52 15 -52 32 0 4 18 8 40 8 43 0 50 13 30 51 -15 27 -64 25 -84
-3z m62 -15 c2 -8 -6 -13 -22 -13 -25 0 -33 10 -19 24 10 10 36 3 41 -11z"/>
<path d="M13407 1783 c-16 -15 -5 -43 23 -63 34 -24 30 -44 -6 -37 -16 3 -24
0 -24 -9 0 -22 67 -18 79 4 12 22 -11 62 -35 62 -8 0 -14 7 -14 15 0 9 9 15
25 15 14 0 25 5 25 10 0 11 -63 14 -73 3z"/>
<path d="M13787 1783 c-14 -14 -6 -19 23 -15 23 3 30 0 30 -12 0 -9 -6 -16
-14 -16 -27 0 -59 -35 -52 -57 6 -18 14 -21 62 -21 39 0 52 4 45 11 -6 6 -11
28 -11 48 0 57 -8 69 -44 69 -18 0 -36 -3 -39 -7z m53 -78 c0 -16 -27 -32 -37
-22 -3 4 -3 13 0 22 8 20 37 20 37 0z"/>
<path d="M14007 1783 c-14 -14 -6 -19 23 -15 23 3 30 0 30 -12 0 -9 -6 -16
-14 -16 -27 0 -59 -35 -52 -57 6 -18 14 -21 62 -21 39 0 52 4 45 11 -6 6 -11
28 -11 48 0 57 -8 69 -44 69 -18 0 -36 -3 -39 -7z m53 -78 c0 -16 -27 -32 -37
-22 -3 4 -3 13 0 22 8 20 37 20 37 0z"/>
<path d="M5170 1740 c0 -73 3 -90 15 -90 11 0 15 11 15 40 0 38 2 40 30 40 17
0 30 5 30 10 0 6 -13 10 -30 10 -25 0 -30 4 -30 25 0 22 4 25 35 25 24 0 35 5
35 15 0 11 -12 15 -50 15 l-50 0 0 -90z"/>
<path d="M6150 1816 c0 -9 7 -16 16 -16 17 0 14 22 -4 28 -7 2 -12 -3 -12 -12z"/>
<path d="M6059 1788 c-4 -37 4 -115 13 -125 12 -15 48 -17 48 -3 0 6 -7 10
-15 10 -11 0 -15 12 -15 45 0 33 4 45 15 45 8 0 15 5 15 10 0 6 -7 10 -15 10
-8 0 -15 5 -15 10 0 15 -30 12 -31 -2z"/>
<path d="M5306 1758 c-34 -48 -7 -108 48 -108 41 0 58 19 58 65 0 46 -17 65
-58 65 -23 0 -38 -7 -48 -22z m72 -10 c27 -27 7 -78 -29 -78 -21 0 -33 32 -25
66 7 26 34 32 54 12z"/>
<path d="M5450 1714 c0 -50 3 -64 15 -64 11 0 15 12 15 45 0 34 5 48 20 57 29
18 25 26 -15 26 l-35 0 0 -64z"/>
<path d="M5556 1758 c-36 -51 -7 -108 55 -108 21 0 39 5 39 10 0 6 -13 10 -28
10 -27 0 -52 15 -52 32 0 4 18 8 40 8 43 0 50 13 30 51 -15 27 -64 25 -84 -3z
m62 -15 c2 -8 -6 -13 -22 -13 -25 0 -33 10 -19 24 10 10 36 3 41 -11z"/>
<path d="M5686 1758 c-35 -49 -7 -108 50 -108 19 0 34 5 34 10 0 6 -10 10 -23
10 -29 0 -47 18 -47 45 0 27 18 45 47 45 13 0 23 5 23 10 0 6 -15 10 -34 10
-25 0 -39 -7 -50 -22z"/>
<path d="M5807 1773 c-14 -14 -6 -19 23 -15 23 3 30 0 30 -12 0 -9 -6 -16 -14
-16 -27 0 -59 -35 -52 -57 6 -18 14 -21 62 -21 39 0 52 4 45 11 -6 6 -11 28
-11 48 0 57 -8 69 -44 69 -18 0 -36 -3 -39 -7z m53 -78 c0 -16 -27 -32 -37
-22 -3 4 -3 13 0 22 8 20 37 20 37 0z"/>
<path d="M5947 1773 c-16 -15 -5 -43 23 -63 34 -24 30 -44 -6 -37 -16 3 -24 0
-24 -9 0 -22 67 -18 79 4 12 22 -11 62 -35 62 -8 0 -14 7 -14 15 0 9 9 15 25
15 14 0 25 5 25 10 0 11 -63 14 -73 3z"/>
<path d="M6150 1715 c0 -51 3 -65 15 -65 12 0 15 14 15 65 0 51 -3 65 -15 65
-12 0 -15 -14 -15 -65z"/>
<path d="M6220 1714 c0 -50 3 -64 15 -64 11 0 15 11 15 43 0 43 13 67 37 67 9
0 13 -17 13 -55 0 -42 3 -55 15 -55 11 0 15 13 15 54 0 63 -11 75 -68 74 l-42
0 0 -64z"/>
<path d="M6375 1757 c-36 -52 5 -124 56 -97 16 9 19 7 19 -9 0 -22 -30 -35
-60 -26 -24 7 -27 -10 -4 -19 29 -11 54 -6 74 14 16 16 20 33 20 89 l0 68 -45
1 c-35 1 -48 -3 -60 -21z m70 -37 c0 -29 -4 -36 -23 -38 -26 -4 -37 17 -28 54
5 19 12 25 29 22 18 -2 22 -9 22 -38z"/>
<path d="M9320 1807 c0 -31 -2 -33 -29 -29 -34 5 -61 -26 -61 -70 0 -40 24
-57 75 -56 l45 1 0 93 c0 77 -3 94 -15 94 -10 0 -15 -10 -15 -33z m-2 -86 c5
-48 -40 -73 -53 -30 -12 36 3 71 28 67 17 -2 23 -11 25 -37z"/>
<path d="M9520 1745 c0 -78 3 -95 15 -95 12 0 15 17 15 95 0 78 -3 95 -15 95
-12 0 -15 -17 -15 -95z"/>
<path d="M8093 1813 c-3 -10 -15 -40 -26 -68 -10 -27 -23 -60 -28 -72 -12 -33
14 -30 29 2 9 20 19 25 46 25 28 0 35 -4 40 -25 6 -25 37 -36 35 -12 -1 25
-64 160 -76 165 -7 2 -16 -5 -20 -15z m25 -91 c-28 -5 -33 4 -19 35 l13 28 12
-30 c11 -27 11 -30 -6 -33z"/>
<path d="M8210 1740 c0 -73 3 -90 15 -90 10 0 15 11 15 35 0 44 14 44 42 0 13
-19 31 -35 41 -35 15 0 14 5 -9 40 -25 38 -26 41 -10 58 9 10 16 26 16 35 0
23 -39 47 -77 47 l-33 0 0 -90z m75 36 c0 -10 -10 -22 -22 -27 -21 -8 -23 -5
-23 22 0 26 3 30 23 27 14 -2 22 -10 22 -22z"/>
<path d="M8370 1740 c0 -73 3 -90 15 -90 12 0 15 17 15 90 0 73 -3 90 -15 90
-12 0 -15 -17 -15 -90z"/>
<path d="M8440 1740 c0 -53 4 -90 10 -90 6 0 10 27 10 62 0 69 8 69 31 0 22
-66 40 -64 66 5 l21 58 1 -62 c1 -50 4 -63 16 -63 24 0 17 173 -7 178 -12 2
-21 -13 -38 -62 -12 -37 -23 -66 -25 -66 -2 0 -13 29 -25 65 -17 50 -26 65
-41 65 -17 0 -19 -8 -19 -90z"/>
<path d="M8683 1813 c-3 -10 -15 -40 -26 -68 -10 -27 -23 -60 -28 -72 -12 -33
14 -30 29 2 9 20 19 25 46 25 28 0 35 -4 40 -25 6 -25 37 -36 35 -12 -1 25
-64 160 -76 165 -7 2 -16 -5 -20 -15z m25 -91 c-28 -5 -33 4 -19 35 l13 28 12
-30 c11 -27 11 -30 -6 -33z"/>
<path d="M8880 1740 c0 -53 4 -90 10 -90 6 0 10 27 10 62 0 69 8 69 31 0 22
-66 40 -64 66 5 l21 58 1 -62 c1 -50 4 -63 16 -63 24 0 17 173 -7 178 -12 2
-21 -13 -38 -62 -12 -37 -23 -66 -25 -66 -2 0 -13 29 -25 65 -17 50 -26 65
-41 65 -17 0 -19 -8 -19 -90z"/>
<path d="M9652 1818 c3 -7 17 -14 31 -16 27 -3 27 -5 27 -78 0 -59 3 -74 15
-74 12 0 15 15 15 75 l0 75 30 0 c20 0 30 5 30 15 0 12 -15 15 -76 15 -56 0
-75 -3 -72 -12z"/>
<path d="M10050 1816 c0 -9 7 -16 16 -16 9 0 14 5 12 12 -6 18 -28 21 -28 4z"/>
<path d="M10270 1816 c0 -9 7 -16 16 -16 9 0 14 5 12 12 -6 18 -28 21 -28 4z"/>
<path d="M9096 1758 c-34 -48 -7 -108 48 -108 41 0 58 19 58 65 0 46 -17 65
-58 65 -23 0 -38 -7 -48 -22z m72 -10 c27 -27 7 -78 -29 -78 -21 0 -33 32 -25
66 7 26 34 32 54 12z"/>
<path d="M9396 1758 c-36 -51 -7 -108 55 -108 21 0 39 5 39 10 0 6 -13 10 -28
10 -27 0 -52 15 -52 32 0 4 18 8 40 8 43 0 50 13 30 51 -15 27 -64 25 -84 -3z
m62 -15 c2 -8 -6 -13 -22 -13 -25 0 -33 10 -19 24 10 10 36 3 41 -11z"/>
<path d="M9820 1714 c0 -50 3 -64 15 -64 11 0 15 12 15 45 0 34 5 48 20 57 29
18 25 26 -15 26 l-35 0 0 -64z"/>
<path d="M9927 1773 c-14 -14 -6 -19 23 -15 23 3 30 0 30 -12 0 -9 -6 -16 -14
-16 -27 0 -59 -35 -52 -57 6 -18 14 -21 62 -21 39 0 52 4 45 11 -6 6 -11 28
-11 48 0 57 -8 69 -44 69 -18 0 -36 -3 -39 -7z m53 -78 c0 -16 -27 -32 -37
-22 -3 4 -3 13 0 22 8 20 37 20 37 0z"/>
<path d="M10050 1715 c0 -51 3 -65 15 -65 12 0 15 14 15 65 0 51 -3 65 -15 65
-12 0 -15 -14 -15 -65z"/>
<path d="M10120 1714 c0 -50 3 -64 15 -64 11 0 15 11 15 43 0 43 13 67 37 67
9 0 13 -17 13 -55 0 -42 3 -55 15 -55 11 0 15 13 15 54 0 63 -11 75 -68 74
l-42 0 0 -64z"/>
<path d="M10270 1715 c0 -51 3 -65 15 -65 12 0 15 14 15 65 0 51 -3 65 -15 65
-12 0 -15 -14 -15 -65z"/>
<path d="M10340 1714 c0 -50 3 -64 15 -64 11 0 15 11 15 43 0 43 13 67 37 67
9 0 13 -17 13 -55 0 -42 3 -55 15 -55 11 0 15 13 15 54 0 63 -11 75 -68 74
l-42 0 0 -64z"/>
<path d="M10495 1757 c-36 -52 5 -124 56 -97 16 9 19 7 19 -9 0 -22 -30 -35
-60 -26 -24 7 -27 -10 -4 -19 29 -11 54 -6 74 14 16 16 20 33 20 89 l0 68 -45
1 c-35 1 -48 -3 -60 -21z m70 -37 c0 -29 -4 -36 -23 -38 -26 -4 -37 17 -28 54
5 19 12 25 29 22 18 -2 22 -9 22 -38z"/>
<path d="M3330 1735 c0 -78 3 -95 15 -95 12 0 15 17 15 95 0 78 -3 95 -15 95
-12 0 -15 -17 -15 -95z"/>
<path d="M2106 1805 c-29 -29 -16 -57 43 -96 17 -11 22 -21 18 -34 -6 -14 -15
-16 -42 -12 -26 4 -35 2 -35 -9 0 -20 74 -19 95 2 24 24 14 55 -25 82 -46 31
-47 58 -2 55 42 -1 38 21 -5 25 -18 2 -37 -3 -47 -13z"/>
<path d="M2780 1730 c0 -73 3 -90 15 -90 10 0 15 11 15 35 0 44 14 44 42 0 13
-19 31 -35 41 -35 15 0 14 5 -9 40 -25 38 -26 41 -10 58 9 10 16 26 16 35 0
23 -39 47 -77 47 l-33 0 0 -90z m75 36 c0 -10 -10 -22 -22 -27 -21 -8 -23 -5
-23 22 0 26 3 30 23 27 14 -2 22 -10 22 -22z"/>
<path d="M2229 1778 c-4 -37 4 -115 13 -125 12 -15 48 -17 48 -3 0 6 -7 10
-15 10 -11 0 -15 12 -15 45 0 33 4 45 15 45 8 0 15 5 15 10 0 6 -7 10 -15 10
-8 0 -15 5 -15 10 0 15 -30 12 -31 -2z"/>
<path d="M3399 1778 c-4 -37 4 -115 13 -125 12 -15 48 -17 48 -3 0 6 -7 10
-15 10 -11 0 -15 12 -15 45 0 33 4 45 15 45 8 0 15 5 15 10 0 6 -7 10 -15 10
-8 0 -15 5 -15 10 0 15 -30 12 -31 -2z"/>
<path d="M2326 1748 c-34 -48 -7 -108 48 -108 41 0 58 19 58 65 0 46 -17 65
-58 65 -23 0 -38 -7 -48 -22z m72 -10 c27 -27 7 -78 -29 -78 -21 0 -33 32 -25
66 7 26 34 32 54 12z"/>
<path d="M2470 1704 c0 -50 3 -64 15 -64 11 0 15 12 15 45 0 34 5 48 20 57 29
18 25 26 -15 26 l-35 0 0 -64z"/>
<path d="M2576 1748 c-36 -51 -7 -108 55 -108 21 0 39 5 39 10 0 6 -13 10 -28
10 -27 0 -52 15 -52 32 0 4 18 8 40 8 43 0 50 13 30 51 -15 27 -64 25 -84 -3z
m62 -15 c2 -8 -6 -13 -22 -13 -25 0 -33 10 -19 24 10 10 36 3 41 -11z"/>
<path d="M2936 1748 c-36 -51 -7 -108 55 -108 21 0 39 5 39 10 0 6 -13 10 -28
10 -27 0 -52 15 -52 32 0 4 18 8 40 8 43 0 50 13 30 51 -15 27 -64 25 -84 -3z
m62 -15 c2 -8 -6 -13 -22 -13 -25 0 -33 10 -19 24 10 10 36 3 41 -11z"/>
<path d="M3067 1763 c-16 -15 -5 -43 23 -63 34 -24 30 -44 -6 -37 -16 3 -24 0
-24 -9 0 -22 67 -18 79 4 12 22 -11 62 -35 62 -8 0 -14 7 -14 15 0 9 9 15 25
15 14 0 25 5 25 10 0 11 -63 14 -73 3z"/>
<path d="M3190 1718 c0 -29 4 -58 8 -65 4 -6 28 -11 55 -11 l47 1 0 64 c0 49
-3 63 -15 63 -11 0 -15 -11 -15 -43 0 -43 -13 -67 -37 -67 -9 0 -13 17 -13 55
0 42 -3 55 -15 55 -11 0 -15 -12 -15 -52z"/>
<path d="M3497 1763 c-16 -15 -5 -43 23 -63 34 -24 30 -44 -6 -37 -16 3 -24 0
-24 -9 0 -22 67 -18 79 4 12 22 -11 62 -35 62 -8 0 -14 7 -14 15 0 9 9 15 25
15 14 0 25 5 25 10 0 11 -63 14 -73 3z"/>
<path d="M14690 1127 c0 -31 -2 -33 -29 -29 -34 5 -61 -26 -61 -70 0 -40 24
-57 75 -56 l45 1 0 93 c0 77 -3 94 -15 94 -10 0 -15 -10 -15 -33z m-2 -89 c3
-29 -1 -38 -17 -43 -28 -8 -41 1 -41 30 0 39 11 56 34 53 16 -2 22 -11 24 -40z"/>
<path d="M13030 1060 c0 -102 17 -124 22 -27 l3 62 43 -62 c60 -89 74 -85 70
22 -3 97 -20 114 -28 28 l-5 -58 -39 63 c-55 88 -66 83 -66 -28z"/>
<path d="M13430 1061 l0 -91 40 0 c51 0 85 16 99 47 31 67 -6 123 -87 131
l-52 5 0 -92z m75 59 c23 0 45 -30 45 -61 0 -36 -31 -69 -65 -69 -24 0 -25 2
-25 71 0 61 2 70 16 65 9 -3 22 -6 29 -6z"/>
<path d="M14040 1060 c0 -73 3 -90 15 -90 11 0 15 11 15 40 0 38 2 40 30 40
17 0 30 5 30 10 0 6 -13 10 -30 10 -27 0 -30 3 -30 30 0 28 3 30 35 30 19 0
35 5 35 10 0 6 -22 10 -50 10 l-50 0 0 -90z"/>
<path d="M13739 1108 c-4 -37 4 -115 13 -125 12 -15 48 -17 48 -3 0 6 -7 10
-15 10 -11 0 -15 12 -15 45 0 33 4 45 15 45 8 0 15 5 15 10 0 6 -7 10 -15 10
-8 0 -15 5 -15 10 0 15 -30 12 -31 -2z"/>
<path d="M12723 1077 c-35 -17 -63 -34 -63 -37 0 -5 125 -70 135 -70 3 0 5 5
5 10 0 6 -20 20 -45 32 -25 12 -45 25 -45 28 0 3 20 16 45 28 25 12 45 26 45
32 0 15 -8 12 -77 -23z"/>
<path d="M12913 1077 c-35 -17 -63 -34 -63 -37 0 -5 125 -70 135 -70 3 0 5 5
5 10 0 6 -20 20 -45 32 -25 12 -45 25 -45 28 0 3 20 16 45 28 25 12 45 26 45
32 0 15 -8 12 -77 -23z"/>
<path d="M14770 1100 c0 -6 20 -20 45 -32 25 -12 45 -25 45 -28 0 -3 -20 -16
-45 -28 -25 -12 -45 -26 -45 -32 0 -5 2 -10 5 -10 10 0 135 65 135 70 0 5
-125 70 -135 70 -3 0 -5 -5 -5 -10z"/>
<path d="M14960 1100 c0 -6 20 -20 45 -32 25 -12 45 -25 45 -28 0 -3 -20 -16
-45 -28 -25 -12 -45 -26 -45 -32 0 -5 2 -10 5 -10 10 0 135 65 135 70 0 5
-125 70 -135 70 -3 0 -5 -5 -5 -10z"/>
<path d="M13216 1078 c-46 -65 25 -141 88 -95 21 15 25 80 6 102 -19 23 -76
19 -94 -7z m72 -10 c27 -27 7 -78 -29 -78 -21 0 -33 32 -25 66 7 26 34 32 54
12z"/>
<path d="M13617 1093 c-14 -14 -6 -19 23 -15 23 3 30 0 30 -12 0 -9 -6 -16
-14 -16 -27 0 -59 -35 -52 -57 6 -18 14 -21 62 -21 39 0 52 4 45 11 -6 6 -11
28 -11 48 0 57 -8 69 -44 69 -18 0 -36 -3 -39 -7z m53 -78 c0 -16 -27 -32 -37
-22 -3 4 -3 13 0 22 8 20 37 20 37 0z"/>
<path d="M13837 1093 c-14 -14 -6 -19 23 -15 23 3 30 0 30 -12 0 -9 -6 -16
-14 -16 -27 0 -59 -35 -52 -57 6 -18 14 -21 62 -21 39 0 52 4 45 11 -6 6 -11
28 -11 48 0 57 -8 69 -44 69 -18 0 -36 -3 -39 -7z m53 -78 c0 -16 -27 -32 -37
-22 -3 4 -3 13 0 22 8 20 37 20 37 0z"/>
<path d="M14176 1078 c-46 -65 25 -141 88 -95 21 15 25 80 6 102 -19 23 -76
19 -94 -7z m72 -10 c27 -27 7 -78 -29 -78 -21 0 -33 32 -25 66 7 26 34 32 54
12z"/>
<path d="M14320 1048 c0 -29 4 -58 8 -65 4 -6 28 -11 55 -11 l47 1 0 64 c0 49
-3 63 -15 63 -11 0 -15 -11 -15 -43 0 -43 -13 -67 -37 -67 -9 0 -13 17 -13 55
0 42 -3 55 -15 55 -11 0 -15 -12 -15 -52z"/>
<path d="M14470 1034 c0 -50 3 -64 15 -64 11 0 15 11 15 43 0 43 13 67 37 67
9 0 13 -17 13 -55 0 -42 3 -55 15 -55 11 0 15 13 15 54 0 63 -11 75 -68 74
l-42 0 0 -64z"/>
<path d="M2670 1007 c0 -31 -2 -33 -29 -29 -34 5 -61 -26 -61 -70 0 -40 24
-57 75 -56 l45 1 0 93 c0 77 -3 94 -15 94 -10 0 -15 -10 -15 -33z m-2 -86 c5
-48 -40 -73 -53 -30 -12 36 3 71 28 67 17 -2 23 -11 25 -37z"/>
<path d="M2310 940 l0 -90 55 0 c30 0 55 5 55 10 0 6 -18 10 -40 10 -38 0 -40
2 -40 30 0 27 3 30 30 30 17 0 30 5 30 10 0 6 -13 10 -30 10 -25 0 -30 4 -30
25 0 22 4 25 35 25 24 0 35 5 35 15 0 11 -12 15 -50 15 l-50 0 0 -90z"/>
<path d="M2810 940 l0 -90 55 0 c30 0 55 5 55 10 0 6 -18 10 -40 10 l-40 0 0
80 c0 64 -3 80 -15 80 -12 0 -15 -17 -15 -90z"/>
<path d="M2440 914 c0 -50 3 -64 15 -64 11 0 15 11 15 43 0 43 13 67 37 67 9
0 13 -17 13 -55 0 -42 3 -55 15 -55 11 0 15 13 15 54 0 63 -11 75 -68 74 l-42
0 0 -64z"/>
<path d="M2946 958 c-34 -48 -7 -108 48 -108 41 0 58 19 58 65 0 46 -17 65
-58 65 -23 0 -38 -7 -48 -22z m72 -10 c27 -27 7 -78 -29 -78 -21 0 -33 32 -25
66 7 26 34 32 54 12z"/>
<path d="M3096 958 c-34 -48 -7 -108 48 -108 41 0 58 19 58 65 0 46 -17 65
-58 65 -23 0 -38 -7 -48 -22z m72 -10 c27 -27 7 -78 -29 -78 -21 0 -33 32 -25
66 7 26 34 32 54 12z"/>
<path d="M3240 888 c0 -67 3 -89 13 -86 6 3 13 16 15 29 3 22 7 25 31 21 48
-7 78 58 51 108 -8 16 -21 19 -60 19 l-50 -2 0 -89z m85 27 c0 -36 -3 -40 -25
-40 -21 0 -26 5 -28 34 -4 35 11 53 38 48 10 -1 15 -15 15 -42z"/>
<path d="M6630 955 c0 -78 3 -95 15 -95 12 0 15 17 15 95 0 78 -3 95 -15 95
-12 0 -15 -17 -15 -95z"/>
<path d="M5202 1020 c-39 -36 -41 -102 -5 -142 18 -20 73 -24 103 -8 23 12 40
67 33 104 -11 58 -89 85 -131 46z m75 -8 c30 -19 36 -87 10 -119 -15 -20 -54
-15 -71 9 -40 57 8 144 61 110z"/>
<path d="M6080 950 c0 -73 3 -90 15 -90 10 0 15 11 15 35 0 44 14 44 42 0 13
-19 31 -35 41 -35 15 0 14 5 -9 40 -25 38 -26 41 -10 58 9 10 16 26 16 35 0
23 -39 47 -77 47 l-33 0 0 -90z m75 36 c0 -10 -10 -22 -22 -27 -21 -8 -23 -5
-23 22 0 26 3 30 23 27 14 -2 22 -10 22 -22z"/>
<path d="M5519 998 c-4 -37 4 -115 13 -125 12 -15 48 -17 48 -3 0 6 -7 10 -15
10 -11 0 -15 12 -15 45 0 33 4 45 15 45 8 0 15 5 15 10 0 6 -7 10 -15 10 -8 0
-15 5 -15 10 0 15 -30 12 -31 -2z"/>
<path d="M5909 998 c-4 -37 4 -115 13 -125 12 -15 48 -17 48 -3 0 6 -7 10 -15
10 -11 0 -15 12 -15 45 0 33 4 45 15 45 8 0 15 5 15 10 0 6 -7 10 -15 10 -8 0
-15 5 -15 10 0 15 -30 12 -31 -2z"/>
<path d="M6699 998 c-4 -37 4 -115 13 -125 12 -15 48 -17 48 -3 0 6 -7 10 -15
10 -11 0 -15 12 -15 45 0 33 4 45 15 45 8 0 15 5 15 10 0 6 -7 10 -15 10 -8 0
-15 5 -15 10 0 15 -30 12 -31 -2z"/>
<path d="M5370 938 c0 -29 4 -58 8 -65 4 -6 28 -11 55 -11 l47 1 0 64 c0 49
-3 63 -15 63 -11 0 -15 -11 -15 -43 0 -43 -13 -67 -37 -67 -9 0 -13 17 -13 55
0 42 -3 55 -15 55 -11 0 -15 -12 -15 -52z"/>
<path d="M5610 898 c0 -67 3 -89 13 -86 6 3 13 16 15 29 3 22 7 25 31 21 48
-7 78 58 51 108 -8 16 -21 19 -60 19 l-50 -2 0 -89z m85 27 c0 -36 -3 -40 -25
-40 -21 0 -26 5 -28 34 -4 35 11 53 38 48 10 -1 15 -15 15 -42z"/>
<path d="M5760 938 c0 -29 4 -58 8 -65 4 -6 28 -11 55 -11 l47 1 0 64 c0 49
-3 63 -15 63 -11 0 -15 -11 -15 -43 0 -43 -13 -67 -37 -67 -9 0 -13 17 -13 55
0 42 -3 55 -15 55 -11 0 -15 -12 -15 -52z"/>
<path d="M6236 968 c-36 -51 -7 -108 55 -108 21 0 39 5 39 10 0 6 -13 10 -28
10 -27 0 -52 15 -52 32 0 4 18 8 40 8 43 0 50 13 30 51 -15 27 -64 25 -84 -3z
m62 -15 c2 -8 -6 -13 -22 -13 -25 0 -33 10 -19 24 10 10 36 3 41 -11z"/>
<path d="M6367 983 c-16 -15 -5 -43 23 -63 34 -24 30 -44 -6 -37 -16 3 -24 0
-24 -9 0 -22 67 -18 79 4 12 22 -11 62 -35 62 -8 0 -14 7 -14 15 0 9 9 15 25
15 14 0 25 5 25 10 0 11 -63 14 -73 3z"/>
<path d="M6480 938 c0 -29 4 -58 8 -65 4 -6 28 -11 55 -11 l47 1 0 64 c0 49
-3 63 -15 63 -11 0 -15 -11 -15 -43 0 -43 -13 -67 -37 -67 -9 0 -13 17 -13 55
0 42 -3 55 -15 55 -11 0 -15 -12 -15 -52z"/>
<path d="M6797 983 c-16 -15 -5 -43 23 -63 34 -24 30 -44 -6 -37 -16 3 -24 0
-24 -9 0 -22 67 -18 79 4 12 22 -11 62 -35 62 -8 0 -14 7 -14 15 0 9 9 15 25
15 14 0 25 5 25 10 0 11 -63 14 -73 3z"/>
<path d="M9254 1051 c-54 -33 -74 -68 -74 -127 0 -58 27 -102 81 -129 37 -19
112 -19 150 0 92 48 94 196 3 256 -39 25 -119 25 -160 0z"/>
<path d="M16530 1947 c0 -31 -2 -33 -29 -29 -34 5 -61 -26 -61 -70 0 -40 24
-57 75 -56 l45 1 0 93 c0 77 -3 94 -15 94 -10 0 -15 -10 -15 -33z m-2 -89 c3
-29 -1 -38 -17 -43 -28 -8 -41 1 -41 30 0 39 11 56 34 53 16 -2 22 -11 24 -40z"/>
<path d="M15260 1881 l0 -91 40 0 c51 0 85 16 99 47 31 67 -6 123 -87 131
l-52 5 0 -92z m75 59 c23 0 45 -30 45 -61 0 -36 -31 -69 -65 -69 -24 0 -25 2
-25 71 0 61 2 70 16 65 9 -3 22 -6 29 -6z"/>
<path d="M15880 1880 c0 -73 3 -90 15 -90 11 0 15 11 15 40 0 38 2 40 30 40
17 0 30 5 30 10 0 6 -13 10 -30 10 -27 0 -30 3 -30 30 0 28 3 30 35 30 19 0
35 5 35 10 0 6 -22 10 -50 10 l-50 0 0 -90z"/>
<path d="M15579 1928 c-4 -37 4 -115 13 -125 12 -15 48 -17 48 -3 0 6 -7 10
-15 10 -11 0 -15 12 -15 45 0 33 4 45 15 45 8 0 15 5 15 10 0 6 -7 10 -15 10
-8 0 -15 5 -15 10 0 15 -30 12 -31 -2z"/>
<path d="M14953 1897 c-35 -17 -63 -34 -63 -37 0 -5 125 -70 135 -70 3 0 5 5
5 10 0 6 -20 20 -45 32 -25 12 -45 25 -45 28 0 3 20 16 45 28 25 12 45 26 45
32 0 15 -8 12 -77 -23z"/>
<path d="M15143 1897 c-35 -17 -63 -34 -63 -37 0 -5 125 -70 135 -70 3 0 5 5
5 10 0 6 -20 20 -45 32 -25 12 -45 25 -45 28 0 3 20 16 45 28 25 12 45 26 45
32 0 15 -8 12 -77 -23z"/>
<path d="M16600 1920 c0 -6 20 -20 45 -32 25 -12 45 -25 45 -28 0 -3 -20 -16
-45 -28 -25 -12 -45 -26 -45 -32 0 -5 2 -10 5 -10 10 0 135 65 135 70 0 5
-125 70 -135 70 -3 0 -5 -5 -5 -10z"/>
<path d="M16790 1920 c0 -6 20 -20 45 -32 25 -12 45 -25 45 -28 0 -3 -20 -16
-45 -28 -25 -12 -45 -26 -45 -32 0 -5 2 -10 5 -10 10 0 135 65 135 70 0 5
-125 70 -135 70 -3 0 -5 -5 -5 -10z"/>
<path d="M15447 1913 c-14 -14 -6 -19 23 -15 23 3 30 0 30 -12 0 -9 -6 -16
-14 -16 -27 0 -59 -35 -52 -57 6 -18 14 -21 62 -21 39 0 52 4 45 11 -6 6 -11
28 -11 48 0 57 -8 69 -44 69 -18 0 -36 -3 -39 -7z m53 -78 c0 -16 -27 -32 -37
-22 -3 4 -3 13 0 22 8 20 37 20 37 0z"/>
<path d="M15677 1913 c-14 -14 -6 -19 23 -15 23 3 30 0 30 -12 0 -9 -6 -16
-14 -16 -27 0 -59 -35 -52 -57 6 -18 14 -21 62 -21 39 0 52 4 45 11 -6 6 -11
28 -11 48 0 57 -8 69 -44 69 -18 0 -36 -3 -39 -7z m53 -78 c0 -16 -27 -32 -37
-22 -3 4 -3 13 0 22 8 20 37 20 37 0z"/>
<path d="M16006 1898 c-46 -65 25 -141 88 -95 21 15 25 80 6 102 -19 23 -76
19 -94 -7z m72 -10 c27 -27 7 -78 -29 -78 -21 0 -33 32 -25 66 7 26 34 32 54
12z"/>
<path d="M16150 1868 c0 -29 4 -58 8 -65 4 -6 28 -11 55 -11 l47 1 0 64 c0 49
-3 63 -15 63 -11 0 -15 -11 -15 -43 0 -43 -13 -67 -37 -67 -9 0 -13 17 -13 55
0 42 -3 55 -15 55 -11 0 -15 -12 -15 -52z"/>
<path d="M16300 1854 c0 -50 3 -64 15 -64 11 0 15 11 15 43 0 43 13 67 37 67
9 0 13 -17 13 -55 0 -42 3 -55 15 -55 11 0 15 13 15 54 0 63 -11 75 -68 74
l-42 0 0 -64z"/>
</g>
</svg>
