<svg xmlns="http://www.w3.org/2000/svg" xmlns:xlink="http://www.w3.org/1999/xlink" xmlns:lucid="lucid" width="1733.64" height="1360"><g transform="translate(0 0)" lucid:page-tab-id="0_0"><path d="M0 0h1733.64v1360H0z" fill="#fff"/><path d="M991.2 220h180v70h-180z" stroke="#666" fill="#a5a7aa"/><use xlink:href="#a" transform="matrix(1,0,0,1,1011.1986760420259,220) translate(29.955555555555563 40.599999999999994)"/><path d="M210 923h180v70H210z" stroke="#666" fill="#a5a7aa"/><use xlink:href="#b" transform="matrix(1,0,0,1,230,923) translate(12.233333333333334 28.599999999999998)"/><use xlink:href="#c" transform="matrix(1,0,0,1,230,923) translate(13.416666666666668 52.599999999999994)"/><path d="M600.6 923h180v70h-180z" stroke="#666" fill="#a5a7aa"/><use xlink:href="#d" transform="matrix(1,0,0,1,620.599338021013,923) translate(22.261111111111113 40.599999999999994)"/><path d="M180 700h240v60H180z" fill="#eff0f0"/><path d="M420 700H180v60h240M228 700v60" stroke="#666" fill="none"/><use xlink:href="#e" transform="matrix(1,0,0,1,192,712) translate(5.5249999999999995 21.6)"/><use xlink:href="#f" transform="matrix(1,0,0,1,240,712) translate(30.375 21.6)"/><use xlink:href="#g" transform="matrix(1,0,0,1,240,712) translate(85.775 21.6)"/><path d="M300.48 922h-.96v-69.7h.96zm0-91.3h-.96v-53.82h.96z" stroke="#333" stroke-width=".05" fill="#333"/><path d="M300.48 922.5h-.96v-.5h.96z" fill="#333"/><path stroke="#333" stroke-width=".05" fill="#333"/><path d="M304.63 776.38h-9.26l4.63-14.26z" fill="#333"/><path d="M305.3 776.86h-10.6l5.3-16.28zm-9.28-.95h7.96L300 763.66z" stroke="#333" stroke-width=".05" fill="#333"/><use xlink:href="#h" transform="matrix(1,0,0,1,243.825,830.7) translate(0.005000000000002558 14.4)"/><use xlink:href="#i" transform="matrix(1,0,0,1,243.825,830.7) translate(58.505 14.4)"/><path d="M570.6 700h240v60h-240z" fill="#eff0f0"/><path d="M810.6 700h-240v60h240M618.6 700v60" stroke="#666" fill="none"/><use xlink:href="#e" transform="matrix(1,0,0,1,582.599338021013,712) translate(5.5249999999999995 21.6)"/><use xlink:href="#j" transform="matrix(1,0,0,1,630.599338021013,712) translate(11.875 21.6)"/><use xlink:href="#g" transform="matrix(1,0,0,1,630.599338021013,712) translate(104.275 21.6)"/><path d="M691.07 922h-.95v-69.7h.95zm0-91.3h-.95v-53.82h.95z" stroke="#333" stroke-width=".05" fill="#333"/><path d="M691.07 922.5h-.95v-.5h.95z" fill="#333"/><path stroke="#333" stroke-width=".05" fill="#333"/><path d="M695.24 776.38h-9.28l4.64-14.26z" fill="#333"/><path d="M695.9 776.86h-10.6l5.3-16.28zm-9.28-.95h7.96l-3.98-12.25z" stroke="#333" stroke-width=".05" fill="#333"/><use xlink:href="#h" transform="matrix(1,0,0,1,613.8993380210129,830.7) translate(0.0049999999999954525 14.4)"/><use xlink:href="#k" transform="matrix(1,0,0,1,613.8993380210129,830.7) translate(58.504999999999995 14.4)"/><path d="M1351.8 700h240v60h-240z" fill="#eff0f0"/><path d="M1591.8 700h-240v60h240M1399.8 700v60" stroke="#666" fill="none"/><use xlink:href="#l" transform="matrix(1,0,0,1,1363.7980140630389,712) translate(5.5249999999999995 21.6)"/><use xlink:href="#m" transform="matrix(1,0,0,1,1411.7980140630389,712) translate(51.3 21.6)"/><use xlink:href="#n" transform="matrix(1,0,0,1,1411.7980140630389,712) translate(87.8 21.6)"/><path d="M384 395c8.84 0 16 7.16 16 16v128c0 8.84-7.16 16-16 16H216c-8.84 0-16-7.16-16-16V411c0-8.84 7.16-16 16-16z" stroke="#666" fill="#d7e9ff"/><path d="M200 443h200" stroke="#666" fill="none"/><use xlink:href="#o" transform="matrix(1,0,0,1,220,395) translate(28.074999999999996 27.6)"/><use xlink:href="#p" transform="matrix(1,0,0,1,220,453) translate(4.974999999999994 17.19999999999999)"/><use xlink:href="#q" transform="matrix(1,0,0,1,220,453) translate(54.425 17.19999999999999)"/><use xlink:href="#r" transform="matrix(1,0,0,1,220,453) translate(92.175 17.19999999999999)"/><use xlink:href="#s" transform="matrix(1,0,0,1,220,453) translate(17.124999999999993 38.79999999999999)"/><use xlink:href="#t" transform="matrix(1,0,0,1,220,453) translate(93.42500000000001 38.79999999999999)"/><use xlink:href="#u" transform="matrix(1,0,0,1,220,453) translate(111.92500000000001 38.79999999999999)"/><use xlink:href="#v" transform="matrix(1,0,0,1,220,453) translate(17.324999999999996 60.39999999999999)"/><use xlink:href="#w" transform="matrix(1,0,0,1,220,453) translate(116.725 60.39999999999999)"/><use xlink:href="#x" transform="matrix(1,0,0,1,220,453) translate(10.349999999999994 82)"/><use xlink:href="#t" transform="matrix(1,0,0,1,220,453) translate(68.69999999999999 82)"/><use xlink:href="#y" transform="matrix(1,0,0,1,220,453) translate(87.19999999999999 82)"/><use xlink:href="#z" transform="matrix(1,0,0,1,220,453) translate(114.69999999999999 82)"/><path d="M570.6 445h240v60h-240z" fill="#eff0f0"/><path d="M810.6 445h-240v60h240M618.6 445v60" stroke="#666" fill="none"/><use xlink:href="#e" transform="matrix(1,0,0,1,582.599338021013,457) translate(5.5249999999999995 21.6)"/><use xlink:href="#A" transform="matrix(1,0,0,1,630.599338021013,457) translate(1.7249999999999943 21.6)"/><use xlink:href="#B" transform="matrix(1,0,0,1,630.599338021013,457) translate(69.025 21.6)"/><use xlink:href="#C" transform="matrix(1,0,0,1,630.599338021013,457) translate(114.42500000000001 21.6)"/><path d="M300.48 683.12h-.96v-78.3h.96zm0-99.9h-.96V556h.96z" stroke="#333" stroke-width=".05" fill="#333"/><path d="M300.48 556h-.96v-.5h.96z" fill="#333"/><path stroke="#333" stroke-width=".05" fill="#333"/><path d="M300 697.88l-4.63-14.26h9.26z" fill="#333"/><path d="M300 699.42l-5.3-16.28h10.6zm-3.98-15.33l3.98 12.25 3.98-12.26z" stroke="#333" stroke-width=".05" fill="#333"/><use xlink:href="#D" transform="matrix(1,0,0,1,277.575,583.206351623241) translate(0.004999999999999005 14.4)"/><path d="M300.48 615.48l.14 1.82.42 1.76.7 1.67.94 1.54 1.17 1.38 1.38 1.17 1.54.95 1.67.7 1.76.4 1.82.15h366.6l1.93.16 1.9.45 1.8.75 1.68 1.03 1.5 1.28 1.26 1.5 1.02 1.66.75 1.8.45 1.9.15 1.94v43.64h-.95v-43.6l-.14-1.82-.42-1.76-.7-1.67-.94-1.54-1.17-1.38-1.38-1.17-1.54-.95-1.67-.7-1.76-.4-1.82-.15h-366.6l-1.93-.16-1.9-.45-1.8-.75-1.68-1.03-1.5-1.28-1.26-1.5-1.02-1.66-.75-1.8-.45-1.9-.16-1.94v-10.7h.96zm0-32.27h-.96V556h.96z" stroke="#333" stroke-width=".05" fill="#333"/><path d="M300.48 556h-.96v-.5h.96z" fill="#333"/><path stroke="#333" stroke-width=".05" fill="#333"/><path d="M690.6 697.88l-4.64-14.26h9.27z" fill="#333"/><path d="M690.6 699.42l-5.3-16.28h10.6zm-3.98-15.33l3.98 12.25 3.98-12.26zM431.15 475.48H401v-.96h30.15zm122.57 0h-14.27v-.96h14.26z" stroke="#333" stroke-width=".05" fill="#333"/><path d="M401 475.48h-.5v-.96h.5z" fill="#333"/><path stroke="#333" stroke-width=".05" fill="#333"/><path d="M568.48 475l-14.26 4.63v-9.26z" fill="#333"/><path d="M570.02 475l-16.28 5.3v-10.6zm-15.33 3.98l12.24-3.98-12.25-3.98z" stroke="#333" stroke-width=".05" fill="#333"/><use xlink:href="#E" transform="matrix(1,0,0,1,431.1496690105065,464.2) translate(0.005000000000002558 14.4)"/><use xlink:href="#F" transform="matrix(1,0,0,1,431.1496690105065,464.2) translate(67.405 14.4)"/><path d="M180 220h240v60H180z" fill="#eff0f0"/><path d="M420 220H180v60h240M228 220v60" stroke="#666" fill="none"/><use xlink:href="#e" transform="matrix(1,0,0,1,192,232) translate(5.5249999999999995 21.6)"/><use xlink:href="#G" transform="matrix(1,0,0,1,240,232) translate(51.775 21.6)"/><use xlink:href="#H" transform="matrix(1,0,0,1,240,232) translate(81.275 21.6)"/><path d="M300.48 394h-.96v-45.7h.96zm0-67.3h-.96v-29.82h.96z" stroke="#333" stroke-width=".05" fill="#333"/><path d="M300.48 394.5h-.96v-.5h.96z" fill="#333"/><path stroke="#333" stroke-width=".05" fill="#333"/><path d="M304.63 296.38h-9.26l4.63-14.26z" fill="#333"/><path d="M305.3 296.86h-10.6l5.3-16.28zm-9.28-.95h7.96L300 283.66z" stroke="#333" stroke-width=".05" fill="#333"/><use xlink:href="#D" transform="matrix(1,0,0,1,277.575,326.7) translate(0.004999999999999005 14.4)"/><path d="M961.2 700h240v60h-240z" fill="#eff0f0"/><path d="M1201.2 700h-240v60h240M1009.2 700v60" stroke="#666" fill="none"/><use xlink:href="#e" transform="matrix(1,0,0,1,973.1986760420259,712) translate(5.5249999999999995 21.6)"/><use xlink:href="#I" transform="matrix(1,0,0,1,1021.1986760420259,712) translate(27.349999999999994 21.6)"/><use xlink:href="#J" transform="matrix(1,0,0,1,1021.1986760420259,712) translate(86.8 21.6)"/><path d="M1165.2 400c8.84 0 16 7.16 16 16v128c0 8.84-7.16 16-16 16h-168c-8.84 0-16-7.16-16-16V416c0-8.84 7.16-16 16-16z" stroke="#666" fill="#d7e9ff"/><path d="M981.2 448h200" stroke="#666" fill="none"/><use xlink:href="#K" transform="matrix(1,0,0,1,1001.1986760420259,400) translate(68.75 27.6)"/><use xlink:href="#L" transform="matrix(1,0,0,1,1001.1986760420259,458) translate(1.875 28)"/><use xlink:href="#M" transform="matrix(1,0,0,1,1001.1986760420259,458) translate(63.225 28)"/><use xlink:href="#N" transform="matrix(1,0,0,1,1001.1986760420259,458) translate(11.375 49.6)"/><use xlink:href="#O" transform="matrix(1,0,0,1,1001.1986760420259,458) translate(36.775 49.6)"/><use xlink:href="#P" transform="matrix(1,0,0,1,1001.1986760420259,458) translate(93.225 49.6)"/><use xlink:href="#Q" transform="matrix(1,0,0,1,1001.1986760420259,458) translate(111.725 49.6)"/><use xlink:href="#R" transform="matrix(1,0,0,1,1001.1986760420259,458) translate(51.574999999999996 71.2)"/><path d="M1000.8 383.12h-.96V355.8h.95zm0-48.92h-.96V291h.95z" stroke="#333" stroke-width=".05" fill="#333"/><path d="M1000.8 291h-.96v-.5h.95z" fill="#333"/><path stroke="#333" stroke-width=".05" fill="#333"/><path d="M1000.32 397.88l-4.64-14.26h9.27z" fill="#333"/><path d="M1000.32 399.42l-5.3-16.28h10.6zm-4-15.33l4 12.25 3.98-12.26z" stroke="#333" stroke-width=".05" fill="#333"/><use xlink:href="#S" transform="matrix(1,0,0,1,920.9909980336804,334.2) translate(0.0049999999999954525 14.4)"/><use xlink:href="#T" transform="matrix(1,0,0,1,920.9909980336804,334.2) translate(55.405 14.4)"/><use xlink:href="#U" transform="matrix(1,0,0,1,920.9909980336804,334.2) translate(123.755 14.4)"/><path d="M873.22 480.48h-46.24v-.96h46.24zm106.98 0h-62.13v-.96h62.13z" stroke="#333" stroke-width=".05" fill="#333"/><path d="M980.7 480.48h-.5v-.96h.5z" fill="#333"/><path stroke="#333" stroke-width=".05" fill="#333"/><path d="M826.48 484.63L812.22 480l14.26-4.63z" fill="#333"/><path d="M826.96 485.3l-16.28-5.3 16.28-5.3zm-13.2-5.3l12.25 3.98v-7.96z" stroke="#333" stroke-width=".05" fill="#333"/><use xlink:href="#D" transform="matrix(1,0,0,1,873.2240070315195,469.2) translate(0.004999999999999005 14.4)"/><path d="M1461.75 479.68l1.9.45 1.8.75 1.68 1.03 1.5 1.28 1.26 1.5 1 1.66.76 1.8.46 1.9.15 1.94v191.14h-.95v-191.1l-.14-1.82-.42-1.76-.7-1.67-.94-1.54-1.17-1.38-1.38-1.17-1.54-.95-1.67-.7-1.76-.4-1.82-.15h-.86v-.96h.9zm-279.55.8v-.96h231.87v.96z" stroke="#333" stroke-width=".05" fill="#333"/><path d="M1182.2 480.48h-.5v-.96h.5z" fill="#333"/><path stroke="#333" stroke-width=".05" fill="#333"/><path d="M1471.8 697.88l-4.64-14.26h9.27z" fill="#333"/><path d="M1471.8 699.42l-5.3-16.28h10.6zm-3.98-15.33l3.98 12.25 3.98-12.26z" stroke="#333" stroke-width=".05" fill="#333"/><use xlink:href="#D" transform="matrix(1,0,0,1,1414.0733450525324,469.2) translate(0.004999999999999005 14.4)"/><path d="M1081.67 683.12h-.95V628.8h.95zm0-75.92h-.95V561h.95z" stroke="#333" stroke-width=".05" fill="#333"/><path d="M1081.67 561h-.95v-.5h.95z" fill="#333"/><path stroke="#333" stroke-width=".05" fill="#333"/><path d="M1081.2 697.88l-4.64-14.26h9.27z" fill="#333"/><path d="M1081.2 699.42l-5.3-16.28h10.6zm-3.98-15.33l3.98 12.25 3.98-12.26z" stroke="#333" stroke-width=".05" fill="#333"/><use xlink:href="#V" transform="matrix(1,0,0,1,1057.2486760420259,607.2) translate(0.004999999999999005 14.4)"/><path d="M1164.47 399h-.94v-43.2h.94zm0-64.8h-.94v-27.32h.94z" stroke="#333" stroke-width=".05" fill="#333"/><path d="M1164.47 399.5h-.94v-.5h.94z" fill="#333"/><path stroke="#333" stroke-width=".05" fill="#333"/><path d="M1168.63 306.38h-9.27l4.64-14.26z" fill="#333"/><path d="M1169.3 306.86h-10.6l5.3-16.28zm-9.28-.95h7.96l-3.98-12.25z" stroke="#333" stroke-width=".05" fill="#333"/><use xlink:href="#W" transform="matrix(1,0,0,1,1093.825,334.2) translate(0.0049999999999954525 14.4)"/><use xlink:href="#k" transform="matrix(1,0,0,1,1093.825,334.2) translate(45.455 14.4)"/><path d="M1165.2 878c8.84 0 16 7.16 16 16v128c0 8.84-7.16 16-16 16h-168c-8.84 0-16-7.16-16-16V894c0-8.84 7.16-16 16-16z" stroke="#666" fill="#d7e9ff"/><path d="M981.2 926h200" stroke="#666" fill="none"/><use xlink:href="#X" transform="matrix(1,0,0,1,1001.1986760420259,878) translate(68.75 27.6)"/><g><use xlink:href="#L" transform="matrix(1,0,0,1,1001.1986760420259,936) translate(7.1499999999999915 38.8)"/><use xlink:href="#Y" transform="matrix(1,0,0,1,1001.1986760420259,936) translate(68.5 38.8)"/><use xlink:href="#Z" transform="matrix(1,0,0,1,1001.1986760420259,936) translate(131.95 38.8)"/><use xlink:href="#aa" transform="matrix(1,0,0,1,1001.1986760420259,936) translate(38.625 60.4)"/></g><path d="M821.2 958.48h-39.6v-.96h39.6zm143.12 0H940.6v-.96h23.72z" stroke="#333" stroke-width=".05" fill="#333"/><path d="M781.6 958.48h-.5v-.96h.5z" fill="#333"/><path stroke="#333" stroke-width=".05" fill="#333"/><path d="M979.08 958l-14.26 4.63v-9.26z" fill="#333"/><path d="M980.62 958l-16.28 5.3v-10.6zm-15.33 3.98l12.24-3.98-12.25-3.98z" stroke="#333" stroke-width=".05" fill="#333"/><g><use xlink:href="#ab" transform="matrix(1,0,0,1,821.1990070315194,947.2) translate(0.005000000000002558 14.4)"/><use xlink:href="#ac" transform="matrix(1,0,0,1,821.1990070315194,947.2) translate(60.455000000000005 14.4)"/></g><path d="M1081.67 877h-.95v-47.2h.95zm0-68.8h-.95v-31.32h.95z" stroke="#333" stroke-width=".05" fill="#333"/><path d="M1081.67 877.5h-.95v-.5h.95z" fill="#333"/><path stroke="#333" stroke-width=".05" fill="#333"/><path d="M1085.83 776.38h-9.27l4.64-14.26z" fill="#333"/><path d="M1086.5 776.86h-10.6l5.3-16.28zm-9.28-.95h7.96l-3.98-12.25z" stroke="#333" stroke-width=".05" fill="#333"/><g><use xlink:href="#D" transform="matrix(1,0,0,1,1058.773676042026,808.2) translate(0.004999999999999005 14.4)"/></g><path d="M691.07 548.48l.15 1.82.42 1.76.7 1.67.94 1.54 1.17 1.38 1.38 1.17 1.54.95 1.67.7 1.76.4 1.82.15h165.4l1.93.16 1.9.45 1.8.75 1.68 1.03 1.5 1.28 1.26 1.5 1.02 1.66.75 1.8.45 1.9.15 1.94v325.5l.15 1.8.42 1.77.7 1.67.94 1.55 1.17 1.37 1.38 1.18 1.54.94 1.67.7 1.76.4 1.82.16h9.14v.95h-9.18l-1.93-.15-1.9-.46-1.8-.75-1.68-1-1.5-1.28-1.26-1.5-1.02-1.66-.75-1.8-.45-1.92-.15-1.93V572.53l-.15-1.82-.42-1.76-.7-1.67-.94-1.54-1.17-1.38-1.38-1.17-1.54-.95-1.67-.7-1.76-.4-1.82-.15h-165.4l-1.93-.16-1.9-.45-1.82-.75-1.66-1.03-1.5-1.28-1.26-1.5-1.02-1.66-.75-1.8-.45-1.9-.16-1.94v-26.64h.95zM980.2 909.52v.95H946v-.95z" stroke="#333" stroke-width=".05" fill="#333"/><path d="M980.7 910.47h-.5v-.95h.5z" fill="#333"/><path stroke="#333" stroke-width=".05" fill="#333"/><path d="M695.24 521.38h-9.28l4.64-14.26z" fill="#333"/><path d="M695.9 521.86h-10.6l5.3-16.28zm-9.28-.95h7.96l-3.98-12.25zM869.95 729.68l1.9.45 1.8.75 1.68 1.03 1.5 1.28 1.26 1.5 1.02 1.66.75 1.8.45 1.9.15 1.94v156l.15 1.8.42 1.77.7 1.67.94 1.55 1.17 1.37 1.38 1.18 1.54.94 1.67.7 1.76.4 1.82.16h9.14v.95h-9.18l-1.93-.15-1.9-.46-1.8-.75-1.68-1-1.5-1.28-1.26-1.5-1.02-1.66-.75-1.8-.45-1.92-.15-1.93V742.03l-.15-1.82-.42-1.76-.7-1.67-.94-1.54-1.17-1.38-1.38-1.17-1.54-.95-1.67-.7-1.76-.4-1.82-.15h-41v-.96h41.04zM980.2 909.52v.95H946v-.95z" stroke="#333" stroke-width=".05" fill="#333"/><path d="M980.7 910.47h-.5v-.95h.5z" fill="#333"/><path stroke="#333" stroke-width=".05" fill="#333"/><path d="M826.48 734.63L812.22 730l14.26-4.63z" fill="#333"/><path d="M826.96 735.3l-16.28-5.3 16.28-5.3zm-13.2-5.3l12.25 3.98v-7.96z" stroke="#333" stroke-width=".05" fill="#333"/><g><use xlink:href="#D" transform="matrix(1,0,0,1,901.163367601381,899.192604990463) translate(0.004999999999999005 14.4)"/></g><path d="M691.07 1066.48l.15 1.82.42 1.76.7 1.67.94 1.54 1.17 1.38 1.38 1.17 1.54.95 1.67.7 1.76.4 1.82.16h77.95v.94h-78l-1.92-.15-1.9-.45-1.82-.75-1.66-1.03-1.5-1.28-1.26-1.5-1.02-1.66-.75-1.8-.45-1.9-.16-1.94v-56.64h.95zm390.6.04l-.15 1.93-.45 1.9-.75 1.8-1.03 1.68-1.28 1.5-1.5 1.26-1.66 1.02-1.8.75-1.9.45-1.94.15h-78v-.94h77.96l1.82-.15 1.76-.42 1.67-.7 1.54-.94 1.38-1.17 1.17-1.38.95-1.54.7-1.67.4-1.76.15-1.82V1039h.95z" stroke="#333" stroke-width=".05" fill="#333"/><path d="M1081.67 1039h-.95v-.5h.95z" fill="#333"/><path stroke="#333" stroke-width=".05" fill="#333"/><path d="M695.24 1009.38h-9.28l4.64-14.26z" fill="#333"/><path d="M695.9 1009.86h-10.6l5.3-16.28zm-9.28-.95h7.96l-3.98-12.25z" stroke="#333" stroke-width=".05" fill="#333"/><g><use xlink:href="#W" transform="matrix(1,0,0,1,780.5737136772416,1067.7) translate(0.0049999999999954525 14.4)"/><use xlink:href="#ad" transform="matrix(1,0,0,1,780.5737136772416,1067.7) translate(45.455 14.4)"/><use xlink:href="#ac" transform="matrix(1,0,0,1,780.5737136772416,1067.7) translate(151.70499999999998 14.4)"/></g><defs><path fill="#fff" d="M185-189c-5-48-123-54-124 2 14 75 158 14 163 119 3 78-121 87-175 55-17-10-28-26-33-46l33-7c5 56 141 63 141-1 0-78-155-14-162-118-5-82 145-84 179-34 5 7 8 16 11 25" id="ae"/><path fill="#fff" d="M59-47c-2 24 18 29 38 22v24C64 9 27 4 27-40v-127H5v-23h24l9-43h21v43h35v23H59v120" id="af"/><path fill="#fff" d="M84 4C-5 8 30-112 23-190h32v120c0 31 7 50 39 49 72-2 45-101 50-169h31l1 190h-30c-1-10 1-25-2-33-11 22-28 36-60 37" id="ag"/><path fill="#fff" d="M85-194c31 0 48 13 60 33l-1-100h32l1 261h-30c-2-10 0-23-3-31C134-8 116 4 85 4 32 4 16-35 15-94c0-66 23-100 70-100zm9 24c-40 0-46 34-46 75 0 40 6 74 45 74 42 0 51-32 51-76 0-42-9-74-50-73" id="ah"/><path fill="#fff" d="M100-194c63 0 86 42 84 106H49c0 40 14 67 53 68 26 1 43-12 49-29l28 8c-11 28-37 45-77 45C44 4 14-33 15-96c1-61 26-98 85-98zm52 81c6-60-76-77-97-28-3 7-6 17-6 28h103" id="ai"/><path fill="#fff" d="M117-194c89-4 53 116 60 194h-32v-121c0-31-8-49-39-48C34-167 62-67 57 0H25l-1-190h30c1 10-1 24 2 32 11-22 29-35 61-36" id="aj"/><g id="a"><use transform="matrix(0.05555555555555555,0,0,0.05555555555555555,0,0)" xlink:href="#ae"/><use transform="matrix(0.05555555555555555,0,0,0.05555555555555555,13.333333333333332,0)" xlink:href="#af"/><use transform="matrix(0.05555555555555555,0,0,0.05555555555555555,18.888888888888886,0)" xlink:href="#ag"/><use transform="matrix(0.05555555555555555,0,0,0.05555555555555555,30,0)" xlink:href="#ah"/><use transform="matrix(0.05555555555555555,0,0,0.05555555555555555,41.11111111111111,0)" xlink:href="#ai"/><use transform="matrix(0.05555555555555555,0,0,0.05555555555555555,52.222222222222214,0)" xlink:href="#aj"/><use transform="matrix(0.05555555555555555,0,0,0.05555555555555555,63.33333333333333,0)" xlink:href="#af"/></g><path fill="#fff" d="M30 0v-248h187v28H63v79h144v27H63v87h162V0H30" id="ak"/><path fill="#fff" d="M96-169c-40 0-48 33-48 73s9 75 48 75c24 0 41-14 43-38l32 2c-6 37-31 61-74 61-59 0-76-41-82-99-10-93 101-131 147-64 4 7 5 14 7 22l-32 3c-4-21-16-35-41-35" id="al"/><path fill="#fff" d="M141-36C126-15 110 5 73 4 37 3 15-17 15-53c-1-64 63-63 125-63 3-35-9-54-41-54-24 1-41 7-42 31l-33-3c5-37 33-52 76-52 45 0 72 20 72 64v82c-1 20 7 32 28 27v20c-31 9-61-2-59-35zM48-53c0 20 12 33 32 33 41-3 63-29 60-74-43 2-92-5-92 41" id="am"/><path fill="#fff" d="M24-231v-30h32v30H24zM24 0v-190h32V0H24" id="an"/><path fill="#fff" d="M100-194c62-1 85 37 85 99 1 63-27 99-86 99S16-35 15-95c0-66 28-99 85-99zM99-20c44 1 53-31 53-75 0-43-8-75-51-75s-53 32-53 75 10 74 51 75" id="ao"/><path fill="#fff" d="M24 0v-261h32V0H24" id="ap"/><g id="b"><use transform="matrix(0.05555555555555555,0,0,0.05555555555555555,0,0)" xlink:href="#ak"/><use transform="matrix(0.05555555555555555,0,0,0.05555555555555555,13.333333333333332,0)" xlink:href="#ah"/><use transform="matrix(0.05555555555555555,0,0,0.05555555555555555,24.444444444444443,0)" xlink:href="#ag"/><use transform="matrix(0.05555555555555555,0,0,0.05555555555555555,35.55555555555556,0)" xlink:href="#al"/><use transform="matrix(0.05555555555555555,0,0,0.05555555555555555,45.55555555555556,0)" xlink:href="#am"/><use transform="matrix(0.05555555555555555,0,0,0.05555555555555555,56.66666666666667,0)" xlink:href="#af"/><use transform="matrix(0.05555555555555555,0,0,0.05555555555555555,62.22222222222223,0)" xlink:href="#an"/><use transform="matrix(0.05555555555555555,0,0,0.05555555555555555,66.61111111111111,0)" xlink:href="#ao"/><use transform="matrix(0.05555555555555555,0,0,0.05555555555555555,77.72222222222223,0)" xlink:href="#aj"/><use transform="matrix(0.05555555555555555,0,0,0.05555555555555555,88.83333333333334,0)" xlink:href="#am"/><use transform="matrix(0.05555555555555555,0,0,0.05555555555555555,99.94444444444446,0)" xlink:href="#ap"/></g><path fill="#fff" d="M140-251c81 0 123 46 123 126C263-46 219 4 140 4 59 4 17-45 17-125s42-126 123-126zm0 227c63 0 89-41 89-101s-29-99-89-99c-61 0-89 39-89 99S79-25 140-24" id="aq"/><path fill="#fff" d="M114-163C36-179 61-72 57 0H25l-1-190h30c1 12-1 29 2 39 6-27 23-49 58-41v29" id="ar"/><path fill="#fff" d="M177-190C167-65 218 103 67 71c-23-6-38-20-44-43l32-5c15 47 100 32 89-28v-30C133-14 115 1 83 1 29 1 15-40 15-95c0-56 16-97 71-98 29-1 48 16 59 35 1-10 0-23 2-32h30zM94-22c36 0 50-32 50-73 0-42-14-75-50-75-39 0-46 34-46 75s6 73 46 73" id="as"/><path fill="#fff" d="M9 0v-24l116-142H16v-24h144v24L44-24h123V0H9" id="at"/><g id="c"><use transform="matrix(0.05555555555555555,0,0,0.05555555555555555,0,0)" xlink:href="#aq"/><use transform="matrix(0.05555555555555555,0,0,0.05555555555555555,15.555555555555555,0)" xlink:href="#ar"/><use transform="matrix(0.05555555555555555,0,0,0.05555555555555555,22.166666666666664,0)" xlink:href="#as"/><use transform="matrix(0.05555555555555555,0,0,0.05555555555555555,33.27777777777777,0)" xlink:href="#am"/><use transform="matrix(0.05555555555555555,0,0,0.05555555555555555,44.388888888888886,0)" xlink:href="#aj"/><use transform="matrix(0.05555555555555555,0,0,0.05555555555555555,55.5,0)" xlink:href="#an"/><use transform="matrix(0.05555555555555555,0,0,0.05555555555555555,59.888888888888886,0)" xlink:href="#at"/><use transform="matrix(0.05555555555555555,0,0,0.05555555555555555,69.88888888888889,0)" xlink:href="#am"/><use transform="matrix(0.05555555555555555,0,0,0.05555555555555555,81,0)" xlink:href="#af"/><use transform="matrix(0.05555555555555555,0,0,0.05555555555555555,86.55555555555556,0)" xlink:href="#an"/><use transform="matrix(0.05555555555555555,0,0,0.05555555555555555,90.94444444444444,0)" xlink:href="#ao"/><use transform="matrix(0.05555555555555555,0,0,0.05555555555555555,102.05555555555556,0)" xlink:href="#aj"/></g><path fill="#fff" d="M210-169c-67 3-38 105-44 169h-31v-121c0-29-5-50-35-48C34-165 62-65 56 0H25l-1-190h30c1 10-1 24 2 32 10-44 99-50 107 0 11-21 27-35 58-36 85-2 47 119 55 194h-31v-121c0-29-5-49-35-48" id="au"/><path fill="#fff" d="M115-194c55 1 70 41 70 98S169 2 115 4C84 4 66-9 55-30l1 105H24l-1-265h31l2 30c10-21 28-34 59-34zm-8 174c40 0 45-34 45-75s-6-73-45-74c-42 0-51 32-51 76 0 43 10 73 51 73" id="av"/><path fill="#fff" d="M179-190L93 31C79 59 56 82 12 73V49c39 6 53-20 64-50L1-190h34L92-34l54-156h33" id="aw"/><g id="d"><use transform="matrix(0.05555555555555555,0,0,0.05555555555555555,0,0)" xlink:href="#ak"/><use transform="matrix(0.05555555555555555,0,0,0.05555555555555555,13.333333333333332,0)" xlink:href="#au"/><use transform="matrix(0.05555555555555555,0,0,0.05555555555555555,29.944444444444443,0)" xlink:href="#av"/><use transform="matrix(0.05555555555555555,0,0,0.05555555555555555,41.05555555555556,0)" xlink:href="#ap"/><use transform="matrix(0.05555555555555555,0,0,0.05555555555555555,45.44444444444444,0)" xlink:href="#ao"/><use transform="matrix(0.05555555555555555,0,0,0.05555555555555555,56.55555555555556,0)" xlink:href="#aw"/><use transform="matrix(0.05555555555555555,0,0,0.05555555555555555,66.55555555555556,0)" xlink:href="#ai"/><use transform="matrix(0.05555555555555555,0,0,0.05555555555555555,77.66666666666667,0)" xlink:href="#ar"/></g><path fill="#333" d="M75-17c87 13 134-18 134-103 0-78-51-106-134-100v203zm171-102C246 5 139 7 10 0v-9l31-5v-208l-31-4v-10h107c82 0 129 35 129 117" id="ax"/><use transform="matrix(0.05,0,0,0.05,0,0)" xlink:href="#ax" id="e"/><path fill="#333" d="M52-115c0 93 80 130 150 87l7-35h11l-1 55c-23 7-52 12-83 12C60 4 19-37 15-115c-5-113 97-141 201-114l1 51h-12l-5-30c-15-9-39-16-62-16-66 0-86 41-86 109" id="ay"/><path fill="#333" d="M90-170c52 0 76 32 76 87 0 54-24 87-77 87-51 0-75-34-75-87 0-54 24-87 76-87zM89-10c39 0 46-35 46-73 0-39-7-73-46-73-39 1-44 34-44 73s6 72 44 73" id="az"/><path fill="#333" d="M124-13C89 8 26 15 26-45v-108c-8-3-24 2-21-12h50v118c-3 37 42 32 69 25v-131l-25-4v-8h54v153c8 3 24-2 21 12h-48" id="aA"/><path fill="#333" d="M57-145c16-10 35-24 60-25v45c-19 1-8-30-40-17l-20 6v124l29 4v8H7v-8l21-4v-141c-8-3-24 2-21-12h48" id="aB"/><path fill="#333" d="M41-130c7 48 86 23 86 84 0 56-69 57-112 41v-40c20 0 9 29 31 31 35 19 77-26 41-50-27-18-72-13-72-59 0-50 58-52 100-41v36c-19 1-8-25-28-25-21-7-50-1-46 23" id="aC"/><path fill="#333" d="M84-170c49 0 66 33 63 87H46c-8 60 38 80 95 63v10C128-2 108 4 88 4 34 4 14-29 14-84c-1-54 22-86 70-86zm33 73c12-57-57-82-69-24-1 7-2 15-2 24h71" id="aD"/><g id="f"><use transform="matrix(0.05,0,0,0.05,0,0)" xlink:href="#ay"/><use transform="matrix(0.05,0,0,0.05,12,0)" xlink:href="#az"/><use transform="matrix(0.05,0,0,0.05,21,0)" xlink:href="#aA"/><use transform="matrix(0.05,0,0,0.05,30,0)" xlink:href="#aB"/><use transform="matrix(0.05,0,0,0.05,35.95,0)" xlink:href="#aC"/><use transform="matrix(0.05,0,0,0.05,42.95,0)" xlink:href="#aD"/></g><path fill="#333" d="M45-84c0 64 52 80 104 63 1 25-30 25-55 25-56 0-80-32-80-88 0-76 62-98 131-80v46h-10c-5-15-4-31-23-35-47-10-67 21-67 69" id="aE"/><path fill="#333" d="M32-163c41-10 102-14 102 39v112c8 3 24-2 21 12h-45l-4-17C83 13 3 13 13-46c-2-50 45-50 92-51 4-36-5-70-42-56-6 2-12 4-16 6-4 7 0 23-15 20v-36zM42-47c0 41 41 33 63 22v-59c-34 1-63-1-63 37" id="aF"/><path fill="#333" d="M54-38c-1 25 24 26 44 20v12C71 10 25 9 25-35v-115H4c-2-14 14-10 21-15l18-38h11v38h38v15H54v112" id="aG"/><path fill="#333" d="M65-12l28 4v8H7v-8l28-4v-226l-28-4v-8h58v238" id="aH"/><path fill="#333" d="M141-152c28 39 5 97-54 97-9 0-20-2-27-3L49-35c29 22 130-14 124 52-4 45-38 57-88 61C21 83-8 26 45-2 33-6 22-15 21-31l28-31c-19-9-28-26-28-51-2-51 53-65 100-52l38-20 7 8zM85 64c35 0 61-11 61-42 0-35-57-17-89-21-9 8-16 19-17 34 0 25 19 29 45 29zM52-113c1 26 7 46 35 44 28-1 34-16 35-44 0-26-6-43-34-43s-36 17-36 43" id="aI"/><g id="g"><use transform="matrix(0.05,0,0,0.05,0,0)" xlink:href="#aE"/><use transform="matrix(0.05,0,0,0.05,7.95,0)" xlink:href="#aF"/><use transform="matrix(0.05,0,0,0.05,15.9,0)" xlink:href="#aG"/><use transform="matrix(0.05,0,0,0.05,20.9,0)" xlink:href="#aD"/><use transform="matrix(0.05,0,0,0.05,28.849999999999994,0)" xlink:href="#aH"/><use transform="matrix(0.05,0,0,0.05,33.849999999999994,0)" xlink:href="#az"/><use transform="matrix(0.05,0,0,0.05,42.849999999999994,0)" xlink:href="#aI"/></g><path fill="#333" d="M75-108c48 3 76-12 76-58s-28-57-76-54v112zm111-58c-1 60-46 78-111 74v78l37 5v9H13v-9l28-5v-208l-31-4v-10c81 1 178-14 176 70" id="aJ"/><path fill="#333" d="M53-14c58 12 82-15 82-73 0-52-35-77-82-58v131zM89 4C64 4 42-2 24-9v-229l-24-4v-8h53l-1 94c48-33 114-4 114 69 0 57-23 91-77 91" id="aK"/><path fill="#333" d="M47-200c-23 0-25-39 0-38 13 0 18 7 20 19-1 11-8 19-20 19zM65-12l28 4v8H8v-8l28-4v-141l-24-4v-8h53v153" id="aL"/><path fill="#333" d="M126-119c3-38-42-31-69-25v132l23 4v8H7v-8l21-4v-226l-24-4v-8h53l-1 98c31-22 99-31 99 31v109c7 3 23-1 20 12h-71v-8l22-4v-107" id="aM"/><g id="h"><use transform="matrix(0.05,0,0,0.05,0,0)" xlink:href="#aJ"/><use transform="matrix(0.05,0,0,0.05,10,0)" xlink:href="#aA"/><use transform="matrix(0.05,0,0,0.05,19,0)" xlink:href="#aK"/><use transform="matrix(0.05,0,0,0.05,28,0)" xlink:href="#aH"/><use transform="matrix(0.05,0,0,0.05,33,0)" xlink:href="#aL"/><use transform="matrix(0.05,0,0,0.05,38,0)" xlink:href="#aC"/><use transform="matrix(0.05,0,0,0.05,45,0)" xlink:href="#aM"/></g><g id="i"><use transform="matrix(0.05,0,0,0.05,0,0)" xlink:href="#aE"/><use transform="matrix(0.05,0,0,0.05,7.95,0)" xlink:href="#az"/><use transform="matrix(0.05,0,0,0.05,16.95,0)" xlink:href="#aA"/><use transform="matrix(0.05,0,0,0.05,25.950000000000003,0)" xlink:href="#aB"/><use transform="matrix(0.05,0,0,0.05,31.899999999999995,0)" xlink:href="#aC"/><use transform="matrix(0.05,0,0,0.05,38.9,0)" xlink:href="#aD"/><use transform="matrix(0.05,0,0,0.05,46.85,0)" xlink:href="#aC"/></g><path fill="#333" d="M130-224c-62 0-78 43-78 106 0 64 16 108 78 108s78-45 78-108-16-106-78-106zm0 228C53 4 15-39 15-118c-1-80 37-120 115-120s115 42 115 120C245-39 207 4 130 4" id="aN"/><path fill="#333" d="M166-85c3 67-44 102-111 85l1 64 29 4v9H6v-9l21-4v-217c-7-3-22 1-19-12h46l1 9c11-8 26-14 45-14 47 2 64 36 66 85zM56-13c53 14 83-14 78-72 7-53-33-79-78-60v132" id="aO"/><path fill="#333" d="M125-118c4-37-41-34-68-26v132l23 4v8H8C5-13 21-9 28-12v-141c-7-3-23 1-20-12h47l2 13c31-23 98-29 98 31v109c7 3 23-1 20 12h-72v-8l22-4v-106" id="aP"/><path fill="#333" d="M161-154L85 37C75 66 49 86 8 75V39c18-2 6 24 29 21 30-4 38-32 47-58L21-153c-7-3-20 0-17-12h77v8l-26 4 45 116 43-116-26-4v-8h62v8" id="aQ"/><g id="j"><use transform="matrix(0.05,0,0,0.05,0,0)" xlink:href="#aN"/><use transform="matrix(0.05,0,0,0.05,12.950000000000001,0)" xlink:href="#aO"/><use transform="matrix(0.05,0,0,0.05,21.950000000000003,0)" xlink:href="#aO"/><use transform="matrix(0.05,0,0,0.05,30.950000000000003,0)" xlink:href="#az"/><use transform="matrix(0.05,0,0,0.05,39.95,0)" xlink:href="#aB"/><use transform="matrix(0.05,0,0,0.05,45.900000000000006,0)" xlink:href="#aG"/><use transform="matrix(0.05,0,0,0.05,50.900000000000006,0)" xlink:href="#aA"/><use transform="matrix(0.05,0,0,0.05,59.900000000000006,0)" xlink:href="#aP"/><use transform="matrix(0.05,0,0,0.05,68.9,0)" xlink:href="#aL"/><use transform="matrix(0.05,0,0,0.05,73.9,0)" xlink:href="#aG"/><use transform="matrix(0.05,0,0,0.05,78.9,0)" xlink:href="#aQ"/></g><g id="k"><use transform="matrix(0.05,0,0,0.05,0,0)" xlink:href="#az"/><use transform="matrix(0.05,0,0,0.05,9,0)" xlink:href="#aO"/><use transform="matrix(0.05,0,0,0.05,18,0)" xlink:href="#aO"/><use transform="matrix(0.05,0,0,0.05,27,0)" xlink:href="#az"/><use transform="matrix(0.05,0,0,0.05,36,0)" xlink:href="#aB"/><use transform="matrix(0.05,0,0,0.05,41.95,0)" xlink:href="#aG"/><use transform="matrix(0.05,0,0,0.05,46.95,0)" xlink:href="#aA"/><use transform="matrix(0.05,0,0,0.05,55.95,0)" xlink:href="#aP"/><use transform="matrix(0.05,0,0,0.05,64.95,0)" xlink:href="#aL"/><use transform="matrix(0.05,0,0,0.05,69.95,0)" xlink:href="#aG"/><use transform="matrix(0.05,0,0,0.05,74.95,0)" xlink:href="#aL"/><use transform="matrix(0.05,0,0,0.05,79.95,0)" xlink:href="#aD"/><use transform="matrix(0.05,0,0,0.05,87.9,0)" xlink:href="#aC"/></g><path fill="#333" d="M81-9v9H4v-9l26-5 81-224h33l83 224 30 5v9h-99v-9l31-5-23-68H73L49-14zm38-203L78-98h82" id="aR"/><use transform="matrix(0.05,0,0,0.05,0,0)" xlink:href="#aR" id="l"/><path fill="#333" d="M106-76c4 61-43 93-98 74v-43h11c2 18 5 33 28 33 16 0 25-11 25-33v-177l-30-4v-10h91v10l-27 4v146" id="aS"/><g id="m"><use transform="matrix(0.05,0,0,0.05,0,0)" xlink:href="#aS"/><use transform="matrix(0.05,0,0,0.05,7,0)" xlink:href="#az"/><use transform="matrix(0.05,0,0,0.05,16,0)" xlink:href="#aK"/><use transform="matrix(0.05,0,0,0.05,25,0)" xlink:href="#aC"/></g><path fill="#333" d="M77-14l30 5v9H13v-9l30-5v-208l-30-4v-10h94v10l-30 4v208" id="aT"/><g id="n"><use transform="matrix(0.05,0,0,0.05,0,0)" xlink:href="#aR"/><use transform="matrix(0.05,0,0,0.05,12.950000000000001,0)" xlink:href="#aJ"/><use transform="matrix(0.05,0,0,0.05,22.950000000000003,0)" xlink:href="#aT"/></g><g id="o"><use transform="matrix(0.05,0,0,0.05,0,0)" xlink:href="#aR"/><use transform="matrix(0.05,0,0,0.05,12.950000000000001,0)" xlink:href="#aC"/><use transform="matrix(0.05,0,0,0.05,19.950000000000003,0)" xlink:href="#aQ"/><use transform="matrix(0.05,0,0,0.05,28.950000000000003,0)" xlink:href="#aP"/><use transform="matrix(0.05,0,0,0.05,37.95,0)" xlink:href="#aE"/><use transform="matrix(0.05,0,0,0.05,45.900000000000006,0)" xlink:href="#aM"/><use transform="matrix(0.05,0,0,0.05,54.900000000000006,0)" xlink:href="#aB"/><use transform="matrix(0.05,0,0,0.05,60.85,0)" xlink:href="#az"/><use transform="matrix(0.05,0,0,0.05,69.85000000000001,0)" xlink:href="#aP"/><use transform="matrix(0.05,0,0,0.05,78.85000000000001,0)" xlink:href="#az"/><use transform="matrix(0.05,0,0,0.05,87.85000000000001,0)" xlink:href="#aA"/><use transform="matrix(0.05,0,0,0.05,96.85000000000001,0)" xlink:href="#aC"/></g><g id="p"><use transform="matrix(0.05,0,0,0.05,0,0)" xlink:href="#aR"/><use transform="matrix(0.05,0,0,0.05,12.950000000000001,0)" xlink:href="#aO"/><use transform="matrix(0.05,0,0,0.05,21.950000000000003,0)" xlink:href="#aO"/><use transform="matrix(0.05,0,0,0.05,30.950000000000003,0)" xlink:href="#aH"/><use transform="matrix(0.05,0,0,0.05,35.95,0)" xlink:href="#aQ"/></g><path fill="#333" d="M203-222l-32-4v-10h81v10l-31 4V0h-17L59-212v198l32 5v9H10v-9l31-5v-208l-31-4v-10h72L203-61v-161" id="aU"/><path fill="#333" d="M111-226l-36 4v207c33-1 73 2 101-4l11-49h11l-3 68H10v-9l31-5v-208l-31-4v-10h101v10" id="aV"/><g id="q"><use transform="matrix(0.05,0,0,0.05,0,0)" xlink:href="#aU"/><use transform="matrix(0.05,0,0,0.05,12.950000000000001,0)" xlink:href="#aV"/><use transform="matrix(0.05,0,0,0.05,23.900000000000002,0)" xlink:href="#aJ"/></g><path fill="#333" d="M60-80l68-73c-7-3-20 0-17-12h58c3 13-13 9-20 12l-47 48 60 93c7 3 21-1 18 12h-68c-3-12 9-9 15-12L82-83 60-60v48c7 3 21-1 18 12H10v-8l21-4v-226l-24-4v-8h53v170" id="aW"/><path fill="#333" d="M240-154L185 4h-14l-41-109L90 4H77L20-153c-7-3-23 1-20-12h79v8l-27 4L91-41l40-108h14l40 109 38-113-28-4v-8h63v8" id="aX"/><path fill="#333" d="M13-81c0-71 46-101 114-85l-1-72-28-4v-8h57v238c8 3 24-2 21 12h-47l-2-12C80 23 13-1 13-81zm77-74c-37 1-44 33-45 74 0 38 9 66 45 66 14 0 27-3 36-7v-130c-10-1-24-3-36-3" id="aY"/><g id="r"><use transform="matrix(0.05,0,0,0.05,0,0)" xlink:href="#aW"/><use transform="matrix(0.05,0,0,0.05,9,0)" xlink:href="#aD"/><use transform="matrix(0.05,0,0,0.05,16.95,0)" xlink:href="#aQ"/><use transform="matrix(0.05,0,0,0.05,25.950000000000003,0)" xlink:href="#aX"/><use transform="matrix(0.05,0,0,0.05,38.9,0)" xlink:href="#az"/><use transform="matrix(0.05,0,0,0.05,47.9,0)" xlink:href="#aB"/><use transform="matrix(0.05,0,0,0.05,53.85,0)" xlink:href="#aY"/></g><path fill="#333" d="M156-12c7 3 23-1 20 12h-75v-8l22-4-38-58-45 58 23 4v8H3v-8l19-3 55-71-48-71c-7-3-23 1-20-12h75v8l-22 4 32 48 37-48-23-4v-8h59v8l-19 3-46 60" id="aZ"/><g id="s"><use transform="matrix(0.05,0,0,0.05,0,0)" xlink:href="#aD"/><use transform="matrix(0.05,0,0,0.05,7.95,0)" xlink:href="#aZ"/><use transform="matrix(0.05,0,0,0.05,16.95,0)" xlink:href="#aG"/><use transform="matrix(0.05,0,0,0.05,21.95,0)" xlink:href="#aB"/><use transform="matrix(0.05,0,0,0.05,27.899999999999995,0)" xlink:href="#aF"/><use transform="matrix(0.05,0,0,0.05,35.85,0)" xlink:href="#aE"/><use transform="matrix(0.05,0,0,0.05,43.800000000000004,0)" xlink:href="#aG"/><use transform="matrix(0.05,0,0,0.05,48.800000000000004,0)" xlink:href="#aL"/><use transform="matrix(0.05,0,0,0.05,53.800000000000004,0)" xlink:href="#az"/><use transform="matrix(0.05,0,0,0.05,62.800000000000004,0)" xlink:href="#aP"/></g><g id="t"><use transform="matrix(0.05,0,0,0.05,0,0)" xlink:href="#aG"/><use transform="matrix(0.05,0,0,0.05,5,0)" xlink:href="#az"/></g><path fill="#333" d="M126-118c4-37-42-32-68-25v131l24 4v8H8C5-13 21-9 28-12v-141c-7-3-23 1-20-12h48l1 13c22-15 77-30 92 2 32-22 104-36 104 29v109c8 3 24-2 21 12h-75v-8l25-4v-106c3-39-45-31-72-24 7 37 1 88 3 130l25 4v8h-78v-8l24-4v-106" id="ba"/><g id="u"><use transform="matrix(0.05,0,0,0.05,0,0)" xlink:href="#ba"/><use transform="matrix(0.05,0,0,0.05,14,0)" xlink:href="#aF"/><use transform="matrix(0.05,0,0,0.05,21.95,0)" xlink:href="#aO"/></g><g id="v"><use transform="matrix(0.05,0,0,0.05,0,0)" xlink:href="#az"/><use transform="matrix(0.05,0,0,0.05,9,0)" xlink:href="#aO"/><use transform="matrix(0.05,0,0,0.05,18,0)" xlink:href="#aO"/><use transform="matrix(0.05,0,0,0.05,27,0)" xlink:href="#az"/><use transform="matrix(0.05,0,0,0.05,36,0)" xlink:href="#aB"/><use transform="matrix(0.05,0,0,0.05,41.95,0)" xlink:href="#aG"/><use transform="matrix(0.05,0,0,0.05,46.95,0)" xlink:href="#aA"/><use transform="matrix(0.05,0,0,0.05,55.95,0)" xlink:href="#aP"/><use transform="matrix(0.05,0,0,0.05,64.95,0)" xlink:href="#aL"/><use transform="matrix(0.05,0,0,0.05,69.95,0)" xlink:href="#aG"/><use transform="matrix(0.05,0,0,0.05,74.95,0)" xlink:href="#aL"/><use transform="matrix(0.05,0,0,0.05,79.95,0)" xlink:href="#aD"/><use transform="matrix(0.05,0,0,0.05,87.9,0)" xlink:href="#aC"/></g><g id="w"><use transform="matrix(0.05,0,0,0.05,0,0)" xlink:href="#aF"/><use transform="matrix(0.05,0,0,0.05,7.95,0)" xlink:href="#aP"/><use transform="matrix(0.05,0,0,0.05,16.95,0)" xlink:href="#aY"/></g><g id="x"><use transform="matrix(0.05,0,0,0.05,0,0)" xlink:href="#aE"/><use transform="matrix(0.05,0,0,0.05,7.95,0)" xlink:href="#az"/><use transform="matrix(0.05,0,0,0.05,16.95,0)" xlink:href="#aA"/><use transform="matrix(0.05,0,0,0.05,25.950000000000003,0)" xlink:href="#aB"/><use transform="matrix(0.05,0,0,0.05,31.899999999999995,0)" xlink:href="#aC"/><use transform="matrix(0.05,0,0,0.05,38.9,0)" xlink:href="#aD"/><use transform="matrix(0.05,0,0,0.05,46.85,0)" xlink:href="#aC"/></g><path fill="#333" d="M50-238c28 0 22 38 0 38-10-2-19-7-19-19s7-18 19-19zM3 58c24 15 35-10 35-42v-169l-25-4v-8h54V7c4 51-28 81-77 66V38C3 36-1 51 3 58" id="bb"/><g id="y"><use transform="matrix(0.05,0,0,0.05,0,0)" xlink:href="#bb"/><use transform="matrix(0.05,0,0,0.05,5,0)" xlink:href="#az"/><use transform="matrix(0.05,0,0,0.05,14,0)" xlink:href="#aK"/></g><g id="z"><use transform="matrix(0.05,0,0,0.05,0,0)" xlink:href="#aG"/><use transform="matrix(0.05,0,0,0.05,5,0)" xlink:href="#aL"/><use transform="matrix(0.05,0,0,0.05,10,0)" xlink:href="#aG"/><use transform="matrix(0.05,0,0,0.05,15,0)" xlink:href="#aH"/><use transform="matrix(0.05,0,0,0.05,20,0)" xlink:href="#aD"/><use transform="matrix(0.05,0,0,0.05,27.950000000000003,0)" xlink:href="#aC"/></g><g id="A"><use transform="matrix(0.05,0,0,0.05,0,0)" xlink:href="#aU"/><use transform="matrix(0.05,0,0,0.05,12.950000000000001,0)" xlink:href="#aD"/><use transform="matrix(0.05,0,0,0.05,20.900000000000002,0)" xlink:href="#aG"/><use transform="matrix(0.05,0,0,0.05,25.900000000000002,0)" xlink:href="#aX"/><use transform="matrix(0.05,0,0,0.05,38.85,0)" xlink:href="#az"/><use transform="matrix(0.05,0,0,0.05,47.85,0)" xlink:href="#aB"/><use transform="matrix(0.05,0,0,0.05,53.800000000000004,0)" xlink:href="#aW"/></g><g id="B"><use transform="matrix(0.05,0,0,0.05,0,0)" xlink:href="#aI"/><use transform="matrix(0.05,0,0,0.05,9,0)" xlink:href="#aB"/><use transform="matrix(0.05,0,0,0.05,14.949999999999998,0)" xlink:href="#aF"/><use transform="matrix(0.05,0,0,0.05,22.9,0)" xlink:href="#aO"/><use transform="matrix(0.05,0,0,0.05,31.899999999999995,0)" xlink:href="#aM"/></g><g id="C"><use transform="matrix(0.05,0,0,0.05,0,0)" xlink:href="#aC"/><use transform="matrix(0.05,0,0,0.05,7,0)" xlink:href="#aG"/><use transform="matrix(0.05,0,0,0.05,12,0)" xlink:href="#az"/><use transform="matrix(0.05,0,0,0.05,21,0)" xlink:href="#aB"/><use transform="matrix(0.05,0,0,0.05,26.950000000000003,0)" xlink:href="#aF"/><use transform="matrix(0.05,0,0,0.05,34.9,0)" xlink:href="#aI"/><use transform="matrix(0.05,0,0,0.05,43.9,0)" xlink:href="#aD"/></g><path fill="#333" d="M130-224c-62 0-78 43-78 106 0 64 16 108 78 108s78-44 78-108c0-63-16-106-78-106zM145 3C61 9 15-34 15-118c0-80 37-120 115-120 77 0 115 42 115 120 1 59-21 95-62 112 19 19 30 53 71 46v12c-30 12-67 2-84-19" id="bc"/><g id="D"><use transform="matrix(0.05,0,0,0.05,0,0)" xlink:href="#bc"/><use transform="matrix(0.05,0,0,0.05,12.950000000000001,0)" xlink:href="#aA"/><use transform="matrix(0.05,0,0,0.05,21.950000000000003,0)" xlink:href="#aD"/><use transform="matrix(0.05,0,0,0.05,29.900000000000002,0)" xlink:href="#aB"/><use transform="matrix(0.05,0,0,0.05,35.85,0)" xlink:href="#aQ"/></g><g id="E"><use transform="matrix(0.05,0,0,0.05,0,0)" xlink:href="#aJ"/><use transform="matrix(0.05,0,0,0.05,10,0)" xlink:href="#az"/><use transform="matrix(0.05,0,0,0.05,19,0)" xlink:href="#aO"/><use transform="matrix(0.05,0,0,0.05,28,0)" xlink:href="#aA"/><use transform="matrix(0.05,0,0,0.05,37,0)" xlink:href="#aH"/><use transform="matrix(0.05,0,0,0.05,42,0)" xlink:href="#aF"/><use transform="matrix(0.05,0,0,0.05,49.95,0)" xlink:href="#aG"/><use transform="matrix(0.05,0,0,0.05,54.95,0)" xlink:href="#aD"/></g><g id="F"><use transform="matrix(0.05,0,0,0.05,0,0)" xlink:href="#aI"/><use transform="matrix(0.05,0,0,0.05,9,0)" xlink:href="#aB"/><use transform="matrix(0.05,0,0,0.05,14.949999999999998,0)" xlink:href="#aF"/><use transform="matrix(0.05,0,0,0.05,22.9,0)" xlink:href="#aO"/><use transform="matrix(0.05,0,0,0.05,31.899999999999995,0)" xlink:href="#aM"/></g><g id="G"><use transform="matrix(0.05,0,0,0.05,0,0)" xlink:href="#aS"/><use transform="matrix(0.05,0,0,0.05,7,0)" xlink:href="#az"/><use transform="matrix(0.05,0,0,0.05,16,0)" xlink:href="#aK"/></g><g id="H"><use transform="matrix(0.05,0,0,0.05,0,0)" xlink:href="#aG"/><use transform="matrix(0.05,0,0,0.05,5,0)" xlink:href="#aL"/><use transform="matrix(0.05,0,0,0.05,10,0)" xlink:href="#aG"/><use transform="matrix(0.05,0,0,0.05,15,0)" xlink:href="#aH"/><use transform="matrix(0.05,0,0,0.05,20,0)" xlink:href="#aD"/><use transform="matrix(0.05,0,0,0.05,27.950000000000003,0)" xlink:href="#aC"/></g><path fill="#333" d="M178-68c0 79-95 82-154 59v-54h12c1 35 22 52 60 52 50 0 69-58 33-82-39-24-105-21-105-85 0-67 86-66 142-53v49h-12l-6-29c-31-27-121-7-89 42 28 43 119 24 119 101" id="bd"/><g id="I"><use transform="matrix(0.05,0,0,0.05,0,0)" xlink:href="#bd"/><use transform="matrix(0.05,0,0,0.05,10,0)" xlink:href="#aG"/><use transform="matrix(0.05,0,0,0.05,15,0)" xlink:href="#aA"/><use transform="matrix(0.05,0,0,0.05,24,0)" xlink:href="#aY"/><use transform="matrix(0.05,0,0,0.05,33,0)" xlink:href="#aD"/><use transform="matrix(0.05,0,0,0.05,40.95,0)" xlink:href="#aP"/><use transform="matrix(0.05,0,0,0.05,49.95,0)" xlink:href="#aG"/></g><g id="J"><use transform="matrix(0.05,0,0,0.05,0,0)" xlink:href="#aE"/><use transform="matrix(0.05,0,0,0.05,7.95,0)" xlink:href="#az"/><use transform="matrix(0.05,0,0,0.05,16.95,0)" xlink:href="#aA"/><use transform="matrix(0.05,0,0,0.05,25.950000000000003,0)" xlink:href="#aB"/><use transform="matrix(0.05,0,0,0.05,31.899999999999995,0)" xlink:href="#aC"/><use transform="matrix(0.05,0,0,0.05,38.9,0)" xlink:href="#aD"/><use transform="matrix(0.05,0,0,0.05,46.85,0)" xlink:href="#aC"/></g><path fill="#333" d="M110-14l48 5v9H32v-9l48-5v-192l-48 17v-10l69-39h9v224" id="be"/><path fill="#333" d="M45-37c13 0 21 8 21 21C67-2 57 4 45 5 33 4 23-2 24-16c0-13 8-21 21-21" id="bf"/><path fill="#333" d="M90-239c59 0 76 52 76 120S152 4 89 4C31 4 14-51 14-119c0-67 17-120 76-120zM89-10c45-6 45-58 45-109 0-50 0-101-45-106-45 4-43 57-43 106 0 50-2 104 43 109" id="bg"/><g id="K"><use transform="matrix(0.05,0,0,0.05,0,0)" xlink:href="#be"/><use transform="matrix(0.05,0,0,0.05,9,0)" xlink:href="#bf"/><use transform="matrix(0.05,0,0,0.05,13.5,0)" xlink:href="#bg"/></g><path fill="#333" d="M103-236c-39-15-35 32-34 71h44v15H69v136l35 6v8H15v-8l25-6v-136H11v-9l29-7c-6-59 23-100 80-84v36c-15 2-12-14-17-22" id="bh"/><g id="L"><use transform="matrix(0.05,0,0,0.05,0,0)" xlink:href="#aT"/><use transform="matrix(0.05,0,0,0.05,5.95,0)" xlink:href="#aY"/><use transform="matrix(0.05,0,0,0.05,14.949999999999998,0)" xlink:href="#aD"/><use transform="matrix(0.05,0,0,0.05,22.9,0)" xlink:href="#aP"/><use transform="matrix(0.05,0,0,0.05,31.899999999999995,0)" xlink:href="#aG"/><use transform="matrix(0.05,0,0,0.05,36.9,0)" xlink:href="#aL"/><use transform="matrix(0.05,0,0,0.05,41.9,0)" xlink:href="#bh"/><use transform="matrix(0.05,0,0,0.05,47.85,0)" xlink:href="#aQ"/></g><g id="M"><use transform="matrix(0.05,0,0,0.05,0,0)" xlink:href="#az"/><use transform="matrix(0.05,0,0,0.05,9,0)" xlink:href="#aO"/><use transform="matrix(0.05,0,0,0.05,18,0)" xlink:href="#aO"/><use transform="matrix(0.05,0,0,0.05,27,0)" xlink:href="#az"/><use transform="matrix(0.05,0,0,0.05,36,0)" xlink:href="#aB"/><use transform="matrix(0.05,0,0,0.05,41.95,0)" xlink:href="#aG"/><use transform="matrix(0.05,0,0,0.05,46.95,0)" xlink:href="#aA"/><use transform="matrix(0.05,0,0,0.05,55.95,0)" xlink:href="#aP"/><use transform="matrix(0.05,0,0,0.05,64.95,0)" xlink:href="#aL"/><use transform="matrix(0.05,0,0,0.05,69.95,0)" xlink:href="#aG"/><use transform="matrix(0.05,0,0,0.05,74.95,0)" xlink:href="#aL"/><use transform="matrix(0.05,0,0,0.05,79.95,0)" xlink:href="#aD"/><use transform="matrix(0.05,0,0,0.05,87.9,0)" xlink:href="#aC"/></g><g id="N"><use transform="matrix(0.05,0,0,0.05,0,0)" xlink:href="#bh"/><use transform="matrix(0.05,0,0,0.05,5.95,0)" xlink:href="#az"/><use transform="matrix(0.05,0,0,0.05,14.949999999999998,0)" xlink:href="#aB"/></g><g id="O"><use transform="matrix(0.05,0,0,0.05,0,0)" xlink:href="#aC"/><use transform="matrix(0.05,0,0,0.05,7,0)" xlink:href="#aG"/><use transform="matrix(0.05,0,0,0.05,12,0)" xlink:href="#aA"/><use transform="matrix(0.05,0,0,0.05,21,0)" xlink:href="#aY"/><use transform="matrix(0.05,0,0,0.05,30,0)" xlink:href="#aD"/><use transform="matrix(0.05,0,0,0.05,37.95,0)" xlink:href="#aP"/><use transform="matrix(0.05,0,0,0.05,46.95,0)" xlink:href="#aG"/></g><g id="P"><use transform="matrix(0.05,0,0,0.05,0,0)" xlink:href="#aG"/><use transform="matrix(0.05,0,0,0.05,5,0)" xlink:href="#az"/></g><g id="Q"><use transform="matrix(0.05,0,0,0.05,0,0)" xlink:href="#aX"/><use transform="matrix(0.05,0,0,0.05,12.950000000000001,0)" xlink:href="#az"/><use transform="matrix(0.05,0,0,0.05,21.950000000000003,0)" xlink:href="#aB"/><use transform="matrix(0.05,0,0,0.05,27.900000000000002,0)" xlink:href="#aW"/></g><g id="R"><use transform="matrix(0.05,0,0,0.05,0,0)" xlink:href="#aG"/><use transform="matrix(0.05,0,0,0.05,5,0)" xlink:href="#az"/><use transform="matrix(0.05,0,0,0.05,14,0)" xlink:href="#aX"/><use transform="matrix(0.05,0,0,0.05,26.950000000000003,0)" xlink:href="#aF"/><use transform="matrix(0.05,0,0,0.05,34.900000000000006,0)" xlink:href="#aB"/><use transform="matrix(0.05,0,0,0.05,40.85000000000001,0)" xlink:href="#aY"/><use transform="matrix(0.05,0,0,0.05,49.85000000000001,0)" xlink:href="#aC"/></g><g id="S"><use transform="matrix(0.05,0,0,0.05,0,0)" xlink:href="#ay"/><use transform="matrix(0.05,0,0,0.05,12,0)" xlink:href="#az"/><use transform="matrix(0.05,0,0,0.05,21,0)" xlink:href="#aA"/><use transform="matrix(0.05,0,0,0.05,30,0)" xlink:href="#aB"/><use transform="matrix(0.05,0,0,0.05,35.95,0)" xlink:href="#aC"/><use transform="matrix(0.05,0,0,0.05,42.95,0)" xlink:href="#aD"/></g><g id="T"><use transform="matrix(0.05,0,0,0.05,0,0)" xlink:href="#aC"/><use transform="matrix(0.05,0,0,0.05,7,0)" xlink:href="#aD"/><use transform="matrix(0.05,0,0,0.05,14.949999999999998,0)" xlink:href="#aH"/><use transform="matrix(0.05,0,0,0.05,19.95,0)" xlink:href="#aD"/><use transform="matrix(0.05,0,0,0.05,27.899999999999995,0)" xlink:href="#aE"/><use transform="matrix(0.05,0,0,0.05,35.85,0)" xlink:href="#aG"/><use transform="matrix(0.05,0,0,0.05,40.85,0)" xlink:href="#aL"/><use transform="matrix(0.05,0,0,0.05,45.85,0)" xlink:href="#az"/><use transform="matrix(0.05,0,0,0.05,54.85,0)" xlink:href="#aP"/></g><g id="U"><use transform="matrix(0.05,0,0,0.05,0,0)" xlink:href="#bh"/><use transform="matrix(0.05,0,0,0.05,5.95,0)" xlink:href="#az"/><use transform="matrix(0.05,0,0,0.05,14.949999999999998,0)" xlink:href="#aB"/><use transform="matrix(0.05,0,0,0.05,20.9,0)" xlink:href="#ba"/></g><g id="V"><use transform="matrix(0.05,0,0,0.05,0,0)" xlink:href="#aJ"/><use transform="matrix(0.05,0,0,0.05,10,0)" xlink:href="#aD"/><use transform="matrix(0.05,0,0,0.05,17.95,0)" xlink:href="#aB"/><use transform="matrix(0.05,0,0,0.05,23.9,0)" xlink:href="#aC"/><use transform="matrix(0.05,0,0,0.05,30.899999999999995,0)" xlink:href="#aL"/><use transform="matrix(0.05,0,0,0.05,35.9,0)" xlink:href="#aC"/><use transform="matrix(0.05,0,0,0.05,42.9,0)" xlink:href="#aG"/></g><g id="W"><use transform="matrix(0.05,0,0,0.05,0,0)" xlink:href="#bd"/><use transform="matrix(0.05,0,0,0.05,10,0)" xlink:href="#aM"/><use transform="matrix(0.05,0,0,0.05,19,0)" xlink:href="#az"/><use transform="matrix(0.05,0,0,0.05,28,0)" xlink:href="#aX"/></g><path fill="#333" d="M24-231c66-21 156 2 128 81C132-92 78-66 39-27h121V0H16v-26l59-54c26-25 47-47 47-97 0-48-47-57-81-37l-6 29H24v-46" id="bi"/><g id="X"><use transform="matrix(0.05,0,0,0.05,0,0)" xlink:href="#bi"/><use transform="matrix(0.05,0,0,0.05,9,0)" xlink:href="#bf"/><use transform="matrix(0.05,0,0,0.05,13.5,0)" xlink:href="#bg"/></g><g id="Y"><use transform="matrix(0.05,0,0,0.05,0,0)" xlink:href="#aC"/><use transform="matrix(0.05,0,0,0.05,7,0)" xlink:href="#aG"/><use transform="matrix(0.05,0,0,0.05,12,0)" xlink:href="#aA"/><use transform="matrix(0.05,0,0,0.05,21,0)" xlink:href="#aY"/><use transform="matrix(0.05,0,0,0.05,30,0)" xlink:href="#aD"/><use transform="matrix(0.05,0,0,0.05,37.95,0)" xlink:href="#aP"/><use transform="matrix(0.05,0,0,0.05,46.95,0)" xlink:href="#aG"/><use transform="matrix(0.05,0,0,0.05,51.95,0)" xlink:href="#aC"/></g><g id="Z"><use transform="matrix(0.05,0,0,0.05,0,0)" xlink:href="#bh"/><use transform="matrix(0.05,0,0,0.05,5.95,0)" xlink:href="#az"/><use transform="matrix(0.05,0,0,0.05,14.949999999999998,0)" xlink:href="#aB"/></g><g id="aa"><use transform="matrix(0.05,0,0,0.05,0,0)" xlink:href="#aB"/><use transform="matrix(0.05,0,0,0.05,5.95,0)" xlink:href="#aD"/><use transform="matrix(0.05,0,0,0.05,13.9,0)" xlink:href="#aE"/><use transform="matrix(0.05,0,0,0.05,21.85,0)" xlink:href="#aB"/><use transform="matrix(0.05,0,0,0.05,27.8,0)" xlink:href="#aA"/><use transform="matrix(0.05,0,0,0.05,36.8,0)" xlink:href="#aL"/><use transform="matrix(0.05,0,0,0.05,41.8,0)" xlink:href="#aG"/><use transform="matrix(0.05,0,0,0.05,46.8,0)" xlink:href="#ba"/><use transform="matrix(0.05,0,0,0.05,60.79999999999999,0)" xlink:href="#aD"/><use transform="matrix(0.05,0,0,0.05,68.75,0)" xlink:href="#aP"/><use transform="matrix(0.05,0,0,0.05,77.75,0)" xlink:href="#aG"/></g><g id="ab"><use transform="matrix(0.05,0,0,0.05,0,0)" xlink:href="#aV"/><use transform="matrix(0.05,0,0,0.05,10.950000000000001,0)" xlink:href="#az"/><use transform="matrix(0.05,0,0,0.05,19.950000000000003,0)" xlink:href="#az"/><use transform="matrix(0.05,0,0,0.05,28.950000000000003,0)" xlink:href="#aW"/><use transform="matrix(0.05,0,0,0.05,37.95,0)" xlink:href="#aA"/><use transform="matrix(0.05,0,0,0.05,46.95,0)" xlink:href="#aO"/></g><g id="ac"><use transform="matrix(0.05,0,0,0.05,0,0)" xlink:href="#aC"/><use transform="matrix(0.05,0,0,0.05,7,0)" xlink:href="#aG"/><use transform="matrix(0.05,0,0,0.05,12,0)" xlink:href="#aA"/><use transform="matrix(0.05,0,0,0.05,21,0)" xlink:href="#aY"/><use transform="matrix(0.05,0,0,0.05,30,0)" xlink:href="#aD"/><use transform="matrix(0.05,0,0,0.05,37.95,0)" xlink:href="#aP"/><use transform="matrix(0.05,0,0,0.05,46.95,0)" xlink:href="#aG"/><use transform="matrix(0.05,0,0,0.05,51.95,0)" xlink:href="#aC"/></g><g id="ad"><use transform="matrix(0.05,0,0,0.05,0,0)" xlink:href="#aB"/><use transform="matrix(0.05,0,0,0.05,5.95,0)" xlink:href="#aD"/><use transform="matrix(0.05,0,0,0.05,13.9,0)" xlink:href="#aE"/><use transform="matrix(0.05,0,0,0.05,21.85,0)" xlink:href="#az"/><use transform="matrix(0.05,0,0,0.05,30.85,0)" xlink:href="#ba"/><use transform="matrix(0.05,0,0,0.05,44.85,0)" xlink:href="#ba"/><use transform="matrix(0.05,0,0,0.05,58.85,0)" xlink:href="#aD"/><use transform="matrix(0.05,0,0,0.05,66.8,0)" xlink:href="#aP"/><use transform="matrix(0.05,0,0,0.05,75.8,0)" xlink:href="#aY"/><use transform="matrix(0.05,0,0,0.05,84.8,0)" xlink:href="#aD"/><use transform="matrix(0.05,0,0,0.05,92.75,0)" xlink:href="#aY"/></g></defs></g></svg>