<svg xmlns="http://www.w3.org/2000/svg" xmlns:xlink="http://www.w3.org/1999/xlink" contentStyleType="text/css" height="398px" preserveAspectRatio="none" style="width:655px;height:398px;background:#FFFFFF;" version="1.1" viewBox="0 0 655 398" width="655px" zoomAndPan="magnify"><defs/><g><rect fill="#FFFFFF" height="186.2422" style="stroke:#181818;stroke-width:1.0;" width="10" x="242" y="112.7988"/><rect fill="#FFFFFF" height="142.9316" style="stroke:#181818;stroke-width:1.0;" width="10" x="440" y="142.1094"/><rect fill="#FFFFFF" height="14" style="stroke:#181818;stroke-width:1.0;" width="10" x="615" y="171.4199"/><rect fill="#FFFFFF" height="14" style="stroke:#181818;stroke-width:1.0;" width="10" x="615" y="257.041"/><line style="stroke:#181818;stroke-width:0.5;stroke-dasharray:5.0,5.0;" x1="54" x2="54" y1="81.4883" y2="317.041"/><line style="stroke:#181818;stroke-width:0.5;stroke-dasharray:5.0,5.0;" x1="247" x2="247" y1="81.4883" y2="317.041"/><line style="stroke:#181818;stroke-width:0.5;stroke-dasharray:5.0,5.0;" x1="444.5" x2="444.5" y1="81.4883" y2="317.041"/><line style="stroke:#181818;stroke-width:0.5;stroke-dasharray:5.0,5.0;" x1="619.5" x2="619.5" y1="81.4883" y2="317.041"/><text fill="#000000" font-family="sans-serif" font-size="14" lengthAdjust="spacing" textLength="92" x="5" y="78.5352">System Timer</text><ellipse cx="54" cy="13.5" fill="#E2E2F0" rx="8" ry="8" style="stroke:#181818;stroke-width:0.5;"/><path d="M54,21.5 L54,48.5 M41,29.5 L67,29.5 M54,48.5 L41,63.5 M54,48.5 L67,63.5 " fill="none" style="stroke:#181818;stroke-width:0.5;"/><text fill="#000000" font-family="sans-serif" font-size="14" lengthAdjust="spacing" textLength="92" x="5" y="329.5762">System Timer</text><ellipse cx="54" cy="341.0293" fill="#E2E2F0" rx="8" ry="8" style="stroke:#181818;stroke-width:0.5;"/><path d="M54,349.0293 L54,376.0293 M41,357.0293 L67,357.0293 M54,376.0293 L41,391.0293 M54,376.0293 L67,391.0293 " fill="none" style="stroke:#181818;stroke-width:0.5;"/><rect fill="#E2E2F0" height="30.4883" rx="2.5" ry="2.5" style="stroke:#181818;stroke-width:0.5;" width="146" x="174" y="50"/><text fill="#000000" font-family="sans-serif" font-size="14" lengthAdjust="spacing" textLength="132" x="181" y="70.5352">CertificationService</text><rect fill="#E2E2F0" height="30.4883" rx="2.5" ry="2.5" style="stroke:#181818;stroke-width:0.5;" width="146" x="174" y="316.041"/><text fill="#000000" font-family="sans-serif" font-size="14" lengthAdjust="spacing" textLength="132" x="181" y="336.5762">CertificationService</text><rect fill="#E2E2F0" height="30.4883" rx="2.5" ry="2.5" style="stroke:#181818;stroke-width:0.5;" width="129" x="380.5" y="50"/><text fill="#000000" font-family="sans-serif" font-size="14" lengthAdjust="spacing" textLength="115" x="387.5" y="70.5352">CertificationDAO</text><rect fill="#E2E2F0" height="30.4883" rx="2.5" ry="2.5" style="stroke:#181818;stroke-width:0.5;" width="129" x="380.5" y="316.041"/><text fill="#000000" font-family="sans-serif" font-size="14" lengthAdjust="spacing" textLength="115" x="387.5" y="336.5762">CertificationDAO</text><text fill="#000000" font-family="sans-serif" font-size="14" lengthAdjust="spacing" textLength="63" x="585.5" y="78.5352">Database</text><path d="M602,29 C602,19 620,19 620,19 C620,19 638,19 638,29 L638,55 C638,65 620,65 620,65 C620,65 602,65 602,55 L602,29 " fill="#E2E2F0" style="stroke:#181818;stroke-width:1.5;"/><path d="M602,29 C602,39 620,39 620,39 C620,39 638,39 638,29 " fill="none" style="stroke:#181818;stroke-width:1.5;"/><text fill="#000000" font-family="sans-serif" font-size="14" lengthAdjust="spacing" textLength="63" x="585.5" y="329.5762">Database</text><path d="M602,342.5293 C602,332.5293 620,332.5293 620,332.5293 C620,332.5293 638,332.5293 638,342.5293 L638,368.5293 C638,378.5293 620,378.5293 620,378.5293 C620,378.5293 602,378.5293 602,368.5293 L602,342.5293 " fill="#E2E2F0" style="stroke:#181818;stroke-width:1.5;"/><path d="M602,342.5293 C602,352.5293 620,352.5293 620,352.5293 C620,352.5293 638,352.5293 638,342.5293 " fill="none" style="stroke:#181818;stroke-width:1.5;"/><rect fill="#FFFFFF" height="186.2422" style="stroke:#181818;stroke-width:1.0;" width="10" x="242" y="112.7988"/><rect fill="#FFFFFF" height="142.9316" style="stroke:#181818;stroke-width:1.0;" width="10" x="440" y="142.1094"/><rect fill="#FFFFFF" height="14" style="stroke:#181818;stroke-width:1.0;" width="10" x="615" y="171.4199"/><rect fill="#FFFFFF" height="14" style="stroke:#181818;stroke-width:1.0;" width="10" x="615" y="257.041"/><polygon fill="#181818" points="230,108.7988,240,112.7988,230,116.7988,234,112.7988" style="stroke:#181818;stroke-width:1.0;"/><line style="stroke:#181818;stroke-width:1.0;" x1="54" x2="236" y1="112.7988" y2="112.7988"/><text fill="#000000" font-family="sans-serif" font-size="13" lengthAdjust="spacing" textLength="169" x="61" y="108.0566">synchronizeCertifications()</text><polygon fill="#181818" points="428,138.1094,438,142.1094,428,146.1094,432,142.1094" style="stroke:#181818;stroke-width:1.0;"/><line style="stroke:#181818;stroke-width:1.0;" x1="252" x2="434" y1="142.1094" y2="142.1094"/><text fill="#000000" font-family="sans-serif" font-size="13" lengthAdjust="spacing" textLength="169" x="259" y="137.3672">synchronizeCertifications()</text><polygon fill="#181818" points="603,167.4199,613,171.4199,603,175.4199,607,171.4199" style="stroke:#181818;stroke-width:1.0;"/><line style="stroke:#181818;stroke-width:1.0;" x1="450" x2="609" y1="171.4199" y2="171.4199"/><text fill="#000000" font-family="sans-serif" font-size="13" lengthAdjust="spacing" textLength="47" x="457" y="166.6777">retrieve</text><polygon fill="#181818" points="461,181.4199,451,185.4199,461,189.4199,457,185.4199" style="stroke:#181818;stroke-width:1.0;"/><line style="stroke:#181818;stroke-width:1.0;stroke-dasharray:2.0,2.0;" x1="455" x2="619" y1="185.4199" y2="185.4199"/><line style="stroke:#181818;stroke-width:1.0;" x1="450" x2="492" y1="214.7305" y2="214.7305"/><line style="stroke:#181818;stroke-width:1.0;" x1="492" x2="492" y1="214.7305" y2="227.7305"/><line style="stroke:#181818;stroke-width:1.0;" x1="451" x2="492" y1="227.7305" y2="227.7305"/><polygon fill="#181818" points="461,223.7305,451,227.7305,461,231.7305,457,227.7305" style="stroke:#181818;stroke-width:1.0;"/><text fill="#000000" font-family="sans-serif" font-size="13" lengthAdjust="spacing" textLength="141" x="457" y="209.9883">Map to internal format</text><polygon fill="#181818" points="603,253.041,613,257.041,603,261.041,607,257.041" style="stroke:#181818;stroke-width:1.0;"/><line style="stroke:#181818;stroke-width:1.0;" x1="450" x2="609" y1="257.041" y2="257.041"/><text fill="#000000" font-family="sans-serif" font-size="13" lengthAdjust="spacing" textLength="32" x="457" y="252.2988">store</text><polygon fill="#181818" points="461,267.041,451,271.041,461,275.041,457,271.041" style="stroke:#181818;stroke-width:1.0;"/><line style="stroke:#181818;stroke-width:1.0;stroke-dasharray:2.0,2.0;" x1="455" x2="619" y1="271.041" y2="271.041"/><polygon fill="#181818" points="263,281.041,253,285.041,263,289.041,259,285.041" style="stroke:#181818;stroke-width:1.0;"/><line style="stroke:#181818;stroke-width:1.0;stroke-dasharray:2.0,2.0;" x1="257" x2="444" y1="285.041" y2="285.041"/><polygon fill="#181818" points="65,295.041,55,299.041,65,303.041,61,299.041" style="stroke:#181818;stroke-width:1.0;"/><line style="stroke:#181818;stroke-width:1.0;stroke-dasharray:2.0,2.0;" x1="59" x2="246" y1="299.041" y2="299.041"/><!--SRC=[bP512i9034NtEKLmfGilu48GknKNzG9np630pfHCMgYdToegj8o8g_p0pyideSuYEPEUZ346WDn4nKKz9EC6JzAmBf0IsgYW9JLnqb8mt7FMNXoPn52pzkBukw7Q7U52HcTAZDLB03onkDuMQRZ1D0HtrHZapXD7MgwWE397vRt_O4PxHhm3vb5bK-6U8OjEnmjDJkPz4L38SA0MBQ84OmrqGn-r8PlXClz7dfJ_ymapBGy0]--></g></svg>