<svg xmlns="http://www.w3.org/2000/svg" xmlns:xlink="http://www.w3.org/1999/xlink" contentStyleType="text/css" height="340px" preserveAspectRatio="none" style="width:657px;height:340px;background:#FFFFFF;" version="1.1" viewBox="0 0 657 340" width="657px" zoomAndPan="magnify"><defs/><g><rect fill="#FFFFFF" height="128.6211" style="stroke:#181818;stroke-width:1.0;" width="10" x="142.5" y="112.7988"/><rect fill="#FFFFFF" height="85.3105" style="stroke:#181818;stroke-width:1.0;" width="10" x="305.5" y="142.1094"/><rect fill="#FFFFFF" height="42" style="stroke:#181818;stroke-width:1.0;" width="10" x="507.5" y="171.4199"/><rect fill="#FFFFFF" height="14" style="stroke:#181818;stroke-width:1.0;" width="10" x="616.5" y="185.4199"/><line style="stroke:#181818;stroke-width:0.5;stroke-dasharray:5.0,5.0;" x1="18" x2="18" y1="81.4883" y2="259.4199"/><line style="stroke:#181818;stroke-width:0.5;stroke-dasharray:5.0,5.0;" x1="147.5" x2="147.5" y1="81.4883" y2="259.4199"/><line style="stroke:#181818;stroke-width:0.5;stroke-dasharray:5.0,5.0;" x1="310.5" x2="310.5" y1="81.4883" y2="259.4199"/><line style="stroke:#181818;stroke-width:0.5;stroke-dasharray:5.0,5.0;" x1="512" x2="512" y1="81.4883" y2="259.4199"/><line style="stroke:#181818;stroke-width:0.5;stroke-dasharray:5.0,5.0;" x1="621" x2="621" y1="81.4883" y2="259.4199"/><text fill="#000000" font-family="sans-serif" font-size="14" lengthAdjust="spacing" textLength="14" x="8.5" y="78.5352">UI</text><ellipse cx="18.5" cy="13.5" fill="#E2E2F0" rx="8" ry="8" style="stroke:#181818;stroke-width:0.5;"/><path d="M18.5,21.5 L18.5,48.5 M5.5,29.5 L31.5,29.5 M18.5,48.5 L5.5,63.5 M18.5,48.5 L31.5,63.5 " fill="none" style="stroke:#181818;stroke-width:0.5;"/><text fill="#000000" font-family="sans-serif" font-size="14" lengthAdjust="spacing" textLength="14" x="8.5" y="271.9551">UI</text><ellipse cx="18.5" cy="283.4082" fill="#E2E2F0" rx="8" ry="8" style="stroke:#181818;stroke-width:0.5;"/><path d="M18.5,291.4082 L18.5,318.4082 M5.5,299.4082 L31.5,299.4082 M18.5,318.4082 L5.5,333.4082 M18.5,318.4082 L31.5,333.4082 " fill="none" style="stroke:#181818;stroke-width:0.5;"/><text fill="#000000" font-family="sans-serif" font-size="14" lengthAdjust="spacing" textLength="154" x="67.5" y="78.5352">CertificationController</text><path d="M127,37 L127,61 M127,49 L144,49 " fill="none" style="stroke:#181818;stroke-width:0.5;"/><ellipse cx="156" cy="49" fill="#E2E2F0" rx="12" ry="12" style="stroke:#181818;stroke-width:0.5;"/><text fill="#000000" font-family="sans-serif" font-size="14" lengthAdjust="spacing" textLength="154" x="67.5" y="271.9551">CertificationController</text><path d="M127,278.9082 L127,302.9082 M127,290.9082 L144,290.9082 " fill="none" style="stroke:#181818;stroke-width:0.5;"/><ellipse cx="156" cy="290.9082" fill="#E2E2F0" rx="12" ry="12" style="stroke:#181818;stroke-width:0.5;"/><rect fill="#E2E2F0" height="30.4883" rx="2.5" ry="2.5" style="stroke:#181818;stroke-width:0.5;" width="146" x="237.5" y="50"/><text fill="#000000" font-family="sans-serif" font-size="14" lengthAdjust="spacing" textLength="132" x="244.5" y="70.5352">CertificationService</text><rect fill="#E2E2F0" height="30.4883" rx="2.5" ry="2.5" style="stroke:#181818;stroke-width:0.5;" width="146" x="237.5" y="258.4199"/><text fill="#000000" font-family="sans-serif" font-size="14" lengthAdjust="spacing" textLength="132" x="244.5" y="278.9551">CertificationService</text><rect fill="#E2E2F0" height="30.4883" rx="2.5" ry="2.5" style="stroke:#181818;stroke-width:0.5;" width="129" x="448" y="50"/><text fill="#000000" font-family="sans-serif" font-size="14" lengthAdjust="spacing" textLength="115" x="455" y="70.5352">CertificationDAO</text><rect fill="#E2E2F0" height="30.4883" rx="2.5" ry="2.5" style="stroke:#181818;stroke-width:0.5;" width="129" x="448" y="258.4199"/><text fill="#000000" font-family="sans-serif" font-size="14" lengthAdjust="spacing" textLength="115" x="455" y="278.9551">CertificationDAO</text><text fill="#000000" font-family="sans-serif" font-size="14" lengthAdjust="spacing" textLength="63" x="587" y="78.5352">Database</text><path d="M603.5,29 C603.5,19 621.5,19 621.5,19 C621.5,19 639.5,19 639.5,29 L639.5,55 C639.5,65 621.5,65 621.5,65 C621.5,65 603.5,65 603.5,55 L603.5,29 " fill="#E2E2F0" style="stroke:#181818;stroke-width:1.5;"/><path d="M603.5,29 C603.5,39 621.5,39 621.5,39 C621.5,39 639.5,39 639.5,29 " fill="none" style="stroke:#181818;stroke-width:1.5;"/><text fill="#000000" font-family="sans-serif" font-size="14" lengthAdjust="spacing" textLength="63" x="587" y="271.9551">Database</text><path d="M603.5,284.9082 C603.5,274.9082 621.5,274.9082 621.5,274.9082 C621.5,274.9082 639.5,274.9082 639.5,284.9082 L639.5,310.9082 C639.5,320.9082 621.5,320.9082 621.5,320.9082 C621.5,320.9082 603.5,320.9082 603.5,310.9082 L603.5,284.9082 " fill="#E2E2F0" style="stroke:#181818;stroke-width:1.5;"/><path d="M603.5,284.9082 C603.5,294.9082 621.5,294.9082 621.5,294.9082 C621.5,294.9082 639.5,294.9082 639.5,284.9082 " fill="none" style="stroke:#181818;stroke-width:1.5;"/><rect fill="#FFFFFF" height="128.6211" style="stroke:#181818;stroke-width:1.0;" width="10" x="142.5" y="112.7988"/><rect fill="#FFFFFF" height="85.3105" style="stroke:#181818;stroke-width:1.0;" width="10" x="305.5" y="142.1094"/><rect fill="#FFFFFF" height="42" style="stroke:#181818;stroke-width:1.0;" width="10" x="507.5" y="171.4199"/><rect fill="#FFFFFF" height="14" style="stroke:#181818;stroke-width:1.0;" width="10" x="616.5" y="185.4199"/><polygon fill="#181818" points="130.5,108.7988,140.5,112.7988,130.5,116.7988,134.5,112.7988" style="stroke:#181818;stroke-width:1.0;"/><line style="stroke:#181818;stroke-width:1.0;" x1="18.5" x2="136.5" y1="112.7988" y2="112.7988"/><text fill="#000000" font-family="sans-serif" font-size="13" lengthAdjust="spacing" textLength="105" x="25.5" y="108.0566">getCertifications</text><polygon fill="#181818" points="293.5,138.1094,303.5,142.1094,293.5,146.1094,297.5,142.1094" style="stroke:#181818;stroke-width:1.0;"/><line style="stroke:#181818;stroke-width:1.0;" x1="152.5" x2="299.5" y1="142.1094" y2="142.1094"/><text fill="#000000" font-family="sans-serif" font-size="13" lengthAdjust="spacing" textLength="105" x="159.5" y="137.3672">getCertifications</text><polygon fill="#181818" points="495.5,167.4199,505.5,171.4199,495.5,175.4199,499.5,171.4199" style="stroke:#181818;stroke-width:1.0;"/><line style="stroke:#181818;stroke-width:1.0;" x1="315.5" x2="501.5" y1="171.4199" y2="171.4199"/><text fill="#000000" font-family="sans-serif" font-size="13" lengthAdjust="spacing" textLength="173" x="322.5" y="166.6777">getCertificationsBySocCode</text><polygon fill="#181818" points="604.5,181.4199,614.5,185.4199,604.5,189.4199,608.5,185.4199" style="stroke:#181818;stroke-width:1.0;"/><line style="stroke:#181818;stroke-width:1.0;" x1="517.5" x2="610.5" y1="185.4199" y2="185.4199"/><polygon fill="#181818" points="528.5,195.4199,518.5,199.4199,528.5,203.4199,524.5,199.4199" style="stroke:#181818;stroke-width:1.0;"/><line style="stroke:#181818;stroke-width:1.0;stroke-dasharray:2.0,2.0;" x1="522.5" x2="620.5" y1="199.4199" y2="199.4199"/><polygon fill="#181818" points="326.5,209.4199,316.5,213.4199,326.5,217.4199,322.5,213.4199" style="stroke:#181818;stroke-width:1.0;"/><line style="stroke:#181818;stroke-width:1.0;stroke-dasharray:2.0,2.0;" x1="320.5" x2="511.5" y1="213.4199" y2="213.4199"/><polygon fill="#181818" points="163.5,223.4199,153.5,227.4199,163.5,231.4199,159.5,227.4199" style="stroke:#181818;stroke-width:1.0;"/><line style="stroke:#181818;stroke-width:1.0;stroke-dasharray:2.0,2.0;" x1="157.5" x2="309.5" y1="227.4199" y2="227.4199"/><polygon fill="#181818" points="29.5,237.4199,19.5,241.4199,29.5,245.4199,25.5,241.4199" style="stroke:#181818;stroke-width:1.0;"/><line style="stroke:#181818;stroke-width:1.0;stroke-dasharray:2.0,2.0;" x1="23.5" x2="146.5" y1="241.4199" y2="241.4199"/><!--SRC=[XOyz3eCm38Ltdy8Nw0KwL6h3mjG1SG2Jk5Ka52DZaBWz6MWbA54d_tr-VgR9XBp5cOnH4a0kHB6jePCf1T857Ql5L_HaKPAJP2fzpme3vRwF0oNRCmth73sNWUh-X4167OsCrPO0j3LURgLpUCKtssuuGeazocoE_cjymAD0Tdos_5WQyKu2mm-T5RwVATkawJoi]--></g></svg>