<svg xmlns="http://www.w3.org/2000/svg" xmlns:xlink="http://www.w3.org/1999/xlink" contentStyleType="text/css" height="340px" preserveAspectRatio="none" style="width:631px;height:340px;background:#FFFFFF;" version="1.1" viewBox="0 0 631 340" width="631px" zoomAndPan="magnify"><defs/><g><rect fill="#FFFFFF" height="128.6211" style="stroke:#181818;stroke-width:1.0;" width="10" x="117" y="112.7988"/><rect fill="#FFFFFF" height="85.3105" style="stroke:#181818;stroke-width:1.0;" width="10" x="280" y="142.1094"/><rect fill="#FFFFFF" height="42" style="stroke:#181818;stroke-width:1.0;" width="10" x="482" y="171.4199"/><rect fill="#FFFFFF" height="14" style="stroke:#181818;stroke-width:1.0;" width="10" x="591" y="185.4199"/><line style="stroke:#181818;stroke-width:0.5;stroke-dasharray:5.0,5.0;" x1="18" x2="18" y1="81.4883" y2="259.4199"/><line style="stroke:#181818;stroke-width:0.5;stroke-dasharray:5.0,5.0;" x1="122" x2="122" y1="81.4883" y2="259.4199"/><line style="stroke:#181818;stroke-width:0.5;stroke-dasharray:5.0,5.0;" x1="285" x2="285" y1="81.4883" y2="259.4199"/><line style="stroke:#181818;stroke-width:0.5;stroke-dasharray:5.0,5.0;" x1="486.5" x2="486.5" y1="81.4883" y2="259.4199"/><line style="stroke:#181818;stroke-width:0.5;stroke-dasharray:5.0,5.0;" x1="595.5" x2="595.5" y1="81.4883" y2="259.4199"/><text fill="#000000" font-family="sans-serif" font-size="14" lengthAdjust="spacing" textLength="14" x="8.5" y="78.5352">UI</text><ellipse cx="18.5" cy="13.5" fill="#E2E2F0" rx="8" ry="8" style="stroke:#181818;stroke-width:0.5;"/><path d="M18.5,21.5 L18.5,48.5 M5.5,29.5 L31.5,29.5 M18.5,48.5 L5.5,63.5 M18.5,48.5 L31.5,63.5 " fill="none" style="stroke:#181818;stroke-width:0.5;"/><text fill="#000000" font-family="sans-serif" font-size="14" lengthAdjust="spacing" textLength="14" x="8.5" y="271.9551">UI</text><ellipse cx="18.5" cy="283.4082" fill="#E2E2F0" rx="8" ry="8" style="stroke:#181818;stroke-width:0.5;"/><path d="M18.5,291.4082 L18.5,318.4082 M5.5,299.4082 L31.5,299.4082 M18.5,318.4082 L5.5,333.4082 M18.5,318.4082 L31.5,333.4082 " fill="none" style="stroke:#181818;stroke-width:0.5;"/><text fill="#000000" font-family="sans-serif" font-size="14" lengthAdjust="spacing" textLength="154" x="42" y="78.5352">CertificationController</text><path d="M101.5,37 L101.5,61 M101.5,49 L118.5,49 " fill="none" style="stroke:#181818;stroke-width:0.5;"/><ellipse cx="130.5" cy="49" fill="#E2E2F0" rx="12" ry="12" style="stroke:#181818;stroke-width:0.5;"/><text fill="#000000" font-family="sans-serif" font-size="14" lengthAdjust="spacing" textLength="154" x="42" y="271.9551">CertificationController</text><path d="M101.5,278.9082 L101.5,302.9082 M101.5,290.9082 L118.5,290.9082 " fill="none" style="stroke:#181818;stroke-width:0.5;"/><ellipse cx="130.5" cy="290.9082" fill="#E2E2F0" rx="12" ry="12" style="stroke:#181818;stroke-width:0.5;"/><rect fill="#E2E2F0" height="30.4883" rx="2.5" ry="2.5" style="stroke:#181818;stroke-width:0.5;" width="146" x="212" y="50"/><text fill="#000000" font-family="sans-serif" font-size="14" lengthAdjust="spacing" textLength="132" x="219" y="70.5352">CertificationService</text><rect fill="#E2E2F0" height="30.4883" rx="2.5" ry="2.5" style="stroke:#181818;stroke-width:0.5;" width="146" x="212" y="258.4199"/><text fill="#000000" font-family="sans-serif" font-size="14" lengthAdjust="spacing" textLength="132" x="219" y="278.9551">CertificationService</text><rect fill="#E2E2F0" height="30.4883" rx="2.5" ry="2.5" style="stroke:#181818;stroke-width:0.5;" width="129" x="422.5" y="50"/><text fill="#000000" font-family="sans-serif" font-size="14" lengthAdjust="spacing" textLength="115" x="429.5" y="70.5352">CertificationDAO</text><rect fill="#E2E2F0" height="30.4883" rx="2.5" ry="2.5" style="stroke:#181818;stroke-width:0.5;" width="129" x="422.5" y="258.4199"/><text fill="#000000" font-family="sans-serif" font-size="14" lengthAdjust="spacing" textLength="115" x="429.5" y="278.9551">CertificationDAO</text><text fill="#000000" font-family="sans-serif" font-size="14" lengthAdjust="spacing" textLength="63" x="561.5" y="78.5352">Database</text><path d="M578,29 C578,19 596,19 596,19 C596,19 614,19 614,29 L614,55 C614,65 596,65 596,65 C596,65 578,65 578,55 L578,29 " fill="#E2E2F0" style="stroke:#181818;stroke-width:1.5;"/><path d="M578,29 C578,39 596,39 596,39 C596,39 614,39 614,29 " fill="none" style="stroke:#181818;stroke-width:1.5;"/><text fill="#000000" font-family="sans-serif" font-size="14" lengthAdjust="spacing" textLength="63" x="561.5" y="271.9551">Database</text><path d="M578,284.9082 C578,274.9082 596,274.9082 596,274.9082 C596,274.9082 614,274.9082 614,284.9082 L614,310.9082 C614,320.9082 596,320.9082 596,320.9082 C596,320.9082 578,320.9082 578,310.9082 L578,284.9082 " fill="#E2E2F0" style="stroke:#181818;stroke-width:1.5;"/><path d="M578,284.9082 C578,294.9082 596,294.9082 596,294.9082 C596,294.9082 614,294.9082 614,284.9082 " fill="none" style="stroke:#181818;stroke-width:1.5;"/><rect fill="#FFFFFF" height="128.6211" style="stroke:#181818;stroke-width:1.0;" width="10" x="117" y="112.7988"/><rect fill="#FFFFFF" height="85.3105" style="stroke:#181818;stroke-width:1.0;" width="10" x="280" y="142.1094"/><rect fill="#FFFFFF" height="42" style="stroke:#181818;stroke-width:1.0;" width="10" x="482" y="171.4199"/><rect fill="#FFFFFF" height="14" style="stroke:#181818;stroke-width:1.0;" width="10" x="591" y="185.4199"/><polygon fill="#181818" points="105,108.7988,115,112.7988,105,116.7988,109,112.7988" style="stroke:#181818;stroke-width:1.0;"/><line style="stroke:#181818;stroke-width:1.0;" x1="18.5" x2="111" y1="112.7988" y2="112.7988"/><text fill="#000000" font-family="sans-serif" font-size="13" lengthAdjust="spacing" textLength="54" x="25.5" y="108.0566">getNews</text><polygon fill="#181818" points="268,138.1094,278,142.1094,268,146.1094,272,142.1094" style="stroke:#181818;stroke-width:1.0;"/><line style="stroke:#181818;stroke-width:1.0;" x1="127" x2="274" y1="142.1094" y2="142.1094"/><text fill="#000000" font-family="sans-serif" font-size="13" lengthAdjust="spacing" textLength="54" x="134" y="137.3672">getNews</text><polygon fill="#181818" points="470,167.4199,480,171.4199,470,175.4199,474,171.4199" style="stroke:#181818;stroke-width:1.0;"/><line style="stroke:#181818;stroke-width:1.0;" x1="290" x2="476" y1="171.4199" y2="171.4199"/><text fill="#000000" font-family="sans-serif" font-size="13" lengthAdjust="spacing" textLength="173" x="297" y="166.6777">getCertificationsBySocCode</text><polygon fill="#181818" points="579,181.4199,589,185.4199,579,189.4199,583,185.4199" style="stroke:#181818;stroke-width:1.0;"/><line style="stroke:#181818;stroke-width:1.0;" x1="492" x2="585" y1="185.4199" y2="185.4199"/><polygon fill="#181818" points="503,195.4199,493,199.4199,503,203.4199,499,199.4199" style="stroke:#181818;stroke-width:1.0;"/><line style="stroke:#181818;stroke-width:1.0;stroke-dasharray:2.0,2.0;" x1="497" x2="595" y1="199.4199" y2="199.4199"/><polygon fill="#181818" points="301,209.4199,291,213.4199,301,217.4199,297,213.4199" style="stroke:#181818;stroke-width:1.0;"/><line style="stroke:#181818;stroke-width:1.0;stroke-dasharray:2.0,2.0;" x1="295" x2="486" y1="213.4199" y2="213.4199"/><polygon fill="#181818" points="138,223.4199,128,227.4199,138,231.4199,134,227.4199" style="stroke:#181818;stroke-width:1.0;"/><line style="stroke:#181818;stroke-width:1.0;stroke-dasharray:2.0,2.0;" x1="132" x2="284" y1="227.4199" y2="227.4199"/><polygon fill="#181818" points="29.5,237.4199,19.5,241.4199,29.5,245.4199,25.5,241.4199" style="stroke:#181818;stroke-width:1.0;"/><line style="stroke:#181818;stroke-width:1.0;stroke-dasharray:2.0,2.0;" x1="23.5" x2="121" y1="241.4199" y2="241.4199"/><!--SRC=[TOzD3e9038NtFKKlu0LSc2XisEY2S80oKyqaP4fA1yFjdKGq0PrLszVlzOUI2JaBCncZH81SY6BNG2yfUj85ArOBz-38WiHAegaC0okCb7KNHegsPLhMEJWk0_Nv1fwCUfeOwpK1w1eyd4hhy8WFjYi_9oWHU_DwHydvQUzj-RgtPQDEbwKLLubd-A7pXEyNofOq_Wyl]--></g></svg>