<?xml version="1.0" encoding="us-ascii" standalone="no"?><svg xmlns="http://www.w3.org/2000/svg" xmlns:xlink="http://www.w3.org/1999/xlink" contentStyleType="text/css" height="455px" preserveAspectRatio="none" style="width:984px;height:455px;background:#FFFFFF;" version="1.1" viewBox="0 0 984 455" width="984px" zoomAndPan="magnify"><defs/><g><rect fill="#FFFFFF" height="14" style="stroke:#181818;stroke-width:1.0;" width="10" x="39.5" y="185.4199"/><rect fill="#FFFFFF" height="243.2422" style="stroke:#181818;stroke-width:1.0;" width="10" x="193.5" y="112.7988"/><rect fill="#FFFFFF" height="199.9316" style="stroke:#181818;stroke-width:1.0;" width="10" x="345.5" y="142.1094"/><rect fill="#FFFFFF" height="42" style="stroke:#181818;stroke-width:1.0;" width="10" x="482.5" y="171.4199"/><rect fill="#FFFFFF" height="85.3105" style="stroke:#181818;stroke-width:1.0;" width="10" x="640.5" y="242.7305"/><rect fill="#FFFFFF" height="42" style="stroke:#181818;stroke-width:1.0;" width="10" x="819" y="272.041"/><rect fill="#FFFFFF" height="14" style="stroke:#181818;stroke-width:1.0;" width="10" x="943.5" y="286.041"/><line style="stroke:#181818;stroke-width:0.5;stroke-dasharray:5.0,5.0;" x1="44" x2="44" y1="81.4883" y2="374.041"/><line style="stroke:#181818;stroke-width:0.5;stroke-dasharray:5.0,5.0;" x1="198" x2="198" y1="81.4883" y2="374.041"/><line style="stroke:#181818;stroke-width:0.5;stroke-dasharray:5.0,5.0;" x1="350" x2="350" y1="81.4883" y2="374.041"/><line style="stroke:#181818;stroke-width:0.5;stroke-dasharray:5.0,5.0;" x1="487" x2="487" y1="81.4883" y2="374.041"/><line style="stroke:#181818;stroke-width:0.5;stroke-dasharray:5.0,5.0;" x1="645" x2="645" y1="81.4883" y2="374.041"/><line style="stroke:#181818;stroke-width:0.5;stroke-dasharray:5.0,5.0;" x1="824" x2="824" y1="81.4883" y2="374.041"/><line style="stroke:#181818;stroke-width:0.5;stroke-dasharray:5.0,5.0;" x1="948" x2="948" y1="81.4883" y2="374.041"/><text fill="#000000" font-family="sans-serif" font-size="14" lengthAdjust="spacing" textLength="73" x="5" y="78.5352">Contentful</text><ellipse cx="44.5" cy="13.5" fill="#E2E2F0" rx="8" ry="8" style="stroke:#181818;stroke-width:0.5;"/><path d="M44.5,21.5 L44.5,48.5 M31.5,29.5 L57.5,29.5 M44.5,48.5 L31.5,63.5 M44.5,48.5 L57.5,63.5 " fill="none" style="stroke:#181818;stroke-width:0.5;"/><text fill="#000000" font-family="sans-serif" font-size="14" lengthAdjust="spacing" textLength="73" x="5" y="386.5762">Contentful</text><ellipse cx="44.5" cy="398.0293" fill="#E2E2F0" rx="8" ry="8" style="stroke:#181818;stroke-width:0.5;"/><path d="M44.5,406.0293 L44.5,433.0293 M31.5,414.0293 L57.5,414.0293 M44.5,433.0293 L31.5,448.0293 M44.5,433.0293 L57.5,448.0293 " fill="none" style="stroke:#181818;stroke-width:0.5;"/><text fill="#000000" font-family="sans-serif" font-size="14" lengthAdjust="spacing" textLength="143" x="124" y="78.5352">ContentfulController</text><path d="M178,37 L178,61 M178,49 L195,49 " fill="none" style="stroke:#181818;stroke-width:0.5;"/><ellipse cx="207" cy="49" fill="#E2E2F0" rx="12" ry="12" style="stroke:#181818;stroke-width:0.5;"/><text fill="#000000" font-family="sans-serif" font-size="14" lengthAdjust="spacing" textLength="143" x="124" y="386.5762">ContentfulController</text><path d="M178,393.5293 L178,417.5293 M178,405.5293 L195,405.5293 " fill="none" style="stroke:#181818;stroke-width:0.5;"/><ellipse cx="207" cy="405.5293" fill="#E2E2F0" rx="12" ry="12" style="stroke:#181818;stroke-width:0.5;"/><rect fill="#E2E2F0" height="30.4883" rx="2.5" ry="2.5" style="stroke:#181818;stroke-width:0.5;" width="135" x="283" y="50"/><text fill="#000000" font-family="sans-serif" font-size="14" lengthAdjust="spacing" textLength="121" x="290" y="70.5352">ContentfulService</text><rect fill="#E2E2F0" height="30.4883" rx="2.5" ry="2.5" style="stroke:#181818;stroke-width:0.5;" width="135" x="283" y="373.041"/><text fill="#000000" font-family="sans-serif" font-size="14" lengthAdjust="spacing" textLength="121" x="290" y="393.5762">ContentfulService</text><text fill="#000000" font-family="sans-serif" font-size="14" lengthAdjust="spacing" textLength="113" x="428" y="78.5352">ContentfulClient</text><path d="M467,37 L467,61 M467,49 L484,49 " fill="none" style="stroke:#181818;stroke-width:0.5;"/><ellipse cx="496" cy="49" fill="#E2E2F0" rx="12" ry="12" style="stroke:#181818;stroke-width:0.5;"/><text fill="#000000" font-family="sans-serif" font-size="14" lengthAdjust="spacing" textLength="113" x="428" y="386.5762">ContentfulClient</text><path d="M467,393.5293 L467,417.5293 M467,405.5293 L484,405.5293 " fill="none" style="stroke:#181818;stroke-width:0.5;"/><ellipse cx="496" cy="405.5293" fill="#E2E2F0" rx="12" ry="12" style="stroke:#181818;stroke-width:0.5;"/><rect fill="#E2E2F0" height="30.4883" rx="2.5" ry="2.5" style="stroke:#181818;stroke-width:0.5;" width="177" x="557" y="50"/><text fill="#000000" font-family="sans-serif" font-size="14" lengthAdjust="spacing" textLength="163" x="564" y="70.5352">LearningMaterialService</text><rect fill="#E2E2F0" height="30.4883" rx="2.5" ry="2.5" style="stroke:#181818;stroke-width:0.5;" width="177" x="557" y="373.041"/><text fill="#000000" font-family="sans-serif" font-size="14" lengthAdjust="spacing" textLength="163" x="564" y="393.5762">LearningMaterialService</text><rect fill="#E2E2F0" height="30.4883" rx="2.5" ry="2.5" style="stroke:#181818;stroke-width:0.5;" width="160" x="744" y="50"/><text fill="#000000" font-family="sans-serif" font-size="14" lengthAdjust="spacing" textLength="146" x="751" y="70.5352">LearningMaterialDAO</text><rect fill="#E2E2F0" height="30.4883" rx="2.5" ry="2.5" style="stroke:#181818;stroke-width:0.5;" width="160" x="744" y="373.041"/><text fill="#000000" font-family="sans-serif" font-size="14" lengthAdjust="spacing" textLength="146" x="751" y="393.5762">LearningMaterialDAO</text><text fill="#000000" font-family="sans-serif" font-size="14" lengthAdjust="spacing" textLength="63" x="914" y="78.5352">Database</text><path d="M930.5,29 C930.5,19 948.5,19 948.5,19 C948.5,19 966.5,19 966.5,29 L966.5,55 C966.5,65 948.5,65 948.5,65 C948.5,65 930.5,65 930.5,55 L930.5,29 " fill="#E2E2F0" style="stroke:#181818;stroke-width:1.5;"/><path d="M930.5,29 C930.5,39 948.5,39 948.5,39 C948.5,39 966.5,39 966.5,29 " fill="none" style="stroke:#181818;stroke-width:1.5;"/><text fill="#000000" font-family="sans-serif" font-size="14" lengthAdjust="spacing" textLength="63" x="914" y="386.5762">Database</text><path d="M930.5,399.5293 C930.5,389.5293 948.5,389.5293 948.5,389.5293 C948.5,389.5293 966.5,389.5293 966.5,399.5293 L966.5,425.5293 C966.5,435.5293 948.5,435.5293 948.5,435.5293 C948.5,435.5293 930.5,435.5293 930.5,425.5293 L930.5,399.5293 " fill="#E2E2F0" style="stroke:#181818;stroke-width:1.5;"/><path d="M930.5,399.5293 C930.5,409.5293 948.5,409.5293 948.5,409.5293 C948.5,409.5293 966.5,409.5293 966.5,399.5293 " fill="none" style="stroke:#181818;stroke-width:1.5;"/><rect fill="#FFFFFF" height="14" style="stroke:#181818;stroke-width:1.0;" width="10" x="39.5" y="185.4199"/><rect fill="#FFFFFF" height="243.2422" style="stroke:#181818;stroke-width:1.0;" width="10" x="193.5" y="112.7988"/><rect fill="#FFFFFF" height="199.9316" style="stroke:#181818;stroke-width:1.0;" width="10" x="345.5" y="142.1094"/><rect fill="#FFFFFF" height="42" style="stroke:#181818;stroke-width:1.0;" width="10" x="482.5" y="171.4199"/><rect fill="#FFFFFF" height="85.3105" style="stroke:#181818;stroke-width:1.0;" width="10" x="640.5" y="242.7305"/><rect fill="#FFFFFF" height="42" style="stroke:#181818;stroke-width:1.0;" width="10" x="819" y="272.041"/><rect fill="#FFFFFF" height="14" style="stroke:#181818;stroke-width:1.0;" width="10" x="943.5" y="286.041"/><polygon fill="#181818" points="181.5,108.7988,191.5,112.7988,181.5,116.7988,185.5,112.7988" style="stroke:#181818;stroke-width:1.0;"/><line style="stroke:#181818;stroke-width:1.0;" x1="44.5" x2="187.5" y1="112.7988" y2="112.7988"/><text fill="#000000" font-family="sans-serif" font-size="13" lengthAdjust="spacing" textLength="130" x="51.5" y="108.0566">notifyEntryPublished</text><polygon fill="#181818" points="333.5,138.1094,343.5,142.1094,333.5,146.1094,337.5,142.1094" style="stroke:#181818;stroke-width:1.0;"/><line style="stroke:#181818;stroke-width:1.0;" x1="203.5" x2="339.5" y1="142.1094" y2="142.1094"/><text fill="#000000" font-family="sans-serif" font-size="13" lengthAdjust="spacing" textLength="53" x="210.5" y="137.3672">putEntry</text><polygon fill="#181818" points="470.5,167.4199,480.5,171.4199,470.5,175.4199,474.5,171.4199" style="stroke:#181818;stroke-width:1.0;"/><line style="stroke:#181818;stroke-width:1.0;" x1="355.5" x2="476.5" y1="171.4199" y2="171.4199"/><text fill="#000000" font-family="sans-serif" font-size="13" lengthAdjust="spacing" textLength="82" x="362.5" y="166.6777">fetchContent</text><polygon fill="#181818" points="60.5,181.4199,50.5,185.4199,60.5,189.4199,56.5,185.4199" style="stroke:#181818;stroke-width:1.0;"/><line style="stroke:#181818;stroke-width:1.0;" x1="54.5" x2="481.5" y1="185.4199" y2="185.4199"/><polygon fill="#181818" points="470.5,195.4199,480.5,199.4199,470.5,203.4199,474.5,199.4199" style="stroke:#181818;stroke-width:1.0;"/><line style="stroke:#181818;stroke-width:1.0;stroke-dasharray:2.0,2.0;" x1="44.5" x2="476.5" y1="199.4199" y2="199.4199"/><polygon fill="#181818" points="366.5,209.4199,356.5,213.4199,366.5,217.4199,362.5,213.4199" style="stroke:#181818;stroke-width:1.0;"/><line style="stroke:#181818;stroke-width:1.0;stroke-dasharray:2.0,2.0;" x1="360.5" x2="486.5" y1="213.4199" y2="213.4199"/><polygon fill="#181818" points="628.5,238.7305,638.5,242.7305,628.5,246.7305,632.5,242.7305" style="stroke:#181818;stroke-width:1.0;"/><line style="stroke:#181818;stroke-width:1.0;" x1="355.5" x2="634.5" y1="242.7305" y2="242.7305"/><text fill="#000000" font-family="sans-serif" font-size="13" lengthAdjust="spacing" textLength="147" x="362.5" y="237.9883">updateLearningMaterial</text><polygon fill="#181818" points="807,268.041,817,272.041,807,276.041,811,272.041" style="stroke:#181818;stroke-width:1.0;"/><line style="stroke:#181818;stroke-width:1.0;" x1="650.5" x2="813" y1="272.041" y2="272.041"/><text fill="#000000" font-family="sans-serif" font-size="13" lengthAdjust="spacing" textLength="28" x="657.5" y="267.2988">save</text><polygon fill="#181818" points="931.5,282.041,941.5,286.041,931.5,290.041,935.5,286.041" style="stroke:#181818;stroke-width:1.0;"/><line style="stroke:#181818;stroke-width:1.0;" x1="829" x2="937.5" y1="286.041" y2="286.041"/><polygon fill="#181818" points="840,296.041,830,300.041,840,304.041,836,300.041" style="stroke:#181818;stroke-width:1.0;"/><line style="stroke:#181818;stroke-width:1.0;stroke-dasharray:2.0,2.0;" x1="834" x2="947.5" y1="300.041" y2="300.041"/><polygon fill="#181818" points="661.5,310.041,651.5,314.041,661.5,318.041,657.5,314.041" style="stroke:#181818;stroke-width:1.0;"/><line style="stroke:#181818;stroke-width:1.0;stroke-dasharray:2.0,2.0;" x1="655.5" x2="823" y1="314.041" y2="314.041"/><polygon fill="#181818" points="366.5,324.041,356.5,328.041,366.5,332.041,362.5,328.041" style="stroke:#181818;stroke-width:1.0;"/><line style="stroke:#181818;stroke-width:1.0;stroke-dasharray:2.0,2.0;" x1="360.5" x2="644.5" y1="328.041" y2="328.041"/><polygon fill="#181818" points="214.5,338.041,204.5,342.041,214.5,346.041,210.5,342.041" style="stroke:#181818;stroke-width:1.0;"/><line style="stroke:#181818;stroke-width:1.0;stroke-dasharray:2.0,2.0;" x1="208.5" x2="349.5" y1="342.041" y2="342.041"/><polygon fill="#181818" points="55.5,352.041,45.5,356.041,55.5,360.041,51.5,356.041" style="stroke:#181818;stroke-width:1.0;"/><line style="stroke:#181818;stroke-width:1.0;stroke-dasharray:2.0,2.0;" x1="49.5" x2="197.5" y1="356.041" y2="356.041"/><!--SRC=[VL11Zi8m3Bpx5Vd0Ve33Igljta0WxGlSrWLBaLEvJgN-7eEwG23ioOx7CvuCPalO6Sze5980-2Df-4vY93Ra26tAqgCk3xDBfob6KXXHZJiUKUnXuPTqvewgtCZU5BmjeGhBSUSUbF76_c-d-Tf3ZuOjJXIQjG6utmaVdrN7OHCa6G_BZq-MGsuZJoVgeRfRQAosN63CTcN3ArXUlVxL2GDPTrhdy88N752ohF9NgXVU1EQ7ykYXq3CExmWLBG_MTIQS2MgGCsvfbqwhvGm0]--></g></svg>