<svg xmlns="http://www.w3.org/2000/svg" xmlns:xlink="http://www.w3.org/1999/xlink" contentStyleType="text/css" height="383px" preserveAspectRatio="none" style="width:865px;height:383px;background:#FFFFFF;" version="1.1" viewBox="0 0 865 383" width="865px" zoomAndPan="magnify"><defs/><g><rect fill="#FFFFFF" height="171.9316" style="stroke:#181818;stroke-width:1.0;" width="10" x="193.5" y="112.7988"/><rect fill="#FFFFFF" height="128.6211" style="stroke:#181818;stroke-width:1.0;" width="10" x="345.5" y="142.1094"/><rect fill="#FFFFFF" height="85.3105" style="stroke:#181818;stroke-width:1.0;" width="10" x="521.5" y="171.4199"/><rect fill="#FFFFFF" height="42" style="stroke:#181818;stroke-width:1.0;" width="10" x="700" y="200.7305"/><rect fill="#FFFFFF" height="14" style="stroke:#181818;stroke-width:1.0;" width="10" x="824.5" y="214.7305"/><line style="stroke:#181818;stroke-width:0.5;stroke-dasharray:5.0,5.0;" x1="44" x2="44" y1="81.4883" y2="302.7305"/><line style="stroke:#181818;stroke-width:0.5;stroke-dasharray:5.0,5.0;" x1="198" x2="198" y1="81.4883" y2="302.7305"/><line style="stroke:#181818;stroke-width:0.5;stroke-dasharray:5.0,5.0;" x1="350" x2="350" y1="81.4883" y2="302.7305"/><line style="stroke:#181818;stroke-width:0.5;stroke-dasharray:5.0,5.0;" x1="526" x2="526" y1="81.4883" y2="302.7305"/><line style="stroke:#181818;stroke-width:0.5;stroke-dasharray:5.0,5.0;" x1="705" x2="705" y1="81.4883" y2="302.7305"/><line style="stroke:#181818;stroke-width:0.5;stroke-dasharray:5.0,5.0;" x1="829" x2="829" y1="81.4883" y2="302.7305"/><text fill="#000000" font-family="sans-serif" font-size="14" lengthAdjust="spacing" textLength="73" x="5" y="78.5352">Contentful</text><ellipse cx="44.5" cy="13.5" fill="#E2E2F0" rx="8" ry="8" style="stroke:#181818;stroke-width:0.5;"/><path d="M44.5,21.5 L44.5,48.5 M31.5,29.5 L57.5,29.5 M44.5,48.5 L31.5,63.5 M44.5,48.5 L57.5,63.5 " fill="none" style="stroke:#181818;stroke-width:0.5;"/><text fill="#000000" font-family="sans-serif" font-size="14" lengthAdjust="spacing" textLength="73" x="5" y="315.2656">Contentful</text><ellipse cx="44.5" cy="326.7188" fill="#E2E2F0" rx="8" ry="8" style="stroke:#181818;stroke-width:0.5;"/><path d="M44.5,334.7188 L44.5,361.7188 M31.5,342.7188 L57.5,342.7188 M44.5,361.7188 L31.5,376.7188 M44.5,361.7188 L57.5,376.7188 " fill="none" style="stroke:#181818;stroke-width:0.5;"/><text fill="#000000" font-family="sans-serif" font-size="14" lengthAdjust="spacing" textLength="143" x="124" y="78.5352">ContentfulController</text><path d="M178,37 L178,61 M178,49 L195,49 " fill="none" style="stroke:#181818;stroke-width:0.5;"/><ellipse cx="207" cy="49" fill="#E2E2F0" rx="12" ry="12" style="stroke:#181818;stroke-width:0.5;"/><text fill="#000000" font-family="sans-serif" font-size="14" lengthAdjust="spacing" textLength="143" x="124" y="315.2656">ContentfulController</text><path d="M178,322.2188 L178,346.2188 M178,334.2188 L195,334.2188 " fill="none" style="stroke:#181818;stroke-width:0.5;"/><ellipse cx="207" cy="334.2188" fill="#E2E2F0" rx="12" ry="12" style="stroke:#181818;stroke-width:0.5;"/><rect fill="#E2E2F0" height="30.4883" rx="2.5" ry="2.5" style="stroke:#181818;stroke-width:0.5;" width="135" x="283" y="50"/><text fill="#000000" font-family="sans-serif" font-size="14" lengthAdjust="spacing" textLength="121" x="290" y="70.5352">ContentfulService</text><rect fill="#E2E2F0" height="30.4883" rx="2.5" ry="2.5" style="stroke:#181818;stroke-width:0.5;" width="135" x="283" y="301.7305"/><text fill="#000000" font-family="sans-serif" font-size="14" lengthAdjust="spacing" textLength="121" x="290" y="322.2656">ContentfulService</text><rect fill="#E2E2F0" height="30.4883" rx="2.5" ry="2.5" style="stroke:#181818;stroke-width:0.5;" width="177" x="438" y="50"/><text fill="#000000" font-family="sans-serif" font-size="14" lengthAdjust="spacing" textLength="163" x="445" y="70.5352">LearningMaterialService</text><rect fill="#E2E2F0" height="30.4883" rx="2.5" ry="2.5" style="stroke:#181818;stroke-width:0.5;" width="177" x="438" y="301.7305"/><text fill="#000000" font-family="sans-serif" font-size="14" lengthAdjust="spacing" textLength="163" x="445" y="322.2656">LearningMaterialService</text><rect fill="#E2E2F0" height="30.4883" rx="2.5" ry="2.5" style="stroke:#181818;stroke-width:0.5;" width="160" x="625" y="50"/><text fill="#000000" font-family="sans-serif" font-size="14" lengthAdjust="spacing" textLength="146" x="632" y="70.5352">LearningMaterialDAO</text><rect fill="#E2E2F0" height="30.4883" rx="2.5" ry="2.5" style="stroke:#181818;stroke-width:0.5;" width="160" x="625" y="301.7305"/><text fill="#000000" font-family="sans-serif" font-size="14" lengthAdjust="spacing" textLength="146" x="632" y="322.2656">LearningMaterialDAO</text><text fill="#000000" font-family="sans-serif" font-size="14" lengthAdjust="spacing" textLength="63" x="795" y="78.5352">Database</text><path d="M811.5,29 C811.5,19 829.5,19 829.5,19 C829.5,19 847.5,19 847.5,29 L847.5,55 C847.5,65 829.5,65 829.5,65 C829.5,65 811.5,65 811.5,55 L811.5,29 " fill="#E2E2F0" style="stroke:#181818;stroke-width:1.5;"/><path d="M811.5,29 C811.5,39 829.5,39 829.5,39 C829.5,39 847.5,39 847.5,29 " fill="none" style="stroke:#181818;stroke-width:1.5;"/><text fill="#000000" font-family="sans-serif" font-size="14" lengthAdjust="spacing" textLength="63" x="795" y="315.2656">Database</text><path d="M811.5,328.2188 C811.5,318.2188 829.5,318.2188 829.5,318.2188 C829.5,318.2188 847.5,318.2188 847.5,328.2188 L847.5,354.2188 C847.5,364.2188 829.5,364.2188 829.5,364.2188 C829.5,364.2188 811.5,364.2188 811.5,354.2188 L811.5,328.2188 " fill="#E2E2F0" style="stroke:#181818;stroke-width:1.5;"/><path d="M811.5,328.2188 C811.5,338.2188 829.5,338.2188 829.5,338.2188 C829.5,338.2188 847.5,338.2188 847.5,328.2188 " fill="none" style="stroke:#181818;stroke-width:1.5;"/><rect fill="#FFFFFF" height="171.9316" style="stroke:#181818;stroke-width:1.0;" width="10" x="193.5" y="112.7988"/><rect fill="#FFFFFF" height="128.6211" style="stroke:#181818;stroke-width:1.0;" width="10" x="345.5" y="142.1094"/><rect fill="#FFFFFF" height="85.3105" style="stroke:#181818;stroke-width:1.0;" width="10" x="521.5" y="171.4199"/><rect fill="#FFFFFF" height="42" style="stroke:#181818;stroke-width:1.0;" width="10" x="700" y="200.7305"/><rect fill="#FFFFFF" height="14" style="stroke:#181818;stroke-width:1.0;" width="10" x="824.5" y="214.7305"/><polygon fill="#181818" points="181.5,108.7988,191.5,112.7988,181.5,116.7988,185.5,112.7988" style="stroke:#181818;stroke-width:1.0;"/><line style="stroke:#181818;stroke-width:1.0;" x1="44.5" x2="187.5" y1="112.7988" y2="112.7988"/><text fill="#000000" font-family="sans-serif" font-size="13" lengthAdjust="spacing" textLength="130" x="51.5" y="108.0566">notifyEntryPublished</text><polygon fill="#181818" points="333.5,138.1094,343.5,142.1094,333.5,146.1094,337.5,142.1094" style="stroke:#181818;stroke-width:1.0;"/><line style="stroke:#181818;stroke-width:1.0;" x1="203.5" x2="339.5" y1="142.1094" y2="142.1094"/><text fill="#000000" font-family="sans-serif" font-size="13" lengthAdjust="spacing" textLength="53" x="210.5" y="137.3672">putEntry</text><polygon fill="#181818" points="509.5,167.4199,519.5,171.4199,509.5,175.4199,513.5,171.4199" style="stroke:#181818;stroke-width:1.0;"/><line style="stroke:#181818;stroke-width:1.0;" x1="355.5" x2="515.5" y1="171.4199" y2="171.4199"/><text fill="#000000" font-family="sans-serif" font-size="13" lengthAdjust="spacing" textLength="147" x="362.5" y="166.6777">updateLearningMaterial</text><polygon fill="#181818" points="688,196.7305,698,200.7305,688,204.7305,692,200.7305" style="stroke:#181818;stroke-width:1.0;"/><line style="stroke:#181818;stroke-width:1.0;" x1="531.5" x2="694" y1="200.7305" y2="200.7305"/><text fill="#000000" font-family="sans-serif" font-size="13" lengthAdjust="spacing" textLength="28" x="538.5" y="195.9883">save</text><polygon fill="#181818" points="812.5,210.7305,822.5,214.7305,812.5,218.7305,816.5,214.7305" style="stroke:#181818;stroke-width:1.0;"/><line style="stroke:#181818;stroke-width:1.0;" x1="710" x2="818.5" y1="214.7305" y2="214.7305"/><polygon fill="#181818" points="721,224.7305,711,228.7305,721,232.7305,717,228.7305" style="stroke:#181818;stroke-width:1.0;"/><line style="stroke:#181818;stroke-width:1.0;stroke-dasharray:2.0,2.0;" x1="715" x2="828.5" y1="228.7305" y2="228.7305"/><polygon fill="#181818" points="542.5,238.7305,532.5,242.7305,542.5,246.7305,538.5,242.7305" style="stroke:#181818;stroke-width:1.0;"/><line style="stroke:#181818;stroke-width:1.0;stroke-dasharray:2.0,2.0;" x1="536.5" x2="704" y1="242.7305" y2="242.7305"/><polygon fill="#181818" points="366.5,252.7305,356.5,256.7305,366.5,260.7305,362.5,256.7305" style="stroke:#181818;stroke-width:1.0;"/><line style="stroke:#181818;stroke-width:1.0;stroke-dasharray:2.0,2.0;" x1="360.5" x2="525.5" y1="256.7305" y2="256.7305"/><polygon fill="#181818" points="214.5,266.7305,204.5,270.7305,214.5,274.7305,210.5,270.7305" style="stroke:#181818;stroke-width:1.0;"/><line style="stroke:#181818;stroke-width:1.0;stroke-dasharray:2.0,2.0;" x1="208.5" x2="349.5" y1="270.7305" y2="270.7305"/><polygon fill="#181818" points="55.5,280.7305,45.5,284.7305,55.5,288.7305,51.5,284.7305" style="stroke:#181818;stroke-width:1.0;"/><line style="stroke:#181818;stroke-width:1.0;stroke-dasharray:2.0,2.0;" x1="49.5" x2="197.5" y1="284.7305" y2="284.7305"/><!--SRC=[ZL1T2i8m37xFANe1B-238CutHS4JP5kcXP6MB1tizaOPkcadFZNDzvClmQG1A_KzAhd00FO9udQ1bLYRr48P4jSemwJtg2IqBGb45FMLZyWw8Ln8Ub_H33qG2dk-7csIUFoBKsnFKADYYHsvOYm0teFSQfFDvTQEW_fcs5jdEAUozTsDQiXoPnvZB3E8IPzg-0PDiR2EwLAqoFI9mv8WusLhcq-7FK4ECiNh5aAQX7y-Tm00]--></g></svg>