<svg xmlns="http://www.w3.org/2000/svg" xmlns:xlink="http://www.w3.org/1999/xlink" contentStyleType="text/css" height="383px" preserveAspectRatio="none" style="width:878px;height:383px;background:#FFFFFF;" version="1.1" viewBox="0 0 878 383" width="878px" zoomAndPan="magnify"><defs/><g><rect fill="#FFFFFF" height="171.9316" style="stroke:#181818;stroke-width:1.0;" width="10" x="211.5" y="112.7988"/><rect fill="#FFFFFF" height="128.6211" style="stroke:#181818;stroke-width:1.0;" width="10" x="363.5" y="142.1094"/><rect fill="#FFFFFF" height="85.3105" style="stroke:#181818;stroke-width:1.0;" width="10" x="534.5" y="171.4199"/><rect fill="#FFFFFF" height="42" style="stroke:#181818;stroke-width:1.0;" width="10" x="713" y="200.7305"/><rect fill="#FFFFFF" height="14" style="stroke:#181818;stroke-width:1.0;" width="10" x="837.5" y="214.7305"/><line style="stroke:#181818;stroke-width:0.5;stroke-dasharray:5.0,5.0;" x1="44" x2="44" y1="81.4883" y2="302.7305"/><line style="stroke:#181818;stroke-width:0.5;stroke-dasharray:5.0,5.0;" x1="216" x2="216" y1="81.4883" y2="302.7305"/><line style="stroke:#181818;stroke-width:0.5;stroke-dasharray:5.0,5.0;" x1="368" x2="368" y1="81.4883" y2="302.7305"/><line style="stroke:#181818;stroke-width:0.5;stroke-dasharray:5.0,5.0;" x1="539" x2="539" y1="81.4883" y2="302.7305"/><line style="stroke:#181818;stroke-width:0.5;stroke-dasharray:5.0,5.0;" x1="718" x2="718" y1="81.4883" y2="302.7305"/><line style="stroke:#181818;stroke-width:0.5;stroke-dasharray:5.0,5.0;" x1="842" x2="842" y1="81.4883" y2="302.7305"/><text fill="#000000" font-family="sans-serif" font-size="14" lengthAdjust="spacing" textLength="73" x="5" y="78.5352">Contentful</text><ellipse cx="44.5" cy="13.5" fill="#E2E2F0" rx="8" ry="8" style="stroke:#181818;stroke-width:0.5;"/><path d="M44.5,21.5 L44.5,48.5 M31.5,29.5 L57.5,29.5 M44.5,48.5 L31.5,63.5 M44.5,48.5 L57.5,63.5 " fill="none" style="stroke:#181818;stroke-width:0.5;"/><text fill="#000000" font-family="sans-serif" font-size="14" lengthAdjust="spacing" textLength="73" x="5" y="315.2656">Contentful</text><ellipse cx="44.5" cy="326.7188" fill="#E2E2F0" rx="8" ry="8" style="stroke:#181818;stroke-width:0.5;"/><path d="M44.5,334.7188 L44.5,361.7188 M31.5,342.7188 L57.5,342.7188 M44.5,361.7188 L31.5,376.7188 M44.5,361.7188 L57.5,376.7188 " fill="none" style="stroke:#181818;stroke-width:0.5;"/><text fill="#000000" font-family="sans-serif" font-size="14" lengthAdjust="spacing" textLength="143" x="142" y="78.5352">ContentfulController</text><path d="M196,37 L196,61 M196,49 L213,49 " fill="none" style="stroke:#181818;stroke-width:0.5;"/><ellipse cx="225" cy="49" fill="#E2E2F0" rx="12" ry="12" style="stroke:#181818;stroke-width:0.5;"/><text fill="#000000" font-family="sans-serif" font-size="14" lengthAdjust="spacing" textLength="143" x="142" y="315.2656">ContentfulController</text><path d="M196,322.2188 L196,346.2188 M196,334.2188 L213,334.2188 " fill="none" style="stroke:#181818;stroke-width:0.5;"/><ellipse cx="225" cy="334.2188" fill="#E2E2F0" rx="12" ry="12" style="stroke:#181818;stroke-width:0.5;"/><rect fill="#E2E2F0" height="30.4883" rx="2.5" ry="2.5" style="stroke:#181818;stroke-width:0.5;" width="135" x="301" y="50"/><text fill="#000000" font-family="sans-serif" font-size="14" lengthAdjust="spacing" textLength="121" x="308" y="70.5352">ContentfulService</text><rect fill="#E2E2F0" height="30.4883" rx="2.5" ry="2.5" style="stroke:#181818;stroke-width:0.5;" width="135" x="301" y="301.7305"/><text fill="#000000" font-family="sans-serif" font-size="14" lengthAdjust="spacing" textLength="121" x="308" y="322.2656">ContentfulService</text><rect fill="#E2E2F0" height="30.4883" rx="2.5" ry="2.5" style="stroke:#181818;stroke-width:0.5;" width="177" x="451" y="50"/><text fill="#000000" font-family="sans-serif" font-size="14" lengthAdjust="spacing" textLength="163" x="458" y="70.5352">LearningMaterialService</text><rect fill="#E2E2F0" height="30.4883" rx="2.5" ry="2.5" style="stroke:#181818;stroke-width:0.5;" width="177" x="451" y="301.7305"/><text fill="#000000" font-family="sans-serif" font-size="14" lengthAdjust="spacing" textLength="163" x="458" y="322.2656">LearningMaterialService</text><rect fill="#E2E2F0" height="30.4883" rx="2.5" ry="2.5" style="stroke:#181818;stroke-width:0.5;" width="160" x="638" y="50"/><text fill="#000000" font-family="sans-serif" font-size="14" lengthAdjust="spacing" textLength="146" x="645" y="70.5352">LearningMaterialDAO</text><rect fill="#E2E2F0" height="30.4883" rx="2.5" ry="2.5" style="stroke:#181818;stroke-width:0.5;" width="160" x="638" y="301.7305"/><text fill="#000000" font-family="sans-serif" font-size="14" lengthAdjust="spacing" textLength="146" x="645" y="322.2656">LearningMaterialDAO</text><text fill="#000000" font-family="sans-serif" font-size="14" lengthAdjust="spacing" textLength="63" x="808" y="78.5352">Database</text><path d="M824.5,29 C824.5,19 842.5,19 842.5,19 C842.5,19 860.5,19 860.5,29 L860.5,55 C860.5,65 842.5,65 842.5,65 C842.5,65 824.5,65 824.5,55 L824.5,29 " fill="#E2E2F0" style="stroke:#181818;stroke-width:1.5;"/><path d="M824.5,29 C824.5,39 842.5,39 842.5,39 C842.5,39 860.5,39 860.5,29 " fill="none" style="stroke:#181818;stroke-width:1.5;"/><text fill="#000000" font-family="sans-serif" font-size="14" lengthAdjust="spacing" textLength="63" x="808" y="315.2656">Database</text><path d="M824.5,328.2188 C824.5,318.2188 842.5,318.2188 842.5,318.2188 C842.5,318.2188 860.5,318.2188 860.5,328.2188 L860.5,354.2188 C860.5,364.2188 842.5,364.2188 842.5,364.2188 C842.5,364.2188 824.5,364.2188 824.5,354.2188 L824.5,328.2188 " fill="#E2E2F0" style="stroke:#181818;stroke-width:1.5;"/><path d="M824.5,328.2188 C824.5,338.2188 842.5,338.2188 842.5,338.2188 C842.5,338.2188 860.5,338.2188 860.5,328.2188 " fill="none" style="stroke:#181818;stroke-width:1.5;"/><rect fill="#FFFFFF" height="171.9316" style="stroke:#181818;stroke-width:1.0;" width="10" x="211.5" y="112.7988"/><rect fill="#FFFFFF" height="128.6211" style="stroke:#181818;stroke-width:1.0;" width="10" x="363.5" y="142.1094"/><rect fill="#FFFFFF" height="85.3105" style="stroke:#181818;stroke-width:1.0;" width="10" x="534.5" y="171.4199"/><rect fill="#FFFFFF" height="42" style="stroke:#181818;stroke-width:1.0;" width="10" x="713" y="200.7305"/><rect fill="#FFFFFF" height="14" style="stroke:#181818;stroke-width:1.0;" width="10" x="837.5" y="214.7305"/><polygon fill="#181818" points="199.5,108.7988,209.5,112.7988,199.5,116.7988,203.5,112.7988" style="stroke:#181818;stroke-width:1.0;"/><line style="stroke:#181818;stroke-width:1.0;" x1="44.5" x2="205.5" y1="112.7988" y2="112.7988"/><text fill="#000000" font-family="sans-serif" font-size="13" lengthAdjust="spacing" textLength="148" x="51.5" y="108.0566">notifyEntryUnpublished</text><polygon fill="#181818" points="351.5,138.1094,361.5,142.1094,351.5,146.1094,355.5,142.1094" style="stroke:#181818;stroke-width:1.0;"/><line style="stroke:#181818;stroke-width:1.0;" x1="221.5" x2="357.5" y1="142.1094" y2="142.1094"/><text fill="#000000" font-family="sans-serif" font-size="13" lengthAdjust="spacing" textLength="78" x="228.5" y="137.3672">removeEntry</text><polygon fill="#181818" points="522.5,167.4199,532.5,171.4199,522.5,175.4199,526.5,171.4199" style="stroke:#181818;stroke-width:1.0;"/><line style="stroke:#181818;stroke-width:1.0;" x1="373.5" x2="528.5" y1="171.4199" y2="171.4199"/><text fill="#000000" font-family="sans-serif" font-size="13" lengthAdjust="spacing" textLength="142" x="380.5" y="166.6777">deleteLearningMaterial</text><polygon fill="#181818" points="701,196.7305,711,200.7305,701,204.7305,705,200.7305" style="stroke:#181818;stroke-width:1.0;"/><line style="stroke:#181818;stroke-width:1.0;" x1="544.5" x2="707" y1="200.7305" y2="200.7305"/><text fill="#000000" font-family="sans-serif" font-size="13" lengthAdjust="spacing" textLength="64" x="551.5" y="195.9883">deleteById</text><polygon fill="#181818" points="825.5,210.7305,835.5,214.7305,825.5,218.7305,829.5,214.7305" style="stroke:#181818;stroke-width:1.0;"/><line style="stroke:#181818;stroke-width:1.0;" x1="723" x2="831.5" y1="214.7305" y2="214.7305"/><polygon fill="#181818" points="734,224.7305,724,228.7305,734,232.7305,730,228.7305" style="stroke:#181818;stroke-width:1.0;"/><line style="stroke:#181818;stroke-width:1.0;stroke-dasharray:2.0,2.0;" x1="728" x2="841.5" y1="228.7305" y2="228.7305"/><polygon fill="#181818" points="555.5,238.7305,545.5,242.7305,555.5,246.7305,551.5,242.7305" style="stroke:#181818;stroke-width:1.0;"/><line style="stroke:#181818;stroke-width:1.0;stroke-dasharray:2.0,2.0;" x1="549.5" x2="717" y1="242.7305" y2="242.7305"/><polygon fill="#181818" points="384.5,252.7305,374.5,256.7305,384.5,260.7305,380.5,256.7305" style="stroke:#181818;stroke-width:1.0;"/><line style="stroke:#181818;stroke-width:1.0;stroke-dasharray:2.0,2.0;" x1="378.5" x2="538.5" y1="256.7305" y2="256.7305"/><polygon fill="#181818" points="232.5,266.7305,222.5,270.7305,232.5,274.7305,228.5,270.7305" style="stroke:#181818;stroke-width:1.0;"/><line style="stroke:#181818;stroke-width:1.0;stroke-dasharray:2.0,2.0;" x1="226.5" x2="367.5" y1="270.7305" y2="270.7305"/><polygon fill="#181818" points="55.5,280.7305,45.5,284.7305,55.5,288.7305,51.5,284.7305" style="stroke:#181818;stroke-width:1.0;"/><line style="stroke:#181818;stroke-width:1.0;stroke-dasharray:2.0,2.0;" x1="49.5" x2="215.5" y1="284.7305" y2="284.7305"/><!--SRC=[ZL1B2i903Dtd57C1B-12KEj2K5o81qWxgGwCcP9c2hszevJQQYkkydcVV31gm49TWqecC40gWfXjO2NMCdh8GsIBqWvwpqo2zoHGeQWhN8Mi0yAPf745ZT03eR3Zwp5D4eT_SRBr2ImgvbYJoRe4u3t8B5QJUvcbuQ2kR7UfqrwuYhbtzOqiJB97BjrYoKBe7XfwMS0tdaGpDoMf9KzAdpZC2IQyqkszpwRTMvWY95t_5Y6DmZ_30m00]--></g></svg>