<svg xmlns="http://www.w3.org/2000/svg" xmlns:xlink="http://www.w3.org/1999/xlink" contentStyleType="text/css" height="340px" preserveAspectRatio="none" style="width:501px;height:340px;background:#FFFFFF;" version="1.1" viewBox="0 0 501 340" width="501px" zoomAndPan="magnify"><defs/><g><rect fill="#FFFFFF" height="128.6211" style="stroke:#181818;stroke-width:1.0;" width="10" x="108.5" y="112.7988"/><rect fill="#FFFFFF" height="85.3105" style="stroke:#181818;stroke-width:1.0;" width="10" x="244.5" y="142.1094"/><rect fill="#FFFFFF" height="42" style="stroke:#181818;stroke-width:1.0;" width="10" x="365" y="171.4199"/><rect fill="#FFFFFF" height="14" style="stroke:#181818;stroke-width:1.0;" width="10" x="460.5" y="185.4199"/><line style="stroke:#181818;stroke-width:0.5;stroke-dasharray:5.0,5.0;" x1="18" x2="18" y1="81.4883" y2="259.4199"/><line style="stroke:#181818;stroke-width:0.5;stroke-dasharray:5.0,5.0;" x1="113" x2="113" y1="81.4883" y2="259.4199"/><line style="stroke:#181818;stroke-width:0.5;stroke-dasharray:5.0,5.0;" x1="249" x2="249" y1="81.4883" y2="259.4199"/><line style="stroke:#181818;stroke-width:0.5;stroke-dasharray:5.0,5.0;" x1="370" x2="370" y1="81.4883" y2="259.4199"/><line style="stroke:#181818;stroke-width:0.5;stroke-dasharray:5.0,5.0;" x1="465" x2="465" y1="81.4883" y2="259.4199"/><text fill="#000000" font-family="sans-serif" font-size="14" lengthAdjust="spacing" textLength="14" x="8.5" y="78.5352">UI</text><ellipse cx="18.5" cy="13.5" fill="#E2E2F0" rx="8" ry="8" style="stroke:#181818;stroke-width:0.5;"/><path d="M18.5,21.5 L18.5,48.5 M5.5,29.5 L31.5,29.5 M18.5,48.5 L5.5,63.5 M18.5,48.5 L31.5,63.5 " fill="none" style="stroke:#181818;stroke-width:0.5;"/><text fill="#000000" font-family="sans-serif" font-size="14" lengthAdjust="spacing" textLength="14" x="8.5" y="271.9551">UI</text><ellipse cx="18.5" cy="283.4082" fill="#E2E2F0" rx="8" ry="8" style="stroke:#181818;stroke-width:0.5;"/><path d="M18.5,291.4082 L18.5,318.4082 M5.5,299.4082 L31.5,299.4082 M18.5,318.4082 L5.5,333.4082 M18.5,318.4082 L31.5,333.4082 " fill="none" style="stroke:#181818;stroke-width:0.5;"/><text fill="#000000" font-family="sans-serif" font-size="14" lengthAdjust="spacing" textLength="127" x="47" y="78.5352">DemandController</text><path d="M93,37 L93,61 M93,49 L110,49 " fill="none" style="stroke:#181818;stroke-width:0.5;"/><ellipse cx="122" cy="49" fill="#E2E2F0" rx="12" ry="12" style="stroke:#181818;stroke-width:0.5;"/><text fill="#000000" font-family="sans-serif" font-size="14" lengthAdjust="spacing" textLength="127" x="47" y="271.9551">DemandController</text><path d="M93,278.9082 L93,302.9082 M93,290.9082 L110,290.9082 " fill="none" style="stroke:#181818;stroke-width:0.5;"/><ellipse cx="122" cy="290.9082" fill="#E2E2F0" rx="12" ry="12" style="stroke:#181818;stroke-width:0.5;"/><rect fill="#E2E2F0" height="30.4883" rx="2.5" ry="2.5" style="stroke:#181818;stroke-width:0.5;" width="119" x="190" y="50"/><text fill="#000000" font-family="sans-serif" font-size="14" lengthAdjust="spacing" textLength="105" x="197" y="70.5352">DemandService</text><rect fill="#E2E2F0" height="30.4883" rx="2.5" ry="2.5" style="stroke:#181818;stroke-width:0.5;" width="119" x="190" y="258.4199"/><text fill="#000000" font-family="sans-serif" font-size="14" lengthAdjust="spacing" textLength="105" x="197" y="278.9551">DemandService</text><rect fill="#E2E2F0" height="30.4883" rx="2.5" ry="2.5" style="stroke:#181818;stroke-width:0.5;" width="102" x="319" y="50"/><text fill="#000000" font-family="sans-serif" font-size="14" lengthAdjust="spacing" textLength="88" x="326" y="70.5352">DemandDAO</text><rect fill="#E2E2F0" height="30.4883" rx="2.5" ry="2.5" style="stroke:#181818;stroke-width:0.5;" width="102" x="319" y="258.4199"/><text fill="#000000" font-family="sans-serif" font-size="14" lengthAdjust="spacing" textLength="88" x="326" y="278.9551">DemandDAO</text><text fill="#000000" font-family="sans-serif" font-size="14" lengthAdjust="spacing" textLength="63" x="431" y="78.5352">Database</text><path d="M447.5,29 C447.5,19 465.5,19 465.5,19 C465.5,19 483.5,19 483.5,29 L483.5,55 C483.5,65 465.5,65 465.5,65 C465.5,65 447.5,65 447.5,55 L447.5,29 " fill="#E2E2F0" style="stroke:#181818;stroke-width:1.5;"/><path d="M447.5,29 C447.5,39 465.5,39 465.5,39 C465.5,39 483.5,39 483.5,29 " fill="none" style="stroke:#181818;stroke-width:1.5;"/><text fill="#000000" font-family="sans-serif" font-size="14" lengthAdjust="spacing" textLength="63" x="431" y="271.9551">Database</text><path d="M447.5,284.9082 C447.5,274.9082 465.5,274.9082 465.5,274.9082 C465.5,274.9082 483.5,274.9082 483.5,284.9082 L483.5,310.9082 C483.5,320.9082 465.5,320.9082 465.5,320.9082 C465.5,320.9082 447.5,320.9082 447.5,310.9082 L447.5,284.9082 " fill="#E2E2F0" style="stroke:#181818;stroke-width:1.5;"/><path d="M447.5,284.9082 C447.5,294.9082 465.5,294.9082 465.5,294.9082 C465.5,294.9082 483.5,294.9082 483.5,284.9082 " fill="none" style="stroke:#181818;stroke-width:1.5;"/><rect fill="#FFFFFF" height="128.6211" style="stroke:#181818;stroke-width:1.0;" width="10" x="108.5" y="112.7988"/><rect fill="#FFFFFF" height="85.3105" style="stroke:#181818;stroke-width:1.0;" width="10" x="244.5" y="142.1094"/><rect fill="#FFFFFF" height="42" style="stroke:#181818;stroke-width:1.0;" width="10" x="365" y="171.4199"/><rect fill="#FFFFFF" height="14" style="stroke:#181818;stroke-width:1.0;" width="10" x="460.5" y="185.4199"/><polygon fill="#181818" points="96.5,108.7988,106.5,112.7988,96.5,116.7988,100.5,112.7988" style="stroke:#181818;stroke-width:1.0;"/><line style="stroke:#181818;stroke-width:1.0;" x1="18.5" x2="102.5" y1="112.7988" y2="112.7988"/><text fill="#000000" font-family="sans-serif" font-size="13" lengthAdjust="spacing" textLength="71" x="25.5" y="108.0566">setDemand</text><polygon fill="#181818" points="232.5,138.1094,242.5,142.1094,232.5,146.1094,236.5,142.1094" style="stroke:#181818;stroke-width:1.0;"/><line style="stroke:#181818;stroke-width:1.0;" x1="118.5" x2="238.5" y1="142.1094" y2="142.1094"/><text fill="#000000" font-family="sans-serif" font-size="13" lengthAdjust="spacing" textLength="71" x="125.5" y="137.3672">setDemand</text><polygon fill="#181818" points="353,167.4199,363,171.4199,353,175.4199,357,171.4199" style="stroke:#181818;stroke-width:1.0;"/><line style="stroke:#181818;stroke-width:1.0;" x1="254.5" x2="359" y1="171.4199" y2="171.4199"/><text fill="#000000" font-family="sans-serif" font-size="13" lengthAdjust="spacing" textLength="71" x="261.5" y="166.6777">setDemand</text><polygon fill="#181818" points="448.5,181.4199,458.5,185.4199,448.5,189.4199,452.5,185.4199" style="stroke:#181818;stroke-width:1.0;"/><line style="stroke:#181818;stroke-width:1.0;" x1="375" x2="454.5" y1="185.4199" y2="185.4199"/><polygon fill="#181818" points="386,195.4199,376,199.4199,386,203.4199,382,199.4199" style="stroke:#181818;stroke-width:1.0;"/><line style="stroke:#181818;stroke-width:1.0;stroke-dasharray:2.0,2.0;" x1="380" x2="464.5" y1="199.4199" y2="199.4199"/><polygon fill="#181818" points="265.5,209.4199,255.5,213.4199,265.5,217.4199,261.5,213.4199" style="stroke:#181818;stroke-width:1.0;"/><line style="stroke:#181818;stroke-width:1.0;stroke-dasharray:2.0,2.0;" x1="259.5" x2="369" y1="213.4199" y2="213.4199"/><polygon fill="#181818" points="129.5,223.4199,119.5,227.4199,129.5,231.4199,125.5,227.4199" style="stroke:#181818;stroke-width:1.0;"/><line style="stroke:#181818;stroke-width:1.0;stroke-dasharray:2.0,2.0;" x1="123.5" x2="248.5" y1="227.4199" y2="227.4199"/><polygon fill="#181818" points="29.5,237.4199,19.5,241.4199,29.5,245.4199,25.5,241.4199" style="stroke:#181818;stroke-width:1.0;"/><line style="stroke:#181818;stroke-width:1.0;stroke-dasharray:2.0,2.0;" x1="23.5" x2="112.5" y1="241.4199" y2="241.4199"/><!--SRC=[ROun3iCm24LtJi45Ue4EbQfwoTIXoW68pM0fXOZWIBrz4yN94a_0Vny-L5mfUbx86LK0ra4D-mu6BPB8VXZuIv9UAcuwZcmmaNcEUIBn2ZziIuxS8E7vXaHE0ysCeJO0VOUtn-Kotd5ctrMum7EXfZNS1pcjQtp3jgcRvNZ7s8j9k_m1]--></g></svg>