<?xml version="1.0" encoding="us-ascii" standalone="no"?><svg xmlns="http://www.w3.org/2000/svg" xmlns:xlink="http://www.w3.org/1999/xlink" contentStyleType="text/css" height="383px" preserveAspectRatio="none" style="width:849px;height:383px;background:#FFFFFF;" version="1.1" viewBox="0 0 849 383" width="849px" zoomAndPan="magnify"><defs/><g><rect fill="#FFFFFF" height="171.9316" style="stroke:#181818;stroke-width:1.0;" width="10" x="203.5" y="112.7988"/><rect fill="#FFFFFF" height="128.6211" style="stroke:#181818;stroke-width:1.0;" width="10" x="398.5" y="142.1094"/><rect fill="#FFFFFF" height="14" style="stroke:#181818;stroke-width:1.0;" width="10" x="553" y="242.7305"/><rect fill="#FFFFFF" height="42" style="stroke:#181818;stroke-width:1.0;" width="10" x="699" y="171.4199"/><rect fill="#FFFFFF" height="14" style="stroke:#181818;stroke-width:1.0;" width="10" x="808.5" y="185.4199"/><line style="stroke:#181818;stroke-width:0.5;stroke-dasharray:5.0,5.0;" x1="18" x2="18" y1="81.4883" y2="302.7305"/><line style="stroke:#181818;stroke-width:0.5;stroke-dasharray:5.0,5.0;" x1="208" x2="208" y1="81.4883" y2="302.7305"/><line style="stroke:#181818;stroke-width:0.5;stroke-dasharray:5.0,5.0;" x1="403" x2="403" y1="81.4883" y2="302.7305"/><line style="stroke:#181818;stroke-width:0.5;stroke-dasharray:5.0,5.0;" x1="558" x2="558" y1="81.4883" y2="302.7305"/><line style="stroke:#181818;stroke-width:0.5;stroke-dasharray:5.0,5.0;" x1="704" x2="704" y1="81.4883" y2="302.7305"/><line style="stroke:#181818;stroke-width:0.5;stroke-dasharray:5.0,5.0;" x1="813" x2="813" y1="81.4883" y2="302.7305"/><text fill="#000000" font-family="sans-serif" font-size="14" lengthAdjust="spacing" textLength="14" x="8.5" y="78.5352">UI</text><ellipse cx="18.5" cy="13.5" fill="#E2E2F0" rx="8" ry="8" style="stroke:#181818;stroke-width:0.5;"/><path d="M18.5,21.5 L18.5,48.5 M5.5,29.5 L31.5,29.5 M18.5,48.5 L5.5,63.5 M18.5,48.5 L31.5,63.5 " fill="none" style="stroke:#181818;stroke-width:0.5;"/><text fill="#000000" font-family="sans-serif" font-size="14" lengthAdjust="spacing" textLength="14" x="8.5" y="315.2656">UI</text><ellipse cx="18.5" cy="326.7188" fill="#E2E2F0" rx="8" ry="8" style="stroke:#181818;stroke-width:0.5;"/><path d="M18.5,334.7188 L18.5,361.7188 M5.5,342.7188 L31.5,342.7188 M18.5,361.7188 L5.5,376.7188 M18.5,361.7188 L31.5,376.7188 " fill="none" style="stroke:#181818;stroke-width:0.5;"/><text fill="#000000" font-family="sans-serif" font-size="14" lengthAdjust="spacing" textLength="155" x="128" y="78.5352">EmploymentController</text><path d="M188,37 L188,61 M188,49 L205,49 " fill="none" style="stroke:#181818;stroke-width:0.5;"/><ellipse cx="217" cy="49" fill="#E2E2F0" rx="12" ry="12" style="stroke:#181818;stroke-width:0.5;"/><text fill="#000000" font-family="sans-serif" font-size="14" lengthAdjust="spacing" textLength="155" x="128" y="315.2656">EmploymentController</text><path d="M188,322.2188 L188,346.2188 M188,334.2188 L205,334.2188 " fill="none" style="stroke:#181818;stroke-width:0.5;"/><ellipse cx="217" cy="334.2188" fill="#E2E2F0" rx="12" ry="12" style="stroke:#181818;stroke-width:0.5;"/><rect fill="#E2E2F0" height="30.4883" rx="2.5" ry="2.5" style="stroke:#181818;stroke-width:0.5;" width="147" x="330" y="50"/><text fill="#000000" font-family="sans-serif" font-size="14" lengthAdjust="spacing" textLength="133" x="337" y="70.5352">EmploymentService</text><rect fill="#E2E2F0" height="30.4883" rx="2.5" ry="2.5" style="stroke:#181818;stroke-width:0.5;" width="147" x="330" y="301.7305"/><text fill="#000000" font-family="sans-serif" font-size="14" lengthAdjust="spacing" textLength="133" x="337" y="322.2656">EmploymentService</text><rect fill="#E2E2F0" height="30.4883" rx="2.5" ry="2.5" style="stroke:#181818;stroke-width:0.5;" width="142" x="487" y="50"/><text fill="#000000" font-family="sans-serif" font-size="14" lengthAdjust="spacing" textLength="128" x="494" y="70.5352">ForecastingService</text><rect fill="#E2E2F0" height="30.4883" rx="2.5" ry="2.5" style="stroke:#181818;stroke-width:0.5;" width="142" x="487" y="301.7305"/><text fill="#000000" font-family="sans-serif" font-size="14" lengthAdjust="spacing" textLength="128" x="494" y="322.2656">ForecastingService</text><rect fill="#E2E2F0" height="30.4883" rx="2.5" ry="2.5" style="stroke:#181818;stroke-width:0.5;" width="130" x="639" y="50"/><text fill="#000000" font-family="sans-serif" font-size="14" lengthAdjust="spacing" textLength="116" x="646" y="70.5352">EmploymentDAO</text><rect fill="#E2E2F0" height="30.4883" rx="2.5" ry="2.5" style="stroke:#181818;stroke-width:0.5;" width="130" x="639" y="301.7305"/><text fill="#000000" font-family="sans-serif" font-size="14" lengthAdjust="spacing" textLength="116" x="646" y="322.2656">EmploymentDAO</text><text fill="#000000" font-family="sans-serif" font-size="14" lengthAdjust="spacing" textLength="63" x="779" y="78.5352">Database</text><path d="M795.5,29 C795.5,19 813.5,19 813.5,19 C813.5,19 831.5,19 831.5,29 L831.5,55 C831.5,65 813.5,65 813.5,65 C813.5,65 795.5,65 795.5,55 L795.5,29 " fill="#E2E2F0" style="stroke:#181818;stroke-width:1.5;"/><path d="M795.5,29 C795.5,39 813.5,39 813.5,39 C813.5,39 831.5,39 831.5,29 " fill="none" style="stroke:#181818;stroke-width:1.5;"/><text fill="#000000" font-family="sans-serif" font-size="14" lengthAdjust="spacing" textLength="63" x="779" y="315.2656">Database</text><path d="M795.5,328.2188 C795.5,318.2188 813.5,318.2188 813.5,318.2188 C813.5,318.2188 831.5,318.2188 831.5,328.2188 L831.5,354.2188 C831.5,364.2188 813.5,364.2188 813.5,364.2188 C813.5,364.2188 795.5,364.2188 795.5,354.2188 L795.5,328.2188 " fill="#E2E2F0" style="stroke:#181818;stroke-width:1.5;"/><path d="M795.5,328.2188 C795.5,338.2188 813.5,338.2188 813.5,338.2188 C813.5,338.2188 831.5,338.2188 831.5,328.2188 " fill="none" style="stroke:#181818;stroke-width:1.5;"/><rect fill="#FFFFFF" height="171.9316" style="stroke:#181818;stroke-width:1.0;" width="10" x="203.5" y="112.7988"/><rect fill="#FFFFFF" height="128.6211" style="stroke:#181818;stroke-width:1.0;" width="10" x="398.5" y="142.1094"/><rect fill="#FFFFFF" height="14" style="stroke:#181818;stroke-width:1.0;" width="10" x="553" y="242.7305"/><rect fill="#FFFFFF" height="42" style="stroke:#181818;stroke-width:1.0;" width="10" x="699" y="171.4199"/><rect fill="#FFFFFF" height="14" style="stroke:#181818;stroke-width:1.0;" width="10" x="808.5" y="185.4199"/><polygon fill="#181818" points="191.5,108.7988,201.5,112.7988,191.5,116.7988,195.5,112.7988" style="stroke:#181818;stroke-width:1.0;"/><line style="stroke:#181818;stroke-width:1.0;" x1="18.5" x2="197.5" y1="112.7988" y2="112.7988"/><text fill="#000000" font-family="sans-serif" font-size="13" lengthAdjust="spacing" textLength="166" x="25.5" y="108.0566">getEmploymentBySocCode</text><polygon fill="#181818" points="386.5,138.1094,396.5,142.1094,386.5,146.1094,390.5,142.1094" style="stroke:#181818;stroke-width:1.0;"/><line style="stroke:#181818;stroke-width:1.0;" x1="213.5" x2="392.5" y1="142.1094" y2="142.1094"/><text fill="#000000" font-family="sans-serif" font-size="13" lengthAdjust="spacing" textLength="166" x="220.5" y="137.3672">getEmploymentBySocCode</text><polygon fill="#181818" points="687,167.4199,697,171.4199,687,175.4199,691,171.4199" style="stroke:#181818;stroke-width:1.0;"/><line style="stroke:#181818;stroke-width:1.0;" x1="408.5" x2="693" y1="171.4199" y2="171.4199"/><text fill="#000000" font-family="sans-serif" font-size="13" lengthAdjust="spacing" textLength="166" x="415.5" y="166.6777">getEmploymentBySocCode</text><polygon fill="#181818" points="796.5,181.4199,806.5,185.4199,796.5,189.4199,800.5,185.4199" style="stroke:#181818;stroke-width:1.0;"/><line style="stroke:#181818;stroke-width:1.0;" x1="709" x2="802.5" y1="185.4199" y2="185.4199"/><polygon fill="#181818" points="720,195.4199,710,199.4199,720,203.4199,716,199.4199" style="stroke:#181818;stroke-width:1.0;"/><line style="stroke:#181818;stroke-width:1.0;stroke-dasharray:2.0,2.0;" x1="714" x2="812.5" y1="199.4199" y2="199.4199"/><polygon fill="#181818" points="419.5,209.4199,409.5,213.4199,419.5,217.4199,415.5,213.4199" style="stroke:#181818;stroke-width:1.0;"/><line style="stroke:#181818;stroke-width:1.0;stroke-dasharray:2.0,2.0;" x1="413.5" x2="703" y1="213.4199" y2="213.4199"/><polygon fill="#181818" points="541,238.7305,551,242.7305,541,246.7305,545,242.7305" style="stroke:#181818;stroke-width:1.0;"/><line style="stroke:#181818;stroke-width:1.0;" x1="408.5" x2="547" y1="242.7305" y2="242.7305"/><text fill="#000000" font-family="sans-serif" font-size="13" lengthAdjust="spacing" textLength="51" x="415.5" y="237.9883">forecast</text><polygon fill="#181818" points="419.5,252.7305,409.5,256.7305,419.5,260.7305,415.5,256.7305" style="stroke:#181818;stroke-width:1.0;"/><line style="stroke:#181818;stroke-width:1.0;stroke-dasharray:2.0,2.0;" x1="413.5" x2="557" y1="256.7305" y2="256.7305"/><polygon fill="#181818" points="224.5,266.7305,214.5,270.7305,224.5,274.7305,220.5,270.7305" style="stroke:#181818;stroke-width:1.0;"/><line style="stroke:#181818;stroke-width:1.0;stroke-dasharray:2.0,2.0;" x1="218.5" x2="402.5" y1="270.7305" y2="270.7305"/><polygon fill="#181818" points="29.5,280.7305,19.5,284.7305,29.5,288.7305,25.5,284.7305" style="stroke:#181818;stroke-width:1.0;"/><line style="stroke:#181818;stroke-width:1.0;stroke-dasharray:2.0,2.0;" x1="23.5" x2="207.5" y1="284.7305" y2="284.7305"/><!--SRC=[ZL3D3e8m3BxtAVO2le074mLDE7aWFa0PbIo1bPH2mjixao6YEt1gr- -dNuUZCbfr4oePzW3XmM8U1LGy-XfbDjUkRtdko6l6NeNRbWHw57NMzUZrYr2IJCxI1hsnaCL1dMzIy2hEptUeKR72WKmU6u17OGwdP0XpD0tfYbpcact6DK6IlN69KVPOBDIDFeJTettJWkvpZP2EufUItF7_Ns7HCmv_369v0G00]--></g></svg>