<?xml version="1.0" encoding="us-ascii" standalone="no"?><svg xmlns="http://www.w3.org/2000/svg" xmlns:xlink="http://www.w3.org/1999/xlink" contentStyleType="text/css" height="427px" preserveAspectRatio="none" style="width:926px;height:427px;background:#FFFFFF;" version="1.1" viewBox="0 0 926 427" width="926px" zoomAndPan="magnify"><defs/><g><rect fill="#FFFFFF" height="215.2422" style="stroke:#181818;stroke-width:1.0;" width="10" x="124.5" y="112.7988"/><rect fill="#FFFFFF" height="171.9316" style="stroke:#181818;stroke-width:1.0;" width="10" x="276.5" y="142.1094"/><rect fill="#FFFFFF" height="57.3105" style="stroke:#181818;stroke-width:1.0;" width="10" x="472.5" y="171.4199"/><rect fill="#FFFFFF" height="14" style="stroke:#181818;stroke-width:1.0;" width="10" x="612" y="200.7305"/><rect fill="#FFFFFF" height="42" style="stroke:#181818;stroke-width:1.0;" width="10" x="745" y="258.041"/><rect fill="#FFFFFF" height="14" style="stroke:#181818;stroke-width:1.0;" width="10" x="869.5" y="272.041"/><line style="stroke:#181818;stroke-width:0.5;stroke-dasharray:5.0,5.0;" x1="18" x2="18" y1="81.4883" y2="346.041"/><line style="stroke:#181818;stroke-width:0.5;stroke-dasharray:5.0,5.0;" x1="129" x2="129" y1="81.4883" y2="346.041"/><line style="stroke:#181818;stroke-width:0.5;stroke-dasharray:5.0,5.0;" x1="281" x2="281" y1="81.4883" y2="346.041"/><line style="stroke:#181818;stroke-width:0.5;stroke-dasharray:5.0,5.0;" x1="477.5" x2="477.5" y1="81.4883" y2="346.041"/><line style="stroke:#181818;stroke-width:0.5;stroke-dasharray:5.0,5.0;" x1="616.5" x2="616.5" y1="81.4883" y2="346.041"/><line style="stroke:#181818;stroke-width:0.5;stroke-dasharray:5.0,5.0;" x1="749.5" x2="749.5" y1="81.4883" y2="346.041"/><line style="stroke:#181818;stroke-width:0.5;stroke-dasharray:5.0,5.0;" x1="874.5" x2="874.5" y1="81.4883" y2="346.041"/><text fill="#000000" font-family="sans-serif" font-size="14" lengthAdjust="spacing" textLength="14" x="8.5" y="78.5352">UI</text><ellipse cx="18.5" cy="13.5" fill="#E2E2F0" rx="8" ry="8" style="stroke:#181818;stroke-width:0.5;"/><path d="M18.5,21.5 L18.5,48.5 M5.5,29.5 L31.5,29.5 M18.5,48.5 L5.5,63.5 M18.5,48.5 L31.5,63.5 " fill="none" style="stroke:#181818;stroke-width:0.5;"/><text fill="#000000" font-family="sans-serif" font-size="14" lengthAdjust="spacing" textLength="14" x="8.5" y="358.5762">UI</text><ellipse cx="18.5" cy="370.0293" fill="#E2E2F0" rx="8" ry="8" style="stroke:#181818;stroke-width:0.5;"/><path d="M18.5,378.0293 L18.5,405.0293 M5.5,386.0293 L31.5,386.0293 M18.5,405.0293 L5.5,420.0293 M18.5,405.0293 L31.5,420.0293 " fill="none" style="stroke:#181818;stroke-width:0.5;"/><text fill="#000000" font-family="sans-serif" font-size="14" lengthAdjust="spacing" textLength="143" x="55" y="78.5352">JobPostingController</text><path d="M109,37 L109,61 M109,49 L126,49 " fill="none" style="stroke:#181818;stroke-width:0.5;"/><ellipse cx="138" cy="49" fill="#E2E2F0" rx="12" ry="12" style="stroke:#181818;stroke-width:0.5;"/><text fill="#000000" font-family="sans-serif" font-size="14" lengthAdjust="spacing" textLength="143" x="55" y="358.5762">JobPostingController</text><path d="M109,365.5293 L109,389.5293 M109,377.5293 L126,377.5293 " fill="none" style="stroke:#181818;stroke-width:0.5;"/><ellipse cx="138" cy="377.5293" fill="#E2E2F0" rx="12" ry="12" style="stroke:#181818;stroke-width:0.5;"/><rect fill="#E2E2F0" height="30.4883" rx="2.5" ry="2.5" style="stroke:#181818;stroke-width:0.5;" width="135" x="214" y="50"/><text fill="#000000" font-family="sans-serif" font-size="14" lengthAdjust="spacing" textLength="121" x="221" y="70.5352">JobPostingService</text><rect fill="#E2E2F0" height="30.4883" rx="2.5" ry="2.5" style="stroke:#181818;stroke-width:0.5;" width="135" x="214" y="345.041"/><text fill="#000000" font-family="sans-serif" font-size="14" lengthAdjust="spacing" textLength="121" x="221" y="365.5762">JobPostingService</text><rect fill="#E2E2F0" height="30.4883" rx="2.5" ry="2.5" style="stroke:#181818;stroke-width:0.5;" width="140" x="407.5" y="50"/><text fill="#000000" font-family="sans-serif" font-size="14" lengthAdjust="spacing" textLength="126" x="414.5" y="70.5352">OccupationService</text><rect fill="#E2E2F0" height="30.4883" rx="2.5" ry="2.5" style="stroke:#181818;stroke-width:0.5;" width="140" x="407.5" y="345.041"/><text fill="#000000" font-family="sans-serif" font-size="14" lengthAdjust="spacing" textLength="126" x="414.5" y="365.5762">OccupationService</text><rect fill="#E2E2F0" height="30.4883" rx="2.5" ry="2.5" style="stroke:#181818;stroke-width:0.5;" width="119" x="557.5" y="50"/><text fill="#000000" font-family="sans-serif" font-size="14" lengthAdjust="spacing" textLength="105" x="564.5" y="70.5352">OccupationTrie</text><rect fill="#E2E2F0" height="30.4883" rx="2.5" ry="2.5" style="stroke:#181818;stroke-width:0.5;" width="119" x="557.5" y="345.041"/><text fill="#000000" font-family="sans-serif" font-size="14" lengthAdjust="spacing" textLength="105" x="564.5" y="365.5762">OccupationTrie</text><rect fill="#E2E2F0" height="30.4883" rx="2.5" ry="2.5" style="stroke:#181818;stroke-width:0.5;" width="127" x="686.5" y="50"/><text fill="#000000" font-family="sans-serif" font-size="14" lengthAdjust="spacing" textLength="113" x="693.5" y="70.5352">JobPostingClient</text><rect fill="#E2E2F0" height="30.4883" rx="2.5" ry="2.5" style="stroke:#181818;stroke-width:0.5;" width="127" x="686.5" y="345.041"/><text fill="#000000" font-family="sans-serif" font-size="14" lengthAdjust="spacing" textLength="113" x="693.5" y="365.5762">JobPostingClient</text><text fill="#000000" font-family="sans-serif" font-size="14" lengthAdjust="spacing" textLength="96" x="823.5" y="78.5352">JobPostingApi</text><ellipse cx="874.5" cy="13.5" fill="#E2E2F0" rx="8" ry="8" style="stroke:#181818;stroke-width:0.5;"/><path d="M874.5,21.5 L874.5,48.5 M861.5,29.5 L887.5,29.5 M874.5,48.5 L861.5,63.5 M874.5,48.5 L887.5,63.5 " fill="none" style="stroke:#181818;stroke-width:0.5;"/><text fill="#000000" font-family="sans-serif" font-size="14" lengthAdjust="spacing" textLength="96" x="823.5" y="358.5762">JobPostingApi</text><ellipse cx="874.5" cy="370.0293" fill="#E2E2F0" rx="8" ry="8" style="stroke:#181818;stroke-width:0.5;"/><path d="M874.5,378.0293 L874.5,405.0293 M861.5,386.0293 L887.5,386.0293 M874.5,405.0293 L861.5,420.0293 M874.5,405.0293 L887.5,420.0293 " fill="none" style="stroke:#181818;stroke-width:0.5;"/><rect fill="#FFFFFF" height="215.2422" style="stroke:#181818;stroke-width:1.0;" width="10" x="124.5" y="112.7988"/><rect fill="#FFFFFF" height="171.9316" style="stroke:#181818;stroke-width:1.0;" width="10" x="276.5" y="142.1094"/><rect fill="#FFFFFF" height="57.3105" style="stroke:#181818;stroke-width:1.0;" width="10" x="472.5" y="171.4199"/><rect fill="#FFFFFF" height="14" style="stroke:#181818;stroke-width:1.0;" width="10" x="612" y="200.7305"/><rect fill="#FFFFFF" height="42" style="stroke:#181818;stroke-width:1.0;" width="10" x="745" y="258.041"/><rect fill="#FFFFFF" height="14" style="stroke:#181818;stroke-width:1.0;" width="10" x="869.5" y="272.041"/><polygon fill="#181818" points="112.5,108.7988,122.5,112.7988,112.5,116.7988,116.5,112.7988" style="stroke:#181818;stroke-width:1.0;"/><line style="stroke:#181818;stroke-width:1.0;" x1="18.5" x2="118.5" y1="112.7988" y2="112.7988"/><text fill="#000000" font-family="sans-serif" font-size="13" lengthAdjust="spacing" textLength="87" x="25.5" y="108.0566">getJobPosting</text><polygon fill="#181818" points="264.5,138.1094,274.5,142.1094,264.5,146.1094,268.5,142.1094" style="stroke:#181818;stroke-width:1.0;"/><line style="stroke:#181818;stroke-width:1.0;" x1="134.5" x2="270.5" y1="142.1094" y2="142.1094"/><text fill="#000000" font-family="sans-serif" font-size="13" lengthAdjust="spacing" textLength="87" x="141.5" y="137.3672">getJobPosting</text><polygon fill="#181818" points="460.5,167.4199,470.5,171.4199,460.5,175.4199,464.5,171.4199" style="stroke:#181818;stroke-width:1.0;"/><line style="stroke:#181818;stroke-width:1.0;" x1="286.5" x2="466.5" y1="171.4199" y2="171.4199"/><text fill="#000000" font-family="sans-serif" font-size="13" lengthAdjust="spacing" textLength="167" x="293.5" y="166.6777">getOccupationsBySocCode</text><polygon fill="#181818" points="600,196.7305,610,200.7305,600,204.7305,604,200.7305" style="stroke:#181818;stroke-width:1.0;"/><line style="stroke:#181818;stroke-width:1.0;" x1="482.5" x2="606" y1="200.7305" y2="200.7305"/><text fill="#000000" font-family="sans-serif" font-size="13" lengthAdjust="spacing" textLength="88" x="489.5" y="195.9883">getBySocCode</text><polygon fill="#181818" points="493.5,210.7305,483.5,214.7305,493.5,218.7305,489.5,214.7305" style="stroke:#181818;stroke-width:1.0;"/><line style="stroke:#181818;stroke-width:1.0;stroke-dasharray:2.0,2.0;" x1="487.5" x2="616" y1="214.7305" y2="214.7305"/><polygon fill="#181818" points="297.5,224.7305,287.5,228.7305,297.5,232.7305,293.5,228.7305" style="stroke:#181818;stroke-width:1.0;"/><line style="stroke:#181818;stroke-width:1.0;stroke-dasharray:2.0,2.0;" x1="291.5" x2="476.5" y1="228.7305" y2="228.7305"/><polygon fill="#181818" points="733,254.041,743,258.041,733,262.041,737,258.041" style="stroke:#181818;stroke-width:1.0;"/><line style="stroke:#181818;stroke-width:1.0;" x1="286.5" x2="739" y1="258.041" y2="258.041"/><text fill="#000000" font-family="sans-serif" font-size="13" lengthAdjust="spacing" textLength="87" x="293.5" y="253.2988">getJobPosting</text><polygon fill="#181818" points="857.5,268.041,867.5,272.041,857.5,276.041,861.5,272.041" style="stroke:#181818;stroke-width:1.0;"/><line style="stroke:#181818;stroke-width:1.0;" x1="755" x2="863.5" y1="272.041" y2="272.041"/><polygon fill="#181818" points="766,282.041,756,286.041,766,290.041,762,286.041" style="stroke:#181818;stroke-width:1.0;"/><line style="stroke:#181818;stroke-width:1.0;stroke-dasharray:2.0,2.0;" x1="760" x2="873.5" y1="286.041" y2="286.041"/><polygon fill="#181818" points="297.5,296.041,287.5,300.041,297.5,304.041,293.5,300.041" style="stroke:#181818;stroke-width:1.0;"/><line style="stroke:#181818;stroke-width:1.0;stroke-dasharray:2.0,2.0;" x1="291.5" x2="749" y1="300.041" y2="300.041"/><polygon fill="#181818" points="145.5,310.041,135.5,314.041,145.5,318.041,141.5,314.041" style="stroke:#181818;stroke-width:1.0;"/><line style="stroke:#181818;stroke-width:1.0;stroke-dasharray:2.0,2.0;" x1="139.5" x2="280.5" y1="314.041" y2="314.041"/><polygon fill="#181818" points="29.5,324.041,19.5,328.041,29.5,332.041,25.5,328.041" style="stroke:#181818;stroke-width:1.0;"/><line style="stroke:#181818;stroke-width:1.0;stroke-dasharray:2.0,2.0;" x1="23.5" x2="128.5" y1="328.041" y2="328.041"/><!--SRC=[VP112eD034NtSugvG2_GHQ5rPJSjs1vW78C491bY5Bnz5PNfLEigJFv_cP-uJjbvnTufM2PZnWUBVUUcv8ug9uEzS_daLf7gZ4c5cmR412UA7eCZ_J8K83rwIDI7zrrmYap7waiG_epD6WJI9LfiNmCQyyxjwRARqPvj3HeLisjAu2NX0RawHcops8p5TdiR2lOPLs2stcJ0jFjCHqH0Ew6rx2RulT3HnhCXWQRxfR-avGC0]--></g></svg>