<svg xmlns="http://www.w3.org/2000/svg" xmlns:xlink="http://www.w3.org/1999/xlink" contentStyleType="text/css" height="429px" preserveAspectRatio="none" style="width:726px;height:429px;background:#FFFFFF;" version="1.1" viewBox="0 0 726 429" width="726px" zoomAndPan="magnify"><defs/><g><rect fill="#FFFFFF" height="218.1973" style="stroke:#181818;stroke-width:1.0;" width="10" x="161.5" y="112.7988"/><rect fill="#FFFFFF" height="174.8867" style="stroke:#181818;stroke-width:1.0;" width="10" x="355.5" y="142.1094"/><rect fill="#FFFFFF" height="42" style="stroke:#181818;stroke-width:1.0;" width="10" x="545.5" y="195.7305"/><rect fill="#FFFFFF" height="14" style="stroke:#181818;stroke-width:1.0;" width="10" x="545.5" y="281.9961"/><rect fill="#FFFFFF" height="14" style="stroke:#181818;stroke-width:1.0;" width="10" x="670" y="209.7305"/><rect fill="none" height="146.8867" style="stroke:#000000;stroke-width:1.5;" width="457.5" x="262" y="157.1094"/><line style="stroke:#181818;stroke-width:0.5;stroke-dasharray:5.0,5.0;" x1="18" x2="18" y1="81.4883" y2="348.9961"/><line style="stroke:#181818;stroke-width:0.5;stroke-dasharray:5.0,5.0;" x1="166" x2="166" y1="81.4883" y2="348.9961"/><line style="stroke:#181818;stroke-width:0.5;stroke-dasharray:5.0,5.0;" x1="360" x2="360" y1="81.4883" y2="348.9961"/><line style="stroke:#181818;stroke-width:0.5;stroke-dasharray:5.0,5.0;" x1="550.5" x2="550.5" y1="81.4883" y2="348.9961"/><line style="stroke:#181818;stroke-width:0.5;stroke-dasharray:5.0,5.0;" x1="674.5" x2="674.5" y1="81.4883" y2="348.9961"/><text fill="#000000" font-family="sans-serif" font-size="14" lengthAdjust="spacing" textLength="14" x="8.5" y="78.5352">UI</text><ellipse cx="18.5" cy="13.5" fill="#E2E2F0" rx="8" ry="8" style="stroke:#181818;stroke-width:0.5;"/><path d="M18.5,21.5 L18.5,48.5 M5.5,29.5 L31.5,29.5 M18.5,48.5 L5.5,63.5 M18.5,48.5 L31.5,63.5 " fill="none" style="stroke:#181818;stroke-width:0.5;"/><text fill="#000000" font-family="sans-serif" font-size="14" lengthAdjust="spacing" textLength="14" x="8.5" y="361.5313">UI</text><ellipse cx="18.5" cy="372.9844" fill="#E2E2F0" rx="8" ry="8" style="stroke:#181818;stroke-width:0.5;"/><path d="M18.5,380.9844 L18.5,407.9844 M5.5,388.9844 L31.5,388.9844 M18.5,407.9844 L5.5,422.9844 M18.5,407.9844 L31.5,422.9844 " fill="none" style="stroke:#181818;stroke-width:0.5;"/><text fill="#000000" font-family="sans-serif" font-size="14" lengthAdjust="spacing" textLength="185" x="71" y="78.5352">LearningMaterialController</text><path d="M146,37 L146,61 M146,49 L163,49 " fill="none" style="stroke:#181818;stroke-width:0.5;"/><ellipse cx="175" cy="49" fill="#E2E2F0" rx="12" ry="12" style="stroke:#181818;stroke-width:0.5;"/><text fill="#000000" font-family="sans-serif" font-size="14" lengthAdjust="spacing" textLength="185" x="71" y="361.5313">LearningMaterialController</text><path d="M146,368.4844 L146,392.4844 M146,380.4844 L163,380.4844 " fill="none" style="stroke:#181818;stroke-width:0.5;"/><ellipse cx="175" cy="380.4844" fill="#E2E2F0" rx="12" ry="12" style="stroke:#181818;stroke-width:0.5;"/><rect fill="#E2E2F0" height="30.4883" rx="2.5" ry="2.5" style="stroke:#181818;stroke-width:0.5;" width="177" x="272" y="50"/><text fill="#000000" font-family="sans-serif" font-size="14" lengthAdjust="spacing" textLength="163" x="279" y="70.5352">LearningMaterialService</text><rect fill="#E2E2F0" height="30.4883" rx="2.5" ry="2.5" style="stroke:#181818;stroke-width:0.5;" width="177" x="272" y="347.9961"/><text fill="#000000" font-family="sans-serif" font-size="14" lengthAdjust="spacing" textLength="163" x="279" y="368.5313">LearningMaterialService</text><rect fill="#E2E2F0" height="30.4883" rx="2.5" ry="2.5" style="stroke:#181818;stroke-width:0.5;" width="160" x="470.5" y="50"/><text fill="#000000" font-family="sans-serif" font-size="14" lengthAdjust="spacing" textLength="146" x="477.5" y="70.5352">LearningMaterialDAO</text><rect fill="#E2E2F0" height="30.4883" rx="2.5" ry="2.5" style="stroke:#181818;stroke-width:0.5;" width="160" x="470.5" y="347.9961"/><text fill="#000000" font-family="sans-serif" font-size="14" lengthAdjust="spacing" textLength="146" x="477.5" y="368.5313">LearningMaterialDAO</text><text fill="#000000" font-family="sans-serif" font-size="14" lengthAdjust="spacing" textLength="63" x="640.5" y="78.5352">Database</text><path d="M657,29 C657,19 675,19 675,19 C675,19 693,19 693,29 L693,55 C693,65 675,65 675,65 C675,65 657,65 657,55 L657,29 " fill="#E2E2F0" style="stroke:#181818;stroke-width:1.5;"/><path d="M657,29 C657,39 675,39 675,39 C675,39 693,39 693,29 " fill="none" style="stroke:#181818;stroke-width:1.5;"/><text fill="#000000" font-family="sans-serif" font-size="14" lengthAdjust="spacing" textLength="63" x="640.5" y="361.5313">Database</text><path d="M657,374.4844 C657,364.4844 675,364.4844 675,364.4844 C675,364.4844 693,364.4844 693,374.4844 L693,400.4844 C693,410.4844 675,410.4844 675,410.4844 C675,410.4844 657,410.4844 657,400.4844 L657,374.4844 " fill="#E2E2F0" style="stroke:#181818;stroke-width:1.5;"/><path d="M657,374.4844 C657,384.4844 675,384.4844 675,384.4844 C675,384.4844 693,384.4844 693,374.4844 " fill="none" style="stroke:#181818;stroke-width:1.5;"/><rect fill="#FFFFFF" height="218.1973" style="stroke:#181818;stroke-width:1.0;" width="10" x="161.5" y="112.7988"/><rect fill="#FFFFFF" height="174.8867" style="stroke:#181818;stroke-width:1.0;" width="10" x="355.5" y="142.1094"/><rect fill="#FFFFFF" height="42" style="stroke:#181818;stroke-width:1.0;" width="10" x="545.5" y="195.7305"/><rect fill="#FFFFFF" height="14" style="stroke:#181818;stroke-width:1.0;" width="10" x="545.5" y="281.9961"/><rect fill="#FFFFFF" height="14" style="stroke:#181818;stroke-width:1.0;" width="10" x="670" y="209.7305"/><polygon fill="#181818" points="149.5,108.7988,159.5,112.7988,149.5,116.7988,153.5,112.7988" style="stroke:#181818;stroke-width:1.0;"/><line style="stroke:#181818;stroke-width:1.0;" x1="18.5" x2="155.5" y1="112.7988" y2="112.7988"/><text fill="#000000" font-family="sans-serif" font-size="13" lengthAdjust="spacing" textLength="124" x="25.5" y="108.0566">getLearningMaterial</text><polygon fill="#181818" points="343.5,138.1094,353.5,142.1094,343.5,146.1094,347.5,142.1094" style="stroke:#181818;stroke-width:1.0;"/><line style="stroke:#181818;stroke-width:1.0;" x1="171.5" x2="349.5" y1="142.1094" y2="142.1094"/><text fill="#000000" font-family="sans-serif" font-size="13" lengthAdjust="spacing" textLength="124" x="178.5" y="137.3672">getLearningMaterial</text><path d="M262,157.1094 L324,157.1094 L324,164.4199 L314,174.4199 L262,174.4199 L262,157.1094 " fill="#EEEEEE" style="stroke:#000000;stroke-width:1.5;"/><rect fill="none" height="146.8867" style="stroke:#000000;stroke-width:1.5;" width="457.5" x="262" y="157.1094"/><text fill="#000000" font-family="sans-serif" font-size="13" font-weight="bold" lengthAdjust="spacing" textLength="17" x="277" y="170.6777">alt</text><text fill="#000000" font-family="sans-serif" font-size="11" font-weight="bold" lengthAdjust="spacing" textLength="162" x="339" y="169.7441">[query includes contentType]</text><polygon fill="#181818" points="533.5,191.7305,543.5,195.7305,533.5,199.7305,537.5,195.7305" style="stroke:#181818;stroke-width:1.0;"/><line style="stroke:#181818;stroke-width:1.0;" x1="365.5" x2="539.5" y1="195.7305" y2="195.7305"/><text fill="#000000" font-family="sans-serif" font-size="13" lengthAdjust="spacing" textLength="161" x="372.5" y="190.9883">getBySocAndContentType</text><polygon fill="#181818" points="658,205.7305,668,209.7305,658,213.7305,662,209.7305" style="stroke:#181818;stroke-width:1.0;"/><line style="stroke:#181818;stroke-width:1.0;" x1="555.5" x2="664" y1="209.7305" y2="209.7305"/><polygon fill="#181818" points="566.5,219.7305,556.5,223.7305,566.5,227.7305,562.5,223.7305" style="stroke:#181818;stroke-width:1.0;"/><line style="stroke:#181818;stroke-width:1.0;stroke-dasharray:2.0,2.0;" x1="560.5" x2="674" y1="223.7305" y2="223.7305"/><polygon fill="#181818" points="376.5,233.7305,366.5,237.7305,376.5,241.7305,372.5,237.7305" style="stroke:#181818;stroke-width:1.0;"/><line style="stroke:#181818;stroke-width:1.0;stroke-dasharray:2.0,2.0;" x1="370.5" x2="549.5" y1="237.7305" y2="237.7305"/><line style="stroke:#000000;stroke-width:1.0;stroke-dasharray:2.0,2.0;" x1="262" x2="719.5" y1="246.7305" y2="246.7305"/><text fill="#000000" font-family="sans-serif" font-size="11" font-weight="bold" lengthAdjust="spacing" textLength="208" x="267" y="257.3652">[query does not include contentType]</text><polygon fill="#181818" points="533.5,277.9961,543.5,281.9961,533.5,285.9961,537.5,281.9961" style="stroke:#181818;stroke-width:1.0;"/><line style="stroke:#181818;stroke-width:1.0;" x1="365.5" x2="539.5" y1="281.9961" y2="281.9961"/><text fill="#000000" font-family="sans-serif" font-size="13" lengthAdjust="spacing" textLength="56" x="372.5" y="277.2539">getBySoc</text><polygon fill="#181818" points="376.5,291.9961,366.5,295.9961,376.5,299.9961,372.5,295.9961" style="stroke:#181818;stroke-width:1.0;"/><line style="stroke:#181818;stroke-width:1.0;stroke-dasharray:2.0,2.0;" x1="370.5" x2="549.5" y1="295.9961" y2="295.9961"/><polygon fill="#181818" points="182.5,312.9961,172.5,316.9961,182.5,320.9961,178.5,316.9961" style="stroke:#181818;stroke-width:1.0;"/><line style="stroke:#181818;stroke-width:1.0;stroke-dasharray:2.0,2.0;" x1="176.5" x2="359.5" y1="316.9961" y2="316.9961"/><polygon fill="#181818" points="29.5,326.9961,19.5,330.9961,29.5,334.9961,25.5,330.9961" style="stroke:#181818;stroke-width:1.0;"/><line style="stroke:#181818;stroke-width:1.0;stroke-dasharray:2.0,2.0;" x1="23.5" x2="165.5" y1="330.9961" y2="330.9961"/><!--SRC=[hP1DRW8n38NtFeKlm0LOLE9dWzIg2ye1J6AXI94zDGxIt1uZ1WGj31koYQCyV-_Pr5mfUJcGCwe0n4CDDolOQfDCrkCdaqcHtLT8h51TgBXfhMpGaNb9fIFnVx8rsw4a7jKiPz-GoMbBUyRbK01iLZZv6F75AUxO__x3ICC3t93l2Okgus_Z6Bz8gYtp7bFWMFodxnWmpZFW0w-Oy-mpxzUQPf8NBrYdXk1SLtBI67ipkIsvnjhEARD6Gb6_n7rVsZj3oJ2KmtK4]--></g></svg>