<svg xmlns="http://www.w3.org/2000/svg" xmlns:xlink="http://www.w3.org/1999/xlink" contentStyleType="text/css" height="442px" preserveAspectRatio="none" style="width:426px;height:442px;background:#FFFFFF;" version="1.1" viewBox="0 0 426 442" width="426px" zoomAndPan="magnify"><defs/><g><rect fill="#FFFFFF" height="230.2422" style="stroke:#181818;stroke-width:1.0;" width="10" x="163" y="112.7988"/><rect fill="#FFFFFF" height="42" style="stroke:#181818;stroke-width:1.0;" width="10" x="301" y="142.1094"/><rect fill="#FFFFFF" height="42" style="stroke:#181818;stroke-width:1.0;" width="10" x="301" y="287.041"/><rect fill="#FFFFFF" height="14" style="stroke:#181818;stroke-width:1.0;" width="10" x="386" y="156.1094"/><rect fill="#FFFFFF" height="14" style="stroke:#181818;stroke-width:1.0;" width="10" x="386" y="301.041"/><rect fill="none" height="59.6211" style="stroke:#000000;stroke-width:1.5;" width="236" x="109" y="199.1094"/><line style="stroke:#181818;stroke-width:0.5;stroke-dasharray:5.0,5.0;" x1="54" x2="54" y1="81.4883" y2="361.041"/><line style="stroke:#181818;stroke-width:0.5;stroke-dasharray:5.0,5.0;" x1="168" x2="168" y1="81.4883" y2="361.041"/><line style="stroke:#181818;stroke-width:0.5;stroke-dasharray:5.0,5.0;" x1="305.5" x2="305.5" y1="81.4883" y2="361.041"/><line style="stroke:#181818;stroke-width:0.5;stroke-dasharray:5.0,5.0;" x1="390.5" x2="390.5" y1="81.4883" y2="361.041"/><text fill="#000000" font-family="sans-serif" font-size="14" lengthAdjust="spacing" textLength="92" x="5" y="78.5352">System Timer</text><ellipse cx="54" cy="13.5" fill="#E2E2F0" rx="8" ry="8" style="stroke:#181818;stroke-width:0.5;"/><path d="M54,21.5 L54,48.5 M41,29.5 L67,29.5 M54,48.5 L41,63.5 M54,48.5 L67,63.5 " fill="none" style="stroke:#181818;stroke-width:0.5;"/><text fill="#000000" font-family="sans-serif" font-size="14" lengthAdjust="spacing" textLength="92" x="5" y="373.5762">System Timer</text><ellipse cx="54" cy="385.0293" fill="#E2E2F0" rx="8" ry="8" style="stroke:#181818;stroke-width:0.5;"/><path d="M54,393.0293 L54,420.0293 M41,401.0293 L67,401.0293 M54,420.0293 L41,435.0293 M54,420.0293 L67,435.0293 " fill="none" style="stroke:#181818;stroke-width:0.5;"/><rect fill="#E2E2F0" height="30.4883" rx="2.5" ry="2.5" style="stroke:#181818;stroke-width:0.5;" width="98" x="119" y="50"/><text fill="#000000" font-family="sans-serif" font-size="14" lengthAdjust="spacing" textLength="84" x="126" y="70.5352">NewsService</text><rect fill="#E2E2F0" height="30.4883" rx="2.5" ry="2.5" style="stroke:#181818;stroke-width:0.5;" width="98" x="119" y="360.041"/><text fill="#000000" font-family="sans-serif" font-size="14" lengthAdjust="spacing" textLength="84" x="126" y="380.5762">NewsService</text><rect fill="#E2E2F0" height="30.4883" rx="2.5" ry="2.5" style="stroke:#181818;stroke-width:0.5;" width="81" x="265.5" y="50"/><text fill="#000000" font-family="sans-serif" font-size="14" lengthAdjust="spacing" textLength="67" x="272.5" y="70.5352">NewsDAO</text><rect fill="#E2E2F0" height="30.4883" rx="2.5" ry="2.5" style="stroke:#181818;stroke-width:0.5;" width="81" x="265.5" y="360.041"/><text fill="#000000" font-family="sans-serif" font-size="14" lengthAdjust="spacing" textLength="67" x="272.5" y="380.5762">NewsDAO</text><text fill="#000000" font-family="sans-serif" font-size="14" lengthAdjust="spacing" textLength="63" x="356.5" y="78.5352">Database</text><path d="M373,29 C373,19 391,19 391,19 C391,19 409,19 409,29 L409,55 C409,65 391,65 391,65 C391,65 373,65 373,55 L373,29 " fill="#E2E2F0" style="stroke:#181818;stroke-width:1.5;"/><path d="M373,29 C373,39 391,39 391,39 C391,39 409,39 409,29 " fill="none" style="stroke:#181818;stroke-width:1.5;"/><text fill="#000000" font-family="sans-serif" font-size="14" lengthAdjust="spacing" textLength="63" x="356.5" y="373.5762">Database</text><path d="M373,386.5293 C373,376.5293 391,376.5293 391,376.5293 C391,376.5293 409,376.5293 409,386.5293 L409,412.5293 C409,422.5293 391,422.5293 391,422.5293 C391,422.5293 373,422.5293 373,412.5293 L373,386.5293 " fill="#E2E2F0" style="stroke:#181818;stroke-width:1.5;"/><path d="M373,386.5293 C373,396.5293 391,396.5293 391,396.5293 C391,396.5293 409,396.5293 409,386.5293 " fill="none" style="stroke:#181818;stroke-width:1.5;"/><rect fill="#FFFFFF" height="230.2422" style="stroke:#181818;stroke-width:1.0;" width="10" x="163" y="112.7988"/><rect fill="#FFFFFF" height="42" style="stroke:#181818;stroke-width:1.0;" width="10" x="301" y="142.1094"/><rect fill="#FFFFFF" height="42" style="stroke:#181818;stroke-width:1.0;" width="10" x="301" y="287.041"/><rect fill="#FFFFFF" height="14" style="stroke:#181818;stroke-width:1.0;" width="10" x="386" y="156.1094"/><rect fill="#FFFFFF" height="14" style="stroke:#181818;stroke-width:1.0;" width="10" x="386" y="301.041"/><polygon fill="#181818" points="151,108.7988,161,112.7988,151,116.7988,155,112.7988" style="stroke:#181818;stroke-width:1.0;"/><line style="stroke:#181818;stroke-width:1.0;" x1="54" x2="157" y1="112.7988" y2="112.7988"/><text fill="#000000" font-family="sans-serif" font-size="13" lengthAdjust="spacing" textLength="90" x="61" y="108.0566">classifyNews()</text><polygon fill="#181818" points="289,138.1094,299,142.1094,289,146.1094,293,142.1094" style="stroke:#181818;stroke-width:1.0;"/><line style="stroke:#181818;stroke-width:1.0;" x1="173" x2="295" y1="142.1094" y2="142.1094"/><text fill="#000000" font-family="sans-serif" font-size="13" lengthAdjust="spacing" textLength="101" x="180" y="137.3672">getByState(NEW)</text><polygon fill="#181818" points="374,152.1094,384,156.1094,374,160.1094,378,156.1094" style="stroke:#181818;stroke-width:1.0;"/><line style="stroke:#181818;stroke-width:1.0;" x1="311" x2="380" y1="156.1094" y2="156.1094"/><polygon fill="#181818" points="322,166.1094,312,170.1094,322,174.1094,318,170.1094" style="stroke:#181818;stroke-width:1.0;"/><line style="stroke:#181818;stroke-width:1.0;stroke-dasharray:2.0,2.0;" x1="316" x2="390" y1="170.1094" y2="170.1094"/><polygon fill="#181818" points="184,180.1094,174,184.1094,184,188.1094,180,184.1094" style="stroke:#181818;stroke-width:1.0;"/><line style="stroke:#181818;stroke-width:1.0;stroke-dasharray:2.0,2.0;" x1="178" x2="305" y1="184.1094" y2="184.1094"/><path d="M109,199.1094 L183,199.1094 L183,206.4199 L173,216.4199 L109,216.4199 L109,199.1094 " fill="#EEEEEE" style="stroke:#000000;stroke-width:1.5;"/><rect fill="none" height="59.6211" style="stroke:#000000;stroke-width:1.5;" width="236" x="109" y="199.1094"/><text fill="#000000" font-family="sans-serif" font-size="13" font-weight="bold" lengthAdjust="spacing" textLength="29" x="124" y="212.6777">loop</text><text fill="#000000" font-family="sans-serif" font-size="11" font-weight="bold" lengthAdjust="spacing" textLength="142" x="198" y="211.7441">[until all news classified]</text><line style="stroke:#181818;stroke-width:1.0;" x1="173" x2="215" y1="237.7305" y2="237.7305"/><line style="stroke:#181818;stroke-width:1.0;" x1="215" x2="215" y1="237.7305" y2="250.7305"/><line style="stroke:#181818;stroke-width:1.0;" x1="174" x2="215" y1="250.7305" y2="250.7305"/><polygon fill="#181818" points="184,246.7305,174,250.7305,184,254.7305,180,250.7305" style="stroke:#181818;stroke-width:1.0;"/><text fill="#000000" font-family="sans-serif" font-size="13" lengthAdjust="spacing" textLength="104" x="180" y="232.9883">cosine similarity</text><polygon fill="#181818" points="289,283.041,299,287.041,289,291.041,293,287.041" style="stroke:#181818;stroke-width:1.0;"/><line style="stroke:#181818;stroke-width:1.0;" x1="173" x2="295" y1="287.041" y2="287.041"/><text fill="#000000" font-family="sans-serif" font-size="13" lengthAdjust="spacing" textLength="36" x="180" y="282.2988">save()</text><polygon fill="#181818" points="374,297.041,384,301.041,374,305.041,378,301.041" style="stroke:#181818;stroke-width:1.0;"/><line style="stroke:#181818;stroke-width:1.0;" x1="311" x2="380" y1="301.041" y2="301.041"/><polygon fill="#181818" points="322,311.041,312,315.041,322,319.041,318,315.041" style="stroke:#181818;stroke-width:1.0;"/><line style="stroke:#181818;stroke-width:1.0;stroke-dasharray:2.0,2.0;" x1="316" x2="390" y1="315.041" y2="315.041"/><polygon fill="#181818" points="184,325.041,174,329.041,184,333.041,180,329.041" style="stroke:#181818;stroke-width:1.0;"/><line style="stroke:#181818;stroke-width:1.0;stroke-dasharray:2.0,2.0;" x1="178" x2="305" y1="329.041" y2="329.041"/><polygon fill="#181818" points="65,339.041,55,343.041,65,347.041,61,343.041" style="stroke:#181818;stroke-width:1.0;"/><line style="stroke:#181818;stroke-width:1.0;stroke-dasharray:2.0,2.0;" x1="59" x2="167" y1="343.041" y2="343.041"/><!--SRC=[ZK-vZi903Etz5HPLAFW12gH5q48H96fluY1Bavbex6ILlzy992XS4fMlTvbQ2rIOT6ICmGEa8KHSvBqQrtYIckC2IT663XgA9eKqv0qF_ASvnquAVjdlVevGaj4lAUDkR02k8hZQpBcuniAHgbJziCsMC3-EsAINS1UsRPzRYfeTzkSRSBWaqDqZihNHJyM5q63hJHoIS-WJON8JBe4Ulg-gTzQpc475CwhKuYYAzKzy3-pBp-cLEiw-2JsMVm00]--></g></svg>