<?xml version="1.0" encoding="us-ascii" standalone="no"?><svg xmlns="http://www.w3.org/2000/svg" xmlns:xlink="http://www.w3.org/1999/xlink" contentStyleType="text/css" height="457px" preserveAspectRatio="none" style="width:533px;height:457px;background:#FFFFFF;" version="1.1" viewBox="0 0 533 457" width="533px" zoomAndPan="magnify"><defs/><g><rect fill="#FFFFFF" height="246.1973" style="stroke:#181818;stroke-width:1.0;" width="10" x="93" y="112.7988"/><rect fill="#FFFFFF" height="202.8867" style="stroke:#181818;stroke-width:1.0;" width="10" x="208" y="142.1094"/><rect fill="#FFFFFF" height="42" style="stroke:#181818;stroke-width:1.0;" width="10" x="392" y="195.7305"/><rect fill="#FFFFFF" height="42" style="stroke:#181818;stroke-width:1.0;" width="10" x="392" y="281.9961"/><rect fill="#FFFFFF" height="14" style="stroke:#181818;stroke-width:1.0;" width="10" x="477" y="209.7305"/><rect fill="#FFFFFF" height="14" style="stroke:#181818;stroke-width:1.0;" width="10" x="477" y="295.9961"/><rect fill="none" height="174.8867" style="stroke:#000000;stroke-width:1.5;" width="372.5" x="154" y="157.1094"/><line style="stroke:#181818;stroke-width:0.5;stroke-dasharray:5.0,5.0;" x1="18" x2="18" y1="81.4883" y2="376.9961"/><line style="stroke:#181818;stroke-width:0.5;stroke-dasharray:5.0,5.0;" x1="98" x2="98" y1="81.4883" y2="376.9961"/><line style="stroke:#181818;stroke-width:0.5;stroke-dasharray:5.0,5.0;" x1="213" x2="213" y1="81.4883" y2="376.9961"/><line style="stroke:#181818;stroke-width:0.5;stroke-dasharray:5.0,5.0;" x1="396.5" x2="396.5" y1="81.4883" y2="376.9961"/><line style="stroke:#181818;stroke-width:0.5;stroke-dasharray:5.0,5.0;" x1="481.5" x2="481.5" y1="81.4883" y2="376.9961"/><text fill="#000000" font-family="sans-serif" font-size="14" lengthAdjust="spacing" textLength="14" x="8.5" y="78.5352">UI</text><ellipse cx="18.5" cy="13.5" fill="#E2E2F0" rx="8" ry="8" style="stroke:#181818;stroke-width:0.5;"/><path d="M18.5,21.5 L18.5,48.5 M5.5,29.5 L31.5,29.5 M18.5,48.5 L5.5,63.5 M18.5,48.5 L31.5,63.5 " fill="none" style="stroke:#181818;stroke-width:0.5;"/><text fill="#000000" font-family="sans-serif" font-size="14" lengthAdjust="spacing" textLength="14" x="8.5" y="389.5313">UI</text><ellipse cx="18.5" cy="400.9844" fill="#E2E2F0" rx="8" ry="8" style="stroke:#181818;stroke-width:0.5;"/><path d="M18.5,408.9844 L18.5,435.9844 M5.5,416.9844 L31.5,416.9844 M18.5,435.9844 L5.5,450.9844 M18.5,435.9844 L31.5,450.9844 " fill="none" style="stroke:#181818;stroke-width:0.5;"/><text fill="#000000" font-family="sans-serif" font-size="14" lengthAdjust="spacing" textLength="106" x="42" y="78.5352">NewsController</text><path d="M77.5,37 L77.5,61 M77.5,49 L94.5,49 " fill="none" style="stroke:#181818;stroke-width:0.5;"/><ellipse cx="106.5" cy="49" fill="#E2E2F0" rx="12" ry="12" style="stroke:#181818;stroke-width:0.5;"/><text fill="#000000" font-family="sans-serif" font-size="14" lengthAdjust="spacing" textLength="106" x="42" y="389.5313">NewsController</text><path d="M77.5,396.4844 L77.5,420.4844 M77.5,408.4844 L94.5,408.4844 " fill="none" style="stroke:#181818;stroke-width:0.5;"/><ellipse cx="106.5" cy="408.4844" fill="#E2E2F0" rx="12" ry="12" style="stroke:#181818;stroke-width:0.5;"/><rect fill="#E2E2F0" height="30.4883" rx="2.5" ry="2.5" style="stroke:#181818;stroke-width:0.5;" width="98" x="164" y="50"/><text fill="#000000" font-family="sans-serif" font-size="14" lengthAdjust="spacing" textLength="84" x="171" y="70.5352">NewsService</text><rect fill="#E2E2F0" height="30.4883" rx="2.5" ry="2.5" style="stroke:#181818;stroke-width:0.5;" width="98" x="164" y="375.9961"/><text fill="#000000" font-family="sans-serif" font-size="14" lengthAdjust="spacing" textLength="84" x="171" y="396.5313">NewsService</text><rect fill="#E2E2F0" height="30.4883" rx="2.5" ry="2.5" style="stroke:#181818;stroke-width:0.5;" width="81" x="356.5" y="50"/><text fill="#000000" font-family="sans-serif" font-size="14" lengthAdjust="spacing" textLength="67" x="363.5" y="70.5352">NewsDAO</text><rect fill="#E2E2F0" height="30.4883" rx="2.5" ry="2.5" style="stroke:#181818;stroke-width:0.5;" width="81" x="356.5" y="375.9961"/><text fill="#000000" font-family="sans-serif" font-size="14" lengthAdjust="spacing" textLength="67" x="363.5" y="396.5313">NewsDAO</text><text fill="#000000" font-family="sans-serif" font-size="14" lengthAdjust="spacing" textLength="63" x="447.5" y="78.5352">Database</text><path d="M464,29 C464,19 482,19 482,19 C482,19 500,19 500,29 L500,55 C500,65 482,65 482,65 C482,65 464,65 464,55 L464,29 " fill="#E2E2F0" style="stroke:#181818;stroke-width:1.5;"/><path d="M464,29 C464,39 482,39 482,39 C482,39 500,39 500,29 " fill="none" style="stroke:#181818;stroke-width:1.5;"/><text fill="#000000" font-family="sans-serif" font-size="14" lengthAdjust="spacing" textLength="63" x="447.5" y="389.5313">Database</text><path d="M464,402.4844 C464,392.4844 482,392.4844 482,392.4844 C482,392.4844 500,392.4844 500,402.4844 L500,428.4844 C500,438.4844 482,438.4844 482,438.4844 C482,438.4844 464,438.4844 464,428.4844 L464,402.4844 " fill="#E2E2F0" style="stroke:#181818;stroke-width:1.5;"/><path d="M464,402.4844 C464,412.4844 482,412.4844 482,412.4844 C482,412.4844 500,412.4844 500,402.4844 " fill="none" style="stroke:#181818;stroke-width:1.5;"/><rect fill="#FFFFFF" height="246.1973" style="stroke:#181818;stroke-width:1.0;" width="10" x="93" y="112.7988"/><rect fill="#FFFFFF" height="202.8867" style="stroke:#181818;stroke-width:1.0;" width="10" x="208" y="142.1094"/><rect fill="#FFFFFF" height="42" style="stroke:#181818;stroke-width:1.0;" width="10" x="392" y="195.7305"/><rect fill="#FFFFFF" height="42" style="stroke:#181818;stroke-width:1.0;" width="10" x="392" y="281.9961"/><rect fill="#FFFFFF" height="14" style="stroke:#181818;stroke-width:1.0;" width="10" x="477" y="209.7305"/><rect fill="#FFFFFF" height="14" style="stroke:#181818;stroke-width:1.0;" width="10" x="477" y="295.9961"/><polygon fill="#181818" points="81,108.7988,91,112.7988,81,116.7988,85,112.7988" style="stroke:#181818;stroke-width:1.0;"/><line style="stroke:#181818;stroke-width:1.0;" x1="18.5" x2="87" y1="112.7988" y2="112.7988"/><text fill="#000000" font-family="sans-serif" font-size="13" lengthAdjust="spacing" textLength="54" x="25.5" y="108.0566">getNews</text><polygon fill="#181818" points="196,138.1094,206,142.1094,196,146.1094,200,142.1094" style="stroke:#181818;stroke-width:1.0;"/><line style="stroke:#181818;stroke-width:1.0;" x1="103" x2="202" y1="142.1094" y2="142.1094"/><text fill="#000000" font-family="sans-serif" font-size="13" lengthAdjust="spacing" textLength="54" x="110" y="137.3672">getNews</text><path d="M154,157.1094 L216,157.1094 L216,164.4199 L206,174.4199 L154,174.4199 L154,157.1094 " fill="#EEEEEE" style="stroke:#000000;stroke-width:1.5;"/><rect fill="none" height="174.8867" style="stroke:#000000;stroke-width:1.5;" width="372.5" x="154" y="157.1094"/><text fill="#000000" font-family="sans-serif" font-size="13" font-weight="bold" lengthAdjust="spacing" textLength="17" x="169" y="170.6777">alt</text><text fill="#000000" font-family="sans-serif" font-size="11" font-weight="bold" lengthAdjust="spacing" textLength="131" x="231" y="169.7441">[query contains source]</text><polygon fill="#181818" points="380,191.7305,390,195.7305,380,199.7305,384,195.7305" style="stroke:#181818;stroke-width:1.0;"/><line style="stroke:#181818;stroke-width:1.0;" x1="218" x2="386" y1="195.7305" y2="195.7305"/><text fill="#000000" font-family="sans-serif" font-size="13" lengthAdjust="spacing" textLength="155" x="225" y="190.9883">getBySocCodeAndSource</text><polygon fill="#181818" points="465,205.7305,475,209.7305,465,213.7305,469,209.7305" style="stroke:#181818;stroke-width:1.0;"/><line style="stroke:#181818;stroke-width:1.0;" x1="402" x2="471" y1="209.7305" y2="209.7305"/><polygon fill="#181818" points="413,219.7305,403,223.7305,413,227.7305,409,223.7305" style="stroke:#181818;stroke-width:1.0;"/><line style="stroke:#181818;stroke-width:1.0;stroke-dasharray:2.0,2.0;" x1="407" x2="481" y1="223.7305" y2="223.7305"/><polygon fill="#181818" points="229,233.7305,219,237.7305,229,241.7305,225,237.7305" style="stroke:#181818;stroke-width:1.0;"/><line style="stroke:#181818;stroke-width:1.0;stroke-dasharray:2.0,2.0;" x1="223" x2="396" y1="237.7305" y2="237.7305"/><line style="stroke:#000000;stroke-width:1.0;stroke-dasharray:2.0,2.0;" x1="154" x2="526.5" y1="246.7305" y2="246.7305"/><text fill="#000000" font-family="sans-serif" font-size="11" font-weight="bold" lengthAdjust="spacing" textLength="177" x="159" y="257.3652">[query does not contain source]</text><polygon fill="#181818" points="380,277.9961,390,281.9961,380,285.9961,384,281.9961" style="stroke:#181818;stroke-width:1.0;"/><line style="stroke:#181818;stroke-width:1.0;" x1="218" x2="386" y1="281.9961" y2="281.9961"/><text fill="#000000" font-family="sans-serif" font-size="13" lengthAdjust="spacing" textLength="88" x="225" y="277.2539">getBySocCode</text><polygon fill="#181818" points="465,291.9961,475,295.9961,465,299.9961,469,295.9961" style="stroke:#181818;stroke-width:1.0;"/><line style="stroke:#181818;stroke-width:1.0;" x1="402" x2="471" y1="295.9961" y2="295.9961"/><polygon fill="#181818" points="413,305.9961,403,309.9961,413,313.9961,409,309.9961" style="stroke:#181818;stroke-width:1.0;"/><line style="stroke:#181818;stroke-width:1.0;stroke-dasharray:2.0,2.0;" x1="407" x2="481" y1="309.9961" y2="309.9961"/><polygon fill="#181818" points="229,319.9961,219,323.9961,229,327.9961,225,323.9961" style="stroke:#181818;stroke-width:1.0;"/><line style="stroke:#181818;stroke-width:1.0;stroke-dasharray:2.0,2.0;" x1="223" x2="396" y1="323.9961" y2="323.9961"/><polygon fill="#181818" points="114,340.9961,104,344.9961,114,348.9961,110,344.9961" style="stroke:#181818;stroke-width:1.0;"/><line style="stroke:#181818;stroke-width:1.0;stroke-dasharray:2.0,2.0;" x1="108" x2="212" y1="344.9961" y2="344.9961"/><polygon fill="#181818" points="29.5,354.9961,19.5,358.9961,29.5,362.9961,25.5,358.9961" style="stroke:#181818;stroke-width:1.0;"/><line style="stroke:#181818;stroke-width:1.0;stroke-dasharray:2.0,2.0;" x1="23.5" x2="97" y1="358.9961" y2="358.9961"/><!--SRC=[bKyv3W8n3Epz2d-03r0WSJGqKAnuW3UnKAIL3Ou3ulTa8Q05Aj9aCfxnJAYuKl1q8MTK0QWFDJnieTSYaUo6ExxcjOgR3WCRdCWyXNGYySUeOxkam3_yPhc7I4uzPSPD0m27BSuMNpjnZaVsaOElGPEsZ8cE1iTpuLelL3KboPYrMEs1zKmzRKMjyxIlRfs6jKPUIkm-BQEcojzbHzxOYyaKyb0_zCoEoXb5_LNYxmx_Hak41jjr1m00]--></g></svg>