<svg xmlns="http://www.w3.org/2000/svg" xmlns:xlink="http://www.w3.org/1999/xlink" contentStyleType="text/css" height="385px" preserveAspectRatio="none" style="width:587px;height:385px;background:#FFFFFF;" version="1.1" viewBox="0 0 587 385" width="587px" zoomAndPan="magnify"><defs/><g><rect fill="#FFFFFF" height="182.9316" style="stroke:#181818;stroke-width:1.0;" width="10" x="171" y="112.7988"/><rect fill="#FFFFFF" height="42" style="stroke:#181818;stroke-width:1.0;" width="10" x="291" y="166.4199"/><rect fill="#FFFFFF" height="14" style="stroke:#181818;stroke-width:1.0;" width="10" x="374" y="180.4199"/><rect fill="#FFFFFF" height="42" style="stroke:#181818;stroke-width:1.0;" width="10" x="462" y="244.7305"/><rect fill="#FFFFFF" height="14" style="stroke:#181818;stroke-width:1.0;" width="10" x="547" y="258.7305"/><rect fill="none" height="88.6211" style="stroke:#000000;stroke-width:1.5;" width="309.5" x="117" y="127.7988"/><line style="stroke:#181818;stroke-width:0.5;stroke-dasharray:5.0,5.0;" x1="54" x2="54" y1="81.4883" y2="304.7305"/><line style="stroke:#181818;stroke-width:0.5;stroke-dasharray:5.0,5.0;" x1="176" x2="176" y1="81.4883" y2="304.7305"/><line style="stroke:#181818;stroke-width:0.5;stroke-dasharray:5.0,5.0;" x1="295.5" x2="295.5" y1="81.4883" y2="304.7305"/><line style="stroke:#181818;stroke-width:0.5;stroke-dasharray:5.0,5.0;" x1="378.5" x2="378.5" y1="81.4883" y2="304.7305"/><line style="stroke:#181818;stroke-width:0.5;stroke-dasharray:5.0,5.0;" x1="466.5" x2="466.5" y1="81.4883" y2="304.7305"/><line style="stroke:#181818;stroke-width:0.5;stroke-dasharray:5.0,5.0;" x1="551.5" x2="551.5" y1="81.4883" y2="304.7305"/><text fill="#000000" font-family="sans-serif" font-size="14" lengthAdjust="spacing" textLength="92" x="5" y="78.5352">System Timer</text><ellipse cx="54" cy="13.5" fill="#E2E2F0" rx="8" ry="8" style="stroke:#181818;stroke-width:0.5;"/><path d="M54,21.5 L54,48.5 M41,29.5 L67,29.5 M54,48.5 L41,63.5 M54,48.5 L67,63.5 " fill="none" style="stroke:#181818;stroke-width:0.5;"/><text fill="#000000" font-family="sans-serif" font-size="14" lengthAdjust="spacing" textLength="92" x="5" y="317.2656">System Timer</text><ellipse cx="54" cy="328.7188" fill="#E2E2F0" rx="8" ry="8" style="stroke:#181818;stroke-width:0.5;"/><path d="M54,336.7188 L54,363.7188 M41,344.7188 L67,344.7188 M54,363.7188 L41,378.7188 M54,363.7188 L67,378.7188 " fill="none" style="stroke:#181818;stroke-width:0.5;"/><rect fill="#E2E2F0" height="30.4883" rx="2.5" ry="2.5" style="stroke:#181818;stroke-width:0.5;" width="98" x="127" y="50"/><text fill="#000000" font-family="sans-serif" font-size="14" lengthAdjust="spacing" textLength="84" x="134" y="70.5352">NewsService</text><rect fill="#E2E2F0" height="30.4883" rx="2.5" ry="2.5" style="stroke:#181818;stroke-width:0.5;" width="98" x="127" y="303.7305"/><text fill="#000000" font-family="sans-serif" font-size="14" lengthAdjust="spacing" textLength="84" x="134" y="324.2656">NewsService</text><text fill="#000000" font-family="sans-serif" font-size="14" lengthAdjust="spacing" textLength="65" x="260.5" y="78.5352">RSSClient</text><path d="M275.5,37 L275.5,61 M275.5,49 L292.5,49 " fill="none" style="stroke:#181818;stroke-width:0.5;"/><ellipse cx="304.5" cy="49" fill="#E2E2F0" rx="12" ry="12" style="stroke:#181818;stroke-width:0.5;"/><text fill="#000000" font-family="sans-serif" font-size="14" lengthAdjust="spacing" textLength="65" x="260.5" y="317.2656">RSSClient</text><path d="M275.5,324.2188 L275.5,348.2188 M275.5,336.2188 L292.5,336.2188 " fill="none" style="stroke:#181818;stroke-width:0.5;"/><ellipse cx="304.5" cy="336.2188" fill="#E2E2F0" rx="12" ry="12" style="stroke:#181818;stroke-width:0.5;"/><text fill="#000000" font-family="sans-serif" font-size="14" lengthAdjust="spacing" textLength="69" x="341.5" y="78.5352">RSS Feeds</text><ellipse cx="379" cy="13.5" fill="#E2E2F0" rx="8" ry="8" style="stroke:#181818;stroke-width:0.5;"/><path d="M379,21.5 L379,48.5 M366,29.5 L392,29.5 M379,48.5 L366,63.5 M379,48.5 L392,63.5 " fill="none" style="stroke:#181818;stroke-width:0.5;"/><text fill="#000000" font-family="sans-serif" font-size="14" lengthAdjust="spacing" textLength="69" x="341.5" y="317.2656">RSS Feeds</text><ellipse cx="379" cy="328.7188" fill="#E2E2F0" rx="8" ry="8" style="stroke:#181818;stroke-width:0.5;"/><path d="M379,336.7188 L379,363.7188 M366,344.7188 L392,344.7188 M379,363.7188 L366,378.7188 M379,363.7188 L392,378.7188 " fill="none" style="stroke:#181818;stroke-width:0.5;"/><rect fill="#E2E2F0" height="30.4883" rx="2.5" ry="2.5" style="stroke:#181818;stroke-width:0.5;" width="81" x="426.5" y="50"/><text fill="#000000" font-family="sans-serif" font-size="14" lengthAdjust="spacing" textLength="67" x="433.5" y="70.5352">NewsDAO</text><rect fill="#E2E2F0" height="30.4883" rx="2.5" ry="2.5" style="stroke:#181818;stroke-width:0.5;" width="81" x="426.5" y="303.7305"/><text fill="#000000" font-family="sans-serif" font-size="14" lengthAdjust="spacing" textLength="67" x="433.5" y="324.2656">NewsDAO</text><text fill="#000000" font-family="sans-serif" font-size="14" lengthAdjust="spacing" textLength="63" x="517.5" y="78.5352">Database</text><path d="M534,29 C534,19 552,19 552,19 C552,19 570,19 570,29 L570,55 C570,65 552,65 552,65 C552,65 534,65 534,55 L534,29 " fill="#E2E2F0" style="stroke:#181818;stroke-width:1.5;"/><path d="M534,29 C534,39 552,39 552,39 C552,39 570,39 570,29 " fill="none" style="stroke:#181818;stroke-width:1.5;"/><text fill="#000000" font-family="sans-serif" font-size="14" lengthAdjust="spacing" textLength="63" x="517.5" y="317.2656">Database</text><path d="M534,330.2188 C534,320.2188 552,320.2188 552,320.2188 C552,320.2188 570,320.2188 570,330.2188 L570,356.2188 C570,366.2188 552,366.2188 552,366.2188 C552,366.2188 534,366.2188 534,356.2188 L534,330.2188 " fill="#E2E2F0" style="stroke:#181818;stroke-width:1.5;"/><path d="M534,330.2188 C534,340.2188 552,340.2188 552,340.2188 C552,340.2188 570,340.2188 570,330.2188 " fill="none" style="stroke:#181818;stroke-width:1.5;"/><rect fill="#FFFFFF" height="182.9316" style="stroke:#181818;stroke-width:1.0;" width="10" x="171" y="112.7988"/><rect fill="#FFFFFF" height="42" style="stroke:#181818;stroke-width:1.0;" width="10" x="291" y="166.4199"/><rect fill="#FFFFFF" height="14" style="stroke:#181818;stroke-width:1.0;" width="10" x="374" y="180.4199"/><rect fill="#FFFFFF" height="42" style="stroke:#181818;stroke-width:1.0;" width="10" x="462" y="244.7305"/><rect fill="#FFFFFF" height="14" style="stroke:#181818;stroke-width:1.0;" width="10" x="547" y="258.7305"/><polygon fill="#181818" points="159,108.7988,169,112.7988,159,116.7988,163,112.7988" style="stroke:#181818;stroke-width:1.0;"/><line style="stroke:#181818;stroke-width:1.0;" x1="54" x2="165" y1="112.7988" y2="112.7988"/><text fill="#000000" font-family="sans-serif" font-size="13" lengthAdjust="spacing" textLength="98" x="61" y="108.0566">fetchRSSFeeds()</text><path d="M117,127.7988 L191,127.7988 L191,135.1094 L181,145.1094 L117,145.1094 L117,127.7988 " fill="#EEEEEE" style="stroke:#000000;stroke-width:1.5;"/><rect fill="none" height="88.6211" style="stroke:#000000;stroke-width:1.5;" width="309.5" x="117" y="127.7988"/><text fill="#000000" font-family="sans-serif" font-size="13" font-weight="bold" lengthAdjust="spacing" textLength="29" x="132" y="141.3672">loop</text><text fill="#000000" font-family="sans-serif" font-size="11" font-weight="bold" lengthAdjust="spacing" textLength="114" x="206" y="140.4336">[until all feeds read]</text><polygon fill="#181818" points="279,162.4199,289,166.4199,279,170.4199,283,166.4199" style="stroke:#181818;stroke-width:1.0;"/><line style="stroke:#181818;stroke-width:1.0;" x1="181" x2="285" y1="166.4199" y2="166.4199"/><text fill="#000000" font-family="sans-serif" font-size="13" lengthAdjust="spacing" textLength="91" x="188" y="161.6777">fetchRSSFeed()</text><polygon fill="#181818" points="362,176.4199,372,180.4199,362,184.4199,366,180.4199" style="stroke:#181818;stroke-width:1.0;"/><line style="stroke:#181818;stroke-width:1.0;" x1="301" x2="368" y1="180.4199" y2="180.4199"/><polygon fill="#181818" points="312,190.4199,302,194.4199,312,198.4199,308,194.4199" style="stroke:#181818;stroke-width:1.0;"/><line style="stroke:#181818;stroke-width:1.0;stroke-dasharray:2.0,2.0;" x1="306" x2="378" y1="194.4199" y2="194.4199"/><polygon fill="#181818" points="192,204.4199,182,208.4199,192,212.4199,188,208.4199" style="stroke:#181818;stroke-width:1.0;"/><line style="stroke:#181818;stroke-width:1.0;stroke-dasharray:2.0,2.0;" x1="186" x2="295" y1="208.4199" y2="208.4199"/><polygon fill="#181818" points="450,240.7305,460,244.7305,450,248.7305,454,244.7305" style="stroke:#181818;stroke-width:1.0;"/><line style="stroke:#181818;stroke-width:1.0;" x1="181" x2="456" y1="244.7305" y2="244.7305"/><text fill="#000000" font-family="sans-serif" font-size="13" lengthAdjust="spacing" textLength="36" x="188" y="239.9883">save()</text><polygon fill="#181818" points="535,254.7305,545,258.7305,535,262.7305,539,258.7305" style="stroke:#181818;stroke-width:1.0;"/><line style="stroke:#181818;stroke-width:1.0;" x1="472" x2="541" y1="258.7305" y2="258.7305"/><polygon fill="#181818" points="483,268.7305,473,272.7305,483,276.7305,479,272.7305" style="stroke:#181818;stroke-width:1.0;"/><line style="stroke:#181818;stroke-width:1.0;stroke-dasharray:2.0,2.0;" x1="477" x2="551" y1="272.7305" y2="272.7305"/><polygon fill="#181818" points="192,282.7305,182,286.7305,192,290.7305,188,286.7305" style="stroke:#181818;stroke-width:1.0;"/><line style="stroke:#181818;stroke-width:1.0;stroke-dasharray:2.0,2.0;" x1="186" x2="466" y1="286.7305" y2="286.7305"/><!--SRC=[PS_D3e8m303WUv-YyQG7Ny23YP5ur4HyWG8rBXaRsGg6jxVyYd9QrsvVMwh5Kowc8M7q3a0lFk0cRQDmYGzJSjWWHPGkWeg2cDnKv0Il_8ufXyRa39clNK6XnNkQdgrX9nEa2Rmm5x5NdbsqKfBJ3GeIoYWo9cC0qBV4_N7P2GzgIFvIjbUtEx3ULrWxCHR9sg451gO2bl-KcMVxGzJublJTC6HWgOER3dOhRfnSiKWDAp8bj3OlyQjy0000]--></g></svg>