<svg xmlns="http://www.w3.org/2000/svg" xmlns:xlink="http://www.w3.org/1999/xlink" contentStyleType="text/css" height="312px" preserveAspectRatio="none" style="width:496px;height:312px;background:#FFFFFF;" version="1.1" viewBox="0 0 496 312" width="496px" zoomAndPan="magnify"><defs/><g><rect fill="#FFFFFF" height="100.6211" style="stroke:#181818;stroke-width:1.0;" width="10" x="129.5" y="112.7988"/><rect fill="#FFFFFF" height="57.3105" style="stroke:#181818;stroke-width:1.0;" width="10" x="286.5" y="142.1094"/><rect fill="#FFFFFF" height="14" style="stroke:#181818;stroke-width:1.0;" width="10" x="426" y="171.4199"/><line style="stroke:#181818;stroke-width:0.5;stroke-dasharray:5.0,5.0;" x1="18" x2="18" y1="81.4883" y2="231.4199"/><line style="stroke:#181818;stroke-width:0.5;stroke-dasharray:5.0,5.0;" x1="134.5" x2="134.5" y1="81.4883" y2="231.4199"/><line style="stroke:#181818;stroke-width:0.5;stroke-dasharray:5.0,5.0;" x1="291.5" x2="291.5" y1="81.4883" y2="231.4199"/><line style="stroke:#181818;stroke-width:0.5;stroke-dasharray:5.0,5.0;" x1="430.5" x2="430.5" y1="81.4883" y2="231.4199"/><text fill="#000000" font-family="sans-serif" font-size="14" lengthAdjust="spacing" textLength="14" x="8.5" y="78.5352">UI</text><ellipse cx="18.5" cy="13.5" fill="#E2E2F0" rx="8" ry="8" style="stroke:#181818;stroke-width:0.5;"/><path d="M18.5,21.5 L18.5,48.5 M5.5,29.5 L31.5,29.5 M18.5,48.5 L5.5,63.5 M18.5,48.5 L31.5,63.5 " fill="none" style="stroke:#181818;stroke-width:0.5;"/><text fill="#000000" font-family="sans-serif" font-size="14" lengthAdjust="spacing" textLength="14" x="8.5" y="243.9551">UI</text><ellipse cx="18.5" cy="255.4082" fill="#E2E2F0" rx="8" ry="8" style="stroke:#181818;stroke-width:0.5;"/><path d="M18.5,263.4082 L18.5,290.4082 M5.5,271.4082 L31.5,271.4082 M18.5,290.4082 L5.5,305.4082 M18.5,290.4082 L31.5,305.4082 " fill="none" style="stroke:#181818;stroke-width:0.5;"/><text fill="#000000" font-family="sans-serif" font-size="14" lengthAdjust="spacing" textLength="148" x="57.5" y="78.5352">OccupationController</text><path d="M114,37 L114,61 M114,49 L131,49 " fill="none" style="stroke:#181818;stroke-width:0.5;"/><ellipse cx="143" cy="49" fill="#E2E2F0" rx="12" ry="12" style="stroke:#181818;stroke-width:0.5;"/><text fill="#000000" font-family="sans-serif" font-size="14" lengthAdjust="spacing" textLength="148" x="57.5" y="243.9551">OccupationController</text><path d="M114,250.9082 L114,274.9082 M114,262.9082 L131,262.9082 " fill="none" style="stroke:#181818;stroke-width:0.5;"/><ellipse cx="143" cy="262.9082" fill="#E2E2F0" rx="12" ry="12" style="stroke:#181818;stroke-width:0.5;"/><rect fill="#E2E2F0" height="30.4883" rx="2.5" ry="2.5" style="stroke:#181818;stroke-width:0.5;" width="140" x="221.5" y="50"/><text fill="#000000" font-family="sans-serif" font-size="14" lengthAdjust="spacing" textLength="126" x="228.5" y="70.5352">OccupationService</text><rect fill="#E2E2F0" height="30.4883" rx="2.5" ry="2.5" style="stroke:#181818;stroke-width:0.5;" width="140" x="221.5" y="230.4199"/><text fill="#000000" font-family="sans-serif" font-size="14" lengthAdjust="spacing" textLength="126" x="228.5" y="250.9551">OccupationService</text><rect fill="#E2E2F0" height="30.4883" rx="2.5" ry="2.5" style="stroke:#181818;stroke-width:0.5;" width="119" x="371.5" y="50"/><text fill="#000000" font-family="sans-serif" font-size="14" lengthAdjust="spacing" textLength="105" x="378.5" y="70.5352">OccupationTrie</text><rect fill="#E2E2F0" height="30.4883" rx="2.5" ry="2.5" style="stroke:#181818;stroke-width:0.5;" width="119" x="371.5" y="230.4199"/><text fill="#000000" font-family="sans-serif" font-size="14" lengthAdjust="spacing" textLength="105" x="378.5" y="250.9551">OccupationTrie</text><rect fill="#FFFFFF" height="100.6211" style="stroke:#181818;stroke-width:1.0;" width="10" x="129.5" y="112.7988"/><rect fill="#FFFFFF" height="57.3105" style="stroke:#181818;stroke-width:1.0;" width="10" x="286.5" y="142.1094"/><rect fill="#FFFFFF" height="14" style="stroke:#181818;stroke-width:1.0;" width="10" x="426" y="171.4199"/><polygon fill="#181818" points="117.5,108.7988,127.5,112.7988,117.5,116.7988,121.5,112.7988" style="stroke:#181818;stroke-width:1.0;"/><line style="stroke:#181818;stroke-width:1.0;" x1="18.5" x2="123.5" y1="112.7988" y2="112.7988"/><text fill="#000000" font-family="sans-serif" font-size="13" lengthAdjust="spacing" textLength="92" x="25.5" y="108.0566">getOccupation</text><polygon fill="#181818" points="274.5,138.1094,284.5,142.1094,274.5,146.1094,278.5,142.1094" style="stroke:#181818;stroke-width:1.0;"/><line style="stroke:#181818;stroke-width:1.0;" x1="139.5" x2="280.5" y1="142.1094" y2="142.1094"/><text fill="#000000" font-family="sans-serif" font-size="13" lengthAdjust="spacing" textLength="92" x="146.5" y="137.3672">getOccupation</text><polygon fill="#181818" points="414,167.4199,424,171.4199,414,175.4199,418,171.4199" style="stroke:#181818;stroke-width:1.0;"/><line style="stroke:#181818;stroke-width:1.0;" x1="296.5" x2="420" y1="171.4199" y2="171.4199"/><text fill="#000000" font-family="sans-serif" font-size="13" lengthAdjust="spacing" textLength="88" x="303.5" y="166.6777">getBySocCode</text><polygon fill="#181818" points="307.5,181.4199,297.5,185.4199,307.5,189.4199,303.5,185.4199" style="stroke:#181818;stroke-width:1.0;"/><line style="stroke:#181818;stroke-width:1.0;stroke-dasharray:2.0,2.0;" x1="301.5" x2="430" y1="185.4199" y2="185.4199"/><polygon fill="#181818" points="150.5,195.4199,140.5,199.4199,150.5,203.4199,146.5,199.4199" style="stroke:#181818;stroke-width:1.0;"/><line style="stroke:#181818;stroke-width:1.0;stroke-dasharray:2.0,2.0;" x1="144.5" x2="290.5" y1="199.4199" y2="199.4199"/><polygon fill="#181818" points="29.5,209.4199,19.5,213.4199,29.5,217.4199,25.5,213.4199" style="stroke:#181818;stroke-width:1.0;"/><line style="stroke:#181818;stroke-width:1.0;stroke-dasharray:2.0,2.0;" x1="23.5" x2="133.5" y1="213.4199" y2="213.4199"/><!--SRC=[VOun3i9G28PtJi45l823WvqwETGU02an90sy45wJtbvDDLfJdGZvlmz-gkd4gHEbe1l0VV70leMBLniePZmnrqAfRerRXe-Z11IALDP2bXz09p4fou_q72e0VOkxm-PHtEDLyft09hIIdm__c2zYfJsQBCvnxfmR7mH2iePzZHi0]--></g></svg>