<svg xmlns="http://www.w3.org/2000/svg" xmlns:xlink="http://www.w3.org/1999/xlink" contentStyleType="text/css" height="312px" preserveAspectRatio="none" style="width:540px;height:312px;background:#FFFFFF;" version="1.1" viewBox="0 0 540 312" width="540px" zoomAndPan="magnify"><defs/><g><rect fill="#FFFFFF" height="100.6211" style="stroke:#181818;stroke-width:1.0;" width="10" x="169.5" y="112.7988"/><rect fill="#FFFFFF" height="57.3105" style="stroke:#181818;stroke-width:1.0;" width="10" x="330.5" y="142.1094"/><rect fill="#FFFFFF" height="14" style="stroke:#181818;stroke-width:1.0;" width="10" x="470" y="171.4199"/><line style="stroke:#181818;stroke-width:0.5;stroke-dasharray:5.0,5.0;" x1="18" x2="18" y1="81.4883" y2="231.4199"/><line style="stroke:#181818;stroke-width:0.5;stroke-dasharray:5.0,5.0;" x1="174.5" x2="174.5" y1="81.4883" y2="231.4199"/><line style="stroke:#181818;stroke-width:0.5;stroke-dasharray:5.0,5.0;" x1="335.5" x2="335.5" y1="81.4883" y2="231.4199"/><line style="stroke:#181818;stroke-width:0.5;stroke-dasharray:5.0,5.0;" x1="474.5" x2="474.5" y1="81.4883" y2="231.4199"/><text fill="#000000" font-family="sans-serif" font-size="14" lengthAdjust="spacing" textLength="14" x="8.5" y="78.5352">UI</text><ellipse cx="18.5" cy="13.5" fill="#E2E2F0" rx="8" ry="8" style="stroke:#181818;stroke-width:0.5;"/><path d="M18.5,21.5 L18.5,48.5 M5.5,29.5 L31.5,29.5 M18.5,48.5 L5.5,63.5 M18.5,48.5 L31.5,63.5 " fill="none" style="stroke:#181818;stroke-width:0.5;"/><text fill="#000000" font-family="sans-serif" font-size="14" lengthAdjust="spacing" textLength="14" x="8.5" y="243.9551">UI</text><ellipse cx="18.5" cy="255.4082" fill="#E2E2F0" rx="8" ry="8" style="stroke:#181818;stroke-width:0.5;"/><path d="M18.5,263.4082 L18.5,290.4082 M5.5,271.4082 L31.5,271.4082 M18.5,290.4082 L5.5,305.4082 M18.5,290.4082 L31.5,305.4082 " fill="none" style="stroke:#181818;stroke-width:0.5;"/><text fill="#000000" font-family="sans-serif" font-size="14" lengthAdjust="spacing" textLength="148" x="97.5" y="78.5352">OccupationController</text><path d="M154,37 L154,61 M154,49 L171,49 " fill="none" style="stroke:#181818;stroke-width:0.5;"/><ellipse cx="183" cy="49" fill="#E2E2F0" rx="12" ry="12" style="stroke:#181818;stroke-width:0.5;"/><text fill="#000000" font-family="sans-serif" font-size="14" lengthAdjust="spacing" textLength="148" x="97.5" y="243.9551">OccupationController</text><path d="M154,250.9082 L154,274.9082 M154,262.9082 L171,262.9082 " fill="none" style="stroke:#181818;stroke-width:0.5;"/><ellipse cx="183" cy="262.9082" fill="#E2E2F0" rx="12" ry="12" style="stroke:#181818;stroke-width:0.5;"/><rect fill="#E2E2F0" height="30.4883" rx="2.5" ry="2.5" style="stroke:#181818;stroke-width:0.5;" width="140" x="265.5" y="50"/><text fill="#000000" font-family="sans-serif" font-size="14" lengthAdjust="spacing" textLength="126" x="272.5" y="70.5352">OccupationService</text><rect fill="#E2E2F0" height="30.4883" rx="2.5" ry="2.5" style="stroke:#181818;stroke-width:0.5;" width="140" x="265.5" y="230.4199"/><text fill="#000000" font-family="sans-serif" font-size="14" lengthAdjust="spacing" textLength="126" x="272.5" y="250.9551">OccupationService</text><rect fill="#E2E2F0" height="30.4883" rx="2.5" ry="2.5" style="stroke:#181818;stroke-width:0.5;" width="119" x="415.5" y="50"/><text fill="#000000" font-family="sans-serif" font-size="14" lengthAdjust="spacing" textLength="105" x="422.5" y="70.5352">OccupationTrie</text><rect fill="#E2E2F0" height="30.4883" rx="2.5" ry="2.5" style="stroke:#181818;stroke-width:0.5;" width="119" x="415.5" y="230.4199"/><text fill="#000000" font-family="sans-serif" font-size="14" lengthAdjust="spacing" textLength="105" x="422.5" y="250.9551">OccupationTrie</text><rect fill="#FFFFFF" height="100.6211" style="stroke:#181818;stroke-width:1.0;" width="10" x="169.5" y="112.7988"/><rect fill="#FFFFFF" height="57.3105" style="stroke:#181818;stroke-width:1.0;" width="10" x="330.5" y="142.1094"/><rect fill="#FFFFFF" height="14" style="stroke:#181818;stroke-width:1.0;" width="10" x="470" y="171.4199"/><polygon fill="#181818" points="157.5,108.7988,167.5,112.7988,157.5,116.7988,161.5,112.7988" style="stroke:#181818;stroke-width:1.0;"/><line style="stroke:#181818;stroke-width:1.0;" x1="18.5" x2="163.5" y1="112.7988" y2="112.7988"/><text fill="#000000" font-family="sans-serif" font-size="13" lengthAdjust="spacing" textLength="132" x="25.5" y="108.0566">getChildOccupations</text><polygon fill="#181818" points="318.5,138.1094,328.5,142.1094,318.5,146.1094,322.5,142.1094" style="stroke:#181818;stroke-width:1.0;"/><line style="stroke:#181818;stroke-width:1.0;" x1="179.5" x2="324.5" y1="142.1094" y2="142.1094"/><text fill="#000000" font-family="sans-serif" font-size="13" lengthAdjust="spacing" textLength="132" x="186.5" y="137.3672">getChildOccupations</text><polygon fill="#181818" points="458,167.4199,468,171.4199,458,175.4199,462,171.4199" style="stroke:#181818;stroke-width:1.0;"/><line style="stroke:#181818;stroke-width:1.0;" x1="340.5" x2="464" y1="171.4199" y2="171.4199"/><text fill="#000000" font-family="sans-serif" font-size="13" lengthAdjust="spacing" textLength="84" x="347.5" y="166.6777">getWithPrefix</text><polygon fill="#181818" points="351.5,181.4199,341.5,185.4199,351.5,189.4199,347.5,185.4199" style="stroke:#181818;stroke-width:1.0;"/><line style="stroke:#181818;stroke-width:1.0;stroke-dasharray:2.0,2.0;" x1="345.5" x2="474" y1="185.4199" y2="185.4199"/><polygon fill="#181818" points="190.5,195.4199,180.5,199.4199,190.5,203.4199,186.5,199.4199" style="stroke:#181818;stroke-width:1.0;"/><line style="stroke:#181818;stroke-width:1.0;stroke-dasharray:2.0,2.0;" x1="184.5" x2="334.5" y1="199.4199" y2="199.4199"/><polygon fill="#181818" points="29.5,209.4199,19.5,213.4199,29.5,217.4199,25.5,213.4199" style="stroke:#181818;stroke-width:1.0;"/><line style="stroke:#181818;stroke-width:1.0;stroke-dasharray:2.0,2.0;" x1="23.5" x2="173.5" y1="213.4199" y2="213.4199"/><!--SRC=[XOv12i9034NtEKKku0LSkEcgAmKjhkCqsi2Gb9WfzVOgAbgfk0hXl_SJAc6KGWOAHbE0ssAEJGq7AzgINt2TKkafnBGo3RUSsQ4d3qdIayO7i6KV9F6FTEV204sDYzLiAIxnn55rajjtV8PPT5BnFFlNVt4J-VxLmznBT1ldeupW7CNrQrm1]--></g></svg>