<svg xmlns="http://www.w3.org/2000/svg" xmlns:xlink="http://www.w3.org/1999/xlink" contentStyleType="text/css" height="312px" preserveAspectRatio="none" style="width:635px;height:312px;background:#FFFFFF;" version="1.1" viewBox="0 0 635 312" width="635px" zoomAndPan="magnify"><defs/><g><rect fill="#FFFFFF" height="100.6211" style="stroke:#181818;stroke-width:1.0;" width="10" x="242" y="112.7988"/><rect fill="#FFFFFF" height="14" style="stroke:#181818;stroke-width:1.0;" width="10" x="408.5" y="142.1094"/><rect fill="#FFFFFF" height="14" style="stroke:#181818;stroke-width:1.0;" width="10" x="564.5" y="185.4199"/><line style="stroke:#181818;stroke-width:0.5;stroke-dasharray:5.0,5.0;" x1="86" x2="86" y1="81.4883" y2="231.4199"/><line style="stroke:#181818;stroke-width:0.5;stroke-dasharray:5.0,5.0;" x1="247" x2="247" y1="81.4883" y2="231.4199"/><line style="stroke:#181818;stroke-width:0.5;stroke-dasharray:5.0,5.0;" x1="413" x2="413" y1="81.4883" y2="231.4199"/><line style="stroke:#181818;stroke-width:0.5;stroke-dasharray:5.0,5.0;" x1="569" x2="569" y1="81.4883" y2="231.4199"/><text fill="#000000" font-family="sans-serif" font-size="14" lengthAdjust="spacing" textLength="156" x="5" y="78.5352">ApplicationReadyEvent</text><ellipse cx="86" cy="13.5" fill="#E2E2F0" rx="8" ry="8" style="stroke:#181818;stroke-width:0.5;"/><path d="M86,21.5 L86,48.5 M73,29.5 L99,29.5 M86,48.5 L73,63.5 M86,48.5 L99,63.5 " fill="none" style="stroke:#181818;stroke-width:0.5;"/><text fill="#000000" font-family="sans-serif" font-size="14" lengthAdjust="spacing" textLength="156" x="5" y="243.9551">ApplicationReadyEvent</text><ellipse cx="86" cy="255.4082" fill="#E2E2F0" rx="8" ry="8" style="stroke:#181818;stroke-width:0.5;"/><path d="M86,263.4082 L86,290.4082 M73,271.4082 L99,271.4082 M86,290.4082 L73,305.4082 M86,290.4082 L99,305.4082 " fill="none" style="stroke:#181818;stroke-width:0.5;"/><rect fill="#E2E2F0" height="30.4883" rx="2.5" ry="2.5" style="stroke:#181818;stroke-width:0.5;" width="140" x="177" y="50"/><text fill="#000000" font-family="sans-serif" font-size="14" lengthAdjust="spacing" textLength="126" x="184" y="70.5352">OccupationService</text><rect fill="#E2E2F0" height="30.4883" rx="2.5" ry="2.5" style="stroke:#181818;stroke-width:0.5;" width="140" x="177" y="230.4199"/><text fill="#000000" font-family="sans-serif" font-size="14" lengthAdjust="spacing" textLength="126" x="184" y="250.9551">OccupationService</text><rect fill="#E2E2F0" height="30.4883" style="stroke:#181818;stroke-width:0.5;" width="169" x="331" y="46"/><rect fill="#E2E2F0" height="30.4883" style="stroke:#181818;stroke-width:0.5;" width="169" x="327" y="50"/><text fill="#000000" font-family="sans-serif" font-size="14" lengthAdjust="spacing" textLength="155" x="334" y="70.5352">SOC Definition Dataset</text><rect fill="#E2E2F0" height="30.4883" style="stroke:#181818;stroke-width:0.5;" width="169" x="331" y="230.4199"/><rect fill="#E2E2F0" height="30.4883" style="stroke:#181818;stroke-width:0.5;" width="169" x="327" y="234.4199"/><text fill="#000000" font-family="sans-serif" font-size="14" lengthAdjust="spacing" textLength="155" x="334" y="254.9551">SOC Definition Dataset</text><rect fill="#E2E2F0" height="30.4883" rx="2.5" ry="2.5" style="stroke:#181818;stroke-width:0.5;" width="119" x="510" y="50"/><text fill="#000000" font-family="sans-serif" font-size="14" lengthAdjust="spacing" textLength="105" x="517" y="70.5352">OccupationTrie</text><rect fill="#E2E2F0" height="30.4883" rx="2.5" ry="2.5" style="stroke:#181818;stroke-width:0.5;" width="119" x="510" y="230.4199"/><text fill="#000000" font-family="sans-serif" font-size="14" lengthAdjust="spacing" textLength="105" x="517" y="250.9551">OccupationTrie</text><rect fill="#FFFFFF" height="100.6211" style="stroke:#181818;stroke-width:1.0;" width="10" x="242" y="112.7988"/><rect fill="#FFFFFF" height="14" style="stroke:#181818;stroke-width:1.0;" width="10" x="408.5" y="142.1094"/><rect fill="#FFFFFF" height="14" style="stroke:#181818;stroke-width:1.0;" width="10" x="564.5" y="185.4199"/><polygon fill="#181818" points="230,108.7988,240,112.7988,230,116.7988,234,112.7988" style="stroke:#181818;stroke-width:1.0;"/><line style="stroke:#181818;stroke-width:1.0;" x1="86" x2="236" y1="112.7988" y2="112.7988"/><text fill="#000000" font-family="sans-serif" font-size="13" lengthAdjust="spacing" textLength="123" x="93" y="108.0566">loadOccupationTrie</text><polygon fill="#181818" points="396.5,138.1094,406.5,142.1094,396.5,146.1094,400.5,142.1094" style="stroke:#181818;stroke-width:1.0;"/><line style="stroke:#181818;stroke-width:1.0;" x1="252" x2="402.5" y1="142.1094" y2="142.1094"/><text fill="#000000" font-family="sans-serif" font-size="13" lengthAdjust="spacing" textLength="61" x="259" y="137.3672">Read files</text><polygon fill="#181818" points="263,152.1094,253,156.1094,263,160.1094,259,156.1094" style="stroke:#181818;stroke-width:1.0;"/><line style="stroke:#181818;stroke-width:1.0;stroke-dasharray:2.0,2.0;" x1="257" x2="412.5" y1="156.1094" y2="156.1094"/><polygon fill="#181818" points="552.5,181.4199,562.5,185.4199,552.5,189.4199,556.5,185.4199" style="stroke:#181818;stroke-width:1.0;"/><line style="stroke:#181818;stroke-width:1.0;" x1="252" x2="558.5" y1="185.4199" y2="185.4199"/><text fill="#000000" font-family="sans-serif" font-size="13" lengthAdjust="spacing" textLength="40" x="259" y="180.6777">addAll</text><polygon fill="#181818" points="263,195.4199,253,199.4199,263,203.4199,259,199.4199" style="stroke:#181818;stroke-width:1.0;"/><line style="stroke:#181818;stroke-width:1.0;stroke-dasharray:2.0,2.0;" x1="257" x2="568.5" y1="199.4199" y2="199.4199"/><polygon fill="#181818" points="97,209.4199,87,213.4199,97,217.4199,93,213.4199" style="stroke:#181818;stroke-width:1.0;"/><line style="stroke:#181818;stroke-width:1.0;stroke-dasharray:2.0,2.0;" x1="91" x2="246" y1="213.4199" y2="213.4199"/><!--SRC=[TOz12i9034NtSuhGlHVeGX3hkc2zGCYa40WpmqnQyFREL5reTHL-yl_x11UBI2Oh6aCCpbKHCtIdb5G8JMAuClhxPULW7M21tAHBc4r84WQ3aMX9ctNYl0gnewZAr3O5kcaymy2p16aB6D2my9DLJtz8jopitDO5X-E-0dhGYFuhiBVLRElleNq1ioYNIhKbXz_cJs3DeVSdrNVcDHu0]--></g></svg>