<svg xmlns="http://www.w3.org/2000/svg" xmlns:xlink="http://www.w3.org/1999/xlink" contentStyleType="text/css" height="312px" preserveAspectRatio="none" style="width:610px;height:312px;background:#FFFFFF;" version="1.1" viewBox="0 0 610 312" width="610px" zoomAndPan="magnify"><defs/><g><rect fill="#FFFFFF" height="100.6211" style="stroke:#181818;stroke-width:1.0;" width="10" x="204.5" y="112.7988"/><rect fill="#FFFFFF" height="57.3105" style="stroke:#181818;stroke-width:1.0;" width="10" x="400.5" y="142.1094"/><rect fill="#FFFFFF" height="14" style="stroke:#181818;stroke-width:1.0;" width="10" x="540" y="171.4199"/><line style="stroke:#181818;stroke-width:0.5;stroke-dasharray:5.0,5.0;" x1="18" x2="18" y1="81.4883" y2="231.4199"/><line style="stroke:#181818;stroke-width:0.5;stroke-dasharray:5.0,5.0;" x1="209.5" x2="209.5" y1="81.4883" y2="231.4199"/><line style="stroke:#181818;stroke-width:0.5;stroke-dasharray:5.0,5.0;" x1="405.5" x2="405.5" y1="81.4883" y2="231.4199"/><line style="stroke:#181818;stroke-width:0.5;stroke-dasharray:5.0,5.0;" x1="544.5" x2="544.5" y1="81.4883" y2="231.4199"/><text fill="#000000" font-family="sans-serif" font-size="14" lengthAdjust="spacing" textLength="14" x="8.5" y="78.5352">UI</text><ellipse cx="18.5" cy="13.5" fill="#E2E2F0" rx="8" ry="8" style="stroke:#181818;stroke-width:0.5;"/><path d="M18.5,21.5 L18.5,48.5 M5.5,29.5 L31.5,29.5 M18.5,48.5 L5.5,63.5 M18.5,48.5 L31.5,63.5 " fill="none" style="stroke:#181818;stroke-width:0.5;"/><text fill="#000000" font-family="sans-serif" font-size="14" lengthAdjust="spacing" textLength="14" x="8.5" y="243.9551">UI</text><ellipse cx="18.5" cy="255.4082" fill="#E2E2F0" rx="8" ry="8" style="stroke:#181818;stroke-width:0.5;"/><path d="M18.5,263.4082 L18.5,290.4082 M5.5,271.4082 L31.5,271.4082 M18.5,290.4082 L5.5,305.4082 M18.5,290.4082 L31.5,305.4082 " fill="none" style="stroke:#181818;stroke-width:0.5;"/><text fill="#000000" font-family="sans-serif" font-size="14" lengthAdjust="spacing" textLength="148" x="132.5" y="78.5352">OccupationController</text><path d="M189,37 L189,61 M189,49 L206,49 " fill="none" style="stroke:#181818;stroke-width:0.5;"/><ellipse cx="218" cy="49" fill="#E2E2F0" rx="12" ry="12" style="stroke:#181818;stroke-width:0.5;"/><text fill="#000000" font-family="sans-serif" font-size="14" lengthAdjust="spacing" textLength="148" x="132.5" y="243.9551">OccupationController</text><path d="M189,250.9082 L189,274.9082 M189,262.9082 L206,262.9082 " fill="none" style="stroke:#181818;stroke-width:0.5;"/><ellipse cx="218" cy="262.9082" fill="#E2E2F0" rx="12" ry="12" style="stroke:#181818;stroke-width:0.5;"/><rect fill="#E2E2F0" height="30.4883" rx="2.5" ry="2.5" style="stroke:#181818;stroke-width:0.5;" width="140" x="335.5" y="50"/><text fill="#000000" font-family="sans-serif" font-size="14" lengthAdjust="spacing" textLength="126" x="342.5" y="70.5352">OccupationService</text><rect fill="#E2E2F0" height="30.4883" rx="2.5" ry="2.5" style="stroke:#181818;stroke-width:0.5;" width="140" x="335.5" y="230.4199"/><text fill="#000000" font-family="sans-serif" font-size="14" lengthAdjust="spacing" textLength="126" x="342.5" y="250.9551">OccupationService</text><rect fill="#E2E2F0" height="30.4883" rx="2.5" ry="2.5" style="stroke:#181818;stroke-width:0.5;" width="119" x="485.5" y="50"/><text fill="#000000" font-family="sans-serif" font-size="14" lengthAdjust="spacing" textLength="105" x="492.5" y="70.5352">OccupationTrie</text><rect fill="#E2E2F0" height="30.4883" rx="2.5" ry="2.5" style="stroke:#181818;stroke-width:0.5;" width="119" x="485.5" y="230.4199"/><text fill="#000000" font-family="sans-serif" font-size="14" lengthAdjust="spacing" textLength="105" x="492.5" y="250.9551">OccupationTrie</text><rect fill="#FFFFFF" height="100.6211" style="stroke:#181818;stroke-width:1.0;" width="10" x="204.5" y="112.7988"/><rect fill="#FFFFFF" height="57.3105" style="stroke:#181818;stroke-width:1.0;" width="10" x="400.5" y="142.1094"/><rect fill="#FFFFFF" height="14" style="stroke:#181818;stroke-width:1.0;" width="10" x="540" y="171.4199"/><polygon fill="#181818" points="192.5,108.7988,202.5,112.7988,192.5,116.7988,196.5,112.7988" style="stroke:#181818;stroke-width:1.0;"/><line style="stroke:#181818;stroke-width:1.0;" x1="18.5" x2="198.5" y1="112.7988" y2="112.7988"/><text fill="#000000" font-family="sans-serif" font-size="13" lengthAdjust="spacing" textLength="167" x="25.5" y="108.0566">getOccupationsBySocCode</text><polygon fill="#181818" points="388.5,138.1094,398.5,142.1094,388.5,146.1094,392.5,142.1094" style="stroke:#181818;stroke-width:1.0;"/><line style="stroke:#181818;stroke-width:1.0;" x1="214.5" x2="394.5" y1="142.1094" y2="142.1094"/><text fill="#000000" font-family="sans-serif" font-size="13" lengthAdjust="spacing" textLength="167" x="221.5" y="137.3672">getOccupationsBySocCode</text><polygon fill="#181818" points="528,167.4199,538,171.4199,528,175.4199,532,171.4199" style="stroke:#181818;stroke-width:1.0;"/><line style="stroke:#181818;stroke-width:1.0;" x1="410.5" x2="534" y1="171.4199" y2="171.4199"/><text fill="#000000" font-family="sans-serif" font-size="13" lengthAdjust="spacing" textLength="88" x="417.5" y="166.6777">getBySocCode</text><polygon fill="#181818" points="421.5,181.4199,411.5,185.4199,421.5,189.4199,417.5,185.4199" style="stroke:#181818;stroke-width:1.0;"/><line style="stroke:#181818;stroke-width:1.0;stroke-dasharray:2.0,2.0;" x1="415.5" x2="544" y1="185.4199" y2="185.4199"/><polygon fill="#181818" points="225.5,195.4199,215.5,199.4199,225.5,203.4199,221.5,199.4199" style="stroke:#181818;stroke-width:1.0;"/><line style="stroke:#181818;stroke-width:1.0;stroke-dasharray:2.0,2.0;" x1="219.5" x2="404.5" y1="199.4199" y2="199.4199"/><polygon fill="#181818" points="29.5,209.4199,19.5,213.4199,29.5,217.4199,25.5,213.4199" style="stroke:#181818;stroke-width:1.0;"/><line style="stroke:#181818;stroke-width:1.0;stroke-dasharray:2.0,2.0;" x1="23.5" x2="208.5" y1="213.4199" y2="213.4199"/><!--SRC=[ZOun2i9W34Rtd28Ny08E3dRgv51xW9W62PIanFo5tbwBIgrKS0hXUzzBgAGJfuwKWcu0ZyK3snekNgoZcF34N0PATQlSChpl9M2WI6KToF83Q2H6PVcHdaC5eArnTzYKuXwlaajoEqwDS-MTm2Q-qhnE_-Luiol1_DsplLH2ieHzZJi0]--></g></svg>