<svg xmlns="http://www.w3.org/2000/svg" xmlns:xlink="http://www.w3.org/1999/xlink" xmlns:lucid="lucid" width="3680" height="2016.21"><g transform="translate(0 0)" lucid:page-tab-id="0_0"><path d="M0 0h3680v2016.2H0z" fill="#fff"/><g filter="url(#a)"><path d="M331.5 284a20 20 0 0 1 20-20H720a20 20 0 0 1 20 20v740a20 20 0 0 1-20 20H351.5a20 20 0 0 1-20-20z" stroke="#747474" stroke-width="3" fill="#fff"/><path d="M351.5 354.83h387v3h-387z" fill="#e5e5e5"/><use xlink:href="#b" transform="matrix(1,0,0,1,351.48762366864764,296.16666693333315) translate(0 33.944444355555554)"/></g><g filter="url(#c)"><path d="M385.74 424a20 20 0 0 1 20-20h260a20 20 0 0 1 20 20v121.1a20 20 0 0 1-20 20h-260a20 20 0 0 1-20-20z" stroke="#747474" stroke-width="3" fill="#fff"/><path d="M405.74 485.5h278.5v3h-278.5z" fill="#e5e5e5"/><use xlink:href="#d" transform="matrix(1,0,0,1,405.7438118343239,445.4999999999998) translate(0 21.333333333333332)"/><use xlink:href="#e" transform="matrix(1,0,0,1,405.7438118343239,445.4999999999998) translate(67.18518518518519 21.333333333333332)"/></g><g filter="url(#c)"><path d="M385.74 629.52a20 20 0 0 1 20-20h260a20 20 0 0 1 20 20v121.1a20 20 0 0 1-20 20h-260a20 20 0 0 1-20-20z" stroke="#747474" stroke-width="3" fill="#fff"/><path d="M405.74 691.02h278.5v3h-278.5z" fill="#e5e5e5"/><use xlink:href="#d" transform="matrix(1,0,0,1,405.7438118343239,651.0247786536131) translate(0 21.333333333333332)"/><use xlink:href="#f" transform="matrix(1,0,0,1,405.7438118343239,651.0247786536131) translate(67.18518518518519 21.333333333333332)"/></g><g filter="url(#c)"><path d="M385.74 835.05a20 20 0 0 1 20-20h260a20 20 0 0 1 20 20v121.1a20 20 0 0 1-20 20h-260a20 20 0 0 1-20-20z" stroke="#747474" stroke-width="3" fill="#fff"/><path d="M405.74 896.55h278.5v3h-278.5z" fill="#e5e5e5"/><use xlink:href="#d" transform="matrix(1,0,0,1,405.7438118343239,856.5495573072262) translate(0 21.333333333333332)"/><use xlink:href="#g" transform="matrix(1,0,0,1,405.7438118343239,856.5495573072262) translate(67.18518518518519 21.333333333333332)"/></g><g filter="url(#a)"><path d="M880 284a20 20 0 0 1 20-20h368.5a20 20 0 0 1 20 20v740a20 20 0 0 1-20 20H900a20 20 0 0 1-20-20z" stroke="#747474" stroke-width="3" fill="#fff"/><path d="M900 354.83h387v3H900z" fill="#e5e5e5"/><use xlink:href="#h" transform="matrix(1,0,0,1,900,296.1666669333331) translate(0 33.944444355555554)"/></g><g filter="url(#i)"><path d="M934.26 404a20 20 0 0 1 20-20h260a20 20 0 0 1 20 20v138.7a20 20 0 0 1-20 20h-260a20 20 0 0 1-20-20z" stroke="#747474" stroke-width="3" fill="#fff"/><path d="M954.26 483.1h278.5v3h-278.5z" fill="#e5e5e5"/><use xlink:href="#j" transform="matrix(1,0,0,1,954.2561881656761,407.89999999999986) translate(0 21.73333333333333)"/><use xlink:href="#e" transform="matrix(1,0,0,1,954.2561881656761,407.89999999999986) translate(0 56.93333333333334)"/></g><g filter="url(#k)"><path d="M934.26 623.52a20 20 0 0 1 20-20h260a20 20 0 0 1 20 20v138.63a20 20 0 0 1-20 20h-260a20 20 0 0 1-20-20z" stroke="#747474" stroke-width="3" fill="#fff"/><path d="M954.26 685.02h278.5v3h-278.5z" fill="#e5e5e5"/><use xlink:href="#l" transform="matrix(1,0,0,1,954.2561881656761,645.024778653613) translate(0 21.333333333333332)"/><use xlink:href="#f" transform="matrix(1,0,0,1,954.2561881656761,645.024778653613) translate(153.03703703703698 21.333333333333332)"/></g><g filter="url(#a)"><path d="M1428.5 284a20 20 0 0 1 20-20h368.53a20 20 0 0 1 20 20v740a20 20 0 0 1-20 20H1448.5a20 20 0 0 1-20-20z" stroke="#747474" stroke-width="3" fill="#fff"/><path d="M1448.5 354.83h387.03v3H1448.5z" fill="#e5e5e5"/><use xlink:href="#m" transform="matrix(1,0,0,1,1448.5123763313522,296.1666669333331) translate(0 33.944444355555554)"/><use xlink:href="#n" transform="matrix(1,0,0,1,1448.5123763313522,296.1666669333331) translate(176.86419566913582 33.944444355555554)"/></g><g filter="url(#i)"><path d="M1482.77 399.2a20 20 0 0 1 20-20h260a20 20 0 0 1 20 20v138.7a20 20 0 0 1-20 20h-260a20 20 0 0 1-20-20z" stroke="#747474" stroke-width="3" fill="#fff"/><path d="M1502.77 478.3h278.5v3h-278.5z" fill="#e5e5e5"/><use xlink:href="#o" transform="matrix(1,0,0,1,1502.7685644970284,403.09733333333315) translate(0 21.73333333333333)"/><use xlink:href="#e" transform="matrix(1,0,0,1,1502.7685644970284,403.09733333333315) translate(0 56.93333333333334)"/></g><g filter="url(#i)"><path d="M1482.77 623.52a20 20 0 0 1 20-20h260a20 20 0 0 1 20 20v138.7a20 20 0 0 1-20 20h-260a20 20 0 0 1-20-20z" stroke="#747474" stroke-width="3" fill="#fff"/><path d="M1502.77 702.63h278.5v3h-278.5z" fill="#e5e5e5"/><use xlink:href="#o" transform="matrix(1,0,0,1,1502.7685644970284,627.4247786536132) translate(0 21.73333333333333)"/><use xlink:href="#f" transform="matrix(1,0,0,1,1502.7685644970284,627.4247786536132) translate(0 56.93333333333334)"/></g><g filter="url(#i)"><path d="M1482.77 835.05a20 20 0 0 1 20-20h260a20 20 0 0 1 20 20v138.7a20 20 0 0 1-20 20h-260a20 20 0 0 1-20-20z" stroke="#747474" stroke-width="3" fill="#fff"/><path d="M1502.77 914.15h278.5v3h-278.5z" fill="#e5e5e5"/><use xlink:href="#o" transform="matrix(1,0,0,1,1502.7685644970284,838.9495573072263) translate(0 21.73333333333333)"/><use xlink:href="#g" transform="matrix(1,0,0,1,1502.7685644970284,838.9495573072263) translate(0 56.93333333333334)"/></g><g filter="url(#a)"><path d="M1977.03 284a20 20 0 0 1 20-20h368.5a20 20 0 0 1 20 20v740a20 20 0 0 1-20 20h-368.5a20 20 0 0 1-20-20z" stroke="#747474" stroke-width="3" fill="#fff"/><path d="M1997.03 354.83h387v3h-387z" fill="#e5e5e5"/><use xlink:href="#p" transform="matrix(1,0,0,1,1997.0247526627045,296.1666669333331) translate(0 33.944444355555554)"/></g><g filter="url(#k)"><path d="M2031.28 399.2a20 20 0 0 1 20-20h260a20 20 0 0 1 20 20v138.62a20 20 0 0 1-20 20h-260a20 20 0 0 1-20-20z" stroke="#747474" stroke-width="3" fill="#fff"/><path d="M2051.28 460.7h278.5v3h-278.5z" fill="#e5e5e5"/><use xlink:href="#q" transform="matrix(1,0,0,1,2051.2809408283806,420.6973333333332) translate(0 21.333333333333332)"/><use xlink:href="#e" transform="matrix(1,0,0,1,2051.2809408283806,420.6973333333332) translate(138.29629629629628 21.333333333333332)"/></g><g filter="url(#c)"><path d="M2031.28 629.52a20 20 0 0 1 20-20h260a20 20 0 0 1 20 20v121.1a20 20 0 0 1-20 20h-260a20 20 0 0 1-20-20z" stroke="#747474" stroke-width="3" fill="#fff"/><path d="M2051.28 691.02h278.5v3h-278.5z" fill="#e5e5e5"/><use xlink:href="#q" transform="matrix(1,0,0,1,2051.2809408283806,651.0247786536131) translate(0 21.333333333333332)"/><use xlink:href="#f" transform="matrix(1,0,0,1,2051.2809408283806,651.0247786536131) translate(138.29629629629628 21.333333333333332)"/></g><path d="M1000 38a6 6 0 0 1 6-6h1428a6 6 0 0 1 6 6v158a6 6 0 0 1-6 6H1006a6 6 0 0 1-6-6z" stroke="#000" stroke-opacity="0" stroke-width="3" fill="#fff" fill-opacity="0"/><use xlink:href="#r" transform="matrix(1,0,0,1,1005,37) translate(17.50000000000091 93.33333333333326)"/><use xlink:href="#s" transform="matrix(1,0,0,1,1005,37) translate(366.94444444444485 93.33333333333326)"/><use xlink:href="#t" transform="matrix(1,0,0,1,1005,37) translate(502.87037037037055 93.33333333333326)"/><use xlink:href="#u" transform="matrix(1,0,0,1,1005,37) translate(878.2407407407404 93.33333333333326)"/><use xlink:href="#v" transform="matrix(1,0,0,1,1005,37) translate(916.9444444444441 93.33333333333326)"/><use xlink:href="#w" transform="matrix(1,0,0,1,1005,37) translate(1092.4999999999995 93.33333333333326)"/><use xlink:href="#x" transform="matrix(1,0,0,1,1005,37) translate(1216.5740740740735 93.33333333333326)"/><path d="M60 448.98a6 6 0 0 1 6-6h228a6 6 0 0 1 6 6v88.67a6 6 0 0 1-6 6H66a6 6 0 0 1-6-6z" stroke="#000" stroke-opacity="0" stroke-width="3" fill="#fff" fill-opacity="0"/><use xlink:href="#y" transform="matrix(1,0,0,1,65,447.97966666666656) translate(21.814814814814838 33.065972222222214)"/><use xlink:href="#z" transform="matrix(1,0,0,1,65,447.97966666666656) translate(71.13580246913583 78.39930555555554)"/><path d="M60 645.1a6 6 0 0 1 6-6h228a6 6 0 0 1 6 6v88.67a6 6 0 0 1-6 6H66a6 6 0 0 1-6-6z" stroke="#000" stroke-opacity="0" stroke-width="3" fill="#fff" fill-opacity="0"/><use xlink:href="#A" transform="matrix(1,0,0,1,65,644.1031119869465) translate(47.891975308642 33.065972222222214)"/><use xlink:href="#z" transform="matrix(1,0,0,1,65,644.1031119869465) translate(71.13580246913583 78.39930555555554)"/><path d="M60 860.03a6 6 0 0 1 6-6h228a6 6 0 0 1 6 6v88.67a6 6 0 0 1-6 6H66a6 6 0 0 1-6-6z" stroke="#000" stroke-opacity="0" stroke-width="3" fill="#fff" fill-opacity="0"/><use xlink:href="#B" transform="matrix(1,0,0,1,65,859.029223973893) translate(21.44753086419756 33.065972222222214)"/><use xlink:href="#C" transform="matrix(1,0,0,1,65,859.029223973893) translate(101.93518518518519 33.065972222222214)"/><use xlink:href="#z" transform="matrix(1,0,0,1,65,859.029223973893) translate(71.13580246913583 78.39930555555554)"/><g filter="url(#a)"><path d="M2525.54 284a20 20 0 0 1 20-20h368.5a20 20 0 0 1 20 20v740a20 20 0 0 1-20 20h-368.5a20 20 0 0 1-20-20z" stroke="#747474" stroke-width="3" fill="#fff"/><path d="M2545.54 354.83h387v3h-387z" fill="#e5e5e5"/><use xlink:href="#D" transform="matrix(1,0,0,1,2545.5371289940567,296.16666693333315) translate(0 33.944444355555554)"/></g><g filter="url(#i)"><path d="M2579.8 404a20 20 0 0 1 20-20h260a20 20 0 0 1 20 20v138.7a20 20 0 0 1-20 20h-260a20 20 0 0 1-20-20z" stroke="#747474" stroke-width="3" fill="#fff"/><path d="M2599.8 483.1h278.5v3h-278.5z" fill="#e5e5e5"/><use xlink:href="#E" transform="matrix(1,0,0,1,2599.793317159733,407.89999999999986) translate(0 21.73333333333333)"/><use xlink:href="#e" transform="matrix(1,0,0,1,2599.793317159733,407.89999999999986) translate(0 56.93333333333334)"/></g><g filter="url(#i)"><path d="M2579.8 623.52a20 20 0 0 1 20-20h260a20 20 0 0 1 20 20v138.7a20 20 0 0 1-20 20h-260a20 20 0 0 1-20-20z" stroke="#747474" stroke-width="3" fill="#fff"/><path d="M2599.8 702.63h278.5v3h-278.5z" fill="#e5e5e5"/><use xlink:href="#E" transform="matrix(1,0,0,1,2599.793317159733,627.424778653613) translate(0 21.73333333333333)"/><use xlink:href="#f" transform="matrix(1,0,0,1,2599.793317159733,627.424778653613) translate(0 56.93333333333334)"/></g><g filter="url(#k)"><path d="M2579.8 835.05a20 20 0 0 1 20-20h260a20 20 0 0 1 20 20v138.63a20 20 0 0 1-20 20h-260a20 20 0 0 1-20-20z" stroke="#747474" stroke-width="3" fill="#fff"/><path d="M2599.8 896.55h278.5v3h-278.5z" fill="#e5e5e5"/><use xlink:href="#F" transform="matrix(1,0,0,1,2599.793317159733,856.5495573072263) translate(0 21.333333333333332)"/><use xlink:href="#g" transform="matrix(1,0,0,1,2599.793317159733,856.5495573072263) translate(181.03703703703698 21.333333333333332)"/></g><g filter="url(#a)"><path d="M331.5 1143.53a20 20 0 0 1 20-20H720a20 20 0 0 1 20 20v740a20 20 0 0 1-20 20H351.5a20 20 0 0 1-20-20z" stroke="#747474" stroke-width="3" fill="#fff"/><path d="M351.5 1214.36h387v3h-387z" fill="#e5e5e5"/><use xlink:href="#G" transform="matrix(1,0,0,1,351.48762366864776,1155.6914455869462) translate(0 33.944444355555554)"/></g><g filter="url(#k)"><path d="M385.74 1263.53a20 20 0 0 1 20-20h260a20 20 0 0 1 20 20v138.62a20 20 0 0 1-20 20h-260a20 20 0 0 1-20-20z" stroke="#747474" stroke-width="3" fill="#fff"/><path d="M405.74 1325.03h278.5v3h-278.5z" fill="#e5e5e5"/><use xlink:href="#H" transform="matrix(1,0,0,1,405.7438118343239,1285.0247786536129) translate(0 21.333333333333332)"/><use xlink:href="#e" transform="matrix(1,0,0,1,405.7438118343239,1285.0247786536129) translate(59.25925925925925 21.333333333333332)"/></g><g filter="url(#k)"><path d="M385.74 1483.05a20 20 0 0 1 20-20h260a20 20 0 0 1 20 20v138.63a20 20 0 0 1-20 20h-260a20 20 0 0 1-20-20z" stroke="#747474" stroke-width="3" fill="#fff"/><path d="M405.74 1544.55h278.5v3h-278.5z" fill="#e5e5e5"/><use xlink:href="#H" transform="matrix(1,0,0,1,405.7438118343239,1504.5495573072262) translate(0 21.333333333333332)"/><use xlink:href="#f" transform="matrix(1,0,0,1,405.7438118343239,1504.5495573072262) translate(59.25925925925925 21.333333333333332)"/></g><g filter="url(#c)"><path d="M385.74 1694.57a20 20 0 0 1 20-20h260a20 20 0 0 1 20 20v121.1a20 20 0 0 1-20 20h-260a20 20 0 0 1-20-20z" stroke="#747474" stroke-width="3" fill="#fff"/><path d="M405.74 1756.07h278.5v3h-278.5z" fill="#e5e5e5"/><use xlink:href="#I" transform="matrix(1,0,0,1,405.7438118343239,1716.0743359608393) translate(0 21.333333333333332)"/><use xlink:href="#g" transform="matrix(1,0,0,1,405.7438118343239,1716.0743359608393) translate(82.88888888888889 21.333333333333332)"/></g><g filter="url(#a)"><path d="M880 1143.53a20 20 0 0 1 20-20h368.5a20 20 0 0 1 20 20v740a20 20 0 0 1-20 20H900a20 20 0 0 1-20-20z" stroke="#747474" stroke-width="3" fill="#fff"/><path d="M900 1214.36h387v3H900z" fill="#e5e5e5"/><use xlink:href="#J" transform="matrix(1,0,0,1,900,1155.6914455869462) translate(0 33.944444355555554)"/><use xlink:href="#K" transform="matrix(1,0,0,1,900,1155.6914455869462) translate(76.23456709876544 33.944444355555554)"/></g><g filter="url(#k)"><path d="M934.26 1263.53a20 20 0 0 1 20-20h260a20 20 0 0 1 20 20v138.62a20 20 0 0 1-20 20h-260a20 20 0 0 1-20-20z" stroke="#747474" stroke-width="3" fill="#fff"/><path d="M954.26 1325.03h278.5v3h-278.5z" fill="#e5e5e5"/><use xlink:href="#L" transform="matrix(1,0,0,1,954.2561881656761,1285.0247786536129) translate(0 21.333333333333332)"/><use xlink:href="#e" transform="matrix(1,0,0,1,954.2561881656761,1285.0247786536129) translate(132.44444444444443 21.333333333333332)"/></g><g filter="url(#k)"><path d="M934.26 1483.05a20 20 0 0 1 20-20h260a20 20 0 0 1 20 20v138.63a20 20 0 0 1-20 20h-260a20 20 0 0 1-20-20z" stroke="#747474" stroke-width="3" fill="#fff"/><path d="M954.26 1544.55h278.5v3h-278.5z" fill="#e5e5e5"/><use xlink:href="#L" transform="matrix(1,0,0,1,954.2561881656761,1504.5495573072262) translate(0 21.333333333333332)"/><use xlink:href="#f" transform="matrix(1,0,0,1,954.2561881656761,1504.5495573072262) translate(132.44444444444443 21.333333333333332)"/></g><g filter="url(#a)"><path d="M1428.5 1143.53a20 20 0 0 1 20-20h368.53a20 20 0 0 1 20 20v740a20 20 0 0 1-20 20H1448.5a20 20 0 0 1-20-20z" stroke="#747474" stroke-width="3" fill="#fff"/><path d="M1448.5 1214.36h387.03v3H1448.5z" fill="#e5e5e5"/><use xlink:href="#M" transform="matrix(1,0,0,1,1448.5123763313522,1155.6914455869462) translate(0 33.944444355555554)"/></g><g filter="url(#k)"><path d="M1482.77 1263.53a20 20 0 0 1 20-20h260a20 20 0 0 1 20 20v138.62a20 20 0 0 1-20 20h-260a20 20 0 0 1-20-20z" stroke="#747474" stroke-width="3" fill="#fff"/><path d="M1502.77 1325.03h278.5v3h-278.5z" fill="#e5e5e5"/><use xlink:href="#N" transform="matrix(1,0,0,1,1502.7685644970284,1285.0247786536129) translate(0 21.333333333333332)"/><use xlink:href="#e" transform="matrix(1,0,0,1,1502.7685644970284,1285.0247786536129) translate(102.74074074074073 21.333333333333332)"/></g><g filter="url(#k)"><path d="M1482.77 1483.05a20 20 0 0 1 20-20h260a20 20 0 0 1 20 20v138.63a20 20 0 0 1-20 20h-260a20 20 0 0 1-20-20z" stroke="#747474" stroke-width="3" fill="#fff"/><path d="M1502.77 1544.55h278.5v3h-278.5z" fill="#e5e5e5"/><use xlink:href="#N" transform="matrix(1,0,0,1,1502.7685644970284,1504.5495573072262) translate(0 21.333333333333332)"/><use xlink:href="#f" transform="matrix(1,0,0,1,1502.7685644970284,1504.5495573072262) translate(102.74074074074073 21.333333333333332)"/></g><g filter="url(#c)"><path d="M1482.77 1694.57a20 20 0 0 1 20-20h260a20 20 0 0 1 20 20v121.1a20 20 0 0 1-20 20h-260a20 20 0 0 1-20-20z" stroke="#747474" stroke-width="3" fill="#fff"/><path d="M1502.77 1756.07h278.5v3h-278.5z" fill="#e5e5e5"/><use xlink:href="#N" transform="matrix(1,0,0,1,1502.7685644970284,1716.0743359608389) translate(0 21.333333333333332)"/><use xlink:href="#g" transform="matrix(1,0,0,1,1502.7685644970284,1716.0743359608389) translate(102.74074074074073 21.333333333333332)"/></g><g filter="url(#a)"><path d="M1977.03 1143.53a20 20 0 0 1 20-20h368.5a20 20 0 0 1 20 20v740a20 20 0 0 1-20 20h-368.5a20 20 0 0 1-20-20z" stroke="#747474" stroke-width="3" fill="#fff"/><path d="M1997.03 1214.36h387v3h-387z" fill="#e5e5e5"/><use xlink:href="#O" transform="matrix(1,0,0,1,1997.0247526627045,1155.6914455869462) translate(0 33.944444355555554)"/></g><g filter="url(#k)"><path d="M2031.28 1263.53a20 20 0 0 1 20-20h260a20 20 0 0 1 20 20v138.62a20 20 0 0 1-20 20h-260a20 20 0 0 1-20-20z" stroke="#747474" stroke-width="3" fill="#fff"/><path d="M2051.28 1325.03h278.5v3h-278.5z" fill="#e5e5e5"/><use xlink:href="#P" transform="matrix(1,0,0,1,2051.2809408283806,1285.0247786536129) translate(0 21.333333333333332)"/><use xlink:href="#e" transform="matrix(1,0,0,1,2051.2809408283806,1285.0247786536129) translate(129.25925925925924 21.333333333333332)"/></g><g filter="url(#k)"><path d="M2031.28 1483.05a20 20 0 0 1 20-20h260a20 20 0 0 1 20 20v138.63a20 20 0 0 1-20 20h-260a20 20 0 0 1-20-20z" stroke="#747474" stroke-width="3" fill="#fff"/><path d="M2051.28 1544.55h278.5v3h-278.5z" fill="#e5e5e5"/><use xlink:href="#P" transform="matrix(1,0,0,1,2051.2809408283806,1504.5495573072262) translate(0 21.333333333333332)"/><use xlink:href="#f" transform="matrix(1,0,0,1,2051.2809408283806,1504.5495573072262) translate(129.25925925925924 21.333333333333332)"/></g><g filter="url(#a)"><path d="M2525.54 1143.53a20 20 0 0 1 20-20h368.5a20 20 0 0 1 20 20v740a20 20 0 0 1-20 20h-368.5a20 20 0 0 1-20-20z" stroke="#747474" stroke-width="3" fill="#fff"/><path d="M2545.54 1214.36h387v3h-387z" fill="#e5e5e5"/><use xlink:href="#Q" transform="matrix(1,0,0,1,2545.5371289940567,1155.6914455869462) translate(0 33.944444355555554)"/></g><g filter="url(#k)"><path d="M2579.8 1263.53a20 20 0 0 1 20-20h260a20 20 0 0 1 20 20v138.62a20 20 0 0 1-20 20h-260a20 20 0 0 1-20-20z" stroke="#747474" stroke-width="3" fill="#fff"/><path d="M2599.8 1325.03h278.5v3h-278.5z" fill="#e5e5e5"/><use xlink:href="#R" transform="matrix(1,0,0,1,2599.793317159733,1285.0247786536129) translate(0 21.333333333333332)"/><use xlink:href="#e" transform="matrix(1,0,0,1,2599.793317159733,1285.0247786536129) translate(113.11111111111109 21.333333333333332)"/></g><g filter="url(#k)"><path d="M2579.8 1483.05a20 20 0 0 1 20-20h260a20 20 0 0 1 20 20v138.63a20 20 0 0 1-20 20h-260a20 20 0 0 1-20-20z" stroke="#747474" stroke-width="3" fill="#fff"/><path d="M2599.8 1544.55h278.5v3h-278.5z" fill="#e5e5e5"/><use xlink:href="#R" transform="matrix(1,0,0,1,2599.793317159733,1504.5495573072262) translate(0 21.333333333333332)"/><use xlink:href="#f" transform="matrix(1,0,0,1,2599.793317159733,1504.5495573072262) translate(113.11111111111109 21.333333333333332)"/></g><g filter="url(#c)"><path d="M2579.8 1694.57a20 20 0 0 1 20-20h260a20 20 0 0 1 20 20v121.1a20 20 0 0 1-20 20h-260a20 20 0 0 1-20-20z" stroke="#747474" stroke-width="3" fill="#fff"/><path d="M2599.8 1756.07h278.5v3h-278.5z" fill="#e5e5e5"/><use xlink:href="#R" transform="matrix(1,0,0,1,2599.793317159733,1716.0743359608389) translate(0 21.333333333333332)"/><use xlink:href="#g" transform="matrix(1,0,0,1,2599.793317159733,1716.0743359608389) translate(113.11111111111109 21.333333333333332)"/></g><g filter="url(#a)"><path d="M3074.05 284a20 20 0 0 1 20-20h368.5a20 20 0 0 1 20 20v740a20 20 0 0 1-20 20h-368.5a20 20 0 0 1-20-20z" stroke="#747474" stroke-width="3" fill="#fff"/><path d="M3094.05 354.83h387v3h-387z" fill="#e5e5e5"/><use xlink:href="#S" transform="matrix(1,0,0,1,3094.049505325409,296.1666669333331) translate(0 33.944444355555554)"/></g><g filter="url(#i)"><path d="M3128.3 404a20 20 0 0 1 20-20h260a20 20 0 0 1 20 20v138.7a20 20 0 0 1-20 20h-260a20 20 0 0 1-20-20z" stroke="#747474" stroke-width="3" fill="#fff"/><path d="M3148.3 483.1h278.5v3h-278.5z" fill="#e5e5e5"/><use xlink:href="#T" transform="matrix(1,0,0,1,3148.305693491085,407.89999999999986) translate(0 21.73333333333333)"/><use xlink:href="#e" transform="matrix(1,0,0,1,3148.305693491085,407.89999999999986) translate(0 56.93333333333334)"/></g><g filter="url(#k)"><path d="M3128.3 623.52a20 20 0 0 1 20-20h260a20 20 0 0 1 20 20v138.63a20 20 0 0 1-20 20h-260a20 20 0 0 1-20-20z" stroke="#747474" stroke-width="3" fill="#fff"/><path d="M3148.3 685.02h278.5v3h-278.5z" fill="#e5e5e5"/><use xlink:href="#U" transform="matrix(1,0,0,1,3148.305693491085,645.0247786536132) translate(0 21.333333333333332)"/><use xlink:href="#f" transform="matrix(1,0,0,1,3148.305693491085,645.0247786536132) translate(151.3333333333333 21.333333333333332)"/></g><g filter="url(#c)"><path d="M3128.3 835.05a20 20 0 0 1 20-20h260a20 20 0 0 1 20 20v121.1a20 20 0 0 1-20 20h-260a20 20 0 0 1-20-20z" stroke="#747474" stroke-width="3" fill="#fff"/><path d="M3148.3 896.55h278.5v3h-278.5z" fill="#e5e5e5"/><use xlink:href="#U" transform="matrix(1,0,0,1,3148.305693491085,856.5495573072255) translate(0 21.333333333333332)"/><use xlink:href="#g" transform="matrix(1,0,0,1,3148.305693491085,856.5495573072255) translate(151.3333333333333 21.333333333333332)"/></g><path d="M1.5 580.67h3677" fill="none"/><path d="M1.5 580.67h14.95m14.94 0h29.9m14.94 0h29.9m14.94 0h29.9m14.94 0h29.9m14.94 0h29.9m14.94 0h29.9m14.94 0h29.9m14.95 0h29.88m14.95 0h29.9m14.94 0h29.9m14.94 0h29.9m14.95 0h29.9m14.94 0h29.9m14.93 0h29.9m14.94 0h29.9m14.95 0h29.9m14.94 0h29.9m14.94 0h29.9m14.94 0h29.9m14.94 0h29.9m14.94 0h29.9m14.95 0h29.9m14.94 0h29.9m14.95 0h29.9m14.94 0h29.88m14.95 0h29.9m14.94 0h29.9m14.94 0h29.9m14.95 0h29.9m14.95 0h29.9m14.94 0h29.9m14.94 0h29.9m14.94 0h29.9m14.94 0h29.9m14.94 0h29.9m14.95 0h29.9m14.94 0h29.88m14.95 0h29.9m14.94 0h29.9m14.94 0h29.9m14.95 0h29.9m14.94 0h29.9m14.94 0h29.9m14.94 0h29.9m14.94 0h29.9m14.94 0h29.9m14.94 0h29.9m14.94 0h29.9m14.94 0h29.9m14.95 0h29.9m14.94 0h29.9m14.94 0h29.9m14.95 0h29.9m14.94 0h29.9m14.93 0h29.9m14.95 0h29.9m14.94 0h29.9m14.94 0h29.9m14.94 0h29.9m14.94 0h29.9m14.94 0h29.9m14.94 0h29.9m14.95 0h29.9m14.94 0h29.9m14.95 0h29.9m14.94 0h29.88m14.95 0h29.9m14.94 0h29.9m14.94 0h29.9m14.95 0h29.9m14.95 0h29.9m14.94 0h29.9m14.94 0h29.9m14.94 0h29.9m14.94 0h29.9m14.94 0h29.9m14.95 0h29.9m14.94 0h29.88m14.95 0h29.9m14.94 0h29.9m14.94 0h29.9m14.95 0h14.95" stroke="#5e5e5e" stroke-width="3" stroke-linecap="round" fill="none"/><path d="M1.5 798.6h3677" fill="none"/><path d="M1.5 798.6h14.95m14.94 0h29.9m14.94 0h29.9m14.94 0h29.9m14.94 0h29.9m14.94 0h29.9m14.94 0h29.9m14.94 0h29.9m14.95 0h29.88m14.95 0h29.9m14.94 0h29.9m14.94 0h29.9m14.95 0h29.9m14.94 0h29.9m14.93 0h29.9m14.94 0h29.9m14.95 0h29.9m14.94 0h29.9m14.94 0h29.9m14.94 0h29.9m14.94 0h29.9m14.94 0h29.9m14.95 0h29.9m14.94 0h29.9m14.95 0h29.9m14.94 0h29.88m14.95 0h29.9m14.94 0h29.9m14.94 0h29.9m14.95 0h29.9m14.95 0h29.9m14.94 0h29.9m14.94 0h29.9m14.94 0h29.9m14.94 0h29.9m14.94 0h29.9m14.95 0h29.9m14.94 0h29.88m14.95 0h29.9m14.94 0h29.9m14.94 0h29.9m14.95 0h29.9m14.94 0h29.9m14.94 0h29.9m14.94 0h29.9m14.94 0h29.9m14.94 0h29.9m14.94 0h29.9m14.94 0h29.9m14.94 0h29.9m14.95 0h29.9m14.94 0h29.9m14.94 0h29.9m14.95 0h29.9m14.94 0h29.9m14.93 0h29.9m14.95 0h29.9m14.94 0h29.9m14.94 0h29.9m14.94 0h29.9m14.94 0h29.9m14.94 0h29.9m14.94 0h29.9m14.95 0h29.9m14.94 0h29.9m14.95 0h29.9m14.94 0h29.88m14.95 0h29.9m14.94 0h29.9m14.94 0h29.9m14.95 0h29.9m14.95 0h29.9m14.94 0h29.9m14.94 0h29.9m14.94 0h29.9m14.94 0h29.9m14.94 0h29.9m14.95 0h29.9m14.94 0h29.88m14.95 0h29.9m14.94 0h29.9m14.94 0h29.9m14.95 0h14.95" stroke="#5e5e5e" stroke-width="3" stroke-linecap="round" fill="none"/><path d="M1.5 1439.6h3677" fill="none"/><path d="M1.5 1439.6h14.95m14.94 0h29.9m14.94 0h29.9m14.94 0h29.9m14.94 0h29.9m14.94 0h29.9m14.94 0h29.9m14.94 0h29.9m14.95 0h29.88m14.95 0h29.9m14.94 0h29.9m14.94 0h29.9m14.95 0h29.9m14.94 0h29.9m14.93 0h29.9m14.94 0h29.9m14.95 0h29.9m14.94 0h29.9m14.94 0h29.9m14.94 0h29.9m14.94 0h29.9m14.94 0h29.9m14.95 0h29.9m14.94 0h29.9m14.95 0h29.9m14.94 0h29.88m14.95 0h29.9m14.94 0h29.9m14.94 0h29.9m14.95 0h29.9m14.95 0h29.9m14.94 0h29.9m14.94 0h29.9m14.94 0h29.9m14.94 0h29.9m14.94 0h29.9m14.95 0h29.9m14.94 0h29.88m14.95 0h29.9m14.94 0h29.9m14.94 0h29.9m14.95 0h29.9m14.94 0h29.9m14.94 0h29.9m14.94 0h29.9m14.94 0h29.9m14.94 0h29.9m14.94 0h29.9m14.94 0h29.9m14.94 0h29.9m14.95 0h29.9m14.94 0h29.9m14.94 0h29.9m14.95 0h29.9m14.94 0h29.9m14.93 0h29.9m14.95 0h29.9m14.94 0h29.9m14.94 0h29.9m14.94 0h29.9m14.94 0h29.9m14.94 0h29.9m14.94 0h29.9m14.95 0h29.9m14.94 0h29.9m14.95 0h29.9m14.94 0h29.88m14.95 0h29.9m14.94 0h29.9m14.94 0h29.9m14.95 0h29.9m14.95 0h29.9m14.94 0h29.9m14.94 0h29.9m14.94 0h29.9m14.94 0h29.9m14.94 0h29.9m14.95 0h29.9m14.94 0h29.88m14.95 0h29.9m14.94 0h29.9m14.94 0h29.9m14.95 0h14.95" stroke="#5e5e5e" stroke-width="3" stroke-linecap="round" fill="none"/><path d="M1.5 1658.13h3677" fill="none"/><path d="M1.5 1658.13h14.95m14.94 0h29.9m14.94 0h29.9m14.94 0h29.9m14.94 0h29.9m14.94 0h29.9m14.94 0h29.9m14.94 0h29.9m14.95 0h29.88m14.95 0h29.9m14.94 0h29.9m14.94 0h29.9m14.95 0h29.9m14.94 0h29.9m14.93 0h29.9m14.94 0h29.9m14.95 0h29.9m14.94 0h29.9m14.94 0h29.9m14.94 0h29.9m14.94 0h29.9m14.94 0h29.9m14.95 0h29.9m14.94 0h29.9m14.95 0h29.9m14.94 0h29.88m14.95 0h29.9m14.94 0h29.9m14.94 0h29.9m14.95 0h29.9m14.95 0h29.9m14.94 0h29.9m14.94 0h29.9m14.94 0h29.9m14.94 0h29.9m14.94 0h29.9m14.95 0h29.9m14.94 0h29.88m14.95 0h29.9m14.94 0h29.9m14.94 0h29.9m14.95 0h29.9m14.94 0h29.9m14.94 0h29.9m14.94 0h29.9m14.94 0h29.9m14.94 0h29.9m14.94 0h29.9m14.94 0h29.9m14.94 0h29.9m14.95 0h29.9m14.94 0h29.9m14.94 0h29.9m14.95 0h29.9m14.94 0h29.9m14.93 0h29.9m14.95 0h29.9m14.94 0h29.9m14.94 0h29.9m14.94 0h29.9m14.94 0h29.9m14.94 0h29.9m14.94 0h29.9m14.95 0h29.9m14.94 0h29.9m14.95 0h29.9m14.94 0h29.88m14.95 0h29.9m14.94 0h29.9m14.94 0h29.9m14.95 0h29.9m14.95 0h29.9m14.94 0h29.9m14.94 0h29.9m14.94 0h29.9m14.94 0h29.9m14.94 0h29.9m14.95 0h29.9m14.94 0h29.88m14.95 0h29.9m14.94 0h29.9m14.94 0h29.9m14.95 0h14.95" stroke="#5e5e5e" stroke-width="3" stroke-linecap="round" fill="none"/><path d="M60 1321.53a6 6 0 0 1 6-6h228a6 6 0 0 1 6 6v88.66a6 6 0 0 1-6 6H66a6 6 0 0 1-6-6z" stroke="#000" stroke-opacity="0" stroke-width="3" fill="#fff" fill-opacity="0"/><g><use xlink:href="#y" transform="matrix(1,0,0,1,65,1320.5247786536129) translate(21.814814814814838 33.065972222222214)"/><use xlink:href="#z" transform="matrix(1,0,0,1,65,1320.5247786536129) translate(71.13580246913583 78.39930555555554)"/></g><path d="M60 1517.65a6 6 0 0 1 6-6h228a6 6 0 0 1 6 6v88.66a6 6 0 0 1-6 6.02H66a6 6 0 0 1-6-6z" stroke="#000" stroke-opacity="0" stroke-width="3" fill="#fff" fill-opacity="0"/><g><use xlink:href="#A" transform="matrix(1,0,0,1,65,1516.6482239738928) translate(47.891975308642 33.065972222222214)"/><use xlink:href="#z" transform="matrix(1,0,0,1,65,1516.6482239738928) translate(71.13580246913583 78.39930555555554)"/></g><path d="M60 1732.57a6 6 0 0 1 6-6h228a6 6 0 0 1 6 6v88.67a6 6 0 0 1-6 6H66a6 6 0 0 1-6-6z" stroke="#000" stroke-opacity="0" stroke-width="3" fill="#fff" fill-opacity="0"/><g><use xlink:href="#B" transform="matrix(1,0,0,1,65,1731.5743359608393) translate(21.44753086419756 33.065972222222214)"/><use xlink:href="#C" transform="matrix(1,0,0,1,65,1731.5743359608393) translate(101.93518518518519 33.065972222222214)"/><use xlink:href="#z" transform="matrix(1,0,0,1,65,1731.5743359608393) translate(71.13580246913583 78.39930555555554)"/></g><g filter="url(#c)"><path d="M2031.28 844.45a20 20 0 0 1 20-20h260a20 20 0 0 1 20 20v121.1a20 20 0 0 1-20 20h-260a20 20 0 0 1-20-20z" stroke="#747474" stroke-width="3" fill="#fff"/><path d="M2051.28 905.95h278.5v3h-278.5z" fill="#e5e5e5"/><use xlink:href="#q" transform="matrix(1,0,0,1,2051.2809408283806,865.9508906405597) translate(0 21.333333333333332)"/><use xlink:href="#V" transform="matrix(1,0,0,1,2051.2809408283806,865.9508906405597) translate(138.29629629629628 21.333333333333332)"/></g><defs><path d="M203-218l-32-5v-13h84v13l-30 5V0h-21L59-189v171l32 5V0H7v-13l30-5v-200l-30-5v-13h81L203-85v-133" id="W"/><path d="M12-83c0-55 22-85 75-86 52-1 66 33 63 88H64c-1 37 6 64 44 63 14 0 28-4 39-6 3 28-28 25-55 27-57 4-80-31-80-86zm90-17c2-26 0-63-27-48-10 9-11 28-11 48h38" id="X"/><path d="M154-149l38 94 32-94-20-5v-11h54v11l-13 4L190 4h-21l-38-93L93 4H72L13-149c-7-2-15-4-12-16h82v11l-20 5 36 94 38-94h17" id="Y"/><path d="M102-142c-14-17-68-15-54 18 24 26 83 17 83 72 0 62-72 62-120 47v-45h12c4 23 16 37 43 37 35 0 39-37 9-46-31-9-65-19-64-61 0-52 59-55 108-45v43h-11" id="Z"/><g id="b"><use transform="matrix(0.11728394938271604,0,0,0.11728394938271604,0,0)" xlink:href="#W"/><use transform="matrix(0.11728394938271604,0,0,0.11728394938271604,30.376542890123453,0)" xlink:href="#X"/><use transform="matrix(0.11728394938271604,0,0,0.11728394938271604,49.0246908419753,0)" xlink:href="#Y"/><use transform="matrix(0.11728394938271604,0,0,0.11728394938271604,79.40123373209875,0)" xlink:href="#Z"/></g><filter id="a" filterUnits="objectBoundingBox" x="-.01" y="0" width="1.02" height="1.01"><feOffset result="offOut" in="SourceAlpha" dy="3"/><feGaussianBlur result="blurOut" in="offOut" stdDeviation="2.5"/><feColorMatrix result="colorOut" in="blurOut" values="0 0 0 0 0.018823529411764708 0 0 0 0 0.018823529411764708 0 0 0 0 0.018823529411764708 0 0 0 0.2 0"/><feBlend in="SourceGraphic" in2="colorOut"/></filter><g id="d"><use transform="matrix(0.07407407407407407,0,0,0.07407407407407407,0,0)" xlink:href="#W"/><use transform="matrix(0.07407407407407407,0,0,0.07407407407407407,19.185185185185183,0)" xlink:href="#X"/><use transform="matrix(0.07407407407407407,0,0,0.07407407407407407,30.962962962962962,0)" xlink:href="#Y"/><use transform="matrix(0.07407407407407407,0,0,0.07407407407407407,50.148148148148145,0)" xlink:href="#Z"/></g><path d="M76-116c0 86 71 126 135 84l6-39h16l-1 60C138 21 18 1 18-115c0-117 106-141 210-112l1 57h-16l-5-34c-13-9-32-16-54-16-60 0-78 42-78 104" id="aa"/><path d="M90-170c54-1 76 32 76 87 1 56-23 87-77 87-53 0-75-32-75-87s23-86 76-87zM89-14c28-2 26-38 26-69s3-69-26-69c-27 0-24 39-24 69s-3 66 24 69" id="ab"/><path d="M127-114c3-31-26-38-50-25v123l15 4V0H10v-12l16-4v-133l-16-5v-11h64l2 14c31-23 102-32 102 30v105l17 4V0h-82v-12l14-4v-98" id="ac"/><path d="M78-41c-2 24 21 26 40 20C122 3 98 2 77 4 5 10 32-84 27-147H6v-11l25-7 21-38h26v38h35v18H78v106" id="ad"/><path d="M132-132c-21 0-37 9-50 16v100l26 4V0H10v-12l21-4v-133l-21-5v-11h69l2 34c17-18 35-41 71-40v61c-17 3-14-14-20-22" id="ae"/><path d="M76-16l18 4V0H7v-12l18-4v-218l-17-4v-12h68v234" id="af"/><g id="e"><use transform="matrix(0.07407407407407407,0,0,0.07407407407407407,0,0)" xlink:href="#aa"/><use transform="matrix(0.07407407407407407,0,0,0.07407407407407407,19.185185185185183,0)" xlink:href="#ab"/><use transform="matrix(0.07407407407407407,0,0,0.07407407407407407,32.51851851851852,0)" xlink:href="#ac"/><use transform="matrix(0.07407407407407407,0,0,0.07407407407407407,47.33333333333333,0)" xlink:href="#ad"/><use transform="matrix(0.07407407407407407,0,0,0.07407407407407407,56.148148148148145,0)" xlink:href="#ae"/><use transform="matrix(0.07407407407407407,0,0,0.07407407407407407,67.4074074074074,0)" xlink:href="#ab"/><use transform="matrix(0.07407407407407407,0,0,0.07407407407407407,80.74074074074073,0)" xlink:href="#af"/><use transform="matrix(0.07407407407407407,0,0,0.07407407407407407,88.14814814814814,0)" xlink:href="#af"/><use transform="matrix(0.07407407407407407,0,0,0.07407407407407407,95.55555555555556,0)" xlink:href="#X"/><use transform="matrix(0.07407407407407407,0,0,0.07407407407407407,107.33333333333331,0)" xlink:href="#ae"/></g><filter id="c" filterUnits="objectBoundingBox" x="-.02" y="-.01" width="1.03" height="1.06"><feOffset result="offOut" in="SourceAlpha" dy="3"/><feGaussianBlur result="blurOut" in="offOut" stdDeviation="2.5"/><feColorMatrix result="colorOut" in="blurOut" values="0 0 0 0 0.018823529411764708 0 0 0 0 0.018823529411764708 0 0 0 0 0.018823529411764708 0 0 0 0.2 0"/><feBlend in="SourceGraphic" in2="colorOut"/></filter><path d="M185-72C185 13 82 14 19-9v-63h16c2 37 21 58 61 58 46 0 69-51 31-71-42-23-106-23-106-90 0-69 87-70 148-56v56h-16l-7-32c-26-25-110-13-82 35 39 34 121 26 121 100" id="ag"/><path d="M168-150L102 4H81L12-149c-7-2-15-4-12-16h85v11l-20 5 42 94 38-94-19-5v-11h54v11" id="ah"/><path d="M77-16l18 4V0H8v-12l18-4v-133l-17-5v-11h68v149zM51-196c-16 0-27-10-27-27s10-27 27-27 27 11 27 27c0 17-10 27-27 27" id="ai"/><path d="M109-18c15 0 31-2 42-6v14c-11 9-31 13-51 13-59 0-86-28-88-86-3-75 66-101 135-80v48h-13c-3-20-7-40-34-37-51 7-55 138 9 134" id="aj"/><g id="f"><use transform="matrix(0.07407407407407407,0,0,0.07407407407407407,0,0)" xlink:href="#ag"/><use transform="matrix(0.07407407407407407,0,0,0.07407407407407407,14.814814814814813,0)" xlink:href="#X"/><use transform="matrix(0.07407407407407407,0,0,0.07407407407407407,26.592592592592588,0)" xlink:href="#ae"/><use transform="matrix(0.07407407407407407,0,0,0.07407407407407407,38.37037037037037,0)" xlink:href="#ah"/><use transform="matrix(0.07407407407407407,0,0,0.07407407407407407,51.703703703703695,0)" xlink:href="#ai"/><use transform="matrix(0.07407407407407407,0,0,0.07407407407407407,59.1111111111111,0)" xlink:href="#aj"/><use transform="matrix(0.07407407407407407,0,0,0.07407407407407407,70.88888888888887,0)" xlink:href="#X"/></g><path d="M92-20c74 11 92-29 92-98 0-66-23-103-92-98v196zm150-99C242 9 136 6 6 0v-13l31-5v-200l-31-5v-13h112c81 0 124 34 124 117" id="ak"/><path d="M75-13V0H4v-13l17-5 84-220h51l83 220 18 5V0H152v-13l28-5-23-61H67L45-18zm38-189L74-98h76" id="al"/><path d="M140-221c-55 0-64 47-64 103S8-14 140-14c56 0 64-48 64-104s-9-103-64-103zm0 225C61 4 18-36 18-118c0-81 41-120 122-120 80 0 122 39 122 120C262-36 219 4 140 4" id="am"/><g id="g"><use transform="matrix(0.07407407407407407,0,0,0.07407407407407407,0,0)" xlink:href="#ak"/><use transform="matrix(0.07407407407407407,0,0,0.07407407407407407,19.185185185185183,0)" xlink:href="#al"/><use transform="matrix(0.07407407407407407,0,0,0.07407407407407407,38.37037037037037,0)" xlink:href="#am"/></g><path d="M6-13l30-5v-200l-30-5v-13h201v60h-16l-6-38-93-2v86h61l6-26h16v73h-16l-6-27H92v91l104-3 10-44h16l-4 66H6v-13" id="an"/><path d="M126-114c3-31-27-37-49-25v123l15 4V0H10v-12l16-4v-133l-16-5v-11h64l2 14c24-16 81-33 96 3 30-24 105-39 105 27v105l17 4V0h-82v-12l14-4v-98c4-33-27-37-51-24 5 35 0 82 2 122l17 4V0h-83v-12l15-4v-98" id="ao"/><path d="M186-86c2 69-46 103-114 85l1 62 25 4v12H5V65l18-4v-210l-18-5v-11h67v8c12-8 26-13 46-13 49 2 67 30 68 84zm-83 71c28 0 31-33 31-69 0-34-2-66-30-66-12 0-23 3-31 7v124c9 2 20 4 30 4" id="ap"/><path d="M81 5L15-149c-7-2-13-5-11-16h84v11l-20 5 39 91 35-91-19-5v-11h53c2 11-4 13-11 15C134-81 111-5 75 58 65 77 34 83 8 74V32h11c0 24 29 35 43 12 7-11 13-25 19-39" id="aq"/><g id="h"><use transform="matrix(0.11728394938271604,0,0,0.11728394938271604,0,0)" xlink:href="#an"/><use transform="matrix(0.11728394938271604,0,0,0.11728394938271604,28.14814785185185,0)" xlink:href="#ao"/><use transform="matrix(0.11728394938271604,0,0,0.11728394938271604,63.21604871728395,0)" xlink:href="#ap"/><use transform="matrix(0.11728394938271604,0,0,0.11728394938271604,86.67283859382715,0)" xlink:href="#af"/><use transform="matrix(0.11728394938271604,0,0,0.11728394938271604,98.40123353209876,0)" xlink:href="#ab"/><use transform="matrix(0.11728394938271604,0,0,0.11728394938271604,119.51234442098765,0)" xlink:href="#aq"/><use transform="matrix(0.11728394938271604,0,0,0.11728394938271604,140.62345530987653,0)" xlink:href="#ao"/><use transform="matrix(0.11728394938271604,0,0,0.11728394938271604,175.6913561753086,0)" xlink:href="#X"/><use transform="matrix(0.11728394938271604,0,0,0.11728394938271604,194.33950412716047,0)" xlink:href="#ac"/><use transform="matrix(0.11728394938271604,0,0,0.11728394938271604,217.79629400370368,0)" xlink:href="#ad"/></g><g id="j"><use transform="matrix(0.07407407407407407,0,0,0.07407407407407407,0,0)" xlink:href="#an"/><use transform="matrix(0.07407407407407407,0,0,0.07407407407407407,17.77777777777778,0)" xlink:href="#ao"/><use transform="matrix(0.07407407407407407,0,0,0.07407407407407407,39.925925925925924,0)" xlink:href="#ap"/><use transform="matrix(0.07407407407407407,0,0,0.07407407407407407,54.740740740740726,0)" xlink:href="#af"/><use transform="matrix(0.07407407407407407,0,0,0.07407407407407407,62.14814814814814,0)" xlink:href="#ab"/><use transform="matrix(0.07407407407407407,0,0,0.07407407407407407,75.48148148148147,0)" xlink:href="#aq"/><use transform="matrix(0.07407407407407407,0,0,0.07407407407407407,88.8148148148148,0)" xlink:href="#ao"/><use transform="matrix(0.07407407407407407,0,0,0.07407407407407407,110.96296296296293,0)" xlink:href="#X"/><use transform="matrix(0.07407407407407407,0,0,0.07407407407407407,122.7407407407407,0)" xlink:href="#ac"/><use transform="matrix(0.07407407407407407,0,0,0.07407407407407407,137.55555555555551,0)" xlink:href="#ad"/></g><filter id="i" filterUnits="objectBoundingBox" x="-.02" y="-.01" width="1.03" height="1.06"><feOffset result="offOut" in="SourceAlpha" dy="3"/><feGaussianBlur result="blurOut" in="offOut" stdDeviation="2.5"/><feColorMatrix result="colorOut" in="blurOut" values="0 0 0 0 0.018823529411764708 0 0 0 0 0.018823529411764708 0 0 0 0 0.018823529411764708 0 0 0 0.2 0"/><feBlend in="SourceGraphic" in2="colorOut"/></filter><g id="l"><use transform="matrix(0.07407407407407407,0,0,0.07407407407407407,0,0)" xlink:href="#an"/><use transform="matrix(0.07407407407407407,0,0,0.07407407407407407,17.77777777777778,0)" xlink:href="#ao"/><use transform="matrix(0.07407407407407407,0,0,0.07407407407407407,39.925925925925924,0)" xlink:href="#ap"/><use transform="matrix(0.07407407407407407,0,0,0.07407407407407407,54.740740740740726,0)" xlink:href="#af"/><use transform="matrix(0.07407407407407407,0,0,0.07407407407407407,62.14814814814814,0)" xlink:href="#ab"/><use transform="matrix(0.07407407407407407,0,0,0.07407407407407407,75.48148148148147,0)" xlink:href="#aq"/><use transform="matrix(0.07407407407407407,0,0,0.07407407407407407,88.8148148148148,0)" xlink:href="#ao"/><use transform="matrix(0.07407407407407407,0,0,0.07407407407407407,110.96296296296293,0)" xlink:href="#X"/><use transform="matrix(0.07407407407407407,0,0,0.07407407407407407,122.7407407407407,0)" xlink:href="#ac"/><use transform="matrix(0.07407407407407407,0,0,0.07407407407407407,137.55555555555551,0)" xlink:href="#ad"/></g><filter id="k" filterUnits="objectBoundingBox" x="-.02" y="-.01" width="1.03" height="1.06"><feOffset result="offOut" in="SourceAlpha" dy="3"/><feGaussianBlur result="blurOut" in="offOut" stdDeviation="2.5"/><feColorMatrix result="colorOut" in="blurOut" values="0 0 0 0 0.018823529411764708 0 0 0 0 0.018823529411764708 0 0 0 0 0.018823529411764708 0 0 0 0.2 0"/><feBlend in="SourceGraphic" in2="colorOut"/></filter><path d="M128-223l-36 5v199l103-3 14-49h16l-7 71H6v-13l30-5v-200l-30-5v-13h122v13" id="ar"/><path d="M31-163c51-5 127-20 127 40v107l17 4V0h-61l-4-13C82 13 12 12 12-46c0-51 46-52 95-53 9-45-22-69-57-44l-7 20H31v-40zM62-47c0 30 26 34 45 23v-59c-28 0-45 6-45 36" id="as"/><path d="M9 41c2-18 18-26 32-33C29 1 16-9 16-28l29-33c-21-9-31-25-31-51-2-56 61-65 111-53l39-20c13 12-9 24-14 36 35 54-17 114-90 92-17 34 27 28 56 28 36-1 61 12 60 46-2 46-39 62-91 62-38 0-71-6-76-38zm35-3c6 35 97 29 94-9-2-28-50-14-78-17-8 7-15 14-16 26zm20-150c0 22 4 40 23 40 20 0 24-17 24-40 0-24-4-40-24-40-19 0-23 17-23 40" id="at"/><g id="m"><use transform="matrix(0.11728394938271604,0,0,0.11728394938271604,0,0)" xlink:href="#ar"/><use transform="matrix(0.11728394938271604,0,0,0.11728394938271604,28.14814785185185,0)" xlink:href="#X"/><use transform="matrix(0.11728394938271604,0,0,0.11728394938271604,46.7962958037037,0)" xlink:href="#as"/><use transform="matrix(0.11728394938271604,0,0,0.11728394938271604,67.90740669259259,0)" xlink:href="#ae"/><use transform="matrix(0.11728394938271604,0,0,0.11728394938271604,86.55555464444444,0)" xlink:href="#ac"/><use transform="matrix(0.11728394938271604,0,0,0.11728394938271604,110.01234452098765,0)" xlink:href="#ai"/><use transform="matrix(0.11728394938271604,0,0,0.11728394938271604,121.74073945925925,0)" xlink:href="#ac"/><use transform="matrix(0.11728394938271604,0,0,0.11728394938271604,145.19752933580247,0)" xlink:href="#at"/></g><path d="M155 0h-10L58-199v181l32 5V0H6v-13l30-5v-200l-30-5v-13h93l67 155 69-155h94v13l-30 5v200l30 5V0H212v-13l32-5v-181" id="au"/><g id="n"><use transform="matrix(0.11728394938271604,0,0,0.11728394938271604,0,0)" xlink:href="#au"/><use transform="matrix(0.11728394938271604,0,0,0.11728394938271604,39.759258840740735,0)" xlink:href="#as"/><use transform="matrix(0.11728394938271604,0,0,0.11728394938271604,60.87036972962962,0)" xlink:href="#ad"/><use transform="matrix(0.11728394938271604,0,0,0.11728394938271604,74.82715970617284,0)" xlink:href="#X"/><use transform="matrix(0.11728394938271604,0,0,0.11728394938271604,93.47530765802469,0)" xlink:href="#ae"/><use transform="matrix(0.11728394938271604,0,0,0.11728394938271604,112.12345560987654,0)" xlink:href="#ai"/><use transform="matrix(0.11728394938271604,0,0,0.11728394938271604,123.85185054814816,0)" xlink:href="#as"/><use transform="matrix(0.11728394938271604,0,0,0.11728394938271604,144.96296143703705,0)" xlink:href="#af"/></g><g id="o"><use transform="matrix(0.07407407407407407,0,0,0.07407407407407407,0,0)" xlink:href="#ar"/><use transform="matrix(0.07407407407407407,0,0,0.07407407407407407,17.77777777777778,0)" xlink:href="#X"/><use transform="matrix(0.07407407407407407,0,0,0.07407407407407407,29.555555555555557,0)" xlink:href="#as"/><use transform="matrix(0.07407407407407407,0,0,0.07407407407407407,42.888888888888886,0)" xlink:href="#ae"/><use transform="matrix(0.07407407407407407,0,0,0.07407407407407407,54.666666666666664,0)" xlink:href="#ac"/><use transform="matrix(0.07407407407407407,0,0,0.07407407407407407,69.48148148148148,0)" xlink:href="#ai"/><use transform="matrix(0.07407407407407407,0,0,0.07407407407407407,76.88888888888889,0)" xlink:href="#ac"/><use transform="matrix(0.07407407407407407,0,0,0.07407407407407407,91.7037037037037,0)" xlink:href="#at"/><use transform="matrix(0.07407407407407407,0,0,0.07407407407407407,105.03703703703704,0)" xlink:href="#au"/><use transform="matrix(0.07407407407407407,0,0,0.07407407407407407,130.14814814814812,0)" xlink:href="#as"/><use transform="matrix(0.07407407407407407,0,0,0.07407407407407407,143.48148148148147,0)" xlink:href="#ad"/><use transform="matrix(0.07407407407407407,0,0,0.07407407407407407,152.29629629629628,0)" xlink:href="#X"/><use transform="matrix(0.07407407407407407,0,0,0.07407407407407407,164.07407407407402,0)" xlink:href="#ae"/><use transform="matrix(0.07407407407407407,0,0,0.07407407407407407,175.85185185185182,0)" xlink:href="#ai"/><use transform="matrix(0.07407407407407407,0,0,0.07407407407407407,183.25925925925924,0)" xlink:href="#as"/><use transform="matrix(0.07407407407407407,0,0,0.07407407407407407,196.59259259259258,0)" xlink:href="#af"/></g><path d="M73-51c-3 31 27 38 51 25v-123l-16-5v-11h66v149l17 4V0h-65l-2-14C94 9 22 18 22-44v-105l-17-5v-11h68v114" id="av"/><g id="p"><use transform="matrix(0.11728394938271604,0,0,0.11728394938271604,0,0)" xlink:href="#am"/><use transform="matrix(0.11728394938271604,0,0,0.11728394938271604,32.839505827160494,0)" xlink:href="#aj"/><use transform="matrix(0.11728394938271604,0,0,0.11728394938271604,51.48765377901235,0)" xlink:href="#aj"/><use transform="matrix(0.11728394938271604,0,0,0.11728394938271604,70.1358017308642,0)" xlink:href="#av"/><use transform="matrix(0.11728394938271604,0,0,0.11728394938271604,93.59259160740741,0)" xlink:href="#ap"/><use transform="matrix(0.11728394938271604,0,0,0.11728394938271604,117.04938148395063,0)" xlink:href="#as"/><use transform="matrix(0.11728394938271604,0,0,0.11728394938271604,138.1604923728395,0)" xlink:href="#ad"/><use transform="matrix(0.11728394938271604,0,0,0.11728394938271604,152.11728234938272,0)" xlink:href="#ai"/><use transform="matrix(0.11728394938271604,0,0,0.11728394938271604,163.84567728765433,0)" xlink:href="#ab"/><use transform="matrix(0.11728394938271604,0,0,0.11728394938271604,184.95678817654323,0)" xlink:href="#ac"/><use transform="matrix(0.11728394938271604,0,0,0.11728394938271604,208.41357805308644,0)" xlink:href="#Z"/></g><g id="q"><use transform="matrix(0.07407407407407407,0,0,0.07407407407407407,0,0)" xlink:href="#am"/><use transform="matrix(0.07407407407407407,0,0,0.07407407407407407,20.74074074074074,0)" xlink:href="#aj"/><use transform="matrix(0.07407407407407407,0,0,0.07407407407407407,32.51851851851852,0)" xlink:href="#aj"/><use transform="matrix(0.07407407407407407,0,0,0.07407407407407407,44.29629629629629,0)" xlink:href="#av"/><use transform="matrix(0.07407407407407407,0,0,0.07407407407407407,59.111111111111114,0)" xlink:href="#ap"/><use transform="matrix(0.07407407407407407,0,0,0.07407407407407407,73.92592592592592,0)" xlink:href="#as"/><use transform="matrix(0.07407407407407407,0,0,0.07407407407407407,87.25925925925925,0)" xlink:href="#ad"/><use transform="matrix(0.07407407407407407,0,0,0.07407407407407407,96.07407407407406,0)" xlink:href="#ai"/><use transform="matrix(0.07407407407407407,0,0,0.07407407407407407,103.48148148148145,0)" xlink:href="#ab"/><use transform="matrix(0.07407407407407407,0,0,0.07407407407407407,116.8148148148148,0)" xlink:href="#ac"/></g><g id="r"><use transform="matrix(0.18518518518518493,0,0,0.18518518518518493,0,0)" xlink:href="#al"/><use transform="matrix(0.18518518518518493,0,0,0.18518518518518493,47.9629629629629,0)" xlink:href="#ap"/><use transform="matrix(0.18518518518518493,0,0,0.18518518518518493,84.99999999999989,0)" xlink:href="#ap"/><use transform="matrix(0.18518518518518493,0,0,0.18518518518518493,122.03703703703687,0)" xlink:href="#af"/><use transform="matrix(0.18518518518518493,0,0,0.18518518518518493,140.55555555555537,0)" xlink:href="#ai"/><use transform="matrix(0.18518518518518493,0,0,0.18518518518518493,159.07407407407388,0)" xlink:href="#aj"/><use transform="matrix(0.18518518518518493,0,0,0.18518518518518493,188.51851851851828,0)" xlink:href="#as"/><use transform="matrix(0.18518518518518493,0,0,0.18518518518518493,221.8518518518516,0)" xlink:href="#ad"/><use transform="matrix(0.18518518518518493,0,0,0.18518518518518493,243.8888888888886,0)" xlink:href="#ai"/><use transform="matrix(0.18518518518518493,0,0,0.18518518518518493,262.40740740740705,0)" xlink:href="#ab"/><use transform="matrix(0.18518518518518493,0,0,0.18518518518518493,295.7407407407403,0)" xlink:href="#ac"/></g><path d="M54 0v-13l38-5v-199l-66 3-4 44H6v-66h229v66h-17l-4-44c-17-2-44-3-67-3v199l38 5V0H54" id="aw"/><g id="s"><use transform="matrix(0.18518518518518493,0,0,0.18518518518518493,0,0)" xlink:href="#aw"/><use transform="matrix(0.18518518518518493,0,0,0.18518518518518493,43.14814814814808,0)" xlink:href="#ai"/><use transform="matrix(0.18518518518518493,0,0,0.18518518518518493,61.66666666666657,0)" xlink:href="#X"/><use transform="matrix(0.18518518518518493,0,0,0.18518518518518493,91.11111111111097,0)" xlink:href="#ae"/></g><path d="M127-114c3-31-26-38-50-25v123l15 4V0H10v-12l16-4v-218l-17-4v-12h68l-1 99c31-23 102-32 102 30v105l17 4V0h-82v-12l14-4v-98" id="ax"/><g id="t"><use transform="matrix(0.18518518518518493,0,0,0.18518518518518493,0,0)" xlink:href="#al"/><use transform="matrix(0.18518518518518493,0,0,0.18518518518518493,47.9629629629629,0)" xlink:href="#ae"/><use transform="matrix(0.18518518518518493,0,0,0.18518518518518493,76.111111111111,0)" xlink:href="#aj"/><use transform="matrix(0.18518518518518493,0,0,0.18518518518518493,105.5555555555554,0)" xlink:href="#ax"/><use transform="matrix(0.18518518518518493,0,0,0.18518518518518493,142.59259259259238,0)" xlink:href="#ai"/><use transform="matrix(0.18518518518518493,0,0,0.18518518518518493,161.1111111111109,0)" xlink:href="#ad"/><use transform="matrix(0.18518518518518493,0,0,0.18518518518518493,183.1481481481479,0)" xlink:href="#X"/><use transform="matrix(0.18518518518518493,0,0,0.18518518518518493,212.5925925925923,0)" xlink:href="#aj"/><use transform="matrix(0.18518518518518493,0,0,0.18518518518518493,242.0370370370367,0)" xlink:href="#ad"/><use transform="matrix(0.18518518518518493,0,0,0.18518518518518493,264.0740740740737,0)" xlink:href="#av"/><use transform="matrix(0.18518518518518493,0,0,0.18518518518518493,301.1111111111107,0)" xlink:href="#ae"/><use transform="matrix(0.18518518518518493,0,0,0.18518518518518493,329.2592592592588,0)" xlink:href="#X"/></g><path d="M13-69v-31h94v31H13" id="ay"/><use transform="matrix(0.18518518518518493,0,0,0.18518518518518493,0,0)" xlink:href="#ay" id="u"/><g id="v"><use transform="matrix(0.18518518518518493,0,0,0.18518518518518493,0,0)" xlink:href="#ag"/><use transform="matrix(0.18518518518518493,0,0,0.18518518518518493,37.03703703703699,0)" xlink:href="#af"/><use transform="matrix(0.18518518518518493,0,0,0.18518518518518493,55.555555555555486,0)" xlink:href="#ai"/><use transform="matrix(0.18518518518518493,0,0,0.18518518518518493,74.07407407407398,0)" xlink:href="#aj"/><use transform="matrix(0.18518518518518493,0,0,0.18518518518518493,103.51851851851838,0)" xlink:href="#X"/><use transform="matrix(0.18518518518518493,0,0,0.18518518518518493,132.9629629629628,0)" xlink:href="#Z"/></g><path d="M15-82c-4-69 47-101 113-83l-1-69-17-4v-12h68v234l18 4V0h-63l-4-9C77 23 5-9 15-82zm112-66c-43-16-64 17-61 65 2 33 3 67 32 67 12 0 22-3 29-8v-124" id="az"/><g id="w"><use transform="matrix(0.18518518518518493,0,0,0.18518518518518493,0,0)" xlink:href="#as"/><use transform="matrix(0.18518518518518493,0,0,0.18518518518518493,33.333333333333286,0)" xlink:href="#ac"/><use transform="matrix(0.18518518518518493,0,0,0.18518518518518493,70.37037037037027,0)" xlink:href="#az"/></g><g id="x"><use transform="matrix(0.18518518518518493,0,0,0.18518518518518493,0,0)" xlink:href="#ar"/><use transform="matrix(0.18518518518518493,0,0,0.18518518518518493,44.44444444444438,0)" xlink:href="#as"/><use transform="matrix(0.18518518518518493,0,0,0.18518518518518493,77.77777777777766,0)" xlink:href="#aq"/><use transform="matrix(0.18518518518518493,0,0,0.18518518518518493,111.11111111111093,0)" xlink:href="#X"/><use transform="matrix(0.18518518518518493,0,0,0.18518518518518493,140.55555555555534,0)" xlink:href="#ae"/><use transform="matrix(0.18518518518518493,0,0,0.18518518518518493,169.99999999999974,0)" xlink:href="#Z"/></g><path d="M75-108c48 3 76-12 76-58s-28-57-76-54v112zm111-58c-1 60-46 78-111 74v78l37 5v9H13v-9l28-5v-208l-31-4v-10c81 1 178-14 176 70" id="aA"/><path d="M57-145c16-10 35-24 60-25v45c-19 1-8-30-40-17l-20 6v124l29 4v8H7v-8l21-4v-141c-8-3-24 2-21-12h48" id="aB"/><path d="M84-170c49 0 66 33 63 87H46c-8 60 38 80 95 63v10C128-2 108 4 88 4 34 4 14-29 14-84c-1-54 22-86 70-86zm33 73c12-57-57-82-69-24-1 7-2 15-2 24h71" id="aC"/><path d="M41-130c7 48 86 23 86 84 0 56-69 57-112 41v-40c20 0 9 29 31 31 35 19 77-26 41-50-27-18-72-13-72-59 0-50 58-52 100-41v36c-19 1-8-25-28-25-21-7-50-1-46 23" id="aD"/><path d="M125-118c4-37-41-34-68-26v132l23 4v8H8C5-13 21-9 28-12v-141c-7-3-23 1-20-12h47l2 13c31-23 98-29 98 31v109c7 3 23-1 20 12h-72v-8l22-4v-106" id="aE"/><path d="M54-38c-1 25 24 26 44 20v12C71 10 25 9 25-35v-115H4c-2-14 14-10 21-15l18-38h11v38h38v15H54v112" id="aF"/><path d="M32-163c41-10 102-14 102 39v112c8 3 24-2 21 12h-45l-4-17C83 13 3 13 13-46c-2-50 45-50 92-51 4-36-5-70-42-56-6 2-12 4-16 6-4 7 0 23-15 20v-36zM42-47c0 41 41 33 63 22v-59c-34 1-63-1-63 37" id="aG"/><path d="M47-200c-23 0-25-39 0-38 13 0 18 7 20 19-1 11-8 19-20 19zM65-12l28 4v8H8v-8l28-4v-141l-24-4v-8h53v153" id="aH"/><path d="M90-170c52 0 76 32 76 87 0 54-24 87-77 87-51 0-75-34-75-87 0-54 24-87 76-87zM89-10c39 0 46-35 46-73 0-39-7-73-46-73-39 1-44 34-44 73s6 72 44 73" id="aI"/><g id="y"><use transform="matrix(0.10493827160493824,0,0,0.10493827160493824,0,0)" xlink:href="#aA"/><use transform="matrix(0.10493827160493824,0,0,0.10493827160493824,20.987654320987648,0)" xlink:href="#aB"/><use transform="matrix(0.10493827160493824,0,0,0.10493827160493824,33.475308641975296,0)" xlink:href="#aC"/><use transform="matrix(0.10493827160493824,0,0,0.10493827160493824,50.16049382716048,0)" xlink:href="#aD"/><use transform="matrix(0.10493827160493824,0,0,0.10493827160493824,64.85185185185183,0)" xlink:href="#aC"/><use transform="matrix(0.10493827160493824,0,0,0.10493827160493824,81.53703703703701,0)" xlink:href="#aE"/><use transform="matrix(0.10493827160493824,0,0,0.10493827160493824,100.4259259259259,0)" xlink:href="#aF"/><use transform="matrix(0.10493827160493824,0,0,0.10493827160493824,110.91975308641972,0)" xlink:href="#aG"/><use transform="matrix(0.10493827160493824,0,0,0.10493827160493824,127.6049382716049,0)" xlink:href="#aF"/><use transform="matrix(0.10493827160493824,0,0,0.10493827160493824,138.09876543209873,0)" xlink:href="#aH"/><use transform="matrix(0.10493827160493824,0,0,0.10493827160493824,148.59259259259255,0)" xlink:href="#aI"/><use transform="matrix(0.10493827160493824,0,0,0.10493827160493824,167.48148148148144,0)" xlink:href="#aE"/></g><path d="M111-226l-36 4v207c33-1 73 2 101-4l11-49h11l-3 68H10v-9l31-5v-208l-31-4v-10h101v10" id="aJ"/><path d="M161-154L85 37C75 66 49 86 8 75V39c18-2 6 24 29 21 30-4 38-32 47-58L21-153c-7-3-20 0-17-12h77v8l-26 4 45 116 43-116-26-4v-8h62v8" id="aK"/><g id="z"><use transform="matrix(0.10493827160493824,0,0,0.10493827160493824,0,0)" xlink:href="#aJ"/><use transform="matrix(0.10493827160493824,0,0,0.10493827160493824,22.981481481481474,0)" xlink:href="#aG"/><use transform="matrix(0.10493827160493824,0,0,0.10493827160493824,39.66666666666666,0)" xlink:href="#aK"/><use transform="matrix(0.10493827160493824,0,0,0.10493827160493824,58.55555555555555,0)" xlink:href="#aC"/><use transform="matrix(0.10493827160493824,0,0,0.10493827160493824,75.24074074074072,0)" xlink:href="#aB"/></g><path d="M75-131c50 2 93 3 93-48 0-46-48-41-93-41v89zm0 115c55 4 111 6 111-51 0-53-58-48-111-48v99zm148-52C223 24 102-3 10 0v-9l31-5v-208l-31-4v-10c77 6 193-24 194 56 0 33-20 48-48 54 36 5 67 20 67 58" id="aL"/><path d="M124-13C89 8 26 15 26-45v-108c-8-3-24 2-21-12h50v118c-3 37 42 32 69 25v-131l-25-4v-8h54v153c8 3 24-2 21 12h-48" id="aM"/><g id="A"><use transform="matrix(0.10493827160493824,0,0,0.10493827160493824,0,0)" xlink:href="#aL"/><use transform="matrix(0.10493827160493824,0,0,0.10493827160493824,25.185185185185176,0)" xlink:href="#aM"/><use transform="matrix(0.10493827160493824,0,0,0.10493827160493824,44.07407407407406,0)" xlink:href="#aD"/><use transform="matrix(0.10493827160493824,0,0,0.10493827160493824,58.765432098765416,0)" xlink:href="#aH"/><use transform="matrix(0.10493827160493824,0,0,0.10493827160493824,69.25925925925924,0)" xlink:href="#aE"/><use transform="matrix(0.10493827160493824,0,0,0.10493827160493824,88.14814814814812,0)" xlink:href="#aC"/><use transform="matrix(0.10493827160493824,0,0,0.10493827160493824,104.8333333333333,0)" xlink:href="#aD"/><use transform="matrix(0.10493827160493824,0,0,0.10493827160493824,119.52469135802465,0)" xlink:href="#aD"/></g><path d="M75-17c87 13 134-18 134-103 0-78-51-106-134-100v203zm171-102C246 5 139 7 10 0v-9l31-5v-208l-31-4v-10h107c82 0 129 35 129 117" id="aN"/><g id="B"><use transform="matrix(0.10493827160493824,0,0,0.10493827160493824,0,0)" xlink:href="#aN"/><use transform="matrix(0.10493827160493824,0,0,0.10493827160493824,27.179012345679002,0)" xlink:href="#aG"/><use transform="matrix(0.10493827160493824,0,0,0.10493827160493824,43.86419753086418,0)" xlink:href="#aF"/><use transform="matrix(0.10493827160493824,0,0,0.10493827160493824,54.358024691358004,0)" xlink:href="#aG"/></g><path d="M81-9v9H4v-9l26-5 81-224h33l83 224 30 5v9h-99v-9l31-5-23-68H73L49-14zm38-203L78-98h82" id="aO"/><path d="M45-84c0 64 52 80 104 63 1 25-30 25-55 25-56 0-80-32-80-88 0-76 62-98 131-80v46h-10c-5-15-4-31-23-35-47-10-67 21-67 69" id="aP"/><g id="C"><use transform="matrix(0.10493827160493824,0,0,0.10493827160493824,0,0)" xlink:href="#aO"/><use transform="matrix(0.10493827160493824,0,0,0.10493827160493824,27.179012345679002,0)" xlink:href="#aP"/><use transform="matrix(0.10493827160493824,0,0,0.10493827160493824,43.86419753086418,0)" xlink:href="#aP"/><use transform="matrix(0.10493827160493824,0,0,0.10493827160493824,60.549382716049365,0)" xlink:href="#aC"/><use transform="matrix(0.10493827160493824,0,0,0.10493827160493824,77.23456790123454,0)" xlink:href="#aD"/><use transform="matrix(0.10493827160493824,0,0,0.10493827160493824,91.9259259259259,0)" xlink:href="#aD"/></g><path d="M91-218c7 77-29 197 56 197 84 0 47-121 55-197l-31-5v-13h80v13l-27 5v137c-1 56-32 84-91 84-59-1-96-26-97-85v-136l-27-5v-13h112v13" id="aQ"/><g id="D"><use transform="matrix(0.11728394938271604,0,0,0.11728394938271604,0,0)" xlink:href="#aQ"/><use transform="matrix(0.11728394938271604,0,0,0.11728394938271604,30.376542890123453,0)" xlink:href="#ac"/><use transform="matrix(0.11728394938271604,0,0,0.11728394938271604,53.83333276666666,0)" xlink:href="#X"/><use transform="matrix(0.11728394938271604,0,0,0.11728394938271604,72.48148071851851,0)" xlink:href="#ao"/><use transform="matrix(0.11728394938271604,0,0,0.11728394938271604,107.5493815839506,0)" xlink:href="#ap"/><use transform="matrix(0.11728394938271604,0,0,0.11728394938271604,131.00617146049382,0)" xlink:href="#af"/><use transform="matrix(0.11728394938271604,0,0,0.11728394938271604,142.73456639876542,0)" xlink:href="#ab"/><use transform="matrix(0.11728394938271604,0,0,0.11728394938271604,163.84567728765433,0)" xlink:href="#aq"/><use transform="matrix(0.11728394938271604,0,0,0.11728394938271604,184.95678817654323,0)" xlink:href="#ao"/><use transform="matrix(0.11728394938271604,0,0,0.11728394938271604,220.0246890419753,0)" xlink:href="#X"/><use transform="matrix(0.11728394938271604,0,0,0.11728394938271604,238.67283699382716,0)" xlink:href="#ac"/><use transform="matrix(0.11728394938271604,0,0,0.11728394938271604,262.1296268703704,0)" xlink:href="#ad"/></g><g id="E"><use transform="matrix(0.07407407407407407,0,0,0.07407407407407407,0,0)" xlink:href="#aQ"/><use transform="matrix(0.07407407407407407,0,0,0.07407407407407407,19.185185185185183,0)" xlink:href="#ac"/><use transform="matrix(0.07407407407407407,0,0,0.07407407407407407,34,0)" xlink:href="#X"/><use transform="matrix(0.07407407407407407,0,0,0.07407407407407407,45.77777777777778,0)" xlink:href="#ao"/><use transform="matrix(0.07407407407407407,0,0,0.07407407407407407,67.92592592592592,0)" xlink:href="#ap"/><use transform="matrix(0.07407407407407407,0,0,0.07407407407407407,82.74074074074073,0)" xlink:href="#af"/><use transform="matrix(0.07407407407407407,0,0,0.07407407407407407,90.14814814814814,0)" xlink:href="#ab"/><use transform="matrix(0.07407407407407407,0,0,0.07407407407407407,103.48148148148145,0)" xlink:href="#aq"/><use transform="matrix(0.07407407407407407,0,0,0.07407407407407407,116.8148148148148,0)" xlink:href="#ao"/><use transform="matrix(0.07407407407407407,0,0,0.07407407407407407,138.96296296296293,0)" xlink:href="#X"/><use transform="matrix(0.07407407407407407,0,0,0.07407407407407407,150.7407407407407,0)" xlink:href="#ac"/><use transform="matrix(0.07407407407407407,0,0,0.07407407407407407,165.55555555555551,0)" xlink:href="#ad"/></g><g id="F"><use transform="matrix(0.07407407407407407,0,0,0.07407407407407407,0,0)" xlink:href="#aQ"/><use transform="matrix(0.07407407407407407,0,0,0.07407407407407407,19.185185185185183,0)" xlink:href="#ac"/><use transform="matrix(0.07407407407407407,0,0,0.07407407407407407,34,0)" xlink:href="#X"/><use transform="matrix(0.07407407407407407,0,0,0.07407407407407407,45.77777777777778,0)" xlink:href="#ao"/><use transform="matrix(0.07407407407407407,0,0,0.07407407407407407,67.92592592592592,0)" xlink:href="#ap"/><use transform="matrix(0.07407407407407407,0,0,0.07407407407407407,82.74074074074073,0)" xlink:href="#af"/><use transform="matrix(0.07407407407407407,0,0,0.07407407407407407,90.14814814814814,0)" xlink:href="#ab"/><use transform="matrix(0.07407407407407407,0,0,0.07407407407407407,103.48148148148145,0)" xlink:href="#aq"/><use transform="matrix(0.07407407407407407,0,0,0.07407407407407407,116.8148148148148,0)" xlink:href="#ao"/><use transform="matrix(0.07407407407407407,0,0,0.07407407407407407,138.96296296296293,0)" xlink:href="#X"/><use transform="matrix(0.07407407407407407,0,0,0.07407407407407407,150.7407407407407,0)" xlink:href="#ac"/><use transform="matrix(0.07407407407407407,0,0,0.07407407407407407,165.55555555555551,0)" xlink:href="#ad"/></g><g id="G"><use transform="matrix(0.11728394938271604,0,0,0.11728394938271604,0,0)" xlink:href="#aQ"/><use transform="matrix(0.11728394938271604,0,0,0.11728394938271604,30.376542890123453,0)" xlink:href="#Z"/><use transform="matrix(0.11728394938271604,0,0,0.11728394938271604,46.7962958037037,0)" xlink:href="#X"/><use transform="matrix(0.11728394938271604,0,0,0.11728394938271604,65.44444375555555,0)" xlink:href="#ae"/></g><g id="H"><use transform="matrix(0.07407407407407407,0,0,0.07407407407407407,0,0)" xlink:href="#aQ"/><use transform="matrix(0.07407407407407407,0,0,0.07407407407407407,19.185185185185183,0)" xlink:href="#Z"/><use transform="matrix(0.07407407407407407,0,0,0.07407407407407407,29.555555555555554,0)" xlink:href="#X"/><use transform="matrix(0.07407407407407407,0,0,0.07407407407407407,41.33333333333333,0)" xlink:href="#ae"/></g><path d="M92-112c43 4 61-13 61-54s-18-54-61-50v104zm118-54c0 63-50 78-118 74v74l39 5V0H8v-13l28-5v-200l-30-5v-13c88 3 205-20 204 70" id="aR"/><path d="M107-230c-31-13-29 30-29 65h34v18H78v131l27 4V0H10v-12l18-4v-131H3v-12l25-7c-8-66 31-98 95-84v39h-11" id="aS"/><g id="I"><use transform="matrix(0.07407407407407407,0,0,0.07407407407407407,0,0)" xlink:href="#aR"/><use transform="matrix(0.07407407407407407,0,0,0.07407407407407407,16.22222222222222,0)" xlink:href="#ae"/><use transform="matrix(0.07407407407407407,0,0,0.07407407407407407,27.48148148148148,0)" xlink:href="#ab"/><use transform="matrix(0.07407407407407407,0,0,0.07407407407407407,40.81481481481481,0)" xlink:href="#aS"/><use transform="matrix(0.07407407407407407,0,0,0.07407407407407407,49.629629629629626,0)" xlink:href="#ai"/><use transform="matrix(0.07407407407407407,0,0,0.07407407407407407,57.03703703703703,0)" xlink:href="#af"/><use transform="matrix(0.07407407407407407,0,0,0.07407407407407407,64.44444444444444,0)" xlink:href="#X"/></g><path d="M37-24c18 20 51 5 51-25v-169l-30-5v-13h112v13l-27 5v142C147-5 82 15 16-2v-53h16" id="aT"/><path d="M72-18c49 15 64-22 62-69-1-34-4-62-34-63-10-1-23 2-28 6v126zm33 22C77 4 48-3 21-8v-226l-16-4v-12h67c-1 31 2 66-2 94 11-8 28-14 47-14 51 0 70 31 69 83-1 55-26 91-81 91" id="aU"/><g id="J"><use transform="matrix(0.11728394938271604,0,0,0.11728394938271604,0,0)" xlink:href="#aT"/><use transform="matrix(0.11728394938271604,0,0,0.11728394938271604,21.111110888888888,0)" xlink:href="#ab"/><use transform="matrix(0.11728394938271604,0,0,0.11728394938271604,42.222221777777776,0)" xlink:href="#aU"/></g><g id="K"><use transform="matrix(0.11728394938271604,0,0,0.11728394938271604,0,0)" xlink:href="#aR"/><use transform="matrix(0.11728394938271604,0,0,0.11728394938271604,25.685184914814812,0)" xlink:href="#ab"/><use transform="matrix(0.11728394938271604,0,0,0.11728394938271604,46.7962958037037,0)" xlink:href="#Z"/><use transform="matrix(0.11728394938271604,0,0,0.11728394938271604,63.21604871728395,0)" xlink:href="#ad"/><use transform="matrix(0.11728394938271604,0,0,0.11728394938271604,77.17283869382716,0)" xlink:href="#ai"/><use transform="matrix(0.11728394938271604,0,0,0.11728394938271604,88.90123363209877,0)" xlink:href="#ac"/><use transform="matrix(0.11728394938271604,0,0,0.11728394938271604,112.35802350864198,0)" xlink:href="#at"/></g><g id="L"><use transform="matrix(0.07407407407407407,0,0,0.07407407407407407,0,0)" xlink:href="#aT"/><use transform="matrix(0.07407407407407407,0,0,0.07407407407407407,13.333333333333332,0)" xlink:href="#ab"/><use transform="matrix(0.07407407407407407,0,0,0.07407407407407407,26.666666666666664,0)" xlink:href="#aU"/><use transform="matrix(0.07407407407407407,0,0,0.07407407407407407,41.48148148148148,0)" xlink:href="#aR"/><use transform="matrix(0.07407407407407407,0,0,0.07407407407407407,57.7037037037037,0)" xlink:href="#ab"/><use transform="matrix(0.07407407407407407,0,0,0.07407407407407407,71.03703703703704,0)" xlink:href="#Z"/><use transform="matrix(0.07407407407407407,0,0,0.07407407407407407,81.4074074074074,0)" xlink:href="#ad"/><use transform="matrix(0.07407407407407407,0,0,0.07407407407407407,90.22222222222221,0)" xlink:href="#ai"/><use transform="matrix(0.07407407407407407,0,0,0.07407407407407407,97.62962962962962,0)" xlink:href="#ac"/><use transform="matrix(0.07407407407407407,0,0,0.07407407407407407,112.44444444444441,0)" xlink:href="#at"/></g><g id="M"><use transform="matrix(0.11728394938271604,0,0,0.11728394938271604,0,0)" xlink:href="#ak"/><use transform="matrix(0.11728394938271604,0,0,0.11728394938271604,30.376542890123453,0)" xlink:href="#X"/><use transform="matrix(0.11728394938271604,0,0,0.11728394938271604,49.0246908419753,0)" xlink:href="#ao"/><use transform="matrix(0.11728394938271604,0,0,0.11728394938271604,84.0925917074074,0)" xlink:href="#as"/><use transform="matrix(0.11728394938271604,0,0,0.11728394938271604,105.20370259629628,0)" xlink:href="#ac"/><use transform="matrix(0.11728394938271604,0,0,0.11728394938271604,128.66049247283948,0)" xlink:href="#az"/></g><g id="N"><use transform="matrix(0.07407407407407407,0,0,0.07407407407407407,0,0)" xlink:href="#ak"/><use transform="matrix(0.07407407407407407,0,0,0.07407407407407407,19.185185185185183,0)" xlink:href="#X"/><use transform="matrix(0.07407407407407407,0,0,0.07407407407407407,30.962962962962962,0)" xlink:href="#ao"/><use transform="matrix(0.07407407407407407,0,0,0.07407407407407407,53.11111111111111,0)" xlink:href="#as"/><use transform="matrix(0.07407407407407407,0,0,0.07407407407407407,66.44444444444444,0)" xlink:href="#ac"/><use transform="matrix(0.07407407407407407,0,0,0.07407407407407407,81.25925925925925,0)" xlink:href="#az"/></g><g id="O"><use transform="matrix(0.11728394938271604,0,0,0.11728394938271604,0,0)" xlink:href="#aa"/><use transform="matrix(0.11728394938271604,0,0,0.11728394938271604,30.376542890123453,0)" xlink:href="#ab"/><use transform="matrix(0.11728394938271604,0,0,0.11728394938271604,51.48765377901234,0)" xlink:href="#ac"/><use transform="matrix(0.11728394938271604,0,0,0.11728394938271604,74.94444365555555,0)" xlink:href="#ad"/><use transform="matrix(0.11728394938271604,0,0,0.11728394938271604,88.90123363209875,0)" xlink:href="#X"/><use transform="matrix(0.11728394938271604,0,0,0.11728394938271604,107.5493815839506,0)" xlink:href="#ac"/><use transform="matrix(0.11728394938271604,0,0,0.11728394938271604,131.00617146049382,0)" xlink:href="#ad"/><use transform="matrix(0.11728394938271604,0,0,0.11728394938271604,144.96296143703702,0)" xlink:href="#aS"/><use transform="matrix(0.11728394938271604,0,0,0.11728394938271604,158.91975141358023,0)" xlink:href="#av"/><use transform="matrix(0.11728394938271604,0,0,0.11728394938271604,182.37654129012344,0)" xlink:href="#af"/></g><g id="P"><use transform="matrix(0.07407407407407407,0,0,0.07407407407407407,0,0)" xlink:href="#aa"/><use transform="matrix(0.07407407407407407,0,0,0.07407407407407407,19.185185185185183,0)" xlink:href="#ab"/><use transform="matrix(0.07407407407407407,0,0,0.07407407407407407,32.51851851851852,0)" xlink:href="#ac"/><use transform="matrix(0.07407407407407407,0,0,0.07407407407407407,47.33333333333333,0)" xlink:href="#ad"/><use transform="matrix(0.07407407407407407,0,0,0.07407407407407407,56.148148148148145,0)" xlink:href="#X"/><use transform="matrix(0.07407407407407407,0,0,0.07407407407407407,67.92592592592592,0)" xlink:href="#ac"/><use transform="matrix(0.07407407407407407,0,0,0.07407407407407407,82.74074074074073,0)" xlink:href="#ad"/><use transform="matrix(0.07407407407407407,0,0,0.07407407407407407,91.55555555555556,0)" xlink:href="#aS"/><use transform="matrix(0.07407407407407407,0,0,0.07407407407407407,100.37037037037035,0)" xlink:href="#av"/><use transform="matrix(0.07407407407407407,0,0,0.07407407407407407,115.18518518518516,0)" xlink:href="#af"/></g><g id="Q"><use transform="matrix(0.11728394938271604,0,0,0.11728394938271604,0,0)" xlink:href="#al"/><use transform="matrix(0.11728394938271604,0,0,0.11728394938271604,30.376542890123453,0)" xlink:href="#ac"/><use transform="matrix(0.11728394938271604,0,0,0.11728394938271604,53.83333276666666,0)" xlink:href="#as"/><use transform="matrix(0.11728394938271604,0,0,0.11728394938271604,74.94444365555555,0)" xlink:href="#af"/><use transform="matrix(0.11728394938271604,0,0,0.11728394938271604,86.67283859382715,0)" xlink:href="#aq"/><use transform="matrix(0.11728394938271604,0,0,0.11728394938271604,107.78394948271604,0)" xlink:href="#ad"/><use transform="matrix(0.11728394938271604,0,0,0.11728394938271604,121.74073945925925,0)" xlink:href="#ai"/><use transform="matrix(0.11728394938271604,0,0,0.11728394938271604,133.46913439753084,0)" xlink:href="#aj"/><use transform="matrix(0.11728394938271604,0,0,0.11728394938271604,152.1172823493827,0)" xlink:href="#Z"/></g><g id="R"><use transform="matrix(0.07407407407407407,0,0,0.07407407407407407,0,0)" xlink:href="#al"/><use transform="matrix(0.07407407407407407,0,0,0.07407407407407407,19.185185185185183,0)" xlink:href="#ac"/><use transform="matrix(0.07407407407407407,0,0,0.07407407407407407,34,0)" xlink:href="#as"/><use transform="matrix(0.07407407407407407,0,0,0.07407407407407407,47.33333333333333,0)" xlink:href="#af"/><use transform="matrix(0.07407407407407407,0,0,0.07407407407407407,54.740740740740726,0)" xlink:href="#aq"/><use transform="matrix(0.07407407407407407,0,0,0.07407407407407407,68.07407407407406,0)" xlink:href="#ad"/><use transform="matrix(0.07407407407407407,0,0,0.07407407407407407,76.88888888888887,0)" xlink:href="#ai"/><use transform="matrix(0.07407407407407407,0,0,0.07407407407407407,84.29629629629628,0)" xlink:href="#aj"/><use transform="matrix(0.07407407407407407,0,0,0.07407407407407407,96.07407407407405,0)" xlink:href="#Z"/></g><g id="S"><use transform="matrix(0.11728394938271604,0,0,0.11728394938271604,0,0)" xlink:href="#aa"/><use transform="matrix(0.11728394938271604,0,0,0.11728394938271604,30.376542890123453,0)" xlink:href="#X"/><use transform="matrix(0.11728394938271604,0,0,0.11728394938271604,49.0246908419753,0)" xlink:href="#ae"/><use transform="matrix(0.11728394938271604,0,0,0.11728394938271604,67.67283879382715,0)" xlink:href="#ad"/><use transform="matrix(0.11728394938271604,0,0,0.11728394938271604,81.62962877037036,0)" xlink:href="#ai"/><use transform="matrix(0.11728394938271604,0,0,0.11728394938271604,93.35802370864197,0)" xlink:href="#aS"/><use transform="matrix(0.11728394938271604,0,0,0.11728394938271604,107.31481368518517,0)" xlink:href="#ai"/><use transform="matrix(0.11728394938271604,0,0,0.11728394938271604,119.04320862345678,0)" xlink:href="#aj"/><use transform="matrix(0.11728394938271604,0,0,0.11728394938271604,137.69135657530862,0)" xlink:href="#as"/><use transform="matrix(0.11728394938271604,0,0,0.11728394938271604,158.8024674641975,0)" xlink:href="#ad"/><use transform="matrix(0.11728394938271604,0,0,0.11728394938271604,172.7592574407407,0)" xlink:href="#ai"/><use transform="matrix(0.11728394938271604,0,0,0.11728394938271604,184.4876523790123,0)" xlink:href="#ab"/><use transform="matrix(0.11728394938271604,0,0,0.11728394938271604,205.59876326790118,0)" xlink:href="#ac"/></g><g id="T"><use transform="matrix(0.07407407407407407,0,0,0.07407407407407407,0,0)" xlink:href="#aa"/><use transform="matrix(0.07407407407407407,0,0,0.07407407407407407,19.185185185185183,0)" xlink:href="#X"/><use transform="matrix(0.07407407407407407,0,0,0.07407407407407407,30.962962962962962,0)" xlink:href="#ae"/><use transform="matrix(0.07407407407407407,0,0,0.07407407407407407,42.74074074074074,0)" xlink:href="#ad"/><use transform="matrix(0.07407407407407407,0,0,0.07407407407407407,51.555555555555564,0)" xlink:href="#ai"/><use transform="matrix(0.07407407407407407,0,0,0.07407407407407407,58.96296296296296,0)" xlink:href="#aS"/><use transform="matrix(0.07407407407407407,0,0,0.07407407407407407,67.77777777777777,0)" xlink:href="#ai"/><use transform="matrix(0.07407407407407407,0,0,0.07407407407407407,75.18518518518518,0)" xlink:href="#aj"/><use transform="matrix(0.07407407407407407,0,0,0.07407407407407407,86.96296296296295,0)" xlink:href="#as"/><use transform="matrix(0.07407407407407407,0,0,0.07407407407407407,100.29629629629628,0)" xlink:href="#ad"/><use transform="matrix(0.07407407407407407,0,0,0.07407407407407407,109.11111111111109,0)" xlink:href="#ai"/><use transform="matrix(0.07407407407407407,0,0,0.07407407407407407,116.51851851851849,0)" xlink:href="#ab"/><use transform="matrix(0.07407407407407407,0,0,0.07407407407407407,129.85185185185182,0)" xlink:href="#ac"/></g><g id="U"><use transform="matrix(0.07407407407407407,0,0,0.07407407407407407,0,0)" xlink:href="#aa"/><use transform="matrix(0.07407407407407407,0,0,0.07407407407407407,19.185185185185183,0)" xlink:href="#X"/><use transform="matrix(0.07407407407407407,0,0,0.07407407407407407,30.962962962962962,0)" xlink:href="#ae"/><use transform="matrix(0.07407407407407407,0,0,0.07407407407407407,42.74074074074074,0)" xlink:href="#ad"/><use transform="matrix(0.07407407407407407,0,0,0.07407407407407407,51.555555555555564,0)" xlink:href="#ai"/><use transform="matrix(0.07407407407407407,0,0,0.07407407407407407,58.96296296296296,0)" xlink:href="#aS"/><use transform="matrix(0.07407407407407407,0,0,0.07407407407407407,67.77777777777777,0)" xlink:href="#ai"/><use transform="matrix(0.07407407407407407,0,0,0.07407407407407407,75.18518518518518,0)" xlink:href="#aj"/><use transform="matrix(0.07407407407407407,0,0,0.07407407407407407,86.96296296296295,0)" xlink:href="#as"/><use transform="matrix(0.07407407407407407,0,0,0.07407407407407407,100.29629629629628,0)" xlink:href="#ad"/><use transform="matrix(0.07407407407407407,0,0,0.07407407407407407,109.11111111111109,0)" xlink:href="#ai"/><use transform="matrix(0.07407407407407407,0,0,0.07407407407407407,116.51851851851849,0)" xlink:href="#ab"/><use transform="matrix(0.07407407407407407,0,0,0.07407407407407407,129.85185185185182,0)" xlink:href="#ac"/></g><g id="V"><use transform="matrix(0.07407407407407407,0,0,0.07407407407407407,0,0)" xlink:href="#aw"/><use transform="matrix(0.07407407407407407,0,0,0.07407407407407407,15.777777777777779,0)" xlink:href="#ae"/><use transform="matrix(0.07407407407407407,0,0,0.07407407407407407,27.555555555555557,0)" xlink:href="#ai"/><use transform="matrix(0.07407407407407407,0,0,0.07407407407407407,34.96296296296296,0)" xlink:href="#X"/></g></defs></g></svg>