<svg xmlns="http://www.w3.org/2000/svg" xmlns:xlink="http://www.w3.org/1999/xlink" xmlns:lucid="lucid" width="1857" height="1636"><g transform="translate(-151.5 -139.5)" lucid:page-tab-id="0_0"><path d="M0 0h2140v1908.5H0z" fill="#fff"/><path d="M1744 1420h240v60h-240z" fill="#eff0f0"/><path d="M1984 1420h-240v60h240M1792 1420v60" stroke="#666" fill="none"/><use xlink:href="#a" transform="matrix(1,0,0,1,1756,1432) translate(-6.35 23.6)"/><use xlink:href="#b" transform="matrix(1,0,0,1,1804,1432) translate(11.288888888888891 23.6)"/><path d="M200.6 555h180v70h-180z" stroke="#666" fill="#a5a7aa"/><use xlink:href="#c" transform="matrix(1,0,0,1,220.59933802101295,555) translate(33.927777777777784 40.599999999999994)"/><path d="M200 734h180v70H200z" stroke="#666" fill="#a5a7aa"/><use xlink:href="#d" transform="matrix(1,0,0,1,220,734) translate(43.34444444444445 40.599999999999994)"/><path d="M200 194.5h180v70H200z" stroke="#666" fill="#a5a7aa"/><use xlink:href="#e" transform="matrix(1,0,0,1,220,194.5) translate(5.649999999999999 40.599999999999994)"/><path d="M728.6 530c6.63 0 12 5.37 12 12v96c0 6.63-5.37 12-12 12h-176c-6.63 0-12-5.37-12-12v-96c0-6.63 5.37-12 12-12z" stroke="#666" fill="#d7e9ff"/><path d="M540.6 583h200" stroke="#666" fill="none"/><use xlink:href="#f" transform="matrix(1,0,0,1,560.599338021013,530) translate(61.650000000000006 32.1)"/><use xlink:href="#g" transform="matrix(1,0,0,1,560.599338021013,593) translate(6.677777777777777 29.1)"/><use xlink:href="#h" transform="matrix(1,0,0,1,560.599338021013,593) translate(72.12222222222223 29.1)"/><path d="M398.4 590.48h-16.8v-.96h16.8zm125.32 0h-18.16v-.96h18.16z" stroke="#333" stroke-width=".05" fill="#333"/><path d="M381.6 590.48h-.5v-.96h.5z" fill="#333"/><path stroke="#333" stroke-width=".05" fill="#333"/><path d="M538.48 590l-14.26 4.63v-9.26z" fill="#333"/><path d="M540.02 590l-16.28 5.3v-10.6zm-15.33 3.98l12.24-3.98-12.25-3.98z" stroke="#333" stroke-width=".05" fill="#333"/><use xlink:href="#i" transform="matrix(1,0,0,1,398.4097589034637,579.2) translate(0.005000000000002558 14.4)"/><use xlink:href="#j" transform="matrix(1,0,0,1,398.4097589034637,579.2) translate(51.30500000000001 14.4)"/><path d="M821.07 580.55l-.15 1.93-.45 1.9-.75 1.8-1.03 1.68-1.28 1.5-1.5 1.26-1.66 1.03-1.8.75-1.9.45-1.94.15H741.6v-.95h66.98l1.82-.14 1.76-.4 1.67-.7 1.54-.95 1.38-1.17 1.17-1.38.95-1.54.7-1.67.4-1.77.15-1.82v-22.17h.95zM883.7 503h-51.08l-1.82.15-1.76.42-1.67.7-1.54.94-1.38 1.18-1.17 1.38-.95 1.54-.7 1.67-.4 1.76-.16 1.82v22.18h-.95V514.5l.16-1.92.45-1.9.75-1.8 1.03-1.68 1.28-1.5 1.5-1.26 1.65-1.03 1.8-.74 1.92-.45 1.93-.14h51.13z" stroke="#333" stroke-width=".05" fill="#333"/><path d="M741.6 593h-.5v-.95h.5z" fill="#333"/><path stroke="#333" stroke-width=".05" fill="#333"/><path d="M898.48 502.53l-14.26 4.64v-9.28z" fill="#333"/><path d="M900.02 502.53l-16.28 5.3v-10.6zm-15.33 3.98l12.24-3.97-12.25-3.98z" stroke="#333" stroke-width=".05" fill="#333"/><use xlink:href="#k" transform="matrix(1,0,0,1,760.5243380210129,536.7298594552885) translate(0.005000000000002558 14.4)"/><use xlink:href="#l" transform="matrix(1,0,0,1,760.5243380210129,536.7298594552885) translate(42.405 14.4)"/><path d="M900.6 470h240v60h-240z" fill="#eff0f0"/><path d="M1140.6 470h-240v60h240M948.6 470v60" stroke="#666" fill="none"/><use xlink:href="#m" transform="matrix(1,0,0,1,912.599338021013,482) translate(-6.35 23.6)"/><use xlink:href="#n" transform="matrix(1,0,0,1,960.599338021013,482) translate(42.28888888888889 23.6)"/><path d="M900.6 635h240v60h-240z" fill="#eff0f0"/><path d="M1140.6 635h-240v60h240M948.6 635v60" stroke="#666" fill="none"/><use xlink:href="#o" transform="matrix(1,0,0,1,912.599338021013,647) translate(-6.35 23.6)"/><use xlink:href="#p" transform="matrix(1,0,0,1,960.599338021013,647) translate(50.15000000000001 23.6)"/><path d="M821.07 652.98l.15 1.82.42 1.76.7 1.67.94 1.54 1.17 1.38 1.38 1.17 1.54.95 1.67.7 1.76.4 1.82.15h51.1v.96h-51.14l-1.93-.16-1.9-.45-1.82-.75-1.66-1.03-1.5-1.28-1.26-1.5-1.02-1.66-.75-1.8-.45-1.9-.16-1.94V638.3h.95zm-10.52-63.3l1.9.45 1.8.75 1.68 1.03 1.5 1.28 1.26 1.5 1.02 1.66.75 1.8.45 1.9.15 1.94v14.72h-.95v-14.68l-.14-1.82-.42-1.76-.7-1.67-.94-1.54-1.17-1.38-1.38-1.17-1.54-.95-1.67-.7-1.76-.4-1.82-.15H741.6v-.96h67.02z" stroke="#333" stroke-width=".05" fill="#333"/><path d="M741.6 590.48h-.5v-.96h.5z" fill="#333"/><path stroke="#333" stroke-width=".05" fill="#333"/><path d="M898.48 665l-14.26 4.63v-9.26z" fill="#333"/><path d="M900.02 665l-16.28 5.3v-10.6zm-15.33 3.98l12.24-3.98-12.25-3.98z" stroke="#333" stroke-width=".05" fill="#333"/><use xlink:href="#k" transform="matrix(1,0,0,1,788.449338021013,616.7) translate(0.005000000000002558 14.4)"/><use xlink:href="#q" transform="matrix(1,0,0,1,788.449338021013,616.7) translate(42.405 14.4)"/><path d="M726.1 160c7.68 0 13.9 6.22 13.9 13.9v111.2c0 7.68-6.22 13.9-13.9 13.9H553.9c-7.68 0-13.9-6.22-13.9-13.9V173.9c0-7.68 6.22-13.9 13.9-13.9z" stroke="#666" fill="#ffc2c2"/><path d="M540 213h200" stroke="#666" fill="none"/><use xlink:href="#r" transform="matrix(1,0,0,1,560,160) translate(61.650000000000006 32.1)"/><use xlink:href="#s" transform="matrix(1,0,0,1,560,223) translate(27.28888888888889 26.599999999999998)"/><use xlink:href="#t" transform="matrix(1,0,0,1,560,223) translate(43.888888888888886 50.599999999999994)"/><path d="M728.6 705.5c6.63 0 12 5.37 12 12v96c0 6.63-5.37 12-12 12h-176c-6.63 0-12-5.37-12-12v-96c0-6.63 5.37-12 12-12z" stroke="#666" fill="#d7e9ff"/><path d="M540.6 758.5h200" stroke="#666" fill="none"/><use xlink:href="#u" transform="matrix(1,0,0,1,560.599338021013,705.5) translate(61.650000000000006 32.1)"/><use xlink:href="#v" transform="matrix(1,0,0,1,560.599338021013,768.5) translate(26.17777777777779 29.1)"/><use xlink:href="#w" transform="matrix(1,0,0,1,560.599338021013,768.5) translate(66.12222222222223 29.1)"/><path d="M523.7 770.55v.95h-21.75v-.95zm-142.7-6.24v-.94h37.65v.95z" stroke="#333" stroke-width=".05" fill="#333"/><path d="M381 764.3h-.5v-.94h.5z" fill="#333"/><path stroke="#333" stroke-width=".05" fill="#333"/><path d="M538.48 771.02l-14.26 4.64v-9.27z" fill="#333"/><path d="M540.02 771.02l-16.28 5.3v-10.6zm-15.33 4l12.24-4-12.25-3.98z" stroke="#333" stroke-width=".05" fill="#333"/><use xlink:href="#x" transform="matrix(1,0,0,1,418.6496690105065,756.628815821341) translate(0.005000000000002558 14.4)"/><use xlink:href="#y" transform="matrix(1,0,0,1,418.6496690105065,756.628815821341) translate(34.455000000000005 14.4)"/><path d="M821.07 749.04l-.15 1.93-.45 1.9-.75 1.8-1.03 1.68-1.28 1.5-1.5 1.26-1.66 1.03-1.8.75-1.9.46-1.94.15H741.6v-.96h66.98l1.82-.14 1.76-.42 1.67-.7 1.54-.94 1.38-1.17 1.17-1.38.95-1.55.7-1.67.4-1.76.15-1.82v-25.2h.95zm62.64-83.56h-51.08l-1.82.14-1.76.42-1.67.7-1.54.94-1.38 1.17-1.17 1.38-.95 1.54-.7 1.67-.4 1.76-.16 1.82v25.2h-.95v-25.24l.16-1.93.45-1.9.75-1.8 1.03-1.68 1.28-1.5 1.5-1.26 1.65-1.02 1.8-.75 1.92-.45 1.93-.15h51.13z" stroke="#333" stroke-width=".05" fill="#333"/><path d="M741.6 761.5h-.5v-.96h.5z" fill="#333"/><path stroke="#333" stroke-width=".05" fill="#333"/><path d="M898.48 665l-14.26 4.63v-9.26z" fill="#333"/><path d="M900.02 665l-16.28 5.3v-10.6zm-15.33 3.98l12.24-3.98-12.25-3.98z" stroke="#333" stroke-width=".05" fill="#333"/><use xlink:href="#z" transform="matrix(1,0,0,1,781.474338021013,702.2087305068035) translate(0.005000000000002558 14.4)"/><use xlink:href="#q" transform="matrix(1,0,0,1,781.474338021013,702.2087305068035) translate(56.35500000000001 14.4)"/><path d="M381 229.5h142.12" stroke="#333" fill="none"/><path d="M381 229.97h-.5v-.94h.5z" stroke="#333" stroke-width=".05" fill="#333"/><path d="M537.88 229.5l-14.26 4.63v-9.26z" stroke="#333" fill="#333"/><path d="M1010.55 229.18l1.9.45 1.8.75 1.68 1.03 1.5 1.28 1.26 1.5 1.02 1.66.75 1.8.45 1.9.15 1.94v211.64h-.95v-211.6l-.14-1.82-.42-1.76-.7-1.67-.94-1.54-1.17-1.38-1.38-1.17-1.54-.95-1.67-.7-1.76-.4-1.82-.16h-68.1v-.94h68.14zm-269.55.8v-.95h51.27v.94z" stroke="#333" stroke-width=".05" fill="#333"/><path d="M741 229.97h-.5v-.94h.5z" fill="#333"/><path stroke="#333" stroke-width=".05" fill="#333"/><path d="M1020.6 467.88l-4.64-14.26h9.27z" fill="#333"/><path d="M1020.6 469.42l-5.3-16.28h10.6zm-3.98-15.33l3.98 12.25 3.98-12.26z" stroke="#333" stroke-width=".05" fill="#333"/><use xlink:href="#A" transform="matrix(1,0,0,1,792.2732563131694,218.7) translate(0.0049999999999954525 14.4)"/><use xlink:href="#B" transform="matrix(1,0,0,1,792.2732563131694,218.7) translate(85.355 14.4)"/><path d="M728 354.5c6.63 0 12 5.37 12 12v96c0 6.63-5.37 12-12 12H552c-6.63 0-12-5.37-12-12v-96c0-6.63 5.37-12 12-12z" stroke="#666" fill="#d7e9ff"/><path d="M540 407.5h200" stroke="#666" fill="none"/><use xlink:href="#C" transform="matrix(1,0,0,1,560,354.5) translate(61.650000000000006 32.1)"/><use xlink:href="#D" transform="matrix(1,0,0,1,560,417.5) translate(1.7055555555555486 29.1)"/><use xlink:href="#E" transform="matrix(1,0,0,1,560,417.5) translate(59.42777777777778 29.1)"/><path d="M202 380h180v70H202z" stroke="#666" fill="#a5a7aa"/><use xlink:href="#d" transform="matrix(1,0,0,1,222,380) translate(43.34444444444445 40.599999999999994)"/><path d="M394.68 415.48H383v-.96h11.68zm128.44 0h-16.2v-.96h16.2z" stroke="#333" stroke-width=".05" fill="#333"/><path d="M383 415.48h-.5v-.96h.5z" fill="#333"/><path stroke="#333" stroke-width=".05" fill="#333"/><path d="M537.88 415l-14.26 4.63v-9.26z" fill="#333"/><path d="M539.42 415l-16.28 5.3v-10.6zm-15.33 3.98l12.25-3.98-12.26-3.98z" stroke="#333" stroke-width=".05" fill="#333"/><use xlink:href="#F" transform="matrix(1,0,0,1,394.675,404.2) translate(0.005000000000002558 14.4)"/><use xlink:href="#G" transform="matrix(1,0,0,1,394.675,404.2) translate(44.405 14.4)"/><path d="M820.77 487.98l.15 1.82.42 1.76.7 1.67.94 1.54 1.17 1.38 1.38 1.17 1.54.95 1.67.7 1.76.4 1.82.15h51.4v.96h-51.44l-1.93-.16-1.9-.45-1.82-.75-1.66-1.03-1.5-1.28-1.26-1.5-1.02-1.66-.75-1.8-.45-1.9-.15-1.94v-19.97h.94zm-10.52-73.8l1.9.45 1.8.75 1.68 1.03 1.5 1.28 1.26 1.5 1.02 1.66.75 1.8.45 1.9.15 1.94v19.97h-.94v-19.93l-.15-1.82-.42-1.76-.7-1.67-.94-1.54-1.17-1.38-1.38-1.17-1.54-.95-1.67-.7-1.76-.4-1.82-.15H741v-.96h67.32z" stroke="#333" stroke-width=".05" fill="#333"/><path d="M741 414.98h-.5v-.96h.5z" fill="#333"/><path stroke="#333" stroke-width=".05" fill="#333"/><path d="M898.48 500l-14.26 4.63v-9.26z" fill="#333"/><path d="M900.02 500l-16.28 5.3v-10.6zm-15.33 3.98l12.24-3.98-12.25-3.98z" stroke="#333" stroke-width=".05" fill="#333"/><use xlink:href="#z" transform="matrix(1,0,0,1,753.2496690105065,446.45) translate(0.0049999999999954525 14.4)"/><use xlink:href="#l" transform="matrix(1,0,0,1,753.2496690105065,446.45) translate(56.355000000000004 14.4)"/><path d="M1210 194.5h180v70h-180z" stroke="#666" fill="#a5a7aa"/><use xlink:href="#c" transform="matrix(1,0,0,1,1230,194.5) translate(33.927777777777784 40.599999999999994)"/><path d="M1386.1 320c7.68 0 13.9 6.22 13.9 13.9v111.2c0 7.68-6.22 13.9-13.9 13.9h-172.2c-7.68 0-13.9-6.22-13.9-13.9V333.9c0-7.68 6.22-13.9 13.9-13.9z" stroke="#666" fill="#ffc2c2"/><path d="M1200 373h200" stroke="#666" fill="none"/><use xlink:href="#H" transform="matrix(1,0,0,1,1220,320) translate(61.650000000000006 32.1)"/><use xlink:href="#I" transform="matrix(1,0,0,1,1220,383) translate(6.677777777777777 38.599999999999994)"/><use xlink:href="#t" transform="matrix(1,0,0,1,1220,383) translate(69.9 38.599999999999994)"/><path d="M1300 460v28a12 12 0 0 1-12 12h-131.02" stroke="#333" fill="none"/><path d="M1300.47 460h-.94v-.5h.94z" stroke="#333" stroke-width=".05" fill="#333"/><path d="M1142.22 500l14.26-4.63v9.26z" stroke="#333" fill="#333"/><path d="M1300 460v193a12 12 0 0 1-12 12h-131.02" stroke="#333" fill="none"/><path d="M1300.47 460h-.94v-.5h.94z" stroke="#333" stroke-width=".05" fill="#333"/><path d="M1142.22 665l14.26-4.63v9.26z" stroke="#333" fill="#333"/><path d="M1300 265.5v37.62" stroke="#333" fill="none"/><path d="M1300.47 265.5h-.94v-.5h.94z" stroke="#333" stroke-width=".05" fill="#333"/><path d="M1300 317.88l-4.63-14.26h9.27z" stroke="#333" fill="#333"/><path d="M172 1237h240v60H172z" fill="#eff0f0"/><path d="M412 1237H172v60h240M220 1237v60" stroke="#666" fill="none"/><use xlink:href="#J" transform="matrix(1,0,0,1,184,1249) translate(-6.35 23.6)"/><use xlink:href="#K" transform="matrix(1,0,0,1,232,1249) translate(7.427777777777777 23.6)"/><use xlink:href="#L" transform="matrix(1,0,0,1,232,1249) translate(56.261111111111106 23.6)"/><path d="M1000 840h180v70h-180z" stroke="#666" fill="#a5a7aa"/><use xlink:href="#d" transform="matrix(1,0,0,1,1020,840) translate(43.34444444444445 40.599999999999994)"/><path d="M390 1020c6.63 0 12 5.37 12 12v96c0 6.63-5.37 12-12 12H194c-6.63 0-12-5.37-12-12v-96c0-6.63 5.37-12 12-12z" stroke="#666" fill="#d7e9ff"/><path d="M182 1073h220" stroke="#666" fill="none"/><use xlink:href="#M" transform="matrix(1,0,0,1,204,1020) translate(69.65 32.1)"/><use xlink:href="#N" transform="matrix(1,0,0,1,204,1083) translate(7.677777777777777 19.2)"/><use xlink:href="#O" transform="matrix(1,0,0,1,204,1083) translate(56.06666666666666 19.2)"/><use xlink:href="#P" transform="matrix(1,0,0,1,204,1083) translate(38.08333333333333 43.2)"/><path d="M660 1020c6.63 0 12 5.37 12 12v96c0 6.63-5.37 12-12 12H464c-6.63 0-12-5.37-12-12v-96c0-6.63 5.37-12 12-12z" stroke="#666" fill="#d7e9ff"/><path d="M452 1073h220" stroke="#666" fill="none"/><use xlink:href="#Q" transform="matrix(1,0,0,1,474,1020) translate(69.65 32.1)"/><use xlink:href="#N" transform="matrix(1,0,0,1,474,1083) translate(7.677777777777777 19.2)"/><use xlink:href="#O" transform="matrix(1,0,0,1,474,1083) translate(56.06666666666666 19.2)"/><use xlink:href="#R" transform="matrix(1,0,0,1,474,1083) translate(57.30555555555556 43.2)"/><path d="M442 1237h240v60H442z" fill="#eff0f0"/><path d="M682 1237H442v60h240M490 1237v60" stroke="#666" fill="none"/><use xlink:href="#S" transform="matrix(1,0,0,1,454,1249) translate(-6.35 23.6)"/><use xlink:href="#T" transform="matrix(1,0,0,1,502,1249) translate(22.927777777777777 23.6)"/><path d="M562 1141v79.12" stroke="#333" fill="none"/><path d="M562.48 1141h-.96v-.5h.96z" stroke="#333" stroke-width=".05" fill="#333"/><path d="M562 1234.88l-4.63-14.26h9.26z" stroke="#333" fill="#333"/><path d="M292 1141v78.62" stroke="#333" fill="none"/><path d="M292.48 1141h-.96v-.5h.96z" stroke="#333" stroke-width=".05" fill="#333"/><path d="M292 1234.38l-4.63-14.26h9.26z" stroke="#333" fill="#333"/><path d="M930 1020c6.63 0 12 5.37 12 12v96c0 6.63-5.37 12-12 12H734c-6.63 0-12-5.37-12-12v-96c0-6.63 5.37-12 12-12z" stroke="#666" fill="#d7e9ff"/><path d="M722 1073h220" stroke="#666" fill="none"/><use xlink:href="#U" transform="matrix(1,0,0,1,744,1020) translate(64.09444444444445 32.1)"/><use xlink:href="#N" transform="matrix(1,0,0,1,744,1083) translate(1.01111111111112 29.1)"/><use xlink:href="#V" transform="matrix(1,0,0,1,744,1083) translate(49.400000000000006 29.1)"/><use xlink:href="#W" transform="matrix(1,0,0,1,744,1083) translate(87.17777777777778 29.1)"/><path d="M712 1237h240v60H712z" fill="#eff0f0"/><path d="M952 1237H712v60h240M760 1237v60" stroke="#666" fill="none"/><use xlink:href="#X" transform="matrix(1,0,0,1,724,1249) translate(-0.2666666666666657 23.6)"/><use xlink:href="#Y" transform="matrix(1,0,0,1,772,1249) translate(21.205555555555563 23.6)"/><use xlink:href="#W" transform="matrix(1,0,0,1,772,1249) translate(58.98333333333334 23.6)"/><path d="M832 1141v79.12" stroke="#333" fill="none"/><path d="M832.48 1141h-.96v-.5h.96z" stroke="#333" stroke-width=".05" fill="#333"/><path d="M832 1234.88l-4.63-14.26h9.26z" stroke="#333" fill="#333"/><path d="M1188 1020c6.63 0 12 5.37 12 12v96c0 6.63-5.37 12-12 12H992c-6.63 0-12-5.37-12-12v-96c0-6.63 5.37-12 12-12z" stroke="#666" fill="#d7e9ff"/><path d="M980 1073h220" stroke="#666" fill="none"/><use xlink:href="#Z" transform="matrix(1,0,0,1,1002,1020) translate(64.84444444444445 32.1)"/><use xlink:href="#N" transform="matrix(1,0,0,1,1002,1083) translate(0.5666666666666629 29.1)"/><use xlink:href="#aa" transform="matrix(1,0,0,1,1002,1083) translate(48.95555555555555 29.1)"/><path d="M970 1237h240v60H970z" fill="#eff0f0"/><path d="M1210 1237H970v60h240M1018 1237v60" stroke="#666" fill="none"/><use xlink:href="#ab" transform="matrix(1,0,0,1,982,1249) translate(-6.35 23.6)"/><use xlink:href="#ac" transform="matrix(1,0,0,1,1030,1249) translate(20.761111111111113 23.6)"/><path d="M1090 1141v79.12" stroke="#333" fill="none"/><path d="M1090.47 1141h-.94v-.5h.94z" stroke="#333" stroke-width=".05" fill="#333"/><path d="M1090 1234.88l-4.63-14.26h9.27z" stroke="#333" fill="#333"/><path d="M1446 1020c6.63 0 12 5.37 12 12v96c0 6.63-5.37 12-12 12h-196c-6.63 0-12-5.37-12-12v-96c0-6.63 5.37-12 12-12z" stroke="#666" fill="#d7e9ff"/><path d="M1238 1073h220" stroke="#666" fill="none"/><use xlink:href="#ad" transform="matrix(1,0,0,1,1260,1020) translate(64.09444444444445 32.1)"/><use xlink:href="#N" transform="matrix(1,0,0,1,1260,1083) translate(19.372222222222227 19.2)"/><use xlink:href="#ae" transform="matrix(1,0,0,1,1260,1083) translate(67.76111111111112 19.2)"/><use xlink:href="#af" transform="matrix(1,0,0,1,1260,1083) translate(52.55555555555556 43.2)"/><path d="M1228 1237h240v60h-240z" fill="#eff0f0"/><path d="M1468 1237h-240v60h240M1276 1237v60" stroke="#666" fill="none"/><use xlink:href="#ag" transform="matrix(1,0,0,1,1240,1249) translate(-6.35 23.6)"/><use xlink:href="#ah" transform="matrix(1,0,0,1,1288,1249) translate(1.3444444444444485 23.6)"/><use xlink:href="#af" transform="matrix(1,0,0,1,1288,1249) translate(84.56666666666668 23.6)"/><path d="M1704 1020c6.63 0 12 5.37 12 12v96c0 6.63-5.37 12-12 12h-196c-6.63 0-12-5.37-12-12v-96c0-6.63 5.37-12 12-12z" stroke="#666" fill="#d7e9ff"/><path d="M1496 1073h220" stroke="#666" fill="none"/><use xlink:href="#ai" transform="matrix(1,0,0,1,1518,1020) translate(64.09444444444445 32.1)"/><use xlink:href="#N" transform="matrix(1,0,0,1,1518,1083) translate(7.677777777777777 19.2)"/><use xlink:href="#O" transform="matrix(1,0,0,1,1518,1083) translate(56.06666666666666 19.2)"/><use xlink:href="#aj" transform="matrix(1,0,0,1,1518,1083) translate(19.777777777777782 43.2)"/><use xlink:href="#ak" transform="matrix(1,0,0,1,1518,1083) translate(100.7777777777778 43.2)"/><path d="M1486 1237h240v60h-240z" fill="#eff0f0"/><path d="M1726 1237h-240v60h240M1534 1237v60" stroke="#666" fill="none"/><use xlink:href="#al" transform="matrix(1,0,0,1,1498,1249) translate(-6.35 23.6)"/><use xlink:href="#K" transform="matrix(1,0,0,1,1546,1249) translate(16.261111111111113 23.6)"/><use xlink:href="#am" transform="matrix(1,0,0,1,1546,1249) translate(65.09444444444443 23.6)"/><path d="M1962 1020c6.63 0 12 5.37 12 12v96c0 6.63-5.37 12-12 12h-196c-6.63 0-12-5.37-12-12v-96c0-6.63 5.37-12 12-12z" stroke="#666" fill="#d7e9ff"/><path d="M1754 1073h220" stroke="#666" fill="none"/><use xlink:href="#an" transform="matrix(1,0,0,1,1776,1020) translate(64.09444444444445 32.1)"/><use xlink:href="#N" transform="matrix(1,0,0,1,1776,1083) translate(33.26111111111112 29.1)"/><use xlink:href="#ao" transform="matrix(1,0,0,1,1776,1083) translate(81.65 29.1)"/><path d="M1744 1237h240v60h-240z" fill="#eff0f0"/><path d="M1984 1237h-240v60h240M1792 1237v60" stroke="#666" fill="none"/><use xlink:href="#ap" transform="matrix(1,0,0,1,1756,1249) translate(-6.35 23.6)"/><use xlink:href="#aq" transform="matrix(1,0,0,1,1804,1249) translate(53.45555555555556 23.6)"/><path d="M1090 911v42a12 12 0 0 1-12 12H304a12 12 0 0 0-12 12v26.12" stroke="#333" fill="none"/><path d="M1090.47 911h-.94v-.5h.94z" stroke="#333" stroke-width=".05" fill="#333"/><path d="M292 1017.88l-4.63-14.26h9.26z" stroke="#333" fill="#333"/><path d="M1090 911v42a12 12 0 0 1-12 12H574a12 12 0 0 0-12 12v26.12" stroke="#333" fill="none"/><path d="M1090.47 911h-.94v-.5h.94z" stroke="#333" stroke-width=".05" fill="#333"/><path d="M562 1017.88l-4.63-14.26h9.26z" stroke="#333" fill="#333"/><path d="M1090 911v42a12 12 0 0 1-12 12H844a12 12 0 0 0-12 12v26.12" stroke="#333" fill="none"/><path d="M1090.47 911h-.94v-.5h.94z" stroke="#333" stroke-width=".05" fill="#333"/><path d="M832 1017.88l-4.63-14.26h9.26z" stroke="#333" fill="#333"/><path d="M1090 911v92.12" stroke="#333" fill="none"/><path d="M1090.47 911h-.94v-.5h.94z" stroke="#333" stroke-width=".05" fill="#333"/><path d="M1090 1017.88l-4.63-14.26h9.27z" stroke="#333" fill="#333"/><path d="M1090 911v42a12 12 0 0 0 12 12h234a12 12 0 0 1 12 12v26.12" stroke="#333" fill="none"/><path d="M1090.47 911h-.94v-.5h.94z" stroke="#333" stroke-width=".05" fill="#333"/><path d="M1348 1017.88l-4.63-14.26h9.27z" stroke="#333" fill="#333"/><path d="M1090 911v42a12 12 0 0 0 12 12h492a12 12 0 0 1 12 12v26.12" stroke="#333" fill="none"/><path d="M1090.47 911h-.94v-.5h.94z" stroke="#333" stroke-width=".05" fill="#333"/><path d="M1606 1017.88l-4.63-14.26h9.27z" stroke="#333" fill="#333"/><path d="M1090 911v42a12 12 0 0 0 12 12h750a12 12 0 0 1 12 12v26.12" stroke="#333" fill="none"/><path d="M1090.47 911h-.94v-.5h.94z" stroke="#333" stroke-width=".05" fill="#333"/><path d="M1864 1017.88l-4.63-14.26h9.27z" stroke="#333" fill="#333"/><path d="M1700 630h180v70h-180z" stroke="#666" fill="#a5a7aa"/><use xlink:href="#c" transform="matrix(1,0,0,1,1720,630) translate(33.927777777777784 40.599999999999994)"/><path d="M1588 605c6.63 0 12 5.37 12 12v96c0 6.63-5.37 12-12 12h-176c-6.63 0-12-5.37-12-12v-96c0-6.63 5.37-12 12-12z" stroke="#666" fill="#d7e9ff"/><path d="M1400 658h200" stroke="#666" fill="none"/><use xlink:href="#ar" transform="matrix(1,0,0,1,1420,605) translate(61.650000000000006 32.1)"/><use xlink:href="#as" transform="matrix(1,0,0,1,1420,668) translate(3.9000000000000057 29.1)"/><use xlink:href="#V" transform="matrix(1,0,0,1,1420,668) translate(64.95555555555556 29.1)"/><use xlink:href="#at" transform="matrix(1,0,0,1,1420,668) translate(102.73333333333335 29.1)"/><path d="M1699 665h-82.12" stroke="#333" fill="none"/><path d="M1699.5 665.48h-.5v-.96h.5z" stroke="#333" stroke-width=".05" fill="#333"/><path d="M1602.12 665l14.26-4.63v9.26z" stroke="#333" fill="#333"/><path d="M1399 667.8h-242.02" stroke="#333" fill="none"/><path d="M1399.5 668.28h-.5v-.95h.5z" stroke="#333" stroke-width=".05" fill="#333"/><path d="M1142.22 667.8l14.26-4.63v9.27z" stroke="#333" fill="#333"/><path d="M1348 1141v79.12" stroke="#333" fill="none"/><path d="M1348.47 1141h-.94v-.5h.94z" stroke="#333" stroke-width=".05" fill="#333"/><path d="M1348 1234.88l-4.63-14.26h9.27z" stroke="#333" fill="#333"/><path d="M1606 1141v79.12" stroke="#333" fill="none"/><path d="M1606.47 1141h-.94v-.5h.94z" stroke="#333" stroke-width=".05" fill="#333"/><path d="M1606 1234.88l-4.63-14.26h9.27z" stroke="#333" fill="#333"/><path d="M1864 1141v79.12" stroke="#333" fill="none"/><path d="M1864.47 1141h-.94v-.5h.94z" stroke="#333" stroke-width=".05" fill="#333"/><path d="M1864 1234.88l-4.63-14.26h9.27z" stroke="#333" fill="#333"/><path d="M1446 1394c6.63 0 12 5.37 12 12v96c0 6.63-5.37 12-12 12h-196c-6.63 0-12-5.37-12-12v-96c0-6.63 5.37-12 12-12z" stroke="#666" fill="#d7e9ff"/><path d="M1238 1447h220" stroke="#666" fill="none"/><g><use xlink:href="#au" transform="matrix(1,0,0,1,1260,1394) translate(64.09444444444445 32.1)"/></g><g><use xlink:href="#av" transform="matrix(1,0,0,1,1260,1457) translate(4.705555555555549 19.2)"/><use xlink:href="#ae" transform="matrix(1,0,0,1,1260,1457) translate(82.42777777777778 19.2)"/><use xlink:href="#af" transform="matrix(1,0,0,1,1260,1457) translate(52.55555555555556 43.2)"/></g><path d="M1716 1394c6.63 0 12 5.37 12 12v96c0 6.63-5.37 12-12 12h-224c-6.63 0-12-5.37-12-12v-96c0-6.63 5.37-12 12-12z" stroke="#666" fill="#d7e9ff"/><path d="M1480 1447h248" stroke="#666" fill="none"/><g><use xlink:href="#aw" transform="matrix(1,0,0,1,1504.8,1394) translate(75.59444444444445 32.1)"/></g><g><use xlink:href="#av" transform="matrix(1,0,0,1,1504.8,1457) translate(4.511111111111106 19.2)"/><use xlink:href="#O" transform="matrix(1,0,0,1,1504.8,1457) translate(82.23333333333333 19.2)"/><use xlink:href="#aj" transform="matrix(1,0,0,1,1504.8,1457) translate(31.277777777777782 43.2)"/><use xlink:href="#ak" transform="matrix(1,0,0,1,1504.8,1457) translate(112.2777777777778 43.2)"/></g><path d="M1604 1393v-79.12" stroke="#333" fill="none"/><path d="M1604.47 1393.5h-.94v-.5h.94z" stroke="#333" stroke-width=".05" fill="#333"/><path d="M1604 1299.12l4.63 14.26h-9.27z" stroke="#333" fill="#333"/><path d="M1348 1393v-79.12" stroke="#333" fill="none"/><path d="M1348.47 1393.5h-.94v-.5h.94z" stroke="#333" stroke-width=".05" fill="#333"/><path d="M1348 1299.12l4.63 14.26h-9.27z" stroke="#333" fill="#333"/><path d="M1976 1635c6.63 0 12 5.37 12 12v96c0 6.63-5.37 12-12 12h-224c-6.63 0-12-5.37-12-12v-96c0-6.63 5.37-12 12-12z" stroke="#666" fill="#d7e9ff"/><path d="M1740 1688h248" stroke="#666" fill="none"/><g><use xlink:href="#ax" transform="matrix(1,0,0,1,1764.8,1635) translate(81.15 32.1)"/></g><g><use xlink:href="#N" transform="matrix(1,0,0,1,1764.8,1698) translate(2.5944444444444485 29.1)"/><use xlink:href="#ay" transform="matrix(1,0,0,1,1764.8,1698) translate(50.983333333333334 29.1)"/></g><path d="M1390 1660h180v70h-180z" stroke="#666" fill="#a5a7aa"/><g><use xlink:href="#az" transform="matrix(1,0,0,1,1410,1660) translate(17.84444444444445 28.599999999999998)"/><use xlink:href="#aA" transform="matrix(1,0,0,1,1410,1660) translate(76.62222222222223 28.599999999999998)"/><use xlink:href="#aB" transform="matrix(1,0,0,1,1410,1660) translate(30.61111111111111 52.599999999999994)"/></g><path d="M1480 1659v-60a12 12 0 0 0-12-12h-108a12 12 0 0 1-12-12v-44.12" stroke="#333" fill="none"/><path d="M1480.47 1659.5h-.94v-.5h.94z" stroke="#333" stroke-width=".05" fill="#333"/><path d="M1348 1516.12l4.63 14.26h-9.27z" stroke="#333" fill="#333"/><path d="M1480 1659v-60a12 12 0 0 1 12-12h100a12 12 0 0 0 12-12v-44.12" stroke="#333" fill="none"/><path d="M1480.47 1659.5h-.94v-.5h.94z" stroke="#333" stroke-width=".05" fill="#333"/><path d="M1604 1516.12l4.63 14.26h-9.27z" stroke="#333" fill="#333"/><path d="M1571 1691.16h152.12" stroke="#333" fill="none"/><path d="M1571 1691.63h-.5v-.95h.5z" stroke="#333" stroke-width=".05" fill="#333"/><path d="M1737.88 1691.16l-14.26 4.63v-9.28z" stroke="#333" fill="#333"/><path d="M1864 1634v-137.12" stroke="#333" fill="none"/><path d="M1864.47 1634.5h-.94v-.5h.94z" stroke="#333" stroke-width=".05" fill="#333"/><path d="M1864 1482.12l4.63 14.26h-9.27z" stroke="#333" fill="#333"/><defs><path fill="#333" d="M30-248c118-7 216 8 213 122C240-48 200 0 122 0H30v-248zM63-27c89 8 146-16 146-99s-60-101-146-95v194" id="aC"/><path fill="#333" d="M126-127c33 6 58 20 58 59 0 88-139 92-164 29-3-8-5-16-6-25l32-3c6 27 21 44 54 44 32 0 52-15 52-46 0-38-36-46-79-43v-28c39 1 72-4 72-42 0-27-17-43-46-43-28 0-47 15-49 41l-32-3c6-42 35-63 81-64 48-1 79 21 79 65 0 36-21 52-52 59" id="aD"/><g id="a"><use transform="matrix(0.05555555555555555,0,0,0.05555555555555555,0,0)" xlink:href="#aC"/><use transform="matrix(0.05555555555555555,0,0,0.05555555555555555,14.388888888888888,0)" xlink:href="#aD"/></g><path fill="#333" d="M232-93c-1 65-40 97-104 97C67 4 28-28 28-90v-158h33c8 89-33 224 67 224 102 0 64-133 71-224h33v155" id="aE"/><path fill="#333" d="M117-194c89-4 53 116 60 194h-32v-121c0-31-8-49-39-48C34-167 62-67 57 0H25l-1-190h30c1 10-1 24 2 32 11-22 29-35 61-36" id="aF"/><path fill="#333" d="M100-194c63 0 86 42 84 106H49c0 40 14 67 53 68 26 1 43-12 49-29l28 8c-11 28-37 45-77 45C44 4 14-33 15-96c1-61 26-98 85-98zm52 81c6-60-76-77-97-28-3 7-6 17-6 28h103" id="aG"/><path fill="#333" d="M210-169c-67 3-38 105-44 169h-31v-121c0-29-5-50-35-48C34-165 62-65 56 0H25l-1-190h30c1 10-1 24 2 32 10-44 99-50 107 0 11-21 27-35 58-36 85-2 47 119 55 194h-31v-121c0-29-5-49-35-48" id="aH"/><path fill="#333" d="M115-194c55 1 70 41 70 98S169 2 115 4C84 4 66-9 55-30l1 105H24l-1-265h31l2 30c10-21 28-34 59-34zm-8 174c40 0 45-34 45-75s-6-73-45-74c-42 0-51 32-51 76 0 43 10 73 51 73" id="aI"/><path fill="#333" d="M24 0v-261h32V0H24" id="aJ"/><path fill="#333" d="M100-194c62-1 85 37 85 99 1 63-27 99-86 99S16-35 15-95c0-66 28-99 85-99zM99-20c44 1 53-31 53-75 0-43-8-75-51-75s-53 32-53 75 10 74 51 75" id="aK"/><path fill="#333" d="M179-190L93 31C79 59 56 82 12 73V49c39 6 53-20 64-50L1-190h34L92-34l54-156h33" id="aL"/><path fill="#333" d="M59-47c-2 24 18 29 38 22v24C64 9 27 4 27-40v-127H5v-23h24l9-43h21v43h35v23H59v120" id="aM"/><g id="b"><use transform="matrix(0.05555555555555555,0,0,0.05555555555555555,0,0)" xlink:href="#aE"/><use transform="matrix(0.05555555555555555,0,0,0.05555555555555555,14.388888888888888,0)" xlink:href="#aF"/><use transform="matrix(0.05555555555555555,0,0,0.05555555555555555,25.5,0)" xlink:href="#aG"/><use transform="matrix(0.05555555555555555,0,0,0.05555555555555555,36.611111111111114,0)" xlink:href="#aH"/><use transform="matrix(0.05555555555555555,0,0,0.05555555555555555,53.22222222222223,0)" xlink:href="#aI"/><use transform="matrix(0.05555555555555555,0,0,0.05555555555555555,64.33333333333334,0)" xlink:href="#aJ"/><use transform="matrix(0.05555555555555555,0,0,0.05555555555555555,68.72222222222223,0)" xlink:href="#aK"/><use transform="matrix(0.05555555555555555,0,0,0.05555555555555555,79.83333333333334,0)" xlink:href="#aL"/><use transform="matrix(0.05555555555555555,0,0,0.05555555555555555,89.83333333333334,0)" xlink:href="#aH"/><use transform="matrix(0.05555555555555555,0,0,0.05555555555555555,106.44444444444446,0)" xlink:href="#aG"/><use transform="matrix(0.05555555555555555,0,0,0.05555555555555555,117.55555555555557,0)" xlink:href="#aF"/><use transform="matrix(0.05555555555555555,0,0,0.05555555555555555,128.66666666666669,0)" xlink:href="#aM"/></g><path fill="#fff" d="M212-179c-10-28-35-45-73-45-59 0-87 40-87 99 0 60 29 101 89 101 43 0 62-24 78-52l27 14C228-24 195 4 139 4 59 4 22-46 18-125c-6-104 99-153 187-111 19 9 31 26 39 46" id="aN"/><path fill="#fff" d="M24-231v-30h32v30H24zM24 0v-190h32V0H24" id="aO"/><path fill="#fff" d="M59-47c-2 24 18 29 38 22v24C64 9 27 4 27-40v-127H5v-23h24l9-43h21v43h35v23H59v120" id="aP"/><path fill="#fff" d="M9 0v-24l116-142H16v-24h144v24L44-24h123V0H9" id="aQ"/><path fill="#fff" d="M100-194c63 0 86 42 84 106H49c0 40 14 67 53 68 26 1 43-12 49-29l28 8c-11 28-37 45-77 45C44 4 14-33 15-96c1-61 26-98 85-98zm52 81c6-60-76-77-97-28-3 7-6 17-6 28h103" id="aR"/><path fill="#fff" d="M117-194c89-4 53 116 60 194h-32v-121c0-31-8-49-39-48C34-167 62-67 57 0H25l-1-190h30c1 10-1 24 2 32 11-22 29-35 61-36" id="aS"/><g id="c"><use transform="matrix(0.05555555555555555,0,0,0.05555555555555555,0,0)" xlink:href="#aN"/><use transform="matrix(0.05555555555555555,0,0,0.05555555555555555,14.388888888888888,0)" xlink:href="#aO"/><use transform="matrix(0.05555555555555555,0,0,0.05555555555555555,18.777777777777775,0)" xlink:href="#aP"/><use transform="matrix(0.05555555555555555,0,0,0.05555555555555555,24.33333333333333,0)" xlink:href="#aO"/><use transform="matrix(0.05555555555555555,0,0,0.05555555555555555,28.72222222222222,0)" xlink:href="#aQ"/><use transform="matrix(0.05555555555555555,0,0,0.05555555555555555,38.722222222222214,0)" xlink:href="#aR"/><use transform="matrix(0.05555555555555555,0,0,0.05555555555555555,49.83333333333333,0)" xlink:href="#aS"/></g><path fill="#fff" d="M232-93c-1 65-40 97-104 97C67 4 28-28 28-90v-158h33c8 89-33 224 67 224 102 0 64-133 71-224h33v155" id="aT"/><path fill="#fff" d="M135-143c-3-34-86-38-87 0 15 53 115 12 119 90S17 21 10-45l28-5c4 36 97 45 98 0-10-56-113-15-118-90-4-57 82-63 122-42 12 7 21 19 24 35" id="aU"/><path fill="#fff" d="M114-163C36-179 61-72 57 0H25l-1-190h30c1 12-1 29 2 39 6-27 23-49 58-41v29" id="aV"/><g id="d"><use transform="matrix(0.05555555555555555,0,0,0.05555555555555555,0,0)" xlink:href="#aT"/><use transform="matrix(0.05555555555555555,0,0,0.05555555555555555,14.388888888888888,0)" xlink:href="#aU"/><use transform="matrix(0.05555555555555555,0,0,0.05555555555555555,24.388888888888886,0)" xlink:href="#aR"/><use transform="matrix(0.05555555555555555,0,0,0.05555555555555555,35.5,0)" xlink:href="#aV"/></g><path fill="#fff" d="M205 0l-28-72H64L36 0H1l101-248h38L239 0h-34zm-38-99l-47-123c-12 45-31 82-46 123h93" id="aW"/><path fill="#fff" d="M85-194c31 0 48 13 60 33l-1-100h32l1 261h-30c-2-10 0-23-3-31C134-8 116 4 85 4 32 4 16-35 15-94c0-66 23-100 70-100zm9 24c-40 0-46 34-46 75 0 40 6 74 45 74 42 0 51-32 51-76 0-42-9-74-50-73" id="aX"/><path fill="#fff" d="M210-169c-67 3-38 105-44 169h-31v-121c0-29-5-50-35-48C34-165 62-65 56 0H25l-1-190h30c1 10-1 24 2 32 10-44 99-50 107 0 11-21 27-35 58-36 85-2 47 119 55 194h-31v-121c0-29-5-49-35-48" id="aY"/><path fill="#fff" d="M141-36C126-15 110 5 73 4 37 3 15-17 15-53c-1-64 63-63 125-63 3-35-9-54-41-54-24 1-41 7-42 31l-33-3c5-37 33-52 76-52 45 0 72 20 72 64v82c-1 20 7 32 28 27v20c-31 9-61-2-59-35zM48-53c0 20 12 33 32 33 41-3 63-29 60-74-43 2-92-5-92 41" id="aZ"/><path fill="#fff" d="M100-194c62-1 85 37 85 99 1 63-27 99-86 99S16-35 15-95c0-66 28-99 85-99zM99-20c44 1 53-31 53-75 0-43-8-75-51-75s-53 32-53 75 10 74 51 75" id="ba"/><g id="e"><use transform="matrix(0.05555555555555555,0,0,0.05555555555555555,0,0)" xlink:href="#aW"/><use transform="matrix(0.05555555555555555,0,0,0.05555555555555555,13.333333333333332,0)" xlink:href="#aX"/><use transform="matrix(0.05555555555555555,0,0,0.05555555555555555,24.444444444444443,0)" xlink:href="#aY"/><use transform="matrix(0.05555555555555555,0,0,0.05555555555555555,41.05555555555556,0)" xlink:href="#aO"/><use transform="matrix(0.05555555555555555,0,0,0.05555555555555555,45.44444444444444,0)" xlink:href="#aS"/><use transform="matrix(0.05555555555555555,0,0,0.05555555555555555,56.55555555555556,0)" xlink:href="#aO"/><use transform="matrix(0.05555555555555555,0,0,0.05555555555555555,60.94444444444444,0)" xlink:href="#aU"/><use transform="matrix(0.05555555555555555,0,0,0.05555555555555555,70.94444444444444,0)" xlink:href="#aP"/><use transform="matrix(0.05555555555555555,0,0,0.05555555555555555,76.5,0)" xlink:href="#aV"/><use transform="matrix(0.05555555555555555,0,0,0.05555555555555555,83.11111111111111,0)" xlink:href="#aZ"/><use transform="matrix(0.05555555555555555,0,0,0.05555555555555555,94.22222222222223,0)" xlink:href="#aP"/><use transform="matrix(0.05555555555555555,0,0,0.05555555555555555,99.77777777777779,0)" xlink:href="#ba"/><use transform="matrix(0.05555555555555555,0,0,0.05555555555555555,110.8888888888889,0)" xlink:href="#aV"/></g><path fill="#333" d="M27 0v-27h64v-190l-56 39v-29l58-41h29v221h61V0H27" id="bb"/><g id="f"><use transform="matrix(0.05555555555555555,0,0,0.05555555555555555,0,0)" xlink:href="#aE"/><use transform="matrix(0.05555555555555555,0,0,0.05555555555555555,14.388888888888888,0)" xlink:href="#bb"/></g><path fill="#333" d="M212-179c-10-28-35-45-73-45-59 0-87 40-87 99 0 60 29 101 89 101 43 0 62-24 78-52l27 14C228-24 195 4 139 4 59 4 22-46 18-125c-6-104 99-153 187-111 19 9 31 26 39 46" id="bc"/><path fill="#333" d="M114-163C36-179 61-72 57 0H25l-1-190h30c1 12-1 29 2 39 6-27 23-49 58-41v29" id="bd"/><path fill="#333" d="M141-36C126-15 110 5 73 4 37 3 15-17 15-53c-1-64 63-63 125-63 3-35-9-54-41-54-24 1-41 7-42 31l-33-3c5-37 33-52 76-52 45 0 72 20 72 64v82c-1 20 7 32 28 27v20c-31 9-61-2-59-35zM48-53c0 20 12 33 32 33 41-3 63-29 60-74-43 2-92-5-92 41" id="be"/><g id="g"><use transform="matrix(0.05555555555555555,0,0,0.05555555555555555,0,0)" xlink:href="#bc"/><use transform="matrix(0.05555555555555555,0,0,0.05555555555555555,14.388888888888888,0)" xlink:href="#bd"/><use transform="matrix(0.05555555555555555,0,0,0.05555555555555555,21,0)" xlink:href="#aG"/><use transform="matrix(0.05555555555555555,0,0,0.05555555555555555,32.111111111111114,0)" xlink:href="#be"/><use transform="matrix(0.05555555555555555,0,0,0.05555555555555555,43.22222222222223,0)" xlink:href="#aM"/><use transform="matrix(0.05555555555555555,0,0,0.05555555555555555,48.777777777777786,0)" xlink:href="#aG"/></g><path fill="#333" d="M96-169c-40 0-48 33-48 73s9 75 48 75c24 0 41-14 43-38l32 2c-6 37-31 61-74 61-59 0-76-41-82-99-10-93 101-131 147-64 4 7 5 14 7 22l-32 3c-4-21-16-35-41-35" id="bf"/><path fill="#333" d="M84 4C-5 8 30-112 23-190h32v120c0 31 7 50 39 49 72-2 45-101 50-169h31l1 190h-30c-1-10 1-25-2-33-11 22-28 36-60 37" id="bg"/><g id="h"><use transform="matrix(0.05555555555555555,0,0,0.05555555555555555,0,0)" xlink:href="#be"/><use transform="matrix(0.05555555555555555,0,0,0.05555555555555555,11.11111111111111,0)" xlink:href="#bf"/><use transform="matrix(0.05555555555555555,0,0,0.05555555555555555,21.11111111111111,0)" xlink:href="#bf"/><use transform="matrix(0.05555555555555555,0,0,0.05555555555555555,31.11111111111111,0)" xlink:href="#aK"/><use transform="matrix(0.05555555555555555,0,0,0.05555555555555555,42.22222222222222,0)" xlink:href="#bg"/><use transform="matrix(0.05555555555555555,0,0,0.05555555555555555,53.33333333333333,0)" xlink:href="#aF"/><use transform="matrix(0.05555555555555555,0,0,0.05555555555555555,64.44444444444444,0)" xlink:href="#aM"/></g><path fill="#333" d="M52-115c0 93 80 130 150 87l7-35h11l-1 55c-23 7-52 12-83 12C60 4 19-37 15-115c-5-113 97-141 201-114l1 51h-12l-5-30c-15-9-39-16-62-16-66 0-86 41-86 109" id="bh"/><path fill="#333" d="M57-145c16-10 35-24 60-25v45c-19 1-8-30-40-17l-20 6v124l29 4v8H7v-8l21-4v-141c-8-3-24 2-21-12h48" id="bi"/><path fill="#333" d="M84-170c49 0 66 33 63 87H46c-8 60 38 80 95 63v10C128-2 108 4 88 4 34 4 14-29 14-84c-1-54 22-86 70-86zm33 73c12-57-57-82-69-24-1 7-2 15-2 24h71" id="bj"/><path fill="#333" d="M32-163c41-10 102-14 102 39v112c8 3 24-2 21 12h-45l-4-17C83 13 3 13 13-46c-2-50 45-50 92-51 4-36-5-70-42-56-6 2-12 4-16 6-4 7 0 23-15 20v-36zM42-47c0 41 41 33 63 22v-59c-34 1-63-1-63 37" id="bk"/><path fill="#333" d="M54-38c-1 25 24 26 44 20v12C71 10 25 9 25-35v-115H4c-2-14 14-10 21-15l18-38h11v38h38v15H54v112" id="bl"/><g id="i"><use transform="matrix(0.05,0,0,0.05,0,0)" xlink:href="#bh"/><use transform="matrix(0.05,0,0,0.05,12,0)" xlink:href="#bi"/><use transform="matrix(0.05,0,0,0.05,17.95,0)" xlink:href="#bj"/><use transform="matrix(0.05,0,0,0.05,25.899999999999995,0)" xlink:href="#bk"/><use transform="matrix(0.05,0,0,0.05,33.85,0)" xlink:href="#bl"/><use transform="matrix(0.05,0,0,0.05,38.85,0)" xlink:href="#bj"/></g><path fill="#333" d="M45-84c0 64 52 80 104 63 1 25-30 25-55 25-56 0-80-32-80-88 0-76 62-98 131-80v46h-10c-5-15-4-31-23-35-47-10-67 21-67 69" id="bm"/><path fill="#333" d="M90-170c52 0 76 32 76 87 0 54-24 87-77 87-51 0-75-34-75-87 0-54 24-87 76-87zM89-10c39 0 46-35 46-73 0-39-7-73-46-73-39 1-44 34-44 73s6 72 44 73" id="bn"/><path fill="#333" d="M124-13C89 8 26 15 26-45v-108c-8-3-24 2-21-12h50v118c-3 37 42 32 69 25v-131l-25-4v-8h54v153c8 3 24-2 21 12h-48" id="bo"/><path fill="#333" d="M125-118c4-37-41-34-68-26v132l23 4v8H8C5-13 21-9 28-12v-141c-7-3-23 1-20-12h47l2 13c31-23 98-29 98 31v109c7 3 23-1 20 12h-72v-8l22-4v-106" id="bp"/><g id="j"><use transform="matrix(0.05,0,0,0.05,0,0)" xlink:href="#bk"/><use transform="matrix(0.05,0,0,0.05,7.95,0)" xlink:href="#bm"/><use transform="matrix(0.05,0,0,0.05,15.9,0)" xlink:href="#bm"/><use transform="matrix(0.05,0,0,0.05,23.85,0)" xlink:href="#bn"/><use transform="matrix(0.05,0,0,0.05,32.85,0)" xlink:href="#bo"/><use transform="matrix(0.05,0,0,0.05,41.85,0)" xlink:href="#bp"/><use transform="matrix(0.05,0,0,0.05,50.85,0)" xlink:href="#bl"/></g><path fill="#333" d="M178-68c0 79-95 82-154 59v-54h12c1 35 22 52 60 52 50 0 69-58 33-82-39-24-105-21-105-85 0-67 86-66 142-53v49h-12l-6-29c-31-27-121-7-89 42 28 43 119 24 119 101" id="bq"/><g id="k"><use transform="matrix(0.05,0,0,0.05,0,0)" xlink:href="#bq"/><use transform="matrix(0.05,0,0,0.05,10,0)" xlink:href="#bl"/><use transform="matrix(0.05,0,0,0.05,15,0)" xlink:href="#bn"/><use transform="matrix(0.05,0,0,0.05,24,0)" xlink:href="#bi"/><use transform="matrix(0.05,0,0,0.05,29.950000000000003,0)" xlink:href="#bj"/></g><path fill="#333" d="M13-81c0-71 46-101 114-85l-1-72-28-4v-8h57v238c8 3 24-2 21 12h-47l-2-12C80 23 13-1 13-81zm77-74c-37 1-44 33-45 74 0 38 9 66 45 66 14 0 27-3 36-7v-130c-10-1-24-3-36-3" id="br"/><path fill="#333" d="M47-200c-23 0-25-39 0-38 13 0 18 7 20 19-1 11-8 19-20 19zM65-12l28 4v8H8v-8l28-4v-141l-24-4v-8h53v153" id="bs"/><path fill="#333" d="M65-12l28 4v8H7v-8l28-4v-226l-28-4v-8h58v238" id="bt"/><path fill="#333" d="M41-130c7 48 86 23 86 84 0 56-69 57-112 41v-40c20 0 9 29 31 31 35 19 77-26 41-50-27-18-72-13-72-59 0-50 58-52 100-41v36c-19 1-8-25-28-25-21-7-50-1-46 23" id="bu"/><g id="l"><use transform="matrix(0.05,0,0,0.05,0,0)" xlink:href="#bm"/><use transform="matrix(0.05,0,0,0.05,7.95,0)" xlink:href="#bi"/><use transform="matrix(0.05,0,0,0.05,13.9,0)" xlink:href="#bj"/><use transform="matrix(0.05,0,0,0.05,21.85,0)" xlink:href="#br"/><use transform="matrix(0.05,0,0,0.05,30.85,0)" xlink:href="#bj"/><use transform="matrix(0.05,0,0,0.05,38.800000000000004,0)" xlink:href="#bp"/><use transform="matrix(0.05,0,0,0.05,47.800000000000004,0)" xlink:href="#bl"/><use transform="matrix(0.05,0,0,0.05,52.800000000000004,0)" xlink:href="#bs"/><use transform="matrix(0.05,0,0,0.05,57.800000000000004,0)" xlink:href="#bk"/><use transform="matrix(0.05,0,0,0.05,65.75,0)" xlink:href="#bt"/><use transform="matrix(0.05,0,0,0.05,70.75,0)" xlink:href="#bu"/></g><path fill="#333" d="M54-142c48-35 137-8 131 61C196 18 31 33 14-55l32-4c7 23 22 37 52 37 35-1 51-22 54-58 4-55-73-65-99-34H22l8-134h141v27H59" id="bv"/><g id="m"><use transform="matrix(0.05555555555555555,0,0,0.05555555555555555,0,0)" xlink:href="#aC"/><use transform="matrix(0.05555555555555555,0,0,0.05555555555555555,14.388888888888888,0)" xlink:href="#bv"/></g><path fill="#333" d="M205 0l-28-72H64L36 0H1l101-248h38L239 0h-34zm-38-99l-47-123c-12 45-31 82-46 123h93" id="bw"/><g id="n"><use transform="matrix(0.05555555555555555,0,0,0.05555555555555555,0,0)" xlink:href="#bw"/><use transform="matrix(0.05555555555555555,0,0,0.05555555555555555,13.333333333333332,0)" xlink:href="#bf"/><use transform="matrix(0.05555555555555555,0,0,0.05555555555555555,23.333333333333332,0)" xlink:href="#bf"/><use transform="matrix(0.05555555555555555,0,0,0.05555555555555555,33.33333333333333,0)" xlink:href="#aK"/><use transform="matrix(0.05555555555555555,0,0,0.05555555555555555,44.44444444444444,0)" xlink:href="#bg"/><use transform="matrix(0.05555555555555555,0,0,0.05555555555555555,55.55555555555556,0)" xlink:href="#aF"/><use transform="matrix(0.05555555555555555,0,0,0.05555555555555555,66.66666666666667,0)" xlink:href="#aM"/></g><path fill="#333" d="M110-160c48 1 74 30 74 79 0 53-28 85-80 85-65 0-83-55-86-122-5-90 50-162 133-122 14 7 22 21 27 39l-31 6c-5-40-67-38-82-6-9 19-15 44-15 74 11-20 30-34 60-33zm-7 138c34 0 49-23 49-58s-16-56-50-56c-29 0-50 16-49 49 1 36 15 65 50 65" id="bx"/><g id="o"><use transform="matrix(0.05555555555555555,0,0,0.05555555555555555,0,0)" xlink:href="#aC"/><use transform="matrix(0.05555555555555555,0,0,0.05555555555555555,14.388888888888888,0)" xlink:href="#bx"/></g><path fill="#333" d="M30-248c87 1 191-15 191 75 0 78-77 80-158 76V0H30v-248zm33 125c57 0 124 11 124-50 0-59-68-47-124-48v98" id="by"/><path fill="#333" d="M101-234c-31-9-42 10-38 44h38v23H63V0H32v-167H5v-23h27c-7-52 17-82 69-68v24" id="bz"/><path fill="#333" d="M24-231v-30h32v30H24zM24 0v-190h32V0H24" id="bA"/><g id="p"><use transform="matrix(0.05555555555555555,0,0,0.05555555555555555,0,0)" xlink:href="#by"/><use transform="matrix(0.05555555555555555,0,0,0.05555555555555555,13.333333333333332,0)" xlink:href="#bd"/><use transform="matrix(0.05555555555555555,0,0,0.05555555555555555,19.944444444444443,0)" xlink:href="#aK"/><use transform="matrix(0.05555555555555555,0,0,0.05555555555555555,31.055555555555554,0)" xlink:href="#bz"/><use transform="matrix(0.05555555555555555,0,0,0.05555555555555555,36.61111111111111,0)" xlink:href="#bA"/><use transform="matrix(0.05555555555555555,0,0,0.05555555555555555,40.99999999999999,0)" xlink:href="#aJ"/><use transform="matrix(0.05555555555555555,0,0,0.05555555555555555,45.38888888888888,0)" xlink:href="#aG"/></g><path fill="#333" d="M75-108c48 3 76-12 76-58s-28-57-76-54v112zm111-58c-1 60-46 78-111 74v78l37 5v9H13v-9l28-5v-208l-31-4v-10c81 1 178-14 176 70" id="bB"/><path fill="#333" d="M77-14l30 5v9H13v-9l30-5v-208l-30-4v-10h94v10l-30 4v208" id="bC"/><g id="q"><use transform="matrix(0.05,0,0,0.05,0,0)" xlink:href="#bB"/><use transform="matrix(0.05,0,0,0.05,10,0)" xlink:href="#bC"/><use transform="matrix(0.05,0,0,0.05,15.949999999999998,0)" xlink:href="#bC"/></g><path fill="#333" d="M101-251c82-7 93 87 43 132L82-64C71-53 59-42 53-27h129V0H18c2-99 128-94 128-182 0-28-16-43-45-43s-46 15-49 41l-32-3c6-41 34-60 81-64" id="bD"/><g id="r"><use transform="matrix(0.05555555555555555,0,0,0.05555555555555555,0,0)" xlink:href="#aE"/><use transform="matrix(0.05555555555555555,0,0,0.05555555555555555,14.388888888888888,0)" xlink:href="#bD"/></g><path fill="#333" d="M85-194c31 0 48 13 60 33l-1-100h32l1 261h-30c-2-10 0-23-3-31C134-8 116 4 85 4 32 4 16-35 15-94c0-66 23-100 70-100zm9 24c-40 0-46 34-46 75 0 40 6 74 45 74 42 0 51-32 51-76 0-42-9-74-50-73" id="bE"/><path fill="#333" d="M135-143c-3-34-86-38-87 0 15 53 115 12 119 90S17 21 10-45l28-5c4 36 97 45 98 0-10-56-113-15-118-90-4-57 82-63 122-42 12 7 21 19 24 35" id="bF"/><g id="s"><use transform="matrix(0.05555555555555555,0,0,0.05555555555555555,0,0)" xlink:href="#bw"/><use transform="matrix(0.05555555555555555,0,0,0.05555555555555555,13.333333333333332,0)" xlink:href="#bE"/><use transform="matrix(0.05555555555555555,0,0,0.05555555555555555,24.444444444444443,0)" xlink:href="#aH"/><use transform="matrix(0.05555555555555555,0,0,0.05555555555555555,41.05555555555556,0)" xlink:href="#bA"/><use transform="matrix(0.05555555555555555,0,0,0.05555555555555555,45.44444444444444,0)" xlink:href="#aF"/><use transform="matrix(0.05555555555555555,0,0,0.05555555555555555,56.55555555555556,0)" xlink:href="#bA"/><use transform="matrix(0.05555555555555555,0,0,0.05555555555555555,60.94444444444444,0)" xlink:href="#bF"/><use transform="matrix(0.05555555555555555,0,0,0.05555555555555555,70.94444444444444,0)" xlink:href="#aM"/><use transform="matrix(0.05555555555555555,0,0,0.05555555555555555,76.5,0)" xlink:href="#aG"/><use transform="matrix(0.05555555555555555,0,0,0.05555555555555555,87.61111111111111,0)" xlink:href="#bd"/></g><g id="t"><use transform="matrix(0.05555555555555555,0,0,0.05555555555555555,0,0)" xlink:href="#bw"/><use transform="matrix(0.05555555555555555,0,0,0.05555555555555555,13.333333333333332,0)" xlink:href="#bf"/><use transform="matrix(0.05555555555555555,0,0,0.05555555555555555,23.333333333333332,0)" xlink:href="#bf"/><use transform="matrix(0.05555555555555555,0,0,0.05555555555555555,33.33333333333333,0)" xlink:href="#aK"/><use transform="matrix(0.05555555555555555,0,0,0.05555555555555555,44.44444444444444,0)" xlink:href="#bg"/><use transform="matrix(0.05555555555555555,0,0,0.05555555555555555,55.55555555555556,0)" xlink:href="#aF"/><use transform="matrix(0.05555555555555555,0,0,0.05555555555555555,66.66666666666667,0)" xlink:href="#aM"/></g><g id="u"><use transform="matrix(0.05555555555555555,0,0,0.05555555555555555,0,0)" xlink:href="#aE"/><use transform="matrix(0.05555555555555555,0,0,0.05555555555555555,14.388888888888888,0)" xlink:href="#aD"/></g><path fill="#333" d="M30 0v-248h187v28H63v79h144v27H63v87h162V0H30" id="bG"/><g id="v"><use transform="matrix(0.05555555555555555,0,0,0.05555555555555555,0,0)" xlink:href="#bG"/><use transform="matrix(0.05555555555555555,0,0,0.05555555555555555,13.333333333333332,0)" xlink:href="#bE"/><use transform="matrix(0.05555555555555555,0,0,0.05555555555555555,24.444444444444443,0)" xlink:href="#bA"/><use transform="matrix(0.05555555555555555,0,0,0.05555555555555555,28.833333333333332,0)" xlink:href="#aM"/></g><g id="w"><use transform="matrix(0.05555555555555555,0,0,0.05555555555555555,0,0)" xlink:href="#by"/><use transform="matrix(0.05555555555555555,0,0,0.05555555555555555,13.333333333333332,0)" xlink:href="#bd"/><use transform="matrix(0.05555555555555555,0,0,0.05555555555555555,19.944444444444443,0)" xlink:href="#aK"/><use transform="matrix(0.05555555555555555,0,0,0.05555555555555555,31.055555555555554,0)" xlink:href="#bz"/><use transform="matrix(0.05555555555555555,0,0,0.05555555555555555,36.61111111111111,0)" xlink:href="#bA"/><use transform="matrix(0.05555555555555555,0,0,0.05555555555555555,40.99999999999999,0)" xlink:href="#aJ"/><use transform="matrix(0.05555555555555555,0,0,0.05555555555555555,45.38888888888888,0)" xlink:href="#aG"/></g><path fill="#333" d="M10-9l31-5v-208l-31-4v-10h177v57h-11l-6-38c-28-4-63-3-95-3v92h63l6-28h11v73h-11l-6-29H75v96l105-3 10-43h12l-3 62H10v-9" id="bH"/><g id="x"><use transform="matrix(0.05,0,0,0.05,0,0)" xlink:href="#bH"/><use transform="matrix(0.05,0,0,0.05,10.950000000000001,0)" xlink:href="#br"/><use transform="matrix(0.05,0,0,0.05,19.950000000000003,0)" xlink:href="#bs"/><use transform="matrix(0.05,0,0,0.05,24.950000000000003,0)" xlink:href="#bl"/></g><path fill="#333" d="M103-236c-39-15-35 32-34 71h44v15H69v136l35 6v8H15v-8l25-6v-136H11v-9l29-7c-6-59 23-100 80-84v36c-15 2-12-14-17-22" id="bI"/><g id="y"><use transform="matrix(0.05,0,0,0.05,0,0)" xlink:href="#bB"/><use transform="matrix(0.05,0,0,0.05,10,0)" xlink:href="#bi"/><use transform="matrix(0.05,0,0,0.05,15.949999999999998,0)" xlink:href="#bn"/><use transform="matrix(0.05,0,0,0.05,24.95,0)" xlink:href="#bI"/><use transform="matrix(0.05,0,0,0.05,30.899999999999995,0)" xlink:href="#bs"/><use transform="matrix(0.05,0,0,0.05,35.9,0)" xlink:href="#bt"/><use transform="matrix(0.05,0,0,0.05,40.9,0)" xlink:href="#bj"/></g><path fill="#333" d="M134-16c44-1 70-21 70-64v-142l-32-4v-10h80v10l-30 4v141c0 57-33 84-91 85-58 0-93-26-93-82v-144l-30-4v-10h94v10l-30 4c7 82-31 209 62 206" id="bJ"/><path fill="#333" d="M166-85c3 67-44 102-111 85l1 64 29 4v9H6v-9l21-4v-217c-7-3-22 1-19-12h46l1 9c11-8 26-14 45-14 47 2 64 36 66 85zM56-13c53 14 83-14 78-72 7-53-33-79-78-60v132" id="bK"/><g id="z"><use transform="matrix(0.05,0,0,0.05,0,0)" xlink:href="#bJ"/><use transform="matrix(0.05,0,0,0.05,12.950000000000001,0)" xlink:href="#bK"/><use transform="matrix(0.05,0,0,0.05,21.950000000000003,0)" xlink:href="#br"/><use transform="matrix(0.05,0,0,0.05,30.950000000000003,0)" xlink:href="#bk"/><use transform="matrix(0.05,0,0,0.05,38.900000000000006,0)" xlink:href="#bl"/><use transform="matrix(0.05,0,0,0.05,43.900000000000006,0)" xlink:href="#bj"/></g><path fill="#333" d="M81-9v9H4v-9l26-5 81-224h33l83 224 30 5v9h-99v-9l31-5-23-68H73L49-14zm38-203L78-98h82" id="bL"/><path fill="#333" d="M126-118c4-37-42-32-68-25v131l24 4v8H8C5-13 21-9 28-12v-141c-7-3-23 1-20-12h48l1 13c22-15 77-30 92 2 32-22 104-36 104 29v109c8 3 24-2 21 12h-75v-8l25-4v-106c3-39-45-31-72-24 7 37 1 88 3 130l25 4v8h-78v-8l24-4v-106" id="bM"/><g id="A"><use transform="matrix(0.05,0,0,0.05,0,0)" xlink:href="#bL"/><use transform="matrix(0.05,0,0,0.05,12.950000000000001,0)" xlink:href="#br"/><use transform="matrix(0.05,0,0,0.05,21.950000000000003,0)" xlink:href="#bM"/><use transform="matrix(0.05,0,0,0.05,35.95,0)" xlink:href="#bs"/><use transform="matrix(0.05,0,0,0.05,40.95,0)" xlink:href="#bp"/><use transform="matrix(0.05,0,0,0.05,49.95,0)" xlink:href="#bs"/><use transform="matrix(0.05,0,0,0.05,54.95,0)" xlink:href="#bu"/><use transform="matrix(0.05,0,0,0.05,61.95,0)" xlink:href="#bl"/><use transform="matrix(0.05,0,0,0.05,66.95,0)" xlink:href="#bj"/><use transform="matrix(0.05,0,0,0.05,74.9,0)" xlink:href="#bi"/></g><g id="B"><use transform="matrix(0.05,0,0,0.05,0,0)" xlink:href="#bk"/><use transform="matrix(0.05,0,0,0.05,7.95,0)" xlink:href="#bm"/><use transform="matrix(0.05,0,0,0.05,15.9,0)" xlink:href="#bm"/><use transform="matrix(0.05,0,0,0.05,23.85,0)" xlink:href="#bn"/><use transform="matrix(0.05,0,0,0.05,32.85,0)" xlink:href="#bo"/><use transform="matrix(0.05,0,0,0.05,41.85,0)" xlink:href="#bp"/><use transform="matrix(0.05,0,0,0.05,50.85,0)" xlink:href="#bl"/><use transform="matrix(0.05,0,0,0.05,55.85,0)" xlink:href="#bu"/></g><path fill="#333" d="M155-56V0h-30v-56H8v-25l114-167h33v167h35v25h-35zm-30-156c-27 46-58 90-88 131h88v-131" id="bN"/><g id="C"><use transform="matrix(0.05555555555555555,0,0,0.05555555555555555,0,0)" xlink:href="#aE"/><use transform="matrix(0.05555555555555555,0,0,0.05555555555555555,14.388888888888888,0)" xlink:href="#bN"/></g><path fill="#333" d="M233-177c-1 41-23 64-60 70L243 0h-38l-65-103H63V0H30v-248c88 3 205-21 203 71zM63-129c60-2 137 13 137-47 0-61-80-42-137-45v92" id="bO"/><g id="D"><use transform="matrix(0.05555555555555555,0,0,0.05555555555555555,0,0)" xlink:href="#bO"/><use transform="matrix(0.05555555555555555,0,0,0.05555555555555555,14.388888888888888,0)" xlink:href="#aG"/><use transform="matrix(0.05555555555555555,0,0,0.05555555555555555,25.5,0)" xlink:href="#bF"/><use transform="matrix(0.05555555555555555,0,0,0.05555555555555555,35.5,0)" xlink:href="#aG"/><use transform="matrix(0.05555555555555555,0,0,0.05555555555555555,46.611111111111114,0)" xlink:href="#aM"/></g><path fill="#333" d="M206 0h-36l-40-164L89 0H53L-1-190h32L70-26l43-164h34l41 164 42-164h31" id="bP"/><g id="E"><use transform="matrix(0.05555555555555555,0,0,0.05555555555555555,0,0)" xlink:href="#by"/><use transform="matrix(0.05555555555555555,0,0,0.05555555555555555,13.333333333333332,0)" xlink:href="#be"/><use transform="matrix(0.05555555555555555,0,0,0.05555555555555555,24.444444444444443,0)" xlink:href="#bF"/><use transform="matrix(0.05555555555555555,0,0,0.05555555555555555,34.44444444444444,0)" xlink:href="#bF"/><use transform="matrix(0.05555555555555555,0,0,0.05555555555555555,44.44444444444444,0)" xlink:href="#bP"/><use transform="matrix(0.05555555555555555,0,0,0.05555555555555555,58.83333333333333,0)" xlink:href="#aK"/><use transform="matrix(0.05555555555555555,0,0,0.05555555555555555,69.94444444444444,0)" xlink:href="#bd"/><use transform="matrix(0.05555555555555555,0,0,0.05555555555555555,76.55555555555556,0)" xlink:href="#bE"/></g><path fill="#333" d="M199-173c-1 36-21 56-49 65l64 94 26 5v9h-57l-66-103H75v89l35 5v9H13v-9l28-5v-208l-31-4v-10c80 4 190-20 189 63zM75-119c50 2 89-1 89-51 0-49-39-52-89-50v101" id="bQ"/><g id="F"><use transform="matrix(0.05,0,0,0.05,0,0)" xlink:href="#bQ"/><use transform="matrix(0.05,0,0,0.05,12,0)" xlink:href="#bj"/><use transform="matrix(0.05,0,0,0.05,19.95,0)" xlink:href="#bu"/><use transform="matrix(0.05,0,0,0.05,26.950000000000003,0)" xlink:href="#bj"/><use transform="matrix(0.05,0,0,0.05,34.9,0)" xlink:href="#bl"/></g><path fill="#333" d="M240-154L185 4h-14l-41-109L90 4H77L20-153c-7-3-23 1-20-12h79v8l-27 4L91-41l40-108h14l40 109 38-113-28-4v-8h63v8" id="bR"/><g id="G"><use transform="matrix(0.05,0,0,0.05,0,0)" xlink:href="#bK"/><use transform="matrix(0.05,0,0,0.05,9,0)" xlink:href="#bk"/><use transform="matrix(0.05,0,0,0.05,16.95,0)" xlink:href="#bu"/><use transform="matrix(0.05,0,0,0.05,23.95,0)" xlink:href="#bu"/><use transform="matrix(0.05,0,0,0.05,30.950000000000003,0)" xlink:href="#bR"/><use transform="matrix(0.05,0,0,0.05,43.9,0)" xlink:href="#bn"/><use transform="matrix(0.05,0,0,0.05,52.900000000000006,0)" xlink:href="#bi"/><use transform="matrix(0.05,0,0,0.05,58.85,0)" xlink:href="#br"/></g><g id="H"><use transform="matrix(0.05555555555555555,0,0,0.05555555555555555,0,0)" xlink:href="#aE"/><use transform="matrix(0.05555555555555555,0,0,0.05555555555555555,14.388888888888888,0)" xlink:href="#bv"/></g><g id="I"><use transform="matrix(0.05555555555555555,0,0,0.05555555555555555,0,0)" xlink:href="#aC"/><use transform="matrix(0.05555555555555555,0,0,0.05555555555555555,14.388888888888888,0)" xlink:href="#aG"/><use transform="matrix(0.05555555555555555,0,0,0.05555555555555555,25.5,0)" xlink:href="#aJ"/><use transform="matrix(0.05555555555555555,0,0,0.05555555555555555,29.888888888888886,0)" xlink:href="#aG"/><use transform="matrix(0.05555555555555555,0,0,0.05555555555555555,41,0)" xlink:href="#aM"/><use transform="matrix(0.05555555555555555,0,0,0.05555555555555555,46.55555555555556,0)" xlink:href="#aG"/></g><g id="J"><use transform="matrix(0.05555555555555555,0,0,0.05555555555555555,0,0)" xlink:href="#aC"/><use transform="matrix(0.05555555555555555,0,0,0.05555555555555555,14.388888888888888,0)" xlink:href="#bb"/></g><path fill="#333" d="M185-189c-5-48-123-54-124 2 14 75 158 14 163 119 3 78-121 87-175 55-17-10-28-26-33-46l33-7c5 56 141 63 141-1 0-78-155-14-162-118-5-82 145-84 179-34 5 7 8 16 11 25" id="bS"/><path fill="#333" d="M140-251c81 0 123 46 123 126C263-46 219 4 140 4 59 4 17-45 17-125s42-126 123-126zm0 227c63 0 89-41 89-101s-29-99-89-99c-61 0-89 39-89 99S79-25 140-24" id="bT"/><g id="K"><use transform="matrix(0.05555555555555555,0,0,0.05555555555555555,0,0)" xlink:href="#bS"/><use transform="matrix(0.05555555555555555,0,0,0.05555555555555555,13.333333333333332,0)" xlink:href="#bT"/><use transform="matrix(0.05555555555555555,0,0,0.05555555555555555,28.888888888888886,0)" xlink:href="#bc"/></g><g id="L"><use transform="matrix(0.05555555555555555,0,0,0.05555555555555555,0,0)" xlink:href="#aC"/><use transform="matrix(0.05555555555555555,0,0,0.05555555555555555,14.388888888888888,0)" xlink:href="#aG"/><use transform="matrix(0.05555555555555555,0,0,0.05555555555555555,25.5,0)" xlink:href="#bz"/><use transform="matrix(0.05555555555555555,0,0,0.05555555555555555,31.05555555555556,0)" xlink:href="#bA"/><use transform="matrix(0.05555555555555555,0,0,0.05555555555555555,35.44444444444444,0)" xlink:href="#aF"/><use transform="matrix(0.05555555555555555,0,0,0.05555555555555555,46.55555555555556,0)" xlink:href="#bA"/><use transform="matrix(0.05555555555555555,0,0,0.05555555555555555,50.94444444444444,0)" xlink:href="#aM"/><use transform="matrix(0.05555555555555555,0,0,0.05555555555555555,56.5,0)" xlink:href="#bA"/><use transform="matrix(0.05555555555555555,0,0,0.05555555555555555,60.888888888888886,0)" xlink:href="#aK"/><use transform="matrix(0.05555555555555555,0,0,0.05555555555555555,72,0)" xlink:href="#aF"/><use transform="matrix(0.05555555555555555,0,0,0.05555555555555555,83.11111111111111,0)" xlink:href="#bF"/></g><g id="M"><use transform="matrix(0.05555555555555555,0,0,0.05555555555555555,0,0)" xlink:href="#aE"/><use transform="matrix(0.05555555555555555,0,0,0.05555555555555555,14.388888888888888,0)" xlink:href="#bx"/></g><path fill="#333" d="M137 0h-34L2-248h35l83 218 83-218h36" id="bU"/><g id="N"><use transform="matrix(0.05555555555555555,0,0,0.05555555555555555,0,0)" xlink:href="#bU"/><use transform="matrix(0.05555555555555555,0,0,0.05555555555555555,12.944444444444443,0)" xlink:href="#bA"/><use transform="matrix(0.05555555555555555,0,0,0.05555555555555555,17.333333333333332,0)" xlink:href="#aG"/><use transform="matrix(0.05555555555555555,0,0,0.05555555555555555,28.444444444444443,0)" xlink:href="#bP"/></g><g id="O"><use transform="matrix(0.05555555555555555,0,0,0.05555555555555555,0,0)" xlink:href="#bT"/><use transform="matrix(0.05555555555555555,0,0,0.05555555555555555,15.555555555555555,0)" xlink:href="#bf"/><use transform="matrix(0.05555555555555555,0,0,0.05555555555555555,25.555555555555557,0)" xlink:href="#bf"/><use transform="matrix(0.05555555555555555,0,0,0.05555555555555555,35.55555555555556,0)" xlink:href="#bg"/><use transform="matrix(0.05555555555555555,0,0,0.05555555555555555,46.66666666666667,0)" xlink:href="#aI"/><use transform="matrix(0.05555555555555555,0,0,0.05555555555555555,57.777777777777786,0)" xlink:href="#be"/><use transform="matrix(0.05555555555555555,0,0,0.05555555555555555,68.8888888888889,0)" xlink:href="#aM"/><use transform="matrix(0.05555555555555555,0,0,0.05555555555555555,74.44444444444446,0)" xlink:href="#bA"/><use transform="matrix(0.05555555555555555,0,0,0.05555555555555555,78.83333333333334,0)" xlink:href="#aK"/><use transform="matrix(0.05555555555555555,0,0,0.05555555555555555,89.94444444444446,0)" xlink:href="#aF"/></g><path fill="#333" d="M33 0v-248h34V0H33" id="bV"/><g id="P"><use transform="matrix(0.05555555555555555,0,0,0.05555555555555555,0,0)" xlink:href="#bV"/><use transform="matrix(0.05555555555555555,0,0,0.05555555555555555,5.555555555555555,0)" xlink:href="#aF"/><use transform="matrix(0.05555555555555555,0,0,0.05555555555555555,16.666666666666664,0)" xlink:href="#bz"/><use transform="matrix(0.05555555555555555,0,0,0.05555555555555555,22.22222222222222,0)" xlink:href="#aK"/><use transform="matrix(0.05555555555555555,0,0,0.05555555555555555,33.33333333333333,0)" xlink:href="#bd"/><use transform="matrix(0.05555555555555555,0,0,0.05555555555555555,39.94444444444444,0)" xlink:href="#aH"/><use transform="matrix(0.05555555555555555,0,0,0.05555555555555555,56.55555555555556,0)" xlink:href="#be"/><use transform="matrix(0.05555555555555555,0,0,0.05555555555555555,67.66666666666667,0)" xlink:href="#aM"/><use transform="matrix(0.05555555555555555,0,0,0.05555555555555555,73.22222222222223,0)" xlink:href="#bA"/><use transform="matrix(0.05555555555555555,0,0,0.05555555555555555,77.61111111111111,0)" xlink:href="#aK"/><use transform="matrix(0.05555555555555555,0,0,0.05555555555555555,88.72222222222223,0)" xlink:href="#aF"/></g><path fill="#333" d="M99-251c64 0 84 50 84 122C183-37 130 33 47-8c-14-7-20-23-25-40l30-5c6 39 69 39 84 7 9-19 16-44 16-74-10 22-31 35-62 35-49 0-73-33-73-83 0-54 28-83 82-83zm-1 141c31-1 51-18 51-49 0-36-14-67-51-67-34 0-49 23-49 58 0 34 15 58 49 58" id="bW"/><g id="Q"><use transform="matrix(0.05555555555555555,0,0,0.05555555555555555,0,0)" xlink:href="#aE"/><use transform="matrix(0.05555555555555555,0,0,0.05555555555555555,14.388888888888888,0)" xlink:href="#bW"/></g><path fill="#333" d="M127-220V0H93v-220H8v-28h204v28h-85" id="bX"/><g id="R"><use transform="matrix(0.05555555555555555,0,0,0.05555555555555555,0,0)" xlink:href="#bX"/><use transform="matrix(0.05555555555555555,0,0,0.05555555555555555,11.444444444444445,0)" xlink:href="#bd"/><use transform="matrix(0.05555555555555555,0,0,0.05555555555555555,18.055555555555557,0)" xlink:href="#aG"/><use transform="matrix(0.05555555555555555,0,0,0.05555555555555555,29.166666666666664,0)" xlink:href="#aF"/><use transform="matrix(0.05555555555555555,0,0,0.05555555555555555,40.27777777777778,0)" xlink:href="#bE"/><use transform="matrix(0.05555555555555555,0,0,0.05555555555555555,51.388888888888886,0)" xlink:href="#bF"/></g><g id="S"><use transform="matrix(0.05555555555555555,0,0,0.05555555555555555,0,0)" xlink:href="#aC"/><use transform="matrix(0.05555555555555555,0,0,0.05555555555555555,14.388888888888888,0)" xlink:href="#bD"/></g><g id="T"><use transform="matrix(0.05555555555555555,0,0,0.05555555555555555,0,0)" xlink:href="#bG"/><use transform="matrix(0.05555555555555555,0,0,0.05555555555555555,13.333333333333332,0)" xlink:href="#aH"/><use transform="matrix(0.05555555555555555,0,0,0.05555555555555555,29.944444444444443,0)" xlink:href="#aI"/><use transform="matrix(0.05555555555555555,0,0,0.05555555555555555,41.05555555555556,0)" xlink:href="#aJ"/><use transform="matrix(0.05555555555555555,0,0,0.05555555555555555,45.44444444444444,0)" xlink:href="#aK"/><use transform="matrix(0.05555555555555555,0,0,0.05555555555555555,56.55555555555556,0)" xlink:href="#aL"/><use transform="matrix(0.05555555555555555,0,0,0.05555555555555555,66.55555555555556,0)" xlink:href="#aH"/><use transform="matrix(0.05555555555555555,0,0,0.05555555555555555,83.16666666666667,0)" xlink:href="#aG"/><use transform="matrix(0.05555555555555555,0,0,0.05555555555555555,94.27777777777779,0)" xlink:href="#aF"/><use transform="matrix(0.05555555555555555,0,0,0.05555555555555555,105.3888888888889,0)" xlink:href="#aM"/></g><path fill="#333" d="M101-251c68 0 85 55 85 127S166 4 100 4C33 4 14-52 14-124c0-73 17-127 87-127zm-1 229c47 0 54-49 54-102s-4-102-53-102c-51 0-55 48-55 102 0 53 5 102 54 102" id="bY"/><g id="U"><use transform="matrix(0.05555555555555555,0,0,0.05555555555555555,0,0)" xlink:href="#aE"/><use transform="matrix(0.05555555555555555,0,0,0.05555555555555555,14.388888888888888,0)" xlink:href="#bb"/><use transform="matrix(0.05555555555555555,0,0,0.05555555555555555,25.5,0)" xlink:href="#bY"/></g><path fill="#333" d="M153-248C145-148 188 4 80 4 36 3 13-21 6-62l32-5c4 25 16 42 43 43 27 0 39-20 39-49v-147H72v-28h81" id="bZ"/><path fill="#333" d="M115-194c53 0 69 39 70 98 0 66-23 100-70 100C84 3 66-7 56-30L54 0H23l1-261h32v101c10-23 28-34 59-34zm-8 174c40 0 45-34 45-75 0-40-5-75-45-74-42 0-51 32-51 76 0 43 10 73 51 73" id="ca"/><g id="V"><use transform="matrix(0.05555555555555555,0,0,0.05555555555555555,0,0)" xlink:href="#bZ"/><use transform="matrix(0.05555555555555555,0,0,0.05555555555555555,10,0)" xlink:href="#aK"/><use transform="matrix(0.05555555555555555,0,0,0.05555555555555555,21.11111111111111,0)" xlink:href="#ca"/></g><path fill="#333" d="M177-190C167-65 218 103 67 71c-23-6-38-20-44-43l32-5c15 47 100 32 89-28v-30C133-14 115 1 83 1 29 1 15-40 15-95c0-56 16-97 71-98 29-1 48 16 59 35 1-10 0-23 2-32h30zM94-22c36 0 50-32 50-73 0-42-14-75-50-75-39 0-46 34-46 75s6 73 46 73" id="cb"/><g id="W"><use transform="matrix(0.05555555555555555,0,0,0.05555555555555555,0,0)" xlink:href="#by"/><use transform="matrix(0.05555555555555555,0,0,0.05555555555555555,13.333333333333332,0)" xlink:href="#aK"/><use transform="matrix(0.05555555555555555,0,0,0.05555555555555555,24.444444444444443,0)" xlink:href="#bF"/><use transform="matrix(0.05555555555555555,0,0,0.05555555555555555,34.44444444444444,0)" xlink:href="#aM"/><use transform="matrix(0.05555555555555555,0,0,0.05555555555555555,40,0)" xlink:href="#bA"/><use transform="matrix(0.05555555555555555,0,0,0.05555555555555555,44.388888888888886,0)" xlink:href="#aF"/><use transform="matrix(0.05555555555555555,0,0,0.05555555555555555,55.5,0)" xlink:href="#cb"/><use transform="matrix(0.05555555555555555,0,0,0.05555555555555555,66.61111111111111,0)" xlink:href="#bF"/></g><use transform="matrix(0.05555555555555555,0,0,0.05555555555555555,0,0)" xlink:href="#bw" id="X"/><g id="Y"><use transform="matrix(0.05555555555555555,0,0,0.05555555555555555,0,0)" xlink:href="#bZ"/><use transform="matrix(0.05555555555555555,0,0,0.05555555555555555,10,0)" xlink:href="#aK"/><use transform="matrix(0.05555555555555555,0,0,0.05555555555555555,21.11111111111111,0)" xlink:href="#ca"/></g><g id="Z"><use transform="matrix(0.05555555555555555,0,0,0.05555555555555555,0,0)" xlink:href="#aE"/><use transform="matrix(0.05555555555555555,0,0,0.05555555555555555,14.388888888888888,0)" xlink:href="#bb"/><use transform="matrix(0.05555555555555555,0,0,0.05555555555555555,24,0)" xlink:href="#bb"/></g><g id="aa"><use transform="matrix(0.05555555555555555,0,0,0.05555555555555555,0,0)" xlink:href="#bc"/><use transform="matrix(0.05555555555555555,0,0,0.05555555555555555,14.388888888888888,0)" xlink:href="#aG"/><use transform="matrix(0.05555555555555555,0,0,0.05555555555555555,25.5,0)" xlink:href="#bd"/><use transform="matrix(0.05555555555555555,0,0,0.05555555555555555,32.111111111111114,0)" xlink:href="#aM"/><use transform="matrix(0.05555555555555555,0,0,0.05555555555555555,37.66666666666667,0)" xlink:href="#bA"/><use transform="matrix(0.05555555555555555,0,0,0.05555555555555555,42.05555555555556,0)" xlink:href="#bz"/><use transform="matrix(0.05555555555555555,0,0,0.05555555555555555,47.611111111111114,0)" xlink:href="#bA"/><use transform="matrix(0.05555555555555555,0,0,0.05555555555555555,52,0)" xlink:href="#bf"/><use transform="matrix(0.05555555555555555,0,0,0.05555555555555555,62,0)" xlink:href="#be"/><use transform="matrix(0.05555555555555555,0,0,0.05555555555555555,73.11111111111111,0)" xlink:href="#aM"/><use transform="matrix(0.05555555555555555,0,0,0.05555555555555555,78.66666666666667,0)" xlink:href="#bA"/><use transform="matrix(0.05555555555555555,0,0,0.05555555555555555,83.05555555555556,0)" xlink:href="#aK"/><use transform="matrix(0.05555555555555555,0,0,0.05555555555555555,94.16666666666667,0)" xlink:href="#aF"/><use transform="matrix(0.05555555555555555,0,0,0.05555555555555555,105.27777777777779,0)" xlink:href="#bF"/></g><g id="ab"><use transform="matrix(0.05555555555555555,0,0,0.05555555555555555,0,0)" xlink:href="#aC"/><use transform="matrix(0.05555555555555555,0,0,0.05555555555555555,14.388888888888888,0)" xlink:href="#bN"/></g><g id="ac"><use transform="matrix(0.05555555555555555,0,0,0.05555555555555555,0,0)" xlink:href="#bc"/><use transform="matrix(0.05555555555555555,0,0,0.05555555555555555,14.388888888888888,0)" xlink:href="#aG"/><use transform="matrix(0.05555555555555555,0,0,0.05555555555555555,25.5,0)" xlink:href="#bd"/><use transform="matrix(0.05555555555555555,0,0,0.05555555555555555,32.111111111111114,0)" xlink:href="#aM"/><use transform="matrix(0.05555555555555555,0,0,0.05555555555555555,37.66666666666667,0)" xlink:href="#bA"/><use transform="matrix(0.05555555555555555,0,0,0.05555555555555555,42.05555555555556,0)" xlink:href="#bz"/><use transform="matrix(0.05555555555555555,0,0,0.05555555555555555,47.611111111111114,0)" xlink:href="#bA"/><use transform="matrix(0.05555555555555555,0,0,0.05555555555555555,52,0)" xlink:href="#bf"/><use transform="matrix(0.05555555555555555,0,0,0.05555555555555555,62,0)" xlink:href="#be"/><use transform="matrix(0.05555555555555555,0,0,0.05555555555555555,73.11111111111111,0)" xlink:href="#aM"/><use transform="matrix(0.05555555555555555,0,0,0.05555555555555555,78.66666666666667,0)" xlink:href="#bA"/><use transform="matrix(0.05555555555555555,0,0,0.05555555555555555,83.05555555555556,0)" xlink:href="#aK"/><use transform="matrix(0.05555555555555555,0,0,0.05555555555555555,94.16666666666667,0)" xlink:href="#aF"/><use transform="matrix(0.05555555555555555,0,0,0.05555555555555555,105.27777777777779,0)" xlink:href="#bF"/></g><g id="ad"><use transform="matrix(0.05555555555555555,0,0,0.05555555555555555,0,0)" xlink:href="#aE"/><use transform="matrix(0.05555555555555555,0,0,0.05555555555555555,14.388888888888888,0)" xlink:href="#bb"/><use transform="matrix(0.05555555555555555,0,0,0.05555555555555555,25.5,0)" xlink:href="#bD"/></g><path fill="#333" d="M30 0v-248h33v221h125V0H30" id="cc"/><g id="ae"><use transform="matrix(0.05555555555555555,0,0,0.05555555555555555,0,0)" xlink:href="#cc"/><use transform="matrix(0.05555555555555555,0,0,0.05555555555555555,11.11111111111111,0)" xlink:href="#aG"/><use transform="matrix(0.05555555555555555,0,0,0.05555555555555555,22.22222222222222,0)" xlink:href="#be"/><use transform="matrix(0.05555555555555555,0,0,0.05555555555555555,33.33333333333333,0)" xlink:href="#bd"/><use transform="matrix(0.05555555555555555,0,0,0.05555555555555555,39.94444444444444,0)" xlink:href="#aF"/><use transform="matrix(0.05555555555555555,0,0,0.05555555555555555,51.05555555555556,0)" xlink:href="#bA"/><use transform="matrix(0.05555555555555555,0,0,0.05555555555555555,55.44444444444444,0)" xlink:href="#aF"/><use transform="matrix(0.05555555555555555,0,0,0.05555555555555555,66.55555555555556,0)" xlink:href="#cb"/></g><path fill="#333" d="M240 0l2-218c-23 76-54 145-80 218h-23L58-218 59 0H30v-248h44l77 211c21-75 51-140 76-211h43V0h-30" id="cd"/><g id="af"><use transform="matrix(0.05555555555555555,0,0,0.05555555555555555,0,0)" xlink:href="#cd"/><use transform="matrix(0.05555555555555555,0,0,0.05555555555555555,16.61111111111111,0)" xlink:href="#be"/><use transform="matrix(0.05555555555555555,0,0,0.05555555555555555,27.72222222222222,0)" xlink:href="#aM"/><use transform="matrix(0.05555555555555555,0,0,0.05555555555555555,33.27777777777778,0)" xlink:href="#aG"/><use transform="matrix(0.05555555555555555,0,0,0.05555555555555555,44.388888888888886,0)" xlink:href="#bd"/><use transform="matrix(0.05555555555555555,0,0,0.05555555555555555,51,0)" xlink:href="#bA"/><use transform="matrix(0.05555555555555555,0,0,0.05555555555555555,55.388888888888886,0)" xlink:href="#be"/><use transform="matrix(0.05555555555555555,0,0,0.05555555555555555,66.5,0)" xlink:href="#aJ"/></g><path fill="#333" d="M64 0c3-98 48-159 88-221H18v-27h164v26C143-157 98-101 97 0H64" id="ce"/><g id="ag"><use transform="matrix(0.05555555555555555,0,0,0.05555555555555555,0,0)" xlink:href="#aC"/><use transform="matrix(0.05555555555555555,0,0,0.05555555555555555,14.388888888888888,0)" xlink:href="#ce"/></g><g id="ah"><use transform="matrix(0.05555555555555555,0,0,0.05555555555555555,0,0)" xlink:href="#cc"/><use transform="matrix(0.05555555555555555,0,0,0.05555555555555555,11.11111111111111,0)" xlink:href="#aG"/><use transform="matrix(0.05555555555555555,0,0,0.05555555555555555,22.22222222222222,0)" xlink:href="#be"/><use transform="matrix(0.05555555555555555,0,0,0.05555555555555555,33.33333333333333,0)" xlink:href="#bd"/><use transform="matrix(0.05555555555555555,0,0,0.05555555555555555,39.94444444444444,0)" xlink:href="#aF"/><use transform="matrix(0.05555555555555555,0,0,0.05555555555555555,51.05555555555556,0)" xlink:href="#bA"/><use transform="matrix(0.05555555555555555,0,0,0.05555555555555555,55.44444444444444,0)" xlink:href="#aF"/><use transform="matrix(0.05555555555555555,0,0,0.05555555555555555,66.55555555555556,0)" xlink:href="#cb"/></g><g id="ai"><use transform="matrix(0.05555555555555555,0,0,0.05555555555555555,0,0)" xlink:href="#aE"/><use transform="matrix(0.05555555555555555,0,0,0.05555555555555555,14.388888888888888,0)" xlink:href="#bb"/><use transform="matrix(0.05555555555555555,0,0,0.05555555555555555,25.5,0)" xlink:href="#bN"/></g><g id="aj"><use transform="matrix(0.05555555555555555,0,0,0.05555555555555555,0,0)" xlink:href="#aC"/><use transform="matrix(0.05555555555555555,0,0,0.05555555555555555,14.388888888888888,0)" xlink:href="#aG"/><use transform="matrix(0.05555555555555555,0,0,0.05555555555555555,25.5,0)" xlink:href="#aH"/><use transform="matrix(0.05555555555555555,0,0,0.05555555555555555,42.111111111111114,0)" xlink:href="#be"/><use transform="matrix(0.05555555555555555,0,0,0.05555555555555555,53.22222222222223,0)" xlink:href="#aF"/><use transform="matrix(0.05555555555555555,0,0,0.05555555555555555,64.33333333333334,0)" xlink:href="#bE"/></g><g id="ak"><use transform="matrix(0.05555555555555555,0,0,0.05555555555555555,0,0)" xlink:href="#bX"/><use transform="matrix(0.05555555555555555,0,0,0.05555555555555555,9.944444444444443,0)" xlink:href="#be"/><use transform="matrix(0.05555555555555555,0,0,0.05555555555555555,21.055555555555554,0)" xlink:href="#bd"/><use transform="matrix(0.05555555555555555,0,0,0.05555555555555555,27.666666666666664,0)" xlink:href="#cb"/><use transform="matrix(0.05555555555555555,0,0,0.05555555555555555,38.77777777777777,0)" xlink:href="#aG"/><use transform="matrix(0.05555555555555555,0,0,0.05555555555555555,49.888888888888886,0)" xlink:href="#aM"/></g><path fill="#333" d="M134-131c28 9 52 24 51 62-1 50-34 73-85 73S17-19 16-69c0-36 21-54 49-61-75-25-45-126 34-121 46 3 78 18 79 63 0 33-17 51-44 57zm-34-11c31 1 46-15 46-44 0-28-17-43-47-42-29 0-46 13-45 42 1 28 16 44 46 44zm1 122c35 0 51-18 51-52 0-30-18-46-53-46-33 0-51 17-51 47 0 34 19 51 53 51" id="cf"/><g id="al"><use transform="matrix(0.05555555555555555,0,0,0.05555555555555555,0,0)" xlink:href="#aC"/><use transform="matrix(0.05555555555555555,0,0,0.05555555555555555,14.388888888888888,0)" xlink:href="#cf"/></g><g id="am"><use transform="matrix(0.05555555555555555,0,0,0.05555555555555555,0,0)" xlink:href="#aC"/><use transform="matrix(0.05555555555555555,0,0,0.05555555555555555,14.388888888888888,0)" xlink:href="#aG"/><use transform="matrix(0.05555555555555555,0,0,0.05555555555555555,25.5,0)" xlink:href="#aH"/><use transform="matrix(0.05555555555555555,0,0,0.05555555555555555,42.111111111111114,0)" xlink:href="#be"/><use transform="matrix(0.05555555555555555,0,0,0.05555555555555555,53.22222222222223,0)" xlink:href="#aF"/><use transform="matrix(0.05555555555555555,0,0,0.05555555555555555,64.33333333333334,0)" xlink:href="#bE"/></g><g id="an"><use transform="matrix(0.05555555555555555,0,0,0.05555555555555555,0,0)" xlink:href="#aE"/><use transform="matrix(0.05555555555555555,0,0,0.05555555555555555,14.388888888888888,0)" xlink:href="#bb"/><use transform="matrix(0.05555555555555555,0,0,0.05555555555555555,25.5,0)" xlink:href="#bv"/></g><path fill="#333" d="M190 0L58-211 59 0H30v-248h39L202-35l-2-213h31V0h-41" id="cg"/><g id="ao"><use transform="matrix(0.05555555555555555,0,0,0.05555555555555555,0,0)" xlink:href="#cg"/><use transform="matrix(0.05555555555555555,0,0,0.05555555555555555,14.388888888888888,0)" xlink:href="#aG"/><use transform="matrix(0.05555555555555555,0,0,0.05555555555555555,25.5,0)" xlink:href="#bP"/><use transform="matrix(0.05555555555555555,0,0,0.05555555555555555,39.888888888888886,0)" xlink:href="#bF"/></g><g id="ap"><use transform="matrix(0.05555555555555555,0,0,0.05555555555555555,0,0)" xlink:href="#aC"/><use transform="matrix(0.05555555555555555,0,0,0.05555555555555555,14.388888888888888,0)" xlink:href="#bW"/></g><g id="aq"><use transform="matrix(0.05555555555555555,0,0,0.05555555555555555,0,0)" xlink:href="#cg"/><use transform="matrix(0.05555555555555555,0,0,0.05555555555555555,14.388888888888888,0)" xlink:href="#aG"/><use transform="matrix(0.05555555555555555,0,0,0.05555555555555555,25.5,0)" xlink:href="#bP"/><use transform="matrix(0.05555555555555555,0,0,0.05555555555555555,39.888888888888886,0)" xlink:href="#bF"/></g><g id="ar"><use transform="matrix(0.05555555555555555,0,0,0.05555555555555555,0,0)" xlink:href="#aE"/><use transform="matrix(0.05555555555555555,0,0,0.05555555555555555,14.388888888888888,0)" xlink:href="#ce"/></g><g id="as"><use transform="matrix(0.05555555555555555,0,0,0.05555555555555555,0,0)" xlink:href="#bS"/><use transform="matrix(0.05555555555555555,0,0,0.05555555555555555,13.333333333333332,0)" xlink:href="#aG"/><use transform="matrix(0.05555555555555555,0,0,0.05555555555555555,24.444444444444443,0)" xlink:href="#aJ"/><use transform="matrix(0.05555555555555555,0,0,0.05555555555555555,28.833333333333332,0)" xlink:href="#aG"/><use transform="matrix(0.05555555555555555,0,0,0.05555555555555555,39.94444444444444,0)" xlink:href="#bf"/><use transform="matrix(0.05555555555555555,0,0,0.05555555555555555,49.94444444444444,0)" xlink:href="#aM"/></g><path fill="#333" d="M143 4C61 4 22-44 18-125c-5-107 100-154 193-111 17 8 29 25 37 43l-32 9c-13-25-37-40-76-40-61 0-88 39-88 99 0 61 29 100 91 101 35 0 62-11 79-27v-45h-74v-28h105v86C228-13 192 4 143 4" id="ch"/><g id="at"><use transform="matrix(0.05555555555555555,0,0,0.05555555555555555,0,0)" xlink:href="#ch"/><use transform="matrix(0.05555555555555555,0,0,0.05555555555555555,15.555555555555555,0)" xlink:href="#aK"/><use transform="matrix(0.05555555555555555,0,0,0.05555555555555555,26.666666666666664,0)" xlink:href="#be"/><use transform="matrix(0.05555555555555555,0,0,0.05555555555555555,37.77777777777777,0)" xlink:href="#aJ"/></g><g id="au"><use transform="matrix(0.05555555555555555,0,0,0.05555555555555555,0,0)" xlink:href="#aE"/><use transform="matrix(0.05555555555555555,0,0,0.05555555555555555,14.388888888888888,0)" xlink:href="#bb"/><use transform="matrix(0.05555555555555555,0,0,0.05555555555555555,25.5,0)" xlink:href="#aD"/></g><g id="av"><use transform="matrix(0.05555555555555555,0,0,0.05555555555555555,0,0)" xlink:href="#cd"/><use transform="matrix(0.05555555555555555,0,0,0.05555555555555555,16.61111111111111,0)" xlink:href="#be"/><use transform="matrix(0.05555555555555555,0,0,0.05555555555555555,27.72222222222222,0)" xlink:href="#aF"/><use transform="matrix(0.05555555555555555,0,0,0.05555555555555555,38.83333333333333,0)" xlink:href="#be"/><use transform="matrix(0.05555555555555555,0,0,0.05555555555555555,49.94444444444444,0)" xlink:href="#cb"/><use transform="matrix(0.05555555555555555,0,0,0.05555555555555555,61.05555555555555,0)" xlink:href="#aG"/></g><g id="aw"><use transform="matrix(0.05555555555555555,0,0,0.05555555555555555,0,0)" xlink:href="#aE"/><use transform="matrix(0.05555555555555555,0,0,0.05555555555555555,14.388888888888888,0)" xlink:href="#bb"/><use transform="matrix(0.05555555555555555,0,0,0.05555555555555555,25.5,0)" xlink:href="#bx"/></g><g id="ax"><use transform="matrix(0.05555555555555555,0,0,0.05555555555555555,0,0)" xlink:href="#aE"/><use transform="matrix(0.05555555555555555,0,0,0.05555555555555555,14.388888888888888,0)" xlink:href="#cf"/></g><g id="ay"><use transform="matrix(0.05555555555555555,0,0,0.05555555555555555,0,0)" xlink:href="#aE"/><use transform="matrix(0.05555555555555555,0,0,0.05555555555555555,14.388888888888888,0)" xlink:href="#aF"/><use transform="matrix(0.05555555555555555,0,0,0.05555555555555555,25.5,0)" xlink:href="#aG"/><use transform="matrix(0.05555555555555555,0,0,0.05555555555555555,36.611111111111114,0)" xlink:href="#aH"/><use transform="matrix(0.05555555555555555,0,0,0.05555555555555555,53.22222222222223,0)" xlink:href="#aI"/><use transform="matrix(0.05555555555555555,0,0,0.05555555555555555,64.33333333333334,0)" xlink:href="#aJ"/><use transform="matrix(0.05555555555555555,0,0,0.05555555555555555,68.72222222222223,0)" xlink:href="#aK"/><use transform="matrix(0.05555555555555555,0,0,0.05555555555555555,79.83333333333334,0)" xlink:href="#aL"/><use transform="matrix(0.05555555555555555,0,0,0.05555555555555555,89.83333333333334,0)" xlink:href="#aH"/><use transform="matrix(0.05555555555555555,0,0,0.05555555555555555,106.44444444444446,0)" xlink:href="#aG"/><use transform="matrix(0.05555555555555555,0,0,0.05555555555555555,117.55555555555557,0)" xlink:href="#aF"/><use transform="matrix(0.05555555555555555,0,0,0.05555555555555555,128.66666666666669,0)" xlink:href="#aM"/></g><path fill="#fff" d="M185-189c-5-48-123-54-124 2 14 75 158 14 163 119 3 78-121 87-175 55-17-10-28-26-33-46l33-7c5 56 141 63 141-1 0-78-155-14-162-118-5-82 145-84 179-34 5 7 8 16 11 25" id="ci"/><g id="az"><use transform="matrix(0.05555555555555555,0,0,0.05555555555555555,0,0)" xlink:href="#ci"/><use transform="matrix(0.05555555555555555,0,0,0.05555555555555555,13.333333333333332,0)" xlink:href="#aY"/><use transform="matrix(0.05555555555555555,0,0,0.05555555555555555,29.944444444444443,0)" xlink:href="#aZ"/><use transform="matrix(0.05555555555555555,0,0,0.05555555555555555,41.05555555555556,0)" xlink:href="#aV"/><use transform="matrix(0.05555555555555555,0,0,0.05555555555555555,47.66666666666667,0)" xlink:href="#aP"/></g><path fill="#fff" d="M179-190L93 31C79 59 56 82 12 73V49c39 6 53-20 64-50L1-190h34L92-34l54-156h33" id="cj"/><g id="aA"><use transform="matrix(0.05555555555555555,0,0,0.05555555555555555,0,0)" xlink:href="#aN"/><use transform="matrix(0.05555555555555555,0,0,0.05555555555555555,14.388888888888888,0)" xlink:href="#aO"/><use transform="matrix(0.05555555555555555,0,0,0.05555555555555555,18.777777777777775,0)" xlink:href="#aP"/><use transform="matrix(0.05555555555555555,0,0,0.05555555555555555,24.33333333333333,0)" xlink:href="#cj"/></g><path fill="#fff" d="M240 0l2-218c-23 76-54 145-80 218h-23L58-218 59 0H30v-248h44l77 211c21-75 51-140 76-211h43V0h-30" id="ck"/><path fill="#fff" d="M177-190C167-65 218 103 67 71c-23-6-38-20-44-43l32-5c15 47 100 32 89-28v-30C133-14 115 1 83 1 29 1 15-40 15-95c0-56 16-97 71-98 29-1 48 16 59 35 1-10 0-23 2-32h30zM94-22c36 0 50-32 50-73 0-42-14-75-50-75-39 0-46 34-46 75s6 73 46 73" id="cl"/><g id="aB"><use transform="matrix(0.05555555555555555,0,0,0.05555555555555555,0,0)" xlink:href="#ck"/><use transform="matrix(0.05555555555555555,0,0,0.05555555555555555,16.61111111111111,0)" xlink:href="#aZ"/><use transform="matrix(0.05555555555555555,0,0,0.05555555555555555,27.72222222222222,0)" xlink:href="#aS"/><use transform="matrix(0.05555555555555555,0,0,0.05555555555555555,38.83333333333333,0)" xlink:href="#aZ"/><use transform="matrix(0.05555555555555555,0,0,0.05555555555555555,49.94444444444444,0)" xlink:href="#cl"/><use transform="matrix(0.05555555555555555,0,0,0.05555555555555555,61.05555555555555,0)" xlink:href="#aR"/><use transform="matrix(0.05555555555555555,0,0,0.05555555555555555,72.16666666666667,0)" xlink:href="#aV"/></g></defs></g></svg>