<svg xmlns="http://www.w3.org/2000/svg" xmlns:xlink="http://www.w3.org/1999/xlink" xmlns:lucid="lucid" width="3680" height="2016.21"><g transform="translate(0 0)" lucid:page-tab-id="0_0"><path d="M0 0h3680v2016.2H0z" fill="#fff"/><g filter="url(#a)"><path d="M331.5 284a20 20 0 0 1 20-20H720a20 20 0 0 1 20 20v740a20 20 0 0 1-20 20H351.5a20 20 0 0 1-20-20z" stroke="#747474" stroke-width="3" fill="#fff"/><path d="M351.5 354.83h387v3h-387z" fill="#e5e5e5"/><use xlink:href="#b" transform="matrix(1,0,0,1,351.48762366864764,296.16666693333315) translate(0 33.944444355555554)"/></g><g filter="url(#c)"><path d="M385.74 424a20 20 0 0 1 20-20h260a20 20 0 0 1 20 20v119.82a20 20 0 0 1-20 20h-260a20 20 0 0 1-20-20z" stroke="#747474" stroke-width="3" fill="#fff"/><path d="M405.74 486.6h278.5v3h-278.5z" fill="#e5e5e5"/><use xlink:href="#d" transform="matrix(1,0,0,1,405.7438118343239,444.4066666666664) translate(0 26.86)"/><use xlink:href="#e" transform="matrix(1,0,0,1,405.7438118343239,444.4066666666664) translate(77.38666666666667 26.86)"/></g><g filter="url(#c)"><path d="M385.74 629.52a20 20 0 0 1 20-20h260a20 20 0 0 1 20 20v119.83a20 20 0 0 1-20 20h-260a20 20 0 0 1-20-20z" stroke="#747474" stroke-width="3" fill="#fff"/><path d="M405.74 692.12h278.5v3h-278.5z" fill="#e5e5e5"/><use xlink:href="#d" transform="matrix(1,0,0,1,405.7438118343239,649.9314453202797) translate(0 26.86)"/><use xlink:href="#f" transform="matrix(1,0,0,1,405.7438118343239,649.9314453202797) translate(77.38666666666667 26.86)"/></g><g filter="url(#c)"><path d="M385.74 835.05a20 20 0 0 1 20-20h260a20 20 0 0 1 20 20v119.82a20 20 0 0 1-20 20h-260a20 20 0 0 1-20-20z" stroke="#747474" stroke-width="3" fill="#fff"/><path d="M405.74 897.64h278.5v3h-278.5z" fill="#e5e5e5"/><use xlink:href="#d" transform="matrix(1,0,0,1,405.7438118343239,855.4562239738929) translate(0 26.86)"/><use xlink:href="#g" transform="matrix(1,0,0,1,405.7438118343239,855.4562239738929) translate(77.38666666666667 26.86)"/></g><g filter="url(#a)"><path d="M880 284a20 20 0 0 1 20-20h368.5a20 20 0 0 1 20 20v740a20 20 0 0 1-20 20H900a20 20 0 0 1-20-20z" stroke="#747474" stroke-width="3" fill="#fff"/><path d="M900 354.83h387v3H900z" fill="#e5e5e5"/><use xlink:href="#h" transform="matrix(1,0,0,1,900,296.1666669333331) translate(0 33.944444355555554)"/></g><g filter="url(#i)"><path d="M934.26 404a20 20 0 0 1 20-20h260a20 20 0 0 1 20 20v138.63a20 20 0 0 1-20 20h-260a20 20 0 0 1-20-20z" stroke="#747474" stroke-width="3" fill="#fff"/><path d="M954.26 485.4h278.5v3h-278.5z" fill="#e5e5e5"/><use xlink:href="#j" transform="matrix(1,0,0,1,954.2561881656761,405.60399999999987) translate(0 26.557333333333336)"/><use xlink:href="#e" transform="matrix(1,0,0,1,954.2561881656761,405.60399999999987) translate(0 64.16266666666667)"/></g><g filter="url(#i)"><path d="M934.26 623.52a20 20 0 0 1 20-20h260a20 20 0 0 1 20 20v138.63a20 20 0 0 1-20 20h-260a20 20 0 0 1-20-20z" stroke="#747474" stroke-width="3" fill="#fff"/><path d="M954.26 704.92h278.5v3h-278.5z" fill="#e5e5e5"/><use xlink:href="#j" transform="matrix(1,0,0,1,954.2561881656761,625.128778653613) translate(0 26.557333333333336)"/><use xlink:href="#f" transform="matrix(1,0,0,1,954.2561881656761,625.128778653613) translate(0 64.16266666666667)"/></g><g filter="url(#a)"><path d="M1428.5 284a20 20 0 0 1 20-20h368.53a20 20 0 0 1 20 20v740a20 20 0 0 1-20 20H1448.5a20 20 0 0 1-20-20z" stroke="#747474" stroke-width="3" fill="#fff"/><path d="M1448.5 354.83h387.03v3H1448.5z" fill="#e5e5e5"/><use xlink:href="#k" transform="matrix(1,0,0,1,1448.5123763313522,296.1666669333331) translate(0 33.944444355555554)"/><use xlink:href="#l" transform="matrix(1,0,0,1,1448.5123763313522,296.1666669333331) translate(189.53086220246914 33.944444355555554)"/></g><g filter="url(#i)"><path d="M1482.77 399.2a20 20 0 0 1 20-20h260a20 20 0 0 1 20 20v138.62a20 20 0 0 1-20 20h-260a20 20 0 0 1-20-20z" stroke="#747474" stroke-width="3" fill="#fff"/><path d="M1502.77 480.6h278.5v3h-278.5z" fill="#e5e5e5"/><use xlink:href="#m" transform="matrix(1,0,0,1,1502.7685644970284,400.80133333333316) translate(0 26.557333333333336)"/><use xlink:href="#e" transform="matrix(1,0,0,1,1502.7685644970284,400.80133333333316) translate(0 64.16266666666667)"/></g><g filter="url(#i)"><path d="M1482.77 623.52a20 20 0 0 1 20-20h260a20 20 0 0 1 20 20v138.63a20 20 0 0 1-20 20h-260a20 20 0 0 1-20-20z" stroke="#747474" stroke-width="3" fill="#fff"/><path d="M1502.77 704.92h278.5v3h-278.5z" fill="#e5e5e5"/><use xlink:href="#m" transform="matrix(1,0,0,1,1502.7685644970284,625.1287786536133) translate(0 26.557333333333336)"/><use xlink:href="#f" transform="matrix(1,0,0,1,1502.7685644970284,625.1287786536133) translate(0 64.16266666666667)"/></g><g filter="url(#i)"><path d="M1482.77 835.05a20 20 0 0 1 20-20h260a20 20 0 0 1 20 20v138.63a20 20 0 0 1-20 20h-260a20 20 0 0 1-20-20z" stroke="#747474" stroke-width="3" fill="#fff"/><path d="M1502.77 916.45h278.5v3h-278.5z" fill="#e5e5e5"/><use xlink:href="#m" transform="matrix(1,0,0,1,1502.7685644970284,836.6535573072264) translate(0 26.557333333333336)"/><use xlink:href="#g" transform="matrix(1,0,0,1,1502.7685644970284,836.6535573072264) translate(0 64.16266666666667)"/></g><g filter="url(#a)"><path d="M1977.03 284a20 20 0 0 1 20-20h368.5a20 20 0 0 1 20 20v740a20 20 0 0 1-20 20h-368.5a20 20 0 0 1-20-20z" stroke="#747474" stroke-width="3" fill="#fff"/><path d="M1997.03 354.83h387v3h-387z" fill="#e5e5e5"/><use xlink:href="#n" transform="matrix(1,0,0,1,1997.0247526627045,296.1666669333331) translate(0 33.944444355555554)"/></g><g filter="url(#i)"><path d="M2031.28 399.2a20 20 0 0 1 20-20h260a20 20 0 0 1 20 20v138.62a20 20 0 0 1-20 20h-260a20 20 0 0 1-20-20z" stroke="#747474" stroke-width="3" fill="#fff"/><path d="M2051.28 480.6h278.5v3h-278.5z" fill="#e5e5e5"/><use xlink:href="#o" transform="matrix(1,0,0,1,2051.2809408283806,400.80133333333316) translate(0 26.557333333333336)"/><use xlink:href="#e" transform="matrix(1,0,0,1,2051.2809408283806,400.80133333333316) translate(0 64.16266666666667)"/></g><g filter="url(#c)"><path d="M2031.28 629.52a20 20 0 0 1 20-20h260a20 20 0 0 1 20 20v119.83a20 20 0 0 1-20 20h-260a20 20 0 0 1-20-20z" stroke="#747474" stroke-width="3" fill="#fff"/><path d="M2051.28 692.12h278.5v3h-278.5z" fill="#e5e5e5"/><use xlink:href="#p" transform="matrix(1,0,0,1,2051.2809408283806,649.9314453202797) translate(0 26.86)"/><use xlink:href="#f" transform="matrix(1,0,0,1,2051.2809408283806,649.9314453202797) translate(155.89333333333332 26.86)"/></g><path d="M1000 38a6 6 0 0 1 6-6h1428a6 6 0 0 1 6 6v158a6 6 0 0 1-6 6H1006a6 6 0 0 1-6-6z" stroke="#000" stroke-opacity="0" stroke-width="3" fill="#fff" fill-opacity="0"/><use xlink:href="#q" transform="matrix(1,0,0,1,1005,37) translate(17.50000000000091 93.33333333333326)"/><use xlink:href="#r" transform="matrix(1,0,0,1,1005,37) translate(366.94444444444485 93.33333333333326)"/><use xlink:href="#s" transform="matrix(1,0,0,1,1005,37) translate(502.87037037037055 93.33333333333326)"/><use xlink:href="#t" transform="matrix(1,0,0,1,1005,37) translate(878.2407407407404 93.33333333333326)"/><use xlink:href="#u" transform="matrix(1,0,0,1,1005,37) translate(916.9444444444441 93.33333333333326)"/><use xlink:href="#v" transform="matrix(1,0,0,1,1005,37) translate(1092.4999999999995 93.33333333333326)"/><use xlink:href="#w" transform="matrix(1,0,0,1,1005,37) translate(1216.5740740740735 93.33333333333326)"/><path d="M60 456.98a6 6 0 0 1 6-6h228a6 6 0 0 1 6 6v72.67a6 6 0 0 1-6 6H66a6 6 0 0 1-6-6z" stroke="#000" stroke-opacity="0" stroke-width="3" fill="#fff" fill-opacity="0"/><use xlink:href="#x" transform="matrix(1,0,0,1,65,455.97966666666656) translate(38.25925925925928 27.232638888888886)"/><use xlink:href="#y" transform="matrix(1,0,0,1,65,455.97966666666656) translate(78.87654320987656 64.56597222222221)"/><path d="M60 653.1a6 6 0 0 1 6-6h228a6 6 0 0 1 6 6v72.67a6 6 0 0 1-6 6H66a6 6 0 0 1-6-6z" stroke="#000" stroke-opacity="0" stroke-width="3" fill="#fff" fill-opacity="0"/><use xlink:href="#z" transform="matrix(1,0,0,1,65,652.1031119869465) translate(59.734567901234584 27.232638888888886)"/><use xlink:href="#y" transform="matrix(1,0,0,1,65,652.1031119869465) translate(78.87654320987656 64.56597222222221)"/><path d="M60 868.03a6 6 0 0 1 6-6h228a6 6 0 0 1 6 6v72.67a6 6 0 0 1-6 6H66a6 6 0 0 1-6-6z" stroke="#000" stroke-opacity="0" stroke-width="3" fill="#fff" fill-opacity="0"/><use xlink:href="#A" transform="matrix(1,0,0,1,65,867.029223973893) translate(37.95679012345681 27.232638888888886)"/><use xlink:href="#B" transform="matrix(1,0,0,1,65,867.029223973893) translate(104.24074074074075 27.232638888888886)"/><use xlink:href="#y" transform="matrix(1,0,0,1,65,867.029223973893) translate(78.87654320987656 64.56597222222221)"/><g filter="url(#a)"><path d="M2525.54 284a20 20 0 0 1 20-20h368.5a20 20 0 0 1 20 20v740a20 20 0 0 1-20 20h-368.5a20 20 0 0 1-20-20z" stroke="#747474" stroke-width="3" fill="#fff"/><path d="M2545.54 354.83h387v3h-387z" fill="#e5e5e5"/><use xlink:href="#C" transform="matrix(1,0,0,1,2545.5371289940567,296.16666693333315) translate(0 33.944444355555554)"/></g><g filter="url(#i)"><path d="M2579.8 404a20 20 0 0 1 20-20h260a20 20 0 0 1 20 20v138.63a20 20 0 0 1-20 20h-260a20 20 0 0 1-20-20z" stroke="#747474" stroke-width="3" fill="#fff"/><path d="M2599.8 485.4h278.5v3h-278.5z" fill="#e5e5e5"/><use xlink:href="#D" transform="matrix(1,0,0,1,2599.793317159733,405.60399999999987) translate(0 26.557333333333336)"/><use xlink:href="#e" transform="matrix(1,0,0,1,2599.793317159733,405.60399999999987) translate(0 64.16266666666667)"/></g><g filter="url(#i)"><path d="M2579.8 623.52a20 20 0 0 1 20-20h260a20 20 0 0 1 20 20v138.63a20 20 0 0 1-20 20h-260a20 20 0 0 1-20-20z" stroke="#747474" stroke-width="3" fill="#fff"/><path d="M2599.8 704.92h278.5v3h-278.5z" fill="#e5e5e5"/><use xlink:href="#D" transform="matrix(1,0,0,1,2599.793317159733,625.128778653613) translate(0 26.557333333333336)"/><use xlink:href="#f" transform="matrix(1,0,0,1,2599.793317159733,625.128778653613) translate(0 64.16266666666667)"/></g><g filter="url(#i)"><path d="M2579.8 835.05a20 20 0 0 1 20-20h260a20 20 0 0 1 20 20v138.63a20 20 0 0 1-20 20h-260a20 20 0 0 1-20-20z" stroke="#747474" stroke-width="3" fill="#fff"/><path d="M2599.8 916.45h278.5v3h-278.5z" fill="#e5e5e5"/><use xlink:href="#D" transform="matrix(1,0,0,1,2599.793317159733,836.6535573072264) translate(0 26.557333333333336)"/><use xlink:href="#g" transform="matrix(1,0,0,1,2599.793317159733,836.6535573072264) translate(0 64.16266666666667)"/></g><g filter="url(#a)"><path d="M331.5 1143.53a20 20 0 0 1 20-20H720a20 20 0 0 1 20 20v740a20 20 0 0 1-20 20H351.5a20 20 0 0 1-20-20z" stroke="#747474" stroke-width="3" fill="#fff"/><path d="M351.5 1214.36h387v3h-387z" fill="#e5e5e5"/><use xlink:href="#E" transform="matrix(1,0,0,1,351.48762366864776,1155.6914455869462) translate(0 33.944444355555554)"/></g><g filter="url(#i)"><path d="M385.74 1263.53a20 20 0 0 1 20-20h260a20 20 0 0 1 20 20v138.62a20 20 0 0 1-20 20h-260a20 20 0 0 1-20-20z" stroke="#747474" stroke-width="3" fill="#fff"/><path d="M405.74 1326.12h278.5v3h-278.5z" fill="#e5e5e5"/><use xlink:href="#F" transform="matrix(1,0,0,1,405.7438118343239,1283.9314453202796) translate(0 26.86)"/><use xlink:href="#e" transform="matrix(1,0,0,1,405.7438118343239,1283.9314453202796) translate(65.04 26.86)"/></g><g filter="url(#i)"><path d="M385.74 1483.05a20 20 0 0 1 20-20h260a20 20 0 0 1 20 20v138.63a20 20 0 0 1-20 20h-260a20 20 0 0 1-20-20z" stroke="#747474" stroke-width="3" fill="#fff"/><path d="M405.74 1545.64h278.5v3h-278.5z" fill="#e5e5e5"/><use xlink:href="#F" transform="matrix(1,0,0,1,405.7438118343239,1503.456223973893) translate(0 26.86)"/><use xlink:href="#f" transform="matrix(1,0,0,1,405.7438118343239,1503.456223973893) translate(65.04 26.86)"/></g><g filter="url(#c)"><path d="M385.74 1694.57a20 20 0 0 1 20-20h260a20 20 0 0 1 20 20v119.83a20 20 0 0 1-20 20h-260a20 20 0 0 1-20-20z" stroke="#747474" stroke-width="3" fill="#fff"/><path d="M405.74 1757.17h278.5v3h-278.5z" fill="#e5e5e5"/><use xlink:href="#G" transform="matrix(1,0,0,1,405.7438118343239,1714.981002627506) translate(0 26.86)"/><use xlink:href="#g" transform="matrix(1,0,0,1,405.7438118343239,1714.981002627506) translate(90.13333333333331 26.86)"/></g><g filter="url(#a)"><path d="M880 1143.53a20 20 0 0 1 20-20h368.5a20 20 0 0 1 20 20v740a20 20 0 0 1-20 20H900a20 20 0 0 1-20-20z" stroke="#747474" stroke-width="3" fill="#fff"/><path d="M900 1214.36h387v3H900z" fill="#e5e5e5"/><use xlink:href="#H" transform="matrix(1,0,0,1,900,1155.6914455869462) translate(0 33.944444355555554)"/><use xlink:href="#I" transform="matrix(1,0,0,1,900,1155.6914455869462) translate(86.55555464444444 33.944444355555554)"/></g><g filter="url(#i)"><path d="M934.26 1263.53a20 20 0 0 1 20-20h260a20 20 0 0 1 20 20v138.62a20 20 0 0 1-20 20h-260a20 20 0 0 1-20-20z" stroke="#747474" stroke-width="3" fill="#fff"/><path d="M954.26 1344.92h278.5v3h-278.5z" fill="#e5e5e5"/><use xlink:href="#J" transform="matrix(1,0,0,1,954.2561881656761,1265.128778653613) translate(0 26.557333333333336)"/><use xlink:href="#e" transform="matrix(1,0,0,1,954.2561881656761,1265.128778653613) translate(0 64.16266666666667)"/></g><g filter="url(#i)"><path d="M934.26 1483.05a20 20 0 0 1 20-20h260a20 20 0 0 1 20 20v138.63a20 20 0 0 1-20 20h-260a20 20 0 0 1-20-20z" stroke="#747474" stroke-width="3" fill="#fff"/><path d="M954.26 1545.64h278.5v3h-278.5z" fill="#e5e5e5"/><use xlink:href="#K" transform="matrix(1,0,0,1,954.2561881656761,1503.456223973893) translate(0 26.86)"/><use xlink:href="#f" transform="matrix(1,0,0,1,954.2561881656761,1503.456223973893) translate(147.46666666666667 26.86)"/></g><g filter="url(#a)"><path d="M1428.5 1143.53a20 20 0 0 1 20-20h368.53a20 20 0 0 1 20 20v740a20 20 0 0 1-20 20H1448.5a20 20 0 0 1-20-20z" stroke="#747474" stroke-width="3" fill="#fff"/><path d="M1448.5 1214.36h387.03v3H1448.5z" fill="#e5e5e5"/><use xlink:href="#L" transform="matrix(1,0,0,1,1448.5123763313522,1155.6914455869462) translate(0 33.944444355555554)"/></g><g filter="url(#i)"><path d="M1482.77 1263.53a20 20 0 0 1 20-20h260a20 20 0 0 1 20 20v138.62a20 20 0 0 1-20 20h-260a20 20 0 0 1-20-20z" stroke="#747474" stroke-width="3" fill="#fff"/><path d="M1502.77 1326.12h278.5v3h-278.5z" fill="#e5e5e5"/><use xlink:href="#M" transform="matrix(1,0,0,1,1502.7685644970284,1283.9314453202796) translate(0 26.86)"/><use xlink:href="#e" transform="matrix(1,0,0,1,1502.7685644970284,1283.9314453202796) translate(116.8 26.86)"/></g><g filter="url(#i)"><path d="M1482.77 1483.05a20 20 0 0 1 20-20h260a20 20 0 0 1 20 20v138.63a20 20 0 0 1-20 20h-260a20 20 0 0 1-20-20z" stroke="#747474" stroke-width="3" fill="#fff"/><path d="M1502.77 1545.64h278.5v3h-278.5z" fill="#e5e5e5"/><use xlink:href="#M" transform="matrix(1,0,0,1,1502.7685644970284,1503.456223973893) translate(0 26.86)"/><use xlink:href="#f" transform="matrix(1,0,0,1,1502.7685644970284,1503.456223973893) translate(116.8 26.86)"/></g><g filter="url(#c)"><path d="M1482.77 1694.57a20 20 0 0 1 20-20h260a20 20 0 0 1 20 20v119.83a20 20 0 0 1-20 20h-260a20 20 0 0 1-20-20z" stroke="#747474" stroke-width="3" fill="#fff"/><path d="M1502.77 1757.17h278.5v3h-278.5z" fill="#e5e5e5"/><use xlink:href="#M" transform="matrix(1,0,0,1,1502.7685644970284,1714.9810026275056) translate(0 26.86)"/><use xlink:href="#g" transform="matrix(1,0,0,1,1502.7685644970284,1714.9810026275056) translate(116.8 26.86)"/></g><g filter="url(#a)"><path d="M1977.03 1143.53a20 20 0 0 1 20-20h368.5a20 20 0 0 1 20 20v740a20 20 0 0 1-20 20h-368.5a20 20 0 0 1-20-20z" stroke="#747474" stroke-width="3" fill="#fff"/><path d="M1997.03 1214.36h387v3h-387z" fill="#e5e5e5"/><use xlink:href="#N" transform="matrix(1,0,0,1,1997.0247526627045,1155.6914455869462) translate(0 33.944444355555554)"/></g><g filter="url(#i)"><path d="M2031.28 1263.53a20 20 0 0 1 20-20h260a20 20 0 0 1 20 20v138.62a20 20 0 0 1-20 20h-260a20 20 0 0 1-20-20z" stroke="#747474" stroke-width="3" fill="#fff"/><path d="M2051.28 1344.92h278.5v3h-278.5z" fill="#e5e5e5"/><use xlink:href="#O" transform="matrix(1,0,0,1,2051.2809408283806,1265.128778653613) translate(0 26.557333333333336)"/><use xlink:href="#e" transform="matrix(1,0,0,1,2051.2809408283806,1265.128778653613) translate(0 64.16266666666667)"/></g><g filter="url(#i)"><path d="M2031.28 1483.05a20 20 0 0 1 20-20h260a20 20 0 0 1 20 20v138.63a20 20 0 0 1-20 20h-260a20 20 0 0 1-20-20z" stroke="#747474" stroke-width="3" fill="#fff"/><path d="M2051.28 1545.64h278.5v3h-278.5z" fill="#e5e5e5"/><use xlink:href="#P" transform="matrix(1,0,0,1,2051.2809408283806,1503.456223973893) translate(0 26.86)"/><use xlink:href="#f" transform="matrix(1,0,0,1,2051.2809408283806,1503.456223973893) translate(144.4 26.86)"/></g><g filter="url(#a)"><path d="M2525.54 1143.53a20 20 0 0 1 20-20h368.5a20 20 0 0 1 20 20v740a20 20 0 0 1-20 20h-368.5a20 20 0 0 1-20-20z" stroke="#747474" stroke-width="3" fill="#fff"/><path d="M2545.54 1214.36h387v3h-387z" fill="#e5e5e5"/><use xlink:href="#Q" transform="matrix(1,0,0,1,2545.5371289940567,1155.6914455869462) translate(0 33.944444355555554)"/></g><g filter="url(#i)"><path d="M2579.8 1263.53a20 20 0 0 1 20-20h260a20 20 0 0 1 20 20v138.62a20 20 0 0 1-20 20h-260a20 20 0 0 1-20-20z" stroke="#747474" stroke-width="3" fill="#fff"/><path d="M2599.8 1326.12h278.5v3h-278.5z" fill="#e5e5e5"/><use xlink:href="#R" transform="matrix(1,0,0,1,2599.793317159733,1283.9314453202796) translate(0 26.86)"/><use xlink:href="#e" transform="matrix(1,0,0,1,2599.793317159733,1283.9314453202796) translate(122.39999999999999 26.86)"/></g><g filter="url(#i)"><path d="M2579.8 1483.05a20 20 0 0 1 20-20h260a20 20 0 0 1 20 20v138.63a20 20 0 0 1-20 20h-260a20 20 0 0 1-20-20z" stroke="#747474" stroke-width="3" fill="#fff"/><path d="M2599.8 1545.64h278.5v3h-278.5z" fill="#e5e5e5"/><use xlink:href="#R" transform="matrix(1,0,0,1,2599.793317159733,1503.456223973893) translate(0 26.86)"/><use xlink:href="#f" transform="matrix(1,0,0,1,2599.793317159733,1503.456223973893) translate(122.39999999999999 26.86)"/></g><g filter="url(#c)"><path d="M2579.8 1694.57a20 20 0 0 1 20-20h260a20 20 0 0 1 20 20v119.83a20 20 0 0 1-20 20h-260a20 20 0 0 1-20-20z" stroke="#747474" stroke-width="3" fill="#fff"/><path d="M2599.8 1757.17h278.5v3h-278.5z" fill="#e5e5e5"/><use xlink:href="#R" transform="matrix(1,0,0,1,2599.793317159733,1714.9810026275056) translate(0 26.86)"/><use xlink:href="#g" transform="matrix(1,0,0,1,2599.793317159733,1714.9810026275056) translate(122.39999999999999 26.86)"/></g><g filter="url(#a)"><path d="M3074.05 284a20 20 0 0 1 20-20h368.5a20 20 0 0 1 20 20v740a20 20 0 0 1-20 20h-368.5a20 20 0 0 1-20-20z" stroke="#747474" stroke-width="3" fill="#fff"/><path d="M3094.05 354.83h387v3h-387z" fill="#e5e5e5"/><use xlink:href="#S" transform="matrix(1,0,0,1,3094.049505325409,296.1666669333331) translate(0 33.944444355555554)"/></g><g filter="url(#i)"><path d="M3128.3 404a20 20 0 0 1 20-20h260a20 20 0 0 1 20 20v138.63a20 20 0 0 1-20 20h-260a20 20 0 0 1-20-20z" stroke="#747474" stroke-width="3" fill="#fff"/><path d="M3148.3 485.4h278.5v3h-278.5z" fill="#e5e5e5"/><use xlink:href="#T" transform="matrix(1,0,0,1,3148.305693491085,405.60399999999987) translate(0 26.557333333333336)"/><use xlink:href="#e" transform="matrix(1,0,0,1,3148.305693491085,405.60399999999987) translate(0 64.16266666666667)"/></g><g filter="url(#i)"><path d="M3128.3 623.52a20 20 0 0 1 20-20h260a20 20 0 0 1 20 20v138.63a20 20 0 0 1-20 20h-260a20 20 0 0 1-20-20z" stroke="#747474" stroke-width="3" fill="#fff"/><path d="M3148.3 686.12h278.5v3h-278.5z" fill="#e5e5e5"/><use xlink:href="#U" transform="matrix(1,0,0,1,3148.305693491085,643.9314453202799) translate(0 26.86)"/><use xlink:href="#f" transform="matrix(1,0,0,1,3148.305693491085,643.9314453202799) translate(165.44 26.86)"/></g><g filter="url(#c)"><path d="M3128.3 835.05a20 20 0 0 1 20-20h260a20 20 0 0 1 20 20v119.82a20 20 0 0 1-20 20h-260a20 20 0 0 1-20-20z" stroke="#747474" stroke-width="3" fill="#fff"/><path d="M3148.3 897.64h278.5v3h-278.5z" fill="#e5e5e5"/><use xlink:href="#U" transform="matrix(1,0,0,1,3148.305693491085,855.4562239738922) translate(0 26.86)"/><use xlink:href="#g" transform="matrix(1,0,0,1,3148.305693491085,855.4562239738922) translate(165.44 26.86)"/></g><path d="M1.5 580.67h3677" fill="none"/><path d="M1.5 580.67h14.95m14.94 0h29.9m14.94 0h29.9m14.94 0h29.9m14.94 0h29.9m14.94 0h29.9m14.94 0h29.9m14.94 0h29.9m14.95 0h29.88m14.95 0h29.9m14.94 0h29.9m14.94 0h29.9m14.95 0h29.9m14.94 0h29.9m14.93 0h29.9m14.94 0h29.9m14.95 0h29.9m14.94 0h29.9m14.94 0h29.9m14.94 0h29.9m14.94 0h29.9m14.94 0h29.9m14.95 0h29.9m14.94 0h29.9m14.95 0h29.9m14.94 0h29.88m14.95 0h29.9m14.94 0h29.9m14.94 0h29.9m14.95 0h29.9m14.95 0h29.9m14.94 0h29.9m14.94 0h29.9m14.94 0h29.9m14.94 0h29.9m14.94 0h29.9m14.95 0h29.9m14.94 0h29.88m14.95 0h29.9m14.94 0h29.9m14.94 0h29.9m14.95 0h29.9m14.94 0h29.9m14.94 0h29.9m14.94 0h29.9m14.94 0h29.9m14.94 0h29.9m14.94 0h29.9m14.94 0h29.9m14.94 0h29.9m14.95 0h29.9m14.94 0h29.9m14.94 0h29.9m14.95 0h29.9m14.94 0h29.9m14.93 0h29.9m14.95 0h29.9m14.94 0h29.9m14.94 0h29.9m14.94 0h29.9m14.94 0h29.9m14.94 0h29.9m14.94 0h29.9m14.95 0h29.9m14.94 0h29.9m14.95 0h29.9m14.94 0h29.88m14.95 0h29.9m14.94 0h29.9m14.94 0h29.9m14.95 0h29.9m14.95 0h29.9m14.94 0h29.9m14.94 0h29.9m14.94 0h29.9m14.94 0h29.9m14.94 0h29.9m14.95 0h29.9m14.94 0h29.88m14.95 0h29.9m14.94 0h29.9m14.94 0h29.9m14.95 0h14.95" stroke="#5e5e5e" stroke-width="3" stroke-linecap="round" fill="none"/><path d="M1.5 798.6h3677" fill="none"/><path d="M1.5 798.6h14.95m14.94 0h29.9m14.94 0h29.9m14.94 0h29.9m14.94 0h29.9m14.94 0h29.9m14.94 0h29.9m14.94 0h29.9m14.95 0h29.88m14.95 0h29.9m14.94 0h29.9m14.94 0h29.9m14.95 0h29.9m14.94 0h29.9m14.93 0h29.9m14.94 0h29.9m14.95 0h29.9m14.94 0h29.9m14.94 0h29.9m14.94 0h29.9m14.94 0h29.9m14.94 0h29.9m14.95 0h29.9m14.94 0h29.9m14.95 0h29.9m14.94 0h29.88m14.95 0h29.9m14.94 0h29.9m14.94 0h29.9m14.95 0h29.9m14.95 0h29.9m14.94 0h29.9m14.94 0h29.9m14.94 0h29.9m14.94 0h29.9m14.94 0h29.9m14.95 0h29.9m14.94 0h29.88m14.95 0h29.9m14.94 0h29.9m14.94 0h29.9m14.95 0h29.9m14.94 0h29.9m14.94 0h29.9m14.94 0h29.9m14.94 0h29.9m14.94 0h29.9m14.94 0h29.9m14.94 0h29.9m14.94 0h29.9m14.95 0h29.9m14.94 0h29.9m14.94 0h29.9m14.95 0h29.9m14.94 0h29.9m14.93 0h29.9m14.95 0h29.9m14.94 0h29.9m14.94 0h29.9m14.94 0h29.9m14.94 0h29.9m14.94 0h29.9m14.94 0h29.9m14.95 0h29.9m14.94 0h29.9m14.95 0h29.9m14.94 0h29.88m14.95 0h29.9m14.94 0h29.9m14.94 0h29.9m14.95 0h29.9m14.95 0h29.9m14.94 0h29.9m14.94 0h29.9m14.94 0h29.9m14.94 0h29.9m14.94 0h29.9m14.95 0h29.9m14.94 0h29.88m14.95 0h29.9m14.94 0h29.9m14.94 0h29.9m14.95 0h14.95" stroke="#5e5e5e" stroke-width="3" stroke-linecap="round" fill="none"/><path d="M1.5 1439.6h3677" fill="none"/><path d="M1.5 1439.6h14.95m14.94 0h29.9m14.94 0h29.9m14.94 0h29.9m14.94 0h29.9m14.94 0h29.9m14.94 0h29.9m14.94 0h29.9m14.95 0h29.88m14.95 0h29.9m14.94 0h29.9m14.94 0h29.9m14.95 0h29.9m14.94 0h29.9m14.93 0h29.9m14.94 0h29.9m14.95 0h29.9m14.94 0h29.9m14.94 0h29.9m14.94 0h29.9m14.94 0h29.9m14.94 0h29.9m14.95 0h29.9m14.94 0h29.9m14.95 0h29.9m14.94 0h29.88m14.95 0h29.9m14.94 0h29.9m14.94 0h29.9m14.95 0h29.9m14.95 0h29.9m14.94 0h29.9m14.94 0h29.9m14.94 0h29.9m14.94 0h29.9m14.94 0h29.9m14.95 0h29.9m14.94 0h29.88m14.95 0h29.9m14.94 0h29.9m14.94 0h29.9m14.95 0h29.9m14.94 0h29.9m14.94 0h29.9m14.94 0h29.9m14.94 0h29.9m14.94 0h29.9m14.94 0h29.9m14.94 0h29.9m14.94 0h29.9m14.95 0h29.9m14.94 0h29.9m14.94 0h29.9m14.95 0h29.9m14.94 0h29.9m14.93 0h29.9m14.95 0h29.9m14.94 0h29.9m14.94 0h29.9m14.94 0h29.9m14.94 0h29.9m14.94 0h29.9m14.94 0h29.9m14.95 0h29.9m14.94 0h29.9m14.95 0h29.9m14.94 0h29.88m14.95 0h29.9m14.94 0h29.9m14.94 0h29.9m14.95 0h29.9m14.95 0h29.9m14.94 0h29.9m14.94 0h29.9m14.94 0h29.9m14.94 0h29.9m14.94 0h29.9m14.95 0h29.9m14.94 0h29.88m14.95 0h29.9m14.94 0h29.9m14.94 0h29.9m14.95 0h14.95" stroke="#5e5e5e" stroke-width="3" stroke-linecap="round" fill="none"/><path d="M1.5 1658.13h3677" fill="none"/><path d="M1.5 1658.13h14.95m14.94 0h29.9m14.94 0h29.9m14.94 0h29.9m14.94 0h29.9m14.94 0h29.9m14.94 0h29.9m14.94 0h29.9m14.95 0h29.88m14.95 0h29.9m14.94 0h29.9m14.94 0h29.9m14.95 0h29.9m14.94 0h29.9m14.93 0h29.9m14.94 0h29.9m14.95 0h29.9m14.94 0h29.9m14.94 0h29.9m14.94 0h29.9m14.94 0h29.9m14.94 0h29.9m14.95 0h29.9m14.94 0h29.9m14.95 0h29.9m14.94 0h29.88m14.95 0h29.9m14.94 0h29.9m14.94 0h29.9m14.95 0h29.9m14.95 0h29.9m14.94 0h29.9m14.94 0h29.9m14.94 0h29.9m14.94 0h29.9m14.94 0h29.9m14.95 0h29.9m14.94 0h29.88m14.95 0h29.9m14.94 0h29.9m14.94 0h29.9m14.95 0h29.9m14.94 0h29.9m14.94 0h29.9m14.94 0h29.9m14.94 0h29.9m14.94 0h29.9m14.94 0h29.9m14.94 0h29.9m14.94 0h29.9m14.95 0h29.9m14.94 0h29.9m14.94 0h29.9m14.95 0h29.9m14.94 0h29.9m14.93 0h29.9m14.95 0h29.9m14.94 0h29.9m14.94 0h29.9m14.94 0h29.9m14.94 0h29.9m14.94 0h29.9m14.94 0h29.9m14.95 0h29.9m14.94 0h29.9m14.95 0h29.9m14.94 0h29.88m14.95 0h29.9m14.94 0h29.9m14.94 0h29.9m14.95 0h29.9m14.95 0h29.9m14.94 0h29.9m14.94 0h29.9m14.94 0h29.9m14.94 0h29.9m14.94 0h29.9m14.95 0h29.9m14.94 0h29.88m14.95 0h29.9m14.94 0h29.9m14.94 0h29.9m14.95 0h14.95" stroke="#5e5e5e" stroke-width="3" stroke-linecap="round" fill="none"/><path d="M60 1329.53a6 6 0 0 1 6-6h228a6 6 0 0 1 6 6v72.66a6 6 0 0 1-6 6H66a6 6 0 0 1-6-6z" stroke="#000" stroke-opacity="0" stroke-width="3" fill="#fff" fill-opacity="0"/><g><use xlink:href="#x" transform="matrix(1,0,0,1,65,1328.5247786536129) translate(38.25925925925928 27.232638888888886)"/><use xlink:href="#y" transform="matrix(1,0,0,1,65,1328.5247786536129) translate(78.87654320987656 64.56597222222221)"/></g><path d="M60 1525.65a6 6 0 0 1 6-6h228a6 6 0 0 1 6 6v72.66a6 6 0 0 1-6 6.02H66a6 6 0 0 1-6-6z" stroke="#000" stroke-opacity="0" stroke-width="3" fill="#fff" fill-opacity="0"/><g><use xlink:href="#z" transform="matrix(1,0,0,1,65,1524.6482239738928) translate(59.734567901234584 27.232638888888886)"/><use xlink:href="#y" transform="matrix(1,0,0,1,65,1524.6482239738928) translate(78.87654320987656 64.56597222222221)"/></g><path d="M60 1740.57a6 6 0 0 1 6-6h228a6 6 0 0 1 6 6v72.67a6 6 0 0 1-6 6H66a6 6 0 0 1-6-6z" stroke="#000" stroke-opacity="0" stroke-width="3" fill="#fff" fill-opacity="0"/><g><use xlink:href="#A" transform="matrix(1,0,0,1,65,1739.5743359608393) translate(37.95679012345681 27.232638888888886)"/><use xlink:href="#B" transform="matrix(1,0,0,1,65,1739.5743359608393) translate(104.24074074074075 27.232638888888886)"/><use xlink:href="#y" transform="matrix(1,0,0,1,65,1739.5743359608393) translate(78.87654320987656 64.56597222222221)"/></g><g filter="url(#c)"><path d="M2031.28 844.45a20 20 0 0 1 20-20h260a20 20 0 0 1 20 20v119.82a20 20 0 0 1-20 20h-260a20 20 0 0 1-20-20z" stroke="#747474" stroke-width="3" fill="#fff"/><path d="M2051.28 907.04h278.5v3h-278.5z" fill="#e5e5e5"/><use xlink:href="#p" transform="matrix(1,0,0,1,2051.2809408283806,864.8575573072263) translate(0 26.86)"/><use xlink:href="#V" transform="matrix(1,0,0,1,2051.2809408283806,864.8575573072263) translate(155.89333333333332 26.86)"/></g><defs><path d="M175 0L67-191c6 58 2 128 3 191H24v-248h59L193-55c-6-58-2-129-3-193h46V0h-61" id="W"/><path d="M185-48c-13 30-37 53-82 52C43 2 14-33 14-96s30-98 90-98c62 0 83 45 84 108H66c0 31 8 55 39 56 18 0 30-7 34-22zm-45-69c5-46-57-63-70-21-2 6-4 13-4 21h74" id="X"/><path d="M231 0h-52l-39-155L100 0H48L-1-190h46L77-45c9-52 24-97 36-145h53l37 145 32-145h46" id="Y"/><path d="M137-138c1-29-70-34-71-4 15 46 118 7 119 86 1 83-164 76-172 9l43-7c4 19 20 25 44 25 33 8 57-30 24-41C81-84 22-81 20-136c-2-80 154-74 161-7" id="Z"/><g id="b"><use transform="matrix(0.11728394938271604,0,0,0.11728394938271604,0,0)" xlink:href="#W"/><use transform="matrix(0.11728394938271604,0,0,0.11728394938271604,30.376542890123453,0)" xlink:href="#X"/><use transform="matrix(0.11728394938271604,0,0,0.11728394938271604,53.83333276666666,0)" xlink:href="#Y"/><use transform="matrix(0.11728394938271604,0,0,0.11728394938271604,86.67283859382715,0)" xlink:href="#Z"/></g><filter id="a" filterUnits="objectBoundingBox" x="-.01" y="0" width="1.02" height="1.01"><feOffset result="offOut" in="SourceAlpha" dy="3"/><feGaussianBlur result="blurOut" in="offOut" stdDeviation="2.5"/><feColorMatrix result="colorOut" in="blurOut" values="0 0 0 0 0.018823529411764708 0 0 0 0 0.018823529411764708 0 0 0 0 0.018823529411764708 0 0 0 0.2 0"/><feBlend in="SourceGraphic" in2="colorOut"/></filter><path d="M80-708h149c118 176 232 354 352 528l-3-528h121V0H550C432-176 318-355 198-529l4 529H80v-708" id="aa"/><path d="M295-534c175 0 256 137 237 320H170c10 80 57 129 145 129 69-1 102-19 149-47l54 80c-56 41-119 66-211 66C138 14 46-91 44-260c-2-161 90-274 251-274zm117 226c-3-74-41-132-118-132-79 0-120 59-125 132h243" id="ab"/><path d="M660 0H524c-41-127-77-259-120-384L289 0H154L9-520h132c30 126 55 257 88 381l114-381h130c40 126 75 257 117 381l88-381h127" id="ac"/><path d="M39-378c0-175 271-194 382-101l-50 79c-41-25-82-38-123-38-83 0-118 83-42 107 98 31 223 49 223 175C429 33 141 56 23-45l54-78c39 24 75 33 132 40 84 10 127-92 48-118-99-33-218-48-218-177" id="ad"/><g id="d"><use transform="matrix(0.026666666666666665,0,0,0.026666666666666665,0,0)" xlink:href="#aa"/><use transform="matrix(0.026666666666666665,0,0,0.026666666666666665,20.773333333333333,0)" xlink:href="#ab"/><use transform="matrix(0.026666666666666665,0,0,0.026666666666666665,36.21333333333333,0)" xlink:href="#ac"/><use transform="matrix(0.026666666666666665,0,0,0.026666666666666665,57.919999999999995,0)" xlink:href="#ad"/></g><path d="M44-355c0-231 126-370 357-373 102-1 196 37 249 90l-74 84c-41-35-99-61-170-61-157-2-225 105-226 260 0 151 70 260 223 258 77-1 135-32 177-71l79 86C603-26 509 20 399 19 169 16 44-126 44-355" id="ae"/><path d="M314-534c172 0 271 101 271 272C585-92 485 14 314 14 144 14 44-93 44-262c0-171 98-272 270-272zm0 100c-102 0-140 71-140 172 0 102 39 177 141 177s142-75 142-177-40-172-143-172" id="af"/><path d="M330-430c-79 0-127 62-127 141V0H78c-4-180 9-350-9-520h120c5 20 4 44 10 60 33-43 94-75 172-74 122 1 190 74 190 190V0H436v-317c-1-69-32-113-106-113" id="ag"/><path d="M266 14c-103 1-166-60-165-163v-271H15v-80l85-15v-123l126-44v167h129v95H226v259c-6 69 55 85 113 68l18 92c-25 10-56 15-91 15" id="ah"/><path d="M380-422c-108-21-177 50-177 149V0H78c-4-180 9-350-9-520h120c6 28 5 55 10 72 34-65 100-96 186-82" id="ai"/><path d="M203-708V0H78v-708h125" id="aj"/><g id="e"><use transform="matrix(0.026666666666666665,0,0,0.026666666666666665,0,0)" xlink:href="#ae"/><use transform="matrix(0.026666666666666665,0,0,0.026666666666666665,17.41333333333333,0)" xlink:href="#af"/><use transform="matrix(0.026666666666666665,0,0,0.026666666666666665,34.213333333333324,0)" xlink:href="#ag"/><use transform="matrix(0.026666666666666665,0,0,0.026666666666666665,50.959999999999994,0)" xlink:href="#ah"/><use transform="matrix(0.026666666666666665,0,0,0.026666666666666665,61.22666666666666,0)" xlink:href="#ai"/><use transform="matrix(0.026666666666666665,0,0,0.026666666666666665,71.30666666666666,0)" xlink:href="#af"/><use transform="matrix(0.026666666666666665,0,0,0.026666666666666665,88.10666666666665,0)" xlink:href="#aj"/><use transform="matrix(0.026666666666666665,0,0,0.026666666666666665,95.62666666666665,0)" xlink:href="#aj"/><use transform="matrix(0.026666666666666665,0,0,0.026666666666666665,103.14666666666665,0)" xlink:href="#ab"/><use transform="matrix(0.026666666666666665,0,0,0.026666666666666665,118.58666666666663,0)" xlink:href="#ai"/></g><filter id="c" filterUnits="objectBoundingBox" x="-.02" y="-.01" width="1.03" height="1.06"><feOffset result="offOut" in="SourceAlpha" dy="3"/><feGaussianBlur result="blurOut" in="offOut" stdDeviation="2.5"/><feColorMatrix result="colorOut" in="blurOut" values="0 0 0 0 0.018823529411764708 0 0 0 0 0.018823529411764708 0 0 0 0 0.018823529411764708 0 0 0 0.2 0"/><feBlend in="SourceGraphic" in2="colorOut"/></filter><path d="M540-200C550 52 170 69 26-64l63-83c71 67 317 99 317-48 0-96-79-102-162-127-111-33-193-77-195-204-4-228 334-244 479-129l-59 85c-50-30-95-49-167-50-67 0-123 23-123 86 0 82 64 84 147 110 123 38 208 79 214 224" id="ak"/><path d="M329 0H192L-2-520h136l127 393h3l124-393h131" id="al"/><path d="M203 0H78v-520h125V0zm-62-611c-51 0-77-26-77-71 0-48 26-72 77-72s77 26 77 72c0 45-28 71-77 71" id="am"/><path d="M44-261c0-170 96-273 266-273 65 0 123 19 174 56l-47 87c-40-26-82-39-126-39-98-1-141 69-141 169 0 97 44 171 139 170 41 0 84-13 129-40l45 89C436-9 374 14 299 14 127 14 44-98 44-261" id="an"/><g id="f"><use transform="matrix(0.026666666666666665,0,0,0.026666666666666665,0,0)" xlink:href="#ak"/><use transform="matrix(0.026666666666666665,0,0,0.026666666666666665,15.333333333333332,0)" xlink:href="#ab"/><use transform="matrix(0.026666666666666665,0,0,0.026666666666666665,30.77333333333333,0)" xlink:href="#ai"/><use transform="matrix(0.026666666666666665,0,0,0.026666666666666665,41.760000000000005,0)" xlink:href="#al"/><use transform="matrix(0.026666666666666665,0,0,0.026666666666666665,55.573333333333345,0)" xlink:href="#am"/><use transform="matrix(0.026666666666666665,0,0,0.026666666666666665,63.09333333333333,0)" xlink:href="#an"/><use transform="matrix(0.026666666666666665,0,0,0.026666666666666665,76.4,0)" xlink:href="#ab"/></g><path d="M321-708c238 0 378 113 376 353C695-123 558 0 326 0H80v-708h241zm241 353c0-168-80-245-246-246H210v493h103c166-1 249-79 249-247" id="ao"/><path d="M479-153H191L134 0H-3l272-708h135L675 0H533zM226-253h219L336-574" id="ap"/><path d="M406 19C174 19 44-123 44-354s130-373 362-373 363 142 363 373S638 19 406 19zm0-113c155 0 229-105 229-260s-74-260-229-260c-154 0-228 106-228 260S252-94 406-94" id="aq"/><g id="g"><use transform="matrix(0.026666666666666665,0,0,0.026666666666666665,0,0)" xlink:href="#ao"/><use transform="matrix(0.026666666666666665,0,0,0.026666666666666665,19.199999999999996,0)" xlink:href="#ap"/><use transform="matrix(0.026666666666666665,0,0,0.026666666666666665,36.61333333333333,0)" xlink:href="#aq"/></g><path d="M24 0v-248h195v40H76v63h132v40H76v65h150V0H24" id="ar"/><path d="M220-157c-53 9-28 100-34 157h-49v-107c1-27-5-49-29-50C55-147 81-57 75 0H25l-1-190h47c2 12-1 28 3 38 10-53 101-56 108 0 13-22 24-43 59-42 82 1 51 116 57 194h-49v-107c-1-25-5-48-29-50" id="as"/><path d="M135-194c53 0 70 44 70 98 0 56-19 98-73 100-31 1-45-17-59-34 3 33 2 69 2 105H25l-1-265h48c2 10 0 23 3 31 11-24 29-35 60-35zM114-30c33 0 39-31 40-66 0-38-9-64-40-64-56 0-55 130 0 130" id="at"/><path d="M25 0v-261h50V0H25" id="au"/><path d="M110-194c64 0 96 36 96 99 0 64-35 99-97 99-61 0-95-36-95-99 0-62 34-99 96-99zm-1 164c35 0 45-28 45-65 0-40-10-65-43-65-34 0-45 26-45 65 0 36 10 65 43 65" id="av"/><path d="M123 10C108 53 80 86 19 72V37c35 8 53-11 59-39L3-190h52l48 148c12-52 28-100 44-148h51" id="aw"/><path d="M135-194c87-1 58 113 63 194h-50c-7-57 23-157-34-157-59 0-34 97-39 157H25l-1-190h47c2 12-1 28 3 38 12-26 28-41 61-42" id="ax"/><path d="M115-3C79 11 28 4 28-45v-112H4v-33h27l15-45h31v45h36v33H77v99c-1 23 16 31 38 25v30" id="ay"/><g id="h"><use transform="matrix(0.11728394938271604,0,0,0.11728394938271604,0,0)" xlink:href="#ar"/><use transform="matrix(0.11728394938271604,0,0,0.11728394938271604,28.14814785185185,0)" xlink:href="#as"/><use transform="matrix(0.11728394938271604,0,0,0.11728394938271604,65.67901165432099,0)" xlink:href="#at"/><use transform="matrix(0.11728394938271604,0,0,0.11728394938271604,91.3641965691358,0)" xlink:href="#au"/><use transform="matrix(0.11728394938271604,0,0,0.11728394938271604,103.0925915074074,0)" xlink:href="#av"/><use transform="matrix(0.11728394938271604,0,0,0.11728394938271604,128.77777642222222,0)" xlink:href="#aw"/><use transform="matrix(0.11728394938271604,0,0,0.11728394938271604,152.23456629876543,0)" xlink:href="#as"/><use transform="matrix(0.11728394938271604,0,0,0.11728394938271604,189.76543010123456,0)" xlink:href="#X"/><use transform="matrix(0.11728394938271604,0,0,0.11728394938271604,213.22221997777777,0)" xlink:href="#ax"/><use transform="matrix(0.11728394938271604,0,0,0.11728394938271604,238.90740489259258,0)" xlink:href="#ay"/></g><path d="M527-603H211v189h270v101H211v206h333V0H80v-708h447v105" id="az"/><path d="M323-431c-76 0-120 65-120 142V0H78c-4-180 9-350-9-520h120c5 21 4 44 10 59 33-42 89-73 163-73 79 0 131 31 166 86 39-57 97-86 173-86 125 1 193 81 193 202V0H769v-314c-1-70-28-117-100-117-78 0-121 72-120 149V0H423v-324c-1-62-33-107-100-107" id="aA"/><path d="M367-534c156 0 224 117 224 273 0 157-81 275-237 275-60 0-110-17-151-50v280H78v-645c0-25-3-65-9-119h120c6 27 5 51 10 62 40-51 96-76 168-76zM324-85c97 0 138-75 138-176 0-99-35-171-124-173-77-2-135 64-135 141v166c37 24 66 41 121 42" id="aB"/><path d="M291 104c-34 93-75 150-187 153-33 0-63-5-89-15l24-93C152 186 175 85 200 4L-2-520h136c43 130 83 263 129 390l114-390h129" id="aC"/><g id="j"><use transform="matrix(0.026666666666666665,0,0,0.026666666666666665,0,0)" xlink:href="#az"/><use transform="matrix(0.026666666666666665,0,0,0.026666666666666665,15.146666666666667,0)" xlink:href="#aA"/><use transform="matrix(0.026666666666666665,0,0,0.026666666666666665,40.906666666666666,0)" xlink:href="#aB"/><use transform="matrix(0.026666666666666665,0,0,0.026666666666666665,57.86666666666666,0)" xlink:href="#aj"/><use transform="matrix(0.026666666666666665,0,0,0.026666666666666665,65.38666666666666,0)" xlink:href="#af"/><use transform="matrix(0.026666666666666665,0,0,0.026666666666666665,82.07999999999998,0)" xlink:href="#aC"/><use transform="matrix(0.026666666666666665,0,0,0.026666666666666665,95.54666666666665,0)" xlink:href="#aA"/><use transform="matrix(0.026666666666666665,0,0,0.026666666666666665,121.30666666666663,0)" xlink:href="#ab"/><use transform="matrix(0.026666666666666665,0,0,0.026666666666666665,136.74666666666664,0)" xlink:href="#ag"/><use transform="matrix(0.026666666666666665,0,0,0.026666666666666665,153.4933333333333,0)" xlink:href="#ah"/></g><filter id="i" filterUnits="objectBoundingBox" x="-.02" y="-.01" width="1.03" height="1.06"><feOffset result="offOut" in="SourceAlpha" dy="3"/><feGaussianBlur result="blurOut" in="offOut" stdDeviation="2.5"/><feColorMatrix result="colorOut" in="blurOut" values="0 0 0 0 0.018823529411764708 0 0 0 0 0.018823529411764708 0 0 0 0 0.018823529411764708 0 0 0 0.2 0"/><feBlend in="SourceGraphic" in2="colorOut"/></filter><path d="M24 0v-248h52v208h133V0H24" id="aD"/><path d="M133-34C117-15 103 5 69 4 32 3 11-16 11-54c-1-60 55-63 116-61 1-26-3-47-28-47-18 1-26 9-28 27l-52-2c7-38 36-58 82-57s74 22 75 68l1 82c-1 14 12 18 25 15v27c-30 8-71 5-69-32zm-48 3c29 0 43-24 42-57-32 0-66-3-65 30 0 17 8 27 23 27" id="aE"/><path d="M135-150c-39-12-60 13-60 57V0H25l-1-190h47c2 13-1 29 3 40 6-28 27-53 61-41v41" id="aF"/><path d="M25-224v-37h50v37H25zM25 0v-190h50V0H25" id="aG"/><path d="M195-6C206 82 75 100 31 46c-4-6-6-13-8-21l49-6c3 16 16 24 34 25 40 0 42-37 40-79-11 22-30 35-61 35-53 0-70-43-70-97 0-56 18-96 73-97 30 0 46 14 59 34l2-30h47zm-90-29c32 0 41-27 41-63 0-35-9-62-40-62-32 0-39 29-40 63 0 36 9 62 39 62" id="aH"/><g id="k"><use transform="matrix(0.11728394938271604,0,0,0.11728394938271604,0,0)" xlink:href="#aD"/><use transform="matrix(0.11728394938271604,0,0,0.11728394938271604,25.685184914814812,0)" xlink:href="#X"/><use transform="matrix(0.11728394938271604,0,0,0.11728394938271604,49.141974791358024,0)" xlink:href="#aE"/><use transform="matrix(0.11728394938271604,0,0,0.11728394938271604,72.59876466790124,0)" xlink:href="#aF"/><use transform="matrix(0.11728394938271604,0,0,0.11728394938271604,89.01851758148149,0)" xlink:href="#ax"/><use transform="matrix(0.11728394938271604,0,0,0.11728394938271604,114.7037024962963,0)" xlink:href="#aG"/><use transform="matrix(0.11728394938271604,0,0,0.11728394938271604,126.43209743456792,0)" xlink:href="#ax"/><use transform="matrix(0.11728394938271604,0,0,0.11728394938271604,152.11728234938272,0)" xlink:href="#aH"/></g><path d="M230 0l2-204L168 0h-37L68-204 70 0H24v-248h70l56 185 57-185h69V0h-46" id="aI"/><g id="l"><use transform="matrix(0.11728394938271604,0,0,0.11728394938271604,0,0)" xlink:href="#aI"/><use transform="matrix(0.11728394938271604,0,0,0.11728394938271604,35.067900865432094,0)" xlink:href="#aE"/><use transform="matrix(0.11728394938271604,0,0,0.11728394938271604,58.524690741975306,0)" xlink:href="#ay"/><use transform="matrix(0.11728394938271604,0,0,0.11728394938271604,72.48148071851851,0)" xlink:href="#X"/><use transform="matrix(0.11728394938271604,0,0,0.11728394938271604,95.93827059506172,0)" xlink:href="#aF"/><use transform="matrix(0.11728394938271604,0,0,0.11728394938271604,112.35802350864196,0)" xlink:href="#aG"/><use transform="matrix(0.11728394938271604,0,0,0.11728394938271604,124.08641844691357,0)" xlink:href="#aE"/><use transform="matrix(0.11728394938271604,0,0,0.11728394938271604,147.54320832345678,0)" xlink:href="#au"/></g><path d="M211-109h306V0H80v-708h131v599" id="aJ"/><path d="M206 14C110 14 37-46 38-146c2-168 152-185 331-181 25-144-173-124-258-70l-42-83c50-30 124-54 200-54 156 0 223 66 225 217 2 121-6 199 9 317H388c-5-27-8-47-9-59h-3c-39 49-83 73-170 73zm36-98c87-3 138-59 128-159-104-1-200-4-202 88-1 45 29 73 74 71" id="aK"/><path d="M257 257C121 257 16 215 16 96 16 41 47-4 108-41c-25-16-43-33-43-70 0-44 33-71 72-82-59-31-88-82-88-153 0-157 169-219 323-174h189v99l-105-17c24 21 38 60 38 105-1 116-95 170-219 170-48 0-90 5-96 40 8 33 46 35 96 37 92 3 160 16 204 41s66 62 66 112c0 141-130 190-288 190zm-94-605c1 63 40 98 108 98 72 0 108-31 108-94-1-64-39-99-108-99-61 0-108 37-108 95zm97 512c85-1 161-15 161-84 0-25-17-43-51-54S276 9 192 8c-37 21-55 48-55 81 0 50 41 75 123 75" id="aL"/><path d="M858 0H730c0-185 5-375 1-557L513 0h-98c-73-185-142-374-217-557l4 557H80v-708h192c65 176 127 355 195 528l198-528h193V0" id="aM"/><g id="m"><use transform="matrix(0.026666666666666665,0,0,0.026666666666666665,0,0)" xlink:href="#aJ"/><use transform="matrix(0.026666666666666665,0,0,0.026666666666666665,13.6,0)" xlink:href="#ab"/><use transform="matrix(0.026666666666666665,0,0,0.026666666666666665,29.04,0)" xlink:href="#aK"/><use transform="matrix(0.026666666666666665,0,0,0.026666666666666665,44.21333333333333,0)" xlink:href="#ai"/><use transform="matrix(0.026666666666666665,0,0,0.026666666666666665,54.666666666666664,0)" xlink:href="#ag"/><use transform="matrix(0.026666666666666665,0,0,0.026666666666666665,71.54666666666667,0)" xlink:href="#am"/><use transform="matrix(0.026666666666666665,0,0,0.026666666666666665,79.06666666666666,0)" xlink:href="#ag"/><use transform="matrix(0.026666666666666665,0,0,0.026666666666666665,95.94666666666666,0)" xlink:href="#aL"/><use transform="matrix(0.026666666666666665,0,0,0.026666666666666665,111.44,0)" xlink:href="#aM"/><use transform="matrix(0.026666666666666665,0,0,0.026666666666666665,136.45333333333332,0)" xlink:href="#aK"/><use transform="matrix(0.026666666666666665,0,0,0.026666666666666665,151.49333333333334,0)" xlink:href="#ah"/><use transform="matrix(0.026666666666666665,0,0,0.026666666666666665,161.36,0)" xlink:href="#ab"/><use transform="matrix(0.026666666666666665,0,0,0.026666666666666665,176.8,0)" xlink:href="#ai"/><use transform="matrix(0.026666666666666665,0,0,0.026666666666666665,187.25333333333333,0)" xlink:href="#am"/><use transform="matrix(0.026666666666666665,0,0,0.026666666666666665,194.77333333333334,0)" xlink:href="#aK"/><use transform="matrix(0.026666666666666665,0,0,0.026666666666666665,209.94666666666666,0)" xlink:href="#aj"/></g><path d="M140-251c80 0 125 45 125 126S219 4 139 4C58 4 15-44 15-125s44-126 125-126zm-1 214c52 0 73-35 73-88 0-50-21-86-72-86-52 0-73 35-73 86s22 88 72 88" id="aN"/><path d="M190-63c-7 42-38 67-86 67-59 0-84-38-90-98-12-110 154-137 174-36l-49 2c-2-19-15-32-35-32-30 0-35 28-38 64-6 74 65 87 74 30" id="aO"/><path d="M85 4C-2 5 27-109 22-190h50c7 57-23 150 33 157 60-5 35-97 40-157h50l1 190h-47c-2-12 1-28-3-38-12 25-28 42-61 42" id="aP"/><g id="n"><use transform="matrix(0.11728394938271604,0,0,0.11728394938271604,0,0)" xlink:href="#aN"/><use transform="matrix(0.11728394938271604,0,0,0.11728394938271604,32.839505827160494,0)" xlink:href="#aO"/><use transform="matrix(0.11728394938271604,0,0,0.11728394938271604,56.296295703703706,0)" xlink:href="#aO"/><use transform="matrix(0.11728394938271604,0,0,0.11728394938271604,79.75308558024692,0)" xlink:href="#aP"/><use transform="matrix(0.11728394938271604,0,0,0.11728394938271604,105.43827049506173,0)" xlink:href="#at"/><use transform="matrix(0.11728394938271604,0,0,0.11728394938271604,131.12345540987656,0)" xlink:href="#aE"/><use transform="matrix(0.11728394938271604,0,0,0.11728394938271604,154.58024528641977,0)" xlink:href="#ay"/><use transform="matrix(0.11728394938271604,0,0,0.11728394938271604,168.53703526296297,0)" xlink:href="#aG"/><use transform="matrix(0.11728394938271604,0,0,0.11728394938271604,180.26543020123458,0)" xlink:href="#av"/><use transform="matrix(0.11728394938271604,0,0,0.11728394938271604,205.9506151160494,0)" xlink:href="#ax"/><use transform="matrix(0.11728394938271604,0,0,0.11728394938271604,231.6358000308642,0)" xlink:href="#Z"/></g><path d="M269 14C141 14 72-75 72-200v-320h126v301c0 78 28 134 105 134 81 0 128-71 128-153v-282h125c4 175-9 357 9 520H445c-6-24-5-47-10-61-37 50-92 75-166 75" id="aQ"/><g id="o"><use transform="matrix(0.026666666666666665,0,0,0.026666666666666665,0,0)" xlink:href="#aq"/><use transform="matrix(0.026666666666666665,0,0,0.026666666666666665,21.653333333333332,0)" xlink:href="#an"/><use transform="matrix(0.026666666666666665,0,0,0.026666666666666665,34.959999999999994,0)" xlink:href="#an"/><use transform="matrix(0.026666666666666665,0,0,0.026666666666666665,48.34666666666666,0)" xlink:href="#aQ"/><use transform="matrix(0.026666666666666665,0,0,0.026666666666666665,65.25333333333333,0)" xlink:href="#aB"/><use transform="matrix(0.026666666666666665,0,0,0.026666666666666665,82.21333333333332,0)" xlink:href="#aK"/><use transform="matrix(0.026666666666666665,0,0,0.026666666666666665,97.25333333333332,0)" xlink:href="#ah"/><use transform="matrix(0.026666666666666665,0,0,0.026666666666666665,107.51999999999998,0)" xlink:href="#am"/><use transform="matrix(0.026666666666666665,0,0,0.026666666666666665,115.03999999999996,0)" xlink:href="#af"/><use transform="matrix(0.026666666666666665,0,0,0.026666666666666665,131.83999999999997,0)" xlink:href="#ag"/></g><g id="p"><use transform="matrix(0.026666666666666665,0,0,0.026666666666666665,0,0)" xlink:href="#aq"/><use transform="matrix(0.026666666666666665,0,0,0.026666666666666665,21.653333333333332,0)" xlink:href="#an"/><use transform="matrix(0.026666666666666665,0,0,0.026666666666666665,34.959999999999994,0)" xlink:href="#an"/><use transform="matrix(0.026666666666666665,0,0,0.026666666666666665,48.34666666666666,0)" xlink:href="#aQ"/><use transform="matrix(0.026666666666666665,0,0,0.026666666666666665,65.25333333333333,0)" xlink:href="#aB"/><use transform="matrix(0.026666666666666665,0,0,0.026666666666666665,82.21333333333332,0)" xlink:href="#aK"/><use transform="matrix(0.026666666666666665,0,0,0.026666666666666665,97.25333333333332,0)" xlink:href="#ah"/><use transform="matrix(0.026666666666666665,0,0,0.026666666666666665,107.51999999999998,0)" xlink:href="#am"/><use transform="matrix(0.026666666666666665,0,0,0.026666666666666665,115.03999999999996,0)" xlink:href="#af"/><use transform="matrix(0.026666666666666665,0,0,0.026666666666666665,131.83999999999997,0)" xlink:href="#ag"/></g><path d="M75-13V0H4v-13l17-5 84-220h51l83 220 18 5V0H152v-13l28-5-23-61H67L45-18zm38-189L74-98h76" id="aR"/><path d="M186-86c2 69-46 103-114 85l1 62 25 4v12H5V65l18-4v-210l-18-5v-11h67v8c12-8 26-13 46-13 49 2 67 30 68 84zm-83 71c28 0 31-33 31-69 0-34-2-66-30-66-12 0-23 3-31 7v124c9 2 20 4 30 4" id="aS"/><path d="M76-16l18 4V0H7v-12l18-4v-218l-17-4v-12h68v234" id="aT"/><path d="M77-16l18 4V0H8v-12l18-4v-133l-17-5v-11h68v149zM51-196c-16 0-27-10-27-27s10-27 27-27 27 11 27 27c0 17-10 27-27 27" id="aU"/><path d="M109-18c15 0 31-2 42-6v14c-11 9-31 13-51 13-59 0-86-28-88-86-3-75 66-101 135-80v48h-13c-3-20-7-40-34-37-51 7-55 138 9 134" id="aV"/><path d="M31-163c51-5 127-20 127 40v107l17 4V0h-61l-4-13C82 13 12 12 12-46c0-51 46-52 95-53 9-45-22-69-57-44l-7 20H31v-40zM62-47c0 30 26 34 45 23v-59c-28 0-45 6-45 36" id="aW"/><path d="M78-41c-2 24 21 26 40 20C122 3 98 2 77 4 5 10 32-84 27-147H6v-11l25-7 21-38h26v38h35v18H78v106" id="aX"/><path d="M90-170c54-1 76 32 76 87 1 56-23 87-77 87-53 0-75-32-75-87s23-86 76-87zM89-14c28-2 26-38 26-69s3-69-26-69c-27 0-24 39-24 69s-3 66 24 69" id="aY"/><path d="M127-114c3-31-26-38-50-25v123l15 4V0H10v-12l16-4v-133l-16-5v-11h64l2 14c31-23 102-32 102 30v105l17 4V0h-82v-12l14-4v-98" id="aZ"/><g id="q"><use transform="matrix(0.18518518518518493,0,0,0.18518518518518493,0,0)" xlink:href="#aR"/><use transform="matrix(0.18518518518518493,0,0,0.18518518518518493,47.9629629629629,0)" xlink:href="#aS"/><use transform="matrix(0.18518518518518493,0,0,0.18518518518518493,84.99999999999989,0)" xlink:href="#aS"/><use transform="matrix(0.18518518518518493,0,0,0.18518518518518493,122.03703703703687,0)" xlink:href="#aT"/><use transform="matrix(0.18518518518518493,0,0,0.18518518518518493,140.55555555555537,0)" xlink:href="#aU"/><use transform="matrix(0.18518518518518493,0,0,0.18518518518518493,159.07407407407388,0)" xlink:href="#aV"/><use transform="matrix(0.18518518518518493,0,0,0.18518518518518493,188.51851851851828,0)" xlink:href="#aW"/><use transform="matrix(0.18518518518518493,0,0,0.18518518518518493,221.8518518518516,0)" xlink:href="#aX"/><use transform="matrix(0.18518518518518493,0,0,0.18518518518518493,243.8888888888886,0)" xlink:href="#aU"/><use transform="matrix(0.18518518518518493,0,0,0.18518518518518493,262.40740740740705,0)" xlink:href="#aY"/><use transform="matrix(0.18518518518518493,0,0,0.18518518518518493,295.7407407407403,0)" xlink:href="#aZ"/></g><path d="M54 0v-13l38-5v-199l-66 3-4 44H6v-66h229v66h-17l-4-44c-17-2-44-3-67-3v199l38 5V0H54" id="ba"/><path d="M12-83c0-55 22-85 75-86 52-1 66 33 63 88H64c-1 37 6 64 44 63 14 0 28-4 39-6 3 28-28 25-55 27-57 4-80-31-80-86zm90-17c2-26 0-63-27-48-10 9-11 28-11 48h38" id="bb"/><path d="M132-132c-21 0-37 9-50 16v100l26 4V0H10v-12l21-4v-133l-21-5v-11h69l2 34c17-18 35-41 71-40v61c-17 3-14-14-20-22" id="bc"/><g id="r"><use transform="matrix(0.18518518518518493,0,0,0.18518518518518493,0,0)" xlink:href="#ba"/><use transform="matrix(0.18518518518518493,0,0,0.18518518518518493,43.14814814814808,0)" xlink:href="#aU"/><use transform="matrix(0.18518518518518493,0,0,0.18518518518518493,61.66666666666657,0)" xlink:href="#bb"/><use transform="matrix(0.18518518518518493,0,0,0.18518518518518493,91.11111111111097,0)" xlink:href="#bc"/></g><path d="M127-114c3-31-26-38-50-25v123l15 4V0H10v-12l16-4v-218l-17-4v-12h68l-1 99c31-23 102-32 102 30v105l17 4V0h-82v-12l14-4v-98" id="bd"/><path d="M73-51c-3 31 27 38 51 25v-123l-16-5v-11h66v149l17 4V0h-65l-2-14C94 9 22 18 22-44v-105l-17-5v-11h68v114" id="be"/><g id="s"><use transform="matrix(0.18518518518518493,0,0,0.18518518518518493,0,0)" xlink:href="#aR"/><use transform="matrix(0.18518518518518493,0,0,0.18518518518518493,47.9629629629629,0)" xlink:href="#bc"/><use transform="matrix(0.18518518518518493,0,0,0.18518518518518493,76.111111111111,0)" xlink:href="#aV"/><use transform="matrix(0.18518518518518493,0,0,0.18518518518518493,105.5555555555554,0)" xlink:href="#bd"/><use transform="matrix(0.18518518518518493,0,0,0.18518518518518493,142.59259259259238,0)" xlink:href="#aU"/><use transform="matrix(0.18518518518518493,0,0,0.18518518518518493,161.1111111111109,0)" xlink:href="#aX"/><use transform="matrix(0.18518518518518493,0,0,0.18518518518518493,183.1481481481479,0)" xlink:href="#bb"/><use transform="matrix(0.18518518518518493,0,0,0.18518518518518493,212.5925925925923,0)" xlink:href="#aV"/><use transform="matrix(0.18518518518518493,0,0,0.18518518518518493,242.0370370370367,0)" xlink:href="#aX"/><use transform="matrix(0.18518518518518493,0,0,0.18518518518518493,264.0740740740737,0)" xlink:href="#be"/><use transform="matrix(0.18518518518518493,0,0,0.18518518518518493,301.1111111111107,0)" xlink:href="#bc"/><use transform="matrix(0.18518518518518493,0,0,0.18518518518518493,329.2592592592588,0)" xlink:href="#bb"/></g><path d="M13-69v-31h94v31H13" id="bf"/><use transform="matrix(0.18518518518518493,0,0,0.18518518518518493,0,0)" xlink:href="#bf" id="t"/><path d="M185-72C185 13 82 14 19-9v-63h16c2 37 21 58 61 58 46 0 69-51 31-71-42-23-106-23-106-90 0-69 87-70 148-56v56h-16l-7-32c-26-25-110-13-82 35 39 34 121 26 121 100" id="bg"/><path d="M102-142c-14-17-68-15-54 18 24 26 83 17 83 72 0 62-72 62-120 47v-45h12c4 23 16 37 43 37 35 0 39-37 9-46-31-9-65-19-64-61 0-52 59-55 108-45v43h-11" id="bh"/><g id="u"><use transform="matrix(0.18518518518518493,0,0,0.18518518518518493,0,0)" xlink:href="#bg"/><use transform="matrix(0.18518518518518493,0,0,0.18518518518518493,37.03703703703699,0)" xlink:href="#aT"/><use transform="matrix(0.18518518518518493,0,0,0.18518518518518493,55.555555555555486,0)" xlink:href="#aU"/><use transform="matrix(0.18518518518518493,0,0,0.18518518518518493,74.07407407407398,0)" xlink:href="#aV"/><use transform="matrix(0.18518518518518493,0,0,0.18518518518518493,103.51851851851838,0)" xlink:href="#bb"/><use transform="matrix(0.18518518518518493,0,0,0.18518518518518493,132.9629629629628,0)" xlink:href="#bh"/></g><path d="M15-82c-4-69 47-101 113-83l-1-69-17-4v-12h68v234l18 4V0h-63l-4-9C77 23 5-9 15-82zm112-66c-43-16-64 17-61 65 2 33 3 67 32 67 12 0 22-3 29-8v-124" id="bi"/><g id="v"><use transform="matrix(0.18518518518518493,0,0,0.18518518518518493,0,0)" xlink:href="#aW"/><use transform="matrix(0.18518518518518493,0,0,0.18518518518518493,33.333333333333286,0)" xlink:href="#aZ"/><use transform="matrix(0.18518518518518493,0,0,0.18518518518518493,70.37037037037027,0)" xlink:href="#bi"/></g><path d="M128-223l-36 5v199l103-3 14-49h16l-7 71H6v-13l30-5v-200l-30-5v-13h122v13" id="bj"/><path d="M81 5L15-149c-7-2-13-5-11-16h84v11l-20 5 39 91 35-91-19-5v-11h53c2 11-4 13-11 15C134-81 111-5 75 58 65 77 34 83 8 74V32h11c0 24 29 35 43 12 7-11 13-25 19-39" id="bk"/><g id="w"><use transform="matrix(0.18518518518518493,0,0,0.18518518518518493,0,0)" xlink:href="#bj"/><use transform="matrix(0.18518518518518493,0,0,0.18518518518518493,44.44444444444438,0)" xlink:href="#aW"/><use transform="matrix(0.18518518518518493,0,0,0.18518518518518493,77.77777777777766,0)" xlink:href="#bk"/><use transform="matrix(0.18518518518518493,0,0,0.18518518518518493,111.11111111111093,0)" xlink:href="#bb"/><use transform="matrix(0.18518518518518493,0,0,0.18518518518518493,140.55555555555534,0)" xlink:href="#bc"/><use transform="matrix(0.18518518518518493,0,0,0.18518518518518493,169.99999999999974,0)" xlink:href="#bh"/></g><path d="M75-108c48 3 76-12 76-58s-28-57-76-54v112zm111-58c-1 60-46 78-111 74v78l37 5v9H13v-9l28-5v-208l-31-4v-10c81 1 178-14 176 70" id="bl"/><path d="M57-145c16-10 35-24 60-25v45c-19 1-8-30-40-17l-20 6v124l29 4v8H7v-8l21-4v-141c-8-3-24 2-21-12h48" id="bm"/><path d="M84-170c49 0 66 33 63 87H46c-8 60 38 80 95 63v10C128-2 108 4 88 4 34 4 14-29 14-84c-1-54 22-86 70-86zm33 73c12-57-57-82-69-24-1 7-2 15-2 24h71" id="bn"/><path d="M41-130c7 48 86 23 86 84 0 56-69 57-112 41v-40c20 0 9 29 31 31 35 19 77-26 41-50-27-18-72-13-72-59 0-50 58-52 100-41v36c-19 1-8-25-28-25-21-7-50-1-46 23" id="bo"/><path d="M125-118c4-37-41-34-68-26v132l23 4v8H8C5-13 21-9 28-12v-141c-7-3-23 1-20-12h47l2 13c31-23 98-29 98 31v109c7 3 23-1 20 12h-72v-8l22-4v-106" id="bp"/><path d="M54-38c-1 25 24 26 44 20v12C71 10 25 9 25-35v-115H4c-2-14 14-10 21-15l18-38h11v38h38v15H54v112" id="bq"/><path d="M32-163c41-10 102-14 102 39v112c8 3 24-2 21 12h-45l-4-17C83 13 3 13 13-46c-2-50 45-50 92-51 4-36-5-70-42-56-6 2-12 4-16 6-4 7 0 23-15 20v-36zM42-47c0 41 41 33 63 22v-59c-34 1-63-1-63 37" id="br"/><path d="M47-200c-23 0-25-39 0-38 13 0 18 7 20 19-1 11-8 19-20 19zM65-12l28 4v8H8v-8l28-4v-141l-24-4v-8h53v153" id="bs"/><path d="M90-170c52 0 76 32 76 87 0 54-24 87-77 87-51 0-75-34-75-87 0-54 24-87 76-87zM89-10c39 0 46-35 46-73 0-39-7-73-46-73-39 1-44 34-44 73s6 72 44 73" id="bt"/><g id="x"><use transform="matrix(0.08641975308641973,0,0,0.08641975308641973,0,0)" xlink:href="#bl"/><use transform="matrix(0.08641975308641973,0,0,0.08641975308641973,17.283950617283946,0)" xlink:href="#bm"/><use transform="matrix(0.08641975308641973,0,0,0.08641975308641973,27.567901234567895,0)" xlink:href="#bn"/><use transform="matrix(0.08641975308641973,0,0,0.08641975308641973,41.30864197530863,0)" xlink:href="#bo"/><use transform="matrix(0.08641975308641973,0,0,0.08641975308641973,53.40740740740738,0)" xlink:href="#bn"/><use transform="matrix(0.08641975308641973,0,0,0.08641975308641973,67.14814814814812,0)" xlink:href="#bp"/><use transform="matrix(0.08641975308641973,0,0,0.08641975308641973,82.70370370370368,0)" xlink:href="#bq"/><use transform="matrix(0.08641975308641973,0,0,0.08641975308641973,91.34567901234566,0)" xlink:href="#br"/><use transform="matrix(0.08641975308641973,0,0,0.08641975308641973,105.0864197530864,0)" xlink:href="#bq"/><use transform="matrix(0.08641975308641973,0,0,0.08641975308641973,113.72839506172836,0)" xlink:href="#bs"/><use transform="matrix(0.08641975308641973,0,0,0.08641975308641973,122.37037037037034,0)" xlink:href="#bt"/><use transform="matrix(0.08641975308641973,0,0,0.08641975308641973,137.9259259259259,0)" xlink:href="#bp"/></g><path d="M111-226l-36 4v207c33-1 73 2 101-4l11-49h11l-3 68H10v-9l31-5v-208l-31-4v-10h101v10" id="bu"/><path d="M161-154L85 37C75 66 49 86 8 75V39c18-2 6 24 29 21 30-4 38-32 47-58L21-153c-7-3-20 0-17-12h77v8l-26 4 45 116 43-116-26-4v-8h62v8" id="bv"/><g id="y"><use transform="matrix(0.08641975308641973,0,0,0.08641975308641973,0,0)" xlink:href="#bu"/><use transform="matrix(0.08641975308641973,0,0,0.08641975308641973,18.92592592592592,0)" xlink:href="#br"/><use transform="matrix(0.08641975308641973,0,0,0.08641975308641973,32.66666666666666,0)" xlink:href="#bv"/><use transform="matrix(0.08641975308641973,0,0,0.08641975308641973,48.222222222222214,0)" xlink:href="#bn"/><use transform="matrix(0.08641975308641973,0,0,0.08641975308641973,61.96296296296295,0)" xlink:href="#bm"/></g><path d="M75-131c50 2 93 3 93-48 0-46-48-41-93-41v89zm0 115c55 4 111 6 111-51 0-53-58-48-111-48v99zm148-52C223 24 102-3 10 0v-9l31-5v-208l-31-4v-10c77 6 193-24 194 56 0 33-20 48-48 54 36 5 67 20 67 58" id="bw"/><path d="M124-13C89 8 26 15 26-45v-108c-8-3-24 2-21-12h50v118c-3 37 42 32 69 25v-131l-25-4v-8h54v153c8 3 24-2 21 12h-48" id="bx"/><g id="z"><use transform="matrix(0.08641975308641973,0,0,0.08641975308641973,0,0)" xlink:href="#bw"/><use transform="matrix(0.08641975308641973,0,0,0.08641975308641973,20.740740740740737,0)" xlink:href="#bx"/><use transform="matrix(0.08641975308641973,0,0,0.08641975308641973,36.29629629629629,0)" xlink:href="#bo"/><use transform="matrix(0.08641975308641973,0,0,0.08641975308641973,48.39506172839505,0)" xlink:href="#bs"/><use transform="matrix(0.08641975308641973,0,0,0.08641975308641973,57.037037037037024,0)" xlink:href="#bp"/><use transform="matrix(0.08641975308641973,0,0,0.08641975308641973,72.59259259259258,0)" xlink:href="#bn"/><use transform="matrix(0.08641975308641973,0,0,0.08641975308641973,86.33333333333331,0)" xlink:href="#bo"/><use transform="matrix(0.08641975308641973,0,0,0.08641975308641973,98.43209876543207,0)" xlink:href="#bo"/></g><path d="M75-17c87 13 134-18 134-103 0-78-51-106-134-100v203zm171-102C246 5 139 7 10 0v-9l31-5v-208l-31-4v-10h107c82 0 129 35 129 117" id="by"/><g id="A"><use transform="matrix(0.08641975308641973,0,0,0.08641975308641973,0,0)" xlink:href="#by"/><use transform="matrix(0.08641975308641973,0,0,0.08641975308641973,22.38271604938271,0)" xlink:href="#br"/><use transform="matrix(0.08641975308641973,0,0,0.08641975308641973,36.12345679012345,0)" xlink:href="#bq"/><use transform="matrix(0.08641975308641973,0,0,0.08641975308641973,44.76543209876542,0)" xlink:href="#br"/></g><path d="M81-9v9H4v-9l26-5 81-224h33l83 224 30 5v9h-99v-9l31-5-23-68H73L49-14zm38-203L78-98h82" id="bz"/><path d="M45-84c0 64 52 80 104 63 1 25-30 25-55 25-56 0-80-32-80-88 0-76 62-98 131-80v46h-10c-5-15-4-31-23-35-47-10-67 21-67 69" id="bA"/><g id="B"><use transform="matrix(0.08641975308641973,0,0,0.08641975308641973,0,0)" xlink:href="#bz"/><use transform="matrix(0.08641975308641973,0,0,0.08641975308641973,22.38271604938271,0)" xlink:href="#bA"/><use transform="matrix(0.08641975308641973,0,0,0.08641975308641973,36.12345679012345,0)" xlink:href="#bA"/><use transform="matrix(0.08641975308641973,0,0,0.08641975308641973,49.86419753086419,0)" xlink:href="#bn"/><use transform="matrix(0.08641975308641973,0,0,0.08641975308641973,63.60493827160492,0)" xlink:href="#bo"/><use transform="matrix(0.08641975308641973,0,0,0.08641975308641973,75.70370370370368,0)" xlink:href="#bo"/></g><path d="M238-95c0 69-44 99-111 99C63 4 22-25 22-93v-155h51v151c-1 38 19 59 55 60 90 1 49-130 58-211h52v153" id="bB"/><g id="C"><use transform="matrix(0.11728394938271604,0,0,0.11728394938271604,0,0)" xlink:href="#bB"/><use transform="matrix(0.11728394938271604,0,0,0.11728394938271604,30.376542890123453,0)" xlink:href="#ax"/><use transform="matrix(0.11728394938271604,0,0,0.11728394938271604,56.061727804938265,0)" xlink:href="#X"/><use transform="matrix(0.11728394938271604,0,0,0.11728394938271604,79.51851768148147,0)" xlink:href="#as"/><use transform="matrix(0.11728394938271604,0,0,0.11728394938271604,117.04938148395061,0)" xlink:href="#at"/><use transform="matrix(0.11728394938271604,0,0,0.11728394938271604,142.73456639876542,0)" xlink:href="#au"/><use transform="matrix(0.11728394938271604,0,0,0.11728394938271604,154.46296133703703,0)" xlink:href="#av"/><use transform="matrix(0.11728394938271604,0,0,0.11728394938271604,180.14814625185184,0)" xlink:href="#aw"/><use transform="matrix(0.11728394938271604,0,0,0.11728394938271604,203.60493612839505,0)" xlink:href="#as"/><use transform="matrix(0.11728394938271604,0,0,0.11728394938271604,241.13579993086418,0)" xlink:href="#X"/><use transform="matrix(0.11728394938271604,0,0,0.11728394938271604,264.59258980740736,0)" xlink:href="#ax"/><use transform="matrix(0.11728394938271604,0,0,0.11728394938271604,290.27777472222215,0)" xlink:href="#ay"/></g><path d="M369 19C188 19 71-79 72-256v-452h131v442c1 116 47 172 166 172s166-56 166-172v-442h131v452C667-79 550 19 369 19" id="bC"/><g id="D"><use transform="matrix(0.026666666666666665,0,0,0.026666666666666665,0,0)" xlink:href="#bC"/><use transform="matrix(0.026666666666666665,0,0,0.026666666666666665,19.68,0)" xlink:href="#ag"/><use transform="matrix(0.026666666666666665,0,0,0.026666666666666665,36.56,0)" xlink:href="#ab"/><use transform="matrix(0.026666666666666665,0,0,0.026666666666666665,52,0)" xlink:href="#aA"/><use transform="matrix(0.026666666666666665,0,0,0.026666666666666665,77.75999999999999,0)" xlink:href="#aB"/><use transform="matrix(0.026666666666666665,0,0,0.026666666666666665,94.71999999999998,0)" xlink:href="#aj"/><use transform="matrix(0.026666666666666665,0,0,0.026666666666666665,102.23999999999998,0)" xlink:href="#af"/><use transform="matrix(0.026666666666666665,0,0,0.026666666666666665,118.9333333333333,0)" xlink:href="#aC"/><use transform="matrix(0.026666666666666665,0,0,0.026666666666666665,132.39999999999998,0)" xlink:href="#aA"/><use transform="matrix(0.026666666666666665,0,0,0.026666666666666665,158.15999999999997,0)" xlink:href="#ab"/><use transform="matrix(0.026666666666666665,0,0,0.026666666666666665,173.59999999999997,0)" xlink:href="#ag"/><use transform="matrix(0.026666666666666665,0,0,0.026666666666666665,190.34666666666664,0)" xlink:href="#ah"/></g><g id="E"><use transform="matrix(0.11728394938271604,0,0,0.11728394938271604,0,0)" xlink:href="#bB"/><use transform="matrix(0.11728394938271604,0,0,0.11728394938271604,30.376542890123453,0)" xlink:href="#Z"/><use transform="matrix(0.11728394938271604,0,0,0.11728394938271604,53.83333276666666,0)" xlink:href="#X"/><use transform="matrix(0.11728394938271604,0,0,0.11728394938271604,77.29012264320987,0)" xlink:href="#aF"/></g><g id="F"><use transform="matrix(0.026666666666666665,0,0,0.026666666666666665,0,0)" xlink:href="#bC"/><use transform="matrix(0.026666666666666665,0,0,0.026666666666666665,19.68,0)" xlink:href="#ad"/><use transform="matrix(0.026666666666666665,0,0,0.026666666666666665,31.973333333333333,0)" xlink:href="#ab"/><use transform="matrix(0.026666666666666665,0,0,0.026666666666666665,47.413333333333334,0)" xlink:href="#ai"/></g><path d="M335-708c157 0 270 77 267 237-3 159-110 238-267 242H211V0H80v-708h255zm134 238c0-136-122-140-259-133v268h113c83 0 146-47 146-135" id="bD"/><path d="M100-515c-8-137 59-207 193-207 37 0 72 6 104 17l-30 89c-69-20-150-1-142 77v24h123v95H225V0H100v-420H15v-80" id="bE"/><g id="G"><use transform="matrix(0.026666666666666665,0,0,0.026666666666666665,0,0)" xlink:href="#bD"/><use transform="matrix(0.026666666666666665,0,0,0.026666666666666665,16.21333333333333,0)" xlink:href="#ai"/><use transform="matrix(0.026666666666666665,0,0,0.026666666666666665,26.29333333333333,0)" xlink:href="#af"/><use transform="matrix(0.026666666666666665,0,0,0.026666666666666665,42.959999999999994,0)" xlink:href="#bE"/><use transform="matrix(0.026666666666666665,0,0,0.026666666666666665,52.47999999999999,0)" xlink:href="#am"/><use transform="matrix(0.026666666666666665,0,0,0.026666666666666665,59.999999999999986,0)" xlink:href="#aj"/><use transform="matrix(0.026666666666666665,0,0,0.026666666666666665,67.51999999999998,0)" xlink:href="#ab"/></g><path d="M176-78C186 10 51 31 16-35c-5-9-9-19-11-32l52-8c4 21 12 37 35 38 23 0 32-16 32-40v-130H75v-41h101v170" id="bF"/><path d="M135-194c52 0 70 43 70 98 0 56-19 99-73 100-30 1-46-15-58-35L72 0H24l1-261h50v104c11-23 29-37 60-37zM114-30c31 0 40-27 40-66 0-37-7-63-39-63s-41 28-41 65c0 36 8 64 40 64" id="bG"/><g id="H"><use transform="matrix(0.11728394938271604,0,0,0.11728394938271604,0,0)" xlink:href="#bF"/><use transform="matrix(0.11728394938271604,0,0,0.11728394938271604,23.45678987654321,0)" xlink:href="#av"/><use transform="matrix(0.11728394938271604,0,0,0.11728394938271604,49.141974791358024,0)" xlink:href="#bG"/></g><path d="M24-248c93 1 206-16 204 79-1 75-69 88-152 82V0H24v-248zm52 121c47 0 100 7 100-41 0-47-54-39-100-39v80" id="bH"/><g id="I"><use transform="matrix(0.11728394938271604,0,0,0.11728394938271604,0,0)" xlink:href="#bH"/><use transform="matrix(0.11728394938271604,0,0,0.11728394938271604,28.14814785185185,0)" xlink:href="#av"/><use transform="matrix(0.11728394938271604,0,0,0.11728394938271604,53.83333276666666,0)" xlink:href="#Z"/><use transform="matrix(0.11728394938271604,0,0,0.11728394938271604,77.29012264320987,0)" xlink:href="#ay"/><use transform="matrix(0.11728394938271604,0,0,0.11728394938271604,91.24691261975308,0)" xlink:href="#aG"/><use transform="matrix(0.11728394938271604,0,0,0.11728394938271604,102.97530755802468,0)" xlink:href="#ax"/><use transform="matrix(0.11728394938271604,0,0,0.11728394938271604,128.6604924728395,0)" xlink:href="#aH"/></g><path d="M354-211C351-72 278 17 136 19 85 19 40 7 3-17l48-97c17 11 48 20 76 20 64 0 96-39 96-116v-498h131v497" id="bI"/><path d="M366-534c151 0 227 122 225 273-2 163-86 275-250 275-55 0-106-18-152-54l-8 40H78v-708h125v245h3c35-47 89-71 160-71zM324-85c97 0 138-75 138-176 0-98-35-170-123-173-77-2-136 64-136 141v166c37 24 66 41 121 42" id="bJ"/><g id="J"><use transform="matrix(0.026666666666666665,0,0,0.026666666666666665,0,0)" xlink:href="#bI"/><use transform="matrix(0.026666666666666665,0,0,0.026666666666666665,11.36,0)" xlink:href="#af"/><use transform="matrix(0.026666666666666665,0,0,0.026666666666666665,28.159999999999997,0)" xlink:href="#bJ"/><use transform="matrix(0.026666666666666665,0,0,0.026666666666666665,45.11999999999999,0)" xlink:href="#bD"/><use transform="matrix(0.026666666666666665,0,0,0.026666666666666665,61.04,0)" xlink:href="#af"/><use transform="matrix(0.026666666666666665,0,0,0.026666666666666665,77.83999999999999,0)" xlink:href="#ad"/><use transform="matrix(0.026666666666666665,0,0,0.026666666666666665,90.13333333333333,0)" xlink:href="#ah"/><use transform="matrix(0.026666666666666665,0,0,0.026666666666666665,100.39999999999999,0)" xlink:href="#am"/><use transform="matrix(0.026666666666666665,0,0,0.026666666666666665,107.91999999999999,0)" xlink:href="#ag"/><use transform="matrix(0.026666666666666665,0,0,0.026666666666666665,124.8,0)" xlink:href="#aL"/></g><g id="K"><use transform="matrix(0.026666666666666665,0,0,0.026666666666666665,0,0)" xlink:href="#bI"/><use transform="matrix(0.026666666666666665,0,0,0.026666666666666665,11.36,0)" xlink:href="#af"/><use transform="matrix(0.026666666666666665,0,0,0.026666666666666665,28.159999999999997,0)" xlink:href="#bJ"/><use transform="matrix(0.026666666666666665,0,0,0.026666666666666665,45.11999999999999,0)" xlink:href="#bD"/><use transform="matrix(0.026666666666666665,0,0,0.026666666666666665,61.04,0)" xlink:href="#af"/><use transform="matrix(0.026666666666666665,0,0,0.026666666666666665,77.83999999999999,0)" xlink:href="#ad"/><use transform="matrix(0.026666666666666665,0,0,0.026666666666666665,90.13333333333333,0)" xlink:href="#ah"/><use transform="matrix(0.026666666666666665,0,0,0.026666666666666665,100.39999999999999,0)" xlink:href="#am"/><use transform="matrix(0.026666666666666665,0,0,0.026666666666666665,107.91999999999999,0)" xlink:href="#ag"/><use transform="matrix(0.026666666666666665,0,0,0.026666666666666665,124.8,0)" xlink:href="#aL"/></g><path d="M24-248c120-7 223 5 221 122C244-46 201 0 124 0H24v-248zM76-40c74 7 117-18 117-86 0-67-45-88-117-82v168" id="bK"/><path d="M88-194c31-1 46 15 58 34l-1-101h50l1 261h-48c-2-10 0-23-3-31C134-8 116 4 84 4 32 4 16-41 15-95c0-56 19-97 73-99zm17 164c33 0 40-30 41-66 1-37-9-64-41-64s-38 30-39 65c0 43 13 65 39 65" id="bL"/><g id="L"><use transform="matrix(0.11728394938271604,0,0,0.11728394938271604,0,0)" xlink:href="#bK"/><use transform="matrix(0.11728394938271604,0,0,0.11728394938271604,30.376542890123453,0)" xlink:href="#X"/><use transform="matrix(0.11728394938271604,0,0,0.11728394938271604,53.83333276666666,0)" xlink:href="#as"/><use transform="matrix(0.11728394938271604,0,0,0.11728394938271604,91.3641965691358,0)" xlink:href="#aE"/><use transform="matrix(0.11728394938271604,0,0,0.11728394938271604,114.82098644567901,0)" xlink:href="#ax"/><use transform="matrix(0.11728394938271604,0,0,0.11728394938271604,140.50617136049382,0)" xlink:href="#bL"/></g><path d="M44-257c2-159 83-277 241-277 59 0 108 17 147 52v-226h125c4 237-9 482 8 708H449c-6-26-5-51-10-65-38 51-88 79-175 79C113 16 42-104 44-257zM298-85c79 1 134-62 134-142v-152c-34-36-77-54-128-54-90 1-130 79-130 176S212-88 298-85" id="bM"/><g id="M"><use transform="matrix(0.026666666666666665,0,0,0.026666666666666665,0,0)" xlink:href="#ao"/><use transform="matrix(0.026666666666666665,0,0,0.026666666666666665,19.73333333333333,0)" xlink:href="#ab"/><use transform="matrix(0.026666666666666665,0,0,0.026666666666666665,35.17333333333333,0)" xlink:href="#aA"/><use transform="matrix(0.026666666666666665,0,0,0.026666666666666665,60.63999999999999,0)" xlink:href="#aK"/><use transform="matrix(0.026666666666666665,0,0,0.026666666666666665,75.81333333333333,0)" xlink:href="#ag"/><use transform="matrix(0.026666666666666665,0,0,0.026666666666666665,92.69333333333333,0)" xlink:href="#bM"/></g><path d="M67-125c0 53 21 87 73 88 37 1 54-22 65-47l45 17C233-25 199 4 140 4 58 4 20-42 15-125 8-235 124-281 211-232c18 10 29 29 36 50l-46 12c-8-25-30-41-62-41-52 0-71 34-72 86" id="bN"/><path d="M121-226c-27-7-43 5-38 36h38v33H83V0H34v-157H6v-33h28c-9-59 32-81 87-68v32" id="bO"/><g id="N"><use transform="matrix(0.11728394938271604,0,0,0.11728394938271604,0,0)" xlink:href="#bN"/><use transform="matrix(0.11728394938271604,0,0,0.11728394938271604,30.376542890123453,0)" xlink:href="#av"/><use transform="matrix(0.11728394938271604,0,0,0.11728394938271604,56.061727804938265,0)" xlink:href="#ax"/><use transform="matrix(0.11728394938271604,0,0,0.11728394938271604,81.74691271975308,0)" xlink:href="#ay"/><use transform="matrix(0.11728394938271604,0,0,0.11728394938271604,95.70370269629629,0)" xlink:href="#X"/><use transform="matrix(0.11728394938271604,0,0,0.11728394938271604,119.1604925728395,0)" xlink:href="#ax"/><use transform="matrix(0.11728394938271604,0,0,0.11728394938271604,144.8456774876543,0)" xlink:href="#ay"/><use transform="matrix(0.11728394938271604,0,0,0.11728394938271604,158.80246746419752,0)" xlink:href="#bO"/><use transform="matrix(0.11728394938271604,0,0,0.11728394938271604,172.75925744074073,0)" xlink:href="#aP"/><use transform="matrix(0.11728394938271604,0,0,0.11728394938271604,198.44444235555554,0)" xlink:href="#au"/></g><g id="O"><use transform="matrix(0.026666666666666665,0,0,0.026666666666666665,0,0)" xlink:href="#ae"/><use transform="matrix(0.026666666666666665,0,0,0.026666666666666665,17.41333333333333,0)" xlink:href="#af"/><use transform="matrix(0.026666666666666665,0,0,0.026666666666666665,34.213333333333324,0)" xlink:href="#ag"/><use transform="matrix(0.026666666666666665,0,0,0.026666666666666665,50.959999999999994,0)" xlink:href="#ah"/><use transform="matrix(0.026666666666666665,0,0,0.026666666666666665,60.82666666666666,0)" xlink:href="#ab"/><use transform="matrix(0.026666666666666665,0,0,0.026666666666666665,76.26666666666667,0)" xlink:href="#ag"/><use transform="matrix(0.026666666666666665,0,0,0.026666666666666665,93.01333333333332,0)" xlink:href="#ah"/><use transform="matrix(0.026666666666666665,0,0,0.026666666666666665,103.27999999999999,0)" xlink:href="#bE"/><use transform="matrix(0.026666666666666665,0,0,0.026666666666666665,112.8,0)" xlink:href="#aQ"/><use transform="matrix(0.026666666666666665,0,0,0.026666666666666665,129.70666666666665,0)" xlink:href="#aj"/></g><g id="P"><use transform="matrix(0.026666666666666665,0,0,0.026666666666666665,0,0)" xlink:href="#ae"/><use transform="matrix(0.026666666666666665,0,0,0.026666666666666665,17.41333333333333,0)" xlink:href="#af"/><use transform="matrix(0.026666666666666665,0,0,0.026666666666666665,34.213333333333324,0)" xlink:href="#ag"/><use transform="matrix(0.026666666666666665,0,0,0.026666666666666665,50.959999999999994,0)" xlink:href="#ah"/><use transform="matrix(0.026666666666666665,0,0,0.026666666666666665,60.82666666666666,0)" xlink:href="#ab"/><use transform="matrix(0.026666666666666665,0,0,0.026666666666666665,76.26666666666667,0)" xlink:href="#ag"/><use transform="matrix(0.026666666666666665,0,0,0.026666666666666665,93.01333333333332,0)" xlink:href="#ah"/><use transform="matrix(0.026666666666666665,0,0,0.026666666666666665,103.27999999999999,0)" xlink:href="#bE"/><use transform="matrix(0.026666666666666665,0,0,0.026666666666666665,112.8,0)" xlink:href="#aQ"/><use transform="matrix(0.026666666666666665,0,0,0.026666666666666665,129.70666666666665,0)" xlink:href="#aj"/></g><path d="M199 0l-22-63H83L61 0H9l90-248h61L250 0h-51zm-33-102l-36-108c-10 38-24 72-36 108h72" id="bP"/><g id="Q"><use transform="matrix(0.11728394938271604,0,0,0.11728394938271604,0,0)" xlink:href="#bP"/><use transform="matrix(0.11728394938271604,0,0,0.11728394938271604,30.376542890123453,0)" xlink:href="#ax"/><use transform="matrix(0.11728394938271604,0,0,0.11728394938271604,56.061727804938265,0)" xlink:href="#aE"/><use transform="matrix(0.11728394938271604,0,0,0.11728394938271604,79.51851768148147,0)" xlink:href="#au"/><use transform="matrix(0.11728394938271604,0,0,0.11728394938271604,91.24691261975308,0)" xlink:href="#aw"/><use transform="matrix(0.11728394938271604,0,0,0.11728394938271604,114.70370249629629,0)" xlink:href="#ay"/><use transform="matrix(0.11728394938271604,0,0,0.11728394938271604,128.6604924728395,0)" xlink:href="#aG"/><use transform="matrix(0.11728394938271604,0,0,0.11728394938271604,140.3888874111111,0)" xlink:href="#aO"/><use transform="matrix(0.11728394938271604,0,0,0.11728394938271604,163.84567728765433,0)" xlink:href="#Z"/></g><g id="R"><use transform="matrix(0.026666666666666665,0,0,0.026666666666666665,0,0)" xlink:href="#ap"/><use transform="matrix(0.026666666666666665,0,0,0.026666666666666665,17.946666666666665,0)" xlink:href="#ag"/><use transform="matrix(0.026666666666666665,0,0,0.026666666666666665,34.53333333333333,0)" xlink:href="#aK"/><use transform="matrix(0.026666666666666665,0,0,0.026666666666666665,49.70666666666666,0)" xlink:href="#aj"/><use transform="matrix(0.026666666666666665,0,0,0.026666666666666665,57.22666666666666,0)" xlink:href="#aC"/><use transform="matrix(0.026666666666666665,0,0,0.026666666666666665,71.52,0)" xlink:href="#ah"/><use transform="matrix(0.026666666666666665,0,0,0.026666666666666665,81.78666666666666,0)" xlink:href="#am"/><use transform="matrix(0.026666666666666665,0,0,0.026666666666666665,89.30666666666666,0)" xlink:href="#an"/><use transform="matrix(0.026666666666666665,0,0,0.026666666666666665,102.93333333333332,0)" xlink:href="#ad"/></g><g id="S"><use transform="matrix(0.11728394938271604,0,0,0.11728394938271604,0,0)" xlink:href="#bN"/><use transform="matrix(0.11728394938271604,0,0,0.11728394938271604,30.376542890123453,0)" xlink:href="#X"/><use transform="matrix(0.11728394938271604,0,0,0.11728394938271604,53.83333276666666,0)" xlink:href="#aF"/><use transform="matrix(0.11728394938271604,0,0,0.11728394938271604,70.2530856802469,0)" xlink:href="#ay"/><use transform="matrix(0.11728394938271604,0,0,0.11728394938271604,84.2098756567901,0)" xlink:href="#aG"/><use transform="matrix(0.11728394938271604,0,0,0.11728394938271604,95.93827059506171,0)" xlink:href="#bO"/><use transform="matrix(0.11728394938271604,0,0,0.11728394938271604,109.89506057160492,0)" xlink:href="#aG"/><use transform="matrix(0.11728394938271604,0,0,0.11728394938271604,121.62345550987654,0)" xlink:href="#aO"/><use transform="matrix(0.11728394938271604,0,0,0.11728394938271604,145.08024538641973,0)" xlink:href="#aE"/><use transform="matrix(0.11728394938271604,0,0,0.11728394938271604,168.53703526296295,0)" xlink:href="#ay"/><use transform="matrix(0.11728394938271604,0,0,0.11728394938271604,182.49382523950615,0)" xlink:href="#aG"/><use transform="matrix(0.11728394938271604,0,0,0.11728394938271604,194.22222017777776,0)" xlink:href="#av"/><use transform="matrix(0.11728394938271604,0,0,0.11728394938271604,219.90740509259257,0)" xlink:href="#ax"/></g><g id="T"><use transform="matrix(0.026666666666666665,0,0,0.026666666666666665,0,0)" xlink:href="#ae"/><use transform="matrix(0.026666666666666665,0,0,0.026666666666666665,17.41333333333333,0)" xlink:href="#ab"/><use transform="matrix(0.026666666666666665,0,0,0.026666666666666665,32.85333333333333,0)" xlink:href="#ai"/><use transform="matrix(0.026666666666666665,0,0,0.026666666666666665,43.306666666666665,0)" xlink:href="#ah"/><use transform="matrix(0.026666666666666665,0,0,0.026666666666666665,53.57333333333333,0)" xlink:href="#am"/><use transform="matrix(0.026666666666666665,0,0,0.026666666666666665,61.09333333333333,0)" xlink:href="#bE"/><use transform="matrix(0.026666666666666665,0,0,0.026666666666666665,70.61333333333333,0)" xlink:href="#am"/><use transform="matrix(0.026666666666666665,0,0,0.026666666666666665,78.13333333333333,0)" xlink:href="#an"/><use transform="matrix(0.026666666666666665,0,0,0.026666666666666665,91.75999999999999,0)" xlink:href="#aK"/><use transform="matrix(0.026666666666666665,0,0,0.026666666666666665,106.79999999999998,0)" xlink:href="#ah"/><use transform="matrix(0.026666666666666665,0,0,0.026666666666666665,117.06666666666666,0)" xlink:href="#am"/><use transform="matrix(0.026666666666666665,0,0,0.026666666666666665,124.58666666666663,0)" xlink:href="#af"/><use transform="matrix(0.026666666666666665,0,0,0.026666666666666665,141.38666666666666,0)" xlink:href="#ag"/></g><g id="U"><use transform="matrix(0.026666666666666665,0,0,0.026666666666666665,0,0)" xlink:href="#ae"/><use transform="matrix(0.026666666666666665,0,0,0.026666666666666665,17.41333333333333,0)" xlink:href="#ab"/><use transform="matrix(0.026666666666666665,0,0,0.026666666666666665,32.85333333333333,0)" xlink:href="#ai"/><use transform="matrix(0.026666666666666665,0,0,0.026666666666666665,43.306666666666665,0)" xlink:href="#ah"/><use transform="matrix(0.026666666666666665,0,0,0.026666666666666665,53.57333333333333,0)" xlink:href="#am"/><use transform="matrix(0.026666666666666665,0,0,0.026666666666666665,61.09333333333333,0)" xlink:href="#bE"/><use transform="matrix(0.026666666666666665,0,0,0.026666666666666665,70.61333333333333,0)" xlink:href="#am"/><use transform="matrix(0.026666666666666665,0,0,0.026666666666666665,78.13333333333333,0)" xlink:href="#an"/><use transform="matrix(0.026666666666666665,0,0,0.026666666666666665,91.75999999999999,0)" xlink:href="#aK"/><use transform="matrix(0.026666666666666665,0,0,0.026666666666666665,106.79999999999998,0)" xlink:href="#ah"/><use transform="matrix(0.026666666666666665,0,0,0.026666666666666665,117.06666666666666,0)" xlink:href="#am"/><use transform="matrix(0.026666666666666665,0,0,0.026666666666666665,124.58666666666663,0)" xlink:href="#af"/><use transform="matrix(0.026666666666666665,0,0,0.026666666666666665,141.38666666666666,0)" xlink:href="#ag"/></g><path d="M561-598H348V0H217v-598H4v-110h557v110" id="bQ"/><g id="V"><use transform="matrix(0.026666666666666665,0,0,0.026666666666666665,0,0)" xlink:href="#bQ"/><use transform="matrix(0.026666666666666665,0,0,0.026666666666666665,15.066666666666666,0)" xlink:href="#ai"/><use transform="matrix(0.026666666666666665,0,0,0.026666666666666665,25.52,0)" xlink:href="#am"/><use transform="matrix(0.026666666666666665,0,0,0.026666666666666665,33.04,0)" xlink:href="#ab"/></g></defs></g></svg>