<svg xmlns="http://www.w3.org/2000/svg" xmlns:xlink="http://www.w3.org/1999/xlink" xmlns:lucid="lucid" width="1646" height="471"><g transform="translate(-57 -57)" lucid:page-tab-id="0_0"><path d="M0 0h1761.7v583.58H0z" fill="#fff"/><path d="M80 80h1600v425H80z" stroke="#666" fill="#e9e9ea"/><path d="M80 80h1600v60H80z" stroke="#666" fill="#afafb0"/><path d="M272 104h1396v24H272z" stroke="#666" fill="#e9e9ea"/><path d="M104 104l-12 12 12 12m-12-12h24M152 104l12 12-12 12m-12-12h24M212 116c-1.4-6.23-2.8-8.15-4.95-9.7-5.36-3.9-12.86-2.72-16.76 2.65-3.9 5.36-2.72 12.86 2.65 16.76 5.36 3.9 12.86 2.7 16.76-2.65" stroke="#666" stroke-width="6" fill="none"/><path d="M215.12 104v12h-12z" stroke="#666" stroke-width="1.5" fill="#666"/><path d="M236 116l12-12 12 12h-2.4v12h-6v-12h-7.2v12h-6v-12z" stroke="#666" fill="#666"/><use xlink:href="#a" transform="matrix(1,0,0,1,100,80) translate(0 15.6)"/><use xlink:href="#b" transform="matrix(1,0,0,1,100,80) translate(44.400000000000006 15.6)"/><use xlink:href="#c" transform="matrix(1,0,0,1,100,80) translate(101.80000000000001 15.6)"/><use xlink:href="#d" transform="matrix(1,0,0,1,100,80) translate(158.20000000000002 15.6)"/><use xlink:href="#e" transform="matrix(1,0,0,1,100,80) translate(256.5 15.6)"/><use xlink:href="#f" transform="matrix(1,0,0,1,278,104) translate(0 15.6)"/><path d="M100 230h1560v70H100z" stroke="#666" fill-opacity="0"/><path d="M80 145h1525v35H80z" fill="none"/><path d="M259.4 155.5l7 7-7 7M749.42 155.5l7 7-7 7M1165.73 155.5l7 7-7 7M1282.74 155.5l7 7-7 7" stroke="#000" stroke-width="2" fill="none"/><use xlink:href="#g" transform="matrix(1,0,0,1,80,150) translate(23.14999999999999 16.1)"/><use xlink:href="#h" transform="matrix(1,0,0,1,80,150) translate(51.099999999999994 16.1)"/><use xlink:href="#i" transform="matrix(1,0,0,1,262.91,150) translate(23.599999999999966 16.1)"/><use xlink:href="#j" transform="matrix(1,0,0,1,262.91,150) translate(120.44999999999997 16.1)"/><use xlink:href="#k" transform="matrix(1,0,0,1,262.91,150) translate(235.25 16.1)"/><use xlink:href="#l" transform="matrix(1,0,0,1,262.91,150) translate(272.15 16.1)"/><use xlink:href="#m" transform="matrix(1,0,0,1,262.91,150) translate(358.65000000000003 16.1)"/><use xlink:href="#n" transform="matrix(1,0,0,1,752.9200000000001,150) translate(23.44999999999999 16.1)"/><use xlink:href="#o" transform="matrix(1,0,0,1,752.9200000000001,150) translate(83.3 16.1)"/><use xlink:href="#p" transform="matrix(1,0,0,1,752.9200000000001,150) translate(186 16.1)"/><use xlink:href="#q" transform="matrix(1,0,0,1,752.9200000000001,150) translate(208.95 16.1)"/><use xlink:href="#r" transform="matrix(1,0,0,1,752.9200000000001,150) translate(283.75 16.1)"/><use xlink:href="#s" transform="matrix(1,0,0,1,1169.23,150) translate(23.599999999999994 16.1)"/><use xlink:href="#t" transform="matrix(1,0,0,1,1286.24,150) translate(23.224999999999994 16.1)"/><use xlink:href="#u" transform="matrix(1,0,0,1,1286.24,150) translate(64.225 16.1)"/><use xlink:href="#v" transform="matrix(1,0,0,1,1286.24,150) translate(101.125 16.1)"/><use xlink:href="#w" transform="matrix(1,0,0,1,1286.24,150) translate(212.975 16.1)"/><path d="M100 180h240v60H100z" stroke="#000" stroke-opacity="0" fill="#fff" fill-opacity="0"/><g><use xlink:href="#x" transform="matrix(1,0,0,1,105,185) translate(0 30.886111111111106)"/><use xlink:href="#y" transform="matrix(1,0,0,1,105,185) translate(88.65864197530863 30.886111111111106)"/></g><path d="M950 242.5v45h305v-45z" fill="none"/><path d="M950 269.5l91.5 4.5 91.5-13.5 91.5 9" stroke="#9c9c9d" stroke-width="2" fill="none"/><path d="M950 283l91.5-18 91.5 9 91.5-22.5" stroke="#4d4d4d" stroke-width="2" fill="none"/><path d="M950 242.5v45h305" stroke="#666" stroke-width="2" fill="none"/><g><use xlink:href="#z" transform="matrix(1,0,0,1,960,242.5) translate(0 14.4)"/></g><path d="M1260 235h240v60h-240z" stroke="#000" stroke-opacity="0" fill="#fff" fill-opacity="0"/><g><use xlink:href="#A" transform="matrix(1,0,0,1,1265,240) translate(0 31.316666666666663)"/><use xlink:href="#B" transform="matrix(1,0,0,1,1265,240) translate(122.46111111111107 31.316666666666663)"/></g><path d="M1497 242.5c-6.63 0-12 5.37-12 12v16c0 6.63 5.37 12 12 12h136c6.63 0 12-5.37 12-12v-16c0-6.63-5.37-12-12-12z" stroke="#666" fill="#e9e9ea"/><g><use xlink:href="#C" transform="matrix(1,0,0,1,1495,246.5) translate(27.4 19.6)"/><use xlink:href="#D" transform="matrix(1,0,0,1,1495,246.5) translate(73.7 19.6)"/></g><path d="M120 240h240v60H120z" stroke="#000" stroke-opacity="0" fill="#fff" fill-opacity="0"/><g><use xlink:href="#E" transform="matrix(1,0,0,1,125,245) translate(0 33.04444444444444)"/></g><path d="M100 320h1560v160H100z" stroke="#666" fill="#e9e9ea"/><g><use xlink:href="#F" transform="matrix(1,0,0,1,105,325) translate(461.4391975308647 86.16388888888883)"/><use xlink:href="#G" transform="matrix(1,0,0,1,105,325) translate(667.2966049382718 86.16388888888883)"/><use xlink:href="#H" transform="matrix(1,0,0,1,105,325) translate(905.4854938271603 86.16388888888883)"/></g><defs><path fill="#666" d="M81-9v9H4v-9l26-5 81-224h33l83 224 30 5v9h-99v-9l31-5-23-68H73L49-14zm38-203L78-98h82" id="I"/><path fill="#666" d="M141-152c28 39 5 97-54 97-9 0-20-2-27-3L49-35c29 22 130-14 124 52-4 45-38 57-88 61C21 83-8 26 45-2 33-6 22-15 21-31l28-31c-19-9-28-26-28-51-2-51 53-65 100-52l38-20 7 8zM85 64c35 0 61-11 61-42 0-35-57-17-89-21-9 8-16 19-17 34 0 25 19 29 45 29zM52-113c1 26 7 46 35 44 28-1 34-16 35-44 0-26-6-43-34-43s-36 17-36 43" id="J"/><path fill="#666" d="M47-200c-23 0-25-39 0-38 13 0 18 7 20 19-1 11-8 19-20 19zM65-12l28 4v8H8v-8l28-4v-141l-24-4v-8h53v153" id="K"/><path fill="#666" d="M65-12l28 4v8H7v-8l28-4v-226l-28-4v-8h58v238" id="L"/><path fill="#666" d="M84-170c49 0 66 33 63 87H46c-8 60 38 80 95 63v10C128-2 108 4 88 4 34 4 14-29 14-84c-1-54 22-86 70-86zm33 73c12-57-57-82-69-24-1 7-2 15-2 24h71" id="M"/><g id="a"><use transform="matrix(0.05,0,0,0.05,0,0)" xlink:href="#I"/><use transform="matrix(0.05,0,0,0.05,12.950000000000001,0)" xlink:href="#J"/><use transform="matrix(0.05,0,0,0.05,21.950000000000003,0)" xlink:href="#K"/><use transform="matrix(0.05,0,0,0.05,26.950000000000003,0)" xlink:href="#L"/><use transform="matrix(0.05,0,0,0.05,31.950000000000003,0)" xlink:href="#M"/></g><path fill="#666" d="M10 0v-9l31-5v-208l-31-4v-10h95v10l-30 4v93h110v-93l-30-4v-10h94v10l-30 4v208l30 5v9h-94v-9l30-5v-99H75v99l30 5v9H10" id="N"/><path fill="#666" d="M124-13C89 8 26 15 26-45v-108c-8-3-24 2-21-12h50v118c-3 37 42 32 69 25v-131l-25-4v-8h54v153c8 3 24-2 21 12h-48" id="O"/><path fill="#666" d="M126-118c4-37-42-32-68-25v131l24 4v8H8C5-13 21-9 28-12v-141c-7-3-23 1-20-12h48l1 13c22-15 77-30 92 2 32-22 104-36 104 29v109c8 3 24-2 21 12h-75v-8l25-4v-106c3-39-45-31-72-24 7 37 1 88 3 130l25 4v8h-78v-8l24-4v-106" id="P"/><path fill="#666" d="M32-163c41-10 102-14 102 39v112c8 3 24-2 21 12h-45l-4-17C83 13 3 13 13-46c-2-50 45-50 92-51 4-36-5-70-42-56-6 2-12 4-16 6-4 7 0 23-15 20v-36zM42-47c0 41 41 33 63 22v-59c-34 1-63-1-63 37" id="Q"/><path fill="#666" d="M125-118c4-37-41-34-68-26v132l23 4v8H8C5-13 21-9 28-12v-141c-7-3-23 1-20-12h47l2 13c31-23 98-29 98 31v109c7 3 23-1 20 12h-72v-8l22-4v-106" id="R"/><g id="b"><use transform="matrix(0.05,0,0,0.05,0,0)" xlink:href="#N"/><use transform="matrix(0.05,0,0,0.05,12.950000000000001,0)" xlink:href="#O"/><use transform="matrix(0.05,0,0,0.05,21.950000000000003,0)" xlink:href="#P"/><use transform="matrix(0.05,0,0,0.05,35.95,0)" xlink:href="#Q"/><use transform="matrix(0.05,0,0,0.05,43.900000000000006,0)" xlink:href="#R"/></g><path fill="#666" d="M52-115c0 93 80 130 150 87l7-35h11l-1 55c-23 7-52 12-83 12C60 4 19-37 15-115c-5-113 97-141 201-114l1 51h-12l-5-30c-15-9-39-16-62-16-66 0-86 41-86 109" id="S"/><path fill="#666" d="M166-85c3 67-44 102-111 85l1 64 29 4v9H6v-9l21-4v-217c-7-3-22 1-19-12h46l1 9c11-8 26-14 45-14 47 2 64 36 66 85zM56-13c53 14 83-14 78-72 7-53-33-79-78-60v132" id="T"/><path fill="#666" d="M54-38c-1 25 24 26 44 20v12C71 10 25 9 25-35v-115H4c-2-14 14-10 21-15l18-38h11v38h38v15H54v112" id="U"/><g id="c"><use transform="matrix(0.05,0,0,0.05,0,0)" xlink:href="#S"/><use transform="matrix(0.05,0,0,0.05,12,0)" xlink:href="#Q"/><use transform="matrix(0.05,0,0,0.05,19.95,0)" xlink:href="#T"/><use transform="matrix(0.05,0,0,0.05,28.950000000000003,0)" xlink:href="#K"/><use transform="matrix(0.05,0,0,0.05,33.95,0)" xlink:href="#U"/><use transform="matrix(0.05,0,0,0.05,38.95,0)" xlink:href="#Q"/><use transform="matrix(0.05,0,0,0.05,46.900000000000006,0)" xlink:href="#L"/></g><path fill="#666" d="M152 0h-7L59-203v189l32 5v9H10v-9l31-5v-208l-31-4v-10h72l76 180 84-180h68v10l-31 4v208l31 5v9h-96v-9l32-5v-189" id="V"/><g id="d"><use transform="matrix(0.05,0,0,0.05,0,0)" xlink:href="#V"/><use transform="matrix(0.05,0,0,0.05,16,0)" xlink:href="#Q"/><use transform="matrix(0.05,0,0,0.05,23.95,0)" xlink:href="#R"/><use transform="matrix(0.05,0,0,0.05,32.95,0)" xlink:href="#Q"/><use transform="matrix(0.05,0,0,0.05,40.900000000000006,0)" xlink:href="#J"/><use transform="matrix(0.05,0,0,0.05,49.900000000000006,0)" xlink:href="#M"/><use transform="matrix(0.05,0,0,0.05,57.85,0)" xlink:href="#P"/><use transform="matrix(0.05,0,0,0.05,71.85000000000001,0)" xlink:href="#M"/><use transform="matrix(0.05,0,0,0.05,79.80000000000001,0)" xlink:href="#R"/><use transform="matrix(0.05,0,0,0.05,88.80000000000001,0)" xlink:href="#U"/></g><path fill="#666" d="M178-68c0 79-95 82-154 59v-54h12c1 35 22 52 60 52 50 0 69-58 33-82-39-24-105-21-105-85 0-67 86-66 142-53v49h-12l-6-29c-31-27-121-7-89 42 28 43 119 24 119 101" id="W"/><path fill="#666" d="M161-154L85 37C75 66 49 86 8 75V39c18-2 6 24 29 21 30-4 38-32 47-58L21-153c-7-3-20 0-17-12h77v8l-26 4 45 116 43-116-26-4v-8h62v8" id="X"/><path fill="#666" d="M41-130c7 48 86 23 86 84 0 56-69 57-112 41v-40c20 0 9 29 31 31 35 19 77-26 41-50-27-18-72-13-72-59 0-50 58-52 100-41v36c-19 1-8-25-28-25-21-7-50-1-46 23" id="Y"/><g id="e"><use transform="matrix(0.05,0,0,0.05,0,0)" xlink:href="#W"/><use transform="matrix(0.05,0,0,0.05,10,0)" xlink:href="#X"/><use transform="matrix(0.05,0,0,0.05,19,0)" xlink:href="#Y"/><use transform="matrix(0.05,0,0,0.05,26,0)" xlink:href="#U"/><use transform="matrix(0.05,0,0,0.05,31,0)" xlink:href="#M"/><use transform="matrix(0.05,0,0,0.05,38.95,0)" xlink:href="#P"/></g><path fill="#666" d="M126-119c3-38-42-31-69-25v132l23 4v8H7v-8l21-4v-226l-24-4v-8h53l-1 98c31-22 99-31 99 31v109c7 3 23-1 20 12h-71v-8l22-4v-107" id="Z"/><path fill="#666" d="M50-37c14 0 21 9 21 21S62 5 50 5C37 5 28-4 28-16s8-21 22-21zm0-132c12 0 21 9 21 21 0 13-9 22-21 22-13 0-22-9-22-22 0-12 9-21 22-21" id="aa"/><path fill="#666" d="M18 4H0l83-241h17" id="ab"/><path fill="#666" d="M110-14l48 5v9H32v-9l48-5v-192l-48 17v-10l69-39h9v224" id="ac"/><path fill="#666" d="M24-231c66-21 156 2 128 81C132-92 78-66 39-27h121V0H16v-26l59-54c26-25 47-47 47-97 0-48-47-57-81-37l-6 29H24v-46" id="ad"/><path fill="#666" d="M35-180H24v-56h146v14L65 0H42l103-209H41" id="ae"/><path fill="#666" d="M45-37c13 0 21 8 21 21C67-2 57 4 45 5 33 4 23-2 24-16c0-13 8-21 21-21" id="af"/><path fill="#666" d="M90-239c59 0 76 52 76 120S152 4 89 4C31 4 14-51 14-119c0-67 17-120 76-120zM89-10c45-6 45-58 45-109 0-50 0-101-45-106-45 4-43 57-43 106 0 50-2 104 43 109" id="ag"/><g id="f"><use transform="matrix(0.05,0,0,0.05,0,0)" xlink:href="#Z"/><use transform="matrix(0.05,0,0,0.05,9,0)" xlink:href="#U"/><use transform="matrix(0.05,0,0,0.05,14,0)" xlink:href="#U"/><use transform="matrix(0.05,0,0,0.05,19,0)" xlink:href="#T"/><use transform="matrix(0.05,0,0,0.05,28,0)" xlink:href="#aa"/><use transform="matrix(0.05,0,0,0.05,33,0)" xlink:href="#ab"/><use transform="matrix(0.05,0,0,0.05,38,0)" xlink:href="#ab"/><use transform="matrix(0.05,0,0,0.05,43,0)" xlink:href="#ac"/><use transform="matrix(0.05,0,0,0.05,52,0)" xlink:href="#ad"/><use transform="matrix(0.05,0,0,0.05,61,0)" xlink:href="#ae"/><use transform="matrix(0.05,0,0,0.05,70,0)" xlink:href="#af"/><use transform="matrix(0.05,0,0,0.05,74.5,0)" xlink:href="#ag"/><use transform="matrix(0.05,0,0,0.05,83.5,0)" xlink:href="#af"/><use transform="matrix(0.05,0,0,0.05,88,0)" xlink:href="#ag"/><use transform="matrix(0.05,0,0,0.05,97,0)" xlink:href="#af"/><use transform="matrix(0.05,0,0,0.05,101.5,0)" xlink:href="#ac"/></g><path fill="#316ccc" d="M199 0l-22-63H83L61 0H9l90-248h61L250 0h-51zm-33-102l-36-108c-10 38-24 72-36 108h72" id="ah"/><path fill="#316ccc" d="M25 0v-261h50V0H25" id="ai"/><g id="g"><use transform="matrix(0.05,0,0,0.05,0,0)" xlink:href="#ah"/><use transform="matrix(0.05,0,0,0.05,12.950000000000001,0)" xlink:href="#ai"/><use transform="matrix(0.05,0,0,0.05,17.950000000000003,0)" xlink:href="#ai"/><path fill="#316ccc" d="M-.9.97h29.75v1.9H-.9z"/></g><path fill="#316ccc" d="M140-251c80 0 125 45 125 126S219 4 139 4C58 4 15-44 15-125s44-126 125-126zm-1 214c52 0 73-35 73-88 0-50-21-86-72-86-52 0-73 35-73 86s22 88 72 88" id="aj"/><path fill="#316ccc" d="M190-63c-7 42-38 67-86 67-59 0-84-38-90-98-12-110 154-137 174-36l-49 2c-2-19-15-32-35-32-30 0-35 28-38 64-6 74 65 87 74 30" id="ak"/><path fill="#316ccc" d="M85 4C-2 5 27-109 22-190h50c7 57-23 150 33 157 60-5 35-97 40-157h50l1 190h-47c-2-12 1-28-3-38-12 25-28 42-61 42" id="al"/><path fill="#316ccc" d="M135-194c53 0 70 44 70 98 0 56-19 98-73 100-31 1-45-17-59-34 3 33 2 69 2 105H25l-1-265h48c2 10 0 23 3 31 11-24 29-35 60-35zM114-30c33 0 39-31 40-66 0-38-9-64-40-64-56 0-55 130 0 130" id="am"/><path fill="#316ccc" d="M133-34C117-15 103 5 69 4 32 3 11-16 11-54c-1-60 55-63 116-61 1-26-3-47-28-47-18 1-26 9-28 27l-52-2c7-38 36-58 82-57s74 22 75 68l1 82c-1 14 12 18 25 15v27c-30 8-71 5-69-32zm-48 3c29 0 43-24 42-57-32 0-66-3-65 30 0 17 8 27 23 27" id="an"/><path fill="#316ccc" d="M115-3C79 11 28 4 28-45v-112H4v-33h27l15-45h31v45h36v33H77v99c-1 23 16 31 38 25v30" id="ao"/><path fill="#316ccc" d="M25-224v-37h50v37H25zM25 0v-190h50V0H25" id="ap"/><path fill="#316ccc" d="M110-194c64 0 96 36 96 99 0 64-35 99-97 99-61 0-95-36-95-99 0-62 34-99 96-99zm-1 164c35 0 45-28 45-65 0-40-10-65-43-65-34 0-45 26-45 65 0 36 10 65 43 65" id="aq"/><path fill="#316ccc" d="M135-194c87-1 58 113 63 194h-50c-7-57 23-157-34-157-59 0-34 97-39 157H25l-1-190h47c2 12-1 28 3 38 12-26 28-41 61-42" id="ar"/><path fill="#316ccc" d="M137-138c1-29-70-34-71-4 15 46 118 7 119 86 1 83-164 76-172 9l43-7c4 19 20 25 44 25 33 8 57-30 24-41C81-84 22-81 20-136c-2-80 154-74 161-7" id="as"/><g id="h"><use transform="matrix(0.05,0,0,0.05,0,0)" xlink:href="#aj"/><use transform="matrix(0.05,0,0,0.05,14,0)" xlink:href="#ak"/><use transform="matrix(0.05,0,0,0.05,24,0)" xlink:href="#ak"/><use transform="matrix(0.05,0,0,0.05,34,0)" xlink:href="#al"/><use transform="matrix(0.05,0,0,0.05,44.95,0)" xlink:href="#am"/><use transform="matrix(0.05,0,0,0.05,55.900000000000006,0)" xlink:href="#an"/><use transform="matrix(0.05,0,0,0.05,65.9,0)" xlink:href="#ao"/><use transform="matrix(0.05,0,0,0.05,71.85000000000001,0)" xlink:href="#ap"/><use transform="matrix(0.05,0,0,0.05,76.85000000000001,0)" xlink:href="#aq"/><use transform="matrix(0.05,0,0,0.05,87.80000000000001,0)" xlink:href="#ar"/><use transform="matrix(0.05,0,0,0.05,98.75000000000001,0)" xlink:href="#as"/><path fill="#316ccc" d="M-.9.97h110.55v1.9H-.9z"/></g><path fill="#316ccc" d="M186 0v-106H76V0H24v-248h52v99h110v-99h50V0h-50" id="at"/><path fill="#316ccc" d="M185-48c-13 30-37 53-82 52C43 2 14-33 14-96s30-98 90-98c62 0 83 45 84 108H66c0 31 8 55 39 56 18 0 30-7 34-22zm-45-69c5-46-57-63-70-21-2 6-4 13-4 21h74" id="au"/><path fill="#316ccc" d="M114-157C55-157 80-60 75 0H25v-261h50l-1 109c12-26 28-41 61-42 86-1 58 113 63 194h-50c-7-57 23-157-34-157" id="av"/><path fill="#316ccc" d="M135-150c-39-12-60 13-60 57V0H25l-1-190h47c2 13-1 29 3 40 6-28 27-53 61-41v41" id="aw"/><g id="i"><use transform="matrix(0.05,0,0,0.05,0,0)" xlink:href="#at"/><use transform="matrix(0.05,0,0,0.05,12.950000000000001,0)" xlink:href="#au"/><use transform="matrix(0.05,0,0,0.05,22.950000000000003,0)" xlink:href="#an"/><use transform="matrix(0.05,0,0,0.05,32.95,0)" xlink:href="#ai"/><use transform="matrix(0.05,0,0,0.05,37.95,0)" xlink:href="#ao"/><use transform="matrix(0.05,0,0,0.05,43.900000000000006,0)" xlink:href="#av"/><use transform="matrix(0.05,0,0,0.05,54.85,0)" xlink:href="#ak"/><use transform="matrix(0.05,0,0,0.05,64.85000000000001,0)" xlink:href="#an"/><use transform="matrix(0.05,0,0,0.05,74.85000000000001,0)" xlink:href="#aw"/><use transform="matrix(0.05,0,0,0.05,81.85000000000001,0)" xlink:href="#au"/><path fill="#316ccc" d="M-.9.97h98.65v1.9H-.9z"/></g><path fill="#316ccc" d="M24-248c93 1 206-16 204 79-1 75-69 88-152 82V0H24v-248zm52 121c47 0 100 7 100-41 0-47-54-39-100-39v80" id="ax"/><g id="j"><use transform="matrix(0.05,0,0,0.05,0,0)" xlink:href="#ax"/><use transform="matrix(0.05,0,0,0.05,12,0)" xlink:href="#aw"/><use transform="matrix(0.05,0,0,0.05,19,0)" xlink:href="#an"/><use transform="matrix(0.05,0,0,0.05,29,0)" xlink:href="#ak"/><use transform="matrix(0.05,0,0,0.05,39,0)" xlink:href="#ao"/><use transform="matrix(0.05,0,0,0.05,44.95,0)" xlink:href="#ap"/><use transform="matrix(0.05,0,0,0.05,49.95,0)" xlink:href="#ao"/><use transform="matrix(0.05,0,0,0.05,55.900000000000006,0)" xlink:href="#ap"/><use transform="matrix(0.05,0,0,0.05,60.900000000000006,0)" xlink:href="#aq"/><use transform="matrix(0.05,0,0,0.05,71.85000000000001,0)" xlink:href="#ar"/><use transform="matrix(0.05,0,0,0.05,82.80000000000001,0)" xlink:href="#au"/><use transform="matrix(0.05,0,0,0.05,92.80000000000001,0)" xlink:href="#aw"/><use transform="matrix(0.05,0,0,0.05,99.80000000000001,0)" xlink:href="#as"/><path fill="#316ccc" d="M-.9.97h116.6v1.9H-.9z"/></g><path fill="#316ccc" d="M88-194c31-1 46 15 58 34l-1-101h50l1 261h-48c-2-10 0-23-3-31C134-8 116 4 84 4 32 4 16-41 15-95c0-56 19-97 73-99zm17 164c33 0 40-30 41-66 1-37-9-64-41-64s-38 30-39 65c0 43 13 65 39 65" id="ay"/><g id="k"><use transform="matrix(0.05,0,0,0.05,0,0)" xlink:href="#an"/><use transform="matrix(0.05,0,0,0.05,10,0)" xlink:href="#ar"/><use transform="matrix(0.05,0,0,0.05,20.950000000000003,0)" xlink:href="#ay"/><path fill="#316ccc" d="M-.9.97h38.7v1.9H-.9z"/></g><path fill="#316ccc" d="M136-208V0H84v-208H4v-40h212v40h-80" id="az"/><g id="l"><use transform="matrix(0.05,0,0,0.05,0,0)" xlink:href="#az"/><use transform="matrix(0.05,0,0,0.05,9.600000000000001,0)" xlink:href="#au"/><use transform="matrix(0.05,0,0,0.05,19.6,0)" xlink:href="#ak"/><use transform="matrix(0.05,0,0,0.05,29.6,0)" xlink:href="#av"/><use transform="matrix(0.05,0,0,0.05,40.550000000000004,0)" xlink:href="#ar"/><use transform="matrix(0.05,0,0,0.05,51.5,0)" xlink:href="#ap"/><use transform="matrix(0.05,0,0,0.05,56.5,0)" xlink:href="#ak"/><use transform="matrix(0.05,0,0,0.05,66.5,0)" xlink:href="#an"/><use transform="matrix(0.05,0,0,0.05,76.5,0)" xlink:href="#ai"/><path fill="#316ccc" d="M-.9.97h88.3v1.9H-.9z"/></g><g id="m"><use transform="matrix(0.05,0,0,0.05,0,0)" xlink:href="#aj"/><use transform="matrix(0.05,0,0,0.05,14,0)" xlink:href="#ak"/><use transform="matrix(0.05,0,0,0.05,24,0)" xlink:href="#ak"/><use transform="matrix(0.05,0,0,0.05,34,0)" xlink:href="#al"/><use transform="matrix(0.05,0,0,0.05,44.95,0)" xlink:href="#am"/><use transform="matrix(0.05,0,0,0.05,55.900000000000006,0)" xlink:href="#an"/><use transform="matrix(0.05,0,0,0.05,65.9,0)" xlink:href="#ao"/><use transform="matrix(0.05,0,0,0.05,71.85000000000001,0)" xlink:href="#ap"/><use transform="matrix(0.05,0,0,0.05,76.85000000000001,0)" xlink:href="#aq"/><use transform="matrix(0.05,0,0,0.05,87.80000000000001,0)" xlink:href="#ar"/><use transform="matrix(0.05,0,0,0.05,98.75000000000001,0)" xlink:href="#as"/><path fill="#316ccc" d="M-.9.97h110.55v1.9H-.9z"/></g><g id="n"><use transform="matrix(0.05,0,0,0.05,0,0)" xlink:href="#at"/><use transform="matrix(0.05,0,0,0.05,12.950000000000001,0)" xlink:href="#au"/><use transform="matrix(0.05,0,0,0.05,22.950000000000003,0)" xlink:href="#an"/><use transform="matrix(0.05,0,0,0.05,32.95,0)" xlink:href="#ai"/><use transform="matrix(0.05,0,0,0.05,37.95,0)" xlink:href="#ao"/><use transform="matrix(0.05,0,0,0.05,43.900000000000006,0)" xlink:href="#av"/><path fill="#316ccc" d="M-.9.97h61.65v1.9H-.9z"/></g><path fill="#316ccc" d="M24-248c120-7 223 5 221 122C244-46 201 0 124 0H24v-248zM76-40c74 7 117-18 117-86 0-67-45-88-117-82v168" id="aA"/><path fill="#316ccc" d="M195-6C206 82 75 100 31 46c-4-6-6-13-8-21l49-6c3 16 16 24 34 25 40 0 42-37 40-79-11 22-30 35-61 35-53 0-70-43-70-97 0-56 18-96 73-97 30 0 46 14 59 34l2-30h47zm-90-29c32 0 41-27 41-63 0-35-9-62-40-62-32 0-39 29-40 63 0 36 9 62 39 62" id="aB"/><g id="o"><use transform="matrix(0.05,0,0,0.05,0,0)" xlink:href="#aA"/><use transform="matrix(0.05,0,0,0.05,12.950000000000001,0)" xlink:href="#ap"/><use transform="matrix(0.05,0,0,0.05,17.950000000000003,0)" xlink:href="#an"/><use transform="matrix(0.05,0,0,0.05,27.950000000000003,0)" xlink:href="#aB"/><use transform="matrix(0.05,0,0,0.05,38.900000000000006,0)" xlink:href="#ar"/><use transform="matrix(0.05,0,0,0.05,49.85000000000001,0)" xlink:href="#aq"/><use transform="matrix(0.05,0,0,0.05,60.80000000000001,0)" xlink:href="#as"/><use transform="matrix(0.05,0,0,0.05,70.80000000000001,0)" xlink:href="#ap"/><use transform="matrix(0.05,0,0,0.05,75.80000000000001,0)" xlink:href="#ar"/><use transform="matrix(0.05,0,0,0.05,86.75000000000001,0)" xlink:href="#aB"/><path fill="#316ccc" d="M-.9.97h104.5v1.9H-.9z"/></g><g id="p"><use transform="matrix(0.05,0,0,0.05,0,0)" xlink:href="#aq"/><use transform="matrix(0.05,0,0,0.05,10.950000000000001,0)" xlink:href="#aw"/><path fill="#316ccc" d="M-.9.97h24.75v1.9H-.9z"/></g><g id="q"><use transform="matrix(0.05,0,0,0.05,0,0)" xlink:href="#az"/><use transform="matrix(0.05,0,0,0.05,9.950000000000001,0)" xlink:href="#aw"/><use transform="matrix(0.05,0,0,0.05,16.950000000000003,0)" xlink:href="#au"/><use transform="matrix(0.05,0,0,0.05,26.950000000000003,0)" xlink:href="#an"/><use transform="matrix(0.05,0,0,0.05,36.95,0)" xlink:href="#ao"/><use transform="matrix(0.05,0,0,0.05,42.900000000000006,0)" xlink:href="#ap"/><use transform="matrix(0.05,0,0,0.05,47.900000000000006,0)" xlink:href="#ar"/><use transform="matrix(0.05,0,0,0.05,58.85,0)" xlink:href="#aB"/><path fill="#316ccc" d="M-.9.97h76.6v1.9H-.9z"/></g><g id="r"><use transform="matrix(0.05,0,0,0.05,0,0)" xlink:href="#ax"/><use transform="matrix(0.05,0,0,0.05,12,0)" xlink:href="#aw"/><use transform="matrix(0.05,0,0,0.05,19,0)" xlink:href="#an"/><use transform="matrix(0.05,0,0,0.05,29,0)" xlink:href="#ak"/><use transform="matrix(0.05,0,0,0.05,39,0)" xlink:href="#ao"/><use transform="matrix(0.05,0,0,0.05,44.95,0)" xlink:href="#ap"/><use transform="matrix(0.05,0,0,0.05,49.95,0)" xlink:href="#ao"/><use transform="matrix(0.05,0,0,0.05,55.900000000000006,0)" xlink:href="#ap"/><use transform="matrix(0.05,0,0,0.05,60.900000000000006,0)" xlink:href="#aq"/><use transform="matrix(0.05,0,0,0.05,71.85000000000001,0)" xlink:href="#ar"/><use transform="matrix(0.05,0,0,0.05,82.80000000000001,0)" xlink:href="#au"/><use transform="matrix(0.05,0,0,0.05,92.80000000000001,0)" xlink:href="#aw"/><use transform="matrix(0.05,0,0,0.05,99.80000000000001,0)" xlink:href="#as"/><path fill="#316ccc" d="M-.9.97h111.6v1.9H-.9z"/></g><g id="s"><use transform="matrix(0.05,0,0,0.05,0,0)" xlink:href="#aA"/><use transform="matrix(0.05,0,0,0.05,12.950000000000001,0)" xlink:href="#au"/><use transform="matrix(0.05,0,0,0.05,22.950000000000003,0)" xlink:href="#ar"/><use transform="matrix(0.05,0,0,0.05,33.900000000000006,0)" xlink:href="#ao"/><use transform="matrix(0.05,0,0,0.05,39.85000000000001,0)" xlink:href="#ap"/><use transform="matrix(0.05,0,0,0.05,44.85000000000001,0)" xlink:href="#as"/><use transform="matrix(0.05,0,0,0.05,54.85,0)" xlink:href="#ao"/><use transform="matrix(0.05,0,0,0.05,60.80000000000001,0)" xlink:href="#as"/><path fill="#316ccc" d="M-.9.97h72.6v1.9H-.9z"/></g><g id="t"><use transform="matrix(0.05,0,0,0.05,0,0)" xlink:href="#aj"/><use transform="matrix(0.05,0,0,0.05,14,0)" xlink:href="#aw"/><use transform="matrix(0.05,0,0,0.05,21,0)" xlink:href="#an"/><use transform="matrix(0.05,0,0,0.05,31,0)" xlink:href="#ai"/><path fill="#316ccc" d="M-.9.97h42.8v1.9H-.9z"/></g><g id="u"><use transform="matrix(0.05,0,0,0.05,0,0)" xlink:href="#an"/><use transform="matrix(0.05,0,0,0.05,10,0)" xlink:href="#ar"/><use transform="matrix(0.05,0,0,0.05,20.950000000000003,0)" xlink:href="#ay"/><path fill="#316ccc" d="M-.9.97h38.7v1.9H-.9z"/></g><path fill="#316ccc" d="M230 0l2-204L168 0h-37L68-204 70 0H24v-248h70l56 185 57-185h69V0h-46" id="aC"/><path fill="#316ccc" d="M144 0l-44-69L55 0H2l70-98-66-92h53l41 62 40-62h54l-67 91 71 99h-54" id="aD"/><path fill="#316ccc" d="M121-226c-27-7-43 5-38 36h38v33H83V0H34v-157H6v-33h28c-9-59 32-81 87-68v32" id="aE"/><g id="v"><use transform="matrix(0.05,0,0,0.05,0,0)" xlink:href="#aC"/><use transform="matrix(0.05,0,0,0.05,14.950000000000001,0)" xlink:href="#an"/><use transform="matrix(0.05,0,0,0.05,24.950000000000003,0)" xlink:href="#aD"/><use transform="matrix(0.05,0,0,0.05,34.95,0)" xlink:href="#ap"/><use transform="matrix(0.05,0,0,0.05,39.95,0)" xlink:href="#ai"/><use transform="matrix(0.05,0,0,0.05,44.95,0)" xlink:href="#ai"/><use transform="matrix(0.05,0,0,0.05,49.95,0)" xlink:href="#aq"/><use transform="matrix(0.05,0,0,0.05,60.900000000000006,0)" xlink:href="#aE"/><use transform="matrix(0.05,0,0,0.05,66.85000000000001,0)" xlink:href="#an"/><use transform="matrix(0.05,0,0,0.05,76.85000000000001,0)" xlink:href="#ak"/><use transform="matrix(0.05,0,0,0.05,86.85000000000001,0)" xlink:href="#ap"/><use transform="matrix(0.05,0,0,0.05,91.85000000000001,0)" xlink:href="#an"/><use transform="matrix(0.05,0,0,0.05,101.85000000000001,0)" xlink:href="#ai"/><path fill="#316ccc" d="M-.9.97h113.65v1.9H-.9z"/></g><path fill="#316ccc" d="M169-182c-1-43-94-46-97-3 18 66 151 10 154 114 3 95-165 93-204 36-6-8-10-19-12-30l50-8c3 46 112 56 116 5-17-69-150-10-154-114-4-87 153-88 188-35 5 8 8 18 10 28" id="aF"/><g id="w"><use transform="matrix(0.05,0,0,0.05,0,0)" xlink:href="#aF"/><use transform="matrix(0.05,0,0,0.05,12,0)" xlink:href="#al"/><use transform="matrix(0.05,0,0,0.05,22.950000000000003,0)" xlink:href="#aw"/><use transform="matrix(0.05,0,0,0.05,29.950000000000003,0)" xlink:href="#aB"/><use transform="matrix(0.05,0,0,0.05,40.900000000000006,0)" xlink:href="#au"/><use transform="matrix(0.05,0,0,0.05,50.900000000000006,0)" xlink:href="#aq"/><use transform="matrix(0.05,0,0,0.05,61.85,0)" xlink:href="#ar"/><use transform="matrix(0.05,0,0,0.05,72.80000000000001,0)" xlink:href="#as"/><path fill="#316ccc" d="M-.9.97h84.6v1.9H-.9z"/></g><path fill="#666" d="M199-173c-1 36-21 56-49 65l64 94 26 5v9h-57l-66-103H75v89l35 5v9H13v-9l28-5v-208l-31-4v-10c80 4 190-20 189 63zM75-119c50 2 89-1 89-51 0-49-39-52-89-50v101" id="aG"/><path fill="#666" d="M13-81c0-71 46-101 114-85l-1-72-28-4v-8h57v238c8 3 24-2 21 12h-47l-2-12C80 23 13-1 13-81zm77-74c-37 1-44 33-45 74 0 38 9 66 45 66 14 0 27-3 36-7v-130c-10-1-24-3-36-3" id="aH"/><g id="x"><use transform="matrix(0.07469135802469135,0,0,0.07469135802469135,0,0)" xlink:href="#aG"/><use transform="matrix(0.07469135802469135,0,0,0.07469135802469135,17.925925925925924,0)" xlink:href="#M"/><use transform="matrix(0.07469135802469135,0,0,0.07469135802469135,29.801851851851847,0)" xlink:href="#L"/><use transform="matrix(0.07469135802469135,0,0,0.07469135802469135,37.27098765432098,0)" xlink:href="#Q"/><use transform="matrix(0.07469135802469135,0,0,0.07469135802469135,49.1469135802469,0)" xlink:href="#U"/><use transform="matrix(0.07469135802469135,0,0,0.07469135802469135,56.61604938271603,0)" xlink:href="#M"/><use transform="matrix(0.07469135802469135,0,0,0.07469135802469135,68.49197530864195,0)" xlink:href="#aH"/></g><path fill="#666" d="M130-224c-62 0-78 43-78 106 0 64 16 108 78 108s78-45 78-108-16-106-78-106zm0 228C53 4 15-39 15-118c-1-80 37-120 115-120s115 42 115 120C245-39 207 4 130 4" id="aI"/><path fill="#666" d="M45-84c0 64 52 80 104 63 1 25-30 25-55 25-56 0-80-32-80-88 0-76 62-98 131-80v46h-10c-5-15-4-31-23-35-47-10-67 21-67 69" id="aJ"/><path fill="#666" d="M90-170c52 0 76 32 76 87 0 54-24 87-77 87-51 0-75-34-75-87 0-54 24-87 76-87zM89-10c39 0 46-35 46-73 0-39-7-73-46-73-39 1-44 34-44 73s6 72 44 73" id="aK"/><g id="y"><use transform="matrix(0.07469135802469135,0,0,0.07469135802469135,0,0)" xlink:href="#aI"/><use transform="matrix(0.07469135802469135,0,0,0.07469135802469135,19.34506172839506,0)" xlink:href="#aJ"/><use transform="matrix(0.07469135802469135,0,0,0.07469135802469135,31.220987654320982,0)" xlink:href="#aJ"/><use transform="matrix(0.07469135802469135,0,0,0.07469135802469135,43.096913580246905,0)" xlink:href="#O"/><use transform="matrix(0.07469135802469135,0,0,0.07469135802469135,56.54135802469135,0)" xlink:href="#T"/><use transform="matrix(0.07469135802469135,0,0,0.07469135802469135,69.98580246913579,0)" xlink:href="#Q"/><use transform="matrix(0.07469135802469135,0,0,0.07469135802469135,81.86172839506172,0)" xlink:href="#U"/><use transform="matrix(0.07469135802469135,0,0,0.07469135802469135,89.33086419753084,0)" xlink:href="#K"/><use transform="matrix(0.07469135802469135,0,0,0.07469135802469135,96.8,0)" xlink:href="#aK"/><use transform="matrix(0.07469135802469135,0,0,0.07469135802469135,110.24444444444444,0)" xlink:href="#R"/><use transform="matrix(0.07469135802469135,0,0,0.07469135802469135,123.68888888888888,0)" xlink:href="#Y"/></g><path fill="#666" d="M55 0v-9l38-5v-207c-22 1-53 0-70 4l-5 37H7v-56h207v56h-12l-5-37-70-3v206l37 5v9H55" id="aL"/><path fill="#666" d="M57-145c16-10 35-24 60-25v45c-19 1-8-30-40-17l-20 6v124l29 4v8H7v-8l21-4v-141c-8-3-24 2-21-12h48" id="aM"/><g id="z"><use transform="matrix(0.05,0,0,0.05,0,0)" xlink:href="#aL"/><use transform="matrix(0.05,0,0,0.05,10.3,0)" xlink:href="#aM"/><use transform="matrix(0.05,0,0,0.05,16.25,0)" xlink:href="#M"/><use transform="matrix(0.05,0,0,0.05,24.2,0)" xlink:href="#R"/><use transform="matrix(0.05,0,0,0.05,33.2,0)" xlink:href="#aH"/></g><path fill="#666" d="M75-17c87 13 134-18 134-103 0-78-51-106-134-100v203zm171-102C246 5 139 7 10 0v-9l31-5v-208l-31-4v-10h107c82 0 129 35 129 117" id="aN"/><g id="A"><use transform="matrix(0.08703703703703701,0,0,0.08703703703703701,0,0)" xlink:href="#aN"/><use transform="matrix(0.08703703703703701,0,0,0.08703703703703701,22.542592592592584,0)" xlink:href="#M"/><use transform="matrix(0.08703703703703701,0,0,0.08703703703703701,36.38148148148147,0)" xlink:href="#P"/><use transform="matrix(0.08703703703703701,0,0,0.08703703703703701,60.751851851851846,0)" xlink:href="#Q"/><use transform="matrix(0.08703703703703701,0,0,0.08703703703703701,74.59074074074073,0)" xlink:href="#R"/><use transform="matrix(0.08703703703703701,0,0,0.08703703703703701,90.25740740740738,0)" xlink:href="#aH"/><use transform="matrix(0.08703703703703701,0,0,0.08703703703703701,105.92407407407404,0)" xlink:href="#aa"/></g><path fill="#666" d="M111-111v75H92v-75H18v-17h74v-75h19v75h74v17h-74" id="aO"/><path fill="#666" d="M104-123c39 3 61 21 62 59C167 7 83 12 19-4l-2-50h12c2 29 16 43 51 43 38 0 54-19 54-55 2-43-34-49-75-50v-14c37 0 64-7 64-48 0-47-47-56-81-36l-6 29H24v-46c51-13 135-13 131 51-2 34-20 52-51 57" id="aP"/><path fill="#666" d="M142-52V0h-30v-52H7v-23l115-162h20v160h32v25h-32zm-30-25l-1-119L27-77h85" id="aQ"/><path fill="#666" d="M77 4H58l167-243h19zm-7-243c39 0 57 24 57 64 0 41-16 65-58 65-41 0-57-24-57-65s17-64 58-64zm-1 117c26 0 30-24 30-53 0-28-3-51-30-51s-29 24-29 51c0 28 2 53 29 53zm162-3c39 0 57 24 57 64 0 42-17 66-58 66-40 0-57-25-57-66s17-64 58-64zM230-8c26 0 30-24 30-53 0-28-3-51-30-51s-29 24-29 51c0 28 3 53 29 53" id="aR"/><g id="B"><use transform="matrix(0.08703703703703701,0,0,0.08703703703703701,0,0)" xlink:href="#aO"/><use transform="matrix(0.08703703703703701,0,0,0.08703703703703701,17.668518518518514,0)" xlink:href="#aP"/><use transform="matrix(0.08703703703703701,0,0,0.08703703703703701,33.335185185185175,0)" xlink:href="#aQ"/><use transform="matrix(0.08703703703703701,0,0,0.08703703703703701,49.00185185185184,0)" xlink:href="#aR"/></g><path fill="#666" d="M111-226l-36 4v207c33-1 73 2 101-4l11-49h11l-3 68H10v-9l31-5v-208l-31-4v-10h101v10" id="aS"/><g id="C"><use transform="matrix(0.05,0,0,0.05,0,0)" xlink:href="#aS"/><use transform="matrix(0.05,0,0,0.05,10.950000000000001,0)" xlink:href="#M"/><use transform="matrix(0.05,0,0,0.05,18.900000000000002,0)" xlink:href="#Q"/><use transform="matrix(0.05,0,0,0.05,26.85,0)" xlink:href="#aM"/><use transform="matrix(0.05,0,0,0.05,32.800000000000004,0)" xlink:href="#R"/></g><g id="D"><use transform="matrix(0.05,0,0,0.05,0,0)" xlink:href="#V"/><use transform="matrix(0.05,0,0,0.05,16,0)" xlink:href="#aK"/><use transform="matrix(0.05,0,0,0.05,25,0)" xlink:href="#aM"/><use transform="matrix(0.05,0,0,0.05,30.950000000000003,0)" xlink:href="#M"/></g><path fill="#666" d="M75-108c48 3 76-12 76-58s-28-57-76-54v112zm111-58c-1 60-46 78-111 74v78l37 5v9H13v-9l28-5v-208l-31-4v-10c81 1 178-14 176 70" id="aT"/><g id="E"><use transform="matrix(0.11172839506172831,0,0,0.11172839506172831,0,0)" xlink:href="#aT"/><use transform="matrix(0.11172839506172831,0,0,0.11172839506172831,22.345679012345663,0)" xlink:href="#aM"/><use transform="matrix(0.11172839506172831,0,0,0.11172839506172831,35.64135802469133,0)" xlink:href="#aK"/><use transform="matrix(0.11172839506172831,0,0,0.11172839506172831,55.75246913580243,0)" xlink:href="#Y"/><use transform="matrix(0.11172839506172831,0,0,0.11172839506172831,71.39444444444439,0)" xlink:href="#U"/><use transform="matrix(0.11172839506172831,0,0,0.11172839506172831,82.56728395061722,0)" xlink:href="#Z"/><use transform="matrix(0.11172839506172831,0,0,0.11172839506172831,102.67839506172832,0)" xlink:href="#aK"/><use transform="matrix(0.11172839506172831,0,0,0.11172839506172831,122.78950617283941,0)" xlink:href="#aH"/><use transform="matrix(0.11172839506172831,0,0,0.11172839506172831,142.9006172839505,0)" xlink:href="#aK"/><use transform="matrix(0.11172839506172831,0,0,0.11172839506172831,163.0117283950616,0)" xlink:href="#R"/><use transform="matrix(0.11172839506172831,0,0,0.11172839506172831,183.12283950617268,0)" xlink:href="#U"/><use transform="matrix(0.11172839506172831,0,0,0.11172839506172831,194.29567901234552,0)" xlink:href="#K"/><use transform="matrix(0.11172839506172831,0,0,0.11172839506172831,205.46851851851835,0)" xlink:href="#Y"/><use transform="matrix(0.11172839506172831,0,0,0.11172839506172831,221.11049382716033,0)" xlink:href="#U"/><use transform="matrix(0.11172839506172831,0,0,0.11172839506172831,232.28333333333316,0)" xlink:href="#Y"/></g><path fill="#666" d="M18-115v-9l167-82v18L43-120l142 69v18" id="aU"/><g id="F"><use transform="matrix(0.13641975308641957,0,0,0.13641975308641957,0,0)" xlink:href="#aU"/><use transform="matrix(0.13641975308641957,0,0,0.13641975308641957,27.693209876543172,0)" xlink:href="#aN"/><use transform="matrix(0.13641975308641957,0,0,0.13641975308641957,63.02592592592584,0)" xlink:href="#M"/><use transform="matrix(0.13641975308641957,0,0,0.13641975308641957,84.71666666666655,0)" xlink:href="#U"/><use transform="matrix(0.13641975308641957,0,0,0.13641975308641957,98.35864197530852,0)" xlink:href="#Q"/><use transform="matrix(0.13641975308641957,0,0,0.13641975308641957,120.04938271604922,0)" xlink:href="#K"/><use transform="matrix(0.13641975308641957,0,0,0.13641975308641957,133.69135802469117,0)" xlink:href="#L"/><use transform="matrix(0.13641975308641957,0,0,0.13641975308641957,147.33333333333312,0)" xlink:href="#M"/><use transform="matrix(0.13641975308641957,0,0,0.13641975308641957,169.02407407407384,0)" xlink:href="#aH"/></g><g id="G"><use transform="matrix(0.13641975308641957,0,0,0.13641975308641957,0,0)" xlink:href="#aI"/><use transform="matrix(0.13641975308641957,0,0,0.13641975308641957,35.33271604938267,0)" xlink:href="#aJ"/><use transform="matrix(0.13641975308641957,0,0,0.13641975308641957,57.023456790123376,0)" xlink:href="#aJ"/><use transform="matrix(0.13641975308641957,0,0,0.13641975308641957,78.71419753086408,0)" xlink:href="#O"/><use transform="matrix(0.13641975308641957,0,0,0.13641975308641957,103.2697530864196,0)" xlink:href="#T"/><use transform="matrix(0.13641975308641957,0,0,0.13641975308641957,127.82530864197511,0)" xlink:href="#Q"/><use transform="matrix(0.13641975308641957,0,0,0.13641975308641957,149.51604938271586,0)" xlink:href="#U"/><use transform="matrix(0.13641975308641957,0,0,0.13641975308641957,163.15802469135778,0)" xlink:href="#K"/><use transform="matrix(0.13641975308641957,0,0,0.13641975308641957,176.79999999999973,0)" xlink:href="#aK"/><use transform="matrix(0.13641975308641957,0,0,0.13641975308641957,201.35555555555524,0)" xlink:href="#R"/></g><path fill="#666" d="M18-33v-18l142-69-142-68v-18l168 82v9" id="aV"/><g id="H"><use transform="matrix(0.13641975308641957,0,0,0.13641975308641957,0,0)" xlink:href="#S"/><use transform="matrix(0.13641975308641957,0,0,0.13641975308641957,32.7407407407407,0)" xlink:href="#aK"/><use transform="matrix(0.13641975308641957,0,0,0.13641975308641957,57.29629629629622,0)" xlink:href="#R"/><use transform="matrix(0.13641975308641957,0,0,0.13641975308641957,81.85185185185173,0)" xlink:href="#U"/><use transform="matrix(0.13641975308641957,0,0,0.13641975308641957,95.4938271604937,0)" xlink:href="#M"/><use transform="matrix(0.13641975308641957,0,0,0.13641975308641957,117.1845679012344,0)" xlink:href="#R"/><use transform="matrix(0.13641975308641957,0,0,0.13641975308641957,141.74012345678992,0)" xlink:href="#U"/><use transform="matrix(0.13641975308641957,0,0,0.13641975308641957,155.38209876543186,0)" xlink:href="#aV"/></g></defs></g></svg>