<svg xmlns="http://www.w3.org/2000/svg" xmlns:xlink="http://www.w3.org/1999/xlink" contentStyleType="text/css" height="401px" preserveAspectRatio="none" style="width:722px;height:401px;background:#FFFFFF;" version="1.1" viewBox="0 0 722 401" width="722px" zoomAndPan="magnify"><defs/><g><rect fill="#FFFFFF" height="156.6211" style="stroke:#181818;stroke-width:1.0;" width="10" x="232" y="129.2871"/><rect fill="#FFFFFF" height="42" style="stroke:#181818;stroke-width:1.0;" width="10" x="359.5" y="158.5977"/><rect fill="#FFFFFF" height="14" style="stroke:#181818;stroke-width:1.0;" width="10" x="441" y="172.5977"/><rect fill="#FFFFFF" height="42" style="stroke:#181818;stroke-width:1.0;" width="10" x="562.5" y="229.9082"/><rect fill="#FFFFFF" height="14" style="stroke:#181818;stroke-width:1.0;" width="10" x="681.5" y="243.9082"/><line style="stroke:#181818;stroke-width:0.5;stroke-dasharray:5.0,5.0;" x1="54" x2="54" y1="97.9766" y2="303.9082"/><line style="stroke:#181818;stroke-width:0.5;stroke-dasharray:5.0,5.0;" x1="237" x2="237" y1="97.9766" y2="303.9082"/><line style="stroke:#181818;stroke-width:0.5;stroke-dasharray:5.0,5.0;" x1="364" x2="364" y1="97.9766" y2="303.9082"/><line style="stroke:#181818;stroke-width:0.5;stroke-dasharray:5.0,5.0;" x1="446" x2="446" y1="97.9766" y2="303.9082"/><line style="stroke:#181818;stroke-width:0.5;stroke-dasharray:5.0,5.0;" x1="567" x2="567" y1="97.9766" y2="303.9082"/><line style="stroke:#181818;stroke-width:0.5;stroke-dasharray:5.0,5.0;" x1="686" x2="686" y1="97.9766" y2="303.9082"/><text fill="#000000" font-family="sans-serif" font-size="14" lengthAdjust="spacing" textLength="92" x="5" y="95.0234">System Timer</text><ellipse cx="54" cy="29.9883" fill="#E2E2F0" rx="8" ry="8" style="stroke:#181818;stroke-width:0.5;"/><path d="M54,37.9883 L54,64.9883 M41,45.9883 L67,45.9883 M54,64.9883 L41,79.9883 M54,64.9883 L67,79.9883 " fill="none" style="stroke:#181818;stroke-width:0.5;"/><text fill="#000000" font-family="sans-serif" font-size="14" lengthAdjust="spacing" textLength="92" x="5" y="316.4434">System Timer</text><ellipse cx="54" cy="327.8965" fill="#E2E2F0" rx="8" ry="8" style="stroke:#181818;stroke-width:0.5;"/><path d="M54,335.8965 L54,362.8965 M41,343.8965 L67,343.8965 M54,362.8965 L41,377.8965 M54,362.8965 L67,377.8965 " fill="none" style="stroke:#181818;stroke-width:0.5;"/><rect fill="#E2E2F0" height="30.4883" rx="2.5" ry="2.5" style="stroke:#181818;stroke-width:0.5;" width="166" x="154" y="66.4883"/><text fill="#000000" font-family="sans-serif" font-size="14" lengthAdjust="spacing" textLength="152" x="161" y="87.0234">UnemploymentService</text><rect fill="#E2E2F0" height="30.4883" rx="2.5" ry="2.5" style="stroke:#181818;stroke-width:0.5;" width="166" x="154" y="302.9082"/><text fill="#000000" font-family="sans-serif" font-size="14" lengthAdjust="spacing" textLength="152" x="161" y="323.4434">UnemploymentService</text><text fill="#000000" font-family="sans-serif" font-size="14" lengthAdjust="spacing" textLength="63" x="330" y="95.0234">BLSClient</text><path d="M344,53.4883 L344,77.4883 M344,65.4883 L361,65.4883 " fill="none" style="stroke:#181818;stroke-width:0.5;"/><ellipse cx="373" cy="65.4883" fill="#E2E2F0" rx="12" ry="12" style="stroke:#181818;stroke-width:0.5;"/><text fill="#000000" font-family="sans-serif" font-size="14" lengthAdjust="spacing" textLength="63" x="330" y="316.4434">BLSClient</text><path d="M344,323.3965 L344,347.3965 M344,335.3965 L361,335.3965 " fill="none" style="stroke:#181818;stroke-width:0.5;"/><ellipse cx="373" cy="335.3965" fill="#E2E2F0" rx="12" ry="12" style="stroke:#181818;stroke-width:0.5;"/><text fill="#000000" font-family="sans-serif" font-size="14" lengthAdjust="spacing" textLength="68" x="409" y="78.5352">BLS Public</text><text fill="#000000" font-family="sans-serif" font-size="14" lengthAdjust="spacing" textLength="57" x="414.5" y="95.0234">Data API</text><ellipse cx="446" cy="13.5" fill="#E2E2F0" rx="8" ry="8" style="stroke:#181818;stroke-width:0.5;"/><path d="M446,21.5 L446,48.5 M433,29.5 L459,29.5 M446,48.5 L433,63.5 M446,48.5 L459,63.5 " fill="none" style="stroke:#181818;stroke-width:0.5;"/><text fill="#000000" font-family="sans-serif" font-size="14" lengthAdjust="spacing" textLength="68" x="409" y="316.4434">BLS Public</text><text fill="#000000" font-family="sans-serif" font-size="14" lengthAdjust="spacing" textLength="57" x="414.5" y="332.9316">Data API</text><ellipse cx="446" cy="344.3848" fill="#E2E2F0" rx="8" ry="8" style="stroke:#181818;stroke-width:0.5;"/><path d="M446,352.3848 L446,379.3848 M433,360.3848 L459,360.3848 M446,379.3848 L433,394.3848 M446,379.3848 L459,394.3848 " fill="none" style="stroke:#181818;stroke-width:0.5;"/><rect fill="#E2E2F0" height="30.4883" rx="2.5" ry="2.5" style="stroke:#181818;stroke-width:0.5;" width="149" x="493" y="66.4883"/><text fill="#000000" font-family="sans-serif" font-size="14" lengthAdjust="spacing" textLength="135" x="500" y="87.0234">UnemploymentDAO</text><rect fill="#E2E2F0" height="30.4883" rx="2.5" ry="2.5" style="stroke:#181818;stroke-width:0.5;" width="149" x="493" y="302.9082"/><text fill="#000000" font-family="sans-serif" font-size="14" lengthAdjust="spacing" textLength="135" x="500" y="323.4434">UnemploymentDAO</text><text fill="#000000" font-family="sans-serif" font-size="14" lengthAdjust="spacing" textLength="63" x="652" y="95.0234">Database</text><path d="M668.5,45.4883 C668.5,35.4883 686.5,35.4883 686.5,35.4883 C686.5,35.4883 704.5,35.4883 704.5,45.4883 L704.5,71.4883 C704.5,81.4883 686.5,81.4883 686.5,81.4883 C686.5,81.4883 668.5,81.4883 668.5,71.4883 L668.5,45.4883 " fill="#E2E2F0" style="stroke:#181818;stroke-width:1.5;"/><path d="M668.5,45.4883 C668.5,55.4883 686.5,55.4883 686.5,55.4883 C686.5,55.4883 704.5,55.4883 704.5,45.4883 " fill="none" style="stroke:#181818;stroke-width:1.5;"/><text fill="#000000" font-family="sans-serif" font-size="14" lengthAdjust="spacing" textLength="63" x="652" y="316.4434">Database</text><path d="M668.5,329.3965 C668.5,319.3965 686.5,319.3965 686.5,319.3965 C686.5,319.3965 704.5,319.3965 704.5,329.3965 L704.5,355.3965 C704.5,365.3965 686.5,365.3965 686.5,365.3965 C686.5,365.3965 668.5,365.3965 668.5,355.3965 L668.5,329.3965 " fill="#E2E2F0" style="stroke:#181818;stroke-width:1.5;"/><path d="M668.5,329.3965 C668.5,339.3965 686.5,339.3965 686.5,339.3965 C686.5,339.3965 704.5,339.3965 704.5,329.3965 " fill="none" style="stroke:#181818;stroke-width:1.5;"/><rect fill="#FFFFFF" height="156.6211" style="stroke:#181818;stroke-width:1.0;" width="10" x="232" y="129.2871"/><rect fill="#FFFFFF" height="42" style="stroke:#181818;stroke-width:1.0;" width="10" x="359.5" y="158.5977"/><rect fill="#FFFFFF" height="14" style="stroke:#181818;stroke-width:1.0;" width="10" x="441" y="172.5977"/><rect fill="#FFFFFF" height="42" style="stroke:#181818;stroke-width:1.0;" width="10" x="562.5" y="229.9082"/><rect fill="#FFFFFF" height="14" style="stroke:#181818;stroke-width:1.0;" width="10" x="681.5" y="243.9082"/><polygon fill="#181818" points="220,125.2871,230,129.2871,220,133.2871,224,129.2871" style="stroke:#181818;stroke-width:1.0;"/><line style="stroke:#181818;stroke-width:1.0;" x1="54" x2="226" y1="129.2871" y2="129.2871"/><text fill="#000000" font-family="sans-serif" font-size="13" lengthAdjust="spacing" textLength="159" x="61" y="124.5449">loadUnemploymentData()</text><polygon fill="#181818" points="347.5,154.5977,357.5,158.5977,347.5,162.5977,351.5,158.5977" style="stroke:#181818;stroke-width:1.0;"/><line style="stroke:#181818;stroke-width:1.0;" x1="242" x2="353.5" y1="158.5977" y2="158.5977"/><text fill="#000000" font-family="sans-serif" font-size="13" lengthAdjust="spacing" textLength="98" x="249" y="153.8555">fetchBLSSeries()</text><polygon fill="#181818" points="429,168.5977,439,172.5977,429,176.5977,433,172.5977" style="stroke:#181818;stroke-width:1.0;"/><line style="stroke:#181818;stroke-width:1.0;" x1="369.5" x2="435" y1="172.5977" y2="172.5977"/><polygon fill="#181818" points="380.5,182.5977,370.5,186.5977,380.5,190.5977,376.5,186.5977" style="stroke:#181818;stroke-width:1.0;"/><line style="stroke:#181818;stroke-width:1.0;stroke-dasharray:2.0,2.0;" x1="374.5" x2="445" y1="186.5977" y2="186.5977"/><polygon fill="#181818" points="253,196.5977,243,200.5977,253,204.5977,249,200.5977" style="stroke:#181818;stroke-width:1.0;"/><line style="stroke:#181818;stroke-width:1.0;stroke-dasharray:2.0,2.0;" x1="247" x2="363.5" y1="200.5977" y2="200.5977"/><polygon fill="#181818" points="550.5,225.9082,560.5,229.9082,550.5,233.9082,554.5,229.9082" style="stroke:#181818;stroke-width:1.0;"/><line style="stroke:#181818;stroke-width:1.0;" x1="242" x2="556.5" y1="229.9082" y2="229.9082"/><text fill="#000000" font-family="sans-serif" font-size="13" lengthAdjust="spacing" textLength="36" x="249" y="225.166">save()</text><polygon fill="#181818" points="669.5,239.9082,679.5,243.9082,669.5,247.9082,673.5,243.9082" style="stroke:#181818;stroke-width:1.0;"/><line style="stroke:#181818;stroke-width:1.0;" x1="572.5" x2="675.5" y1="243.9082" y2="243.9082"/><polygon fill="#181818" points="583.5,253.9082,573.5,257.9082,583.5,261.9082,579.5,257.9082" style="stroke:#181818;stroke-width:1.0;"/><line style="stroke:#181818;stroke-width:1.0;stroke-dasharray:2.0,2.0;" x1="577.5" x2="685.5" y1="257.9082" y2="257.9082"/><polygon fill="#181818" points="253,267.9082,243,271.9082,253,275.9082,249,271.9082" style="stroke:#181818;stroke-width:1.0;"/><line style="stroke:#181818;stroke-width:1.0;stroke-dasharray:2.0,2.0;" x1="247" x2="566.5" y1="271.9082" y2="271.9082"/><polygon fill="#181818" points="65,281.9082,55,285.9082,65,289.9082,61,285.9082" style="stroke:#181818;stroke-width:1.0;"/><line style="stroke:#181818;stroke-width:1.0;stroke-dasharray:2.0,2.0;" x1="59" x2="236" y1="285.9082" y2="285.9082"/><!--SRC=[TO_B2i9034Nt-OhGbIxy0HT2jHj1i53TkKcd4GVQcJAJ5lhtflM5ObTvt9l33NNYoOZjIHYz0z311qoA8GetUB8DXmGfeemTj1J46jkI4pmxRjhQ3mqxAJZqrZ2KldCLXG6tXs9NMrLUG5rWtfMrDHUNaH2c-Nu2gp2BpT8ZL6ekAJ9cpmPWoeAhpRy8kCRQK_L5qSF54lwPbV5EgfTN5dFJXSgMezvyn8SJ0aiNtAlC87zUK72addyYZ89wtrzzav_b3W00]--></g></svg>