<svg xmlns="http://www.w3.org/2000/svg" xmlns:xlink="http://www.w3.org/1999/xlink" contentStyleType="text/css" height="340px" preserveAspectRatio="none" style="width:804px;height:340px;background:#FFFFFF;" version="1.1" viewBox="0 0 804 340" width="804px" zoomAndPan="magnify"><defs/><g><rect fill="#FFFFFF" height="128.6211" style="stroke:#181818;stroke-width:1.0;" width="10" x="220.5" y="112.7988"/><rect fill="#FFFFFF" height="85.3105" style="stroke:#181818;stroke-width:1.0;" width="10" x="432.5" y="142.1094"/><rect fill="#FFFFFF" height="42" style="stroke:#181818;stroke-width:1.0;" width="10" x="644.5" y="171.4199"/><rect fill="#FFFFFF" height="14" style="stroke:#181818;stroke-width:1.0;" width="10" x="763.5" y="185.4199"/><line style="stroke:#181818;stroke-width:0.5;stroke-dasharray:5.0,5.0;" x1="18" x2="18" y1="81.4883" y2="259.4199"/><line style="stroke:#181818;stroke-width:0.5;stroke-dasharray:5.0,5.0;" x1="225.5" x2="225.5" y1="81.4883" y2="259.4199"/><line style="stroke:#181818;stroke-width:0.5;stroke-dasharray:5.0,5.0;" x1="437.5" x2="437.5" y1="81.4883" y2="259.4199"/><line style="stroke:#181818;stroke-width:0.5;stroke-dasharray:5.0,5.0;" x1="649" x2="649" y1="81.4883" y2="259.4199"/><line style="stroke:#181818;stroke-width:0.5;stroke-dasharray:5.0,5.0;" x1="768" x2="768" y1="81.4883" y2="259.4199"/><text fill="#000000" font-family="sans-serif" font-size="14" lengthAdjust="spacing" textLength="14" x="8.5" y="78.5352">UI</text><ellipse cx="18.5" cy="13.5" fill="#E2E2F0" rx="8" ry="8" style="stroke:#181818;stroke-width:0.5;"/><path d="M18.5,21.5 L18.5,48.5 M5.5,29.5 L31.5,29.5 M18.5,48.5 L5.5,63.5 M18.5,48.5 L31.5,63.5 " fill="none" style="stroke:#181818;stroke-width:0.5;"/><text fill="#000000" font-family="sans-serif" font-size="14" lengthAdjust="spacing" textLength="14" x="8.5" y="271.9551">UI</text><ellipse cx="18.5" cy="283.4082" fill="#E2E2F0" rx="8" ry="8" style="stroke:#181818;stroke-width:0.5;"/><path d="M18.5,291.4082 L18.5,318.4082 M5.5,299.4082 L31.5,299.4082 M18.5,318.4082 L5.5,333.4082 M18.5,318.4082 L31.5,333.4082 " fill="none" style="stroke:#181818;stroke-width:0.5;"/><text fill="#000000" font-family="sans-serif" font-size="14" lengthAdjust="spacing" textLength="174" x="135.5" y="78.5352">UnemploymentController</text><path d="M205,37 L205,61 M205,49 L222,49 " fill="none" style="stroke:#181818;stroke-width:0.5;"/><ellipse cx="234" cy="49" fill="#E2E2F0" rx="12" ry="12" style="stroke:#181818;stroke-width:0.5;"/><text fill="#000000" font-family="sans-serif" font-size="14" lengthAdjust="spacing" textLength="174" x="135.5" y="271.9551">UnemploymentController</text><path d="M205,278.9082 L205,302.9082 M205,290.9082 L222,290.9082 " fill="none" style="stroke:#181818;stroke-width:0.5;"/><ellipse cx="234" cy="290.9082" fill="#E2E2F0" rx="12" ry="12" style="stroke:#181818;stroke-width:0.5;"/><rect fill="#E2E2F0" height="30.4883" rx="2.5" ry="2.5" style="stroke:#181818;stroke-width:0.5;" width="166" x="354.5" y="50"/><text fill="#000000" font-family="sans-serif" font-size="14" lengthAdjust="spacing" textLength="152" x="361.5" y="70.5352">UnemploymentService</text><rect fill="#E2E2F0" height="30.4883" rx="2.5" ry="2.5" style="stroke:#181818;stroke-width:0.5;" width="166" x="354.5" y="258.4199"/><text fill="#000000" font-family="sans-serif" font-size="14" lengthAdjust="spacing" textLength="152" x="361.5" y="278.9551">UnemploymentService</text><rect fill="#E2E2F0" height="30.4883" rx="2.5" ry="2.5" style="stroke:#181818;stroke-width:0.5;" width="149" x="575" y="50"/><text fill="#000000" font-family="sans-serif" font-size="14" lengthAdjust="spacing" textLength="135" x="582" y="70.5352">UnemploymentDAO</text><rect fill="#E2E2F0" height="30.4883" rx="2.5" ry="2.5" style="stroke:#181818;stroke-width:0.5;" width="149" x="575" y="258.4199"/><text fill="#000000" font-family="sans-serif" font-size="14" lengthAdjust="spacing" textLength="135" x="582" y="278.9551">UnemploymentDAO</text><text fill="#000000" font-family="sans-serif" font-size="14" lengthAdjust="spacing" textLength="63" x="734" y="78.5352">Database</text><path d="M750.5,29 C750.5,19 768.5,19 768.5,19 C768.5,19 786.5,19 786.5,29 L786.5,55 C786.5,65 768.5,65 768.5,65 C768.5,65 750.5,65 750.5,55 L750.5,29 " fill="#E2E2F0" style="stroke:#181818;stroke-width:1.5;"/><path d="M750.5,29 C750.5,39 768.5,39 768.5,39 C768.5,39 786.5,39 786.5,29 " fill="none" style="stroke:#181818;stroke-width:1.5;"/><text fill="#000000" font-family="sans-serif" font-size="14" lengthAdjust="spacing" textLength="63" x="734" y="271.9551">Database</text><path d="M750.5,284.9082 C750.5,274.9082 768.5,274.9082 768.5,274.9082 C768.5,274.9082 786.5,274.9082 786.5,284.9082 L786.5,310.9082 C786.5,320.9082 768.5,320.9082 768.5,320.9082 C768.5,320.9082 750.5,320.9082 750.5,310.9082 L750.5,284.9082 " fill="#E2E2F0" style="stroke:#181818;stroke-width:1.5;"/><path d="M750.5,284.9082 C750.5,294.9082 768.5,294.9082 768.5,294.9082 C768.5,294.9082 786.5,294.9082 786.5,284.9082 " fill="none" style="stroke:#181818;stroke-width:1.5;"/><rect fill="#FFFFFF" height="128.6211" style="stroke:#181818;stroke-width:1.0;" width="10" x="220.5" y="112.7988"/><rect fill="#FFFFFF" height="85.3105" style="stroke:#181818;stroke-width:1.0;" width="10" x="432.5" y="142.1094"/><rect fill="#FFFFFF" height="42" style="stroke:#181818;stroke-width:1.0;" width="10" x="644.5" y="171.4199"/><rect fill="#FFFFFF" height="14" style="stroke:#181818;stroke-width:1.0;" width="10" x="763.5" y="185.4199"/><polygon fill="#181818" points="208.5,108.7988,218.5,112.7988,208.5,116.7988,212.5,112.7988" style="stroke:#181818;stroke-width:1.0;"/><line style="stroke:#181818;stroke-width:1.0;" x1="18.5" x2="214.5" y1="112.7988" y2="112.7988"/><text fill="#000000" font-family="sans-serif" font-size="13" lengthAdjust="spacing" textLength="183" x="25.5" y="108.0566">getUnemploymentBySocCode</text><polygon fill="#181818" points="420.5,138.1094,430.5,142.1094,420.5,146.1094,424.5,142.1094" style="stroke:#181818;stroke-width:1.0;"/><line style="stroke:#181818;stroke-width:1.0;" x1="230.5" x2="426.5" y1="142.1094" y2="142.1094"/><text fill="#000000" font-family="sans-serif" font-size="13" lengthAdjust="spacing" textLength="183" x="237.5" y="137.3672">getUnemploymentBySocCode</text><polygon fill="#181818" points="632.5,167.4199,642.5,171.4199,632.5,175.4199,636.5,171.4199" style="stroke:#181818;stroke-width:1.0;"/><line style="stroke:#181818;stroke-width:1.0;" x1="442.5" x2="638.5" y1="171.4199" y2="171.4199"/><text fill="#000000" font-family="sans-serif" font-size="13" lengthAdjust="spacing" textLength="183" x="449.5" y="166.6777">getUnemploymentBySocCode</text><polygon fill="#181818" points="751.5,181.4199,761.5,185.4199,751.5,189.4199,755.5,185.4199" style="stroke:#181818;stroke-width:1.0;"/><line style="stroke:#181818;stroke-width:1.0;" x1="654.5" x2="757.5" y1="185.4199" y2="185.4199"/><polygon fill="#181818" points="665.5,195.4199,655.5,199.4199,665.5,203.4199,661.5,199.4199" style="stroke:#181818;stroke-width:1.0;"/><line style="stroke:#181818;stroke-width:1.0;stroke-dasharray:2.0,2.0;" x1="659.5" x2="767.5" y1="199.4199" y2="199.4199"/><polygon fill="#181818" points="453.5,209.4199,443.5,213.4199,453.5,217.4199,449.5,213.4199" style="stroke:#181818;stroke-width:1.0;"/><line style="stroke:#181818;stroke-width:1.0;stroke-dasharray:2.0,2.0;" x1="447.5" x2="648.5" y1="213.4199" y2="213.4199"/><polygon fill="#181818" points="241.5,223.4199,231.5,227.4199,241.5,231.4199,237.5,227.4199" style="stroke:#181818;stroke-width:1.0;"/><line style="stroke:#181818;stroke-width:1.0;stroke-dasharray:2.0,2.0;" x1="235.5" x2="436.5" y1="227.4199" y2="227.4199"/><polygon fill="#181818" points="29.5,237.4199,19.5,241.4199,29.5,245.4199,25.5,241.4199" style="stroke:#181818;stroke-width:1.0;"/><line style="stroke:#181818;stroke-width:1.0;stroke-dasharray:2.0,2.0;" x1="23.5" x2="224.5" y1="241.4199" y2="241.4199"/><!--SRC=[ZOz12eD034NtEKKkq0jqKMXruweBcGF4CPG1JOOq2jvU2xQqKi5L4lxFomyDhXGzZUICAW3Be8QXWaO7QSac3C9zxdJgMRnGSTEkOuDCvYccJE8_bffjJ95tzV9wXvQS6deobci342eyNNPkuHaVxD_QRQer5jeox6niM6keew2tVKDPeXyblApBzkS_OnzC_fSP]--></g></svg>