<svg xmlns="http://www.w3.org/2000/svg" xmlns:xlink="http://www.w3.org/1999/xlink" contentStyleType="text/css" height="528px" preserveAspectRatio="none" style="width:793px;height:528px;background:#FFFFFF;" version="1.1" viewBox="0 0 793 528" width="793px" zoomAndPan="magnify"><defs/><g><rect fill="#FFFFFF" height="317.1738" style="stroke:#181818;stroke-width:1.0;" width="10" x="172.5" y="112.7988"/><rect fill="#FFFFFF" height="273.8633" style="stroke:#181818;stroke-width:1.0;" width="10" x="289.5" y="142.1094"/><rect fill="#FFFFFF" height="72.6211" style="stroke:#181818;stroke-width:1.0;" width="10" x="404.5" y="171.4199"/><rect fill="#FFFFFF" height="42" style="stroke:#181818;stroke-width:1.0;" width="10" x="404.5" y="359.9727"/><rect fill="#FFFFFF" height="29.3105" style="stroke:#181818;stroke-width:1.0;" width="10" x="493.5" y="185.4199"/><rect fill="#FFFFFF" height="14" style="stroke:#181818;stroke-width:1.0;" width="10" x="493.5" y="373.9727"/><rect fill="#FFFFFF" height="57.3105" style="stroke:#181818;stroke-width:1.0;" width="10" x="590.5" y="273.3516"/><rect fill="#FFFFFF" height="14" style="stroke:#181818;stroke-width:1.0;" width="10" x="763.5" y="302.6621"/><line style="stroke:#181818;stroke-width:0.5;stroke-dasharray:5.0,5.0;" x1="18" x2="18" y1="81.4883" y2="447.9727"/><line style="stroke:#181818;stroke-width:0.5;stroke-dasharray:5.0,5.0;" x1="177" x2="177" y1="81.4883" y2="447.9727"/><line style="stroke:#181818;stroke-width:0.5;stroke-dasharray:5.0,5.0;" x1="294" x2="294" y1="81.4883" y2="447.9727"/><line style="stroke:#181818;stroke-width:0.5;stroke-dasharray:5.0,5.0;" x1="409" x2="409" y1="81.4883" y2="447.9727"/><line style="stroke:#181818;stroke-width:0.5;stroke-dasharray:5.0,5.0;" x1="498" x2="498" y1="81.4883" y2="447.9727"/><line style="stroke:#181818;stroke-width:0.5;stroke-dasharray:5.0,5.0;" x1="595" x2="595" y1="81.4883" y2="447.9727"/><line style="stroke:#181818;stroke-width:0.5;stroke-dasharray:5.0,5.0;" x1="768.5" x2="768.5" y1="81.4883" y2="447.9727"/><text fill="#000000" font-family="sans-serif" font-size="14" lengthAdjust="spacing" textLength="14" x="8.5" y="78.5352">UI</text><ellipse cx="18.5" cy="13.5" fill="#E2E2F0" rx="8" ry="8" style="stroke:#181818;stroke-width:0.5;"/><path d="M18.5,21.5 L18.5,48.5 M5.5,29.5 L31.5,29.5 M18.5,48.5 L5.5,63.5 M18.5,48.5 L31.5,63.5 " fill="none" style="stroke:#181818;stroke-width:0.5;"/><text fill="#000000" font-family="sans-serif" font-size="14" lengthAdjust="spacing" textLength="14" x="8.5" y="460.5078">UI</text><ellipse cx="18.5" cy="471.9609" fill="#E2E2F0" rx="8" ry="8" style="stroke:#181818;stroke-width:0.5;"/><path d="M18.5,479.9609 L18.5,506.9609 M5.5,487.9609 L31.5,487.9609 M18.5,506.9609 L5.5,521.9609 M18.5,506.9609 L31.5,521.9609 " fill="none" style="stroke:#181818;stroke-width:0.5;"/><text fill="#000000" font-family="sans-serif" font-size="14" lengthAdjust="spacing" textLength="101" x="124" y="78.5352">UserController</text><path d="M157,37 L157,61 M157,49 L174,49 " fill="none" style="stroke:#181818;stroke-width:0.5;"/><ellipse cx="186" cy="49" fill="#E2E2F0" rx="12" ry="12" style="stroke:#181818;stroke-width:0.5;"/><text fill="#000000" font-family="sans-serif" font-size="14" lengthAdjust="spacing" textLength="101" x="124" y="460.5078">UserController</text><path d="M157,467.4609 L157,491.4609 M157,479.4609 L174,479.4609 " fill="none" style="stroke:#181818;stroke-width:0.5;"/><ellipse cx="186" cy="479.4609" fill="#E2E2F0" rx="12" ry="12" style="stroke:#181818;stroke-width:0.5;"/><rect fill="#E2E2F0" height="30.4883" rx="2.5" ry="2.5" style="stroke:#181818;stroke-width:0.5;" width="93" x="248" y="50"/><text fill="#000000" font-family="sans-serif" font-size="14" lengthAdjust="spacing" textLength="79" x="255" y="70.5352">UserService</text><rect fill="#E2E2F0" height="30.4883" rx="2.5" ry="2.5" style="stroke:#181818;stroke-width:0.5;" width="93" x="248" y="446.9727"/><text fill="#000000" font-family="sans-serif" font-size="14" lengthAdjust="spacing" textLength="79" x="255" y="467.5078">UserService</text><rect fill="#E2E2F0" height="30.4883" rx="2.5" ry="2.5" style="stroke:#181818;stroke-width:0.5;" width="89" x="365" y="50"/><text fill="#000000" font-family="sans-serif" font-size="14" lengthAdjust="spacing" textLength="75" x="372" y="70.5352">ProfileDAO</text><rect fill="#E2E2F0" height="30.4883" rx="2.5" ry="2.5" style="stroke:#181818;stroke-width:0.5;" width="89" x="365" y="446.9727"/><text fill="#000000" font-family="sans-serif" font-size="14" lengthAdjust="spacing" textLength="75" x="372" y="467.5078">ProfileDAO</text><text fill="#000000" font-family="sans-serif" font-size="14" lengthAdjust="spacing" textLength="63" x="464" y="78.5352">Database</text><path d="M480.5,29 C480.5,19 498.5,19 498.5,19 C498.5,19 516.5,19 516.5,29 L516.5,55 C516.5,65 498.5,65 498.5,65 C498.5,65 480.5,65 480.5,55 L480.5,29 " fill="#E2E2F0" style="stroke:#181818;stroke-width:1.5;"/><path d="M480.5,29 C480.5,39 498.5,39 498.5,39 C498.5,39 516.5,39 516.5,29 " fill="none" style="stroke:#181818;stroke-width:1.5;"/><text fill="#000000" font-family="sans-serif" font-size="14" lengthAdjust="spacing" textLength="63" x="464" y="460.5078">Database</text><path d="M480.5,473.4609 C480.5,463.4609 498.5,463.4609 498.5,463.4609 C498.5,463.4609 516.5,463.4609 516.5,473.4609 L516.5,499.4609 C516.5,509.4609 498.5,509.4609 498.5,509.4609 C498.5,509.4609 480.5,509.4609 480.5,499.4609 L480.5,473.4609 " fill="#E2E2F0" style="stroke:#181818;stroke-width:1.5;"/><path d="M480.5,473.4609 C480.5,483.4609 498.5,483.4609 498.5,483.4609 C498.5,483.4609 516.5,483.4609 516.5,473.4609 " fill="none" style="stroke:#181818;stroke-width:1.5;"/><text fill="#000000" font-family="sans-serif" font-size="14" lengthAdjust="spacing" textLength="99" x="543" y="78.5352">SpringSecurity</text><path d="M575,37 L575,61 M575,49 L592,49 " fill="none" style="stroke:#181818;stroke-width:0.5;"/><ellipse cx="604" cy="49" fill="#E2E2F0" rx="12" ry="12" style="stroke:#181818;stroke-width:0.5;"/><text fill="#000000" font-family="sans-serif" font-size="14" lengthAdjust="spacing" textLength="99" x="543" y="460.5078">SpringSecurity</text><path d="M575,467.4609 L575,491.4609 M575,479.4609 L592,479.4609 " fill="none" style="stroke:#181818;stroke-width:0.5;"/><ellipse cx="604" cy="479.4609" fill="#E2E2F0" rx="12" ry="12" style="stroke:#181818;stroke-width:0.5;"/><text fill="#000000" font-family="sans-serif" font-size="14" lengthAdjust="spacing" textLength="42" x="744.5" y="78.5352">Auth0</text><ellipse cx="768.5" cy="13.5" fill="#E2E2F0" rx="8" ry="8" style="stroke:#181818;stroke-width:0.5;"/><path d="M768.5,21.5 L768.5,48.5 M755.5,29.5 L781.5,29.5 M768.5,48.5 L755.5,63.5 M768.5,48.5 L781.5,63.5 " fill="none" style="stroke:#181818;stroke-width:0.5;"/><text fill="#000000" font-family="sans-serif" font-size="14" lengthAdjust="spacing" textLength="42" x="744.5" y="460.5078">Auth0</text><ellipse cx="768.5" cy="471.9609" fill="#E2E2F0" rx="8" ry="8" style="stroke:#181818;stroke-width:0.5;"/><path d="M768.5,479.9609 L768.5,506.9609 M755.5,487.9609 L781.5,487.9609 M768.5,506.9609 L755.5,521.9609 M768.5,506.9609 L781.5,521.9609 " fill="none" style="stroke:#181818;stroke-width:0.5;"/><rect fill="#FFFFFF" height="317.1738" style="stroke:#181818;stroke-width:1.0;" width="10" x="172.5" y="112.7988"/><rect fill="#FFFFFF" height="273.8633" style="stroke:#181818;stroke-width:1.0;" width="10" x="289.5" y="142.1094"/><rect fill="#FFFFFF" height="72.6211" style="stroke:#181818;stroke-width:1.0;" width="10" x="404.5" y="171.4199"/><rect fill="#FFFFFF" height="42" style="stroke:#181818;stroke-width:1.0;" width="10" x="404.5" y="359.9727"/><rect fill="#FFFFFF" height="29.3105" style="stroke:#181818;stroke-width:1.0;" width="10" x="493.5" y="185.4199"/><rect fill="#FFFFFF" height="14" style="stroke:#181818;stroke-width:1.0;" width="10" x="493.5" y="373.9727"/><rect fill="#FFFFFF" height="57.3105" style="stroke:#181818;stroke-width:1.0;" width="10" x="590.5" y="273.3516"/><rect fill="#FFFFFF" height="14" style="stroke:#181818;stroke-width:1.0;" width="10" x="763.5" y="302.6621"/><polygon fill="#181818" points="160.5,108.7988,170.5,112.7988,160.5,116.7988,164.5,112.7988" style="stroke:#181818;stroke-width:1.0;"/><line style="stroke:#181818;stroke-width:1.0;" x1="18.5" x2="166.5" y1="112.7988" y2="112.7988"/><text fill="#000000" font-family="sans-serif" font-size="13" lengthAdjust="spacing" textLength="135" x="25.5" y="108.0566">getCurrentUserProfile</text><polygon fill="#181818" points="277.5,138.1094,287.5,142.1094,277.5,146.1094,281.5,142.1094" style="stroke:#181818;stroke-width:1.0;"/><line style="stroke:#181818;stroke-width:1.0;" x1="182.5" x2="283.5" y1="142.1094" y2="142.1094"/><text fill="#000000" font-family="sans-serif" font-size="13" lengthAdjust="spacing" textLength="88" x="189.5" y="137.3672">getUserProfile</text><polygon fill="#181818" points="392.5,167.4199,402.5,171.4199,392.5,175.4199,396.5,171.4199" style="stroke:#181818;stroke-width:1.0;"/><line style="stroke:#181818;stroke-width:1.0;" x1="299.5" x2="398.5" y1="171.4199" y2="171.4199"/><text fill="#000000" font-family="sans-serif" font-size="13" lengthAdjust="spacing" textLength="86" x="306.5" y="166.6777">getProfileById</text><polygon fill="#181818" points="481.5,181.4199,491.5,185.4199,481.5,189.4199,485.5,185.4199" style="stroke:#181818;stroke-width:1.0;"/><line style="stroke:#181818;stroke-width:1.0;" x1="414.5" x2="487.5" y1="185.4199" y2="185.4199"/><polygon fill="#181818" points="425.5,210.7305,415.5,214.7305,425.5,218.7305,421.5,214.7305" style="stroke:#181818;stroke-width:1.0;"/><line style="stroke:#181818;stroke-width:1.0;stroke-dasharray:2.0,2.0;" x1="419.5" x2="497.5" y1="214.7305" y2="214.7305"/><text fill="#000000" font-family="sans-serif" font-size="13" lengthAdjust="spacing" textLength="24" x="431.5" y="209.9883">null</text><polygon fill="#181818" points="310.5,240.041,300.5,244.041,310.5,248.041,306.5,244.041" style="stroke:#181818;stroke-width:1.0;"/><line style="stroke:#181818;stroke-width:1.0;stroke-dasharray:2.0,2.0;" x1="304.5" x2="408.5" y1="244.041" y2="244.041"/><text fill="#000000" font-family="sans-serif" font-size="13" lengthAdjust="spacing" textLength="24" x="316.5" y="239.2988">null</text><polygon fill="#181818" points="578.5,269.3516,588.5,273.3516,578.5,277.3516,582.5,273.3516" style="stroke:#181818;stroke-width:1.0;"/><line style="stroke:#181818;stroke-width:1.0;" x1="299.5" x2="584.5" y1="273.3516" y2="273.3516"/><text fill="#000000" font-family="sans-serif" font-size="13" lengthAdjust="spacing" textLength="73" x="306.5" y="268.6094">getUserInfo</text><polygon fill="#181818" points="751.5,298.6621,761.5,302.6621,751.5,306.6621,755.5,302.6621" style="stroke:#181818;stroke-width:1.0;"/><line style="stroke:#181818;stroke-width:1.0;" x1="600.5" x2="757.5" y1="302.6621" y2="302.6621"/><text fill="#000000" font-family="sans-serif" font-size="13" lengthAdjust="spacing" textLength="144" x="607.5" y="297.9199">OIDC UserInfo Request</text><polygon fill="#181818" points="611.5,312.6621,601.5,316.6621,611.5,320.6621,607.5,316.6621" style="stroke:#181818;stroke-width:1.0;"/><line style="stroke:#181818;stroke-width:1.0;stroke-dasharray:2.0,2.0;" x1="605.5" x2="767.5" y1="316.6621" y2="316.6621"/><polygon fill="#181818" points="310.5,326.6621,300.5,330.6621,310.5,334.6621,306.5,330.6621" style="stroke:#181818;stroke-width:1.0;"/><line style="stroke:#181818;stroke-width:1.0;stroke-dasharray:2.0,2.0;" x1="304.5" x2="594.5" y1="330.6621" y2="330.6621"/><polygon fill="#181818" points="392.5,355.9727,402.5,359.9727,392.5,363.9727,396.5,359.9727" style="stroke:#181818;stroke-width:1.0;"/><line style="stroke:#181818;stroke-width:1.0;" x1="299.5" x2="398.5" y1="359.9727" y2="359.9727"/><text fill="#000000" font-family="sans-serif" font-size="13" lengthAdjust="spacing" textLength="28" x="306.5" y="355.2305">save</text><polygon fill="#181818" points="481.5,369.9727,491.5,373.9727,481.5,377.9727,485.5,373.9727" style="stroke:#181818;stroke-width:1.0;"/><line style="stroke:#181818;stroke-width:1.0;" x1="414.5" x2="487.5" y1="373.9727" y2="373.9727"/><polygon fill="#181818" points="425.5,383.9727,415.5,387.9727,425.5,391.9727,421.5,387.9727" style="stroke:#181818;stroke-width:1.0;"/><line style="stroke:#181818;stroke-width:1.0;stroke-dasharray:2.0,2.0;" x1="419.5" x2="497.5" y1="387.9727" y2="387.9727"/><polygon fill="#181818" points="310.5,397.9727,300.5,401.9727,310.5,405.9727,306.5,401.9727" style="stroke:#181818;stroke-width:1.0;"/><line style="stroke:#181818;stroke-width:1.0;stroke-dasharray:2.0,2.0;" x1="304.5" x2="408.5" y1="401.9727" y2="401.9727"/><polygon fill="#181818" points="193.5,411.9727,183.5,415.9727,193.5,419.9727,189.5,415.9727" style="stroke:#181818;stroke-width:1.0;"/><line style="stroke:#181818;stroke-width:1.0;stroke-dasharray:2.0,2.0;" x1="187.5" x2="293.5" y1="415.9727" y2="415.9727"/><polygon fill="#181818" points="29.5,425.9727,19.5,429.9727,29.5,433.9727,25.5,429.9727" style="stroke:#181818;stroke-width:1.0;"/><line style="stroke:#181818;stroke-width:1.0;stroke-dasharray:2.0,2.0;" x1="23.5" x2="176.5" y1="429.9727" y2="429.9727"/><!--SRC=[VOynRiCm34Ltde8NAD2vGu34NZIbYE43C3QJ2X0abwOC-FPH4pcEXI8JAVr7VdwA6gXJEv4o1W-G7a6mDN0EqVSaCxOZInMyId2E1GOIjPqToEjTQbWcs_7c_rl2nJgkzqVeIUbC8sETctLnCuZrruQxA5RdxBoF-lC9q1hys1NM-8LNrYgAiDS_ATj0WUN1VDXZgiGNCR7hiGyqlm-pwU55I-GpWh16yUYZSvk-sBmDk1vY_2L08IRy7ZrHHrDNk71uuj_8esQVfRpBCDB4xo__lzm0]--></g></svg>