<svg xmlns="http://www.w3.org/2000/svg" xmlns:xlink="http://www.w3.org/1999/xlink" xmlns:lucid="lucid" width="917" height="752"><g transform="translate(-274.83333333333303 122.66666666666663)" lucid:page-tab-id="0_0"><path d="M0-500h1500v1500H0z" fill="#fff"/><path d="M295.83-95.67a6 6 0 0 1 6-6h863a6 6 0 0 1 6 6v698a6 6 0 0 1-6 6h-863a6 6 0 0 1-6-6z" stroke="#282c33" stroke-width="2" fill="#fff"/><path d="M340.83-16a6 6 0 0 1 6-6H714.8a6 6 0 0 1 6 6v40.67a6 6 0 0 1-6 6H346.84a6 6 0 0 1-6-6z" fill="#fff" fill-opacity="0"/><use xlink:href="#a" transform="matrix(1,0,0,1,345.83333333333303,-17) translate(0 28.444444444444446)"/><use xlink:href="#b" transform="matrix(1,0,0,1,345.83333333333303,-17) translate(188.14814814814818 28.444444444444446)"/><path d="M970.9-10.67a6 6 0 0 1 6-6h136.36a6 6 0 0 1 6 6v30a6 6 0 0 1-6 6H976.9a6 6 0 0 1-6-6z" fill="#fff" fill-opacity="0"/><use xlink:href="#c" transform="matrix(1,0,0,1,975.8937269068269,-11.666666666666629) translate(0 21.333333333333332)"/><path d="M325.83 102.69a6 6 0 0 1 6-6.02h798a6 6 0 0 1 6 6v119.5a6 6 0 0 1-6 6h-798a6 6 0 0 1-6-6z" stroke="#000" stroke-opacity="0" stroke-width="2" fill="#fff" fill-opacity="0"/><use xlink:href="#d" transform="matrix(1,0,0,1,330.8333333333335,101.68509254303467) translate(7.275390625 19.951822916666668)"/><use xlink:href="#e" transform="matrix(1,0,0,1,330.8333333333335,101.68509254303467) translate(68.169921875 19.951822916666668)"/><use xlink:href="#f" transform="matrix(1,0,0,1,330.8333333333335,101.68509254303467) translate(126.90429687500001 19.951822916666668)"/><use xlink:href="#g" transform="matrix(1,0,0,1,330.8333333333335,101.68509254303467) translate(178.08268229166669 19.951822916666668)"/><use xlink:href="#h" transform="matrix(1,0,0,1,330.8333333333335,101.68509254303467) translate(203.14778645833337 19.951822916666668)"/><use xlink:href="#i" transform="matrix(1,0,0,1,330.8333333333335,101.68509254303467) translate(257.37955729166674 19.951822916666668)"/><use xlink:href="#j" transform="matrix(1,0,0,1,330.8333333333335,101.68509254303467) translate(364.84049479166674 19.951822916666668)"/><use xlink:href="#k" transform="matrix(1,0,0,1,330.8333333333335,101.68509254303467) translate(456.58789062500006 19.951822916666668)"/><use xlink:href="#l" transform="matrix(1,0,0,1,330.8333333333335,101.68509254303467) translate(492.51757812500006 19.951822916666668)"/><use xlink:href="#m" transform="matrix(1,0,0,1,330.8333333333335,101.68509254303467) translate(528.1829427083334 19.951822916666668)"/><use xlink:href="#n" transform="matrix(1,0,0,1,330.8333333333335,101.68509254303467) translate(555.7454427083334 19.951822916666668)"/><use xlink:href="#o" transform="matrix(1,0,0,1,330.8333333333335,101.68509254303467) translate(636.2272135416667 19.951822916666668)"/><use xlink:href="#p" transform="matrix(1,0,0,1,330.8333333333335,101.68509254303467) translate(705.8352864583334 19.951822916666668)"/><use xlink:href="#q" transform="matrix(1,0,0,1,330.8333333333335,101.68509254303467) translate(27.46875 45.372395833333336)"/><use xlink:href="#r" transform="matrix(1,0,0,1,330.8333333333335,101.68509254303467) translate(50.364583333333336 45.372395833333336)"/><use xlink:href="#s" transform="matrix(1,0,0,1,330.8333333333335,101.68509254303467) translate(110.74869791666669 45.372395833333336)"/><use xlink:href="#t" transform="matrix(1,0,0,1,330.8333333333335,101.68509254303467) translate(132.66015625000003 45.372395833333336)"/><use xlink:href="#u" transform="matrix(1,0,0,1,330.8333333333335,101.68509254303467) translate(193.93750000000003 45.372395833333336)"/><use xlink:href="#v" transform="matrix(1,0,0,1,330.8333333333335,101.68509254303467) translate(258.5963541666667 45.372395833333336)"/><use xlink:href="#w" transform="matrix(1,0,0,1,330.8333333333335,101.68509254303467) translate(321.5143229166667 45.372395833333336)"/><use xlink:href="#x" transform="matrix(1,0,0,1,330.8333333333335,101.68509254303467) translate(346.54296875 45.372395833333336)"/><use xlink:href="#y" transform="matrix(1,0,0,1,330.8333333333335,101.68509254303467) translate(395.40625 45.372395833333336)"/><use xlink:href="#z" transform="matrix(1,0,0,1,330.8333333333335,101.68509254303467) translate(422.0755208333333 45.372395833333336)"/><use xlink:href="#A" transform="matrix(1,0,0,1,330.8333333333335,101.68509254303467) translate(482.55078125 45.372395833333336)"/><use xlink:href="#B" transform="matrix(1,0,0,1,330.8333333333335,101.68509254303467) translate(555.72265625 45.372395833333336)"/><use xlink:href="#C" transform="matrix(1,0,0,1,330.8333333333335,101.68509254303467) translate(597.09375 45.372395833333336)"/><use xlink:href="#D" transform="matrix(1,0,0,1,330.8333333333335,101.68509254303467) translate(670.6848958333334 45.372395833333336)"/><use xlink:href="#E" transform="matrix(1,0,0,1,330.8333333333335,101.68509254303467) translate(47.652994791666686 70.79296875)"/><use xlink:href="#F" transform="matrix(1,0,0,1,330.8333333333335,101.68509254303467) translate(121.30794270833334 70.79296875)"/><use xlink:href="#G" transform="matrix(1,0,0,1,330.8333333333335,101.68509254303467) translate(185.21940104166669 70.79296875)"/><use xlink:href="#q" transform="matrix(1,0,0,1,330.8333333333335,101.68509254303467) translate(219.87304687500003 70.79296875)"/><use xlink:href="#H" transform="matrix(1,0,0,1,330.8333333333335,101.68509254303467) translate(242.76888020833337 70.79296875)"/><use xlink:href="#I" transform="matrix(1,0,0,1,330.8333333333335,101.68509254303467) translate(306.49804687500006 70.79296875)"/><use xlink:href="#J" transform="matrix(1,0,0,1,330.8333333333335,101.68509254303467) translate(331.22591145833337 70.79296875)"/><use xlink:href="#K" transform="matrix(1,0,0,1,330.8333333333335,101.68509254303467) translate(356.92903645833337 70.79296875)"/><use xlink:href="#L" transform="matrix(1,0,0,1,330.8333333333335,101.68509254303467) translate(450.65429687500006 70.79296875)"/><use xlink:href="#M" transform="matrix(1,0,0,1,330.8333333333335,101.68509254303467) translate(551.333984375 70.79296875)"/><use xlink:href="#N" transform="matrix(1,0,0,1,330.8333333333335,101.68509254303467) translate(594.8743489583335 70.79296875)"/><use xlink:href="#O" transform="matrix(1,0,0,1,330.8333333333335,101.68509254303467) translate(638.6243489583335 70.79296875)"/><use xlink:href="#f" transform="matrix(1,0,0,1,330.8333333333335,101.68509254303467) translate(684.990234375 70.79296875)"/><use xlink:href="#P" transform="matrix(1,0,0,1,330.8333333333335,101.68509254303467) translate(736.1686197916667 70.79296875)"/><use xlink:href="#Q" transform="matrix(1,0,0,1,330.8333333333335,101.68509254303467) translate(15.697265624999943 96.21354166666667)"/><use xlink:href="#R" transform="matrix(1,0,0,1,330.8333333333335,101.68509254303467) translate(141.6516927083333 96.21354166666667)"/><use xlink:href="#S" transform="matrix(1,0,0,1,330.8333333333335,101.68509254303467) translate(162.6790364583333 96.21354166666667)"/><use xlink:href="#T" transform="matrix(1,0,0,1,330.8333333333335,101.68509254303467) translate(249.80533854166663 96.21354166666667)"/><use xlink:href="#U" transform="matrix(1,0,0,1,330.8333333333335,101.68509254303467) translate(290.5110677083333 96.21354166666667)"/><use xlink:href="#V" transform="matrix(1,0,0,1,330.8333333333335,101.68509254303467) translate(334.115234375 96.21354166666667)"/><use xlink:href="#t" transform="matrix(1,0,0,1,330.8333333333335,101.68509254303467) translate(390.8352864583333 96.21354166666667)"/><use xlink:href="#W" transform="matrix(1,0,0,1,330.8333333333335,101.68509254303467) translate(452.1126302083333 96.21354166666667)"/><use xlink:href="#X" transform="matrix(1,0,0,1,330.8333333333335,101.68509254303467) translate(478.89127604166663 96.21354166666667)"/><use xlink:href="#Y" transform="matrix(1,0,0,1,330.8333333333335,101.68509254303467) translate(533.4420572916667 96.21354166666667)"/><use xlink:href="#Z" transform="matrix(1,0,0,1,330.8333333333335,101.68509254303467) translate(581.029296875 96.21354166666667)"/><use xlink:href="#aa" transform="matrix(1,0,0,1,330.8333333333335,101.68509254303467) translate(661.0553385416667 96.21354166666667)"/><use xlink:href="#ab" transform="matrix(1,0,0,1,330.8333333333335,101.68509254303467) translate(752.6295572916667 96.21354166666667)"/><use xlink:href="#ac" transform="matrix(1,0,0,1,330.8333333333335,101.68509254303467) translate(35.16601562500006 121.63411458333334)"/><use xlink:href="#ad" transform="matrix(1,0,0,1,330.8333333333335,101.68509254303467) translate(115.77539062500006 121.63411458333334)"/><use xlink:href="#ae" transform="matrix(1,0,0,1,330.8333333333335,101.68509254303467) translate(202.50976562500006 121.63411458333334)"/><use xlink:href="#af" transform="matrix(1,0,0,1,330.8333333333335,101.68509254303467) translate(241.54752604166674 121.63411458333334)"/><use xlink:href="#ag" transform="matrix(1,0,0,1,330.8333333333335,101.68509254303467) translate(325.61132812500006 121.63411458333334)"/><use xlink:href="#R" transform="matrix(1,0,0,1,330.8333333333335,101.68509254303467) translate(368.86914062500006 121.63411458333334)"/><use xlink:href="#ah" transform="matrix(1,0,0,1,330.8333333333335,101.68509254303467) translate(389.89648437500006 121.63411458333334)"/><use xlink:href="#ai" transform="matrix(1,0,0,1,330.8333333333335,101.68509254303467) translate(441.63085937500006 121.63411458333334)"/><use xlink:href="#aj" transform="matrix(1,0,0,1,330.8333333333335,101.68509254303467) translate(474.09700520833337 121.63411458333334)"/><use xlink:href="#ak" transform="matrix(1,0,0,1,330.8333333333335,101.68509254303467) translate(531.5826822916667 121.63411458333334)"/><use xlink:href="#al" transform="matrix(1,0,0,1,330.8333333333335,101.68509254303467) translate(614.8444010416667 121.63411458333334)"/><use xlink:href="#am" transform="matrix(1,0,0,1,330.8333333333335,101.68509254303467) translate(669.0852864583333 121.63411458333334)"/><use xlink:href="#an" transform="matrix(1,0,0,1,330.8333333333335,101.68509254303467) translate(717.857421875 121.63411458333334)"/><use xlink:href="#ao" transform="matrix(1,0,0,1,330.8333333333335,101.68509254303467) translate(738.8665364583333 121.63411458333334)"/><use xlink:href="#ap" transform="matrix(1,0,0,1,330.8333333333335,101.68509254303467) translate(360.3880208333333 147.0546875)"/><path d="M340.83 339.3a6 6 0 0 1 6-6h269.65a6 6 0 0 1 6 6v62a6 6 0 0 1-6 6H346.83a6 6 0 0 1-6-6z" fill="#fff" fill-opacity="0"/><g><use xlink:href="#aq" transform="matrix(1,0,0,1,345.8333333333326,338.29648158059797) translate(0 21.333333333333332)"/><use xlink:href="#ar" transform="matrix(1,0,0,1,345.8333333333326,338.29648158059797) translate(96.74074074074073 21.333333333333332)"/><use xlink:href="#as" transform="matrix(1,0,0,1,345.8333333333326,338.29648158059797) translate(153.7037037037037 21.333333333333332)"/></g><path d="M340.83 399.08a6 6 0 0 1 6-6h269.65a6 6 0 0 1 6 6v62a6 6 0 0 1-6 6H346.83a6 6 0 0 1-6-6z" fill="#fff" fill-opacity="0"/><g><use xlink:href="#aq" transform="matrix(1,0,0,1,345.8333333333326,398.08333333333337) translate(0 21.333333333333332)"/><use xlink:href="#ar" transform="matrix(1,0,0,1,345.8333333333326,398.08333333333337) translate(96.74074074074073 21.333333333333332)"/><use xlink:href="#at" transform="matrix(1,0,0,1,345.8333333333326,398.08333333333337) translate(153.7037037037037 21.333333333333332)"/></g><path d="M352.83 523.33c-6.62 0-12 5.38-12 12v16c0 6.63 5.38 12 12 12h136c6.63 0 12-5.37 12-12v-16c0-6.62-5.37-12-12-12z" stroke="#282c33" stroke-width="2" fill="#fff"/><g><use xlink:href="#au" transform="matrix(1,0,0,1,350.83333333333303,527.3333333333334) translate(47.22222222222222 20.444444444444443)"/></g><defs><path fill="#3a414a" d="M52-115c0 93 80 130 150 87l7-35h11l-1 55c-23 7-52 12-83 12C60 4 19-37 15-115c-5-113 97-141 201-114l1 51h-12l-5-30c-15-9-39-16-62-16-66 0-86 41-86 109" id="av"/><path fill="#3a414a" d="M84-170c49 0 66 33 63 87H46c-8 60 38 80 95 63v10C128-2 108 4 88 4 34 4 14-29 14-84c-1-54 22-86 70-86zm33 73c12-57-57-82-69-24-1 7-2 15-2 24h71" id="aw"/><path fill="#3a414a" d="M57-145c16-10 35-24 60-25v45c-19 1-8-30-40-17l-20 6v124l29 4v8H7v-8l21-4v-141c-8-3-24 2-21-12h48" id="ax"/><path fill="#3a414a" d="M54-38c-1 25 24 26 44 20v12C71 10 25 9 25-35v-115H4c-2-14 14-10 21-15l18-38h11v38h38v15H54v112" id="ay"/><path fill="#3a414a" d="M47-200c-23 0-25-39 0-38 13 0 18 7 20 19-1 11-8 19-20 19zM65-12l28 4v8H8v-8l28-4v-141l-24-4v-8h53v153" id="az"/><path fill="#3a414a" d="M103-236c-39-15-35 32-34 71h44v15H69v136l35 6v8H15v-8l25-6v-136H11v-9l29-7c-6-59 23-100 80-84v36c-15 2-12-14-17-22" id="aA"/><path fill="#3a414a" d="M45-84c0 64 52 80 104 63 1 25-30 25-55 25-56 0-80-32-80-88 0-76 62-98 131-80v46h-10c-5-15-4-31-23-35-47-10-67 21-67 69" id="aB"/><path fill="#3a414a" d="M32-163c41-10 102-14 102 39v112c8 3 24-2 21 12h-45l-4-17C83 13 3 13 13-46c-2-50 45-50 92-51 4-36-5-70-42-56-6 2-12 4-16 6-4 7 0 23-15 20v-36zM42-47c0 41 41 33 63 22v-59c-34 1-63-1-63 37" id="aC"/><path fill="#3a414a" d="M90-170c52 0 76 32 76 87 0 54-24 87-77 87-51 0-75-34-75-87 0-54 24-87 76-87zM89-10c39 0 46-35 46-73 0-39-7-73-46-73-39 1-44 34-44 73s6 72 44 73" id="aD"/><path fill="#3a414a" d="M125-118c4-37-41-34-68-26v132l23 4v8H8C5-13 21-9 28-12v-141c-7-3-23 1-20-12h47l2 13c31-23 98-29 98 31v109c7 3 23-1 20 12h-72v-8l22-4v-106" id="aE"/><g id="a"><use transform="matrix(0.09876543209876544,0,0,0.09876543209876544,0,0)" xlink:href="#av"/><use transform="matrix(0.09876543209876544,0,0,0.09876543209876544,23.703703703703706,0)" xlink:href="#aw"/><use transform="matrix(0.09876543209876544,0,0,0.09876543209876544,39.40740740740741,0)" xlink:href="#ax"/><use transform="matrix(0.09876543209876544,0,0,0.09876543209876544,51.1604938271605,0)" xlink:href="#ay"/><use transform="matrix(0.09876543209876544,0,0,0.09876543209876544,61.037037037037045,0)" xlink:href="#az"/><use transform="matrix(0.09876543209876544,0,0,0.09876543209876544,70.9135802469136,0)" xlink:href="#aA"/><use transform="matrix(0.09876543209876544,0,0,0.09876543209876544,82.66666666666669,0)" xlink:href="#az"/><use transform="matrix(0.09876543209876544,0,0,0.09876543209876544,92.54320987654323,0)" xlink:href="#aB"/><use transform="matrix(0.09876543209876544,0,0,0.09876543209876544,108.24691358024694,0)" xlink:href="#aC"/><use transform="matrix(0.09876543209876544,0,0,0.09876543209876544,123.95061728395065,0)" xlink:href="#ay"/><use transform="matrix(0.09876543209876544,0,0,0.09876543209876544,133.8271604938272,0)" xlink:href="#az"/><use transform="matrix(0.09876543209876544,0,0,0.09876543209876544,143.70370370370375,0)" xlink:href="#aD"/><use transform="matrix(0.09876543209876544,0,0,0.09876543209876544,161.48148148148152,0)" xlink:href="#aE"/></g><path fill="#3a414a" d="M81-9v9H4v-9l26-5 81-224h33l83 224 30 5v9h-99v-9l31-5-23-68H73L49-14zm38-203L78-98h82" id="aF"/><use transform="matrix(0.09876543209876544,0,0,0.09876543209876544,0,0)" xlink:href="#aF" id="b"/><path fill="#3a414a" d="M130-224c-62 0-78 43-78 106 0 64 16 108 78 108s78-45 78-108-16-106-78-106zm0 228C53 4 15-39 15-118c-1-80 37-120 115-120s115 42 115 120C245-39 207 4 130 4" id="aG"/><path fill="#3a414a" d="M141-152c28 39 5 97-54 97-9 0-20-2-27-3L49-35c29 22 130-14 124 52-4 45-38 57-88 61C21 83-8 26 45-2 33-6 22-15 21-31l28-31c-19-9-28-26-28-51-2-51 53-65 100-52l38-20 7 8zM85 64c35 0 61-11 61-42 0-35-57-17-89-21-9 8-16 19-17 34 0 25 19 29 45 29zM52-113c1 26 7 46 35 44 28-1 34-16 35-44 0-26-6-43-34-43s-36 17-36 43" id="aH"/><path fill="#3a414a" d="M10 0v-8l90-143c-23 2-54-4-70 6-5 8 1 26-14 24v-44h122v8L47-14c29-2 65 3 86-8l9-35h8l-5 57H10" id="aI"/><g id="c"><use transform="matrix(0.07407407407407407,0,0,0.07407407407407407,0,0)" xlink:href="#aG"/><use transform="matrix(0.07407407407407407,0,0,0.07407407407407407,19.185185185185183,0)" xlink:href="#ax"/><use transform="matrix(0.07407407407407407,0,0,0.07407407407407407,27.48148148148148,0)" xlink:href="#aH"/><use transform="matrix(0.07407407407407407,0,0,0.07407407407407407,40.81481481481481,0)" xlink:href="#aC"/><use transform="matrix(0.07407407407407407,0,0,0.07407407407407407,52.59259259259259,0)" xlink:href="#aE"/><use transform="matrix(0.07407407407407407,0,0,0.07407407407407407,65.92592592592592,0)" xlink:href="#az"/><use transform="matrix(0.07407407407407407,0,0,0.07407407407407407,73.33333333333333,0)" xlink:href="#aI"/><use transform="matrix(0.07407407407407407,0,0,0.07407407407407407,85.1111111111111,0)" xlink:href="#aC"/><use transform="matrix(0.07407407407407407,0,0,0.07407407407407407,96.88888888888887,0)" xlink:href="#ay"/><use transform="matrix(0.07407407407407407,0,0,0.07407407407407407,104.29629629629628,0)" xlink:href="#az"/><use transform="matrix(0.07407407407407407,0,0,0.07407407407407407,111.70370370370368,0)" xlink:href="#aD"/><use transform="matrix(0.07407407407407407,0,0,0.07407407407407407,125.03703703703701,0)" xlink:href="#aE"/></g><path d="M201 0v-1462h170v1308h645V0H201" id="aJ"/><path d="M621-1116c316 0 501 239 501 567 0 339-180 575-508 569S119-212 115-549c-4-339 178-567 506-567zm-5 141c-239 0-329 168-329 426 0 255 93 430 331 430s332-174 332-430-95-426-334-426" id="aK"/><path d="M340-893c80-153 237-262 467-211l-23 154c-45-10-85-15-120-15-184-3-322 182-322 377V0H176v-1096h137l19 203h8" id="aL"/><path d="M995-51C878-2 799 19 639 20c-329 2-524-221-524-559 0-326 172-577 481-577 278 0 451 210 446 493v105H287c4 242 121 392 358 393 118 0 235-25 350-74v148zM864-653c2-195-85-324-270-324-190 0-288 139-303 324h573" id="aM"/><path d="M1368-1116c259 2 372 131 371 401V0h-166v-713c0-168-66-262-230-262-221 0-303 131-303 363V0H874v-713c-1-169-66-262-231-262-235 0-301 142-301 400V0H176v-1096h135l27 150h8c56-99 174-170 324-170 171 0 283 62 336 186h8c60-108 189-187 354-186" id="aN"/><g id="d"><use transform="matrix(0.009114583333333334,0,0,0.009114583333333334,0,0)" xlink:href="#aJ"/><use transform="matrix(0.009114583333333334,0,0,0.009114583333333334,9.688802083333334,0)" xlink:href="#aK"/><use transform="matrix(0.009114583333333334,0,0,0.009114583333333334,20.963541666666668,0)" xlink:href="#aL"/><use transform="matrix(0.009114583333333334,0,0,0.009114583333333334,28.209635416666668,0)" xlink:href="#aM"/><use transform="matrix(0.009114583333333334,0,0,0.009114583333333334,38.68229166666667,0)" xlink:href="#aN"/></g><path d="M342 0H176v-1096h166V0zm-82-1282c-61 0-98-43-98-111 0-69 36-110 98-110 59 0 98 43 98 110s-39 111-98 111" id="aO"/><path d="M1141-549c0 329-147 569-455 569-159 0-273-61-344-161h-12c23 199 7 418 12 633H176v-1588h135l23 150h8c77-108 175-170 344-170 311 0 455 237 455 567zm-172-2c0-242-88-424-307-424-256 0-323 154-320 426 3 280 68 430 324 430 213 0 303-196 303-432" id="aP"/><path d="M502-977c-130 0-238 32-238 139 0 75 39 101 95 134 33 19 97 46 192 81 130 48 217 95 263 143s69 108 69 181C883-73 695 20 449 20 304 20 190-3 109-49v-154c91 47 216 86 344 86 149 0 270-36 270-168 0-43-21-76-55-109-56-55-367-158-434-208-74-55-128-109-128-225 0-327 490-342 754-217l-59 135c-110-45-210-68-299-68" id="aQ"/><path d="M563 20c-271 0-399-123-399-399v-717h168v711c1 177 76 266 252 266 250 0 331-135 331-401v-576h166V0H944l-24-147h-9C848-44 724 20 563 20" id="aR"/><g id="e"><use transform="matrix(0.009114583333333334,0,0,0.009114583333333334,0,0)" xlink:href="#aO"/><use transform="matrix(0.009114583333333334,0,0,0.009114583333333334,4.721354166666667,0)" xlink:href="#aP"/><use transform="matrix(0.009114583333333334,0,0,0.009114583333333334,16.16015625,0)" xlink:href="#aQ"/><use transform="matrix(0.009114583333333334,0,0,0.009114583333333334,25.065104166666668,0)" xlink:href="#aR"/><use transform="matrix(0.009114583333333334,0,0,0.009114583333333334,36.52213541666667,0)" xlink:href="#aN"/></g><path d="M115-545c0-330 146-571 454-571 149 0 263 54 342 162h13c-20-185-8-401-11-602h166V0H944l-22-147h-9C836-36 722 20 569 20c-309 0-454-234-454-565zm172 2c0 249 78 424 303 424 257 0 327-150 323-426-4-282-68-432-325-432-220 0-301 191-301 434" id="aS"/><path d="M342 0H176v-1556h166V0" id="aT"/><g id="f"><use transform="matrix(0.009114583333333334,0,0,0.009114583333333334,0,0)" xlink:href="#aS"/><use transform="matrix(0.009114583333333334,0,0,0.009114583333333334,11.438802083333334,0)" xlink:href="#aK"/><use transform="matrix(0.009114583333333334,0,0,0.009114583333333334,22.713541666666668,0)" xlink:href="#aT"/><use transform="matrix(0.009114583333333334,0,0,0.009114583333333334,27.434895833333336,0)" xlink:href="#aK"/><use transform="matrix(0.009114583333333334,0,0,0.009114583333333334,38.70963541666667,0)" xlink:href="#aL"/></g><path d="M354-322c-2 123 60 204 176 205 51 1 114-10 150-20v127C647 7 557 20 506 20 294 20 188-92 188-315v-652H31v-80l157-69 70-234h96v254h318v129H354v645" id="aU"/><g id="g"><use transform="matrix(0.009114583333333334,0,0,0.009114583333333334,0,0)" xlink:href="#aQ"/><use transform="matrix(0.009114583333333334,0,0,0.009114583333333334,8.904947916666668,0)" xlink:href="#aO"/><use transform="matrix(0.009114583333333334,0,0,0.009114583333333334,13.626302083333336,0)" xlink:href="#aU"/></g><path d="M588-1114c260 0 384 106 385 366V0H850l-33-156h-8C708-34 639 17 442 20 231 23 94-94 94-303c0-221 177-337 531-348l186-6c11-203-40-320-233-320-91 0-195 28-310 84l-51-127c97-53 229-94 371-94zM268-301c-1 123 81 184 207 184 203 0 334-120 332-323v-99c-257 14-539-7-539 238" id="aV"/><path d="M63 264c30-115 88-378 105-502h182l15 23C327-69 250 132 188 264H63" id="aW"/><g id="h"><use transform="matrix(0.009114583333333334,0,0,0.009114583333333334,0,0)" xlink:href="#aV"/><use transform="matrix(0.009114583333333334,0,0,0.009114583333333334,10.381510416666668,0)" xlink:href="#aN"/><use transform="matrix(0.009114583333333334,0,0,0.009114583333333334,27.744791666666668,0)" xlink:href="#aM"/><use transform="matrix(0.009114583333333334,0,0,0.009114583333333334,38.21744791666667,0)" xlink:href="#aU"/><use transform="matrix(0.009114583333333334,0,0,0.009114583333333334,44.80729166666667,0)" xlink:href="#aW"/></g><path d="M287-543c-1 247 91 418 323 418 91 0 185-20 281-59v147C818 1 725 20 614 20c-329 0-499-221-499-561 0-349 172-575 510-575 96 0 221 26 282 57l-51 141c-61-25-157-50-235-51-223 0-334 142-334 426" id="aX"/><path d="M694-1116c270 0 399 125 398 401V0H926v-709c-1-177-76-266-252-266-250 0-332 133-332 400V0H176v-1096h135l27 150h8c62-101 190-170 348-170" id="aY"/><g id="i"><use transform="matrix(0.009114583333333334,0,0,0.009114583333333334,0,0)" xlink:href="#aX"/><use transform="matrix(0.009114583333333334,0,0,0.009114583333333334,8.88671875,0)" xlink:href="#aK"/><use transform="matrix(0.009114583333333334,0,0,0.009114583333333334,20.161458333333336,0)" xlink:href="#aY"/><use transform="matrix(0.009114583333333334,0,0,0.009114583333333334,31.618489583333336,0)" xlink:href="#aQ"/><use transform="matrix(0.009114583333333334,0,0,0.009114583333333334,40.5234375,0)" xlink:href="#aM"/><use transform="matrix(0.009114583333333334,0,0,0.009114583333333334,50.99609375,0)" xlink:href="#aX"/><use transform="matrix(0.009114583333333334,0,0,0.009114583333333334,59.88281250000001,0)" xlink:href="#aU"/><use transform="matrix(0.009114583333333334,0,0,0.009114583333333334,66.47265625,0)" xlink:href="#aM"/><use transform="matrix(0.009114583333333334,0,0,0.009114583333333334,76.9453125,0)" xlink:href="#aU"/><use transform="matrix(0.009114583333333334,0,0,0.009114583333333334,83.53515625,0)" xlink:href="#aR"/><use transform="matrix(0.009114583333333334,0,0,0.009114583333333334,94.9921875,0)" xlink:href="#aL"/></g><path d="M125-741c0-247 161-377 414-375 57 0 109 7 155 20h379v105l-203 24c37 48 72 129 72 219 0 255-227 390-504 345-71 37-106 84-106 141 0 78 66 88 164 88h194c219-1 369 87 369 293 0 121-49 213-146 277s-239 96-426 96c-250 0-448-83-448-306C39 36 147-58 283-86c-52-23-102-79-99-152 4-104 57-143 133-192-107-42-192-164-192-311zM438-25c-143-1-242 70-239 209s131 181 290 181c139 0 242-21 309-63s101-98 101-169c0-147-88-158-262-158H438zm94-970c-158 0-243 88-243 250 0 153 93 233 246 233 162 0 243-79 243-236 0-165-82-247-246-247" id="aZ"/><g id="j"><use transform="matrix(0.009114583333333334,0,0,0.009114583333333334,0,0)" xlink:href="#aV"/><use transform="matrix(0.009114583333333334,0,0,0.009114583333333334,10.381510416666668,0)" xlink:href="#aS"/><use transform="matrix(0.009114583333333334,0,0,0.009114583333333334,21.8203125,0)" xlink:href="#aO"/><use transform="matrix(0.009114583333333334,0,0,0.009114583333333334,26.541666666666668,0)" xlink:href="#aP"/><use transform="matrix(0.009114583333333334,0,0,0.009114583333333334,37.98046875,0)" xlink:href="#aO"/><use transform="matrix(0.009114583333333334,0,0,0.009114583333333334,42.701822916666664,0)" xlink:href="#aQ"/><use transform="matrix(0.009114583333333334,0,0,0.009114583333333334,51.60677083333333,0)" xlink:href="#aX"/><use transform="matrix(0.009114583333333334,0,0,0.009114583333333334,60.49348958333333,0)" xlink:href="#aO"/><use transform="matrix(0.009114583333333334,0,0,0.009114583333333334,65.21484375,0)" xlink:href="#aY"/><use transform="matrix(0.009114583333333334,0,0,0.009114583333333334,76.671875,0)" xlink:href="#aZ"/></g><g id="k"><use transform="matrix(0.009114583333333334,0,0,0.009114583333333334,0,0)" xlink:href="#aM"/><use transform="matrix(0.009114583333333334,0,0,0.009114583333333334,10.47265625,0)" xlink:href="#aT"/><use transform="matrix(0.009114583333333334,0,0,0.009114583333333334,15.194010416666668,0)" xlink:href="#aO"/><use transform="matrix(0.009114583333333334,0,0,0.009114583333333334,19.915364583333336,0)" xlink:href="#aU"/><use transform="matrix(0.009114583333333334,0,0,0.009114583333333334,26.505208333333336,0)" xlink:href="#aW"/></g><g id="l"><use transform="matrix(0.009114583333333334,0,0,0.009114583333333334,0,0)" xlink:href="#aQ"/><use transform="matrix(0.009114583333333334,0,0,0.009114583333333334,8.904947916666668,0)" xlink:href="#aM"/><use transform="matrix(0.009114583333333334,0,0,0.009114583333333334,19.377604166666668,0)" xlink:href="#aS"/></g><g id="m"><use transform="matrix(0.009114583333333334,0,0,0.009114583333333334,0,0)" xlink:href="#aS"/><use transform="matrix(0.009114583333333334,0,0,0.009114583333333334,11.438802083333334,0)" xlink:href="#aK"/></g><g id="n"><use transform="matrix(0.009114583333333334,0,0,0.009114583333333334,0,0)" xlink:href="#aM"/><use transform="matrix(0.009114583333333334,0,0,0.009114583333333334,10.47265625,0)" xlink:href="#aO"/><use transform="matrix(0.009114583333333334,0,0,0.009114583333333334,15.194010416666668,0)" xlink:href="#aR"/><use transform="matrix(0.009114583333333334,0,0,0.009114583333333334,26.651041666666668,0)" xlink:href="#aQ"/><use transform="matrix(0.009114583333333334,0,0,0.009114583333333334,35.555989583333336,0)" xlink:href="#aN"/><use transform="matrix(0.009114583333333334,0,0,0.009114583333333334,52.919270833333336,0)" xlink:href="#aK"/><use transform="matrix(0.009114583333333334,0,0,0.009114583333333334,64.19401041666667,0)" xlink:href="#aS"/></g><g id="o"><use transform="matrix(0.009114583333333334,0,0,0.009114583333333334,0,0)" xlink:href="#aU"/><use transform="matrix(0.009114583333333334,0,0,0.009114583333333334,6.58984375,0)" xlink:href="#aM"/><use transform="matrix(0.009114583333333334,0,0,0.009114583333333334,17.0625,0)" xlink:href="#aN"/><use transform="matrix(0.009114583333333334,0,0,0.009114583333333334,34.42578125,0)" xlink:href="#aP"/><use transform="matrix(0.009114583333333334,0,0,0.009114583333333334,45.864583333333336,0)" xlink:href="#aK"/><use transform="matrix(0.009114583333333334,0,0,0.009114583333333334,57.13932291666667,0)" xlink:href="#aL"/></g><g id="p"><use transform="matrix(0.009114583333333334,0,0,0.009114583333333334,0,0)" xlink:href="#aO"/><use transform="matrix(0.009114583333333334,0,0,0.009114583333333334,4.721354166666667,0)" xlink:href="#aY"/><use transform="matrix(0.009114583333333334,0,0,0.009114583333333334,16.178385416666668,0)" xlink:href="#aX"/><use transform="matrix(0.009114583333333334,0,0,0.009114583333333334,25.065104166666668,0)" xlink:href="#aO"/><use transform="matrix(0.009114583333333334,0,0,0.009114583333333334,29.786458333333336,0)" xlink:href="#aS"/><use transform="matrix(0.009114583333333334,0,0,0.009114583333333334,41.22526041666667,0)" xlink:href="#aO"/><use transform="matrix(0.009114583333333334,0,0,0.009114583333333334,45.946614583333336,0)" xlink:href="#aS"/><use transform="matrix(0.009114583333333334,0,0,0.009114583333333334,57.38541666666667,0)" xlink:href="#aR"/><use transform="matrix(0.009114583333333334,0,0,0.009114583333333334,68.84244791666667,0)" xlink:href="#aY"/><use transform="matrix(0.009114583333333334,0,0,0.009114583333333334,80.29947916666667,0)" xlink:href="#aU"/></g><g id="q"><use transform="matrix(0.009114583333333334,0,0,0.009114583333333334,0,0)" xlink:href="#aR"/><use transform="matrix(0.009114583333333334,0,0,0.009114583333333334,11.45703125,0)" xlink:href="#aU"/></g><path d="M686 20c-159 0-273-61-344-161h-12L295 0H176v-1556h166c-2 198 6 423-8 606h8c77-109 192-164 344-164 310 0 455 234 455 565 0 329-147 569-455 569zm283-571c0-257-72-424-307-424-256 0-320 146-320 426s68 430 324 430c228 0 303-184 303-432" id="ba"/><g id="r"><use transform="matrix(0.009114583333333334,0,0,0.009114583333333334,0,0)" xlink:href="#aT"/><use transform="matrix(0.009114583333333334,0,0,0.009114583333333334,4.721354166666667,0)" xlink:href="#aV"/><use transform="matrix(0.009114583333333334,0,0,0.009114583333333334,15.102864583333336,0)" xlink:href="#ba"/><use transform="matrix(0.009114583333333334,0,0,0.009114583333333334,26.54166666666667,0)" xlink:href="#aK"/><use transform="matrix(0.009114583333333334,0,0,0.009114583333333334,37.816406250000014,0)" xlink:href="#aL"/><use transform="matrix(0.009114583333333334,0,0,0.009114583333333334,45.062500000000014,0)" xlink:href="#aM"/></g><g id="s"><use transform="matrix(0.009114583333333334,0,0,0.009114583333333334,0,0)" xlink:href="#aM"/><use transform="matrix(0.009114583333333334,0,0,0.009114583333333334,10.47265625,0)" xlink:href="#aU"/></g><g id="t"><use transform="matrix(0.009114583333333334,0,0,0.009114583333333334,0,0)" xlink:href="#aS"/><use transform="matrix(0.009114583333333334,0,0,0.009114583333333334,11.438802083333334,0)" xlink:href="#aK"/><use transform="matrix(0.009114583333333334,0,0,0.009114583333333334,22.713541666666668,0)" xlink:href="#aT"/><use transform="matrix(0.009114583333333334,0,0,0.009114583333333334,27.434895833333336,0)" xlink:href="#aK"/><use transform="matrix(0.009114583333333334,0,0,0.009114583333333334,38.70963541666667,0)" xlink:href="#aL"/><use transform="matrix(0.009114583333333334,0,0,0.009114583333333334,45.95572916666667,0)" xlink:href="#aM"/></g><g id="u"><use transform="matrix(0.009114583333333334,0,0,0.009114583333333334,0,0)" xlink:href="#aN"/><use transform="matrix(0.009114583333333334,0,0,0.009114583333333334,17.36328125,0)" xlink:href="#aV"/><use transform="matrix(0.009114583333333334,0,0,0.009114583333333334,27.744791666666668,0)" xlink:href="#aZ"/><use transform="matrix(0.009114583333333334,0,0,0.009114583333333334,37.97135416666667,0)" xlink:href="#aY"/><use transform="matrix(0.009114583333333334,0,0,0.009114583333333334,49.42838541666667,0)" xlink:href="#aV"/></g><path d="M287-543c0 246 78 424 303 424 259 0 323-148 323-426 0-279-71-432-325-432-220 0-301 191-301 434zm-172-2c0-328 147-571 454-571 150 0 265 57 346 170h9l24-150h131V492H913c5-208-11-450 11-639h-13C834-36 719 20 565 20c-305 0-450-240-450-565" id="bb"/><path d="M270 29c-76 0-118-48-118-135 0-84 38-135 118-136 81 0 123 51 123 136 0 82-44 135-123 135" id="bc"/><g id="v"><use transform="matrix(0.009114583333333334,0,0,0.009114583333333334,0,0)" xlink:href="#aV"/><use transform="matrix(0.009114583333333334,0,0,0.009114583333333334,10.381510416666668,0)" xlink:href="#aT"/><use transform="matrix(0.009114583333333334,0,0,0.009114583333333334,15.102864583333336,0)" xlink:href="#aO"/><use transform="matrix(0.009114583333333334,0,0,0.009114583333333334,19.824218750000007,0)" xlink:href="#bb"/><use transform="matrix(0.009114583333333334,0,0,0.009114583333333334,31.263020833333336,0)" xlink:href="#aR"/><use transform="matrix(0.009114583333333334,0,0,0.009114583333333334,42.720052083333336,0)" xlink:href="#aV"/><use transform="matrix(0.009114583333333334,0,0,0.009114583333333334,53.1015625,0)" xlink:href="#bc"/></g><path d="M750-129c245 0 385-137 385-381v-952h170v946c3 336-225 536-566 536-344 0-553-202-553-540v-942h170v954c0 248 141 379 394 379" id="bd"/><g id="w"><use transform="matrix(0.009114583333333334,0,0,0.009114583333333334,0,0)" xlink:href="#bd"/><use transform="matrix(0.009114583333333334,0,0,0.009114583333333334,13.58984375,0)" xlink:href="#aU"/></g><g id="x"><use transform="matrix(0.009114583333333334,0,0,0.009114583333333334,0,0)" xlink:href="#aM"/><use transform="matrix(0.009114583333333334,0,0,0.009114583333333334,10.47265625,0)" xlink:href="#aY"/><use transform="matrix(0.009114583333333334,0,0,0.009114583333333334,21.9296875,0)" xlink:href="#aO"/><use transform="matrix(0.009114583333333334,0,0,0.009114583333333334,26.651041666666668,0)" xlink:href="#aN"/></g><g id="y"><use transform="matrix(0.009114583333333334,0,0,0.009114583333333334,0,0)" xlink:href="#aV"/><use transform="matrix(0.009114583333333334,0,0,0.009114583333333334,10.381510416666668,0)" xlink:href="#aS"/></g><g id="z"><use transform="matrix(0.009114583333333334,0,0,0.009114583333333334,0,0)" xlink:href="#aN"/><use transform="matrix(0.009114583333333334,0,0,0.009114583333333334,17.36328125,0)" xlink:href="#aO"/><use transform="matrix(0.009114583333333334,0,0,0.009114583333333334,22.084635416666668,0)" xlink:href="#aY"/><use transform="matrix(0.009114583333333334,0,0,0.009114583333333334,33.54166666666667,0)" xlink:href="#aO"/><use transform="matrix(0.009114583333333334,0,0,0.009114583333333334,38.263020833333336,0)" xlink:href="#aN"/></g><path d="M516-150c94-315 146-423 332-946h178L610 0H416L0-1096h178c98 281 253 670 330 946h8" id="be"/><g id="A"><use transform="matrix(0.009114583333333334,0,0,0.009114583333333334,0,0)" xlink:href="#be"/><use transform="matrix(0.009114583333333334,0,0,0.009114583333333334,9.3515625,0)" xlink:href="#aM"/><use transform="matrix(0.009114583333333334,0,0,0.009114583333333334,19.82421875,0)" xlink:href="#aY"/><use transform="matrix(0.009114583333333334,0,0,0.009114583333333334,31.281250000000004,0)" xlink:href="#aO"/><use transform="matrix(0.009114583333333334,0,0,0.009114583333333334,36.002604166666664,0)" xlink:href="#aV"/><use transform="matrix(0.009114583333333334,0,0,0.009114583333333334,46.38411458333333,0)" xlink:href="#aN"/><use transform="matrix(0.009114583333333334,0,0,0.009114583333333334,63.74739583333333,0)" xlink:href="#aW"/></g><g id="B"><use transform="matrix(0.009114583333333334,0,0,0.009114583333333334,0,0)" xlink:href="#bb"/><use transform="matrix(0.009114583333333334,0,0,0.009114583333333334,11.438802083333334,0)" xlink:href="#aR"/><use transform="matrix(0.009114583333333334,0,0,0.009114583333333334,22.895833333333336,0)" xlink:href="#aO"/><use transform="matrix(0.009114583333333334,0,0,0.009114583333333334,27.6171875,0)" xlink:href="#aQ"/></g><g id="C"><use transform="matrix(0.009114583333333334,0,0,0.009114583333333334,0,0)" xlink:href="#aY"/><use transform="matrix(0.009114583333333334,0,0,0.009114583333333334,11.45703125,0)" xlink:href="#aK"/><use transform="matrix(0.009114583333333334,0,0,0.009114583333333334,22.731770833333336,0)" xlink:href="#aQ"/><use transform="matrix(0.009114583333333334,0,0,0.009114583333333334,31.636718750000004,0)" xlink:href="#aU"/><use transform="matrix(0.009114583333333334,0,0,0.009114583333333334,38.2265625,0)" xlink:href="#aL"/><use transform="matrix(0.009114583333333334,0,0,0.009114583333333334,45.846354166666664,0)" xlink:href="#aR"/><use transform="matrix(0.009114583333333334,0,0,0.009114583333333334,57.303385416666664,0)" xlink:href="#aS"/></g><path d="M440-561L59-1096h189l289 420 288-420h187L631-561 1032 0H844L537-444 227 0H39" id="bf"/><g id="D"><use transform="matrix(0.009114583333333334,0,0,0.009114583333333334,0,0)" xlink:href="#aM"/><use transform="matrix(0.009114583333333334,0,0,0.009114583333333334,10.098958333333334,0)" xlink:href="#bf"/><use transform="matrix(0.009114583333333334,0,0,0.009114583333333334,19.505208333333336,0)" xlink:href="#aM"/><use transform="matrix(0.009114583333333334,0,0,0.009114583333333334,29.977864583333336,0)" xlink:href="#aL"/><use transform="matrix(0.009114583333333334,0,0,0.009114583333333334,37.223958333333336,0)" xlink:href="#aX"/><use transform="matrix(0.009114583333333334,0,0,0.009114583333333334,46.110677083333336,0)" xlink:href="#aO"/><use transform="matrix(0.009114583333333334,0,0,0.009114583333333334,50.83203125,0)" xlink:href="#aU"/><use transform="matrix(0.009114583333333334,0,0,0.009114583333333334,57.42187500000001,0)" xlink:href="#aV"/><use transform="matrix(0.009114583333333334,0,0,0.009114583333333334,67.80338541666667,0)" xlink:href="#aU"/><use transform="matrix(0.009114583333333334,0,0,0.009114583333333334,74.39322916666667,0)" xlink:href="#aO"/><use transform="matrix(0.009114583333333334,0,0,0.009114583333333334,79.11458333333334,0)" xlink:href="#aK"/><use transform="matrix(0.009114583333333334,0,0,0.009114583333333334,90.38932291666667,0)" xlink:href="#aY"/></g><g id="E"><use transform="matrix(0.009114583333333334,0,0,0.009114583333333334,0,0)" xlink:href="#aR"/><use transform="matrix(0.009114583333333334,0,0,0.009114583333333334,11.45703125,0)" xlink:href="#aT"/><use transform="matrix(0.009114583333333334,0,0,0.009114583333333334,16.178385416666668,0)" xlink:href="#aT"/><use transform="matrix(0.009114583333333334,0,0,0.009114583333333334,20.899739583333336,0)" xlink:href="#aV"/><use transform="matrix(0.009114583333333334,0,0,0.009114583333333334,31.281250000000004,0)" xlink:href="#aN"/><use transform="matrix(0.009114583333333334,0,0,0.009114583333333334,48.64453125,0)" xlink:href="#aX"/><use transform="matrix(0.009114583333333334,0,0,0.009114583333333334,57.53125000000001,0)" xlink:href="#aK"/></g><g id="F"><use transform="matrix(0.009114583333333334,0,0,0.009114583333333334,0,0)" xlink:href="#aT"/><use transform="matrix(0.009114583333333334,0,0,0.009114583333333334,4.721354166666667,0)" xlink:href="#aV"/><use transform="matrix(0.009114583333333334,0,0,0.009114583333333334,15.102864583333336,0)" xlink:href="#ba"/><use transform="matrix(0.009114583333333334,0,0,0.009114583333333334,26.54166666666667,0)" xlink:href="#aK"/><use transform="matrix(0.009114583333333334,0,0,0.009114583333333334,37.816406250000014,0)" xlink:href="#aL"/><use transform="matrix(0.009114583333333334,0,0,0.009114583333333334,45.43619791666667,0)" xlink:href="#aO"/><use transform="matrix(0.009114583333333334,0,0,0.009114583333333334,50.157552083333336,0)" xlink:href="#aQ"/></g><g id="G"><use transform="matrix(0.009114583333333334,0,0,0.009114583333333334,0,0)" xlink:href="#aY"/><use transform="matrix(0.009114583333333334,0,0,0.009114583333333334,11.45703125,0)" xlink:href="#aO"/><use transform="matrix(0.009114583333333334,0,0,0.009114583333333334,16.178385416666668,0)" xlink:href="#aQ"/><use transform="matrix(0.009114583333333334,0,0,0.009114583333333334,25.083333333333336,0)" xlink:href="#aO"/></g><g id="H"><use transform="matrix(0.009114583333333334,0,0,0.009114583333333334,0,0)" xlink:href="#aV"/><use transform="matrix(0.009114583333333334,0,0,0.009114583333333334,10.381510416666668,0)" xlink:href="#aT"/><use transform="matrix(0.009114583333333334,0,0,0.009114583333333334,15.102864583333336,0)" xlink:href="#aO"/><use transform="matrix(0.009114583333333334,0,0,0.009114583333333334,19.824218750000007,0)" xlink:href="#bb"/><use transform="matrix(0.009114583333333334,0,0,0.009114583333333334,31.263020833333336,0)" xlink:href="#aR"/><use transform="matrix(0.009114583333333334,0,0,0.009114583333333334,42.720052083333336,0)" xlink:href="#aO"/><use transform="matrix(0.009114583333333334,0,0,0.009114583333333334,47.44140625,0)" xlink:href="#aP"/></g><g id="I"><use transform="matrix(0.009114583333333334,0,0,0.009114583333333334,0,0)" xlink:href="#aM"/><use transform="matrix(0.009114583333333334,0,0,0.009114583333333334,10.098958333333334,0)" xlink:href="#bf"/></g><g id="J"><use transform="matrix(0.009114583333333334,0,0,0.009114583333333334,0,0)" xlink:href="#aM"/><use transform="matrix(0.009114583333333334,0,0,0.009114583333333334,10.47265625,0)" xlink:href="#aV"/></g><g id="K"><use transform="matrix(0.009114583333333334,0,0,0.009114583333333334,0,0)" xlink:href="#aX"/><use transform="matrix(0.009114583333333334,0,0,0.009114583333333334,8.88671875,0)" xlink:href="#aK"/><use transform="matrix(0.009114583333333334,0,0,0.009114583333333334,20.161458333333336,0)" xlink:href="#aN"/><use transform="matrix(0.009114583333333334,0,0,0.009114583333333334,37.524739583333336,0)" xlink:href="#aN"/><use transform="matrix(0.009114583333333334,0,0,0.009114583333333334,54.888020833333336,0)" xlink:href="#aK"/><use transform="matrix(0.009114583333333334,0,0,0.009114583333333334,66.16276041666667,0)" xlink:href="#aS"/><use transform="matrix(0.009114583333333334,0,0,0.009114583333333334,77.6015625,0)" xlink:href="#aK"/></g><g id="L"><use transform="matrix(0.009114583333333334,0,0,0.009114583333333334,0,0)" xlink:href="#aX"/><use transform="matrix(0.009114583333333334,0,0,0.009114583333333334,8.88671875,0)" xlink:href="#aK"/><use transform="matrix(0.009114583333333334,0,0,0.009114583333333334,20.161458333333336,0)" xlink:href="#aY"/><use transform="matrix(0.009114583333333334,0,0,0.009114583333333334,31.618489583333336,0)" xlink:href="#aQ"/><use transform="matrix(0.009114583333333334,0,0,0.009114583333333334,40.5234375,0)" xlink:href="#aM"/><use transform="matrix(0.009114583333333334,0,0,0.009114583333333334,50.99609375,0)" xlink:href="#bb"/><use transform="matrix(0.009114583333333334,0,0,0.009114583333333334,62.434895833333336,0)" xlink:href="#aR"/><use transform="matrix(0.009114583333333334,0,0,0.009114583333333334,73.89192708333334,0)" xlink:href="#aV"/><use transform="matrix(0.009114583333333334,0,0,0.009114583333333334,84.27343750000003,0)" xlink:href="#aU"/><use transform="matrix(0.009114583333333334,0,0,0.009114583333333334,90.86328125000003,0)" xlink:href="#bc"/></g><path d="M649-1462c450-4 719 268 719 717 0 484-276 748-762 745H201v-1462h448zM578-147c400 1 610-197 610-592 1-379-192-576-570-576H371v1168h207" id="bg"/><g id="M"><use transform="matrix(0.009114583333333334,0,0,0.009114583333333334,0,0)" xlink:href="#bg"/><use transform="matrix(0.009114583333333334,0,0,0.009114583333333334,13.608072916666668,0)" xlink:href="#aR"/><use transform="matrix(0.009114583333333334,0,0,0.009114583333333334,25.065104166666668,0)" xlink:href="#aO"/><use transform="matrix(0.009114583333333334,0,0,0.009114583333333334,29.786458333333336,0)" xlink:href="#aQ"/></g><g id="N"><use transform="matrix(0.009114583333333334,0,0,0.009114583333333334,0,0)" xlink:href="#aV"/><use transform="matrix(0.009114583333333334,0,0,0.009114583333333334,10.381510416666668,0)" xlink:href="#aR"/><use transform="matrix(0.009114583333333334,0,0,0.009114583333333334,21.838541666666668,0)" xlink:href="#aU"/><use transform="matrix(0.009114583333333334,0,0,0.009114583333333334,28.428385416666668,0)" xlink:href="#aM"/></g><g id="O"><use transform="matrix(0.009114583333333334,0,0,0.009114583333333334,0,0)" xlink:href="#aO"/><use transform="matrix(0.009114583333333334,0,0,0.009114583333333334,4.721354166666667,0)" xlink:href="#aL"/><use transform="matrix(0.009114583333333334,0,0,0.009114583333333334,12.341145833333334,0)" xlink:href="#aR"/><use transform="matrix(0.009114583333333334,0,0,0.009114583333333334,23.798177083333336,0)" xlink:href="#aL"/><use transform="matrix(0.009114583333333334,0,0,0.009114583333333334,31.044270833333336,0)" xlink:href="#aM"/></g><g id="P"><use transform="matrix(0.009114583333333334,0,0,0.009114583333333334,0,0)" xlink:href="#aO"/><use transform="matrix(0.009114583333333334,0,0,0.009114583333333334,4.721354166666667,0)" xlink:href="#aY"/></g><path d="M690-1114c271 2 402 123 402 399V0H926v-709c-1-177-76-266-252-266-251 0-332 135-332 402V0H176v-1556h166c-4 200 8 426-8 612h10c61-100 187-171 346-170" id="bh"/><g id="Q"><use transform="matrix(0.009114583333333334,0,0,0.009114583333333334,0,0)" xlink:href="#aL"/><use transform="matrix(0.009114583333333334,0,0,0.009114583333333334,7.246093750000001,0)" xlink:href="#aM"/><use transform="matrix(0.009114583333333334,0,0,0.009114583333333334,17.71875,0)" xlink:href="#aP"/><use transform="matrix(0.009114583333333334,0,0,0.009114583333333334,29.157552083333336,0)" xlink:href="#aL"/><use transform="matrix(0.009114583333333334,0,0,0.009114583333333334,36.403645833333336,0)" xlink:href="#aM"/><use transform="matrix(0.009114583333333334,0,0,0.009114583333333334,46.876302083333336,0)" xlink:href="#bh"/><use transform="matrix(0.009114583333333334,0,0,0.009114583333333334,58.333333333333336,0)" xlink:href="#aM"/><use transform="matrix(0.009114583333333334,0,0,0.009114583333333334,68.80598958333334,0)" xlink:href="#aY"/><use transform="matrix(0.009114583333333334,0,0,0.009114583333333334,80.26302083333334,0)" xlink:href="#aS"/><use transform="matrix(0.009114583333333334,0,0,0.009114583333333334,91.70182291666667,0)" xlink:href="#aM"/><use transform="matrix(0.009114583333333334,0,0,0.009114583333333334,102.17447916666667,0)" xlink:href="#aL"/><use transform="matrix(0.009114583333333334,0,0,0.009114583333333334,109.79427083333334,0)" xlink:href="#aO"/><use transform="matrix(0.009114583333333334,0,0,0.009114583333333334,114.51562500000001,0)" xlink:href="#aU"/></g><g id="R"><use transform="matrix(0.009114583333333334,0,0,0.009114583333333334,0,0)" xlink:href="#aO"/><use transform="matrix(0.009114583333333334,0,0,0.009114583333333334,4.721354166666667,0)" xlink:href="#aY"/></g><g id="S"><use transform="matrix(0.009114583333333334,0,0,0.009114583333333334,0,0)" xlink:href="#be"/><use transform="matrix(0.009114583333333334,0,0,0.009114583333333334,9.3515625,0)" xlink:href="#aK"/><use transform="matrix(0.009114583333333334,0,0,0.009114583333333334,20.626302083333336,0)" xlink:href="#aT"/><use transform="matrix(0.009114583333333334,0,0,0.009114583333333334,25.34765625,0)" xlink:href="#aR"/><use transform="matrix(0.009114583333333334,0,0,0.009114583333333334,36.8046875,0)" xlink:href="#aP"/><use transform="matrix(0.009114583333333334,0,0,0.009114583333333334,48.243489583333336,0)" xlink:href="#aU"/><use transform="matrix(0.009114583333333334,0,0,0.009114583333333334,54.833333333333336,0)" xlink:href="#aV"/><use transform="matrix(0.009114583333333334,0,0,0.009114583333333334,65.21484375,0)" xlink:href="#aU"/><use transform="matrix(0.009114583333333334,0,0,0.009114583333333334,71.8046875,0)" xlink:href="#aM"/></g><g id="T"><use transform="matrix(0.009114583333333334,0,0,0.009114583333333334,0,0)" xlink:href="#be"/><use transform="matrix(0.009114583333333334,0,0,0.009114583333333334,9.3515625,0)" xlink:href="#aM"/><use transform="matrix(0.009114583333333334,0,0,0.009114583333333334,19.82421875,0)" xlink:href="#aT"/><use transform="matrix(0.009114583333333334,0,0,0.009114583333333334,24.545572916666668,0)" xlink:href="#aO"/><use transform="matrix(0.009114583333333334,0,0,0.009114583333333334,29.266927083333336,0)" xlink:href="#aU"/></g><g id="U"><use transform="matrix(0.009114583333333334,0,0,0.009114583333333334,0,0)" xlink:href="#aM"/><use transform="matrix(0.009114583333333334,0,0,0.009114583333333334,10.47265625,0)" xlink:href="#aQ"/><use transform="matrix(0.009114583333333334,0,0,0.009114583333333334,19.377604166666668,0)" xlink:href="#aQ"/><use transform="matrix(0.009114583333333334,0,0,0.009114583333333334,28.282552083333336,0)" xlink:href="#aM"/></g><g id="V"><use transform="matrix(0.009114583333333334,0,0,0.009114583333333334,0,0)" xlink:href="#aX"/><use transform="matrix(0.009114583333333334,0,0,0.009114583333333334,8.88671875,0)" xlink:href="#aO"/><use transform="matrix(0.009114583333333334,0,0,0.009114583333333334,13.608072916666668,0)" xlink:href="#aT"/><use transform="matrix(0.009114583333333334,0,0,0.009114583333333334,18.329427083333336,0)" xlink:href="#aT"/><use transform="matrix(0.009114583333333334,0,0,0.009114583333333334,23.050781250000007,0)" xlink:href="#aR"/><use transform="matrix(0.009114583333333334,0,0,0.009114583333333334,34.5078125,0)" xlink:href="#aN"/></g><g id="W"><use transform="matrix(0.009114583333333334,0,0,0.009114583333333334,0,0)" xlink:href="#aM"/><use transform="matrix(0.009114583333333334,0,0,0.009114583333333334,10.47265625,0)" xlink:href="#aR"/></g><path d="M575-1430c-169 0-190 146-184 334h279v129H391V0H225v-967H29v-75l196-60c-15-299 97-465 353-465 58 0 126 12 204 35l-43 133c-64-21-119-31-164-31" id="bi"/><g id="X"><use transform="matrix(0.009114583333333334,0,0,0.009114583333333334,0,0)" xlink:href="#bi"/><use transform="matrix(0.009114583333333334,0,0,0.009114583333333334,6.325520833333334,0)" xlink:href="#aR"/><use transform="matrix(0.009114583333333334,0,0,0.009114583333333334,17.782552083333336,0)" xlink:href="#aZ"/><use transform="matrix(0.009114583333333334,0,0,0.009114583333333334,28.009114583333336,0)" xlink:href="#aO"/><use transform="matrix(0.009114583333333334,0,0,0.009114583333333334,32.73046875,0)" xlink:href="#aV"/><use transform="matrix(0.009114583333333334,0,0,0.009114583333333334,43.11197916666667,0)" xlink:href="#aU"/></g><g id="Y"><use transform="matrix(0.009114583333333334,0,0,0.009114583333333334,0,0)" xlink:href="#aY"/><use transform="matrix(0.009114583333333334,0,0,0.009114583333333334,11.45703125,0)" xlink:href="#aR"/><use transform="matrix(0.009114583333333334,0,0,0.009114583333333334,22.9140625,0)" xlink:href="#aT"/><use transform="matrix(0.009114583333333334,0,0,0.009114583333333334,27.635416666666668,0)" xlink:href="#aT"/><use transform="matrix(0.009114583333333334,0,0,0.009114583333333334,32.356770833333336,0)" xlink:href="#aV"/></g><g id="Z"><use transform="matrix(0.009114583333333334,0,0,0.009114583333333334,0,0)" xlink:href="#aP"/><use transform="matrix(0.009114583333333334,0,0,0.009114583333333334,11.438802083333334,0)" xlink:href="#aV"/><use transform="matrix(0.009114583333333334,0,0,0.009114583333333334,21.8203125,0)" xlink:href="#aL"/><use transform="matrix(0.009114583333333334,0,0,0.009114583333333334,29.440104166666668,0)" xlink:href="#aO"/><use transform="matrix(0.009114583333333334,0,0,0.009114583333333334,34.161458333333336,0)" xlink:href="#aV"/><use transform="matrix(0.009114583333333334,0,0,0.009114583333333334,44.54296875,0)" xlink:href="#aU"/><use transform="matrix(0.009114583333333334,0,0,0.009114583333333334,51.1328125,0)" xlink:href="#aR"/><use transform="matrix(0.009114583333333334,0,0,0.009114583333333334,62.58984375000001,0)" xlink:href="#aL"/><use transform="matrix(0.009114583333333334,0,0,0.009114583333333334,70.20963541666667,0)" xlink:href="#bc"/></g><path d="M1016 0H201v-1462h815v151H371v471h606v150H371v538h645V0" id="bj"/><g id="aa"><use transform="matrix(0.009114583333333334,0,0,0.009114583333333334,0,0)" xlink:href="#bj"/><use transform="matrix(0.009114583333333334,0,0,0.009114583333333334,10.381510416666668,0)" xlink:href="#bf"/><use transform="matrix(0.009114583333333334,0,0,0.009114583333333334,19.78776041666667,0)" xlink:href="#aX"/><use transform="matrix(0.009114583333333334,0,0,0.009114583333333334,28.67447916666667,0)" xlink:href="#aM"/><use transform="matrix(0.009114583333333334,0,0,0.009114583333333334,39.14713541666667,0)" xlink:href="#aP"/><use transform="matrix(0.009114583333333334,0,0,0.009114583333333334,50.5859375,0)" xlink:href="#aU"/><use transform="matrix(0.009114583333333334,0,0,0.009114583333333334,57.17578125000001,0)" xlink:href="#aM"/><use transform="matrix(0.009114583333333334,0,0,0.009114583333333334,67.6484375,0)" xlink:href="#aR"/><use transform="matrix(0.009114583333333334,0,0,0.009114583333333334,79.10546875,0)" xlink:href="#aL"/></g><g id="ab"><use transform="matrix(0.009114583333333334,0,0,0.009114583333333334,0,0)" xlink:href="#aQ"/><use transform="matrix(0.009114583333333334,0,0,0.009114583333333334,8.904947916666668,0)" xlink:href="#aO"/><use transform="matrix(0.009114583333333334,0,0,0.009114583333333334,13.626302083333336,0)" xlink:href="#aY"/><use transform="matrix(0.009114583333333334,0,0,0.009114583333333334,25.083333333333336,0)" xlink:href="#aU"/></g><g id="ac"><use transform="matrix(0.009114583333333334,0,0,0.009114583333333334,0,0)" xlink:href="#aK"/><use transform="matrix(0.009114583333333334,0,0,0.009114583333333334,11.274739583333334,0)" xlink:href="#aX"/><use transform="matrix(0.009114583333333334,0,0,0.009114583333333334,20.161458333333336,0)" xlink:href="#aX"/><use transform="matrix(0.009114583333333334,0,0,0.009114583333333334,29.048177083333336,0)" xlink:href="#aV"/><use transform="matrix(0.009114583333333334,0,0,0.009114583333333334,39.4296875,0)" xlink:href="#aM"/><use transform="matrix(0.009114583333333334,0,0,0.009114583333333334,49.90234375,0)" xlink:href="#aX"/><use transform="matrix(0.009114583333333334,0,0,0.009114583333333334,58.78906250000001,0)" xlink:href="#aV"/><use transform="matrix(0.009114583333333334,0,0,0.009114583333333334,69.17057291666667,0)" xlink:href="#aU"/></g><g id="ad"><use transform="matrix(0.009114583333333334,0,0,0.009114583333333334,0,0)" xlink:href="#aX"/><use transform="matrix(0.009114583333333334,0,0,0.009114583333333334,8.88671875,0)" xlink:href="#aR"/><use transform="matrix(0.009114583333333334,0,0,0.009114583333333334,20.34375,0)" xlink:href="#aP"/><use transform="matrix(0.009114583333333334,0,0,0.009114583333333334,31.782552083333336,0)" xlink:href="#aO"/><use transform="matrix(0.009114583333333334,0,0,0.009114583333333334,36.50390625,0)" xlink:href="#aS"/><use transform="matrix(0.009114583333333334,0,0,0.009114583333333334,47.942708333333336,0)" xlink:href="#aV"/><use transform="matrix(0.009114583333333334,0,0,0.009114583333333334,58.32421875000001,0)" xlink:href="#aU"/><use transform="matrix(0.009114583333333334,0,0,0.009114583333333334,64.9140625,0)" xlink:href="#aV"/><use transform="matrix(0.009114583333333334,0,0,0.009114583333333334,75.29557291666667,0)" xlink:href="#aU"/></g><g id="ae"><use transform="matrix(0.009114583333333334,0,0,0.009114583333333334,0,0)" xlink:href="#aY"/><use transform="matrix(0.009114583333333334,0,0,0.009114583333333334,11.45703125,0)" xlink:href="#aK"/><use transform="matrix(0.009114583333333334,0,0,0.009114583333333334,22.731770833333336,0)" xlink:href="#aY"/></g><g id="af"><use transform="matrix(0.009114583333333334,0,0,0.009114583333333334,0,0)" xlink:href="#aP"/><use transform="matrix(0.009114583333333334,0,0,0.009114583333333334,11.438802083333334,0)" xlink:href="#aL"/><use transform="matrix(0.009114583333333334,0,0,0.009114583333333334,18.684895833333336,0)" xlink:href="#aK"/><use transform="matrix(0.009114583333333334,0,0,0.009114583333333334,29.95963541666667,0)" xlink:href="#aO"/><use transform="matrix(0.009114583333333334,0,0,0.009114583333333334,34.680989583333336,0)" xlink:href="#aS"/><use transform="matrix(0.009114583333333334,0,0,0.009114583333333334,46.11979166666667,0)" xlink:href="#aM"/><use transform="matrix(0.009114583333333334,0,0,0.009114583333333334,56.59244791666667,0)" xlink:href="#aY"/><use transform="matrix(0.009114583333333334,0,0,0.009114583333333334,68.04947916666667,0)" xlink:href="#aU"/><use transform="matrix(0.009114583333333334,0,0,0.009114583333333334,74.63932291666667,0)" xlink:href="#aW"/></g><g id="ag"><use transform="matrix(0.009114583333333334,0,0,0.009114583333333334,0,0)" xlink:href="#aQ"/><use transform="matrix(0.009114583333333334,0,0,0.009114583333333334,8.904947916666668,0)" xlink:href="#aR"/><use transform="matrix(0.009114583333333334,0,0,0.009114583333333334,20.361979166666668,0)" xlink:href="#aY"/><use transform="matrix(0.009114583333333334,0,0,0.009114583333333334,31.819010416666668,0)" xlink:href="#aU"/></g><g id="ah"><use transform="matrix(0.009114583333333334,0,0,0.009114583333333334,0,0)" xlink:href="#aX"/><use transform="matrix(0.009114583333333334,0,0,0.009114583333333334,8.88671875,0)" xlink:href="#aR"/><use transform="matrix(0.009114583333333334,0,0,0.009114583333333334,20.34375,0)" xlink:href="#aT"/><use transform="matrix(0.009114583333333334,0,0,0.009114583333333334,25.065104166666668,0)" xlink:href="#aP"/><use transform="matrix(0.009114583333333334,0,0,0.009114583333333334,36.50390625,0)" xlink:href="#aV"/></g><g id="ai"><use transform="matrix(0.009114583333333334,0,0,0.009114583333333334,0,0)" xlink:href="#bb"/><use transform="matrix(0.009114583333333334,0,0,0.009114583333333334,11.438802083333334,0)" xlink:href="#aR"/><use transform="matrix(0.009114583333333334,0,0,0.009114583333333334,22.895833333333336,0)" xlink:href="#aO"/></g><g id="aj"><use transform="matrix(0.009114583333333334,0,0,0.009114583333333334,0,0)" xlink:href="#aK"/><use transform="matrix(0.009114583333333334,0,0,0.009114583333333334,11.274739583333334,0)" xlink:href="#bi"/><use transform="matrix(0.009114583333333334,0,0,0.009114583333333334,17.600260416666668,0)" xlink:href="#bi"/><use transform="matrix(0.009114583333333334,0,0,0.009114583333333334,23.92578125,0)" xlink:href="#aO"/><use transform="matrix(0.009114583333333334,0,0,0.009114583333333334,28.647135416666668,0)" xlink:href="#aX"/><use transform="matrix(0.009114583333333334,0,0,0.009114583333333334,37.53385416666667,0)" xlink:href="#aO"/><use transform="matrix(0.009114583333333334,0,0,0.009114583333333334,42.255208333333336,0)" xlink:href="#aV"/></g><g id="ak"><use transform="matrix(0.009114583333333334,0,0,0.009114583333333334,0,0)" xlink:href="#aS"/><use transform="matrix(0.009114583333333334,0,0,0.009114583333333334,11.438802083333334,0)" xlink:href="#aM"/><use transform="matrix(0.009114583333333334,0,0,0.009114583333333334,21.911458333333336,0)" xlink:href="#aQ"/><use transform="matrix(0.009114583333333334,0,0,0.009114583333333334,30.816406250000004,0)" xlink:href="#aM"/><use transform="matrix(0.009114583333333334,0,0,0.009114583333333334,41.2890625,0)" xlink:href="#aL"/><use transform="matrix(0.009114583333333334,0,0,0.009114583333333334,48.908854166666664,0)" xlink:href="#aR"/><use transform="matrix(0.009114583333333334,0,0,0.009114583333333334,60.365885416666664,0)" xlink:href="#aY"/><use transform="matrix(0.009114583333333334,0,0,0.009114583333333334,71.82291666666666,0)" xlink:href="#aU"/></g><g id="al"><use transform="matrix(0.009114583333333334,0,0,0.009114583333333334,0,0)" xlink:href="#aN"/><use transform="matrix(0.009114583333333334,0,0,0.009114583333333334,17.36328125,0)" xlink:href="#aK"/><use transform="matrix(0.009114583333333334,0,0,0.009114583333333334,28.638020833333336,0)" xlink:href="#aT"/><use transform="matrix(0.009114583333333334,0,0,0.009114583333333334,33.359375,0)" xlink:href="#aT"/><use transform="matrix(0.009114583333333334,0,0,0.009114583333333334,38.080729166666664,0)" xlink:href="#aO"/><use transform="matrix(0.009114583333333334,0,0,0.009114583333333334,42.80208333333333,0)" xlink:href="#aU"/></g><g id="am"><use transform="matrix(0.009114583333333334,0,0,0.009114583333333334,0,0)" xlink:href="#aV"/><use transform="matrix(0.009114583333333334,0,0,0.009114583333333334,10.381510416666668,0)" xlink:href="#aY"/><use transform="matrix(0.009114583333333334,0,0,0.009114583333333334,21.838541666666668,0)" xlink:href="#aO"/><use transform="matrix(0.009114583333333334,0,0,0.009114583333333334,26.559895833333336,0)" xlink:href="#aN"/></g><g id="an"><use transform="matrix(0.009114583333333334,0,0,0.009114583333333334,0,0)" xlink:href="#aO"/><use transform="matrix(0.009114583333333334,0,0,0.009114583333333334,4.721354166666667,0)" xlink:href="#aS"/></g><g id="ao"><use transform="matrix(0.009114583333333334,0,0,0.009114583333333334,0,0)" xlink:href="#aM"/><use transform="matrix(0.009114583333333334,0,0,0.009114583333333334,10.47265625,0)" xlink:href="#aQ"/><use transform="matrix(0.009114583333333334,0,0,0.009114583333333334,19.377604166666668,0)" xlink:href="#aU"/></g><g id="ap"><use transform="matrix(0.009114583333333334,0,0,0.009114583333333334,0,0)" xlink:href="#aT"/><use transform="matrix(0.009114583333333334,0,0,0.009114583333333334,4.721354166666667,0)" xlink:href="#aV"/><use transform="matrix(0.009114583333333334,0,0,0.009114583333333334,15.102864583333336,0)" xlink:href="#ba"/><use transform="matrix(0.009114583333333334,0,0,0.009114583333333334,26.54166666666667,0)" xlink:href="#aK"/><use transform="matrix(0.009114583333333334,0,0,0.009114583333333334,37.816406250000014,0)" xlink:href="#aL"/><use transform="matrix(0.009114583333333334,0,0,0.009114583333333334,45.43619791666667,0)" xlink:href="#aR"/><use transform="matrix(0.009114583333333334,0,0,0.009114583333333334,56.89322916666667,0)" xlink:href="#aN"/><use transform="matrix(0.009114583333333334,0,0,0.009114583333333334,74.25651041666667,0)" xlink:href="#bc"/></g><path fill="#635dff" d="M10-9l31-5v-208l-31-4v-10h177v57h-11l-6-38c-28-4-63-3-95-3v92h63l6-28h11v73h-11l-6-29H75v96l105-3 10-43h12l-3 62H10v-9" id="bk"/><path fill="#635dff" d="M156-12c7 3 23-1 20 12h-75v-8l22-4-38-58-45 58 23 4v8H3v-8l19-3 55-71-48-71c-7-3-23 1-20-12h75v8l-22 4 32 48 37-48-23-4v-8h59v8l-19 3-46 60" id="bl"/><path fill="#635dff" d="M54-38c-1 25 24 26 44 20v12C71 10 25 9 25-35v-115H4c-2-14 14-10 21-15l18-38h11v38h38v15H54v112" id="bm"/><path fill="#635dff" d="M84-170c49 0 66 33 63 87H46c-8 60 38 80 95 63v10C128-2 108 4 88 4 34 4 14-29 14-84c-1-54 22-86 70-86zm33 73c12-57-57-82-69-24-1 7-2 15-2 24h71" id="bn"/><path fill="#635dff" d="M57-145c16-10 35-24 60-25v45c-19 1-8-30-40-17l-20 6v124l29 4v8H7v-8l21-4v-141c-8-3-24 2-21-12h48" id="bo"/><path fill="#635dff" d="M125-118c4-37-41-34-68-26v132l23 4v8H8C5-13 21-9 28-12v-141c-7-3-23 1-20-12h47l2 13c31-23 98-29 98 31v109c7 3 23-1 20 12h-72v-8l22-4v-106" id="bp"/><path fill="#635dff" d="M32-163c41-10 102-14 102 39v112c8 3 24-2 21 12h-45l-4-17C83 13 3 13 13-46c-2-50 45-50 92-51 4-36-5-70-42-56-6 2-12 4-16 6-4 7 0 23-15 20v-36zM42-47c0 41 41 33 63 22v-59c-34 1-63-1-63 37" id="bq"/><path fill="#635dff" d="M65-12l28 4v8H7v-8l28-4v-226l-28-4v-8h58v238" id="br"/><g id="aq"><use transform="matrix(0.07407407407407407,0,0,0.07407407407407407,0,0)" xlink:href="#bk"/><use transform="matrix(0.07407407407407407,0,0,0.07407407407407407,16.22222222222222,0)" xlink:href="#bl"/><use transform="matrix(0.07407407407407407,0,0,0.07407407407407407,29.555555555555554,0)" xlink:href="#bm"/><use transform="matrix(0.07407407407407407,0,0,0.07407407407407407,36.96296296296296,0)" xlink:href="#bn"/><use transform="matrix(0.07407407407407407,0,0,0.07407407407407407,48.74074074074074,0)" xlink:href="#bo"/><use transform="matrix(0.07407407407407407,0,0,0.07407407407407407,57.555555555555564,0)" xlink:href="#bp"/><use transform="matrix(0.07407407407407407,0,0,0.07407407407407407,70.88888888888889,0)" xlink:href="#bq"/><use transform="matrix(0.07407407407407407,0,0,0.07407407407407407,82.66666666666666,0)" xlink:href="#br"/><path fill="#635dff" d="M-1.33 2.25h99.4v1.3h-99.4z"/></g><path fill="#635dff" d="M111-226l-36 4v207c33-1 73 2 101-4l11-49h11l-3 68H10v-9l31-5v-208l-31-4v-10h101v10" id="bs"/><path fill="#635dff" d="M47-200c-23 0-25-39 0-38 13 0 18 7 20 19-1 11-8 19-20 19zM65-12l28 4v8H8v-8l28-4v-141l-24-4v-8h53v153" id="bt"/><path fill="#635dff" d="M60-80l68-73c-7-3-20 0-17-12h58c3 13-13 9-20 12l-47 48 60 93c7 3 21-1 18 12h-68c-3-12 9-9 15-12L82-83 60-60v48c7 3 21-1 18 12H10v-8l21-4v-226l-24-4v-8h53v170" id="bu"/><g id="ar"><use transform="matrix(0.07407407407407407,0,0,0.07407407407407407,0,0)" xlink:href="#bs"/><use transform="matrix(0.07407407407407407,0,0,0.07407407407407407,16.22222222222222,0)" xlink:href="#bt"/><use transform="matrix(0.07407407407407407,0,0,0.07407407407407407,23.629629629629623,0)" xlink:href="#bp"/><use transform="matrix(0.07407407407407407,0,0,0.07407407407407407,36.96296296296296,0)" xlink:href="#bu"/><path fill="#635dff" d="M-1.33 2.25H58.3v1.3H-1.33z"/></g><path fill="#635dff" d="M81-9v9H4v-9l26-5 81-224h33l83 224 30 5v9h-99v-9l31-5-23-68H73L49-14zm38-203L78-98h82" id="bv"/><g id="as"><use transform="matrix(0.07407407407407407,0,0,0.07407407407407407,0,0)" xlink:href="#bv"/><path fill="#635dff" d="M-1.33 2.25h21.85v1.3H-1.33z"/></g><path fill="#635dff" d="M75-131c50 2 93 3 93-48 0-46-48-41-93-41v89zm0 115c55 4 111 6 111-51 0-53-58-48-111-48v99zm148-52C223 24 102-3 10 0v-9l31-5v-208l-31-4v-10c77 6 193-24 194 56 0 33-20 48-48 54 36 5 67 20 67 58" id="bw"/><g id="at"><use transform="matrix(0.07407407407407407,0,0,0.07407407407407407,0,0)" xlink:href="#bw"/><path fill="#635dff" d="M-1.33 2.25H19.1v1.3H-1.32z"/></g><path fill="#3a414a" d="M75-131c50 2 93 3 93-48 0-46-48-41-93-41v89zm0 115c55 4 111 6 111-51 0-53-58-48-111-48v99zm148-52C223 24 102-3 10 0v-9l31-5v-208l-31-4v-10c77 6 193-24 194 56 0 33-20 48-48 54 36 5 67 20 67 58" id="bx"/><path fill="#3a414a" d="M60-80l68-73c-7-3-20 0-17-12h58c3 13-13 9-20 12l-47 48 60 93c7 3 21-1 18 12h-68c-3-12 9-9 15-12L82-83 60-60v48c7 3 21-1 18 12H10v-8l21-4v-226l-24-4v-8h53v170" id="by"/><g id="au"><use transform="matrix(0.06172839506172839,0,0,0.06172839506172839,0,0)" xlink:href="#bx"/><use transform="matrix(0.06172839506172839,0,0,0.06172839506172839,14.814814814814813,0)" xlink:href="#aC"/><use transform="matrix(0.06172839506172839,0,0,0.06172839506172839,24.629629629629626,0)" xlink:href="#aB"/><use transform="matrix(0.06172839506172839,0,0,0.06172839506172839,34.44444444444444,0)" xlink:href="#by"/></g></defs></g></svg>