<svg xmlns="http://www.w3.org/2000/svg" xmlns:xlink="http://www.w3.org/1999/xlink" xmlns:lucid="lucid" width="932.73" height="857"><g transform="translate(-289.63436345341415 37.83333333333326)" lucid:page-tab-id="0_0"><path d="M0-500h1500v1500H0z" fill="#fff"/><path d="M326.37-10.83a6 6 0 0 1 6-6h863a6 6 0 0 1 6 6v803a6 6 0 0 1-6 6h-863a6 6 0 0 1-6-6z" stroke="#282c33" stroke-width="2" fill="#fff"/><path d="M356.37 114.08a6 6 0 0 1 6-6h818a6 6 0 0 1 6 6v256.64a6 6 0 0 1-6 6h-818a6 6 0 0 1-6-6z" stroke="#282c33" stroke-width="2" fill="#fff"/><path d="M358.87 110.53a6 6 0 0 1 6-6h260.56a6 6 0 0 1 6 6v67.9a6 6 0 0 1-6 6H364.87a6 6 0 0 1-6-6z" stroke="#000" stroke-opacity="0" stroke-width="2" fill="#fff" fill-opacity="0"/><use xlink:href="#a" transform="matrix(1,0,0,1,363.8656365465863,109.5250964450895) translate(11.746913580246911 41.56944444444444)"/><use xlink:href="#b" transform="matrix(1,0,0,1,363.8656365465863,109.5250964450895) translate(70.01851851851852 41.56944444444444)"/><use xlink:href="#c" transform="matrix(1,0,0,1,363.8656365465863,109.5250964450895) translate(185.57407407407405 41.56944444444444)"/><path d="M311.43 164.17a6 6 0 0 1 6-6h228a6 6 0 0 1 6 6v48a6 6 0 0 1-6 6h-228a6 6 0 0 1-6-6z" stroke="#000" stroke-opacity="0" stroke-width="2" fill="#fff" fill-opacity="0"/><use xlink:href="#d" transform="matrix(1,0,0,1,316.42603012008067,163.16666666666674) translate(63.1851851851852 30.708333333333332)"/><path d="M1028.37 124.47c-6.63 0-12 5.37-12 12v16c0 6.63 5.37 12 12 12h136c6.62 0 12-5.37 12-12v-16c0-6.63-5.38-12-12-12z" stroke="#282c33" stroke-width="2" fill="#fff"/><use xlink:href="#e" transform="matrix(1,0,0,1,1026.3656365465863,128.47088155587812) translate(17.407407407407405 20.444444444444443)"/><use xlink:href="#f" transform="matrix(1,0,0,1,1026.3656365465863,128.47088155587812) translate(74.5679012345679 20.444444444444443)"/><path d="M556.37 195.02a6 6 0 0 1 6-6h228a6 6 0 0 1 6 6v48a6 6 0 0 1-6 6h-228a6 6 0 0 1-6-6z" stroke="#000" stroke-opacity="0" stroke-width="2" fill="#fff" fill-opacity="0"/><path d="M356.37 218.4a6 6 0 0 1 6-6h228a6 6 0 0 1 6 6v48a6 6 0 0 1-6 6h-228a6 6 0 0 1-6-6z" stroke="#000" stroke-opacity="0" stroke-width="2" fill="#fff" fill-opacity="0"/><use xlink:href="#g" transform="matrix(1,0,0,1,361.3656365465863,217.4000964450895) translate(20.000000000000014 30.708333333333332)"/><use xlink:href="#h" transform="matrix(1,0,0,1,361.3656365465863,217.4000964450895) translate(94.59259259259261 30.708333333333332)"/><use xlink:href="#i" transform="matrix(1,0,0,1,361.3656365465863,217.4000964450895) translate(145.7037037037037 30.708333333333332)"/><use xlink:href="#j" transform="matrix(1,0,0,1,361.3656365465863,217.4000964450895) translate(161.18518518518516 30.708333333333332)"/><path d="M431.43 164.17a6 6 0 0 1 6-6h228a6 6 0 0 1 6 6v48a6 6 0 0 1-6 6h-228a6 6 0 0 1-6-6z" stroke="#000" stroke-opacity="0" stroke-width="2" fill="#fff" fill-opacity="0"/><use xlink:href="#k" transform="matrix(1,0,0,1,436.42603012008067,163.16666666666674) translate(67.70370370370371 30.708333333333332)"/><path d="M311.43 322.72a6 6 0 0 1 6-6h228a6 6 0 0 1 6 6v48a6 6 0 0 1-6 6h-228a6 6 0 0 1-6-6z" stroke="#000" stroke-opacity="0" stroke-width="2" fill="#fff" fill-opacity="0"/><use xlink:href="#l" transform="matrix(1,0,0,1,316.42603012008067,321.71685955684575) translate(67 30.708333333333332)"/><path d="M691.43 184.17a6 6 0 0 1 6-6h472.94a6 6 0 0 1 6 6V355.1a6 6 0 0 1-6 6H697.43a6 6 0 0 1-6-6z" stroke="#000" stroke-opacity="0" stroke-width="2" fill="#fff" fill-opacity="0"/><use xlink:href="#m" transform="matrix(1,0,0,1,696.4260301200807,183.16666666666652) translate(15.268229166666629 57.79557291666667)"/><use xlink:href="#n" transform="matrix(1,0,0,1,696.4260301200807,183.16666666666652) translate(76.16276041666663 57.79557291666667)"/><use xlink:href="#o" transform="matrix(1,0,0,1,696.4260301200807,183.16666666666652) translate(134.89713541666663 57.79557291666667)"/><use xlink:href="#p" transform="matrix(1,0,0,1,696.4260301200807,183.16666666666652) translate(186.07552083333331 57.79557291666667)"/><use xlink:href="#q" transform="matrix(1,0,0,1,696.4260301200807,183.16666666666652) translate(211.140625 57.79557291666667)"/><use xlink:href="#r" transform="matrix(1,0,0,1,696.4260301200807,183.16666666666652) translate(265.37239583333337 57.79557291666667)"/><use xlink:href="#s" transform="matrix(1,0,0,1,696.4260301200807,183.16666666666652) translate(372.83333333333337 57.79557291666667)"/><use xlink:href="#t" transform="matrix(1,0,0,1,696.4260301200807,183.16666666666652) translate(16.8359375 83.21614583333334)"/><use xlink:href="#u" transform="matrix(1,0,0,1,696.4260301200807,183.16666666666652) translate(52.76562500000001 83.21614583333334)"/><use xlink:href="#v" transform="matrix(1,0,0,1,696.4260301200807,183.16666666666652) translate(88.43098958333334 83.21614583333334)"/><use xlink:href="#w" transform="matrix(1,0,0,1,696.4260301200807,183.16666666666652) translate(115.99348958333334 83.21614583333334)"/><use xlink:href="#x" transform="matrix(1,0,0,1,696.4260301200807,183.16666666666652) translate(196.47526041666669 83.21614583333334)"/><use xlink:href="#y" transform="matrix(1,0,0,1,696.4260301200807,183.16666666666652) translate(266.08333333333337 83.21614583333334)"/><use xlink:href="#z" transform="matrix(1,0,0,1,696.4260301200807,183.16666666666652) translate(357.82161458333337 83.21614583333334)"/><use xlink:href="#A" transform="matrix(1,0,0,1,696.4260301200807,183.16666666666652) translate(380.7174479166667 83.21614583333334)"/><use xlink:href="#B" transform="matrix(1,0,0,1,696.4260301200807,183.16666666666652) translate(441.1015625 83.21614583333334)"/><use xlink:href="#C" transform="matrix(1,0,0,1,696.4260301200807,183.16666666666652) translate(7.707682291666629 108.63671875000001)"/><use xlink:href="#D" transform="matrix(1,0,0,1,696.4260301200807,183.16666666666652) translate(68.98502604166663 108.63671875000001)"/><use xlink:href="#E" transform="matrix(1,0,0,1,696.4260301200807,183.16666666666652) translate(133.64388020833331 108.63671875000001)"/><use xlink:href="#F" transform="matrix(1,0,0,1,696.4260301200807,183.16666666666652) translate(196.56184895833331 108.63671875000001)"/><use xlink:href="#G" transform="matrix(1,0,0,1,696.4260301200807,183.16666666666652) translate(221.59049479166666 108.63671875000001)"/><use xlink:href="#H" transform="matrix(1,0,0,1,696.4260301200807,183.16666666666652) translate(270.4537760416667 108.63671875000001)"/><use xlink:href="#I" transform="matrix(1,0,0,1,696.4260301200807,183.16666666666652) translate(297.123046875 108.63671875000001)"/><use xlink:href="#J" transform="matrix(1,0,0,1,696.4260301200807,183.16666666666652) translate(357.5983072916667 108.63671875000001)"/><use xlink:href="#K" transform="matrix(1,0,0,1,696.4260301200807,183.16666666666652) translate(430.7701822916667 108.63671875000001)"/><use xlink:href="#L" transform="matrix(1,0,0,1,696.4260301200807,183.16666666666652) translate(52.223307291666686 134.05729166666669)"/><use xlink:href="#M" transform="matrix(1,0,0,1,696.4260301200807,183.16666666666652) translate(125.81445312500001 134.05729166666669)"/><use xlink:href="#N" transform="matrix(1,0,0,1,696.4260301200807,183.16666666666652) translate(232.509765625 134.05729166666669)"/><use xlink:href="#O" transform="matrix(1,0,0,1,696.4260301200807,183.16666666666652) translate(306.16471354166663 134.05729166666669)"/><use xlink:href="#P" transform="matrix(1,0,0,1,696.4260301200807,183.16666666666652) translate(370.076171875 134.05729166666669)"/><use xlink:href="#Q" transform="matrix(1,0,0,1,696.4260301200807,183.16666666666652) translate(404.7298177083333 134.05729166666669)"/><path d="M356.37 36.33a6 6 0 0 1 6-6h188a6 6 0 0 1 6 6v28a6 6 0 0 1-6 6h-188a6 6 0 0 1-6-6z" stroke="#282c33" stroke-width="2" fill="#fff"/><path d="M520.37 40.33a6 6 0 0 1 6-6h20a6 6 0 0 1 6 6v20a6 6 0 0 1-6 6h-20a6 6 0 0 1-6-6z" stroke="#282c33" stroke-width="2" fill="none"/><path d="M526.77 43.93h19.2l-9.6 12.8z" stroke="#282c33" stroke-width="2" fill="#282c33"/><g><use xlink:href="#R" transform="matrix(1,0,0,1,368.3656365465863,30.333333333333258) translate(0 24.444444444444443)"/><use xlink:href="#S" transform="matrix(1,0,0,1,368.3656365465863,30.333333333333258) translate(42.53086419753087 24.444444444444443)"/></g><path d="M506.37 728.17h480v20h-480z" fill="none"/><g><use xlink:href="#T" transform="matrix(1,0,0,1,613.0323032132529,728.1666666666667) translate(8.5 14.4)"/></g><g><use xlink:href="#U" transform="matrix(1,0,0,1,639.6989698799197,728.1666666666667) translate(8.5 14.4)"/></g><g><use xlink:href="#V" transform="matrix(1,0,0,1,666.3656365465863,728.1666666666667) translate(8.5 14.4)"/></g><g><use xlink:href="#W" transform="matrix(1,0,0,1,693.032303213253,728.1666666666667) translate(8.5 14.4)"/></g><g><use xlink:href="#X" transform="matrix(1,0,0,1,719.6989698799197,728.1666666666667) translate(8.5 14.4)"/></g><g><use xlink:href="#Y" transform="matrix(1,0,0,1,746.3656365465863,728.1666666666667) translate(8.5 14.4)"/></g><g><use xlink:href="#Z" transform="matrix(1,0,0,1,773.032303213253,728.1666666666667) translate(8.5 14.4)"/></g><g><use xlink:href="#aa" transform="matrix(1,0,0,1,799.6989698799197,728.1666666666667) translate(8.5 14.4)"/></g><g><use xlink:href="#ab" transform="matrix(1,0,0,1,826.3656365465863,728.1666666666667) translate(8.5 14.4)"/></g><g><use xlink:href="#ac" transform="matrix(1,0,0,1,853.032303213253,728.1666666666667) translate(3.5 14.4)"/></g><g><use xlink:href="#ad" transform="matrix(1,0,0,1,506.3656365465863,728.1666666666667) translate(0 14.4)"/><use xlink:href="#ae" transform="matrix(1,0,0,1,506.3656365465863,728.1666666666667) translate(26 14.4)"/></g><g><use xlink:href="#af" transform="matrix(1,0,0,1,879.6989698799197,728.1666666666667) translate(42.099999999999994 14.4)"/><use xlink:href="#ag" transform="matrix(1,0,0,1,879.6989698799197,728.1666666666667) translate(86 14.4)"/></g><path d="M866.37 32.54a6 6 0 0 1 6-6h307.2a6 6 0 0 1 6 6v35.59a6 6 0 0 1-6 6h-307.2a6 6 0 0 1-6-6z" stroke="#282c33" stroke-width="2" fill="#fff"/><g><use xlink:href="#ah" transform="matrix(1,0,0,1,871.3656365465868,31.541666666666742) translate(126.66666666666667 22.52777777777778)"/></g><path d="M355.57 406.17a6 6 0 0 1 6-6h818a6 6 0 0 1 6 6V662.8a6 6 0 0 1-6 6h-818a6 6 0 0 1-6-6z" stroke="#282c33" stroke-width="2" fill="#fff"/><path d="M358.07 402.6a6 6 0 0 1 6-6h260.56a6 6 0 0 1 6 6v67.9a6 6 0 0 1-6 6H364.07a6 6 0 0 1-6-6z" stroke="#000" stroke-opacity="0" stroke-width="2" fill="#fff" fill-opacity="0"/><g><use xlink:href="#a" transform="matrix(1,0,0,1,363.0739698799198,401.608429778423) translate(11.746913580246911 41.56944444444444)"/><use xlink:href="#b" transform="matrix(1,0,0,1,363.0739698799198,401.608429778423) translate(70.01851851851852 41.56944444444444)"/><use xlink:href="#c" transform="matrix(1,0,0,1,363.0739698799198,401.608429778423) translate(185.57407407407405 41.56944444444444)"/></g><path d="M310.63 456.25a6 6 0 0 1 6-6h228a6 6 0 0 1 6 6v48a6 6 0 0 1-6 6h-228a6 6 0 0 1-6-6z" stroke="#000" stroke-opacity="0" stroke-width="2" fill="#fff" fill-opacity="0"/><g><use xlink:href="#d" transform="matrix(1,0,0,1,315.63436345341415,455.2500000000002) translate(63.1851851851852 30.708333333333332)"/></g><path d="M1027.57 416.55c-6.62 0-12 5.38-12 12v16c0 6.63 5.38 12 12 12h136c6.63 0 12-5.37 12-12v-16c0-6.62-5.37-12-12-12z" stroke="#282c33" stroke-width="2" fill="#fff"/><g><use xlink:href="#e" transform="matrix(1,0,0,1,1025.5739698799198,420.5542148892116) translate(17.407407407407405 20.444444444444443)"/><use xlink:href="#f" transform="matrix(1,0,0,1,1025.5739698799198,420.5542148892116) translate(74.5679012345679 20.444444444444443)"/></g><path d="M555.57 487.1a6 6 0 0 1 6-6h228a6 6 0 0 1 6 6v48a6 6 0 0 1-6 6h-228a6 6 0 0 1-6-6z" stroke="#000" stroke-opacity="0" stroke-width="2" fill="#fff" fill-opacity="0"/><path d="M355.57 510.48a6 6 0 0 1 6-6h228a6 6 0 0 1 6 6v48a6 6 0 0 1-6 6h-228a6 6 0 0 1-6-6z" stroke="#000" stroke-opacity="0" stroke-width="2" fill="#fff" fill-opacity="0"/><g><use xlink:href="#g" transform="matrix(1,0,0,1,360.5739698799198,509.483429778423) translate(20.000000000000014 30.708333333333332)"/><use xlink:href="#h" transform="matrix(1,0,0,1,360.5739698799198,509.483429778423) translate(94.59259259259261 30.708333333333332)"/><use xlink:href="#i" transform="matrix(1,0,0,1,360.5739698799198,509.483429778423) translate(145.7037037037037 30.708333333333332)"/><use xlink:href="#j" transform="matrix(1,0,0,1,360.5739698799198,509.483429778423) translate(161.18518518518516 30.708333333333332)"/></g><path d="M430.63 456.25a6 6 0 0 1 6-6h228a6 6 0 0 1 6 6v48a6 6 0 0 1-6 6h-228a6 6 0 0 1-6-6z" stroke="#000" stroke-opacity="0" stroke-width="2" fill="#fff" fill-opacity="0"/><g><use xlink:href="#k" transform="matrix(1,0,0,1,435.63436345341415,455.2500000000002) translate(67.70370370370371 30.708333333333332)"/></g><path d="M310.63 614.8a6 6 0 0 1 6-6h228a6 6 0 0 1 6 6v48a6 6 0 0 1-6 6h-228a6 6 0 0 1-6-6z" stroke="#000" stroke-opacity="0" stroke-width="2" fill="#fff" fill-opacity="0"/><g><use xlink:href="#l" transform="matrix(1,0,0,1,315.63436345341415,613.8001928901792) translate(67 30.708333333333332)"/></g><path d="M690.63 476.25a6 6 0 0 1 6-6h472.94a6 6 0 0 1 6 6v170.92a6 6 0 0 1-6 6H696.63a6 6 0 0 1-6-6z" stroke="#000" stroke-opacity="0" stroke-width="2" fill="#fff" fill-opacity="0"/><g><use xlink:href="#m" transform="matrix(1,0,0,1,695.6343634534142,475.25) translate(15.268229166666629 57.79557291666667)"/><use xlink:href="#n" transform="matrix(1,0,0,1,695.6343634534142,475.25) translate(76.16276041666663 57.79557291666667)"/><use xlink:href="#o" transform="matrix(1,0,0,1,695.6343634534142,475.25) translate(134.89713541666663 57.79557291666667)"/><use xlink:href="#p" transform="matrix(1,0,0,1,695.6343634534142,475.25) translate(186.07552083333331 57.79557291666667)"/><use xlink:href="#q" transform="matrix(1,0,0,1,695.6343634534142,475.25) translate(211.140625 57.79557291666667)"/><use xlink:href="#r" transform="matrix(1,0,0,1,695.6343634534142,475.25) translate(265.37239583333337 57.79557291666667)"/><use xlink:href="#s" transform="matrix(1,0,0,1,695.6343634534142,475.25) translate(372.83333333333337 57.79557291666667)"/><use xlink:href="#t" transform="matrix(1,0,0,1,695.6343634534142,475.25) translate(16.8359375 83.21614583333334)"/><use xlink:href="#u" transform="matrix(1,0,0,1,695.6343634534142,475.25) translate(52.76562500000001 83.21614583333334)"/><use xlink:href="#v" transform="matrix(1,0,0,1,695.6343634534142,475.25) translate(88.43098958333334 83.21614583333334)"/><use xlink:href="#w" transform="matrix(1,0,0,1,695.6343634534142,475.25) translate(115.99348958333334 83.21614583333334)"/><use xlink:href="#x" transform="matrix(1,0,0,1,695.6343634534142,475.25) translate(196.47526041666669 83.21614583333334)"/><use xlink:href="#y" transform="matrix(1,0,0,1,695.6343634534142,475.25) translate(266.08333333333337 83.21614583333334)"/><use xlink:href="#z" transform="matrix(1,0,0,1,695.6343634534142,475.25) translate(357.82161458333337 83.21614583333334)"/><use xlink:href="#A" transform="matrix(1,0,0,1,695.6343634534142,475.25) translate(380.7174479166667 83.21614583333334)"/><use xlink:href="#B" transform="matrix(1,0,0,1,695.6343634534142,475.25) translate(441.1015625 83.21614583333334)"/><use xlink:href="#C" transform="matrix(1,0,0,1,695.6343634534142,475.25) translate(7.707682291666629 108.63671875000001)"/><use xlink:href="#D" transform="matrix(1,0,0,1,695.6343634534142,475.25) translate(68.98502604166663 108.63671875000001)"/><use xlink:href="#E" transform="matrix(1,0,0,1,695.6343634534142,475.25) translate(133.64388020833331 108.63671875000001)"/><use xlink:href="#F" transform="matrix(1,0,0,1,695.6343634534142,475.25) translate(196.56184895833331 108.63671875000001)"/><use xlink:href="#G" transform="matrix(1,0,0,1,695.6343634534142,475.25) translate(221.59049479166666 108.63671875000001)"/><use xlink:href="#H" transform="matrix(1,0,0,1,695.6343634534142,475.25) translate(270.4537760416667 108.63671875000001)"/><use xlink:href="#I" transform="matrix(1,0,0,1,695.6343634534142,475.25) translate(297.123046875 108.63671875000001)"/><use xlink:href="#J" transform="matrix(1,0,0,1,695.6343634534142,475.25) translate(357.5983072916667 108.63671875000001)"/><use xlink:href="#K" transform="matrix(1,0,0,1,695.6343634534142,475.25) translate(430.7701822916667 108.63671875000001)"/><use xlink:href="#L" transform="matrix(1,0,0,1,695.6343634534142,475.25) translate(52.223307291666686 134.05729166666669)"/><use xlink:href="#M" transform="matrix(1,0,0,1,695.6343634534142,475.25) translate(125.81445312500001 134.05729166666669)"/><use xlink:href="#N" transform="matrix(1,0,0,1,695.6343634534142,475.25) translate(232.509765625 134.05729166666669)"/><use xlink:href="#O" transform="matrix(1,0,0,1,695.6343634534142,475.25) translate(306.16471354166663 134.05729166666669)"/><use xlink:href="#P" transform="matrix(1,0,0,1,695.6343634534142,475.25) translate(370.076171875 134.05729166666669)"/><use xlink:href="#Q" transform="matrix(1,0,0,1,695.6343634534142,475.25) translate(404.7298177083333 134.05729166666669)"/></g><defs><path fill="#3a414a" d="M106-76c4 61-43 93-98 74v-43h11c2 18 5 33 28 33 16 0 25-11 25-33v-177l-30-4v-10h91v10l-27 4v146" id="ai"/><path fill="#3a414a" d="M90-170c52 0 76 32 76 87 0 54-24 87-77 87-51 0-75-34-75-87 0-54 24-87 76-87zM89-10c39 0 46-35 46-73 0-39-7-73-46-73-39 1-44 34-44 73s6 72 44 73" id="aj"/><path fill="#3a414a" d="M53-14c58 12 82-15 82-73 0-52-35-77-82-58v131zM89 4C64 4 42-2 24-9v-229l-24-4v-8h53l-1 94c48-33 114-4 114 69 0 57-23 91-77 91" id="ak"/><g id="a"><use transform="matrix(0.09876543209876544,0,0,0.09876543209876544,0,0)" xlink:href="#ai"/><use transform="matrix(0.09876543209876544,0,0,0.09876543209876544,13.827160493827162,0)" xlink:href="#aj"/><use transform="matrix(0.09876543209876544,0,0,0.09876543209876544,31.60493827160494,0)" xlink:href="#ak"/></g><path fill="#3a414a" d="M75-108c48 3 76-12 76-58s-28-57-76-54v112zm111-58c-1 60-46 78-111 74v78l37 5v9H13v-9l28-5v-208l-31-4v-10c81 1 178-14 176 70" id="al"/><path fill="#3a414a" d="M41-130c7 48 86 23 86 84 0 56-69 57-112 41v-40c20 0 9 29 31 31 35 19 77-26 41-50-27-18-72-13-72-59 0-50 58-52 100-41v36c-19 1-8-25-28-25-21-7-50-1-46 23" id="am"/><path fill="#3a414a" d="M54-38c-1 25 24 26 44 20v12C71 10 25 9 25-35v-115H4c-2-14 14-10 21-15l18-38h11v38h38v15H54v112" id="an"/><path fill="#3a414a" d="M47-200c-23 0-25-39 0-38 13 0 18 7 20 19-1 11-8 19-20 19zM65-12l28 4v8H8v-8l28-4v-141l-24-4v-8h53v153" id="ao"/><path fill="#3a414a" d="M125-118c4-37-41-34-68-26v132l23 4v8H8C5-13 21-9 28-12v-141c-7-3-23 1-20-12h47l2 13c31-23 98-29 98 31v109c7 3 23-1 20 12h-72v-8l22-4v-106" id="ap"/><path fill="#3a414a" d="M141-152c28 39 5 97-54 97-9 0-20-2-27-3L49-35c29 22 130-14 124 52-4 45-38 57-88 61C21 83-8 26 45-2 33-6 22-15 21-31l28-31c-19-9-28-26-28-51-2-51 53-65 100-52l38-20 7 8zM85 64c35 0 61-11 61-42 0-35-57-17-89-21-9 8-16 19-17 34 0 25 19 29 45 29zM52-113c1 26 7 46 35 44 28-1 34-16 35-44 0-26-6-43-34-43s-36 17-36 43" id="aq"/><g id="b"><use transform="matrix(0.09876543209876544,0,0,0.09876543209876544,0,0)" xlink:href="#al"/><use transform="matrix(0.09876543209876544,0,0,0.09876543209876544,19.75308641975309,0)" xlink:href="#aj"/><use transform="matrix(0.09876543209876544,0,0,0.09876543209876544,37.53086419753087,0)" xlink:href="#am"/><use transform="matrix(0.09876543209876544,0,0,0.09876543209876544,51.35802469135803,0)" xlink:href="#an"/><use transform="matrix(0.09876543209876544,0,0,0.09876543209876544,61.23456790123457,0)" xlink:href="#ao"/><use transform="matrix(0.09876543209876544,0,0,0.09876543209876544,71.11111111111111,0)" xlink:href="#ap"/><use transform="matrix(0.09876543209876544,0,0,0.09876543209876544,88.88888888888889,0)" xlink:href="#aq"/></g><path fill="#3a414a" d="M55 0v-9l38-5v-207c-22 1-53 0-70 4l-5 37H7v-56h207v56h-12l-5-37-70-3v206l37 5v9H55" id="ar"/><path fill="#3a414a" d="M65-12l28 4v8H7v-8l28-4v-226l-28-4v-8h58v238" id="as"/><path fill="#3a414a" d="M84-170c49 0 66 33 63 87H46c-8 60 38 80 95 63v10C128-2 108 4 88 4 34 4 14-29 14-84c-1-54 22-86 70-86zm33 73c12-57-57-82-69-24-1 7-2 15-2 24h71" id="at"/><g id="c"><use transform="matrix(0.09876543209876544,0,0,0.09876543209876544,0,0)" xlink:href="#ar"/><use transform="matrix(0.09876543209876544,0,0,0.09876543209876544,20.34567901234568,0)" xlink:href="#ao"/><use transform="matrix(0.09876543209876544,0,0,0.09876543209876544,30.222222222222225,0)" xlink:href="#an"/><use transform="matrix(0.09876543209876544,0,0,0.09876543209876544,40.09876543209877,0)" xlink:href="#as"/><use transform="matrix(0.09876543209876544,0,0,0.09876543209876544,49.97530864197532,0)" xlink:href="#at"/></g><path fill="#3a414a" d="M52-115c0 93 80 130 150 87l7-35h11l-1 55c-23 7-52 12-83 12C60 4 19-37 15-115c-5-113 97-141 201-114l1 51h-12l-5-30c-15-9-39-16-62-16-66 0-86 41-86 109" id="au"/><path fill="#3a414a" d="M126-118c4-37-42-32-68-25v131l24 4v8H8C5-13 21-9 28-12v-141c-7-3-23 1-20-12h48l1 13c22-15 77-30 92 2 32-22 104-36 104 29v109c8 3 24-2 21 12h-75v-8l25-4v-106c3-39-45-31-72-24 7 37 1 88 3 130l25 4v8h-78v-8l24-4v-106" id="av"/><path fill="#3a414a" d="M166-85c3 67-44 102-111 85l1 64 29 4v9H6v-9l21-4v-217c-7-3-22 1-19-12h46l1 9c11-8 26-14 45-14 47 2 64 36 66 85zM56-13c53 14 83-14 78-72 7-53-33-79-78-60v132" id="aw"/><path fill="#3a414a" d="M32-163c41-10 102-14 102 39v112c8 3 24-2 21 12h-45l-4-17C83 13 3 13 13-46c-2-50 45-50 92-51 4-36-5-70-42-56-6 2-12 4-16 6-4 7 0 23-15 20v-36zM42-47c0 41 41 33 63 22v-59c-34 1-63-1-63 37" id="ax"/><path fill="#3a414a" d="M161-154L85 37C75 66 49 86 8 75V39c18-2 6 24 29 21 30-4 38-32 47-58L21-153c-7-3-20 0-17-12h77v8l-26 4 45 116 43-116-26-4v-8h62v8" id="ay"/><g id="d"><use transform="matrix(0.07407407407407407,0,0,0.07407407407407407,0,0)" xlink:href="#au"/><use transform="matrix(0.07407407407407407,0,0,0.07407407407407407,17.77777777777778,0)" xlink:href="#aj"/><use transform="matrix(0.07407407407407407,0,0,0.07407407407407407,31.11111111111111,0)" xlink:href="#av"/><use transform="matrix(0.07407407407407407,0,0,0.07407407407407407,51.85185185185185,0)" xlink:href="#aw"/><use transform="matrix(0.07407407407407407,0,0,0.07407407407407407,65.18518518518518,0)" xlink:href="#ax"/><use transform="matrix(0.07407407407407407,0,0,0.07407407407407407,76.96296296296295,0)" xlink:href="#ap"/><use transform="matrix(0.07407407407407407,0,0,0.07407407407407407,90.29629629629628,0)" xlink:href="#ay"/></g><path fill="#3a414a" d="M111-226l-36 4v207c33-1 73 2 101-4l11-49h11l-3 68H10v-9l31-5v-208l-31-4v-10h101v10" id="az"/><path fill="#3a414a" d="M57-145c16-10 35-24 60-25v45c-19 1-8-30-40-17l-20 6v124l29 4v8H7v-8l21-4v-141c-8-3-24 2-21-12h48" id="aA"/><g id="e"><use transform="matrix(0.06172839506172839,0,0,0.06172839506172839,0,0)" xlink:href="#az"/><use transform="matrix(0.06172839506172839,0,0,0.06172839506172839,13.518518518518517,0)" xlink:href="#at"/><use transform="matrix(0.06172839506172839,0,0,0.06172839506172839,23.333333333333332,0)" xlink:href="#ax"/><use transform="matrix(0.06172839506172839,0,0,0.06172839506172839,33.148148148148145,0)" xlink:href="#aA"/><use transform="matrix(0.06172839506172839,0,0,0.06172839506172839,40.49382716049382,0)" xlink:href="#ap"/></g><path fill="#3a414a" d="M152 0h-7L59-203v189l32 5v9H10v-9l31-5v-208l-31-4v-10h72l76 180 84-180h68v10l-31 4v208l31 5v9h-96v-9l32-5v-189" id="aB"/><g id="f"><use transform="matrix(0.06172839506172839,0,0,0.06172839506172839,0,0)" xlink:href="#aB"/><use transform="matrix(0.06172839506172839,0,0,0.06172839506172839,19.753086419753085,0)" xlink:href="#aj"/><use transform="matrix(0.06172839506172839,0,0,0.06172839506172839,30.864197530864196,0)" xlink:href="#aA"/><use transform="matrix(0.06172839506172839,0,0,0.06172839506172839,38.20987654320987,0)" xlink:href="#at"/></g><path fill="#3a414a" d="M178-68c0 79-95 82-154 59v-54h12c1 35 22 52 60 52 50 0 69-58 33-82-39-24-105-21-105-85 0-67 86-66 142-53v49h-12l-6-29c-31-27-121-7-89 42 28 43 119 24 119 101" id="aC"/><g id="g"><use transform="matrix(0.07407407407407407,0,0,0.07407407407407407,0,0)" xlink:href="#aC"/><use transform="matrix(0.07407407407407407,0,0,0.07407407407407407,14.814814814814813,0)" xlink:href="#ax"/><use transform="matrix(0.07407407407407407,0,0,0.07407407407407407,26.592592592592588,0)" xlink:href="#as"/><use transform="matrix(0.07407407407407407,0,0,0.07407407407407407,33.99999999999999,0)" xlink:href="#ax"/><use transform="matrix(0.07407407407407407,0,0,0.07407407407407407,45.77777777777778,0)" xlink:href="#aA"/><use transform="matrix(0.07407407407407407,0,0,0.07407407407407407,54.59259259259259,0)" xlink:href="#ay"/></g><g id="h"><use transform="matrix(0.07407407407407407,0,0,0.07407407407407407,0,0)" xlink:href="#aB"/><use transform="matrix(0.07407407407407407,0,0,0.07407407407407407,23.703703703703702,0)" xlink:href="#ao"/><use transform="matrix(0.07407407407407407,0,0,0.07407407407407407,31.111111111111104,0)" xlink:href="#ap"/></g><path fill="#3a414a" d="M13-71v-27h94v27H13" id="aD"/><use transform="matrix(0.07407407407407407,0,0,0.07407407407407407,0,0)" xlink:href="#aD" id="i"/><path fill="#3a414a" d="M156-12c7 3 23-1 20 12h-75v-8l22-4-38-58-45 58 23 4v8H3v-8l19-3 55-71-48-71c-7-3-23 1-20-12h75v8l-22 4 32 48 37-48-23-4v-8h59v8l-19 3-46 60" id="aE"/><g id="j"><use transform="matrix(0.07407407407407407,0,0,0.07407407407407407,0,0)" xlink:href="#aB"/><use transform="matrix(0.07407407407407407,0,0,0.07407407407407407,23.703703703703702,0)" xlink:href="#ax"/><use transform="matrix(0.07407407407407407,0,0,0.07407407407407407,35.48148148148148,0)" xlink:href="#aE"/></g><path fill="#3a414a" d="M45-84c0 64 52 80 104 63 1 25-30 25-55 25-56 0-80-32-80-88 0-76 62-98 131-80v46h-10c-5-15-4-31-23-35-47-10-67 21-67 69" id="aF"/><g id="k"><use transform="matrix(0.07407407407407407,0,0,0.07407407407407407,0,0)" xlink:href="#az"/><use transform="matrix(0.07407407407407407,0,0,0.07407407407407407,16.22222222222222,0)" xlink:href="#aj"/><use transform="matrix(0.07407407407407407,0,0,0.07407407407407407,29.555555555555554,0)" xlink:href="#aF"/><use transform="matrix(0.07407407407407407,0,0,0.07407407407407407,41.33333333333333,0)" xlink:href="#ax"/><use transform="matrix(0.07407407407407407,0,0,0.07407407407407407,53.11111111111111,0)" xlink:href="#an"/><use transform="matrix(0.07407407407407407,0,0,0.07407407407407407,60.51851851851851,0)" xlink:href="#ao"/><use transform="matrix(0.07407407407407407,0,0,0.07407407407407407,67.92592592592592,0)" xlink:href="#aj"/><use transform="matrix(0.07407407407407407,0,0,0.07407407407407407,81.25925925925925,0)" xlink:href="#ap"/></g><path fill="#3a414a" d="M75-17c87 13 134-18 134-103 0-78-51-106-134-100v203zm171-102C246 5 139 7 10 0v-9l31-5v-208l-31-4v-10h107c82 0 129 35 129 117" id="aG"/><path fill="#3a414a" d="M13-81c0-71 46-101 114-85l-1-72-28-4v-8h57v238c8 3 24-2 21 12h-47l-2-12C80 23 13-1 13-81zm77-74c-37 1-44 33-45 74 0 38 9 66 45 66 14 0 27-3 36-7v-130c-10-1-24-3-36-3" id="aH"/><g id="l"><use transform="matrix(0.07407407407407407,0,0,0.07407407407407407,0,0)" xlink:href="#aG"/><use transform="matrix(0.07407407407407407,0,0,0.07407407407407407,19.185185185185183,0)" xlink:href="#at"/><use transform="matrix(0.07407407407407407,0,0,0.07407407407407407,30.962962962962962,0)" xlink:href="#ax"/><use transform="matrix(0.07407407407407407,0,0,0.07407407407407407,42.74074074074074,0)" xlink:href="#aH"/><use transform="matrix(0.07407407407407407,0,0,0.07407407407407407,56.074074074074076,0)" xlink:href="#as"/><use transform="matrix(0.07407407407407407,0,0,0.07407407407407407,63.48148148148148,0)" xlink:href="#ao"/><use transform="matrix(0.07407407407407407,0,0,0.07407407407407407,70.88888888888889,0)" xlink:href="#ap"/><use transform="matrix(0.07407407407407407,0,0,0.07407407407407407,84.22222222222221,0)" xlink:href="#at"/></g><path d="M201 0v-1462h170v1308h645V0H201" id="aI"/><path d="M621-1116c316 0 501 239 501 567 0 339-180 575-508 569S119-212 115-549c-4-339 178-567 506-567zm-5 141c-239 0-329 168-329 426 0 255 93 430 331 430s332-174 332-430-95-426-334-426" id="aJ"/><path d="M340-893c80-153 237-262 467-211l-23 154c-45-10-85-15-120-15-184-3-322 182-322 377V0H176v-1096h137l19 203h8" id="aK"/><path d="M995-51C878-2 799 19 639 20c-329 2-524-221-524-559 0-326 172-577 481-577 278 0 451 210 446 493v105H287c4 242 121 392 358 393 118 0 235-25 350-74v148zM864-653c2-195-85-324-270-324-190 0-288 139-303 324h573" id="aL"/><path d="M1368-1116c259 2 372 131 371 401V0h-166v-713c0-168-66-262-230-262-221 0-303 131-303 363V0H874v-713c-1-169-66-262-231-262-235 0-301 142-301 400V0H176v-1096h135l27 150h8c56-99 174-170 324-170 171 0 283 62 336 186h8c60-108 189-187 354-186" id="aM"/><g id="m"><use transform="matrix(0.009114583333333334,0,0,0.009114583333333334,0,0)" xlink:href="#aI"/><use transform="matrix(0.009114583333333334,0,0,0.009114583333333334,9.688802083333334,0)" xlink:href="#aJ"/><use transform="matrix(0.009114583333333334,0,0,0.009114583333333334,20.963541666666668,0)" xlink:href="#aK"/><use transform="matrix(0.009114583333333334,0,0,0.009114583333333334,28.209635416666668,0)" xlink:href="#aL"/><use transform="matrix(0.009114583333333334,0,0,0.009114583333333334,38.68229166666667,0)" xlink:href="#aM"/></g><path d="M342 0H176v-1096h166V0zm-82-1282c-61 0-98-43-98-111 0-69 36-110 98-110 59 0 98 43 98 110s-39 111-98 111" id="aN"/><path d="M1141-549c0 329-147 569-455 569-159 0-273-61-344-161h-12c23 199 7 418 12 633H176v-1588h135l23 150h8c77-108 175-170 344-170 311 0 455 237 455 567zm-172-2c0-242-88-424-307-424-256 0-323 154-320 426 3 280 68 430 324 430 213 0 303-196 303-432" id="aO"/><path d="M502-977c-130 0-238 32-238 139 0 75 39 101 95 134 33 19 97 46 192 81 130 48 217 95 263 143s69 108 69 181C883-73 695 20 449 20 304 20 190-3 109-49v-154c91 47 216 86 344 86 149 0 270-36 270-168 0-43-21-76-55-109-56-55-367-158-434-208-74-55-128-109-128-225 0-327 490-342 754-217l-59 135c-110-45-210-68-299-68" id="aP"/><path d="M563 20c-271 0-399-123-399-399v-717h168v711c1 177 76 266 252 266 250 0 331-135 331-401v-576h166V0H944l-24-147h-9C848-44 724 20 563 20" id="aQ"/><g id="n"><use transform="matrix(0.009114583333333334,0,0,0.009114583333333334,0,0)" xlink:href="#aN"/><use transform="matrix(0.009114583333333334,0,0,0.009114583333333334,4.721354166666667,0)" xlink:href="#aO"/><use transform="matrix(0.009114583333333334,0,0,0.009114583333333334,16.16015625,0)" xlink:href="#aP"/><use transform="matrix(0.009114583333333334,0,0,0.009114583333333334,25.065104166666668,0)" xlink:href="#aQ"/><use transform="matrix(0.009114583333333334,0,0,0.009114583333333334,36.52213541666667,0)" xlink:href="#aM"/></g><path d="M115-545c0-330 146-571 454-571 149 0 263 54 342 162h13c-20-185-8-401-11-602h166V0H944l-22-147h-9C836-36 722 20 569 20c-309 0-454-234-454-565zm172 2c0 249 78 424 303 424 257 0 327-150 323-426-4-282-68-432-325-432-220 0-301 191-301 434" id="aR"/><path d="M342 0H176v-1556h166V0" id="aS"/><g id="o"><use transform="matrix(0.009114583333333334,0,0,0.009114583333333334,0,0)" xlink:href="#aR"/><use transform="matrix(0.009114583333333334,0,0,0.009114583333333334,11.438802083333334,0)" xlink:href="#aJ"/><use transform="matrix(0.009114583333333334,0,0,0.009114583333333334,22.713541666666668,0)" xlink:href="#aS"/><use transform="matrix(0.009114583333333334,0,0,0.009114583333333334,27.434895833333336,0)" xlink:href="#aJ"/><use transform="matrix(0.009114583333333334,0,0,0.009114583333333334,38.70963541666667,0)" xlink:href="#aK"/></g><path d="M354-322c-2 123 60 204 176 205 51 1 114-10 150-20v127C647 7 557 20 506 20 294 20 188-92 188-315v-652H31v-80l157-69 70-234h96v254h318v129H354v645" id="aT"/><g id="p"><use transform="matrix(0.009114583333333334,0,0,0.009114583333333334,0,0)" xlink:href="#aP"/><use transform="matrix(0.009114583333333334,0,0,0.009114583333333334,8.904947916666668,0)" xlink:href="#aN"/><use transform="matrix(0.009114583333333334,0,0,0.009114583333333334,13.626302083333336,0)" xlink:href="#aT"/></g><path d="M588-1114c260 0 384 106 385 366V0H850l-33-156h-8C708-34 639 17 442 20 231 23 94-94 94-303c0-221 177-337 531-348l186-6c11-203-40-320-233-320-91 0-195 28-310 84l-51-127c97-53 229-94 371-94zM268-301c-1 123 81 184 207 184 203 0 334-120 332-323v-99c-257 14-539-7-539 238" id="aU"/><path d="M63 264c30-115 88-378 105-502h182l15 23C327-69 250 132 188 264H63" id="aV"/><g id="q"><use transform="matrix(0.009114583333333334,0,0,0.009114583333333334,0,0)" xlink:href="#aU"/><use transform="matrix(0.009114583333333334,0,0,0.009114583333333334,10.381510416666668,0)" xlink:href="#aM"/><use transform="matrix(0.009114583333333334,0,0,0.009114583333333334,27.744791666666668,0)" xlink:href="#aL"/><use transform="matrix(0.009114583333333334,0,0,0.009114583333333334,38.21744791666667,0)" xlink:href="#aT"/><use transform="matrix(0.009114583333333334,0,0,0.009114583333333334,44.80729166666667,0)" xlink:href="#aV"/></g><path d="M287-543c-1 247 91 418 323 418 91 0 185-20 281-59v147C818 1 725 20 614 20c-329 0-499-221-499-561 0-349 172-575 510-575 96 0 221 26 282 57l-51 141c-61-25-157-50-235-51-223 0-334 142-334 426" id="aW"/><path d="M694-1116c270 0 399 125 398 401V0H926v-709c-1-177-76-266-252-266-250 0-332 133-332 400V0H176v-1096h135l27 150h8c62-101 190-170 348-170" id="aX"/><g id="r"><use transform="matrix(0.009114583333333334,0,0,0.009114583333333334,0,0)" xlink:href="#aW"/><use transform="matrix(0.009114583333333334,0,0,0.009114583333333334,8.88671875,0)" xlink:href="#aJ"/><use transform="matrix(0.009114583333333334,0,0,0.009114583333333334,20.161458333333336,0)" xlink:href="#aX"/><use transform="matrix(0.009114583333333334,0,0,0.009114583333333334,31.618489583333336,0)" xlink:href="#aP"/><use transform="matrix(0.009114583333333334,0,0,0.009114583333333334,40.5234375,0)" xlink:href="#aL"/><use transform="matrix(0.009114583333333334,0,0,0.009114583333333334,50.99609375,0)" xlink:href="#aW"/><use transform="matrix(0.009114583333333334,0,0,0.009114583333333334,59.88281250000001,0)" xlink:href="#aT"/><use transform="matrix(0.009114583333333334,0,0,0.009114583333333334,66.47265625,0)" xlink:href="#aL"/><use transform="matrix(0.009114583333333334,0,0,0.009114583333333334,76.9453125,0)" xlink:href="#aT"/><use transform="matrix(0.009114583333333334,0,0,0.009114583333333334,83.53515625,0)" xlink:href="#aQ"/><use transform="matrix(0.009114583333333334,0,0,0.009114583333333334,94.9921875,0)" xlink:href="#aK"/></g><path d="M125-741c0-247 161-377 414-375 57 0 109 7 155 20h379v105l-203 24c37 48 72 129 72 219 0 255-227 390-504 345-71 37-106 84-106 141 0 78 66 88 164 88h194c219-1 369 87 369 293 0 121-49 213-146 277s-239 96-426 96c-250 0-448-83-448-306C39 36 147-58 283-86c-52-23-102-79-99-152 4-104 57-143 133-192-107-42-192-164-192-311zM438-25c-143-1-242 70-239 209s131 181 290 181c139 0 242-21 309-63s101-98 101-169c0-147-88-158-262-158H438zm94-970c-158 0-243 88-243 250 0 153 93 233 246 233 162 0 243-79 243-236 0-165-82-247-246-247" id="aY"/><g id="s"><use transform="matrix(0.009114583333333334,0,0,0.009114583333333334,0,0)" xlink:href="#aU"/><use transform="matrix(0.009114583333333334,0,0,0.009114583333333334,10.381510416666668,0)" xlink:href="#aR"/><use transform="matrix(0.009114583333333334,0,0,0.009114583333333334,21.8203125,0)" xlink:href="#aN"/><use transform="matrix(0.009114583333333334,0,0,0.009114583333333334,26.541666666666668,0)" xlink:href="#aO"/><use transform="matrix(0.009114583333333334,0,0,0.009114583333333334,37.98046875,0)" xlink:href="#aN"/><use transform="matrix(0.009114583333333334,0,0,0.009114583333333334,42.701822916666664,0)" xlink:href="#aP"/><use transform="matrix(0.009114583333333334,0,0,0.009114583333333334,51.60677083333333,0)" xlink:href="#aW"/><use transform="matrix(0.009114583333333334,0,0,0.009114583333333334,60.49348958333333,0)" xlink:href="#aN"/><use transform="matrix(0.009114583333333334,0,0,0.009114583333333334,65.21484375,0)" xlink:href="#aX"/><use transform="matrix(0.009114583333333334,0,0,0.009114583333333334,76.671875,0)" xlink:href="#aY"/></g><g id="t"><use transform="matrix(0.009114583333333334,0,0,0.009114583333333334,0,0)" xlink:href="#aL"/><use transform="matrix(0.009114583333333334,0,0,0.009114583333333334,10.47265625,0)" xlink:href="#aS"/><use transform="matrix(0.009114583333333334,0,0,0.009114583333333334,15.194010416666668,0)" xlink:href="#aN"/><use transform="matrix(0.009114583333333334,0,0,0.009114583333333334,19.915364583333336,0)" xlink:href="#aT"/><use transform="matrix(0.009114583333333334,0,0,0.009114583333333334,26.505208333333336,0)" xlink:href="#aV"/></g><g id="u"><use transform="matrix(0.009114583333333334,0,0,0.009114583333333334,0,0)" xlink:href="#aP"/><use transform="matrix(0.009114583333333334,0,0,0.009114583333333334,8.904947916666668,0)" xlink:href="#aL"/><use transform="matrix(0.009114583333333334,0,0,0.009114583333333334,19.377604166666668,0)" xlink:href="#aR"/></g><g id="v"><use transform="matrix(0.009114583333333334,0,0,0.009114583333333334,0,0)" xlink:href="#aR"/><use transform="matrix(0.009114583333333334,0,0,0.009114583333333334,11.438802083333334,0)" xlink:href="#aJ"/></g><g id="w"><use transform="matrix(0.009114583333333334,0,0,0.009114583333333334,0,0)" xlink:href="#aL"/><use transform="matrix(0.009114583333333334,0,0,0.009114583333333334,10.47265625,0)" xlink:href="#aN"/><use transform="matrix(0.009114583333333334,0,0,0.009114583333333334,15.194010416666668,0)" xlink:href="#aQ"/><use transform="matrix(0.009114583333333334,0,0,0.009114583333333334,26.651041666666668,0)" xlink:href="#aP"/><use transform="matrix(0.009114583333333334,0,0,0.009114583333333334,35.555989583333336,0)" xlink:href="#aM"/><use transform="matrix(0.009114583333333334,0,0,0.009114583333333334,52.919270833333336,0)" xlink:href="#aJ"/><use transform="matrix(0.009114583333333334,0,0,0.009114583333333334,64.19401041666667,0)" xlink:href="#aR"/></g><g id="x"><use transform="matrix(0.009114583333333334,0,0,0.009114583333333334,0,0)" xlink:href="#aT"/><use transform="matrix(0.009114583333333334,0,0,0.009114583333333334,6.58984375,0)" xlink:href="#aL"/><use transform="matrix(0.009114583333333334,0,0,0.009114583333333334,17.0625,0)" xlink:href="#aM"/><use transform="matrix(0.009114583333333334,0,0,0.009114583333333334,34.42578125,0)" xlink:href="#aO"/><use transform="matrix(0.009114583333333334,0,0,0.009114583333333334,45.864583333333336,0)" xlink:href="#aJ"/><use transform="matrix(0.009114583333333334,0,0,0.009114583333333334,57.13932291666667,0)" xlink:href="#aK"/></g><g id="y"><use transform="matrix(0.009114583333333334,0,0,0.009114583333333334,0,0)" xlink:href="#aN"/><use transform="matrix(0.009114583333333334,0,0,0.009114583333333334,4.721354166666667,0)" xlink:href="#aX"/><use transform="matrix(0.009114583333333334,0,0,0.009114583333333334,16.178385416666668,0)" xlink:href="#aW"/><use transform="matrix(0.009114583333333334,0,0,0.009114583333333334,25.065104166666668,0)" xlink:href="#aN"/><use transform="matrix(0.009114583333333334,0,0,0.009114583333333334,29.786458333333336,0)" xlink:href="#aR"/><use transform="matrix(0.009114583333333334,0,0,0.009114583333333334,41.22526041666667,0)" xlink:href="#aN"/><use transform="matrix(0.009114583333333334,0,0,0.009114583333333334,45.946614583333336,0)" xlink:href="#aR"/><use transform="matrix(0.009114583333333334,0,0,0.009114583333333334,57.38541666666667,0)" xlink:href="#aQ"/><use transform="matrix(0.009114583333333334,0,0,0.009114583333333334,68.84244791666667,0)" xlink:href="#aX"/><use transform="matrix(0.009114583333333334,0,0,0.009114583333333334,80.29947916666667,0)" xlink:href="#aT"/></g><g id="z"><use transform="matrix(0.009114583333333334,0,0,0.009114583333333334,0,0)" xlink:href="#aQ"/><use transform="matrix(0.009114583333333334,0,0,0.009114583333333334,11.45703125,0)" xlink:href="#aT"/></g><path d="M686 20c-159 0-273-61-344-161h-12L295 0H176v-1556h166c-2 198 6 423-8 606h8c77-109 192-164 344-164 310 0 455 234 455 565 0 329-147 569-455 569zm283-571c0-257-72-424-307-424-256 0-320 146-320 426s68 430 324 430c228 0 303-184 303-432" id="aZ"/><g id="A"><use transform="matrix(0.009114583333333334,0,0,0.009114583333333334,0,0)" xlink:href="#aS"/><use transform="matrix(0.009114583333333334,0,0,0.009114583333333334,4.721354166666667,0)" xlink:href="#aU"/><use transform="matrix(0.009114583333333334,0,0,0.009114583333333334,15.102864583333336,0)" xlink:href="#aZ"/><use transform="matrix(0.009114583333333334,0,0,0.009114583333333334,26.54166666666667,0)" xlink:href="#aJ"/><use transform="matrix(0.009114583333333334,0,0,0.009114583333333334,37.816406250000014,0)" xlink:href="#aK"/><use transform="matrix(0.009114583333333334,0,0,0.009114583333333334,45.062500000000014,0)" xlink:href="#aL"/></g><g id="B"><use transform="matrix(0.009114583333333334,0,0,0.009114583333333334,0,0)" xlink:href="#aL"/><use transform="matrix(0.009114583333333334,0,0,0.009114583333333334,10.47265625,0)" xlink:href="#aT"/></g><g id="C"><use transform="matrix(0.009114583333333334,0,0,0.009114583333333334,0,0)" xlink:href="#aR"/><use transform="matrix(0.009114583333333334,0,0,0.009114583333333334,11.438802083333334,0)" xlink:href="#aJ"/><use transform="matrix(0.009114583333333334,0,0,0.009114583333333334,22.713541666666668,0)" xlink:href="#aS"/><use transform="matrix(0.009114583333333334,0,0,0.009114583333333334,27.434895833333336,0)" xlink:href="#aJ"/><use transform="matrix(0.009114583333333334,0,0,0.009114583333333334,38.70963541666667,0)" xlink:href="#aK"/><use transform="matrix(0.009114583333333334,0,0,0.009114583333333334,45.95572916666667,0)" xlink:href="#aL"/></g><g id="D"><use transform="matrix(0.009114583333333334,0,0,0.009114583333333334,0,0)" xlink:href="#aM"/><use transform="matrix(0.009114583333333334,0,0,0.009114583333333334,17.36328125,0)" xlink:href="#aU"/><use transform="matrix(0.009114583333333334,0,0,0.009114583333333334,27.744791666666668,0)" xlink:href="#aY"/><use transform="matrix(0.009114583333333334,0,0,0.009114583333333334,37.97135416666667,0)" xlink:href="#aX"/><use transform="matrix(0.009114583333333334,0,0,0.009114583333333334,49.42838541666667,0)" xlink:href="#aU"/></g><path d="M287-543c0 246 78 424 303 424 259 0 323-148 323-426 0-279-71-432-325-432-220 0-301 191-301 434zm-172-2c0-328 147-571 454-571 150 0 265 57 346 170h9l24-150h131V492H913c5-208-11-450 11-639h-13C834-36 719 20 565 20c-305 0-450-240-450-565" id="ba"/><path d="M270 29c-76 0-118-48-118-135 0-84 38-135 118-136 81 0 123 51 123 136 0 82-44 135-123 135" id="bb"/><g id="E"><use transform="matrix(0.009114583333333334,0,0,0.009114583333333334,0,0)" xlink:href="#aU"/><use transform="matrix(0.009114583333333334,0,0,0.009114583333333334,10.381510416666668,0)" xlink:href="#aS"/><use transform="matrix(0.009114583333333334,0,0,0.009114583333333334,15.102864583333336,0)" xlink:href="#aN"/><use transform="matrix(0.009114583333333334,0,0,0.009114583333333334,19.824218750000007,0)" xlink:href="#ba"/><use transform="matrix(0.009114583333333334,0,0,0.009114583333333334,31.263020833333336,0)" xlink:href="#aQ"/><use transform="matrix(0.009114583333333334,0,0,0.009114583333333334,42.720052083333336,0)" xlink:href="#aU"/><use transform="matrix(0.009114583333333334,0,0,0.009114583333333334,53.1015625,0)" xlink:href="#bb"/></g><path d="M750-129c245 0 385-137 385-381v-952h170v946c3 336-225 536-566 536-344 0-553-202-553-540v-942h170v954c0 248 141 379 394 379" id="bc"/><g id="F"><use transform="matrix(0.009114583333333334,0,0,0.009114583333333334,0,0)" xlink:href="#bc"/><use transform="matrix(0.009114583333333334,0,0,0.009114583333333334,13.58984375,0)" xlink:href="#aT"/></g><g id="G"><use transform="matrix(0.009114583333333334,0,0,0.009114583333333334,0,0)" xlink:href="#aL"/><use transform="matrix(0.009114583333333334,0,0,0.009114583333333334,10.47265625,0)" xlink:href="#aX"/><use transform="matrix(0.009114583333333334,0,0,0.009114583333333334,21.9296875,0)" xlink:href="#aN"/><use transform="matrix(0.009114583333333334,0,0,0.009114583333333334,26.651041666666668,0)" xlink:href="#aM"/></g><g id="H"><use transform="matrix(0.009114583333333334,0,0,0.009114583333333334,0,0)" xlink:href="#aU"/><use transform="matrix(0.009114583333333334,0,0,0.009114583333333334,10.381510416666668,0)" xlink:href="#aR"/></g><g id="I"><use transform="matrix(0.009114583333333334,0,0,0.009114583333333334,0,0)" xlink:href="#aM"/><use transform="matrix(0.009114583333333334,0,0,0.009114583333333334,17.36328125,0)" xlink:href="#aN"/><use transform="matrix(0.009114583333333334,0,0,0.009114583333333334,22.084635416666668,0)" xlink:href="#aX"/><use transform="matrix(0.009114583333333334,0,0,0.009114583333333334,33.54166666666667,0)" xlink:href="#aN"/><use transform="matrix(0.009114583333333334,0,0,0.009114583333333334,38.263020833333336,0)" xlink:href="#aM"/></g><path d="M516-150c94-315 146-423 332-946h178L610 0H416L0-1096h178c98 281 253 670 330 946h8" id="bd"/><g id="J"><use transform="matrix(0.009114583333333334,0,0,0.009114583333333334,0,0)" xlink:href="#bd"/><use transform="matrix(0.009114583333333334,0,0,0.009114583333333334,9.3515625,0)" xlink:href="#aL"/><use transform="matrix(0.009114583333333334,0,0,0.009114583333333334,19.82421875,0)" xlink:href="#aX"/><use transform="matrix(0.009114583333333334,0,0,0.009114583333333334,31.281250000000004,0)" xlink:href="#aN"/><use transform="matrix(0.009114583333333334,0,0,0.009114583333333334,36.002604166666664,0)" xlink:href="#aU"/><use transform="matrix(0.009114583333333334,0,0,0.009114583333333334,46.38411458333333,0)" xlink:href="#aM"/><use transform="matrix(0.009114583333333334,0,0,0.009114583333333334,63.74739583333333,0)" xlink:href="#aV"/></g><g id="K"><use transform="matrix(0.009114583333333334,0,0,0.009114583333333334,0,0)" xlink:href="#ba"/><use transform="matrix(0.009114583333333334,0,0,0.009114583333333334,11.438802083333334,0)" xlink:href="#aQ"/><use transform="matrix(0.009114583333333334,0,0,0.009114583333333334,22.895833333333336,0)" xlink:href="#aN"/><use transform="matrix(0.009114583333333334,0,0,0.009114583333333334,27.6171875,0)" xlink:href="#aP"/></g><g id="L"><use transform="matrix(0.009114583333333334,0,0,0.009114583333333334,0,0)" xlink:href="#aX"/><use transform="matrix(0.009114583333333334,0,0,0.009114583333333334,11.45703125,0)" xlink:href="#aJ"/><use transform="matrix(0.009114583333333334,0,0,0.009114583333333334,22.731770833333336,0)" xlink:href="#aP"/><use transform="matrix(0.009114583333333334,0,0,0.009114583333333334,31.636718750000004,0)" xlink:href="#aT"/><use transform="matrix(0.009114583333333334,0,0,0.009114583333333334,38.2265625,0)" xlink:href="#aK"/><use transform="matrix(0.009114583333333334,0,0,0.009114583333333334,45.846354166666664,0)" xlink:href="#aQ"/><use transform="matrix(0.009114583333333334,0,0,0.009114583333333334,57.303385416666664,0)" xlink:href="#aR"/></g><path d="M440-561L59-1096h189l289 420 288-420h187L631-561 1032 0H844L537-444 227 0H39" id="be"/><g id="M"><use transform="matrix(0.009114583333333334,0,0,0.009114583333333334,0,0)" xlink:href="#aL"/><use transform="matrix(0.009114583333333334,0,0,0.009114583333333334,10.098958333333334,0)" xlink:href="#be"/><use transform="matrix(0.009114583333333334,0,0,0.009114583333333334,19.505208333333336,0)" xlink:href="#aL"/><use transform="matrix(0.009114583333333334,0,0,0.009114583333333334,29.977864583333336,0)" xlink:href="#aK"/><use transform="matrix(0.009114583333333334,0,0,0.009114583333333334,37.223958333333336,0)" xlink:href="#aW"/><use transform="matrix(0.009114583333333334,0,0,0.009114583333333334,46.110677083333336,0)" xlink:href="#aN"/><use transform="matrix(0.009114583333333334,0,0,0.009114583333333334,50.83203125,0)" xlink:href="#aT"/><use transform="matrix(0.009114583333333334,0,0,0.009114583333333334,57.42187500000001,0)" xlink:href="#aU"/><use transform="matrix(0.009114583333333334,0,0,0.009114583333333334,67.80338541666667,0)" xlink:href="#aT"/><use transform="matrix(0.009114583333333334,0,0,0.009114583333333334,74.39322916666667,0)" xlink:href="#aN"/><use transform="matrix(0.009114583333333334,0,0,0.009114583333333334,79.11458333333334,0)" xlink:href="#aJ"/><use transform="matrix(0.009114583333333334,0,0,0.009114583333333334,90.38932291666667,0)" xlink:href="#aX"/></g><g id="N"><use transform="matrix(0.009114583333333334,0,0,0.009114583333333334,0,0)" xlink:href="#aQ"/><use transform="matrix(0.009114583333333334,0,0,0.009114583333333334,11.45703125,0)" xlink:href="#aS"/><use transform="matrix(0.009114583333333334,0,0,0.009114583333333334,16.178385416666668,0)" xlink:href="#aS"/><use transform="matrix(0.009114583333333334,0,0,0.009114583333333334,20.899739583333336,0)" xlink:href="#aU"/><use transform="matrix(0.009114583333333334,0,0,0.009114583333333334,31.281250000000004,0)" xlink:href="#aM"/><use transform="matrix(0.009114583333333334,0,0,0.009114583333333334,48.64453125,0)" xlink:href="#aW"/><use transform="matrix(0.009114583333333334,0,0,0.009114583333333334,57.53125000000001,0)" xlink:href="#aJ"/></g><g id="O"><use transform="matrix(0.009114583333333334,0,0,0.009114583333333334,0,0)" xlink:href="#aS"/><use transform="matrix(0.009114583333333334,0,0,0.009114583333333334,4.721354166666667,0)" xlink:href="#aU"/><use transform="matrix(0.009114583333333334,0,0,0.009114583333333334,15.102864583333336,0)" xlink:href="#aZ"/><use transform="matrix(0.009114583333333334,0,0,0.009114583333333334,26.54166666666667,0)" xlink:href="#aJ"/><use transform="matrix(0.009114583333333334,0,0,0.009114583333333334,37.816406250000014,0)" xlink:href="#aK"/><use transform="matrix(0.009114583333333334,0,0,0.009114583333333334,45.43619791666667,0)" xlink:href="#aN"/><use transform="matrix(0.009114583333333334,0,0,0.009114583333333334,50.157552083333336,0)" xlink:href="#aP"/></g><g id="P"><use transform="matrix(0.009114583333333334,0,0,0.009114583333333334,0,0)" xlink:href="#aX"/><use transform="matrix(0.009114583333333334,0,0,0.009114583333333334,11.45703125,0)" xlink:href="#aN"/><use transform="matrix(0.009114583333333334,0,0,0.009114583333333334,16.178385416666668,0)" xlink:href="#aP"/><use transform="matrix(0.009114583333333334,0,0,0.009114583333333334,25.083333333333336,0)" xlink:href="#aN"/></g><g id="Q"><use transform="matrix(0.009114583333333334,0,0,0.009114583333333334,0,0)" xlink:href="#aQ"/><use transform="matrix(0.009114583333333334,0,0,0.009114583333333334,11.45703125,0)" xlink:href="#aT"/></g><g id="R"><use transform="matrix(0.06172839506172839,0,0,0.06172839506172839,0,0)" xlink:href="#aC"/><use transform="matrix(0.06172839506172839,0,0,0.06172839506172839,12.345679012345679,0)" xlink:href="#aj"/><use transform="matrix(0.06172839506172839,0,0,0.06172839506172839,23.45679012345679,0)" xlink:href="#aA"/><use transform="matrix(0.06172839506172839,0,0,0.06172839506172839,30.80246913580247,0)" xlink:href="#an"/></g><path fill="#3a414a" d="M75-131c50 2 93 3 93-48 0-46-48-41-93-41v89zm0 115c55 4 111 6 111-51 0-53-58-48-111-48v99zm148-52C223 24 102-3 10 0v-9l31-5v-208l-31-4v-10c77 6 193-24 194 56 0 33-20 48-48 54 36 5 67 20 67 58" id="bf"/><g id="S"><use transform="matrix(0.06172839506172839,0,0,0.06172839506172839,0,0)" xlink:href="#bf"/><use transform="matrix(0.06172839506172839,0,0,0.06172839506172839,14.814814814814813,0)" xlink:href="#ay"/></g><path fill="#316ccc" d="M23 0v-37h61v-169l-59 37v-38l62-41h46v211h57V0H23" id="bg"/><g id="T"><use transform="matrix(0.05,0,0,0.05,0,0)" xlink:href="#bg"/><path fill="#316ccc" d="M-.9.97h11.8v1.9H-.9z"/></g><path fill="#316ccc" d="M182-182c0 78-84 86-111 141h115V0H12c-6-101 99-100 120-180 1-22-12-31-33-32-23 0-32 14-35 34l-49-3c5-45 32-70 84-70 51 0 83 22 83 69" id="bh"/><g id="U"><use transform="matrix(0.05,0,0,0.05,0,0)" xlink:href="#bh"/><path fill="#316ccc" d="M-.9.97h11.8v1.9H-.9z"/></g><path fill="#316ccc" d="M128-127c34 4 56 21 59 58 7 91-148 94-172 28-4-9-6-17-7-26l51-5c1 24 16 35 40 36 23 0 39-12 38-36-1-31-31-36-65-34v-40c32 2 59-3 59-33 0-20-13-33-34-33s-33 13-35 32l-50-3c6-44 37-68 86-68 50 0 83 20 83 66 0 35-22 52-53 58" id="bi"/><g id="V"><use transform="matrix(0.05,0,0,0.05,0,0)" xlink:href="#bi"/><path fill="#316ccc" d="M-.9.97h11.8v1.9H-.9z"/></g><path fill="#316ccc" d="M165-50V0h-47v-50H5v-38l105-160h55v161h33v37h-33zm-47-37l2-116L46-87h72" id="bj"/><g id="W"><use transform="matrix(0.05,0,0,0.05,0,0)" xlink:href="#bj"/><path fill="#316ccc" d="M-.9.97h11.8v1.9H-.9z"/></g><path fill="#316ccc" d="M139-81c0-46-55-55-73-27H18l9-140h149v37H72l-4 63c44-38 133-4 122 66C201 21 21 35 11-62l49-4c5 18 15 30 39 30 26 0 40-18 40-45" id="bk"/><g id="X"><use transform="matrix(0.05,0,0,0.05,0,0)" xlink:href="#bk"/><path fill="#316ccc" d="M-.9.97h11.8v1.9H-.9z"/></g><path fill="#316ccc" d="M115-159c48 0 72 30 72 78 0 54-30 85-83 85-64 0-91-50-91-122 0-98 58-163 141-120 15 8 21 24 27 44l-47 6c-5-31-48-31-61-4-7 14-11 33-11 60 9-17 28-27 53-27zM102-35c24 0 36-20 36-45s-11-43-37-43c-23 0-36 14-36 38 0 27 11 50 37 50" id="bl"/><g id="Y"><use transform="matrix(0.05,0,0,0.05,0,0)" xlink:href="#bl"/><path fill="#316ccc" d="M-.9.97h11.8v1.9H-.9z"/></g><path fill="#316ccc" d="M52 0c1-96 47-148 87-207H15v-41h169v40c-36 62-79 113-81 208H52" id="bm"/><g id="Z"><use transform="matrix(0.05,0,0,0.05,0,0)" xlink:href="#bm"/><path fill="#316ccc" d="M-.9.97h11.8v1.9H-.9z"/></g><path fill="#316ccc" d="M138-131c27 9 52 24 51 61 0 53-36 74-89 74S11-19 11-69c0-35 22-54 51-61-78-25-46-121 38-121 51 0 83 19 83 66 0 30-18 49-45 54zm-38-16c24 0 32-13 32-36 1-23-11-34-32-34-22 0-33 12-32 34 0 22 9 36 32 36zm1 116c27 0 37-17 37-43 0-25-13-39-39-39-24 0-37 15-37 40 0 27 11 42 39 42" id="bn"/><g id="aa"><use transform="matrix(0.05,0,0,0.05,0,0)" xlink:href="#bn"/><path fill="#316ccc" d="M-.9.97h11.8v1.9H-.9z"/></g><path fill="#316ccc" d="M99-251c69 0 84 53 88 123 5 99-61 162-144 118-15-8-21-25-26-45l46-6c4 31 50 33 63 7 7-15 12-36 12-60-9 18-29 28-54 28-48 0-72-32-72-82 0-55 31-83 87-83zm-1 128c24 0 37-16 37-39 0-27-10-51-37-51-25 0-35 19-35 45 0 25 10 45 35 45" id="bo"/><g id="ab"><use transform="matrix(0.05,0,0,0.05,0,0)" xlink:href="#bo"/><path fill="#316ccc" d="M-.9.97h11.8v1.9H-.9z"/></g><path fill="#316ccc" d="M101-251c68 0 84 54 84 127C185-50 166 4 99 4S15-52 14-124c-1-75 17-127 87-127zm-1 216c37-5 36-46 36-89s4-89-36-89c-39 0-36 45-36 89 0 43-3 85 36 89" id="bp"/><g id="ac"><use transform="matrix(0.05,0,0,0.05,0,0)" xlink:href="#bg"/><use transform="matrix(0.05,0,0,0.05,10,0)" xlink:href="#bp"/><path fill="#316ccc" d="M-.9.97h21.8v1.9H-.9z"/></g><path fill="#316ccc" d="M15-91v-56l181-69v40L49-119l147 57v40" id="bq"/><g id="ad"><use transform="matrix(0.05,0,0,0.05,0,0)" xlink:href="#bq"/><use transform="matrix(0.05,0,0,0.05,10.5,0)" xlink:href="#bq"/><path fill="#316ccc" d="M-.9.97h27.8v1.9H-.9z"/></g><path fill="#316ccc" d="M24-248c93 1 206-16 204 79-1 75-69 88-152 82V0H24v-248zm52 121c47 0 100 7 100-41 0-47-54-39-100-39v80" id="br"/><path fill="#316ccc" d="M135-150c-39-12-60 13-60 57V0H25l-1-190h47c2 13-1 29 3 40 6-28 27-53 61-41v41" id="bs"/><path fill="#316ccc" d="M185-48c-13 30-37 53-82 52C43 2 14-33 14-96s30-98 90-98c62 0 83 45 84 108H66c0 31 8 55 39 56 18 0 30-7 34-22zm-45-69c5-46-57-63-70-21-2 6-4 13-4 21h74" id="bt"/><path fill="#316ccc" d="M128 0H69L1-190h53L99-40l48-150h52" id="bu"/><g id="ae"><use transform="matrix(0.05,0,0,0.05,0,0)" xlink:href="#br"/><use transform="matrix(0.05,0,0,0.05,12,0)" xlink:href="#bs"/><use transform="matrix(0.05,0,0,0.05,19,0)" xlink:href="#bt"/><use transform="matrix(0.05,0,0,0.05,29,0)" xlink:href="#bu"/><path fill="#316ccc" d="M-.9.97h40.8v1.9H-.9z"/></g><path fill="#316ccc" d="M175 0L67-191c6 58 2 128 3 191H24v-248h59L193-55c-6-58-2-129-3-193h46V0h-61" id="bv"/><path fill="#316ccc" d="M144 0l-44-69L55 0H2l70-98-66-92h53l41 62 40-62h54l-67 91 71 99h-54" id="bw"/><path fill="#316ccc" d="M115-3C79 11 28 4 28-45v-112H4v-33h27l15-45h31v45h36v33H77v99c-1 23 16 31 38 25v30" id="bx"/><g id="af"><use transform="matrix(0.05,0,0,0.05,0,0)" xlink:href="#bv"/><use transform="matrix(0.05,0,0,0.05,12.950000000000001,0)" xlink:href="#bt"/><use transform="matrix(0.05,0,0,0.05,22.950000000000003,0)" xlink:href="#bw"/><use transform="matrix(0.05,0,0,0.05,32.95,0)" xlink:href="#bx"/><path fill="#316ccc" d="M-.9.97h45.7v1.9H-.9z"/></g><path fill="#316ccc" d="M15-22v-40l146-57-146-57v-40l181 69v56" id="by"/><g id="ag"><use transform="matrix(0.05,0,0,0.05,0,0)" xlink:href="#by"/><use transform="matrix(0.05,0,0,0.05,10.5,0)" xlink:href="#by"/><path fill="#316ccc" d="M-.9.97h22.8v1.9H-.9z"/></g><path fill="#3a414a" d="M75-106v92l39 5v9H13v-9l28-5v-208l-31-4v-10h177v57h-11l-6-38c-28-4-63-3-95-3v98h69l5-28h11v73h-11l-5-29H75" id="bz"/><g id="ah"><use transform="matrix(0.06172839506172839,0,0,0.06172839506172839,0,0)" xlink:href="#bz"/><use transform="matrix(0.06172839506172839,0,0,0.06172839506172839,12.345679012345679,0)" xlink:href="#ao"/><use transform="matrix(0.06172839506172839,0,0,0.06172839506172839,18.51851851851852,0)" xlink:href="#as"/><use transform="matrix(0.06172839506172839,0,0,0.06172839506172839,24.691358024691358,0)" xlink:href="#an"/><use transform="matrix(0.06172839506172839,0,0,0.06172839506172839,30.864197530864196,0)" xlink:href="#at"/><use transform="matrix(0.06172839506172839,0,0,0.06172839506172839,40.67901234567901,0)" xlink:href="#aA"/><use transform="matrix(0.06172839506172839,0,0,0.06172839506172839,48.02469135802469,0)" xlink:href="#am"/></g></defs></g></svg>