<svg xmlns="http://www.w3.org/2000/svg" xmlns:xlink="http://www.w3.org/1999/xlink" xmlns:lucid="lucid" width="917" height="412"><g transform="translate(89.16666666666652 63.333333333333485)" lucid:page-tab-id="0_0"><path d="M-500-500h1500V500H-500z" fill="#fff"/><path d="M-68.17-36.33a6 6 0 0 1 6-6h863a6 6 0 0 1 6 6v358a6 6 0 0 1-6 6h-863a6 6 0 0 1-6-6z" stroke="#282c33" stroke-width="2" fill="#fff"/><path d="M-36.3 80.5a6 6 0 0 0-6 6v173a6 6 0 0 0 6 6H198.4a6 6 0 0 0 6-6v-173a6 6 0 0 0-6-6z" fill="none"/><path d="M-42.3 191.5l68.2 17.04a12.6 12.6 0 0 0 10.6-2.14l64.4-48.3a9.7 9.7 0 0 1 10.17-.92l68.64 34.31" stroke="#ababab" stroke-width="4" fill="none"/><path d="M-42.3 247l69.77-69.76a8.32 8.32 0 0 1 9.6-1.56l63.27 31.63a7.42 7.42 0 0 0 9.12-2l70.25-87.8" stroke="#545454" stroke-width="4" fill="none"/><path d="M-42.3 80.5v179a6 6 0 0 0 6 6H204.4" stroke="#282c33" stroke-width="4" fill="none"/><use xlink:href="#a" transform="matrix(1,0,0,1,-32.29166666666606,80.49518508606889) translate(27.327160493827165 18.444444444444443)"/><use xlink:href="#b" transform="matrix(1,0,0,1,-32.29166666666606,80.49518508606889) translate(147.57407407407408 18.444444444444443)"/><path d="M-43.1-19.7a6 6 0 0 1 6-6h260.55a6 6 0 0 1 6 6v67.88a6 6 0 0 1-6 6H-37.1a6 6 0 0 1-6-6z" stroke="#000" stroke-opacity="0" stroke-width="2" fill="#fff" fill-opacity="0"/><use xlink:href="#c" transform="matrix(1,0,0,1,-38.10627309317215,-20.7131482472646) translate(9.820987654320959 41.56944444444444)"/><use xlink:href="#d" transform="matrix(1,0,0,1,-38.10627309317215,-20.7131482472646) translate(132.98148148148147 41.56944444444444)"/><path d="M276.9 60.18a6 6 0 0 1 6-6h468a6 6 0 0 1 6 6v83.33a6 6 0 0 1-6 6h-468a6 6 0 0 1-6-6z" stroke="#000" stroke-opacity="0" stroke-width="2" fill="#fff" fill-opacity="0"/><use xlink:href="#e" transform="matrix(1,0,0,1,281.89372690682785,59.17842197431264) translate(21.91358024691357 49.94444444444444)"/><use xlink:href="#f" transform="matrix(1,0,0,1,281.89372690682785,59.17842197431264) translate(139.14814814814815 49.94444444444444)"/><use xlink:href="#g" transform="matrix(1,0,0,1,281.89372690682785,59.17842197431264) translate(341.41975308641975 49.94444444444444)"/><path d="M259.06 134.08a6 6 0 0 1 6-6h468a6 6 0 0 1 6 6v83.33a6 6 0 0 1-6 6h-468a6 6 0 0 1-6-6z" stroke="#000" stroke-opacity="0" stroke-width="2" fill="#fff" fill-opacity="0"/><use xlink:href="#e" transform="matrix(1,0,0,1,264.05828714698873,133.07851841940237) translate(101.02469135802471 49.94444444444444)"/><use xlink:href="#h" transform="matrix(1,0,0,1,264.05828714698873,133.07851841940237) translate(218.2592592592593 49.94444444444444)"/><use xlink:href="#i" transform="matrix(1,0,0,1,264.05828714698873,133.07851841940237) translate(357.22222222222223 49.94444444444444)"/><path d="M269.06 229.4a6 6 0 0 1 6-6h298a6 6 0 0 1 6 6v28a6 6 0 0 1-6 6h-298a6 6 0 0 1-6-6z" stroke="#282c33" stroke-width="2" fill="#fff"/><g><use xlink:href="#j" transform="matrix(1,0,0,1,279.05828714698873,227.41185175273586) translate(0 20.444444444444443)"/></g><path d="M596.06 225.5c-6.63 0-12 5.37-12 12v16c0 6.62 5.37 12 12 12h136c6.63 0 12-5.38 12-12v-16c0-6.63-5.37-12-12-12z" stroke="#282c33" stroke-width="2" fill="#fff"/><g><use xlink:href="#k" transform="matrix(1,0,0,1,594.0582871469887,229.4951850860689) translate(37.99382716049383 20.444444444444443)"/></g><defs><path fill="#3a414a" d="M10-9l31-5v-208l-31-4v-10h177v57h-11l-6-38c-28-4-63-3-95-3v92h63l6-28h11v73h-11l-6-29H75v96l105-3 10-43h12l-3 62H10v-9" id="l"/><path fill="#3a414a" d="M126-118c4-37-42-32-68-25v131l24 4v8H8C5-13 21-9 28-12v-141c-7-3-23 1-20-12h48l1 13c22-15 77-30 92 2 32-22 104-36 104 29v109c8 3 24-2 21 12h-75v-8l25-4v-106c3-39-45-31-72-24 7 37 1 88 3 130l25 4v8h-78v-8l24-4v-106" id="m"/><path fill="#3a414a" d="M166-85c3 67-44 102-111 85l1 64 29 4v9H6v-9l21-4v-217c-7-3-22 1-19-12h46l1 9c11-8 26-14 45-14 47 2 64 36 66 85zM56-13c53 14 83-14 78-72 7-53-33-79-78-60v132" id="n"/><path fill="#3a414a" d="M65-12l28 4v8H7v-8l28-4v-226l-28-4v-8h58v238" id="o"/><path fill="#3a414a" d="M90-170c52 0 76 32 76 87 0 54-24 87-77 87-51 0-75-34-75-87 0-54 24-87 76-87zM89-10c39 0 46-35 46-73 0-39-7-73-46-73-39 1-44 34-44 73s6 72 44 73" id="p"/><path fill="#3a414a" d="M161-154L85 37C75 66 49 86 8 75V39c18-2 6 24 29 21 30-4 38-32 47-58L21-153c-7-3-20 0-17-12h77v8l-26 4 45 116 43-116-26-4v-8h62v8" id="q"/><path fill="#3a414a" d="M84-170c49 0 66 33 63 87H46c-8 60 38 80 95 63v10C128-2 108 4 88 4 34 4 14-29 14-84c-1-54 22-86 70-86zm33 73c12-57-57-82-69-24-1 7-2 15-2 24h71" id="r"/><path fill="#3a414a" d="M125-118c4-37-41-34-68-26v132l23 4v8H8C5-13 21-9 28-12v-141c-7-3-23 1-20-12h47l2 13c31-23 98-29 98 31v109c7 3 23-1 20 12h-72v-8l22-4v-106" id="s"/><path fill="#3a414a" d="M54-38c-1 25 24 26 44 20v12C71 10 25 9 25-35v-115H4c-2-14 14-10 21-15l18-38h11v38h38v15H54v112" id="t"/><g id="a"><use transform="matrix(0.06172839506172839,0,0,0.06172839506172839,0,0)" xlink:href="#l"/><use transform="matrix(0.06172839506172839,0,0,0.06172839506172839,13.518518518518517,0)" xlink:href="#m"/><use transform="matrix(0.06172839506172839,0,0,0.06172839506172839,30.80246913580247,0)" xlink:href="#n"/><use transform="matrix(0.06172839506172839,0,0,0.06172839506172839,41.91358024691358,0)" xlink:href="#o"/><use transform="matrix(0.06172839506172839,0,0,0.06172839506172839,48.086419753086425,0)" xlink:href="#p"/><use transform="matrix(0.06172839506172839,0,0,0.06172839506172839,59.19753086419753,0)" xlink:href="#q"/><use transform="matrix(0.06172839506172839,0,0,0.06172839506172839,70.30864197530865,0)" xlink:href="#m"/><use transform="matrix(0.06172839506172839,0,0,0.06172839506172839,87.5925925925926,0)" xlink:href="#r"/><use transform="matrix(0.06172839506172839,0,0,0.06172839506172839,97.4074074074074,0)" xlink:href="#s"/><use transform="matrix(0.06172839506172839,0,0,0.06172839506172839,108.51851851851852,0)" xlink:href="#t"/></g><path fill="#3a414a" d="M55 0v-9l38-5v-207c-22 1-53 0-70 4l-5 37H7v-56h207v56h-12l-5-37-70-3v206l37 5v9H55" id="u"/><path fill="#3a414a" d="M57-145c16-10 35-24 60-25v45c-19 1-8-30-40-17l-20 6v124l29 4v8H7v-8l21-4v-141c-8-3-24 2-21-12h48" id="v"/><path fill="#3a414a" d="M13-81c0-71 46-101 114-85l-1-72-28-4v-8h57v238c8 3 24-2 21 12h-47l-2-12C80 23 13-1 13-81zm77-74c-37 1-44 33-45 74 0 38 9 66 45 66 14 0 27-3 36-7v-130c-10-1-24-3-36-3" id="w"/><g id="b"><use transform="matrix(0.06172839506172839,0,0,0.06172839506172839,0,0)" xlink:href="#u"/><use transform="matrix(0.06172839506172839,0,0,0.06172839506172839,12.716049382716047,0)" xlink:href="#v"/><use transform="matrix(0.06172839506172839,0,0,0.06172839506172839,20.061728395061728,0)" xlink:href="#r"/><use transform="matrix(0.06172839506172839,0,0,0.06172839506172839,29.876543209876544,0)" xlink:href="#s"/><use transform="matrix(0.06172839506172839,0,0,0.06172839506172839,40.98765432098766,0)" xlink:href="#w"/></g><path fill="#3a414a" d="M152 0h-7L59-203v189l32 5v9H10v-9l31-5v-208l-31-4v-10h72l76 180 84-180h68v10l-31 4v208l31 5v9h-96v-9l32-5v-189" id="x"/><path fill="#3a414a" d="M32-163c41-10 102-14 102 39v112c8 3 24-2 21 12h-45l-4-17C83 13 3 13 13-46c-2-50 45-50 92-51 4-36-5-70-42-56-6 2-12 4-16 6-4 7 0 23-15 20v-36zM42-47c0 41 41 33 63 22v-59c-34 1-63-1-63 37" id="y"/><path fill="#3a414a" d="M141-152c28 39 5 97-54 97-9 0-20-2-27-3L49-35c29 22 130-14 124 52-4 45-38 57-88 61C21 83-8 26 45-2 33-6 22-15 21-31l28-31c-19-9-28-26-28-51-2-51 53-65 100-52l38-20 7 8zM85 64c35 0 61-11 61-42 0-35-57-17-89-21-9 8-16 19-17 34 0 25 19 29 45 29zM52-113c1 26 7 46 35 44 28-1 34-16 35-44 0-26-6-43-34-43s-36 17-36 43" id="z"/><g id="c"><use transform="matrix(0.09876543209876544,0,0,0.09876543209876544,0,0)" xlink:href="#x"/><use transform="matrix(0.09876543209876544,0,0,0.09876543209876544,31.60493827160494,0)" xlink:href="#y"/><use transform="matrix(0.09876543209876544,0,0,0.09876543209876544,47.308641975308646,0)" xlink:href="#s"/><use transform="matrix(0.09876543209876544,0,0,0.09876543209876544,65.08641975308643,0)" xlink:href="#y"/><use transform="matrix(0.09876543209876544,0,0,0.09876543209876544,80.79012345679014,0)" xlink:href="#z"/><use transform="matrix(0.09876543209876544,0,0,0.09876543209876544,98.56790123456793,0)" xlink:href="#r"/></g><path fill="#3a414a" d="M75-17c87 13 134-18 134-103 0-78-51-106-134-100v203zm171-102C246 5 139 7 10 0v-9l31-5v-208l-31-4v-10h107c82 0 129 35 129 117" id="A"/><g id="d"><use transform="matrix(0.09876543209876544,0,0,0.09876543209876544,0,0)" xlink:href="#A"/><use transform="matrix(0.09876543209876544,0,0,0.09876543209876544,25.58024691358025,0)" xlink:href="#r"/><use transform="matrix(0.09876543209876544,0,0,0.09876543209876544,41.283950617283956,0)" xlink:href="#m"/><use transform="matrix(0.09876543209876544,0,0,0.09876543209876544,68.93827160493828,0)" xlink:href="#y"/><use transform="matrix(0.09876543209876544,0,0,0.09876543209876544,84.64197530864199,0)" xlink:href="#s"/><use transform="matrix(0.09876543209876544,0,0,0.09876543209876544,102.41975308641979,0)" xlink:href="#w"/></g><path fill="#3a414a" d="M52-115c0 93 80 130 150 87l7-35h11l-1 55c-23 7-52 12-83 12C60 4 19-37 15-115c-5-113 97-141 201-114l1 51h-12l-5-30c-15-9-39-16-62-16-66 0-86 41-86 109" id="B"/><path fill="#3a414a" d="M124-13C89 8 26 15 26-45v-108c-8-3-24 2-21-12h50v118c-3 37 42 32 69 25v-131l-25-4v-8h54v153c8 3 24-2 21 12h-48" id="C"/><g id="e"><use transform="matrix(0.09876543209876544,0,0,0.09876543209876544,0,0)" xlink:href="#B"/><use transform="matrix(0.09876543209876544,0,0,0.09876543209876544,23.703703703703706,0)" xlink:href="#C"/><use transform="matrix(0.09876543209876544,0,0,0.09876543209876544,41.48148148148148,0)" xlink:href="#v"/><use transform="matrix(0.09876543209876544,0,0,0.09876543209876544,53.23456790123457,0)" xlink:href="#v"/><use transform="matrix(0.09876543209876544,0,0,0.09876543209876544,64.98765432098766,0)" xlink:href="#r"/><use transform="matrix(0.09876543209876544,0,0,0.09876543209876544,80.69135802469137,0)" xlink:href="#s"/><use transform="matrix(0.09876543209876544,0,0,0.09876543209876544,98.46913580246914,0)" xlink:href="#t"/></g><path fill="#3a414a" d="M50-37c14 0 21 9 21 21S62 5 50 5C37 5 28-4 28-16s8-21 22-21zm0-132c12 0 21 9 21 21 0 13-9 22-21 22-13 0-22-9-22-22 0-12 9-21 22-21" id="D"/><g id="f"><use transform="matrix(0.09876543209876544,0,0,0.09876543209876544,0,0)" xlink:href="#l"/><use transform="matrix(0.09876543209876544,0,0,0.09876543209876544,21.62962962962963,0)" xlink:href="#m"/><use transform="matrix(0.09876543209876544,0,0,0.09876543209876544,49.28395061728395,0)" xlink:href="#n"/><use transform="matrix(0.09876543209876544,0,0,0.09876543209876544,67.06172839506172,0)" xlink:href="#o"/><use transform="matrix(0.09876543209876544,0,0,0.09876543209876544,76.93827160493827,0)" xlink:href="#p"/><use transform="matrix(0.09876543209876544,0,0,0.09876543209876544,94.71604938271605,0)" xlink:href="#q"/><use transform="matrix(0.09876543209876544,0,0,0.09876543209876544,112.49382716049381,0)" xlink:href="#m"/><use transform="matrix(0.09876543209876544,0,0,0.09876543209876544,140.14814814814815,0)" xlink:href="#r"/><use transform="matrix(0.09876543209876544,0,0,0.09876543209876544,155.85185185185185,0)" xlink:href="#s"/><use transform="matrix(0.09876543209876544,0,0,0.09876543209876544,173.62962962962962,0)" xlink:href="#t"/><use transform="matrix(0.09876543209876544,0,0,0.09876543209876544,183.50617283950618,0)" xlink:href="#D"/></g><path fill="#3a414a" d="M110-14l48 5v9H32v-9l48-5v-192l-48 17v-10l69-39h9v224" id="E"/><path fill="#3a414a" d="M24-231c66-21 156 2 128 81C132-92 78-66 39-27h121V0H16v-26l59-54c26-25 47-47 47-97 0-48-47-57-81-37l-6 29H24v-46" id="F"/><path fill="#3a414a" d="M90-239c59 0 76 52 76 120S152 4 89 4C31 4 14-51 14-119c0-67 17-120 76-120zM89-10c45-6 45-58 45-109 0-50 0-101-45-106-45 4-43 57-43 106 0 50-2 104 43 109" id="G"/><path fill="#3a414a" d="M104-123c39 3 61 21 62 59C167 7 83 12 19-4l-2-50h12c2 29 16 43 51 43 38 0 54-19 54-55 2-43-34-49-75-50v-14c37 0 64-7 64-48 0-47-47-56-81-36l-6 29H24v-46c51-13 135-13 131 51-2 34-20 52-51 57" id="H"/><g id="g"><use transform="matrix(0.09876543209876544,0,0,0.09876543209876544,0,0)" xlink:href="#E"/><use transform="matrix(0.09876543209876544,0,0,0.09876543209876544,17.77777777777778,0)" xlink:href="#F"/><use transform="matrix(0.09876543209876544,0,0,0.09876543209876544,35.55555555555556,0)" xlink:href="#G"/><use transform="matrix(0.09876543209876544,0,0,0.09876543209876544,53.333333333333336,0)" xlink:href="#H"/><use transform="matrix(0.09876543209876544,0,0,0.09876543209876544,71.11111111111111,0)" xlink:href="#F"/><use transform="matrix(0.09876543209876544,0,0,0.09876543209876544,88.88888888888889,0)" xlink:href="#E"/></g><g id="h"><use transform="matrix(0.09876543209876544,0,0,0.09876543209876544,0,0)" xlink:href="#A"/><use transform="matrix(0.09876543209876544,0,0,0.09876543209876544,25.58024691358025,0)" xlink:href="#r"/><use transform="matrix(0.09876543209876544,0,0,0.09876543209876544,41.283950617283956,0)" xlink:href="#m"/><use transform="matrix(0.09876543209876544,0,0,0.09876543209876544,68.93827160493828,0)" xlink:href="#y"/><use transform="matrix(0.09876543209876544,0,0,0.09876543209876544,84.64197530864199,0)" xlink:href="#s"/><use transform="matrix(0.09876543209876544,0,0,0.09876543209876544,102.41975308641979,0)" xlink:href="#w"/><use transform="matrix(0.09876543209876544,0,0,0.09876543209876544,120.19753086419755,0)" xlink:href="#D"/></g><path fill="#3a414a" d="M13-71v-27h94v27H13" id="I"/><use transform="matrix(0.09876543209876544,0,0,0.09876543209876544,0,0)" xlink:href="#I" id="i"/><g id="j"><use transform="matrix(0.06172839506172839,0,0,0.06172839506172839,0,0)" xlink:href="#E"/><use transform="matrix(0.06172839506172839,0,0,0.06172839506172839,11.11111111111111,0)" xlink:href="#F"/><use transform="matrix(0.06172839506172839,0,0,0.06172839506172839,22.22222222222222,0)" xlink:href="#H"/><use transform="matrix(0.06172839506172839,0,0,0.06172839506172839,33.33333333333333,0)" xlink:href="#F"/><use transform="matrix(0.06172839506172839,0,0,0.06172839506172839,44.44444444444444,0)" xlink:href="#E"/><use transform="matrix(0.06172839506172839,0,0,0.06172839506172839,55.55555555555556,0)" xlink:href="#H"/><use transform="matrix(0.06172839506172839,0,0,0.06172839506172839,66.66666666666667,0)" xlink:href="#F"/><use transform="matrix(0.06172839506172839,0,0,0.06172839506172839,77.77777777777779,0)" xlink:href="#E"/><use transform="matrix(0.06172839506172839,0,0,0.06172839506172839,88.8888888888889,0)" xlink:href="#H"/><use transform="matrix(0.06172839506172839,0,0,0.06172839506172839,100.00000000000001,0)" xlink:href="#F"/><use transform="matrix(0.06172839506172839,0,0,0.06172839506172839,111.11111111111113,0)" xlink:href="#E"/></g><path fill="#3a414a" d="M134-16c44-1 70-21 70-64v-142l-32-4v-10h80v10l-30 4v141c0 57-33 84-91 85-58 0-93-26-93-82v-144l-30-4v-10h94v10l-30 4c7 82-31 209 62 206" id="J"/><g id="k"><use transform="matrix(0.06172839506172839,0,0,0.06172839506172839,0,0)" xlink:href="#J"/><use transform="matrix(0.06172839506172839,0,0,0.06172839506172839,15.987654320987653,0)" xlink:href="#n"/><use transform="matrix(0.06172839506172839,0,0,0.06172839506172839,27.098765432098766,0)" xlink:href="#w"/><use transform="matrix(0.06172839506172839,0,0,0.06172839506172839,38.20987654320987,0)" xlink:href="#y"/><use transform="matrix(0.06172839506172839,0,0,0.06172839506172839,48.02469135802469,0)" xlink:href="#t"/><use transform="matrix(0.06172839506172839,0,0,0.06172839506172839,54.19753086419753,0)" xlink:href="#r"/></g></defs></g></svg>