<svg xmlns="http://www.w3.org/2000/svg" xmlns:xlink="http://www.w3.org/1999/xlink" xmlns:lucid="lucid" width="937" height="752"><g transform="translate(-516.8333333333335 48)" lucid:page-tab-id="0_0"><path d="M500-500h1000v1500H500z" fill="#fff"/><path d="M557.83-21a6 6 0 0 1 6-6h863a6 6 0 0 1 6 6v698a6 6 0 0 1-6 6h-863a6 6 0 0 1-6-6z" stroke="#282c33" stroke-width="2" fill="#fff"/><path d="M587.83 103.92a6 6 0 0 1 6-6h818a6 6 0 0 1 6 6v148a6 6 0 0 1-6 6h-818a6 6 0 0 1-6-6z" stroke="#282c33" stroke-width="2" fill="#fff"/><path d="M577.83 87.75a6 6 0 0 1 6-6h448a6 6 0 0 1 6 6v126a6 6 0 0 1-6 6h-448a6 6 0 0 1-6-6z" stroke="#000" stroke-opacity="0" stroke-width="2" fill="#fff" fill-opacity="0"/><use xlink:href="#a" transform="matrix(1,0,0,1,582.8333333333335,86.75) translate(10.135802469135797 72.44444444444444)"/><use xlink:href="#b" transform="matrix(1,0,0,1,582.8333333333335,86.75) translate(99.71604938271604 72.44444444444444)"/><use xlink:href="#c" transform="matrix(1,0,0,1,582.8333333333335,86.75) translate(189.2962962962963 72.44444444444444)"/><use xlink:href="#d" transform="matrix(1,0,0,1,582.8333333333335,86.75) translate(296.55555555555554 72.44444444444444)"/><use xlink:href="#e" transform="matrix(1,0,0,1,582.8333333333335,86.75) translate(371.12345679012344 72.44444444444444)"/><path d="M537.83 183.92a6 6 0 0 1 6-6h228a6 6 0 0 1 6 6v48a6 6 0 0 1-6 6h-228a6 6 0 0 1-6-6z" stroke="#000" stroke-opacity="0" stroke-width="2" fill="#fff" fill-opacity="0"/><use xlink:href="#f" transform="matrix(1,0,0,1,542.8333333333335,182.91666666666652) translate(52.85185185185186 30.708333333333332)"/><path d="M797.83 183.92a6 6 0 0 1 6-6h228a6 6 0 0 1 6 6v48a6 6 0 0 1-6 6h-228a6 6 0 0 1-6-6z" stroke="#000" stroke-opacity="0" stroke-width="2" fill="#fff" fill-opacity="0"/><use xlink:href="#g" transform="matrix(1,0,0,1,802.8333333333335,182.91666666666652) translate(24.481481481481495 30.708333333333332)"/><use xlink:href="#h" transform="matrix(1,0,0,1,802.8333333333335,182.91666666666652) translate(81.2962962962963 30.708333333333332)"/><use xlink:href="#i" transform="matrix(1,0,0,1,802.8333333333335,182.91666666666652) translate(139.96296296296296 30.708333333333332)"/><path d="M1259.83 165.58c-6.62 0-12 5.38-12 12v16c0 6.63 5.38 12 12 12h136c6.63 0 12-5.37 12-12v-16c0-6.62-5.37-12-12-12z" stroke="#282c33" stroke-width="2" fill="#fff"/><use xlink:href="#j" transform="matrix(1,0,0,1,1257.8333333333335,169.58333333333326) translate(11.512345679012341 20.444444444444443)"/><use xlink:href="#k" transform="matrix(1,0,0,1,1257.8333333333335,169.58333333333326) translate(44.166666666666664 20.444444444444443)"/><use xlink:href="#l" transform="matrix(1,0,0,1,1257.8333333333335,169.58333333333326) translate(67.00617283950618 20.444444444444443)"/><path d="M587.83 288.92a6 6 0 0 1 6-6h818a6 6 0 0 1 6 6v148a6 6 0 0 1-6 6h-818a6 6 0 0 1-6-6z" stroke="#282c33" stroke-width="2" fill="#fff"/><path d="M577.83 272.75a6 6 0 0 1 6-6h448a6 6 0 0 1 6 6v126a6 6 0 0 1-6 6h-448a6 6 0 0 1-6-6z" stroke="#000" stroke-opacity="0" stroke-width="2" fill="#fff" fill-opacity="0"/><use xlink:href="#a" transform="matrix(1,0,0,1,582.8333333333335,271.75) translate(10.135802469135797 72.44444444444444)"/><use xlink:href="#b" transform="matrix(1,0,0,1,582.8333333333335,271.75) translate(99.71604938271604 72.44444444444444)"/><use xlink:href="#c" transform="matrix(1,0,0,1,582.8333333333335,271.75) translate(189.2962962962963 72.44444444444444)"/><use xlink:href="#d" transform="matrix(1,0,0,1,582.8333333333335,271.75) translate(296.55555555555554 72.44444444444444)"/><use xlink:href="#e" transform="matrix(1,0,0,1,582.8333333333335,271.75) translate(371.12345679012344 72.44444444444444)"/><path d="M537.83 368.92a6 6 0 0 1 6-6h228a6 6 0 0 1 6 6v48a6 6 0 0 1-6 6h-228a6 6 0 0 1-6-6z" stroke="#000" stroke-opacity="0" stroke-width="2" fill="#fff" fill-opacity="0"/><use xlink:href="#f" transform="matrix(1,0,0,1,542.8333333333335,367.9166666666665) translate(52.85185185185186 30.708333333333332)"/><path d="M797.83 368.92a6 6 0 0 1 6-6h228a6 6 0 0 1 6 6v48a6 6 0 0 1-6 6h-228a6 6 0 0 1-6-6z" stroke="#000" stroke-opacity="0" stroke-width="2" fill="#fff" fill-opacity="0"/><use xlink:href="#g" transform="matrix(1,0,0,1,802.8333333333335,367.9166666666665) translate(24.481481481481495 30.708333333333332)"/><use xlink:href="#h" transform="matrix(1,0,0,1,802.8333333333335,367.9166666666665) translate(81.2962962962963 30.708333333333332)"/><use xlink:href="#i" transform="matrix(1,0,0,1,802.8333333333335,367.9166666666665) translate(139.96296296296296 30.708333333333332)"/><path d="M1259.83 350.58c-6.62 0-12 5.38-12 12v16c0 6.63 5.38 12 12 12h136c6.63 0 12-5.37 12-12v-16c0-6.62-5.37-12-12-12z" stroke="#282c33" stroke-width="2" fill="#fff"/><use xlink:href="#j" transform="matrix(1,0,0,1,1257.8333333333335,354.58333333333326) translate(11.512345679012341 20.444444444444443)"/><use xlink:href="#k" transform="matrix(1,0,0,1,1257.8333333333335,354.58333333333326) translate(44.166666666666664 20.444444444444443)"/><use xlink:href="#l" transform="matrix(1,0,0,1,1257.8333333333335,354.58333333333326) translate(67.00617283950618 20.444444444444443)"/><path d="M587.83 26.17a6 6 0 0 1 6-6h188a6 6 0 0 1 6 6v28a6 6 0 0 1-6 6h-188a6 6 0 0 1-6-6z" stroke="#282c33" stroke-width="2" fill="#fff"/><path d="M751.83 30.17a6 6 0 0 1 6-6h20a6 6 0 0 1 6 6v20a6 6 0 0 1-6 6h-20a6 6 0 0 1-6-6z" stroke="#282c33" stroke-width="2" fill="none"/><path d="M758.23 33.77h19.2l-9.6 12.8z" stroke="#282c33" stroke-width="2" fill="#282c33"/><use xlink:href="#m" transform="matrix(1,0,0,1,599.8333333333335,20.166666666666515) translate(0 24.444444444444443)"/><use xlink:href="#n" transform="matrix(1,0,0,1,599.8333333333335,20.166666666666515) translate(42.53086419753087 24.444444444444443)"/><path d="M737.83 631.75h480v20h-480z" fill="none"/><g><use xlink:href="#o" transform="matrix(1,0,0,1,844.5000000000001,631.75) translate(8.5 14.4)"/></g><g><use xlink:href="#p" transform="matrix(1,0,0,1,871.1666666666669,631.75) translate(8.5 14.4)"/></g><g><use xlink:href="#q" transform="matrix(1,0,0,1,897.8333333333335,631.75) translate(8.5 14.4)"/></g><g><use xlink:href="#r" transform="matrix(1,0,0,1,924.5000000000002,631.75) translate(8.5 14.4)"/></g><g><use xlink:href="#s" transform="matrix(1,0,0,1,951.1666666666669,631.75) translate(8.5 14.4)"/></g><g><use xlink:href="#t" transform="matrix(1,0,0,1,977.8333333333335,631.75) translate(8.5 14.4)"/></g><g><use xlink:href="#u" transform="matrix(1,0,0,1,1004.5000000000002,631.75) translate(8.5 14.4)"/></g><g><use xlink:href="#v" transform="matrix(1,0,0,1,1031.166666666667,631.75) translate(8.5 14.4)"/></g><g><use xlink:href="#w" transform="matrix(1,0,0,1,1057.8333333333335,631.75) translate(8.5 14.4)"/></g><g><use xlink:href="#x" transform="matrix(1,0,0,1,1084.5000000000002,631.75) translate(3.5 14.4)"/></g><g><use xlink:href="#y" transform="matrix(1,0,0,1,737.8333333333335,631.75) translate(0 14.4)"/><use xlink:href="#z" transform="matrix(1,0,0,1,737.8333333333335,631.75) translate(26 14.4)"/></g><g><use xlink:href="#A" transform="matrix(1,0,0,1,1111.1666666666667,631.75) translate(42.099999999999994 14.4)"/><use xlink:href="#B" transform="matrix(1,0,0,1,1111.1666666666667,631.75) translate(86 14.4)"/></g><path d="M1097.83 22.38a6 6 0 0 1 6-6h307.2a6 6 0 0 1 6 6v35.58a6 6 0 0 1-6 6h-307.2a6 6 0 0 1-6-6z" stroke="#282c33" stroke-width="2" fill="#fff"/><g><use xlink:href="#C" transform="matrix(1,0,0,1,1102.833333333334,21.375) translate(126.66666666666667 22.52777777777778)"/></g><defs><path fill="#3a414a" d="M77-14l30 5v9H13v-9l30-5v-208l-30-4v-10h94v10l-30 4v208" id="D"/><path fill="#3a414a" d="M125-118c4-37-41-34-68-26v132l23 4v8H8C5-13 21-9 28-12v-141c-7-3-23 1-20-12h47l2 13c31-23 98-29 98 31v109c7 3 23-1 20 12h-72v-8l22-4v-106" id="E"/><path fill="#3a414a" d="M41-130c7 48 86 23 86 84 0 56-69 57-112 41v-40c20 0 9 29 31 31 35 19 77-26 41-50-27-18-72-13-72-59 0-50 58-52 100-41v36c-19 1-8-25-28-25-21-7-50-1-46 23" id="F"/><path fill="#3a414a" d="M84-170c49 0 66 33 63 87H46c-8 60 38 80 95 63v10C128-2 108 4 88 4 34 4 14-29 14-84c-1-54 22-86 70-86zm33 73c12-57-57-82-69-24-1 7-2 15-2 24h71" id="G"/><path fill="#3a414a" d="M57-145c16-10 35-24 60-25v45c-19 1-8-30-40-17l-20 6v124l29 4v8H7v-8l21-4v-141c-8-3-24 2-21-12h48" id="H"/><path fill="#3a414a" d="M54-38c-1 25 24 26 44 20v12C71 10 25 9 25-35v-115H4c-2-14 14-10 21-15l18-38h11v38h38v15H54v112" id="I"/><g id="a"><use transform="matrix(0.09876543209876544,0,0,0.09876543209876544,0,0)" xlink:href="#D"/><use transform="matrix(0.09876543209876544,0,0,0.09876543209876544,11.753086419753087,0)" xlink:href="#E"/><use transform="matrix(0.09876543209876544,0,0,0.09876543209876544,29.530864197530867,0)" xlink:href="#F"/><use transform="matrix(0.09876543209876544,0,0,0.09876543209876544,43.358024691358025,0)" xlink:href="#G"/><use transform="matrix(0.09876543209876544,0,0,0.09876543209876544,59.06172839506172,0)" xlink:href="#H"/><use transform="matrix(0.09876543209876544,0,0,0.09876543209876544,70.81481481481481,0)" xlink:href="#I"/></g><path fill="#3a414a" d="M203-222l-32-4v-10h81v10l-31 4V0h-17L59-212v198l32 5v9H10v-9l31-5v-208l-31-4v-10h72L203-61v-161" id="J"/><path fill="#3a414a" d="M240-154L185 4h-14l-41-109L90 4H77L20-153c-7-3-23 1-20-12h79v8l-27 4L91-41l40-108h14l40 109 38-113-28-4v-8h63v8" id="K"/><g id="b"><use transform="matrix(0.09876543209876544,0,0,0.09876543209876544,0,0)" xlink:href="#J"/><use transform="matrix(0.09876543209876544,0,0,0.09876543209876544,25.58024691358025,0)" xlink:href="#G"/><use transform="matrix(0.09876543209876544,0,0,0.09876543209876544,41.283950617283956,0)" xlink:href="#K"/><use transform="matrix(0.09876543209876544,0,0,0.09876543209876544,66.8641975308642,0)" xlink:href="#F"/></g><path fill="#3a414a" d="M81-9v9H4v-9l26-5 81-224h33l83 224 30 5v9h-99v-9l31-5-23-68H73L49-14zm38-203L78-98h82" id="L"/><path fill="#3a414a" d="M47-200c-23 0-25-39 0-38 13 0 18 7 20 19-1 11-8 19-20 19zM65-12l28 4v8H8v-8l28-4v-141l-24-4v-8h53v153" id="M"/><path fill="#3a414a" d="M45-84c0 64 52 80 104 63 1 25-30 25-55 25-56 0-80-32-80-88 0-76 62-98 131-80v46h-10c-5-15-4-31-23-35-47-10-67 21-67 69" id="N"/><path fill="#3a414a" d="M65-12l28 4v8H7v-8l28-4v-226l-28-4v-8h58v238" id="O"/><g id="c"><use transform="matrix(0.09876543209876544,0,0,0.09876543209876544,0,0)" xlink:href="#L"/><use transform="matrix(0.09876543209876544,0,0,0.09876543209876544,25.58024691358025,0)" xlink:href="#H"/><use transform="matrix(0.09876543209876544,0,0,0.09876543209876544,37.333333333333336,0)" xlink:href="#I"/><use transform="matrix(0.09876543209876544,0,0,0.09876543209876544,47.20987654320988,0)" xlink:href="#M"/><use transform="matrix(0.09876543209876544,0,0,0.09876543209876544,57.086419753086425,0)" xlink:href="#N"/><use transform="matrix(0.09876543209876544,0,0,0.09876543209876544,72.79012345679013,0)" xlink:href="#O"/><use transform="matrix(0.09876543209876544,0,0,0.09876543209876544,82.66666666666667,0)" xlink:href="#G"/></g><path fill="#3a414a" d="M55 0v-9l38-5v-207c-22 1-53 0-70 4l-5 37H7v-56h207v56h-12l-5-37-70-3v206l37 5v9H55" id="P"/><g id="d"><use transform="matrix(0.09876543209876544,0,0,0.09876543209876544,0,0)" xlink:href="#P"/><use transform="matrix(0.09876543209876544,0,0,0.09876543209876544,20.34567901234568,0)" xlink:href="#M"/><use transform="matrix(0.09876543209876544,0,0,0.09876543209876544,30.222222222222225,0)" xlink:href="#I"/><use transform="matrix(0.09876543209876544,0,0,0.09876543209876544,40.09876543209877,0)" xlink:href="#O"/><use transform="matrix(0.09876543209876544,0,0,0.09876543209876544,49.97530864197532,0)" xlink:href="#G"/></g><path fill="#3a414a" d="M10 0v-9l31-5v-208l-31-4v-10h95v10l-30 4v93h110v-93l-30-4v-10h94v10l-30 4v208l30 5v9h-94v-9l30-5v-99H75v99l30 5v9H10" id="Q"/><g id="e"><use transform="matrix(0.09876543209876544,0,0,0.09876543209876544,0,0)" xlink:href="#Q"/><use transform="matrix(0.09876543209876544,0,0,0.09876543209876544,25.58024691358025,0)" xlink:href="#G"/><use transform="matrix(0.09876543209876544,0,0,0.09876543209876544,41.283950617283956,0)" xlink:href="#H"/><use transform="matrix(0.09876543209876544,0,0,0.09876543209876544,53.03703703703704,0)" xlink:href="#G"/></g><path fill="#3a414a" d="M24-231c66-21 156 2 128 81C132-92 78-66 39-27h121V0H16v-26l59-54c26-25 47-47 47-97 0-48-47-57-81-37l-6 29H24v-46" id="R"/><path fill="#3a414a" d="M90-239c59 0 76 52 76 120S152 4 89 4C31 4 14-51 14-119c0-67 17-120 76-120zM89-10c45-6 45-58 45-109 0-50 0-101-45-106-45 4-43 57-43 106 0 50-2 104 43 109" id="S"/><path fill="#3a414a" d="M142-52V0h-30v-52H7v-23l115-162h20v160h32v25h-32zm-30-25l-1-119L27-77h85" id="T"/><path fill="#3a414a" d="M13-71v-27h94v27H13" id="U"/><g id="f"><use transform="matrix(0.07407407407407407,0,0,0.07407407407407407,0,0)" xlink:href="#R"/><use transform="matrix(0.07407407407407407,0,0,0.07407407407407407,13.333333333333332,0)" xlink:href="#S"/><use transform="matrix(0.07407407407407407,0,0,0.07407407407407407,26.666666666666664,0)" xlink:href="#R"/><use transform="matrix(0.07407407407407407,0,0,0.07407407407407407,40,0)" xlink:href="#T"/><use transform="matrix(0.07407407407407407,0,0,0.07407407407407407,53.33333333333333,0)" xlink:href="#U"/><use transform="matrix(0.07407407407407407,0,0,0.07407407407407407,62.148148148148145,0)" xlink:href="#S"/><use transform="matrix(0.07407407407407407,0,0,0.07407407407407407,75.48148148148148,0)" xlink:href="#T"/><use transform="matrix(0.07407407407407407,0,0,0.07407407407407407,88.81481481481481,0)" xlink:href="#U"/><use transform="matrix(0.07407407407407407,0,0,0.07407407407407407,97.62962962962962,0)" xlink:href="#S"/><use transform="matrix(0.07407407407407407,0,0,0.07407407407407407,110.96296296296293,0)" xlink:href="#T"/></g><g id="g"><use transform="matrix(0.07407407407407407,0,0,0.07407407407407407,0,0)" xlink:href="#J"/><use transform="matrix(0.07407407407407407,0,0,0.07407407407407407,19.185185185185183,0)" xlink:href="#G"/><use transform="matrix(0.07407407407407407,0,0,0.07407407407407407,30.962962962962962,0)" xlink:href="#K"/></g><path fill="#3a414a" d="M147-93v79l38 5v9H76v-9l37-5v-78L31-222l-27-4v-10h100v10l-32 4 68 109 64-109-30-4v-10h77v10l-26 4" id="V"/><path fill="#3a414a" d="M90-170c52 0 76 32 76 87 0 54-24 87-77 87-51 0-75-34-75-87 0-54 24-87 76-87zM89-10c39 0 46-35 46-73 0-39-7-73-46-73-39 1-44 34-44 73s6 72 44 73" id="W"/><path fill="#3a414a" d="M60-80l68-73c-7-3-20 0-17-12h58c3 13-13 9-20 12l-47 48 60 93c7 3 21-1 18 12h-68c-3-12 9-9 15-12L82-83 60-60v48c7 3 21-1 18 12H10v-8l21-4v-226l-24-4v-8h53v170" id="X"/><g id="h"><use transform="matrix(0.07407407407407407,0,0,0.07407407407407407,0,0)" xlink:href="#V"/><use transform="matrix(0.07407407407407407,0,0,0.07407407407407407,16.518518518518515,0)" xlink:href="#W"/><use transform="matrix(0.07407407407407407,0,0,0.07407407407407407,29.851851851851848,0)" xlink:href="#H"/><use transform="matrix(0.07407407407407407,0,0,0.07407407407407407,38.666666666666664,0)" xlink:href="#X"/></g><path fill="#3a414a" d="M126-118c4-37-42-32-68-25v131l24 4v8H8C5-13 21-9 28-12v-141c-7-3-23 1-20-12h48l1 13c22-15 77-30 92 2 32-22 104-36 104 29v109c8 3 24-2 21 12h-75v-8l25-4v-106c3-39-45-31-72-24 7 37 1 88 3 130l25 4v8h-78v-8l24-4v-106" id="Y"/><g id="i"><use transform="matrix(0.07407407407407407,0,0,0.07407407407407407,0,0)" xlink:href="#P"/><use transform="matrix(0.07407407407407407,0,0,0.07407407407407407,15.259259259259258,0)" xlink:href="#M"/><use transform="matrix(0.07407407407407407,0,0,0.07407407407407407,22.666666666666664,0)" xlink:href="#Y"/><use transform="matrix(0.07407407407407407,0,0,0.07407407407407407,43.407407407407405,0)" xlink:href="#G"/><use transform="matrix(0.07407407407407407,0,0,0.07407407407407407,55.18518518518518,0)" xlink:href="#F"/></g><path fill="#3a414a" d="M52-115c0 90 69 126 140 93v-67l-30-5v-9h87v9l-23 5v77c-27 8-56 16-90 16C59 2 15-37 15-115c-1-82 41-123 122-123 31 0 59 4 83 10v51h-12l-5-29c-15-12-38-18-65-18-66-1-86 42-86 109" id="Z"/><g id="j"><use transform="matrix(0.06172839506172839,0,0,0.06172839506172839,0,0)" xlink:href="#Z"/><use transform="matrix(0.06172839506172839,0,0,0.06172839506172839,15.987654320987653,0)" xlink:href="#W"/></g><g id="k"><use transform="matrix(0.06172839506172839,0,0,0.06172839506172839,0,0)" xlink:href="#I"/><use transform="matrix(0.06172839506172839,0,0,0.06172839506172839,6.172839506172839,0)" xlink:href="#W"/></g><g id="l"><use transform="matrix(0.06172839506172839,0,0,0.06172839506172839,0,0)" xlink:href="#L"/><use transform="matrix(0.06172839506172839,0,0,0.06172839506172839,15.987654320987653,0)" xlink:href="#H"/><use transform="matrix(0.06172839506172839,0,0,0.06172839506172839,23.333333333333332,0)" xlink:href="#I"/><use transform="matrix(0.06172839506172839,0,0,0.06172839506172839,29.50617283950617,0)" xlink:href="#M"/><use transform="matrix(0.06172839506172839,0,0,0.06172839506172839,35.67901234567901,0)" xlink:href="#N"/><use transform="matrix(0.06172839506172839,0,0,0.06172839506172839,45.49382716049383,0)" xlink:href="#O"/><use transform="matrix(0.06172839506172839,0,0,0.06172839506172839,51.66666666666667,0)" xlink:href="#G"/></g><path fill="#3a414a" d="M178-68c0 79-95 82-154 59v-54h12c1 35 22 52 60 52 50 0 69-58 33-82-39-24-105-21-105-85 0-67 86-66 142-53v49h-12l-6-29c-31-27-121-7-89 42 28 43 119 24 119 101" id="aa"/><g id="m"><use transform="matrix(0.06172839506172839,0,0,0.06172839506172839,0,0)" xlink:href="#aa"/><use transform="matrix(0.06172839506172839,0,0,0.06172839506172839,12.345679012345679,0)" xlink:href="#W"/><use transform="matrix(0.06172839506172839,0,0,0.06172839506172839,23.45679012345679,0)" xlink:href="#H"/><use transform="matrix(0.06172839506172839,0,0,0.06172839506172839,30.80246913580247,0)" xlink:href="#I"/></g><path fill="#3a414a" d="M75-131c50 2 93 3 93-48 0-46-48-41-93-41v89zm0 115c55 4 111 6 111-51 0-53-58-48-111-48v99zm148-52C223 24 102-3 10 0v-9l31-5v-208l-31-4v-10c77 6 193-24 194 56 0 33-20 48-48 54 36 5 67 20 67 58" id="ab"/><path fill="#3a414a" d="M161-154L85 37C75 66 49 86 8 75V39c18-2 6 24 29 21 30-4 38-32 47-58L21-153c-7-3-20 0-17-12h77v8l-26 4 45 116 43-116-26-4v-8h62v8" id="ac"/><g id="n"><use transform="matrix(0.06172839506172839,0,0,0.06172839506172839,0,0)" xlink:href="#ab"/><use transform="matrix(0.06172839506172839,0,0,0.06172839506172839,14.814814814814813,0)" xlink:href="#ac"/></g><path fill="#316ccc" d="M23 0v-37h61v-169l-59 37v-38l62-41h46v211h57V0H23" id="ad"/><g id="o"><use transform="matrix(0.05,0,0,0.05,0,0)" xlink:href="#ad"/><path fill="#316ccc" d="M-.9.97h11.8v1.9H-.9z"/></g><path fill="#316ccc" d="M182-182c0 78-84 86-111 141h115V0H12c-6-101 99-100 120-180 1-22-12-31-33-32-23 0-32 14-35 34l-49-3c5-45 32-70 84-70 51 0 83 22 83 69" id="ae"/><g id="p"><use transform="matrix(0.05,0,0,0.05,0,0)" xlink:href="#ae"/><path fill="#316ccc" d="M-.9.97h11.8v1.9H-.9z"/></g><path fill="#316ccc" d="M128-127c34 4 56 21 59 58 7 91-148 94-172 28-4-9-6-17-7-26l51-5c1 24 16 35 40 36 23 0 39-12 38-36-1-31-31-36-65-34v-40c32 2 59-3 59-33 0-20-13-33-34-33s-33 13-35 32l-50-3c6-44 37-68 86-68 50 0 83 20 83 66 0 35-22 52-53 58" id="af"/><g id="q"><use transform="matrix(0.05,0,0,0.05,0,0)" xlink:href="#af"/><path fill="#316ccc" d="M-.9.97h11.8v1.9H-.9z"/></g><path fill="#316ccc" d="M165-50V0h-47v-50H5v-38l105-160h55v161h33v37h-33zm-47-37l2-116L46-87h72" id="ag"/><g id="r"><use transform="matrix(0.05,0,0,0.05,0,0)" xlink:href="#ag"/><path fill="#316ccc" d="M-.9.97h11.8v1.9H-.9z"/></g><path fill="#316ccc" d="M139-81c0-46-55-55-73-27H18l9-140h149v37H72l-4 63c44-38 133-4 122 66C201 21 21 35 11-62l49-4c5 18 15 30 39 30 26 0 40-18 40-45" id="ah"/><g id="s"><use transform="matrix(0.05,0,0,0.05,0,0)" xlink:href="#ah"/><path fill="#316ccc" d="M-.9.97h11.8v1.9H-.9z"/></g><path fill="#316ccc" d="M115-159c48 0 72 30 72 78 0 54-30 85-83 85-64 0-91-50-91-122 0-98 58-163 141-120 15 8 21 24 27 44l-47 6c-5-31-48-31-61-4-7 14-11 33-11 60 9-17 28-27 53-27zM102-35c24 0 36-20 36-45s-11-43-37-43c-23 0-36 14-36 38 0 27 11 50 37 50" id="ai"/><g id="t"><use transform="matrix(0.05,0,0,0.05,0,0)" xlink:href="#ai"/><path fill="#316ccc" d="M-.9.97h11.8v1.9H-.9z"/></g><path fill="#316ccc" d="M52 0c1-96 47-148 87-207H15v-41h169v40c-36 62-79 113-81 208H52" id="aj"/><g id="u"><use transform="matrix(0.05,0,0,0.05,0,0)" xlink:href="#aj"/><path fill="#316ccc" d="M-.9.97h11.8v1.9H-.9z"/></g><path fill="#316ccc" d="M138-131c27 9 52 24 51 61 0 53-36 74-89 74S11-19 11-69c0-35 22-54 51-61-78-25-46-121 38-121 51 0 83 19 83 66 0 30-18 49-45 54zm-38-16c24 0 32-13 32-36 1-23-11-34-32-34-22 0-33 12-32 34 0 22 9 36 32 36zm1 116c27 0 37-17 37-43 0-25-13-39-39-39-24 0-37 15-37 40 0 27 11 42 39 42" id="ak"/><g id="v"><use transform="matrix(0.05,0,0,0.05,0,0)" xlink:href="#ak"/><path fill="#316ccc" d="M-.9.97h11.8v1.9H-.9z"/></g><path fill="#316ccc" d="M99-251c69 0 84 53 88 123 5 99-61 162-144 118-15-8-21-25-26-45l46-6c4 31 50 33 63 7 7-15 12-36 12-60-9 18-29 28-54 28-48 0-72-32-72-82 0-55 31-83 87-83zm-1 128c24 0 37-16 37-39 0-27-10-51-37-51-25 0-35 19-35 45 0 25 10 45 35 45" id="al"/><g id="w"><use transform="matrix(0.05,0,0,0.05,0,0)" xlink:href="#al"/><path fill="#316ccc" d="M-.9.97h11.8v1.9H-.9z"/></g><path fill="#316ccc" d="M101-251c68 0 84 54 84 127C185-50 166 4 99 4S15-52 14-124c-1-75 17-127 87-127zm-1 216c37-5 36-46 36-89s4-89-36-89c-39 0-36 45-36 89 0 43-3 85 36 89" id="am"/><g id="x"><use transform="matrix(0.05,0,0,0.05,0,0)" xlink:href="#ad"/><use transform="matrix(0.05,0,0,0.05,10,0)" xlink:href="#am"/><path fill="#316ccc" d="M-.9.97h21.8v1.9H-.9z"/></g><path fill="#316ccc" d="M15-91v-56l181-69v40L49-119l147 57v40" id="an"/><g id="y"><use transform="matrix(0.05,0,0,0.05,0,0)" xlink:href="#an"/><use transform="matrix(0.05,0,0,0.05,10.5,0)" xlink:href="#an"/><path fill="#316ccc" d="M-.9.97h27.8v1.9H-.9z"/></g><path fill="#316ccc" d="M24-248c93 1 206-16 204 79-1 75-69 88-152 82V0H24v-248zm52 121c47 0 100 7 100-41 0-47-54-39-100-39v80" id="ao"/><path fill="#316ccc" d="M135-150c-39-12-60 13-60 57V0H25l-1-190h47c2 13-1 29 3 40 6-28 27-53 61-41v41" id="ap"/><path fill="#316ccc" d="M185-48c-13 30-37 53-82 52C43 2 14-33 14-96s30-98 90-98c62 0 83 45 84 108H66c0 31 8 55 39 56 18 0 30-7 34-22zm-45-69c5-46-57-63-70-21-2 6-4 13-4 21h74" id="aq"/><path fill="#316ccc" d="M128 0H69L1-190h53L99-40l48-150h52" id="ar"/><g id="z"><use transform="matrix(0.05,0,0,0.05,0,0)" xlink:href="#ao"/><use transform="matrix(0.05,0,0,0.05,12,0)" xlink:href="#ap"/><use transform="matrix(0.05,0,0,0.05,19,0)" xlink:href="#aq"/><use transform="matrix(0.05,0,0,0.05,29,0)" xlink:href="#ar"/><path fill="#316ccc" d="M-.9.97h40.8v1.9H-.9z"/></g><path fill="#316ccc" d="M175 0L67-191c6 58 2 128 3 191H24v-248h59L193-55c-6-58-2-129-3-193h46V0h-61" id="as"/><path fill="#316ccc" d="M144 0l-44-69L55 0H2l70-98-66-92h53l41 62 40-62h54l-67 91 71 99h-54" id="at"/><path fill="#316ccc" d="M115-3C79 11 28 4 28-45v-112H4v-33h27l15-45h31v45h36v33H77v99c-1 23 16 31 38 25v30" id="au"/><g id="A"><use transform="matrix(0.05,0,0,0.05,0,0)" xlink:href="#as"/><use transform="matrix(0.05,0,0,0.05,12.950000000000001,0)" xlink:href="#aq"/><use transform="matrix(0.05,0,0,0.05,22.950000000000003,0)" xlink:href="#at"/><use transform="matrix(0.05,0,0,0.05,32.95,0)" xlink:href="#au"/><path fill="#316ccc" d="M-.9.97h45.7v1.9H-.9z"/></g><path fill="#316ccc" d="M15-22v-40l146-57-146-57v-40l181 69v56" id="av"/><g id="B"><use transform="matrix(0.05,0,0,0.05,0,0)" xlink:href="#av"/><use transform="matrix(0.05,0,0,0.05,10.5,0)" xlink:href="#av"/><path fill="#316ccc" d="M-.9.97h22.8v1.9H-.9z"/></g><path fill="#3a414a" d="M75-106v92l39 5v9H13v-9l28-5v-208l-31-4v-10h177v57h-11l-6-38c-28-4-63-3-95-3v98h69l5-28h11v73h-11l-5-29H75" id="aw"/><g id="C"><use transform="matrix(0.06172839506172839,0,0,0.06172839506172839,0,0)" xlink:href="#aw"/><use transform="matrix(0.06172839506172839,0,0,0.06172839506172839,12.345679012345679,0)" xlink:href="#M"/><use transform="matrix(0.06172839506172839,0,0,0.06172839506172839,18.51851851851852,0)" xlink:href="#O"/><use transform="matrix(0.06172839506172839,0,0,0.06172839506172839,24.691358024691358,0)" xlink:href="#I"/><use transform="matrix(0.06172839506172839,0,0,0.06172839506172839,30.864197530864196,0)" xlink:href="#G"/><use transform="matrix(0.06172839506172839,0,0,0.06172839506172839,40.67901234567901,0)" xlink:href="#H"/><use transform="matrix(0.06172839506172839,0,0,0.06172839506172839,48.02469135802469,0)" xlink:href="#F"/></g></defs></g></svg>