<svg xmlns="http://www.w3.org/2000/svg" xmlns:xlink="http://www.w3.org/1999/xlink" xmlns:lucid="lucid" width="1053.38" height="646"><g transform="translate(-118.64583333333337 25.666666666666742)" lucid:page-tab-id="0_0"><path d="M0-500h1500v1500H0z" fill="#fff"/><path d="M161.52 3.33a6 6 0 0 1 6-6h975.5a6 6 0 0 1 6 6v588a6 6 0 0 1-6 6h-975.5a6 6 0 0 1-6-6z" stroke="#282c33" stroke-width="2" fill="#fff"/><path d="M161.52 3.33a6 6 0 0 1 6-6h975.5a6 6 0 0 1 6 6v48a6 6 0 0 1-6 6h-975.5a6 6 0 0 1-6-6z" stroke="#282c33" stroke-width="2" fill="#bfbfbf"/><path d="M353.52 27.33a6 6 0 0 1 6-6h771.5a6 6 0 0 1 6 6v12a6 6 0 0 1-6 6h-771.5a6 6 0 0 1-6-6z" stroke="#282c33" stroke-width="2" fill="#fff"/><path d="M185.52 21.33l-12 12 12 12m-12-12h24M233.52 21.33l12 12-12 12m-12-12h24M293.52 33.33c-1.4-6.23-2.8-8.15-4.95-9.7-5.36-3.9-12.86-2.7-16.76 2.65-3.88 5.36-2.7 12.87 2.67 16.76 5.36 3.9 12.86 2.7 16.76-2.65" stroke="#282c33" stroke-width="6" fill="none"/><path d="M296.64 21.33v12h-12z" stroke="#282c33" stroke-width="1.5" fill="#282c33"/><path d="M317.52 33.33l12-12 12 12h-2.4v12h-6v-12h-7.2v12h-6v-12z" stroke="#282c33" fill="#282c33"/><use xlink:href="#a" transform="matrix(1,0,0,1,181.52083333333337,-2.6666666666667425) translate(422.8888888888889 17.77777777777778)"/><use xlink:href="#b" transform="matrix(1,0,0,1,359.52083333333337,21.333333333333258) translate(0 17.77777777777778)"/><path d="M176.52 82.33h958.75v56.6H176.52z" fill="none"/><path d="M260.4 99.3l11.33 11.33-11.32 11.3M634.3 99.3l11.33 11.33-11.32 11.3M852.5 99.3l11.33 11.33-11.32 11.3" stroke="#000" stroke-width="2" fill="none"/><use xlink:href="#c" transform="matrix(1,0,0,1,176.52083333333337,87.3333333333328) translate(10.074999999999996 27.1)"/><use xlink:href="#d" transform="matrix(1,0,0,1,176.52083333333337,87.3333333333328) translate(38.025 27.1)"/><use xlink:href="#e" transform="matrix(1,0,0,1,266.0708333333334,87.3333333333328) translate(9.899999999999977 27.1)"/><use xlink:href="#f" transform="matrix(1,0,0,1,266.0708333333334,87.3333333333328) translate(99.64999999999999 27.1)"/><use xlink:href="#g" transform="matrix(1,0,0,1,266.0708333333334,87.3333333333328) translate(136.55 27.1)"/><use xlink:href="#h" transform="matrix(1,0,0,1,266.0708333333334,87.3333333333328) translate(255.35 27.1)"/><use xlink:href="#e" transform="matrix(1,0,0,1,639.9708333333334,87.3333333333328) translate(10.249999999999986 27.1)"/><use xlink:href="#i" transform="matrix(1,0,0,1,639.9708333333334,87.3333333333328) translate(100 27.1)"/><use xlink:href="#e" transform="matrix(1,0,0,1,858.1708333333335,87.3333333333328) translate(10.299999999999983 27.1)"/><use xlink:href="#j" transform="matrix(1,0,0,1,858.1708333333335,87.3333333333328) translate(100.05 27.1)"/><use xlink:href="#k" transform="matrix(1,0,0,1,858.1708333333335,87.3333333333328) translate(173.8 27.1)"/><path d="M621.65 532.33c-6.63 0-12 5.38-12 12v16c0 6.63 5.37 12 12 12H851.4c6.62 0 12-5.37 12-12v-16c0-6.62-5.38-12-12-12z" stroke="#282c33" stroke-width="2" fill="#fff"/><use xlink:href="#l" transform="matrix(1,0,0,1,619.6458333333334,536.3333333333333) translate(19.006172839506178 20.444444444444443)"/><use xlink:href="#m" transform="matrix(1,0,0,1,619.6458333333334,536.3333333333333) translate(64.00617283950618 20.444444444444443)"/><use xlink:href="#n" transform="matrix(1,0,0,1,619.6458333333334,536.3333333333333) translate(84.37654320987654 20.444444444444443)"/><use xlink:href="#o" transform="matrix(1,0,0,1,619.6458333333334,536.3333333333333) translate(118.32716049382717 20.444444444444443)"/><use xlink:href="#p" transform="matrix(1,0,0,1,619.6458333333334,536.3333333333333) translate(186.59876543209876 20.444444444444443)"/><path d="M162.73 113.33a6 6 0 0 1 6-6h648a6 6 0 0 1 6 6v148a6 6 0 0 1-6 6h-648a6 6 0 0 1-6-6z" stroke="#000" stroke-opacity="0" stroke-width="2" fill="#fff" fill-opacity="0"/><g><use xlink:href="#q" transform="matrix(1,0,0,1,167.73406862745128,112.33333333333326) translate(43.83333333333337 83.5625)"/><use xlink:href="#r" transform="matrix(1,0,0,1,167.73406862745128,112.33333333333326) translate(213.61111111111114 83.5625)"/><use xlink:href="#s" transform="matrix(1,0,0,1,167.73406862745128,112.33333333333326) translate(298.83333333333337 83.5625)"/><use xlink:href="#t" transform="matrix(1,0,0,1,167.73406862745128,112.33333333333326) translate(435.3888888888889 83.5625)"/></g><path d="M230.9 241.75a6 6 0 0 1 6-6h836.75a6 6 0 0 1 6 6v119.5a6 6 0 0 1-6 6H236.9a6 6 0 0 1-6-6z" stroke="#000" stroke-opacity="0" stroke-width="2" fill="#fff" fill-opacity="0"/><g><use xlink:href="#u" transform="matrix(1,0,0,1,235.89583333333354,240.75) translate(15.327473958333314 19.951822916666668)"/><use xlink:href="#v" transform="matrix(1,0,0,1,235.89583333333354,240.75) translate(76.22200520833331 19.951822916666668)"/><use xlink:href="#w" transform="matrix(1,0,0,1,235.89583333333354,240.75) translate(134.95638020833331 19.951822916666668)"/><use xlink:href="#x" transform="matrix(1,0,0,1,235.89583333333354,240.75) translate(186.134765625 19.951822916666668)"/><use xlink:href="#y" transform="matrix(1,0,0,1,235.89583333333354,240.75) translate(211.19986979166669 19.951822916666668)"/><use xlink:href="#z" transform="matrix(1,0,0,1,235.89583333333354,240.75) translate(265.431640625 19.951822916666668)"/><use xlink:href="#A" transform="matrix(1,0,0,1,235.89583333333354,240.75) translate(372.89257812500006 19.951822916666668)"/><use xlink:href="#B" transform="matrix(1,0,0,1,235.89583333333354,240.75) translate(464.63997395833337 19.951822916666668)"/><use xlink:href="#C" transform="matrix(1,0,0,1,235.89583333333354,240.75) translate(500.56966145833337 19.951822916666668)"/><use xlink:href="#D" transform="matrix(1,0,0,1,235.89583333333354,240.75) translate(536.2350260416667 19.951822916666668)"/><use xlink:href="#E" transform="matrix(1,0,0,1,235.89583333333354,240.75) translate(563.7975260416667 19.951822916666668)"/><use xlink:href="#F" transform="matrix(1,0,0,1,235.89583333333354,240.75) translate(644.279296875 19.951822916666668)"/><use xlink:href="#G" transform="matrix(1,0,0,1,235.89583333333354,240.75) translate(713.8873697916667 19.951822916666668)"/><use xlink:href="#H" transform="matrix(1,0,0,1,235.89583333333354,240.75) translate(805.6256510416667 19.951822916666668)"/><use xlink:href="#I" transform="matrix(1,0,0,1,235.89583333333354,240.75) translate(21.589192708333258 45.372395833333336)"/><use xlink:href="#J" transform="matrix(1,0,0,1,235.89583333333354,240.75) translate(81.9733072916666 45.372395833333336)"/><use xlink:href="#K" transform="matrix(1,0,0,1,235.89583333333354,240.75) translate(103.88476562499994 45.372395833333336)"/><use xlink:href="#L" transform="matrix(1,0,0,1,235.89583333333354,240.75) translate(165.16210937499994 45.372395833333336)"/><use xlink:href="#M" transform="matrix(1,0,0,1,235.89583333333354,240.75) translate(229.82096354166663 45.372395833333336)"/><use xlink:href="#N" transform="matrix(1,0,0,1,235.89583333333354,240.75) translate(292.73893229166663 45.372395833333336)"/><use xlink:href="#O" transform="matrix(1,0,0,1,235.89583333333354,240.75) translate(317.76757812499994 45.372395833333336)"/><use xlink:href="#P" transform="matrix(1,0,0,1,235.89583333333354,240.75) translate(366.63085937499994 45.372395833333336)"/><use xlink:href="#Q" transform="matrix(1,0,0,1,235.89583333333354,240.75) translate(393.30013020833326 45.372395833333336)"/><use xlink:href="#R" transform="matrix(1,0,0,1,235.89583333333354,240.75) translate(453.77539062499994 45.372395833333336)"/><use xlink:href="#S" transform="matrix(1,0,0,1,235.89583333333354,240.75) translate(526.947265625 45.372395833333336)"/><use xlink:href="#T" transform="matrix(1,0,0,1,235.89583333333354,240.75) translate(568.318359375 45.372395833333336)"/><use xlink:href="#U" transform="matrix(1,0,0,1,235.89583333333354,240.75) translate(641.9095052083334 45.372395833333336)"/><use xlink:href="#V" transform="matrix(1,0,0,1,235.89583333333354,240.75) translate(748.6048177083334 45.372395833333336)"/><use xlink:href="#W" transform="matrix(1,0,0,1,235.89583333333354,240.75) translate(30.48958333333337 70.79296875)"/><use xlink:href="#X" transform="matrix(1,0,0,1,235.89583333333354,240.75) translate(94.40104166666671 70.79296875)"/><use xlink:href="#Y" transform="matrix(1,0,0,1,235.89583333333354,240.75) translate(129.05468750000006 70.79296875)"/><use xlink:href="#Z" transform="matrix(1,0,0,1,235.89583333333354,240.75) translate(151.95052083333337 70.79296875)"/><use xlink:href="#aa" transform="matrix(1,0,0,1,235.89583333333354,240.75) translate(215.67968750000006 70.79296875)"/><use xlink:href="#ab" transform="matrix(1,0,0,1,235.89583333333354,240.75) translate(240.4075520833334 70.79296875)"/><use xlink:href="#ac" transform="matrix(1,0,0,1,235.89583333333354,240.75) translate(266.11067708333337 70.79296875)"/><use xlink:href="#ad" transform="matrix(1,0,0,1,235.89583333333354,240.75) translate(359.83593750000006 70.79296875)"/><use xlink:href="#ae" transform="matrix(1,0,0,1,235.89583333333354,240.75) translate(460.51562500000006 70.79296875)"/><use xlink:href="#af" transform="matrix(1,0,0,1,235.89583333333354,240.75) translate(504.05598958333337 70.79296875)"/><use xlink:href="#ag" transform="matrix(1,0,0,1,235.89583333333354,240.75) translate(547.8059895833334 70.79296875)"/><use xlink:href="#w" transform="matrix(1,0,0,1,235.89583333333354,240.75) translate(594.171875 70.79296875)"/><use xlink:href="#ah" transform="matrix(1,0,0,1,235.89583333333354,240.75) translate(645.3502604166666 70.79296875)"/><use xlink:href="#ai" transform="matrix(1,0,0,1,235.89583333333354,240.75) translate(666.3776041666666 70.79296875)"/><use xlink:href="#aj" transform="matrix(1,0,0,1,235.89583333333354,240.75) translate(792.33203125 70.79296875)"/><use xlink:href="#ak" transform="matrix(1,0,0,1,235.89583333333354,240.75) translate(5.497395833333314 96.21354166666667)"/><use xlink:href="#al" transform="matrix(1,0,0,1,235.89583333333354,240.75) translate(92.62369791666664 96.21354166666667)"/><use xlink:href="#am" transform="matrix(1,0,0,1,235.89583333333354,240.75) translate(133.32942708333331 96.21354166666667)"/><use xlink:href="#an" transform="matrix(1,0,0,1,235.89583333333354,240.75) translate(176.93359375 96.21354166666667)"/><use xlink:href="#K" transform="matrix(1,0,0,1,235.89583333333354,240.75) translate(233.65364583333334 96.21354166666667)"/><use xlink:href="#ao" transform="matrix(1,0,0,1,235.89583333333354,240.75) translate(294.93098958333337 96.21354166666667)"/><use xlink:href="#ap" transform="matrix(1,0,0,1,235.89583333333354,240.75) translate(321.7096354166667 96.21354166666667)"/><use xlink:href="#aq" transform="matrix(1,0,0,1,235.89583333333354,240.75) translate(376.2604166666667 96.21354166666667)"/><use xlink:href="#ar" transform="matrix(1,0,0,1,235.89583333333354,240.75) translate(423.84765625 96.21354166666667)"/><use xlink:href="#as" transform="matrix(1,0,0,1,235.89583333333354,240.75) translate(503.8736979166667 96.21354166666667)"/><use xlink:href="#at" transform="matrix(1,0,0,1,235.89583333333354,240.75) translate(595.4479166666667 96.21354166666667)"/><use xlink:href="#au" transform="matrix(1,0,0,1,235.89583333333354,240.75) translate(631.9700520833333 96.21354166666667)"/><use xlink:href="#av" transform="matrix(1,0,0,1,235.89583333333354,240.75) translate(712.5794270833333 96.21354166666667)"/><use xlink:href="#aw" transform="matrix(1,0,0,1,235.89583333333354,240.75) translate(799.3138020833333 96.21354166666667)"/><use xlink:href="#ax" transform="matrix(1,0,0,1,235.89583333333354,240.75) translate(115.82031249999994 121.63411458333334)"/><use xlink:href="#ay" transform="matrix(1,0,0,1,235.89583333333354,240.75) translate(199.88411458333326 121.63411458333334)"/><use xlink:href="#ah" transform="matrix(1,0,0,1,235.89583333333354,240.75) translate(243.1419270833333 121.63411458333334)"/><use xlink:href="#az" transform="matrix(1,0,0,1,235.89583333333354,240.75) translate(264.16927083333326 121.63411458333334)"/><use xlink:href="#aA" transform="matrix(1,0,0,1,235.89583333333354,240.75) translate(315.90364583333326 121.63411458333334)"/><use xlink:href="#aB" transform="matrix(1,0,0,1,235.89583333333354,240.75) translate(348.36979166666663 121.63411458333334)"/><use xlink:href="#aC" transform="matrix(1,0,0,1,235.89583333333354,240.75) translate(405.85546874999994 121.63411458333334)"/><use xlink:href="#aD" transform="matrix(1,0,0,1,235.89583333333354,240.75) translate(489.11718749999994 121.63411458333334)"/><use xlink:href="#aE" transform="matrix(1,0,0,1,235.89583333333354,240.75) translate(543.3580729166666 121.63411458333334)"/><use xlink:href="#aF" transform="matrix(1,0,0,1,235.89583333333354,240.75) translate(592.1302083333333 121.63411458333334)"/><use xlink:href="#aG" transform="matrix(1,0,0,1,235.89583333333354,240.75) translate(613.1393229166666 121.63411458333334)"/><use xlink:href="#aH" transform="matrix(1,0,0,1,235.89583333333354,240.75) translate(643.9557291666667 121.63411458333334)"/></g><path d="M139.65 416.67a6 6 0 0 1 6-6h468a6 6 0 0 1 6 6V468a6 6 0 0 1-6 6h-468a6 6 0 0 1-6-6z" stroke="#000" stroke-opacity="0" stroke-width="2" fill="#fff" fill-opacity="0"/><g><use xlink:href="#aI" transform="matrix(1,0,0,1,144.64583333333337,415.6666666666665) translate(102.53086419753089 31.27777777777778)"/><use xlink:href="#aJ" transform="matrix(1,0,0,1,144.64583333333337,415.6666666666665) translate(204.13580246913583 31.27777777777778)"/><use xlink:href="#aK" transform="matrix(1,0,0,1,144.64583333333337,415.6666666666665) translate(299.6296296296296 31.27777777777778)"/><use xlink:href="#aL" transform="matrix(1,0,0,1,144.64583333333337,415.6666666666665) translate(326.7283950617284 31.27777777777778)"/><use xlink:href="#aM" transform="matrix(1,0,0,1,144.64583333333337,415.6666666666665) translate(352.6543209876543 31.27777777777778)"/></g><path d="M886.65 532.33c-6.63 0-12 5.38-12 12v16c0 6.63 5.37 12 12 12h229.75c6.62 0 12-5.37 12-12v-16c0-6.62-5.38-12-12-12z" stroke="#282c33" stroke-width="2" fill="#fff"/><g><use xlink:href="#aN" transform="matrix(1,0,0,1,884.6458333333334,536.3333333333333) translate(64.4074074074074 20.444444444444443)"/><use xlink:href="#aO" transform="matrix(1,0,0,1,884.6458333333334,536.3333333333333) translate(121.5679012345679 20.444444444444443)"/></g><path d="M1001.02 57.33c-6.63 0-12 5.38-12 12v16c0 6.63 5.37 12 12 12h136c6.63 0 12-5.37 12-12v-16c0-6.62-5.37-12-12-12z" stroke="#282c33" stroke-width="2" fill="#fff"/><g><use xlink:href="#aP" transform="matrix(1,0,0,1,999.0208333333334,61.33333333333326) translate(42.901234567901234 20.444444444444443)"/></g><defs><path fill="#3a414a" d="M130-224c-62 0-78 43-78 106 0 64 16 108 78 108s78-45 78-108-16-106-78-106zm0 228C53 4 15-39 15-118c-1-80 37-120 115-120s115 42 115 120C245-39 207 4 130 4" id="aQ"/><path fill="#3a414a" d="M45-84c0 64 52 80 104 63 1 25-30 25-55 25-56 0-80-32-80-88 0-76 62-98 131-80v46h-10c-5-15-4-31-23-35-47-10-67 21-67 69" id="aR"/><path fill="#3a414a" d="M124-13C89 8 26 15 26-45v-108c-8-3-24 2-21-12h50v118c-3 37 42 32 69 25v-131l-25-4v-8h54v153c8 3 24-2 21 12h-48" id="aS"/><path fill="#3a414a" d="M166-85c3 67-44 102-111 85l1 64 29 4v9H6v-9l21-4v-217c-7-3-22 1-19-12h46l1 9c11-8 26-14 45-14 47 2 64 36 66 85zM56-13c53 14 83-14 78-72 7-53-33-79-78-60v132" id="aT"/><path fill="#3a414a" d="M32-163c41-10 102-14 102 39v112c8 3 24-2 21 12h-45l-4-17C83 13 3 13 13-46c-2-50 45-50 92-51 4-36-5-70-42-56-6 2-12 4-16 6-4 7 0 23-15 20v-36zM42-47c0 41 41 33 63 22v-59c-34 1-63-1-63 37" id="aU"/><path fill="#3a414a" d="M54-38c-1 25 24 26 44 20v12C71 10 25 9 25-35v-115H4c-2-14 14-10 21-15l18-38h11v38h38v15H54v112" id="aV"/><path fill="#3a414a" d="M47-200c-23 0-25-39 0-38 13 0 18 7 20 19-1 11-8 19-20 19zM65-12l28 4v8H8v-8l28-4v-141l-24-4v-8h53v153" id="aW"/><path fill="#3a414a" d="M90-170c52 0 76 32 76 87 0 54-24 87-77 87-51 0-75-34-75-87 0-54 24-87 76-87zM89-10c39 0 46-35 46-73 0-39-7-73-46-73-39 1-44 34-44 73s6 72 44 73" id="aX"/><path fill="#3a414a" d="M125-118c4-37-41-34-68-26v132l23 4v8H8C5-13 21-9 28-12v-141c-7-3-23 1-20-12h47l2 13c31-23 98-29 98 31v109c7 3 23-1 20 12h-72v-8l22-4v-106" id="aY"/><g id="a"><use transform="matrix(0.06172839506172839,0,0,0.06172839506172839,0,0)" xlink:href="#aQ"/><use transform="matrix(0.06172839506172839,0,0,0.06172839506172839,15.987654320987653,0)" xlink:href="#aR"/><use transform="matrix(0.06172839506172839,0,0,0.06172839506172839,25.80246913580247,0)" xlink:href="#aR"/><use transform="matrix(0.06172839506172839,0,0,0.06172839506172839,35.617283950617285,0)" xlink:href="#aS"/><use transform="matrix(0.06172839506172839,0,0,0.06172839506172839,46.72839506172839,0)" xlink:href="#aT"/><use transform="matrix(0.06172839506172839,0,0,0.06172839506172839,57.839506172839506,0)" xlink:href="#aU"/><use transform="matrix(0.06172839506172839,0,0,0.06172839506172839,67.65432098765432,0)" xlink:href="#aV"/><use transform="matrix(0.06172839506172839,0,0,0.06172839506172839,73.82716049382715,0)" xlink:href="#aW"/><use transform="matrix(0.06172839506172839,0,0,0.06172839506172839,79.99999999999999,0)" xlink:href="#aX"/><use transform="matrix(0.06172839506172839,0,0,0.06172839506172839,91.1111111111111,0)" xlink:href="#aY"/></g><path fill="#3a414a" d="M126-119c3-38-42-31-69-25v132l23 4v8H7v-8l21-4v-226l-24-4v-8h53l-1 98c31-22 99-31 99 31v109c7 3 23-1 20 12h-71v-8l22-4v-107" id="aZ"/><path fill="#3a414a" d="M50-37c14 0 21 9 21 21S62 5 50 5C37 5 28-4 28-16s8-21 22-21zm0-132c12 0 21 9 21 21 0 13-9 22-21 22-13 0-22-9-22-22 0-12 9-21 22-21" id="ba"/><path fill="#3a414a" d="M18 4H0l83-241h17" id="bb"/><path fill="#3a414a" d="M65-12l28 4v8H7v-8l28-4v-226l-28-4v-8h58v238" id="bc"/><path fill="#3a414a" d="M41-130c7 48 86 23 86 84 0 56-69 57-112 41v-40c20 0 9 29 31 31 35 19 77-26 41-50-27-18-72-13-72-59 0-50 58-52 100-41v36c-19 1-8-25-28-25-21-7-50-1-46 23" id="bd"/><g id="b"><use transform="matrix(0.06172839506172839,0,0,0.06172839506172839,0,0)" xlink:href="#aZ"/><use transform="matrix(0.06172839506172839,0,0,0.06172839506172839,11.11111111111111,0)" xlink:href="#aV"/><use transform="matrix(0.06172839506172839,0,0,0.06172839506172839,17.28395061728395,0)" xlink:href="#aV"/><use transform="matrix(0.06172839506172839,0,0,0.06172839506172839,23.456790123456788,0)" xlink:href="#aT"/><use transform="matrix(0.06172839506172839,0,0,0.06172839506172839,34.5679012345679,0)" xlink:href="#ba"/><use transform="matrix(0.06172839506172839,0,0,0.06172839506172839,40.74074074074074,0)" xlink:href="#bb"/><use transform="matrix(0.06172839506172839,0,0,0.06172839506172839,46.91358024691358,0)" xlink:href="#bb"/><use transform="matrix(0.06172839506172839,0,0,0.06172839506172839,53.086419753086425,0)" xlink:href="#bc"/><use transform="matrix(0.06172839506172839,0,0,0.06172839506172839,59.25925925925927,0)" xlink:href="#aX"/><use transform="matrix(0.06172839506172839,0,0,0.06172839506172839,70.37037037037038,0)" xlink:href="#aR"/><use transform="matrix(0.06172839506172839,0,0,0.06172839506172839,80.18518518518519,0)" xlink:href="#aU"/><use transform="matrix(0.06172839506172839,0,0,0.06172839506172839,90,0)" xlink:href="#bc"/><use transform="matrix(0.06172839506172839,0,0,0.06172839506172839,96.17283950617283,0)" xlink:href="#aZ"/><use transform="matrix(0.06172839506172839,0,0,0.06172839506172839,107.28395061728395,0)" xlink:href="#aX"/><use transform="matrix(0.06172839506172839,0,0,0.06172839506172839,118.39506172839506,0)" xlink:href="#bd"/><use transform="matrix(0.06172839506172839,0,0,0.06172839506172839,127.03703703703702,0)" xlink:href="#aV"/></g><path fill="#316ccc" d="M199 0l-22-63H83L61 0H9l90-248h61L250 0h-51zm-33-102l-36-108c-10 38-24 72-36 108h72" id="be"/><path fill="#316ccc" d="M25 0v-261h50V0H25" id="bf"/><g id="c"><use transform="matrix(0.05,0,0,0.05,0,0)" xlink:href="#be"/><use transform="matrix(0.05,0,0,0.05,12.950000000000001,0)" xlink:href="#bf"/><use transform="matrix(0.05,0,0,0.05,17.950000000000003,0)" xlink:href="#bf"/><path fill="#316ccc" d="M-.9.97h29.75v1.9H-.9z"/></g><path fill="#316ccc" d="M176-78C186 10 51 31 16-35c-5-9-9-19-11-32l52-8c4 21 12 37 35 38 23 0 32-16 32-40v-130H75v-41h101v170" id="bg"/><path fill="#316ccc" d="M110-194c64 0 96 36 96 99 0 64-35 99-97 99-61 0-95-36-95-99 0-62 34-99 96-99zm-1 164c35 0 45-28 45-65 0-40-10-65-43-65-34 0-45 26-45 65 0 36 10 65 43 65" id="bh"/><path fill="#316ccc" d="M135-194c52 0 70 43 70 98 0 56-19 99-73 100-30 1-46-15-58-35L72 0H24l1-261h50v104c11-23 29-37 60-37zM114-30c31 0 40-27 40-66 0-37-7-63-39-63s-41 28-41 65c0 36 8 64 40 64" id="bi"/><path fill="#316ccc" d="M137-138c1-29-70-34-71-4 15 46 118 7 119 86 1 83-164 76-172 9l43-7c4 19 20 25 44 25 33 8 57-30 24-41C81-84 22-81 20-136c-2-80 154-74 161-7" id="bj"/><g id="d"><use transform="matrix(0.05,0,0,0.05,0,0)" xlink:href="#bg"/><use transform="matrix(0.05,0,0,0.05,10,0)" xlink:href="#bh"/><use transform="matrix(0.05,0,0,0.05,20.950000000000003,0)" xlink:href="#bi"/><use transform="matrix(0.05,0,0,0.05,31.900000000000006,0)" xlink:href="#bj"/><path fill="#316ccc" d="M-.9.97h43.7v1.9H-.9z"/></g><path fill="#316ccc" d="M67-125c0 53 21 87 73 88 37 1 54-22 65-47l45 17C233-25 199 4 140 4 58 4 20-42 15-125 8-235 124-281 211-232c18 10 29 29 36 50l-46 12c-8-25-30-41-62-41-52 0-71 34-72 86" id="bk"/><path fill="#316ccc" d="M220-157c-53 9-28 100-34 157h-49v-107c1-27-5-49-29-50C55-147 81-57 75 0H25l-1-190h47c2 12-1 28 3 38 10-53 101-56 108 0 13-22 24-43 59-42 82 1 51 116 57 194h-49v-107c-1-25-5-48-29-50" id="bl"/><path fill="#316ccc" d="M135-194c53 0 70 44 70 98 0 56-19 98-73 100-31 1-45-17-59-34 3 33 2 69 2 105H25l-1-265h48c2 10 0 23 3 31 11-24 29-35 60-35zM114-30c33 0 39-31 40-66 0-38-9-64-40-64-56 0-55 130 0 130" id="bm"/><path fill="#316ccc" d="M85 4C-2 5 27-109 22-190h50c7 57-23 150 33 157 60-5 35-97 40-157h50l1 190h-47c-2-12 1-28-3-38-12 25-28 42-61 42" id="bn"/><path fill="#316ccc" d="M115-3C79 11 28 4 28-45v-112H4v-33h27l15-45h31v45h36v33H77v99c-1 23 16 31 38 25v30" id="bo"/><path fill="#316ccc" d="M185-48c-13 30-37 53-82 52C43 2 14-33 14-96s30-98 90-98c62 0 83 45 84 108H66c0 31 8 55 39 56 18 0 30-7 34-22zm-45-69c5-46-57-63-70-21-2 6-4 13-4 21h74" id="bp"/><path fill="#316ccc" d="M135-150c-39-12-60 13-60 57V0H25l-1-190h47c2 13-1 29 3 40 6-28 27-53 61-41v41" id="bq"/><g id="e"><use transform="matrix(0.05,0,0,0.05,0,0)" xlink:href="#bk"/><use transform="matrix(0.05,0,0,0.05,12.950000000000001,0)" xlink:href="#bh"/><use transform="matrix(0.05,0,0,0.05,23.900000000000002,0)" xlink:href="#bl"/><use transform="matrix(0.05,0,0,0.05,39.900000000000006,0)" xlink:href="#bm"/><use transform="matrix(0.05,0,0,0.05,50.85000000000001,0)" xlink:href="#bn"/><use transform="matrix(0.05,0,0,0.05,61.80000000000001,0)" xlink:href="#bo"/><use transform="matrix(0.05,0,0,0.05,67.75000000000001,0)" xlink:href="#bp"/><use transform="matrix(0.05,0,0,0.05,77.75000000000001,0)" xlink:href="#bq"/><path fill="#316ccc" d="M-.9.97h91.55v1.9H-.9z"/></g><path fill="#316ccc" d="M133-34C117-15 103 5 69 4 32 3 11-16 11-54c-1-60 55-63 116-61 1-26-3-47-28-47-18 1-26 9-28 27l-52-2c7-38 36-58 82-57s74 22 75 68l1 82c-1 14 12 18 25 15v27c-30 8-71 5-69-32zm-48 3c29 0 43-24 42-57-32 0-66-3-65 30 0 17 8 27 23 27" id="br"/><path fill="#316ccc" d="M135-194c87-1 58 113 63 194h-50c-7-57 23-157-34-157-59 0-34 97-39 157H25l-1-190h47c2 12-1 28 3 38 12-26 28-41 61-42" id="bs"/><path fill="#316ccc" d="M88-194c31-1 46 15 58 34l-1-101h50l1 261h-48c-2-10 0-23-3-31C134-8 116 4 84 4 32 4 16-41 15-95c0-56 19-97 73-99zm17 164c33 0 40-30 41-66 1-37-9-64-41-64s-38 30-39 65c0 43 13 65 39 65" id="bt"/><g id="f"><use transform="matrix(0.05,0,0,0.05,0,0)" xlink:href="#br"/><use transform="matrix(0.05,0,0,0.05,10,0)" xlink:href="#bs"/><use transform="matrix(0.05,0,0,0.05,20.950000000000003,0)" xlink:href="#bt"/><path fill="#316ccc" d="M-.9.97h38.7v1.9H-.9z"/></g><path fill="#316ccc" d="M230 0l2-204L168 0h-37L68-204 70 0H24v-248h70l56 185 57-185h69V0h-46" id="bu"/><path fill="#316ccc" d="M114-157C55-157 80-60 75 0H25v-261h50l-1 109c12-26 28-41 61-42 86-1 58 113 63 194h-50c-7-57 23-157-34-157" id="bv"/><path fill="#316ccc" d="M25-224v-37h50v37H25zM25 0v-190h50V0H25" id="bw"/><path fill="#316ccc" d="M190-63c-7 42-38 67-86 67-59 0-84-38-90-98-12-110 154-137 174-36l-49 2c-2-19-15-32-35-32-30 0-35 28-38 64-6 74 65 87 74 30" id="bx"/><g id="g"><use transform="matrix(0.05,0,0,0.05,0,0)" xlink:href="#bu"/><use transform="matrix(0.05,0,0,0.05,14.950000000000001,0)" xlink:href="#br"/><use transform="matrix(0.05,0,0,0.05,24.950000000000003,0)" xlink:href="#bo"/><use transform="matrix(0.05,0,0,0.05,30.900000000000002,0)" xlink:href="#bv"/><use transform="matrix(0.05,0,0,0.05,41.85,0)" xlink:href="#bp"/><use transform="matrix(0.05,0,0,0.05,51.85,0)" xlink:href="#bl"/><use transform="matrix(0.05,0,0,0.05,67.85,0)" xlink:href="#br"/><use transform="matrix(0.05,0,0,0.05,77.85,0)" xlink:href="#bo"/><use transform="matrix(0.05,0,0,0.05,83.8,0)" xlink:href="#bw"/><use transform="matrix(0.05,0,0,0.05,88.8,0)" xlink:href="#bx"/><use transform="matrix(0.05,0,0,0.05,98.8,0)" xlink:href="#br"/><use transform="matrix(0.05,0,0,0.05,108.80000000000001,0)" xlink:href="#bf"/><path fill="#316ccc" d="M-.9.97h120.6v1.9H-.9z"/></g><path fill="#316ccc" d="M140-251c80 0 125 45 125 126S219 4 139 4C58 4 15-44 15-125s44-126 125-126zm-1 214c52 0 73-35 73-88 0-50-21-86-72-86-52 0-73 35-73 86s22 88 72 88" id="by"/><g id="h"><use transform="matrix(0.05,0,0,0.05,0,0)" xlink:href="#by"/><use transform="matrix(0.05,0,0,0.05,14,0)" xlink:href="#bx"/><use transform="matrix(0.05,0,0,0.05,24,0)" xlink:href="#bx"/><use transform="matrix(0.05,0,0,0.05,34,0)" xlink:href="#bn"/><use transform="matrix(0.05,0,0,0.05,44.95,0)" xlink:href="#bm"/><use transform="matrix(0.05,0,0,0.05,55.900000000000006,0)" xlink:href="#br"/><use transform="matrix(0.05,0,0,0.05,65.9,0)" xlink:href="#bo"/><use transform="matrix(0.05,0,0,0.05,71.85000000000001,0)" xlink:href="#bw"/><use transform="matrix(0.05,0,0,0.05,76.85000000000001,0)" xlink:href="#bh"/><use transform="matrix(0.05,0,0,0.05,87.80000000000001,0)" xlink:href="#bs"/><use transform="matrix(0.05,0,0,0.05,98.75000000000001,0)" xlink:href="#bj"/><path fill="#316ccc" d="M-.9.97h110.55v1.9H-.9z"/></g><g id="i"><use transform="matrix(0.05,0,0,0.05,0,0)" xlink:href="#by"/><use transform="matrix(0.05,0,0,0.05,14,0)" xlink:href="#bx"/><use transform="matrix(0.05,0,0,0.05,24,0)" xlink:href="#bx"/><use transform="matrix(0.05,0,0,0.05,34,0)" xlink:href="#bn"/><use transform="matrix(0.05,0,0,0.05,44.95,0)" xlink:href="#bm"/><use transform="matrix(0.05,0,0,0.05,55.900000000000006,0)" xlink:href="#br"/><use transform="matrix(0.05,0,0,0.05,65.9,0)" xlink:href="#bo"/><use transform="matrix(0.05,0,0,0.05,71.85000000000001,0)" xlink:href="#bw"/><use transform="matrix(0.05,0,0,0.05,76.85000000000001,0)" xlink:href="#bh"/><use transform="matrix(0.05,0,0,0.05,87.80000000000001,0)" xlink:href="#bs"/><use transform="matrix(0.05,0,0,0.05,98.75000000000001,0)" xlink:href="#bj"/><path fill="#316ccc" d="M-.9.97h110.55v1.9H-.9z"/></g><path fill="#316ccc" d="M169-182c-1-43-94-46-97-3 18 66 151 10 154 114 3 95-165 93-204 36-6-8-10-19-12-30l50-8c3 46 112 56 116 5-17-69-150-10-154-114-4-87 153-88 188-35 5 8 8 18 10 28" id="bz"/><g id="j"><use transform="matrix(0.05,0,0,0.05,0,0)" xlink:href="#bz"/><use transform="matrix(0.05,0,0,0.05,12,0)" xlink:href="#bn"/><use transform="matrix(0.05,0,0,0.05,22.950000000000003,0)" xlink:href="#bm"/><use transform="matrix(0.05,0,0,0.05,33.900000000000006,0)" xlink:href="#bm"/><use transform="matrix(0.05,0,0,0.05,44.85000000000001,0)" xlink:href="#bh"/><use transform="matrix(0.05,0,0,0.05,55.80000000000001,0)" xlink:href="#bq"/><use transform="matrix(0.05,0,0,0.05,62.80000000000001,0)" xlink:href="#bo"/><path fill="#316ccc" d="M-.9.97h75.55v1.9H-.9z"/></g><g id="k"><use transform="matrix(0.05,0,0,0.05,0,0)" xlink:href="#bz"/><use transform="matrix(0.05,0,0,0.05,12,0)" xlink:href="#bm"/><use transform="matrix(0.05,0,0,0.05,22.950000000000003,0)" xlink:href="#bp"/><use transform="matrix(0.05,0,0,0.05,32.95,0)" xlink:href="#bx"/><use transform="matrix(0.05,0,0,0.05,42.95,0)" xlink:href="#bw"/><use transform="matrix(0.05,0,0,0.05,47.95,0)" xlink:href="#br"/><use transform="matrix(0.05,0,0,0.05,57.95,0)" xlink:href="#bf"/><use transform="matrix(0.05,0,0,0.05,62.95,0)" xlink:href="#bw"/><use transform="matrix(0.05,0,0,0.05,67.95,0)" xlink:href="#bj"/><use transform="matrix(0.05,0,0,0.05,77.95,0)" xlink:href="#bo"/><use transform="matrix(0.05,0,0,0.05,83.9,0)" xlink:href="#bj"/><path fill="#316ccc" d="M-.9.97h95.7v1.9H-.9z"/></g><path fill="#3a414a" d="M55 0v-9l38-5v-207c-22 1-53 0-70 4l-5 37H7v-56h207v56h-12l-5-37-70-3v206l37 5v9H55" id="bA"/><g id="l"><use transform="matrix(0.06172839506172839,0,0,0.06172839506172839,0,0)" xlink:href="#bA"/><use transform="matrix(0.06172839506172839,0,0,0.06172839506172839,13.518518518518517,0)" xlink:href="#aZ"/><use transform="matrix(0.06172839506172839,0,0,0.06172839506172839,24.629629629629626,0)" xlink:href="#aW"/><use transform="matrix(0.06172839506172839,0,0,0.06172839506172839,30.802469135802465,0)" xlink:href="#bd"/></g><g id="m"><use transform="matrix(0.06172839506172839,0,0,0.06172839506172839,0,0)" xlink:href="#aW"/><use transform="matrix(0.06172839506172839,0,0,0.06172839506172839,6.172839506172839,0)" xlink:href="#bd"/></g><path fill="#3a414a" d="M126-118c4-37-42-32-68-25v131l24 4v8H8C5-13 21-9 28-12v-141c-7-3-23 1-20-12h48l1 13c22-15 77-30 92 2 32-22 104-36 104 29v109c8 3 24-2 21 12h-75v-8l25-4v-106c3-39-45-31-72-24 7 37 1 88 3 130l25 4v8h-78v-8l24-4v-106" id="bB"/><path fill="#3a414a" d="M161-154L85 37C75 66 49 86 8 75V39c18-2 6 24 29 21 30-4 38-32 47-58L21-153c-7-3-20 0-17-12h77v8l-26 4 45 116 43-116-26-4v-8h62v8" id="bC"/><g id="n"><use transform="matrix(0.06172839506172839,0,0,0.06172839506172839,0,0)" xlink:href="#bB"/><use transform="matrix(0.06172839506172839,0,0,0.06172839506172839,17.28395061728395,0)" xlink:href="#bC"/></g><path fill="#3a414a" d="M57-145c16-10 35-24 60-25v45c-19 1-8-30-40-17l-20 6v124l29 4v8H7v-8l21-4v-141c-8-3-24 2-21-12h48" id="bD"/><path fill="#3a414a" d="M84-170c49 0 66 33 63 87H46c-8 60 38 80 95 63v10C128-2 108 4 88 4 34 4 14-29 14-84c-1-54 22-86 70-86zm33 73c12-57-57-82-69-24-1 7-2 15-2 24h71" id="bE"/><g id="o"><use transform="matrix(0.06172839506172839,0,0,0.06172839506172839,0,0)" xlink:href="#aR"/><use transform="matrix(0.06172839506172839,0,0,0.06172839506172839,9.814814814814815,0)" xlink:href="#aS"/><use transform="matrix(0.06172839506172839,0,0,0.06172839506172839,20.925925925925924,0)" xlink:href="#bD"/><use transform="matrix(0.06172839506172839,0,0,0.06172839506172839,28.2716049382716,0)" xlink:href="#bD"/><use transform="matrix(0.06172839506172839,0,0,0.06172839506172839,35.61728395061728,0)" xlink:href="#bE"/><use transform="matrix(0.06172839506172839,0,0,0.06172839506172839,45.432098765432094,0)" xlink:href="#aY"/><use transform="matrix(0.06172839506172839,0,0,0.06172839506172839,56.5432098765432,0)" xlink:href="#aV"/></g><path fill="#3a414a" d="M50-238c28 0 22 38 0 38-10-2-19-7-19-19s7-18 19-19zM3 58c24 15 35-10 35-42v-169l-25-4v-8h54V7c4 51-28 81-77 66V38C3 36-1 51 3 58" id="bF"/><path fill="#3a414a" d="M53-14c58 12 82-15 82-73 0-52-35-77-82-58v131zM89 4C64 4 42-2 24-9v-229l-24-4v-8h53l-1 94c48-33 114-4 114 69 0 57-23 91-77 91" id="bG"/><g id="p"><use transform="matrix(0.06172839506172839,0,0,0.06172839506172839,0,0)" xlink:href="#bF"/><use transform="matrix(0.06172839506172839,0,0,0.06172839506172839,6.172839506172839,0)" xlink:href="#aX"/><use transform="matrix(0.06172839506172839,0,0,0.06172839506172839,17.28395061728395,0)" xlink:href="#bG"/></g><path fill="#3a414a" d="M52-115c0 93 80 130 150 87l7-35h11l-1 55c-23 7-52 12-83 12C60 4 19-37 15-115c-5-113 97-141 201-114l1 51h-12l-5-30c-15-9-39-16-62-16-66 0-86 41-86 109" id="bH"/><g id="q"><use transform="matrix(0.1111111111111111,0,0,0.1111111111111111,0,0)" xlink:href="#bH"/><use transform="matrix(0.1111111111111111,0,0,0.1111111111111111,26.666666666666664,0)" xlink:href="#aX"/><use transform="matrix(0.1111111111111111,0,0,0.1111111111111111,46.666666666666664,0)" xlink:href="#bB"/><use transform="matrix(0.1111111111111111,0,0,0.1111111111111111,77.77777777777777,0)" xlink:href="#aT"/><use transform="matrix(0.1111111111111111,0,0,0.1111111111111111,97.77777777777777,0)" xlink:href="#aS"/><use transform="matrix(0.1111111111111111,0,0,0.1111111111111111,117.77777777777777,0)" xlink:href="#aV"/><use transform="matrix(0.1111111111111111,0,0,0.1111111111111111,128.88888888888889,0)" xlink:href="#bE"/><use transform="matrix(0.1111111111111111,0,0,0.1111111111111111,146.55555555555554,0)" xlink:href="#bD"/></g><path fill="#3a414a" d="M134-16c44-1 70-21 70-64v-142l-32-4v-10h80v10l-30 4v141c0 57-33 84-91 85-58 0-93-26-93-82v-144l-30-4v-10h94v10l-30 4c7 82-31 209 62 206" id="bI"/><g id="r"><use transform="matrix(0.1111111111111111,0,0,0.1111111111111111,0,0)" xlink:href="#bI"/><use transform="matrix(0.1111111111111111,0,0,0.1111111111111111,28.777777777777775,0)" xlink:href="#bd"/><use transform="matrix(0.1111111111111111,0,0,0.1111111111111111,44.33333333333333,0)" xlink:href="#bE"/><use transform="matrix(0.1111111111111111,0,0,0.1111111111111111,62,0)" xlink:href="#bD"/></g><path fill="#3a414a" d="M178-68c0 79-95 82-154 59v-54h12c1 35 22 52 60 52 50 0 69-58 33-82-39-24-105-21-105-85 0-67 86-66 142-53v49h-12l-6-29c-31-27-121-7-89 42 28 43 119 24 119 101" id="bJ"/><g id="s"><use transform="matrix(0.1111111111111111,0,0,0.1111111111111111,0,0)" xlink:href="#bJ"/><use transform="matrix(0.1111111111111111,0,0,0.1111111111111111,22.22222222222222,0)" xlink:href="#aS"/><use transform="matrix(0.1111111111111111,0,0,0.1111111111111111,42.22222222222222,0)" xlink:href="#aT"/><use transform="matrix(0.1111111111111111,0,0,0.1111111111111111,62.22222222222222,0)" xlink:href="#aT"/><use transform="matrix(0.1111111111111111,0,0,0.1111111111111111,82.22222222222223,0)" xlink:href="#aX"/><use transform="matrix(0.1111111111111111,0,0,0.1111111111111111,102.22222222222223,0)" xlink:href="#bD"/><use transform="matrix(0.1111111111111111,0,0,0.1111111111111111,115.44444444444446,0)" xlink:href="#aV"/></g><g id="t"><use transform="matrix(0.1111111111111111,0,0,0.1111111111111111,0,0)" xlink:href="#bJ"/><use transform="matrix(0.1111111111111111,0,0,0.1111111111111111,22.22222222222222,0)" xlink:href="#aT"/><use transform="matrix(0.1111111111111111,0,0,0.1111111111111111,42.22222222222222,0)" xlink:href="#bE"/><use transform="matrix(0.1111111111111111,0,0,0.1111111111111111,59.888888888888886,0)" xlink:href="#aR"/><use transform="matrix(0.1111111111111111,0,0,0.1111111111111111,77.55555555555554,0)" xlink:href="#aW"/><use transform="matrix(0.1111111111111111,0,0,0.1111111111111111,88.66666666666666,0)" xlink:href="#aU"/><use transform="matrix(0.1111111111111111,0,0,0.1111111111111111,106.33333333333331,0)" xlink:href="#bc"/><use transform="matrix(0.1111111111111111,0,0,0.1111111111111111,117.44444444444444,0)" xlink:href="#aW"/><use transform="matrix(0.1111111111111111,0,0,0.1111111111111111,128.55555555555554,0)" xlink:href="#bd"/><use transform="matrix(0.1111111111111111,0,0,0.1111111111111111,144.1111111111111,0)" xlink:href="#aV"/><use transform="matrix(0.1111111111111111,0,0,0.1111111111111111,155.2222222222222,0)" xlink:href="#bd"/></g><path d="M201 0v-1462h170v1308h645V0H201" id="bK"/><path d="M621-1116c316 0 501 239 501 567 0 339-180 575-508 569S119-212 115-549c-4-339 178-567 506-567zm-5 141c-239 0-329 168-329 426 0 255 93 430 331 430s332-174 332-430-95-426-334-426" id="bL"/><path d="M340-893c80-153 237-262 467-211l-23 154c-45-10-85-15-120-15-184-3-322 182-322 377V0H176v-1096h137l19 203h8" id="bM"/><path d="M995-51C878-2 799 19 639 20c-329 2-524-221-524-559 0-326 172-577 481-577 278 0 451 210 446 493v105H287c4 242 121 392 358 393 118 0 235-25 350-74v148zM864-653c2-195-85-324-270-324-190 0-288 139-303 324h573" id="bN"/><path d="M1368-1116c259 2 372 131 371 401V0h-166v-713c0-168-66-262-230-262-221 0-303 131-303 363V0H874v-713c-1-169-66-262-231-262-235 0-301 142-301 400V0H176v-1096h135l27 150h8c56-99 174-170 324-170 171 0 283 62 336 186h8c60-108 189-187 354-186" id="bO"/><g id="u"><use transform="matrix(0.009114583333333334,0,0,0.009114583333333334,0,0)" xlink:href="#bK"/><use transform="matrix(0.009114583333333334,0,0,0.009114583333333334,9.688802083333334,0)" xlink:href="#bL"/><use transform="matrix(0.009114583333333334,0,0,0.009114583333333334,20.963541666666668,0)" xlink:href="#bM"/><use transform="matrix(0.009114583333333334,0,0,0.009114583333333334,28.209635416666668,0)" xlink:href="#bN"/><use transform="matrix(0.009114583333333334,0,0,0.009114583333333334,38.68229166666667,0)" xlink:href="#bO"/></g><path d="M342 0H176v-1096h166V0zm-82-1282c-61 0-98-43-98-111 0-69 36-110 98-110 59 0 98 43 98 110s-39 111-98 111" id="bP"/><path d="M1141-549c0 329-147 569-455 569-159 0-273-61-344-161h-12c23 199 7 418 12 633H176v-1588h135l23 150h8c77-108 175-170 344-170 311 0 455 237 455 567zm-172-2c0-242-88-424-307-424-256 0-323 154-320 426 3 280 68 430 324 430 213 0 303-196 303-432" id="bQ"/><path d="M502-977c-130 0-238 32-238 139 0 75 39 101 95 134 33 19 97 46 192 81 130 48 217 95 263 143s69 108 69 181C883-73 695 20 449 20 304 20 190-3 109-49v-154c91 47 216 86 344 86 149 0 270-36 270-168 0-43-21-76-55-109-56-55-367-158-434-208-74-55-128-109-128-225 0-327 490-342 754-217l-59 135c-110-45-210-68-299-68" id="bR"/><path d="M563 20c-271 0-399-123-399-399v-717h168v711c1 177 76 266 252 266 250 0 331-135 331-401v-576h166V0H944l-24-147h-9C848-44 724 20 563 20" id="bS"/><g id="v"><use transform="matrix(0.009114583333333334,0,0,0.009114583333333334,0,0)" xlink:href="#bP"/><use transform="matrix(0.009114583333333334,0,0,0.009114583333333334,4.721354166666667,0)" xlink:href="#bQ"/><use transform="matrix(0.009114583333333334,0,0,0.009114583333333334,16.16015625,0)" xlink:href="#bR"/><use transform="matrix(0.009114583333333334,0,0,0.009114583333333334,25.065104166666668,0)" xlink:href="#bS"/><use transform="matrix(0.009114583333333334,0,0,0.009114583333333334,36.52213541666667,0)" xlink:href="#bO"/></g><path d="M115-545c0-330 146-571 454-571 149 0 263 54 342 162h13c-20-185-8-401-11-602h166V0H944l-22-147h-9C836-36 722 20 569 20c-309 0-454-234-454-565zm172 2c0 249 78 424 303 424 257 0 327-150 323-426-4-282-68-432-325-432-220 0-301 191-301 434" id="bT"/><path d="M342 0H176v-1556h166V0" id="bU"/><g id="w"><use transform="matrix(0.009114583333333334,0,0,0.009114583333333334,0,0)" xlink:href="#bT"/><use transform="matrix(0.009114583333333334,0,0,0.009114583333333334,11.438802083333334,0)" xlink:href="#bL"/><use transform="matrix(0.009114583333333334,0,0,0.009114583333333334,22.713541666666668,0)" xlink:href="#bU"/><use transform="matrix(0.009114583333333334,0,0,0.009114583333333334,27.434895833333336,0)" xlink:href="#bL"/><use transform="matrix(0.009114583333333334,0,0,0.009114583333333334,38.70963541666667,0)" xlink:href="#bM"/></g><path d="M354-322c-2 123 60 204 176 205 51 1 114-10 150-20v127C647 7 557 20 506 20 294 20 188-92 188-315v-652H31v-80l157-69 70-234h96v254h318v129H354v645" id="bV"/><g id="x"><use transform="matrix(0.009114583333333334,0,0,0.009114583333333334,0,0)" xlink:href="#bR"/><use transform="matrix(0.009114583333333334,0,0,0.009114583333333334,8.904947916666668,0)" xlink:href="#bP"/><use transform="matrix(0.009114583333333334,0,0,0.009114583333333334,13.626302083333336,0)" xlink:href="#bV"/></g><path d="M588-1114c260 0 384 106 385 366V0H850l-33-156h-8C708-34 639 17 442 20 231 23 94-94 94-303c0-221 177-337 531-348l186-6c11-203-40-320-233-320-91 0-195 28-310 84l-51-127c97-53 229-94 371-94zM268-301c-1 123 81 184 207 184 203 0 334-120 332-323v-99c-257 14-539-7-539 238" id="bW"/><path d="M63 264c30-115 88-378 105-502h182l15 23C327-69 250 132 188 264H63" id="bX"/><g id="y"><use transform="matrix(0.009114583333333334,0,0,0.009114583333333334,0,0)" xlink:href="#bW"/><use transform="matrix(0.009114583333333334,0,0,0.009114583333333334,10.381510416666668,0)" xlink:href="#bO"/><use transform="matrix(0.009114583333333334,0,0,0.009114583333333334,27.744791666666668,0)" xlink:href="#bN"/><use transform="matrix(0.009114583333333334,0,0,0.009114583333333334,38.21744791666667,0)" xlink:href="#bV"/><use transform="matrix(0.009114583333333334,0,0,0.009114583333333334,44.80729166666667,0)" xlink:href="#bX"/></g><path d="M287-543c-1 247 91 418 323 418 91 0 185-20 281-59v147C818 1 725 20 614 20c-329 0-499-221-499-561 0-349 172-575 510-575 96 0 221 26 282 57l-51 141c-61-25-157-50-235-51-223 0-334 142-334 426" id="bY"/><path d="M694-1116c270 0 399 125 398 401V0H926v-709c-1-177-76-266-252-266-250 0-332 133-332 400V0H176v-1096h135l27 150h8c62-101 190-170 348-170" id="bZ"/><g id="z"><use transform="matrix(0.009114583333333334,0,0,0.009114583333333334,0,0)" xlink:href="#bY"/><use transform="matrix(0.009114583333333334,0,0,0.009114583333333334,8.88671875,0)" xlink:href="#bL"/><use transform="matrix(0.009114583333333334,0,0,0.009114583333333334,20.161458333333336,0)" xlink:href="#bZ"/><use transform="matrix(0.009114583333333334,0,0,0.009114583333333334,31.618489583333336,0)" xlink:href="#bR"/><use transform="matrix(0.009114583333333334,0,0,0.009114583333333334,40.5234375,0)" xlink:href="#bN"/><use transform="matrix(0.009114583333333334,0,0,0.009114583333333334,50.99609375,0)" xlink:href="#bY"/><use transform="matrix(0.009114583333333334,0,0,0.009114583333333334,59.88281250000001,0)" xlink:href="#bV"/><use transform="matrix(0.009114583333333334,0,0,0.009114583333333334,66.47265625,0)" xlink:href="#bN"/><use transform="matrix(0.009114583333333334,0,0,0.009114583333333334,76.9453125,0)" xlink:href="#bV"/><use transform="matrix(0.009114583333333334,0,0,0.009114583333333334,83.53515625,0)" xlink:href="#bS"/><use transform="matrix(0.009114583333333334,0,0,0.009114583333333334,94.9921875,0)" xlink:href="#bM"/></g><path d="M125-741c0-247 161-377 414-375 57 0 109 7 155 20h379v105l-203 24c37 48 72 129 72 219 0 255-227 390-504 345-71 37-106 84-106 141 0 78 66 88 164 88h194c219-1 369 87 369 293 0 121-49 213-146 277s-239 96-426 96c-250 0-448-83-448-306C39 36 147-58 283-86c-52-23-102-79-99-152 4-104 57-143 133-192-107-42-192-164-192-311zM438-25c-143-1-242 70-239 209s131 181 290 181c139 0 242-21 309-63s101-98 101-169c0-147-88-158-262-158H438zm94-970c-158 0-243 88-243 250 0 153 93 233 246 233 162 0 243-79 243-236 0-165-82-247-246-247" id="ca"/><g id="A"><use transform="matrix(0.009114583333333334,0,0,0.009114583333333334,0,0)" xlink:href="#bW"/><use transform="matrix(0.009114583333333334,0,0,0.009114583333333334,10.381510416666668,0)" xlink:href="#bT"/><use transform="matrix(0.009114583333333334,0,0,0.009114583333333334,21.8203125,0)" xlink:href="#bP"/><use transform="matrix(0.009114583333333334,0,0,0.009114583333333334,26.541666666666668,0)" xlink:href="#bQ"/><use transform="matrix(0.009114583333333334,0,0,0.009114583333333334,37.98046875,0)" xlink:href="#bP"/><use transform="matrix(0.009114583333333334,0,0,0.009114583333333334,42.701822916666664,0)" xlink:href="#bR"/><use transform="matrix(0.009114583333333334,0,0,0.009114583333333334,51.60677083333333,0)" xlink:href="#bY"/><use transform="matrix(0.009114583333333334,0,0,0.009114583333333334,60.49348958333333,0)" xlink:href="#bP"/><use transform="matrix(0.009114583333333334,0,0,0.009114583333333334,65.21484375,0)" xlink:href="#bZ"/><use transform="matrix(0.009114583333333334,0,0,0.009114583333333334,76.671875,0)" xlink:href="#ca"/></g><g id="B"><use transform="matrix(0.009114583333333334,0,0,0.009114583333333334,0,0)" xlink:href="#bN"/><use transform="matrix(0.009114583333333334,0,0,0.009114583333333334,10.47265625,0)" xlink:href="#bU"/><use transform="matrix(0.009114583333333334,0,0,0.009114583333333334,15.194010416666668,0)" xlink:href="#bP"/><use transform="matrix(0.009114583333333334,0,0,0.009114583333333334,19.915364583333336,0)" xlink:href="#bV"/><use transform="matrix(0.009114583333333334,0,0,0.009114583333333334,26.505208333333336,0)" xlink:href="#bX"/></g><g id="C"><use transform="matrix(0.009114583333333334,0,0,0.009114583333333334,0,0)" xlink:href="#bR"/><use transform="matrix(0.009114583333333334,0,0,0.009114583333333334,8.904947916666668,0)" xlink:href="#bN"/><use transform="matrix(0.009114583333333334,0,0,0.009114583333333334,19.377604166666668,0)" xlink:href="#bT"/></g><g id="D"><use transform="matrix(0.009114583333333334,0,0,0.009114583333333334,0,0)" xlink:href="#bT"/><use transform="matrix(0.009114583333333334,0,0,0.009114583333333334,11.438802083333334,0)" xlink:href="#bL"/></g><g id="E"><use transform="matrix(0.009114583333333334,0,0,0.009114583333333334,0,0)" xlink:href="#bN"/><use transform="matrix(0.009114583333333334,0,0,0.009114583333333334,10.47265625,0)" xlink:href="#bP"/><use transform="matrix(0.009114583333333334,0,0,0.009114583333333334,15.194010416666668,0)" xlink:href="#bS"/><use transform="matrix(0.009114583333333334,0,0,0.009114583333333334,26.651041666666668,0)" xlink:href="#bR"/><use transform="matrix(0.009114583333333334,0,0,0.009114583333333334,35.555989583333336,0)" xlink:href="#bO"/><use transform="matrix(0.009114583333333334,0,0,0.009114583333333334,52.919270833333336,0)" xlink:href="#bL"/><use transform="matrix(0.009114583333333334,0,0,0.009114583333333334,64.19401041666667,0)" xlink:href="#bT"/></g><g id="F"><use transform="matrix(0.009114583333333334,0,0,0.009114583333333334,0,0)" xlink:href="#bV"/><use transform="matrix(0.009114583333333334,0,0,0.009114583333333334,6.58984375,0)" xlink:href="#bN"/><use transform="matrix(0.009114583333333334,0,0,0.009114583333333334,17.0625,0)" xlink:href="#bO"/><use transform="matrix(0.009114583333333334,0,0,0.009114583333333334,34.42578125,0)" xlink:href="#bQ"/><use transform="matrix(0.009114583333333334,0,0,0.009114583333333334,45.864583333333336,0)" xlink:href="#bL"/><use transform="matrix(0.009114583333333334,0,0,0.009114583333333334,57.13932291666667,0)" xlink:href="#bM"/></g><g id="G"><use transform="matrix(0.009114583333333334,0,0,0.009114583333333334,0,0)" xlink:href="#bP"/><use transform="matrix(0.009114583333333334,0,0,0.009114583333333334,4.721354166666667,0)" xlink:href="#bZ"/><use transform="matrix(0.009114583333333334,0,0,0.009114583333333334,16.178385416666668,0)" xlink:href="#bY"/><use transform="matrix(0.009114583333333334,0,0,0.009114583333333334,25.065104166666668,0)" xlink:href="#bP"/><use transform="matrix(0.009114583333333334,0,0,0.009114583333333334,29.786458333333336,0)" xlink:href="#bT"/><use transform="matrix(0.009114583333333334,0,0,0.009114583333333334,41.22526041666667,0)" xlink:href="#bP"/><use transform="matrix(0.009114583333333334,0,0,0.009114583333333334,45.946614583333336,0)" xlink:href="#bT"/><use transform="matrix(0.009114583333333334,0,0,0.009114583333333334,57.38541666666667,0)" xlink:href="#bS"/><use transform="matrix(0.009114583333333334,0,0,0.009114583333333334,68.84244791666667,0)" xlink:href="#bZ"/><use transform="matrix(0.009114583333333334,0,0,0.009114583333333334,80.29947916666667,0)" xlink:href="#bV"/></g><g id="H"><use transform="matrix(0.009114583333333334,0,0,0.009114583333333334,0,0)" xlink:href="#bS"/><use transform="matrix(0.009114583333333334,0,0,0.009114583333333334,11.45703125,0)" xlink:href="#bV"/></g><path d="M686 20c-159 0-273-61-344-161h-12L295 0H176v-1556h166c-2 198 6 423-8 606h8c77-109 192-164 344-164 310 0 455 234 455 565 0 329-147 569-455 569zm283-571c0-257-72-424-307-424-256 0-320 146-320 426s68 430 324 430c228 0 303-184 303-432" id="cb"/><g id="I"><use transform="matrix(0.009114583333333334,0,0,0.009114583333333334,0,0)" xlink:href="#bU"/><use transform="matrix(0.009114583333333334,0,0,0.009114583333333334,4.721354166666667,0)" xlink:href="#bW"/><use transform="matrix(0.009114583333333334,0,0,0.009114583333333334,15.102864583333336,0)" xlink:href="#cb"/><use transform="matrix(0.009114583333333334,0,0,0.009114583333333334,26.54166666666667,0)" xlink:href="#bL"/><use transform="matrix(0.009114583333333334,0,0,0.009114583333333334,37.816406250000014,0)" xlink:href="#bM"/><use transform="matrix(0.009114583333333334,0,0,0.009114583333333334,45.062500000000014,0)" xlink:href="#bN"/></g><g id="J"><use transform="matrix(0.009114583333333334,0,0,0.009114583333333334,0,0)" xlink:href="#bN"/><use transform="matrix(0.009114583333333334,0,0,0.009114583333333334,10.47265625,0)" xlink:href="#bV"/></g><g id="K"><use transform="matrix(0.009114583333333334,0,0,0.009114583333333334,0,0)" xlink:href="#bT"/><use transform="matrix(0.009114583333333334,0,0,0.009114583333333334,11.438802083333334,0)" xlink:href="#bL"/><use transform="matrix(0.009114583333333334,0,0,0.009114583333333334,22.713541666666668,0)" xlink:href="#bU"/><use transform="matrix(0.009114583333333334,0,0,0.009114583333333334,27.434895833333336,0)" xlink:href="#bL"/><use transform="matrix(0.009114583333333334,0,0,0.009114583333333334,38.70963541666667,0)" xlink:href="#bM"/><use transform="matrix(0.009114583333333334,0,0,0.009114583333333334,45.95572916666667,0)" xlink:href="#bN"/></g><g id="L"><use transform="matrix(0.009114583333333334,0,0,0.009114583333333334,0,0)" xlink:href="#bO"/><use transform="matrix(0.009114583333333334,0,0,0.009114583333333334,17.36328125,0)" xlink:href="#bW"/><use transform="matrix(0.009114583333333334,0,0,0.009114583333333334,27.744791666666668,0)" xlink:href="#ca"/><use transform="matrix(0.009114583333333334,0,0,0.009114583333333334,37.97135416666667,0)" xlink:href="#bZ"/><use transform="matrix(0.009114583333333334,0,0,0.009114583333333334,49.42838541666667,0)" xlink:href="#bW"/></g><path d="M287-543c0 246 78 424 303 424 259 0 323-148 323-426 0-279-71-432-325-432-220 0-301 191-301 434zm-172-2c0-328 147-571 454-571 150 0 265 57 346 170h9l24-150h131V492H913c5-208-11-450 11-639h-13C834-36 719 20 565 20c-305 0-450-240-450-565" id="cc"/><path d="M270 29c-76 0-118-48-118-135 0-84 38-135 118-136 81 0 123 51 123 136 0 82-44 135-123 135" id="cd"/><g id="M"><use transform="matrix(0.009114583333333334,0,0,0.009114583333333334,0,0)" xlink:href="#bW"/><use transform="matrix(0.009114583333333334,0,0,0.009114583333333334,10.381510416666668,0)" xlink:href="#bU"/><use transform="matrix(0.009114583333333334,0,0,0.009114583333333334,15.102864583333336,0)" xlink:href="#bP"/><use transform="matrix(0.009114583333333334,0,0,0.009114583333333334,19.824218750000007,0)" xlink:href="#cc"/><use transform="matrix(0.009114583333333334,0,0,0.009114583333333334,31.263020833333336,0)" xlink:href="#bS"/><use transform="matrix(0.009114583333333334,0,0,0.009114583333333334,42.720052083333336,0)" xlink:href="#bW"/><use transform="matrix(0.009114583333333334,0,0,0.009114583333333334,53.1015625,0)" xlink:href="#cd"/></g><path d="M750-129c245 0 385-137 385-381v-952h170v946c3 336-225 536-566 536-344 0-553-202-553-540v-942h170v954c0 248 141 379 394 379" id="ce"/><g id="N"><use transform="matrix(0.009114583333333334,0,0,0.009114583333333334,0,0)" xlink:href="#ce"/><use transform="matrix(0.009114583333333334,0,0,0.009114583333333334,13.58984375,0)" xlink:href="#bV"/></g><g id="O"><use transform="matrix(0.009114583333333334,0,0,0.009114583333333334,0,0)" xlink:href="#bN"/><use transform="matrix(0.009114583333333334,0,0,0.009114583333333334,10.47265625,0)" xlink:href="#bZ"/><use transform="matrix(0.009114583333333334,0,0,0.009114583333333334,21.9296875,0)" xlink:href="#bP"/><use transform="matrix(0.009114583333333334,0,0,0.009114583333333334,26.651041666666668,0)" xlink:href="#bO"/></g><g id="P"><use transform="matrix(0.009114583333333334,0,0,0.009114583333333334,0,0)" xlink:href="#bW"/><use transform="matrix(0.009114583333333334,0,0,0.009114583333333334,10.381510416666668,0)" xlink:href="#bT"/></g><g id="Q"><use transform="matrix(0.009114583333333334,0,0,0.009114583333333334,0,0)" xlink:href="#bO"/><use transform="matrix(0.009114583333333334,0,0,0.009114583333333334,17.36328125,0)" xlink:href="#bP"/><use transform="matrix(0.009114583333333334,0,0,0.009114583333333334,22.084635416666668,0)" xlink:href="#bZ"/><use transform="matrix(0.009114583333333334,0,0,0.009114583333333334,33.54166666666667,0)" xlink:href="#bP"/><use transform="matrix(0.009114583333333334,0,0,0.009114583333333334,38.263020833333336,0)" xlink:href="#bO"/></g><path d="M516-150c94-315 146-423 332-946h178L610 0H416L0-1096h178c98 281 253 670 330 946h8" id="cf"/><g id="R"><use transform="matrix(0.009114583333333334,0,0,0.009114583333333334,0,0)" xlink:href="#cf"/><use transform="matrix(0.009114583333333334,0,0,0.009114583333333334,9.3515625,0)" xlink:href="#bN"/><use transform="matrix(0.009114583333333334,0,0,0.009114583333333334,19.82421875,0)" xlink:href="#bZ"/><use transform="matrix(0.009114583333333334,0,0,0.009114583333333334,31.281250000000004,0)" xlink:href="#bP"/><use transform="matrix(0.009114583333333334,0,0,0.009114583333333334,36.002604166666664,0)" xlink:href="#bW"/><use transform="matrix(0.009114583333333334,0,0,0.009114583333333334,46.38411458333333,0)" xlink:href="#bO"/><use transform="matrix(0.009114583333333334,0,0,0.009114583333333334,63.74739583333333,0)" xlink:href="#bX"/></g><g id="S"><use transform="matrix(0.009114583333333334,0,0,0.009114583333333334,0,0)" xlink:href="#cc"/><use transform="matrix(0.009114583333333334,0,0,0.009114583333333334,11.438802083333334,0)" xlink:href="#bS"/><use transform="matrix(0.009114583333333334,0,0,0.009114583333333334,22.895833333333336,0)" xlink:href="#bP"/><use transform="matrix(0.009114583333333334,0,0,0.009114583333333334,27.6171875,0)" xlink:href="#bR"/></g><g id="T"><use transform="matrix(0.009114583333333334,0,0,0.009114583333333334,0,0)" xlink:href="#bZ"/><use transform="matrix(0.009114583333333334,0,0,0.009114583333333334,11.45703125,0)" xlink:href="#bL"/><use transform="matrix(0.009114583333333334,0,0,0.009114583333333334,22.731770833333336,0)" xlink:href="#bR"/><use transform="matrix(0.009114583333333334,0,0,0.009114583333333334,31.636718750000004,0)" xlink:href="#bV"/><use transform="matrix(0.009114583333333334,0,0,0.009114583333333334,38.2265625,0)" xlink:href="#bM"/><use transform="matrix(0.009114583333333334,0,0,0.009114583333333334,45.846354166666664,0)" xlink:href="#bS"/><use transform="matrix(0.009114583333333334,0,0,0.009114583333333334,57.303385416666664,0)" xlink:href="#bT"/></g><path d="M440-561L59-1096h189l289 420 288-420h187L631-561 1032 0H844L537-444 227 0H39" id="cg"/><g id="U"><use transform="matrix(0.009114583333333334,0,0,0.009114583333333334,0,0)" xlink:href="#bN"/><use transform="matrix(0.009114583333333334,0,0,0.009114583333333334,10.098958333333334,0)" xlink:href="#cg"/><use transform="matrix(0.009114583333333334,0,0,0.009114583333333334,19.505208333333336,0)" xlink:href="#bN"/><use transform="matrix(0.009114583333333334,0,0,0.009114583333333334,29.977864583333336,0)" xlink:href="#bM"/><use transform="matrix(0.009114583333333334,0,0,0.009114583333333334,37.223958333333336,0)" xlink:href="#bY"/><use transform="matrix(0.009114583333333334,0,0,0.009114583333333334,46.110677083333336,0)" xlink:href="#bP"/><use transform="matrix(0.009114583333333334,0,0,0.009114583333333334,50.83203125,0)" xlink:href="#bV"/><use transform="matrix(0.009114583333333334,0,0,0.009114583333333334,57.42187500000001,0)" xlink:href="#bW"/><use transform="matrix(0.009114583333333334,0,0,0.009114583333333334,67.80338541666667,0)" xlink:href="#bV"/><use transform="matrix(0.009114583333333334,0,0,0.009114583333333334,74.39322916666667,0)" xlink:href="#bP"/><use transform="matrix(0.009114583333333334,0,0,0.009114583333333334,79.11458333333334,0)" xlink:href="#bL"/><use transform="matrix(0.009114583333333334,0,0,0.009114583333333334,90.38932291666667,0)" xlink:href="#bZ"/></g><g id="V"><use transform="matrix(0.009114583333333334,0,0,0.009114583333333334,0,0)" xlink:href="#bS"/><use transform="matrix(0.009114583333333334,0,0,0.009114583333333334,11.45703125,0)" xlink:href="#bU"/><use transform="matrix(0.009114583333333334,0,0,0.009114583333333334,16.178385416666668,0)" xlink:href="#bU"/><use transform="matrix(0.009114583333333334,0,0,0.009114583333333334,20.899739583333336,0)" xlink:href="#bW"/><use transform="matrix(0.009114583333333334,0,0,0.009114583333333334,31.281250000000004,0)" xlink:href="#bO"/><use transform="matrix(0.009114583333333334,0,0,0.009114583333333334,48.64453125,0)" xlink:href="#bY"/><use transform="matrix(0.009114583333333334,0,0,0.009114583333333334,57.53125000000001,0)" xlink:href="#bL"/></g><g id="W"><use transform="matrix(0.009114583333333334,0,0,0.009114583333333334,0,0)" xlink:href="#bU"/><use transform="matrix(0.009114583333333334,0,0,0.009114583333333334,4.721354166666667,0)" xlink:href="#bW"/><use transform="matrix(0.009114583333333334,0,0,0.009114583333333334,15.102864583333336,0)" xlink:href="#cb"/><use transform="matrix(0.009114583333333334,0,0,0.009114583333333334,26.54166666666667,0)" xlink:href="#bL"/><use transform="matrix(0.009114583333333334,0,0,0.009114583333333334,37.816406250000014,0)" xlink:href="#bM"/><use transform="matrix(0.009114583333333334,0,0,0.009114583333333334,45.43619791666667,0)" xlink:href="#bP"/><use transform="matrix(0.009114583333333334,0,0,0.009114583333333334,50.157552083333336,0)" xlink:href="#bR"/></g><g id="X"><use transform="matrix(0.009114583333333334,0,0,0.009114583333333334,0,0)" xlink:href="#bZ"/><use transform="matrix(0.009114583333333334,0,0,0.009114583333333334,11.45703125,0)" xlink:href="#bP"/><use transform="matrix(0.009114583333333334,0,0,0.009114583333333334,16.178385416666668,0)" xlink:href="#bR"/><use transform="matrix(0.009114583333333334,0,0,0.009114583333333334,25.083333333333336,0)" xlink:href="#bP"/></g><g id="Y"><use transform="matrix(0.009114583333333334,0,0,0.009114583333333334,0,0)" xlink:href="#bS"/><use transform="matrix(0.009114583333333334,0,0,0.009114583333333334,11.45703125,0)" xlink:href="#bV"/></g><g id="Z"><use transform="matrix(0.009114583333333334,0,0,0.009114583333333334,0,0)" xlink:href="#bW"/><use transform="matrix(0.009114583333333334,0,0,0.009114583333333334,10.381510416666668,0)" xlink:href="#bU"/><use transform="matrix(0.009114583333333334,0,0,0.009114583333333334,15.102864583333336,0)" xlink:href="#bP"/><use transform="matrix(0.009114583333333334,0,0,0.009114583333333334,19.824218750000007,0)" xlink:href="#cc"/><use transform="matrix(0.009114583333333334,0,0,0.009114583333333334,31.263020833333336,0)" xlink:href="#bS"/><use transform="matrix(0.009114583333333334,0,0,0.009114583333333334,42.720052083333336,0)" xlink:href="#bP"/><use transform="matrix(0.009114583333333334,0,0,0.009114583333333334,47.44140625,0)" xlink:href="#bQ"/></g><g id="aa"><use transform="matrix(0.009114583333333334,0,0,0.009114583333333334,0,0)" xlink:href="#bN"/><use transform="matrix(0.009114583333333334,0,0,0.009114583333333334,10.098958333333334,0)" xlink:href="#cg"/></g><g id="ab"><use transform="matrix(0.009114583333333334,0,0,0.009114583333333334,0,0)" xlink:href="#bN"/><use transform="matrix(0.009114583333333334,0,0,0.009114583333333334,10.47265625,0)" xlink:href="#bW"/></g><g id="ac"><use transform="matrix(0.009114583333333334,0,0,0.009114583333333334,0,0)" xlink:href="#bY"/><use transform="matrix(0.009114583333333334,0,0,0.009114583333333334,8.88671875,0)" xlink:href="#bL"/><use transform="matrix(0.009114583333333334,0,0,0.009114583333333334,20.161458333333336,0)" xlink:href="#bO"/><use transform="matrix(0.009114583333333334,0,0,0.009114583333333334,37.524739583333336,0)" xlink:href="#bO"/><use transform="matrix(0.009114583333333334,0,0,0.009114583333333334,54.888020833333336,0)" xlink:href="#bL"/><use transform="matrix(0.009114583333333334,0,0,0.009114583333333334,66.16276041666667,0)" xlink:href="#bT"/><use transform="matrix(0.009114583333333334,0,0,0.009114583333333334,77.6015625,0)" xlink:href="#bL"/></g><g id="ad"><use transform="matrix(0.009114583333333334,0,0,0.009114583333333334,0,0)" xlink:href="#bY"/><use transform="matrix(0.009114583333333334,0,0,0.009114583333333334,8.88671875,0)" xlink:href="#bL"/><use transform="matrix(0.009114583333333334,0,0,0.009114583333333334,20.161458333333336,0)" xlink:href="#bZ"/><use transform="matrix(0.009114583333333334,0,0,0.009114583333333334,31.618489583333336,0)" xlink:href="#bR"/><use transform="matrix(0.009114583333333334,0,0,0.009114583333333334,40.5234375,0)" xlink:href="#bN"/><use transform="matrix(0.009114583333333334,0,0,0.009114583333333334,50.99609375,0)" xlink:href="#cc"/><use transform="matrix(0.009114583333333334,0,0,0.009114583333333334,62.434895833333336,0)" xlink:href="#bS"/><use transform="matrix(0.009114583333333334,0,0,0.009114583333333334,73.89192708333334,0)" xlink:href="#bW"/><use transform="matrix(0.009114583333333334,0,0,0.009114583333333334,84.27343750000003,0)" xlink:href="#bV"/><use transform="matrix(0.009114583333333334,0,0,0.009114583333333334,90.86328125000003,0)" xlink:href="#cd"/></g><path d="M649-1462c450-4 719 268 719 717 0 484-276 748-762 745H201v-1462h448zM578-147c400 1 610-197 610-592 1-379-192-576-570-576H371v1168h207" id="ch"/><g id="ae"><use transform="matrix(0.009114583333333334,0,0,0.009114583333333334,0,0)" xlink:href="#ch"/><use transform="matrix(0.009114583333333334,0,0,0.009114583333333334,13.608072916666668,0)" xlink:href="#bS"/><use transform="matrix(0.009114583333333334,0,0,0.009114583333333334,25.065104166666668,0)" xlink:href="#bP"/><use transform="matrix(0.009114583333333334,0,0,0.009114583333333334,29.786458333333336,0)" xlink:href="#bR"/></g><g id="af"><use transform="matrix(0.009114583333333334,0,0,0.009114583333333334,0,0)" xlink:href="#bW"/><use transform="matrix(0.009114583333333334,0,0,0.009114583333333334,10.381510416666668,0)" xlink:href="#bS"/><use transform="matrix(0.009114583333333334,0,0,0.009114583333333334,21.838541666666668,0)" xlink:href="#bV"/><use transform="matrix(0.009114583333333334,0,0,0.009114583333333334,28.428385416666668,0)" xlink:href="#bN"/></g><g id="ag"><use transform="matrix(0.009114583333333334,0,0,0.009114583333333334,0,0)" xlink:href="#bP"/><use transform="matrix(0.009114583333333334,0,0,0.009114583333333334,4.721354166666667,0)" xlink:href="#bM"/><use transform="matrix(0.009114583333333334,0,0,0.009114583333333334,12.341145833333334,0)" xlink:href="#bS"/><use transform="matrix(0.009114583333333334,0,0,0.009114583333333334,23.798177083333336,0)" xlink:href="#bM"/><use transform="matrix(0.009114583333333334,0,0,0.009114583333333334,31.044270833333336,0)" xlink:href="#bN"/></g><g id="ah"><use transform="matrix(0.009114583333333334,0,0,0.009114583333333334,0,0)" xlink:href="#bP"/><use transform="matrix(0.009114583333333334,0,0,0.009114583333333334,4.721354166666667,0)" xlink:href="#bZ"/></g><path d="M690-1114c271 2 402 123 402 399V0H926v-709c-1-177-76-266-252-266-251 0-332 135-332 402V0H176v-1556h166c-4 200 8 426-8 612h10c61-100 187-171 346-170" id="ci"/><g id="ai"><use transform="matrix(0.009114583333333334,0,0,0.009114583333333334,0,0)" xlink:href="#bM"/><use transform="matrix(0.009114583333333334,0,0,0.009114583333333334,7.246093750000001,0)" xlink:href="#bN"/><use transform="matrix(0.009114583333333334,0,0,0.009114583333333334,17.71875,0)" xlink:href="#bQ"/><use transform="matrix(0.009114583333333334,0,0,0.009114583333333334,29.157552083333336,0)" xlink:href="#bM"/><use transform="matrix(0.009114583333333334,0,0,0.009114583333333334,36.403645833333336,0)" xlink:href="#bN"/><use transform="matrix(0.009114583333333334,0,0,0.009114583333333334,46.876302083333336,0)" xlink:href="#ci"/><use transform="matrix(0.009114583333333334,0,0,0.009114583333333334,58.333333333333336,0)" xlink:href="#bN"/><use transform="matrix(0.009114583333333334,0,0,0.009114583333333334,68.80598958333334,0)" xlink:href="#bZ"/><use transform="matrix(0.009114583333333334,0,0,0.009114583333333334,80.26302083333334,0)" xlink:href="#bT"/><use transform="matrix(0.009114583333333334,0,0,0.009114583333333334,91.70182291666667,0)" xlink:href="#bN"/><use transform="matrix(0.009114583333333334,0,0,0.009114583333333334,102.17447916666667,0)" xlink:href="#bM"/><use transform="matrix(0.009114583333333334,0,0,0.009114583333333334,109.79427083333334,0)" xlink:href="#bP"/><use transform="matrix(0.009114583333333334,0,0,0.009114583333333334,114.51562500000001,0)" xlink:href="#bV"/></g><g id="aj"><use transform="matrix(0.009114583333333334,0,0,0.009114583333333334,0,0)" xlink:href="#bP"/><use transform="matrix(0.009114583333333334,0,0,0.009114583333333334,4.721354166666667,0)" xlink:href="#bZ"/></g><g id="ak"><use transform="matrix(0.009114583333333334,0,0,0.009114583333333334,0,0)" xlink:href="#cf"/><use transform="matrix(0.009114583333333334,0,0,0.009114583333333334,9.3515625,0)" xlink:href="#bL"/><use transform="matrix(0.009114583333333334,0,0,0.009114583333333334,20.626302083333336,0)" xlink:href="#bU"/><use transform="matrix(0.009114583333333334,0,0,0.009114583333333334,25.34765625,0)" xlink:href="#bS"/><use transform="matrix(0.009114583333333334,0,0,0.009114583333333334,36.8046875,0)" xlink:href="#bQ"/><use transform="matrix(0.009114583333333334,0,0,0.009114583333333334,48.243489583333336,0)" xlink:href="#bV"/><use transform="matrix(0.009114583333333334,0,0,0.009114583333333334,54.833333333333336,0)" xlink:href="#bW"/><use transform="matrix(0.009114583333333334,0,0,0.009114583333333334,65.21484375,0)" xlink:href="#bV"/><use transform="matrix(0.009114583333333334,0,0,0.009114583333333334,71.8046875,0)" xlink:href="#bN"/></g><g id="al"><use transform="matrix(0.009114583333333334,0,0,0.009114583333333334,0,0)" xlink:href="#cf"/><use transform="matrix(0.009114583333333334,0,0,0.009114583333333334,9.3515625,0)" xlink:href="#bN"/><use transform="matrix(0.009114583333333334,0,0,0.009114583333333334,19.82421875,0)" xlink:href="#bU"/><use transform="matrix(0.009114583333333334,0,0,0.009114583333333334,24.545572916666668,0)" xlink:href="#bP"/><use transform="matrix(0.009114583333333334,0,0,0.009114583333333334,29.266927083333336,0)" xlink:href="#bV"/></g><g id="am"><use transform="matrix(0.009114583333333334,0,0,0.009114583333333334,0,0)" xlink:href="#bN"/><use transform="matrix(0.009114583333333334,0,0,0.009114583333333334,10.47265625,0)" xlink:href="#bR"/><use transform="matrix(0.009114583333333334,0,0,0.009114583333333334,19.377604166666668,0)" xlink:href="#bR"/><use transform="matrix(0.009114583333333334,0,0,0.009114583333333334,28.282552083333336,0)" xlink:href="#bN"/></g><g id="an"><use transform="matrix(0.009114583333333334,0,0,0.009114583333333334,0,0)" xlink:href="#bY"/><use transform="matrix(0.009114583333333334,0,0,0.009114583333333334,8.88671875,0)" xlink:href="#bP"/><use transform="matrix(0.009114583333333334,0,0,0.009114583333333334,13.608072916666668,0)" xlink:href="#bU"/><use transform="matrix(0.009114583333333334,0,0,0.009114583333333334,18.329427083333336,0)" xlink:href="#bU"/><use transform="matrix(0.009114583333333334,0,0,0.009114583333333334,23.050781250000007,0)" xlink:href="#bS"/><use transform="matrix(0.009114583333333334,0,0,0.009114583333333334,34.5078125,0)" xlink:href="#bO"/></g><g id="ao"><use transform="matrix(0.009114583333333334,0,0,0.009114583333333334,0,0)" xlink:href="#bN"/><use transform="matrix(0.009114583333333334,0,0,0.009114583333333334,10.47265625,0)" xlink:href="#bS"/></g><path d="M575-1430c-169 0-190 146-184 334h279v129H391V0H225v-967H29v-75l196-60c-15-299 97-465 353-465 58 0 126 12 204 35l-43 133c-64-21-119-31-164-31" id="cj"/><g id="ap"><use transform="matrix(0.009114583333333334,0,0,0.009114583333333334,0,0)" xlink:href="#cj"/><use transform="matrix(0.009114583333333334,0,0,0.009114583333333334,6.325520833333334,0)" xlink:href="#bS"/><use transform="matrix(0.009114583333333334,0,0,0.009114583333333334,17.782552083333336,0)" xlink:href="#ca"/><use transform="matrix(0.009114583333333334,0,0,0.009114583333333334,28.009114583333336,0)" xlink:href="#bP"/><use transform="matrix(0.009114583333333334,0,0,0.009114583333333334,32.73046875,0)" xlink:href="#bW"/><use transform="matrix(0.009114583333333334,0,0,0.009114583333333334,43.11197916666667,0)" xlink:href="#bV"/></g><g id="aq"><use transform="matrix(0.009114583333333334,0,0,0.009114583333333334,0,0)" xlink:href="#bZ"/><use transform="matrix(0.009114583333333334,0,0,0.009114583333333334,11.45703125,0)" xlink:href="#bS"/><use transform="matrix(0.009114583333333334,0,0,0.009114583333333334,22.9140625,0)" xlink:href="#bU"/><use transform="matrix(0.009114583333333334,0,0,0.009114583333333334,27.635416666666668,0)" xlink:href="#bU"/><use transform="matrix(0.009114583333333334,0,0,0.009114583333333334,32.356770833333336,0)" xlink:href="#bW"/></g><g id="ar"><use transform="matrix(0.009114583333333334,0,0,0.009114583333333334,0,0)" xlink:href="#bQ"/><use transform="matrix(0.009114583333333334,0,0,0.009114583333333334,11.438802083333334,0)" xlink:href="#bW"/><use transform="matrix(0.009114583333333334,0,0,0.009114583333333334,21.8203125,0)" xlink:href="#bM"/><use transform="matrix(0.009114583333333334,0,0,0.009114583333333334,29.440104166666668,0)" xlink:href="#bP"/><use transform="matrix(0.009114583333333334,0,0,0.009114583333333334,34.161458333333336,0)" xlink:href="#bW"/><use transform="matrix(0.009114583333333334,0,0,0.009114583333333334,44.54296875,0)" xlink:href="#bV"/><use transform="matrix(0.009114583333333334,0,0,0.009114583333333334,51.1328125,0)" xlink:href="#bS"/><use transform="matrix(0.009114583333333334,0,0,0.009114583333333334,62.58984375000001,0)" xlink:href="#bM"/><use transform="matrix(0.009114583333333334,0,0,0.009114583333333334,70.20963541666667,0)" xlink:href="#cd"/></g><path d="M1016 0H201v-1462h815v151H371v471h606v150H371v538h645V0" id="ck"/><g id="as"><use transform="matrix(0.009114583333333334,0,0,0.009114583333333334,0,0)" xlink:href="#ck"/><use transform="matrix(0.009114583333333334,0,0,0.009114583333333334,10.381510416666668,0)" xlink:href="#cg"/><use transform="matrix(0.009114583333333334,0,0,0.009114583333333334,19.78776041666667,0)" xlink:href="#bY"/><use transform="matrix(0.009114583333333334,0,0,0.009114583333333334,28.67447916666667,0)" xlink:href="#bN"/><use transform="matrix(0.009114583333333334,0,0,0.009114583333333334,39.14713541666667,0)" xlink:href="#bQ"/><use transform="matrix(0.009114583333333334,0,0,0.009114583333333334,50.5859375,0)" xlink:href="#bV"/><use transform="matrix(0.009114583333333334,0,0,0.009114583333333334,57.17578125000001,0)" xlink:href="#bN"/><use transform="matrix(0.009114583333333334,0,0,0.009114583333333334,67.6484375,0)" xlink:href="#bS"/><use transform="matrix(0.009114583333333334,0,0,0.009114583333333334,79.10546875,0)" xlink:href="#bM"/></g><g id="at"><use transform="matrix(0.009114583333333334,0,0,0.009114583333333334,0,0)" xlink:href="#bR"/><use transform="matrix(0.009114583333333334,0,0,0.009114583333333334,8.904947916666668,0)" xlink:href="#bP"/><use transform="matrix(0.009114583333333334,0,0,0.009114583333333334,13.626302083333336,0)" xlink:href="#bZ"/><use transform="matrix(0.009114583333333334,0,0,0.009114583333333334,25.083333333333336,0)" xlink:href="#bV"/></g><g id="au"><use transform="matrix(0.009114583333333334,0,0,0.009114583333333334,0,0)" xlink:href="#bL"/><use transform="matrix(0.009114583333333334,0,0,0.009114583333333334,11.274739583333334,0)" xlink:href="#bY"/><use transform="matrix(0.009114583333333334,0,0,0.009114583333333334,20.161458333333336,0)" xlink:href="#bY"/><use transform="matrix(0.009114583333333334,0,0,0.009114583333333334,29.048177083333336,0)" xlink:href="#bW"/><use transform="matrix(0.009114583333333334,0,0,0.009114583333333334,39.4296875,0)" xlink:href="#bN"/><use transform="matrix(0.009114583333333334,0,0,0.009114583333333334,49.90234375,0)" xlink:href="#bY"/><use transform="matrix(0.009114583333333334,0,0,0.009114583333333334,58.78906250000001,0)" xlink:href="#bW"/><use transform="matrix(0.009114583333333334,0,0,0.009114583333333334,69.17057291666667,0)" xlink:href="#bV"/></g><g id="av"><use transform="matrix(0.009114583333333334,0,0,0.009114583333333334,0,0)" xlink:href="#bY"/><use transform="matrix(0.009114583333333334,0,0,0.009114583333333334,8.88671875,0)" xlink:href="#bS"/><use transform="matrix(0.009114583333333334,0,0,0.009114583333333334,20.34375,0)" xlink:href="#bQ"/><use transform="matrix(0.009114583333333334,0,0,0.009114583333333334,31.782552083333336,0)" xlink:href="#bP"/><use transform="matrix(0.009114583333333334,0,0,0.009114583333333334,36.50390625,0)" xlink:href="#bT"/><use transform="matrix(0.009114583333333334,0,0,0.009114583333333334,47.942708333333336,0)" xlink:href="#bW"/><use transform="matrix(0.009114583333333334,0,0,0.009114583333333334,58.32421875000001,0)" xlink:href="#bV"/><use transform="matrix(0.009114583333333334,0,0,0.009114583333333334,64.9140625,0)" xlink:href="#bW"/><use transform="matrix(0.009114583333333334,0,0,0.009114583333333334,75.29557291666667,0)" xlink:href="#bV"/></g><g id="aw"><use transform="matrix(0.009114583333333334,0,0,0.009114583333333334,0,0)" xlink:href="#bZ"/><use transform="matrix(0.009114583333333334,0,0,0.009114583333333334,11.45703125,0)" xlink:href="#bL"/><use transform="matrix(0.009114583333333334,0,0,0.009114583333333334,22.731770833333336,0)" xlink:href="#bZ"/></g><g id="ax"><use transform="matrix(0.009114583333333334,0,0,0.009114583333333334,0,0)" xlink:href="#bQ"/><use transform="matrix(0.009114583333333334,0,0,0.009114583333333334,11.438802083333334,0)" xlink:href="#bM"/><use transform="matrix(0.009114583333333334,0,0,0.009114583333333334,18.684895833333336,0)" xlink:href="#bL"/><use transform="matrix(0.009114583333333334,0,0,0.009114583333333334,29.95963541666667,0)" xlink:href="#bP"/><use transform="matrix(0.009114583333333334,0,0,0.009114583333333334,34.680989583333336,0)" xlink:href="#bT"/><use transform="matrix(0.009114583333333334,0,0,0.009114583333333334,46.11979166666667,0)" xlink:href="#bN"/><use transform="matrix(0.009114583333333334,0,0,0.009114583333333334,56.59244791666667,0)" xlink:href="#bZ"/><use transform="matrix(0.009114583333333334,0,0,0.009114583333333334,68.04947916666667,0)" xlink:href="#bV"/><use transform="matrix(0.009114583333333334,0,0,0.009114583333333334,74.63932291666667,0)" xlink:href="#bX"/></g><g id="ay"><use transform="matrix(0.009114583333333334,0,0,0.009114583333333334,0,0)" xlink:href="#bR"/><use transform="matrix(0.009114583333333334,0,0,0.009114583333333334,8.904947916666668,0)" xlink:href="#bS"/><use transform="matrix(0.009114583333333334,0,0,0.009114583333333334,20.361979166666668,0)" xlink:href="#bZ"/><use transform="matrix(0.009114583333333334,0,0,0.009114583333333334,31.819010416666668,0)" xlink:href="#bV"/></g><g id="az"><use transform="matrix(0.009114583333333334,0,0,0.009114583333333334,0,0)" xlink:href="#bY"/><use transform="matrix(0.009114583333333334,0,0,0.009114583333333334,8.88671875,0)" xlink:href="#bS"/><use transform="matrix(0.009114583333333334,0,0,0.009114583333333334,20.34375,0)" xlink:href="#bU"/><use transform="matrix(0.009114583333333334,0,0,0.009114583333333334,25.065104166666668,0)" xlink:href="#bQ"/><use transform="matrix(0.009114583333333334,0,0,0.009114583333333334,36.50390625,0)" xlink:href="#bW"/></g><g id="aA"><use transform="matrix(0.009114583333333334,0,0,0.009114583333333334,0,0)" xlink:href="#cc"/><use transform="matrix(0.009114583333333334,0,0,0.009114583333333334,11.438802083333334,0)" xlink:href="#bS"/><use transform="matrix(0.009114583333333334,0,0,0.009114583333333334,22.895833333333336,0)" xlink:href="#bP"/></g><g id="aB"><use transform="matrix(0.009114583333333334,0,0,0.009114583333333334,0,0)" xlink:href="#bL"/><use transform="matrix(0.009114583333333334,0,0,0.009114583333333334,11.274739583333334,0)" xlink:href="#cj"/><use transform="matrix(0.009114583333333334,0,0,0.009114583333333334,17.600260416666668,0)" xlink:href="#cj"/><use transform="matrix(0.009114583333333334,0,0,0.009114583333333334,23.92578125,0)" xlink:href="#bP"/><use transform="matrix(0.009114583333333334,0,0,0.009114583333333334,28.647135416666668,0)" xlink:href="#bY"/><use transform="matrix(0.009114583333333334,0,0,0.009114583333333334,37.53385416666667,0)" xlink:href="#bP"/><use transform="matrix(0.009114583333333334,0,0,0.009114583333333334,42.255208333333336,0)" xlink:href="#bW"/></g><g id="aC"><use transform="matrix(0.009114583333333334,0,0,0.009114583333333334,0,0)" xlink:href="#bT"/><use transform="matrix(0.009114583333333334,0,0,0.009114583333333334,11.438802083333334,0)" xlink:href="#bN"/><use transform="matrix(0.009114583333333334,0,0,0.009114583333333334,21.911458333333336,0)" xlink:href="#bR"/><use transform="matrix(0.009114583333333334,0,0,0.009114583333333334,30.816406250000004,0)" xlink:href="#bN"/><use transform="matrix(0.009114583333333334,0,0,0.009114583333333334,41.2890625,0)" xlink:href="#bM"/><use transform="matrix(0.009114583333333334,0,0,0.009114583333333334,48.908854166666664,0)" xlink:href="#bS"/><use transform="matrix(0.009114583333333334,0,0,0.009114583333333334,60.365885416666664,0)" xlink:href="#bZ"/><use transform="matrix(0.009114583333333334,0,0,0.009114583333333334,71.82291666666666,0)" xlink:href="#bV"/></g><g id="aD"><use transform="matrix(0.009114583333333334,0,0,0.009114583333333334,0,0)" xlink:href="#bO"/><use transform="matrix(0.009114583333333334,0,0,0.009114583333333334,17.36328125,0)" xlink:href="#bL"/><use transform="matrix(0.009114583333333334,0,0,0.009114583333333334,28.638020833333336,0)" xlink:href="#bU"/><use transform="matrix(0.009114583333333334,0,0,0.009114583333333334,33.359375,0)" xlink:href="#bU"/><use transform="matrix(0.009114583333333334,0,0,0.009114583333333334,38.080729166666664,0)" xlink:href="#bP"/><use transform="matrix(0.009114583333333334,0,0,0.009114583333333334,42.80208333333333,0)" xlink:href="#bV"/></g><g id="aE"><use transform="matrix(0.009114583333333334,0,0,0.009114583333333334,0,0)" xlink:href="#bW"/><use transform="matrix(0.009114583333333334,0,0,0.009114583333333334,10.381510416666668,0)" xlink:href="#bZ"/><use transform="matrix(0.009114583333333334,0,0,0.009114583333333334,21.838541666666668,0)" xlink:href="#bP"/><use transform="matrix(0.009114583333333334,0,0,0.009114583333333334,26.559895833333336,0)" xlink:href="#bO"/></g><g id="aF"><use transform="matrix(0.009114583333333334,0,0,0.009114583333333334,0,0)" xlink:href="#bP"/><use transform="matrix(0.009114583333333334,0,0,0.009114583333333334,4.721354166666667,0)" xlink:href="#bT"/></g><g id="aG"><use transform="matrix(0.009114583333333334,0,0,0.009114583333333334,0,0)" xlink:href="#bN"/><use transform="matrix(0.009114583333333334,0,0,0.009114583333333334,10.47265625,0)" xlink:href="#bR"/><use transform="matrix(0.009114583333333334,0,0,0.009114583333333334,19.377604166666668,0)" xlink:href="#bV"/></g><g id="aH"><use transform="matrix(0.009114583333333334,0,0,0.009114583333333334,0,0)" xlink:href="#bU"/><use transform="matrix(0.009114583333333334,0,0,0.009114583333333334,4.721354166666667,0)" xlink:href="#bW"/><use transform="matrix(0.009114583333333334,0,0,0.009114583333333334,15.102864583333336,0)" xlink:href="#cb"/><use transform="matrix(0.009114583333333334,0,0,0.009114583333333334,26.54166666666667,0)" xlink:href="#bL"/><use transform="matrix(0.009114583333333334,0,0,0.009114583333333334,37.816406250000014,0)" xlink:href="#bM"/><use transform="matrix(0.009114583333333334,0,0,0.009114583333333334,45.43619791666667,0)" xlink:href="#bS"/><use transform="matrix(0.009114583333333334,0,0,0.009114583333333334,56.89322916666667,0)" xlink:href="#bO"/><use transform="matrix(0.009114583333333334,0,0,0.009114583333333334,74.25651041666667,0)" xlink:href="#cd"/></g><path fill="#3a414a" d="M77-14l30 5v9H13v-9l30-5v-208l-30-4v-10h94v10l-30 4v208" id="cl"/><path fill="#3a414a" d="M164-154L98 4H85L17-153c-7-3-20 0-17-12h77v8l-26 4L99-38l46-115-26-4v-8h61v8" id="cm"/><g id="aI"><use transform="matrix(0.06172839506172839,0,0,0.06172839506172839,0,0)" xlink:href="#cl"/><use transform="matrix(0.06172839506172839,0,0,0.06172839506172839,7.345679012345679,0)" xlink:href="#bc"/><use transform="matrix(0.06172839506172839,0,0,0.06172839506172839,13.518518518518519,0)" xlink:href="#bc"/><use transform="matrix(0.06172839506172839,0,0,0.06172839506172839,19.691358024691358,0)" xlink:href="#aS"/><use transform="matrix(0.06172839506172839,0,0,0.06172839506172839,30.80246913580247,0)" xlink:href="#bd"/><use transform="matrix(0.06172839506172839,0,0,0.06172839506172839,39.44444444444444,0)" xlink:href="#aV"/><use transform="matrix(0.06172839506172839,0,0,0.06172839506172839,45.617283950617285,0)" xlink:href="#bD"/><use transform="matrix(0.06172839506172839,0,0,0.06172839506172839,52.96296296296296,0)" xlink:href="#aU"/><use transform="matrix(0.06172839506172839,0,0,0.06172839506172839,62.77777777777778,0)" xlink:href="#aV"/><use transform="matrix(0.06172839506172839,0,0,0.06172839506172839,68.95061728395062,0)" xlink:href="#aW"/><use transform="matrix(0.06172839506172839,0,0,0.06172839506172839,75.12345679012346,0)" xlink:href="#cm"/><use transform="matrix(0.06172839506172839,0,0,0.06172839506172839,86.23456790123457,0)" xlink:href="#bE"/></g><path fill="#3a414a" d="M156-12c7 3 23-1 20 12h-75v-8l22-4-38-58-45 58 23 4v8H3v-8l19-3 55-71-48-71c-7-3-23 1-20-12h75v8l-22 4 32 48 37-48-23-4v-8h59v8l-19 3-46 60" id="cn"/><g id="aJ"><use transform="matrix(0.06172839506172839,0,0,0.06172839506172839,0,0)" xlink:href="#bE"/><use transform="matrix(0.06172839506172839,0,0,0.06172839506172839,9.814814814814815,0)" xlink:href="#cn"/><use transform="matrix(0.06172839506172839,0,0,0.06172839506172839,20.925925925925924,0)" xlink:href="#aU"/><use transform="matrix(0.06172839506172839,0,0,0.06172839506172839,30.74074074074074,0)" xlink:href="#bB"/><use transform="matrix(0.06172839506172839,0,0,0.06172839506172839,48.02469135802469,0)" xlink:href="#aT"/><use transform="matrix(0.06172839506172839,0,0,0.06172839506172839,59.1358024691358,0)" xlink:href="#bc"/><use transform="matrix(0.06172839506172839,0,0,0.06172839506172839,65.30864197530863,0)" xlink:href="#bE"/><use transform="matrix(0.06172839506172839,0,0,0.06172839506172839,75.12345679012344,0)" xlink:href="#bd"/><use transform="matrix(0.06172839506172839,0,0,0.06172839506172839,83.76543209876542,0)" xlink:href="#ba"/></g><path fill="#3a414a" d="M81-9v9H4v-9l26-5 81-224h33l83 224 30 5v9h-99v-9l31-5-23-68H73L49-14zm38-203L78-98h82" id="co"/><path fill="#3a414a" d="M42-37c43 0 23 74-4 81-7 4-14 8-24 11V42c17-5 29-14 31-30C42-2 20 1 21-18c0-12 9-19 21-19" id="cp"/><g id="aK"><use transform="matrix(0.06172839506172839,0,0,0.06172839506172839,0,0)" xlink:href="#co"/><use transform="matrix(0.06172839506172839,0,0,0.06172839506172839,15.987654320987653,0)" xlink:href="#cp"/></g><path fill="#3a414a" d="M75-131c50 2 93 3 93-48 0-46-48-41-93-41v89zm0 115c55 4 111 6 111-51 0-53-58-48-111-48v99zm148-52C223 24 102-3 10 0v-9l31-5v-208l-31-4v-10c77 6 193-24 194 56 0 33-20 48-48 54 36 5 67 20 67 58" id="cq"/><g id="aL"><use transform="matrix(0.06172839506172839,0,0,0.06172839506172839,0,0)" xlink:href="#cq"/><use transform="matrix(0.06172839506172839,0,0,0.06172839506172839,14.814814814814813,0)" xlink:href="#cp"/></g><use transform="matrix(0.06172839506172839,0,0,0.06172839506172839,0,0)" xlink:href="#bH" id="aM"/><path fill="#3a414a" d="M111-226l-36 4v207c33-1 73 2 101-4l11-49h11l-3 68H10v-9l31-5v-208l-31-4v-10h101v10" id="cr"/><g id="aN"><use transform="matrix(0.06172839506172839,0,0,0.06172839506172839,0,0)" xlink:href="#cr"/><use transform="matrix(0.06172839506172839,0,0,0.06172839506172839,13.518518518518517,0)" xlink:href="#bE"/><use transform="matrix(0.06172839506172839,0,0,0.06172839506172839,23.333333333333332,0)" xlink:href="#aU"/><use transform="matrix(0.06172839506172839,0,0,0.06172839506172839,33.148148148148145,0)" xlink:href="#bD"/><use transform="matrix(0.06172839506172839,0,0,0.06172839506172839,40.49382716049382,0)" xlink:href="#aY"/></g><path fill="#3a414a" d="M152 0h-7L59-203v189l32 5v9H10v-9l31-5v-208l-31-4v-10h72l76 180 84-180h68v10l-31 4v208l31 5v9h-96v-9l32-5v-189" id="cs"/><g id="aO"><use transform="matrix(0.06172839506172839,0,0,0.06172839506172839,0,0)" xlink:href="#cs"/><use transform="matrix(0.06172839506172839,0,0,0.06172839506172839,19.753086419753085,0)" xlink:href="#aX"/><use transform="matrix(0.06172839506172839,0,0,0.06172839506172839,30.864197530864196,0)" xlink:href="#bD"/><use transform="matrix(0.06172839506172839,0,0,0.06172839506172839,38.20987654320987,0)" xlink:href="#bE"/></g><path fill="#3a414a" d="M10 0v-9l31-5v-208l-31-4v-10h95v10l-30 4v93h110v-93l-30-4v-10h94v10l-30 4v208l30 5v9h-94v-9l30-5v-99H75v99l30 5v9H10" id="ct"/><g id="aP"><use transform="matrix(0.06172839506172839,0,0,0.06172839506172839,0,0)" xlink:href="#ct"/><use transform="matrix(0.06172839506172839,0,0,0.06172839506172839,15.987654320987653,0)" xlink:href="#aX"/><use transform="matrix(0.06172839506172839,0,0,0.06172839506172839,27.098765432098766,0)" xlink:href="#bB"/><use transform="matrix(0.06172839506172839,0,0,0.06172839506172839,44.382716049382715,0)" xlink:href="#bE"/></g></defs></g></svg>