<svg xmlns="http://www.w3.org/2000/svg" xmlns:xlink="http://www.w3.org/1999/xlink" xmlns:lucid="lucid" width="1021.66" height="1049.5"><g transform="translate(-789.1677198799198 406.08333333333326)" lucid:page-tab-id="0_0"><path d="M500-500h1500v1500H500z" fill="#fff"/><path d="M810.17-379.08a6 6 0 0 1 6-6h967.66a6 6 0 0 1 6 6v995.5a6 6 0 0 1-6 6H816.17a6 6 0 0 1-6-6z" stroke="#282c33" stroke-width="2" fill="#fff"/><path d="M1043.3-9.5a8.26 8.26 0 0 1 7.86-5.72h114c0 66.28-53.73 120-120 120-13.26 0-24.48-1.78-37.1-5.87z" stroke="#282c33" stroke-width="2" fill="#aaa"/><path d="M1039.45-13.36a3.06 3.06 0 0 1 3.85 3.85l-35.23 108.4c-37.82-12.28-64.75-39.22-77.04-77.04z" stroke="#282c33" stroke-width="2" fill="#555"/><path d="M1051.15-15.22a37.88 37.88 0 0 0-11.7 1.86L931.03 21.86c-20.48-63.03 14-130.72 77.04-151.2 63.03-20.48 130.73 14 151.2 77.04 4.1 12.6 5.88 23.83 5.88 37.08z" stroke="#282c33" stroke-width="2" fill="#fff"/><use xlink:href="#a" transform="matrix(1,0,0,1,973.1553742009082,-87.21776973326473) translate(30.425925925925924 28.444444444444443)"/><use xlink:href="#b" transform="matrix(1,0,0,1,973.1553742009082,-87.21776973326473) translate(64.31481481481481 28.444444444444443)"/><path d="M827.4-252.83a6 6 0 0 1 6-6h548a6 6 0 0 1 6 6v83.33a6 6 0 0 1-6 6h-548a6 6 0 0 1-6-6z" fill="#fff" fill-opacity="0"/><use xlink:href="#c" transform="matrix(1,0,0,1,832.3926736935755,-253.83333333333326) translate(0 28.444444444444446)"/><use xlink:href="#d" transform="matrix(1,0,0,1,832.3926736935755,-253.83333333333326) translate(89.58024691358025 28.444444444444446)"/><use xlink:href="#e" transform="matrix(1,0,0,1,832.3926736935755,-253.83333333333326) translate(238.22222222222226 28.444444444444446)"/><use xlink:href="#f" transform="matrix(1,0,0,1,832.3926736935755,-253.83333333333326) translate(274.7654320987655 28.444444444444446)"/><use xlink:href="#g" transform="matrix(1,0,0,1,832.3926736935755,-253.83333333333326) translate(457.0864197530865 28.444444444444446)"/><path d="M827.4-194.56a6 6 0 0 1 6-6h453.03a6 6 0 0 1 6 6v83.33a6 6 0 0 1-6 6H833.4a6 6 0 0 1-6-6z" fill="#fff" fill-opacity="0"/><use xlink:href="#h" transform="matrix(1,0,0,1,832.3926736935755,-195.56452472780438) translate(0 28.444444444444446)"/><use xlink:href="#i" transform="matrix(1,0,0,1,832.3926736935755,-195.56452472780438) translate(239.5061728395062 28.444444444444446)"/><path d="M1447.4-119.56a6 6 0 0 1 6-6h308a6 6 0 0 1 6 6v228a6 6 0 0 1-6 6h-308a6 6 0 0 1-6-6z" stroke="#282c33" stroke-width="2" fill="#fff"/><path d="M1511.4 114.44l64-240m-128 144l320-120m-320 168h64c64 0 160-48 192-60l64-12m-160-120l16 24c16 24 80 48 80 108" stroke="#282c33" stroke-width="8" fill="none"/><path d="M1507.4-65.56c18 7.2 18 7.2 36 0 18 7.2 18 7.2 36 0 18 18 18 72-36 90-54-18-54-72-36-90z" stroke="#282c33" stroke-width="2" fill="#08f"/><path d="M1487.4-194.56a6 6 0 0 1 6-6H1741a6 6 0 0 1 6 6v83.33a6 6 0 0 1-6 6h-247.6a6 6 0 0 1-6-6z" fill="#fff" fill-opacity="0"/><use xlink:href="#j" transform="matrix(1,0,0,1,1492.3926736935755,-195.56452472780438) translate(0 28.444444444444446)"/><use xlink:href="#k" transform="matrix(1,0,0,1,1492.3926736935755,-195.56452472780438) translate(75.75308641975309 28.444444444444446)"/><path d="M827.4-348.17a6 6 0 0 1 6-6h548a6 6 0 0 1 6 6v94a6 6 0 0 1-6 6h-548a6 6 0 0 1-6-6z" fill="#fff" fill-opacity="0"/><use xlink:href="#l" transform="matrix(1,0,0,1,832.3926736935755,-349.16666666666674) translate(0 32)"/><use xlink:href="#m" transform="matrix(1,0,0,1,832.3926736935755,-349.16666666666674) translate(131.77777777777777 32)"/><use xlink:href="#n" transform="matrix(1,0,0,1,832.3926736935755,-349.16666666666674) translate(204 32)"/><use xlink:href="#o" transform="matrix(1,0,0,1,832.3926736935755,-349.16666666666674) translate(311.77777777777777 32)"/><path d="M887.4 273.42a6 6 0 0 1 6-6h823a6 6 0 0 1 6 6v228a6 6 0 0 1-6 6h-823a6 6 0 0 1-6-6z" stroke="#282c33" stroke-width="2" fill="#fff"/><path d="M887.4 267.42l835 240m0-240l-835 240" stroke="#282c33" stroke-width="2" fill="none"/><path d="M907.4 208.42a6 6 0 0 1 6-6h765.77a6 6 0 0 1 6 6v126a6 6 0 0 1-6 6H913.4a6 6 0 0 1-6-6z" fill="#fff" fill-opacity="0"/><g><use xlink:href="#p" transform="matrix(1,0,0,1,912.3926736935764,207.41666666666674) translate(0 28.444444444444446)"/><use xlink:href="#q" transform="matrix(1,0,0,1,912.3926736935764,207.41666666666674) translate(117.23456790123457 28.444444444444446)"/><use xlink:href="#r" transform="matrix(1,0,0,1,912.3926736935764,207.41666666666674) translate(289.679012345679 28.444444444444446)"/><use xlink:href="#s" transform="matrix(1,0,0,1,912.3926736935764,207.41666666666674) translate(330.1728395061728 28.444444444444446)"/><use xlink:href="#t" transform="matrix(1,0,0,1,912.3926736935764,207.41666666666674) translate(408 28.444444444444446)"/></g><path d="M1594.4 547.42c-6.63 0-12 5.37-12 12v16c0 6.62 5.37 12 12 12h136c6.62 0 12-5.38 12-12v-16c0-6.63-5.38-12-12-12z" stroke="#282c33" stroke-width="2" fill="#fff"/><g><use xlink:href="#u" transform="matrix(1,0,0,1,1592.3926736935755,551.4166666666667) translate(0.12345679012345556 20.444444444444443)"/><use xlink:href="#v" transform="matrix(1,0,0,1,1592.3926736935755,551.4166666666667) translate(98.08641975308642 20.444444444444443)"/></g><path d="M849.67 549.92c-6.63 0-12 5.37-12 12v16c0 6.62 5.37 12 12 12h136c6.63 0 12-5.38 12-12v-16c0-6.63-5.38-12-12-12z" stroke="#282c33" stroke-width="2" fill="#fff"/><g><use xlink:href="#w" transform="matrix(1,0,0,1,847.6677198799216,553.9166666666667) translate(47.22222222222222 20.444444444444443)"/></g><defs><path fill="#3a414a" d="M75-108c48 3 76-12 76-58s-28-57-76-54v112zm111-58c-1 60-46 78-111 74v78l37 5v9H13v-9l28-5v-208l-31-4v-10c81 1 178-14 176 70" id="x"/><path fill="#3a414a" d="M47-200c-23 0-25-39 0-38 13 0 18 7 20 19-1 11-8 19-20 19zM65-12l28 4v8H8v-8l28-4v-141l-24-4v-8h53v153" id="y"/><path fill="#3a414a" d="M84-170c49 0 66 33 63 87H46c-8 60 38 80 95 63v10C128-2 108 4 88 4 34 4 14-29 14-84c-1-54 22-86 70-86zm33 73c12-57-57-82-69-24-1 7-2 15-2 24h71" id="z"/><g id="a"><use transform="matrix(0.06172839506172839,0,0,0.06172839506172839,0,0)" xlink:href="#x"/><use transform="matrix(0.06172839506172839,0,0,0.06172839506172839,12.345679012345679,0)" xlink:href="#y"/><use transform="matrix(0.06172839506172839,0,0,0.06172839506172839,18.51851851851852,0)" xlink:href="#z"/></g><path fill="#3a414a" d="M52-115c0 93 80 130 150 87l7-35h11l-1 55c-23 7-52 12-83 12C60 4 19-37 15-115c-5-113 97-141 201-114l1 51h-12l-5-30c-15-9-39-16-62-16-66 0-86 41-86 109" id="A"/><path fill="#3a414a" d="M126-119c3-38-42-31-69-25v132l23 4v8H7v-8l21-4v-226l-24-4v-8h53l-1 98c31-22 99-31 99 31v109c7 3 23-1 20 12h-71v-8l22-4v-107" id="B"/><path fill="#3a414a" d="M32-163c41-10 102-14 102 39v112c8 3 24-2 21 12h-45l-4-17C83 13 3 13 13-46c-2-50 45-50 92-51 4-36-5-70-42-56-6 2-12 4-16 6-4 7 0 23-15 20v-36zM42-47c0 41 41 33 63 22v-59c-34 1-63-1-63 37" id="C"/><path fill="#3a414a" d="M57-145c16-10 35-24 60-25v45c-19 1-8-30-40-17l-20 6v124l29 4v8H7v-8l21-4v-141c-8-3-24 2-21-12h48" id="D"/><path fill="#3a414a" d="M54-38c-1 25 24 26 44 20v12C71 10 25 9 25-35v-115H4c-2-14 14-10 21-15l18-38h11v38h38v15H54v112" id="E"/><g id="b"><use transform="matrix(0.06172839506172839,0,0,0.06172839506172839,0,0)" xlink:href="#A"/><use transform="matrix(0.06172839506172839,0,0,0.06172839506172839,14.814814814814813,0)" xlink:href="#B"/><use transform="matrix(0.06172839506172839,0,0,0.06172839506172839,25.925925925925924,0)" xlink:href="#C"/><use transform="matrix(0.06172839506172839,0,0,0.06172839506172839,35.74074074074074,0)" xlink:href="#D"/><use transform="matrix(0.06172839506172839,0,0,0.06172839506172839,43.08641975308642,0)" xlink:href="#E"/></g><path fill="#3a414a" d="M134-16c44-1 70-21 70-64v-142l-32-4v-10h80v10l-30 4v141c0 57-33 84-91 85-58 0-93-26-93-82v-144l-30-4v-10h94v10l-30 4c7 82-31 209 62 206" id="F"/><path fill="#3a414a" d="M41-130c7 48 86 23 86 84 0 56-69 57-112 41v-40c20 0 9 29 31 31 35 19 77-26 41-50-27-18-72-13-72-59 0-50 58-52 100-41v36c-19 1-8-25-28-25-21-7-50-1-46 23" id="G"/><g id="c"><use transform="matrix(0.09876543209876544,0,0,0.09876543209876544,0,0)" xlink:href="#F"/><use transform="matrix(0.09876543209876544,0,0,0.09876543209876544,25.58024691358025,0)" xlink:href="#G"/><use transform="matrix(0.09876543209876544,0,0,0.09876543209876544,39.40740740740741,0)" xlink:href="#z"/><use transform="matrix(0.09876543209876544,0,0,0.09876543209876544,55.111111111111114,0)" xlink:href="#D"/><use transform="matrix(0.09876543209876544,0,0,0.09876543209876544,66.8641975308642,0)" xlink:href="#G"/></g><path fill="#3a414a" d="M77-14l30 5v9H13v-9l30-5v-208l-30-4v-10h94v10l-30 4v208" id="H"/><path fill="#3a414a" d="M125-118c4-37-41-34-68-26v132l23 4v8H8C5-13 21-9 28-12v-141c-7-3-23 1-20-12h47l2 13c31-23 98-29 98 31v109c7 3 23-1 20 12h-72v-8l22-4v-106" id="I"/><path fill="#3a414a" d="M13-81c0-71 46-101 114-85l-1-72-28-4v-8h57v238c8 3 24-2 21 12h-47l-2-12C80 23 13-1 13-81zm77-74c-37 1-44 33-45 74 0 38 9 66 45 66 14 0 27-3 36-7v-130c-10-1-24-3-36-3" id="J"/><g id="d"><use transform="matrix(0.09876543209876544,0,0,0.09876543209876544,0,0)" xlink:href="#H"/><use transform="matrix(0.09876543209876544,0,0,0.09876543209876544,11.753086419753087,0)" xlink:href="#I"/><use transform="matrix(0.09876543209876544,0,0,0.09876543209876544,29.530864197530867,0)" xlink:href="#E"/><use transform="matrix(0.09876543209876544,0,0,0.09876543209876544,39.40740740740741,0)" xlink:href="#z"/><use transform="matrix(0.09876543209876544,0,0,0.09876543209876544,55.111111111111114,0)" xlink:href="#D"/><use transform="matrix(0.09876543209876544,0,0,0.09876543209876544,66.8641975308642,0)" xlink:href="#z"/><use transform="matrix(0.09876543209876544,0,0,0.09876543209876544,82.56790123456791,0)" xlink:href="#G"/><use transform="matrix(0.09876543209876544,0,0,0.09876543209876544,96.39506172839508,0)" xlink:href="#E"/><use transform="matrix(0.09876543209876544,0,0,0.09876543209876544,106.27160493827161,0)" xlink:href="#z"/><use transform="matrix(0.09876543209876544,0,0,0.09876543209876544,121.97530864197535,0)" xlink:href="#J"/></g><g id="e"><use transform="matrix(0.09876543209876544,0,0,0.09876543209876544,0,0)" xlink:href="#y"/><use transform="matrix(0.09876543209876544,0,0,0.09876543209876544,9.876543209876544,0)" xlink:href="#I"/></g><path fill="#3a414a" d="M130-224c-62 0-78 43-78 106 0 64 16 108 78 108s78-45 78-108-16-106-78-106zm0 228C53 4 15-39 15-118c-1-80 37-120 115-120s115 42 115 120C245-39 207 4 130 4" id="K"/><path fill="#3a414a" d="M45-84c0 64 52 80 104 63 1 25-30 25-55 25-56 0-80-32-80-88 0-76 62-98 131-80v46h-10c-5-15-4-31-23-35-47-10-67 21-67 69" id="L"/><path fill="#3a414a" d="M124-13C89 8 26 15 26-45v-108c-8-3-24 2-21-12h50v118c-3 37 42 32 69 25v-131l-25-4v-8h54v153c8 3 24-2 21 12h-48" id="M"/><path fill="#3a414a" d="M166-85c3 67-44 102-111 85l1 64 29 4v9H6v-9l21-4v-217c-7-3-22 1-19-12h46l1 9c11-8 26-14 45-14 47 2 64 36 66 85zM56-13c53 14 83-14 78-72 7-53-33-79-78-60v132" id="N"/><path fill="#3a414a" d="M90-170c52 0 76 32 76 87 0 54-24 87-77 87-51 0-75-34-75-87 0-54 24-87 76-87zM89-10c39 0 46-35 46-73 0-39-7-73-46-73-39 1-44 34-44 73s6 72 44 73" id="O"/><path fill="#3a414a" d="M50-37c14 0 21 9 21 21S62 5 50 5C37 5 28-4 28-16s8-21 22-21zm0-132c12 0 21 9 21 21 0 13-9 22-21 22-13 0-22-9-22-22 0-12 9-21 22-21" id="P"/><g id="f"><use transform="matrix(0.09876543209876544,0,0,0.09876543209876544,0,0)" xlink:href="#K"/><use transform="matrix(0.09876543209876544,0,0,0.09876543209876544,25.58024691358025,0)" xlink:href="#L"/><use transform="matrix(0.09876543209876544,0,0,0.09876543209876544,41.283950617283956,0)" xlink:href="#L"/><use transform="matrix(0.09876543209876544,0,0,0.09876543209876544,56.98765432098766,0)" xlink:href="#M"/><use transform="matrix(0.09876543209876544,0,0,0.09876543209876544,74.76543209876544,0)" xlink:href="#N"/><use transform="matrix(0.09876543209876544,0,0,0.09876543209876544,92.54320987654322,0)" xlink:href="#C"/><use transform="matrix(0.09876543209876544,0,0,0.09876543209876544,108.24691358024693,0)" xlink:href="#E"/><use transform="matrix(0.09876543209876544,0,0,0.09876543209876544,118.12345679012347,0)" xlink:href="#y"/><use transform="matrix(0.09876543209876544,0,0,0.09876543209876544,128,0)" xlink:href="#O"/><use transform="matrix(0.09876543209876544,0,0,0.09876543209876544,145.77777777777777,0)" xlink:href="#I"/><use transform="matrix(0.09876543209876544,0,0,0.09876543209876544,163.55555555555554,0)" xlink:href="#P"/></g><path fill="#3a414a" d="M134-68c4-52-44-63-88-51H29v-117h119v27H45v75c60-10 121-2 121 64C166 3 87 15 23-4l-2-50h12c1 28 14 43 47 43 39 0 51-20 54-57" id="Q"/><path fill="#3a414a" d="M104-123c39 3 61 21 62 59C167 7 83 12 19-4l-2-50h12c2 29 16 43 51 43 38 0 54-19 54-55 2-43-34-49-75-50v-14c37 0 64-7 64-48 0-47-47-56-81-36l-6 29H24v-46c51-13 135-13 131 51-2 34-20 52-51 57" id="R"/><path fill="#3a414a" d="M24-231c66-21 156 2 128 81C132-92 78-66 39-27h121V0H16v-26l59-54c26-25 47-47 47-97 0-48-47-57-81-37l-6 29H24v-46" id="S"/><path fill="#3a414a" d="M110-14l48 5v9H32v-9l48-5v-192l-48 17v-10l69-39h9v224" id="T"/><g id="g"><use transform="matrix(0.09876543209876544,0,0,0.09876543209876544,0,0)" xlink:href="#Q"/><use transform="matrix(0.09876543209876544,0,0,0.09876543209876544,17.77777777777778,0)" xlink:href="#R"/><use transform="matrix(0.09876543209876544,0,0,0.09876543209876544,35.55555555555556,0)" xlink:href="#S"/><use transform="matrix(0.09876543209876544,0,0,0.09876543209876544,53.333333333333336,0)" xlink:href="#T"/></g><path fill="#3a414a" d="M178-68c0 79-95 82-154 59v-54h12c1 35 22 52 60 52 50 0 69-58 33-82-39-24-105-21-105-85 0-67 86-66 142-53v49h-12l-6-29c-31-27-121-7-89 42 28 43 119 24 119 101" id="U"/><path fill="#3a414a" d="M53-14c58 12 82-15 82-73 0-52-35-77-82-58v131zM89 4C64 4 42-2 24-9v-229l-24-4v-8h53l-1 94c48-33 114-4 114 69 0 57-23 91-77 91" id="V"/><path fill="#3a414a" d="M13-71v-27h94v27H13" id="W"/><g id="h"><use transform="matrix(0.09876543209876544,0,0,0.09876543209876544,0,0)" xlink:href="#U"/><use transform="matrix(0.09876543209876544,0,0,0.09876543209876544,19.75308641975309,0)" xlink:href="#M"/><use transform="matrix(0.09876543209876544,0,0,0.09876543209876544,37.53086419753087,0)" xlink:href="#V"/><use transform="matrix(0.09876543209876544,0,0,0.09876543209876544,55.308641975308646,0)" xlink:href="#W"/><use transform="matrix(0.09876543209876544,0,0,0.09876543209876544,67.06172839506173,0)" xlink:href="#K"/><use transform="matrix(0.09876543209876544,0,0,0.09876543209876544,92.64197530864199,0)" xlink:href="#L"/><use transform="matrix(0.09876543209876544,0,0,0.09876543209876544,108.34567901234568,0)" xlink:href="#L"/><use transform="matrix(0.09876543209876544,0,0,0.09876543209876544,124.04938271604942,0)" xlink:href="#M"/><use transform="matrix(0.09876543209876544,0,0,0.09876543209876544,141.8271604938272,0)" xlink:href="#N"/><use transform="matrix(0.09876543209876544,0,0,0.09876543209876544,159.60493827160496,0)" xlink:href="#C"/><use transform="matrix(0.09876543209876544,0,0,0.09876543209876544,175.30864197530866,0)" xlink:href="#E"/><use transform="matrix(0.09876543209876544,0,0,0.09876543209876544,185.18518518518522,0)" xlink:href="#y"/><use transform="matrix(0.09876543209876544,0,0,0.09876543209876544,195.06172839506178,0)" xlink:href="#O"/><use transform="matrix(0.09876543209876544,0,0,0.09876543209876544,212.83950617283958,0)" xlink:href="#I"/></g><path fill="#3a414a" d="M75-131c50 2 93 3 93-48 0-46-48-41-93-41v89zm0 115c55 4 111 6 111-51 0-53-58-48-111-48v99zm148-52C223 24 102-3 10 0v-9l31-5v-208l-31-4v-10c77 6 193-24 194 56 0 33-20 48-48 54 36 5 67 20 67 58" id="X"/><path fill="#3a414a" d="M60-80l68-73c-7-3-20 0-17-12h58c3 13-13 9-20 12l-47 48 60 93c7 3 21-1 18 12h-68c-3-12 9-9 15-12L82-83 60-60v48c7 3 21-1 18 12H10v-8l21-4v-226l-24-4v-8h53v170" id="Y"/><path fill="#3a414a" d="M240-154L185 4h-14l-41-109L90 4H77L20-153c-7-3-23 1-20-12h79v8l-27 4L91-41l40-108h14l40 109 38-113-28-4v-8h63v8" id="Z"/><g id="i"><use transform="matrix(0.09876543209876544,0,0,0.09876543209876544,0,0)" xlink:href="#X"/><use transform="matrix(0.09876543209876544,0,0,0.09876543209876544,23.703703703703706,0)" xlink:href="#D"/><use transform="matrix(0.09876543209876544,0,0,0.09876543209876544,35.45679012345679,0)" xlink:href="#z"/><use transform="matrix(0.09876543209876544,0,0,0.09876543209876544,51.1604938271605,0)" xlink:href="#C"/><use transform="matrix(0.09876543209876544,0,0,0.09876543209876544,66.8641975308642,0)" xlink:href="#Y"/><use transform="matrix(0.09876543209876544,0,0,0.09876543209876544,84.64197530864197,0)" xlink:href="#J"/><use transform="matrix(0.09876543209876544,0,0,0.09876543209876544,102.41975308641975,0)" xlink:href="#O"/><use transform="matrix(0.09876543209876544,0,0,0.09876543209876544,120.19753086419752,0)" xlink:href="#Z"/><use transform="matrix(0.09876543209876544,0,0,0.09876543209876544,145.77777777777777,0)" xlink:href="#I"/></g><g id="j"><use transform="matrix(0.09876543209876544,0,0,0.09876543209876544,0,0)" xlink:href="#F"/><use transform="matrix(0.09876543209876544,0,0,0.09876543209876544,25.58024691358025,0)" xlink:href="#G"/><use transform="matrix(0.09876543209876544,0,0,0.09876543209876544,39.40740740740741,0)" xlink:href="#z"/><use transform="matrix(0.09876543209876544,0,0,0.09876543209876544,55.111111111111114,0)" xlink:href="#D"/></g><path fill="#3a414a" d="M111-226l-36 4v207c33-1 73 2 101-4l11-49h11l-3 68H10v-9l31-5v-208l-31-4v-10h101v10" id="aa"/><g id="k"><use transform="matrix(0.09876543209876544,0,0,0.09876543209876544,0,0)" xlink:href="#aa"/><use transform="matrix(0.09876543209876544,0,0,0.09876543209876544,21.62962962962963,0)" xlink:href="#O"/><use transform="matrix(0.09876543209876544,0,0,0.09876543209876544,39.407407407407405,0)" xlink:href="#L"/><use transform="matrix(0.09876543209876544,0,0,0.09876543209876544,55.11111111111111,0)" xlink:href="#C"/><use transform="matrix(0.09876543209876544,0,0,0.09876543209876544,70.81481481481481,0)" xlink:href="#E"/><use transform="matrix(0.09876543209876544,0,0,0.09876543209876544,80.69135802469135,0)" xlink:href="#y"/><use transform="matrix(0.09876543209876544,0,0,0.09876543209876544,90.5679012345679,0)" xlink:href="#O"/><use transform="matrix(0.09876543209876544,0,0,0.09876543209876544,108.34567901234567,0)" xlink:href="#I"/><use transform="matrix(0.09876543209876544,0,0,0.09876543209876544,126.12345679012344,0)" xlink:href="#G"/></g><path fill="#3a414a" d="M76-116c0 86 71 126 135 84l6-39h16l-1 60C138 21 18 1 18-115c0-117 106-141 210-112l1 57h-16l-5-34c-13-9-32-16-54-16-60 0-78 42-78 104" id="ab"/><path fill="#3a414a" d="M77-16l18 4V0H8v-12l18-4v-133l-17-5v-11h68v149zM51-196c-16 0-27-10-27-27s10-27 27-27 27 11 27 27c0 17-10 27-27 27" id="ac"/><path fill="#3a414a" d="M78-41c-2 24 21 26 40 20C122 3 98 2 77 4 5 10 32-84 27-147H6v-11l25-7 21-38h26v38h35v18H78v106" id="ad"/><path fill="#3a414a" d="M7 0v-8l76-141c-18 1-39-3-50 6l-6 27H14v-49h129v8L67-16c24 0 48 1 63-8l9-38h13l-5 62H7" id="ae"/><path fill="#3a414a" d="M12-83c0-55 22-85 75-86 52-1 66 33 63 88H64c-1 37 6 64 44 63 14 0 28-4 39-6 3 28-28 25-55 27-57 4-80-31-80-86zm90-17c2-26 0-63-27-48-10 9-11 28-11 48h38" id="af"/><path fill="#3a414a" d="M127-114c3-31-26-38-50-25v123l15 4V0H10v-12l16-4v-133l-16-5v-11h64l2 14c31-23 102-32 102 30v105l17 4V0h-82v-12l14-4v-98" id="ag"/><g id="l"><use transform="matrix(0.1111111111111111,0,0,0.1111111111111111,0,0)" xlink:href="#ab"/><use transform="matrix(0.1111111111111111,0,0,0.1111111111111111,28.777777777777775,0)" xlink:href="#ac"/><use transform="matrix(0.1111111111111111,0,0,0.1111111111111111,39.888888888888886,0)" xlink:href="#ad"/><use transform="matrix(0.1111111111111111,0,0,0.1111111111111111,53.11111111111111,0)" xlink:href="#ac"/><use transform="matrix(0.1111111111111111,0,0,0.1111111111111111,64.22222222222221,0)" xlink:href="#ae"/><use transform="matrix(0.1111111111111111,0,0,0.1111111111111111,81.88888888888889,0)" xlink:href="#af"/><use transform="matrix(0.1111111111111111,0,0,0.1111111111111111,99.55555555555554,0)" xlink:href="#ag"/></g><path fill="#3a414a" d="M37-24c18 20 51 5 51-25v-169l-30-5v-13h112v13l-27 5v142C147-5 82 15 16-2v-53h16" id="ah"/><path fill="#3a414a" d="M90-170c54-1 76 32 76 87 1 56-23 87-77 87-53 0-75-32-75-87s23-86 76-87zM89-14c28-2 26-38 26-69s3-69-26-69c-27 0-24 39-24 69s-3 66 24 69" id="ai"/><path fill="#3a414a" d="M72-18c49 15 64-22 62-69-1-34-4-62-34-63-10-1-23 2-28 6v126zm33 22C77 4 48-3 21-8v-226l-16-4v-12h67c-1 31 2 66-2 94 11-8 28-14 47-14 51 0 70 31 69 83-1 55-26 91-81 91" id="aj"/><g id="m"><use transform="matrix(0.1111111111111111,0,0,0.1111111111111111,0,0)" xlink:href="#ah"/><use transform="matrix(0.1111111111111111,0,0,0.1111111111111111,20,0)" xlink:href="#ai"/><use transform="matrix(0.1111111111111111,0,0,0.1111111111111111,40,0)" xlink:href="#aj"/></g><path fill="#3a414a" d="M76-115c0 75 46 117 116 94v-68l-30-5v-13h108v13l-23 5v77C218-3 181 4 145 4 67 4 18-36 18-115c0-83 46-123 130-123 37-1 66 6 91 15v54h-15c2-41-32-51-70-51-60 0-78 41-78 105" id="ak"/><path fill="#3a414a" d="M31-163c51-5 127-20 127 40v107l17 4V0h-61l-4-13C82 13 12 12 12-46c0-51 46-52 95-53 9-45-22-69-57-44l-7 20H31v-40zM62-47c0 30 26 34 45 23v-59c-28 0-45 6-45 36" id="al"/><path fill="#3a414a" d="M76-16l18 4V0H7v-12l18-4v-218l-17-4v-12h68v234" id="am"/><path fill="#3a414a" d="M102-142c-14-17-68-15-54 18 24 26 83 17 83 72 0 62-72 62-120 47v-45h12c4 23 16 37 43 37 35 0 39-37 9-46-31-9-65-19-64-61 0-52 59-55 108-45v43h-11" id="an"/><g id="n"><use transform="matrix(0.1111111111111111,0,0,0.1111111111111111,0,0)" xlink:href="#ak"/><use transform="matrix(0.1111111111111111,0,0,0.1111111111111111,31.11111111111111,0)" xlink:href="#ai"/><use transform="matrix(0.1111111111111111,0,0,0.1111111111111111,51.111111111111114,0)" xlink:href="#al"/><use transform="matrix(0.1111111111111111,0,0,0.1111111111111111,71.11111111111111,0)" xlink:href="#am"/><use transform="matrix(0.1111111111111111,0,0,0.1111111111111111,82.22222222222223,0)" xlink:href="#an"/></g><path fill="#3a414a" d="M222-170c0 37-18 56-47 65l63 87 25 5V0h-76l-66-100H92v82l30 5V0H8v-13l28-5v-200l-30-5v-13c89 5 214-24 216 66zM92-119c45 2 75-3 75-50s-30-49-75-47v97" id="ao"/><path fill="#3a414a" d="M186-86c2 69-46 103-114 85l1 62 25 4v12H5V65l18-4v-210l-18-5v-11h67v8c12-8 26-13 46-13 49 2 67 30 68 84zm-83 71c28 0 31-33 31-69 0-34-2-66-30-66-12 0-23 3-31 7v124c9 2 20 4 30 4" id="ap"/><path fill="#3a414a" d="M132-132c-21 0-37 9-50 16v100l26 4V0H10v-12l21-4v-133l-21-5v-11h69l2 34c17-18 35-41 71-40v61c-17 3-14-14-20-22" id="aq"/><g id="o"><use transform="matrix(0.1111111111111111,0,0,0.1111111111111111,0,0)" xlink:href="#ao"/><use transform="matrix(0.1111111111111111,0,0,0.1111111111111111,28.777777777777775,0)" xlink:href="#af"/><use transform="matrix(0.1111111111111111,0,0,0.1111111111111111,46.44444444444444,0)" xlink:href="#ap"/><use transform="matrix(0.1111111111111111,0,0,0.1111111111111111,68.66666666666666,0)" xlink:href="#ai"/><use transform="matrix(0.1111111111111111,0,0,0.1111111111111111,88.66666666666666,0)" xlink:href="#aq"/><use transform="matrix(0.1111111111111111,0,0,0.1111111111111111,106.33333333333331,0)" xlink:href="#ad"/></g><g id="p"><use transform="matrix(0.09876543209876544,0,0,0.09876543209876544,0,0)" xlink:href="#A"/><use transform="matrix(0.09876543209876544,0,0,0.09876543209876544,23.703703703703706,0)" xlink:href="#M"/><use transform="matrix(0.09876543209876544,0,0,0.09876543209876544,41.48148148148148,0)" xlink:href="#D"/><use transform="matrix(0.09876543209876544,0,0,0.09876543209876544,53.23456790123457,0)" xlink:href="#D"/><use transform="matrix(0.09876543209876544,0,0,0.09876543209876544,64.98765432098766,0)" xlink:href="#z"/><use transform="matrix(0.09876543209876544,0,0,0.09876543209876544,80.69135802469137,0)" xlink:href="#I"/><use transform="matrix(0.09876543209876544,0,0,0.09876543209876544,98.46913580246914,0)" xlink:href="#E"/></g><g id="q"><use transform="matrix(0.09876543209876544,0,0,0.09876543209876544,0,0)" xlink:href="#K"/><use transform="matrix(0.09876543209876544,0,0,0.09876543209876544,25.58024691358025,0)" xlink:href="#L"/><use transform="matrix(0.09876543209876544,0,0,0.09876543209876544,41.283950617283956,0)" xlink:href="#L"/><use transform="matrix(0.09876543209876544,0,0,0.09876543209876544,56.98765432098766,0)" xlink:href="#M"/><use transform="matrix(0.09876543209876544,0,0,0.09876543209876544,74.76543209876544,0)" xlink:href="#N"/><use transform="matrix(0.09876543209876544,0,0,0.09876543209876544,92.54320987654322,0)" xlink:href="#C"/><use transform="matrix(0.09876543209876544,0,0,0.09876543209876544,108.24691358024693,0)" xlink:href="#E"/><use transform="matrix(0.09876543209876544,0,0,0.09876543209876544,118.12345679012347,0)" xlink:href="#y"/><use transform="matrix(0.09876543209876544,0,0,0.09876543209876544,128,0)" xlink:href="#O"/><use transform="matrix(0.09876543209876544,0,0,0.09876543209876544,145.77777777777777,0)" xlink:href="#I"/></g><path fill="#3a414a" d="M164-154L98 4H85L17-153c-7-3-20 0-17-12h77v8l-26 4L99-38l46-115-26-4v-8h61v8" id="ar"/><g id="r"><use transform="matrix(0.09876543209876544,0,0,0.09876543209876544,0,0)" xlink:href="#ar"/><use transform="matrix(0.09876543209876544,0,0,0.09876543209876544,17.77777777777778,0)" xlink:href="#G"/></g><path fill="#3a414a" d="M52-115c0 90 69 126 140 93v-67l-30-5v-9h87v9l-23 5v77c-27 8-56 16-90 16C59 2 15-37 15-115c-1-82 41-123 122-123 31 0 59 4 83 10v51h-12l-5-29c-15-12-38-18-65-18-66-1-86 42-86 109" id="as"/><path fill="#3a414a" d="M65-12l28 4v8H7v-8l28-4v-226l-28-4v-8h58v238" id="at"/><g id="s"><use transform="matrix(0.09876543209876544,0,0,0.09876543209876544,0,0)" xlink:href="#as"/><use transform="matrix(0.09876543209876544,0,0,0.09876543209876544,25.58024691358025,0)" xlink:href="#O"/><use transform="matrix(0.09876543209876544,0,0,0.09876543209876544,43.358024691358025,0)" xlink:href="#C"/><use transform="matrix(0.09876543209876544,0,0,0.09876543209876544,59.06172839506172,0)" xlink:href="#at"/></g><path fill="#3a414a" d="M10 0v-9l31-5v-208l-31-4v-10h95v10l-30 4v93h110v-93l-30-4v-10h94v10l-30 4v208l30 5v9h-94v-9l30-5v-99H75v99l30 5v9H10" id="au"/><path fill="#3a414a" d="M126-118c4-37-42-32-68-25v131l24 4v8H8C5-13 21-9 28-12v-141c-7-3-23 1-20-12h48l1 13c22-15 77-30 92 2 32-22 104-36 104 29v109c8 3 24-2 21 12h-75v-8l25-4v-106c3-39-45-31-72-24 7 37 1 88 3 130l25 4v8h-78v-8l24-4v-106" id="av"/><g id="t"><use transform="matrix(0.09876543209876544,0,0,0.09876543209876544,0,0)" xlink:href="#au"/><use transform="matrix(0.09876543209876544,0,0,0.09876543209876544,25.58024691358025,0)" xlink:href="#z"/><use transform="matrix(0.09876543209876544,0,0,0.09876543209876544,41.283950617283956,0)" xlink:href="#C"/><use transform="matrix(0.09876543209876544,0,0,0.09876543209876544,56.98765432098766,0)" xlink:href="#E"/><use transform="matrix(0.09876543209876544,0,0,0.09876543209876544,66.8641975308642,0)" xlink:href="#av"/><use transform="matrix(0.09876543209876544,0,0,0.09876543209876544,94.51851851851853,0)" xlink:href="#C"/><use transform="matrix(0.09876543209876544,0,0,0.09876543209876544,110.22222222222223,0)" xlink:href="#N"/></g><path fill="#3a414a" d="M75-17c87 13 134-18 134-103 0-78-51-106-134-100v203zm171-102C246 5 139 7 10 0v-9l31-5v-208l-31-4v-10h107c82 0 129 35 129 117" id="aw"/><g id="u"><use transform="matrix(0.06172839506172839,0,0,0.06172839506172839,0,0)" xlink:href="#aw"/><use transform="matrix(0.06172839506172839,0,0,0.06172839506172839,15.987654320987653,0)" xlink:href="#O"/><use transform="matrix(0.06172839506172839,0,0,0.06172839506172839,27.098765432098766,0)" xlink:href="#Z"/><use transform="matrix(0.06172839506172839,0,0,0.06172839506172839,43.08641975308642,0)" xlink:href="#I"/><use transform="matrix(0.06172839506172839,0,0,0.06172839506172839,54.19753086419753,0)" xlink:href="#at"/><use transform="matrix(0.06172839506172839,0,0,0.06172839506172839,60.370370370370374,0)" xlink:href="#O"/><use transform="matrix(0.06172839506172839,0,0,0.06172839506172839,71.48148148148148,0)" xlink:href="#C"/><use transform="matrix(0.06172839506172839,0,0,0.06172839506172839,81.29629629629629,0)" xlink:href="#J"/></g><g id="v"><use transform="matrix(0.06172839506172839,0,0,0.06172839506172839,0,0)" xlink:href="#aw"/><use transform="matrix(0.06172839506172839,0,0,0.06172839506172839,15.987654320987653,0)" xlink:href="#C"/><use transform="matrix(0.06172839506172839,0,0,0.06172839506172839,25.80246913580247,0)" xlink:href="#E"/><use transform="matrix(0.06172839506172839,0,0,0.06172839506172839,31.975308641975307,0)" xlink:href="#C"/></g><g id="w"><use transform="matrix(0.06172839506172839,0,0,0.06172839506172839,0,0)" xlink:href="#X"/><use transform="matrix(0.06172839506172839,0,0,0.06172839506172839,14.814814814814813,0)" xlink:href="#C"/><use transform="matrix(0.06172839506172839,0,0,0.06172839506172839,24.629629629629626,0)" xlink:href="#L"/><use transform="matrix(0.06172839506172839,0,0,0.06172839506172839,34.44444444444444,0)" xlink:href="#Y"/></g></defs></g></svg>