<svg xmlns="http://www.w3.org/2000/svg" xmlns:xlink="http://www.w3.org/1999/xlink" xmlns:lucid="lucid" width="766" height="640.71"><g transform="translate(-820.086454627622 -590.4699016698783)" lucid:page-tab-id="0_0"><path d="M500 500h1500v1000H500z" fill="#fff"/><path d="M843.1 619.47a6 6 0 0 1 6-6h708a6 6 0 0 1 6 6v582.7a6 6 0 0 1-6 6h-708a6 6 0 0 1-6-6z" stroke="#282c33" stroke-width="2" fill="#fff"/><path d="M843.1 619.47a6 6 0 0 1 6-6h708a6 6 0 0 1 6 6v48a6 6 0 0 1-6 6h-708a6 6 0 0 1-6-6z" stroke="#282c33" stroke-width="2" fill="#bfbfbf"/><path d="M1035.1 643.47a6 6 0 0 1 6-6h504a6 6 0 0 1 6 6v12a6 6 0 0 1-6 6h-504a6 6 0 0 1-6-6z" stroke="#282c33" stroke-width="2" fill="#fff"/><path d="M867.1 637.47l-12 12 12 12m-12-12h24M915.1 637.47l12 12-12 12m-12-12h24M975.1 649.47c-1.42-6.23-2.82-8.15-4.96-9.7-5.36-3.9-12.87-2.72-16.76 2.65-3.9 5.36-2.7 12.86 2.65 16.76 5.37 3.9 12.87 2.7 16.76-2.66" stroke="#282c33" stroke-width="6" fill="none"/><path d="M978.2 637.47v12h-12z" stroke="#282c33" stroke-width="1.5" fill="#282c33"/><path d="M999.1 649.47l12-12 12 12h-2.4v12h-6v-12h-7.2v12h-6v-12z" stroke="#282c33" fill="#282c33"/><use xlink:href="#a" transform="matrix(1,0,0,1,863.086454627622,613.4699016698783) translate(319.4753086419753 17.77777777777778)"/><use xlink:href="#b" transform="matrix(1,0,0,1,1041.086454627622,637.4699016698783) translate(0 17.77777777777778)"/><path d="M884.96 774.47a6 6 0 0 1 6-6h628.6a6 6 0 0 1 6 6v68a6 6 0 0 1-6 6h-628.6a6 6 0 0 1-6-6z" stroke="#282c33" stroke-width="2" fill="#fff"/><use xlink:href="#c" transform="matrix(1,0,0,1,889.9614546276223,773.4699016698783) translate(0 39.65277777777778)"/><use xlink:href="#d" transform="matrix(1,0,0,1,889.9614546276223,773.4699016698783) translate(46.23456790123457 39.65277777777778)"/><use xlink:href="#e" transform="matrix(1,0,0,1,889.9614546276223,773.4699016698783) translate(95.74074074074073 39.65277777777778)"/><use xlink:href="#f" transform="matrix(1,0,0,1,889.9614546276223,773.4699016698783) translate(178.33333333333331 39.65277777777778)"/><path d="M1491.06 833.4a1.73 1.73 0 0 1-3.2-.93v-48a1.73 1.73 0 0 1 3.2-.92l12.46 19.84a9.55 9.55 0 0 1 0 10.15zM884.37 883.22a6 6 0 0 1 6-6h628.6a6 6 0 0 1 6 6v68a6 6 0 0 1-6 6h-628.6a6 6 0 0 1-6-6z" stroke="#282c33" stroke-width="2" fill="#fff"/><use xlink:href="#g" transform="matrix(1,0,0,1,889.3732193335043,882.2199016698783) translate(0 39.65277777777778)"/><use xlink:href="#h" transform="matrix(1,0,0,1,889.3732193335043,882.2199016698783) translate(80.30864197530863 39.65277777777778)"/><path d="M1490.47 942.14a1.73 1.73 0 0 1-3.2-.92v-48a1.73 1.73 0 0 1 3.2-.92l12.46 19.84a9.55 9.55 0 0 1 0 10.16zM1225.7 695.97c-6.62 0-12 5.37-12 12v16c0 6.63 5.38 12 12 12h136c6.64 0 12-5.37 12-12v-16c0-6.63-5.36-12-12-12z" stroke="#282c33" stroke-width="2" fill="#fff"/><use xlink:href="#i" transform="matrix(1,0,0,1,1223.711454627622,699.9699016698783) translate(39.84567901234568 20.444444444444443)"/><path d="M1385.7 695.97c-6.62 0-12 5.37-12 12v16c0 6.63 5.38 12 12 12h136c6.64 0 12-5.37 12-12v-16c0-6.63-5.36-12-12-12z" stroke="#282c33" stroke-width="2" fill="#fff"/><use xlink:href="#j" transform="matrix(1,0,0,1,1383.711454627622,699.9699016698783) translate(30.21604938271605 20.444444444444443)"/><use xlink:href="#k" transform="matrix(1,0,0,1,1383.711454627622,699.9699016698783) translate(76.51234567901236 20.444444444444443)"/><path d="M884.96 994.47a6 6 0 0 1 6-6h628.6a6 6 0 0 1 6 6v68a6 6 0 0 1-6 6h-628.6a6 6 0 0 1-6-6z" stroke="#282c33" stroke-width="2" fill="#fff"/><use xlink:href="#l" transform="matrix(1,0,0,1,889.9614546276223,993.4699016698783) translate(0 39.65277777777778)"/><use xlink:href="#m" transform="matrix(1,0,0,1,889.9614546276223,993.4699016698783) translate(101.7283950617284 39.65277777777778)"/><use xlink:href="#n" transform="matrix(1,0,0,1,889.9614546276223,993.4699016698783) translate(173.7037037037037 39.65277777777778)"/><g><path d="M1491.06 1053.4a1.73 1.73 0 0 1-3.2-.93v-48a1.73 1.73 0 0 1 3.2-.92l12.46 19.84a9.55 9.55 0 0 1 0 10.15z" stroke="#282c33" stroke-width="2" fill="#fff"/></g><path d="M885 1095.9a6 6 0 0 1 6-6h628.6a6 6 0 0 1 6 6v68a6 6 0 0 1-6 6H891a6 6 0 0 1-6-6z" stroke="#282c33" stroke-width="2" fill="#fff"/><g><use xlink:href="#o" transform="matrix(1,0,0,1,889.9982193335042,1094.8865683365452) translate(0 39.65277777777778)"/><use xlink:href="#p" transform="matrix(1,0,0,1,889.9982193335042,1094.8865683365452) translate(64.50617283950616 39.65277777777778)"/><use xlink:href="#q" transform="matrix(1,0,0,1,889.9982193335042,1094.8865683365452) translate(99.62962962962962 39.65277777777778)"/></g><g><path d="M1491.1 1154.8a1.73 1.73 0 0 1-3.2-.9v-48a1.73 1.73 0 0 1 3.2-.93l12.45 19.84a9.55 9.55 0 0 1 0 10.17z" stroke="#282c33" stroke-width="2" fill="#fff"/></g><defs><path fill="#3a414a" d="M55 0v-9l38-5v-207c-22 1-53 0-70 4l-5 37H7v-56h207v56h-12l-5-37-70-3v206l37 5v9H55" id="r"/><path fill="#3a414a" d="M47-200c-23 0-25-39 0-38 13 0 18 7 20 19-1 11-8 19-20 19zM65-12l28 4v8H8v-8l28-4v-141l-24-4v-8h53v153" id="s"/><path fill="#3a414a" d="M54-38c-1 25 24 26 44 20v12C71 10 25 9 25-35v-115H4c-2-14 14-10 21-15l18-38h11v38h38v15H54v112" id="t"/><path fill="#3a414a" d="M65-12l28 4v8H7v-8l28-4v-226l-28-4v-8h58v238" id="u"/><path fill="#3a414a" d="M84-170c49 0 66 33 63 87H46c-8 60 38 80 95 63v10C128-2 108 4 88 4 34 4 14-29 14-84c-1-54 22-86 70-86zm33 73c12-57-57-82-69-24-1 7-2 15-2 24h71" id="v"/><g id="a"><use transform="matrix(0.06172839506172839,0,0,0.06172839506172839,0,0)" xlink:href="#r"/><use transform="matrix(0.06172839506172839,0,0,0.06172839506172839,12.716049382716047,0)" xlink:href="#s"/><use transform="matrix(0.06172839506172839,0,0,0.06172839506172839,18.888888888888886,0)" xlink:href="#t"/><use transform="matrix(0.06172839506172839,0,0,0.06172839506172839,25.061728395061724,0)" xlink:href="#u"/><use transform="matrix(0.06172839506172839,0,0,0.06172839506172839,31.234567901234563,0)" xlink:href="#v"/></g><path fill="#3a414a" d="M126-119c3-38-42-31-69-25v132l23 4v8H7v-8l21-4v-226l-24-4v-8h53l-1 98c31-22 99-31 99 31v109c7 3 23-1 20 12h-71v-8l22-4v-107" id="w"/><path fill="#3a414a" d="M166-85c3 67-44 102-111 85l1 64 29 4v9H6v-9l21-4v-217c-7-3-22 1-19-12h46l1 9c11-8 26-14 45-14 47 2 64 36 66 85zM56-13c53 14 83-14 78-72 7-53-33-79-78-60v132" id="x"/><path fill="#3a414a" d="M50-37c14 0 21 9 21 21S62 5 50 5C37 5 28-4 28-16s8-21 22-21zm0-132c12 0 21 9 21 21 0 13-9 22-21 22-13 0-22-9-22-22 0-12 9-21 22-21" id="y"/><path fill="#3a414a" d="M18 4H0l83-241h17" id="z"/><path fill="#3a414a" d="M124-13C89 8 26 15 26-45v-108c-8-3-24 2-21-12h50v118c-3 37 42 32 69 25v-131l-25-4v-8h54v153c8 3 24-2 21 12h-48" id="A"/><path fill="#3a414a" d="M45-84c0 64 52 80 104 63 1 25-30 25-55 25-56 0-80-32-80-88 0-76 62-98 131-80v46h-10c-5-15-4-31-23-35-47-10-67 21-67 69" id="B"/><path fill="#3a414a" d="M13-81c0-71 46-101 114-85l-1-72-28-4v-8h57v238c8 3 24-2 21 12h-47l-2-12C80 23 13-1 13-81zm77-74c-37 1-44 33-45 74 0 38 9 66 45 66 14 0 27-3 36-7v-130c-10-1-24-3-36-3" id="C"/><path fill="#3a414a" d="M32-163c41-10 102-14 102 39v112c8 3 24-2 21 12h-45l-4-17C83 13 3 13 13-46c-2-50 45-50 92-51 4-36-5-70-42-56-6 2-12 4-16 6-4 7 0 23-15 20v-36zM42-47c0 41 41 33 63 22v-59c-34 1-63-1-63 37" id="D"/><path fill="#3a414a" d="M57-145c16-10 35-24 60-25v45c-19 1-8-30-40-17l-20 6v124l29 4v8H7v-8l21-4v-141c-8-3-24 2-21-12h48" id="E"/><path fill="#3a414a" d="M45-37c13 0 21 8 21 21C67-2 57 4 45 5 33 4 23-2 24-16c0-13 8-21 21-21" id="F"/><path fill="#3a414a" d="M90-170c52 0 76 32 76 87 0 54-24 87-77 87-51 0-75-34-75-87 0-54 24-87 76-87zM89-10c39 0 46-35 46-73 0-39-7-73-46-73-39 1-44 34-44 73s6 72 44 73" id="G"/><path fill="#3a414a" d="M126-118c4-37-42-32-68-25v131l24 4v8H8C5-13 21-9 28-12v-141c-7-3-23 1-20-12h48l1 13c22-15 77-30 92 2 32-22 104-36 104 29v109c8 3 24-2 21 12h-75v-8l25-4v-106c3-39-45-31-72-24 7 37 1 88 3 130l25 4v8h-78v-8l24-4v-106" id="H"/><g id="b"><use transform="matrix(0.06172839506172839,0,0,0.06172839506172839,0,0)" xlink:href="#w"/><use transform="matrix(0.06172839506172839,0,0,0.06172839506172839,11.11111111111111,0)" xlink:href="#t"/><use transform="matrix(0.06172839506172839,0,0,0.06172839506172839,17.28395061728395,0)" xlink:href="#t"/><use transform="matrix(0.06172839506172839,0,0,0.06172839506172839,23.456790123456788,0)" xlink:href="#x"/><use transform="matrix(0.06172839506172839,0,0,0.06172839506172839,34.5679012345679,0)" xlink:href="#y"/><use transform="matrix(0.06172839506172839,0,0,0.06172839506172839,40.74074074074074,0)" xlink:href="#z"/><use transform="matrix(0.06172839506172839,0,0,0.06172839506172839,46.91358024691358,0)" xlink:href="#z"/><use transform="matrix(0.06172839506172839,0,0,0.06172839506172839,53.086419753086425,0)" xlink:href="#u"/><use transform="matrix(0.06172839506172839,0,0,0.06172839506172839,59.25925925925927,0)" xlink:href="#A"/><use transform="matrix(0.06172839506172839,0,0,0.06172839506172839,70.37037037037038,0)" xlink:href="#B"/><use transform="matrix(0.06172839506172839,0,0,0.06172839506172839,80.18518518518519,0)" xlink:href="#s"/><use transform="matrix(0.06172839506172839,0,0,0.06172839506172839,86.35802469135803,0)" xlink:href="#C"/><use transform="matrix(0.06172839506172839,0,0,0.06172839506172839,97.46913580246914,0)" xlink:href="#B"/><use transform="matrix(0.06172839506172839,0,0,0.06172839506172839,107.28395061728395,0)" xlink:href="#w"/><use transform="matrix(0.06172839506172839,0,0,0.06172839506172839,118.39506172839506,0)" xlink:href="#D"/><use transform="matrix(0.06172839506172839,0,0,0.06172839506172839,128.20987654320987,0)" xlink:href="#E"/><use transform="matrix(0.06172839506172839,0,0,0.06172839506172839,135.55555555555554,0)" xlink:href="#t"/><use transform="matrix(0.06172839506172839,0,0,0.06172839506172839,141.72839506172838,0)" xlink:href="#F"/><use transform="matrix(0.06172839506172839,0,0,0.06172839506172839,147.28395061728392,0)" xlink:href="#B"/><use transform="matrix(0.06172839506172839,0,0,0.06172839506172839,157.09876543209873,0)" xlink:href="#G"/><use transform="matrix(0.06172839506172839,0,0,0.06172839506172839,168.20987654320984,0)" xlink:href="#H"/></g><path fill="#3a414a" d="M6-13l30-5v-200l-30-5v-13h201v60h-16l-6-38-93-2v86h61l6-26h16v73h-16l-6-27H92v91l104-3 10-44h16l-4 66H6v-13" id="I"/><path fill="#3a414a" d="M15-82c-4-69 47-101 113-83l-1-69-17-4v-12h68v234l18 4V0h-63l-4-9C77 23 5-9 15-82zm112-66c-43-16-64 17-61 65 2 33 3 67 32 67 12 0 22-3 29-8v-124" id="J"/><path fill="#3a414a" d="M77-16l18 4V0H8v-12l18-4v-133l-17-5v-11h68v149zM51-196c-16 0-27-10-27-27s10-27 27-27 27 11 27 27c0 17-10 27-27 27" id="K"/><path fill="#3a414a" d="M78-41c-2 24 21 26 40 20C122 3 98 2 77 4 5 10 32-84 27-147H6v-11l25-7 21-38h26v38h35v18H78v106" id="L"/><g id="c"><use transform="matrix(0.06172839506172839,0,0,0.06172839506172839,0,0)" xlink:href="#I"/><use transform="matrix(0.06172839506172839,0,0,0.06172839506172839,14.814814814814813,0)" xlink:href="#J"/><use transform="matrix(0.06172839506172839,0,0,0.06172839506172839,27.160493827160494,0)" xlink:href="#K"/><use transform="matrix(0.06172839506172839,0,0,0.06172839506172839,33.333333333333336,0)" xlink:href="#L"/></g><path fill="#3a414a" d="M81 5L15-149c-7-2-13-5-11-16h84v11l-20 5 39 91 35-91-19-5v-11h53c2 11-4 13-11 15C134-81 111-5 75 58 65 77 34 83 8 74V32h11c0 24 29 35 43 12 7-11 13-25 19-39" id="M"/><path fill="#3a414a" d="M90-170c54-1 76 32 76 87 1 56-23 87-77 87-53 0-75-32-75-87s23-86 76-87zM89-14c28-2 26-38 26-69s3-69-26-69c-27 0-24 39-24 69s-3 66 24 69" id="N"/><path fill="#3a414a" d="M73-51c-3 31 27 38 51 25v-123l-16-5v-11h66v149l17 4V0h-65l-2-14C94 9 22 18 22-44v-105l-17-5v-11h68v114" id="O"/><path fill="#3a414a" d="M132-132c-21 0-37 9-50 16v100l26 4V0H10v-12l21-4v-133l-21-5v-11h69l2 34c17-18 35-41 71-40v61c-17 3-14-14-20-22" id="P"/><g id="d"><use transform="matrix(0.06172839506172839,0,0,0.06172839506172839,0,0)" xlink:href="#M"/><use transform="matrix(0.06172839506172839,0,0,0.06172839506172839,11.11111111111111,0)" xlink:href="#N"/><use transform="matrix(0.06172839506172839,0,0,0.06172839506172839,22.22222222222222,0)" xlink:href="#O"/><use transform="matrix(0.06172839506172839,0,0,0.06172839506172839,34.5679012345679,0)" xlink:href="#P"/></g><path fill="#3a414a" d="M76-116c0 86 71 126 135 84l6-39h16l-1 60C138 21 18 1 18-115c0-117 106-141 210-112l1 57h-16l-5-34c-13-9-32-16-54-16-60 0-78 42-78 104" id="Q"/><path fill="#3a414a" d="M12-83c0-55 22-85 75-86 52-1 66 33 63 88H64c-1 37 6 64 44 63 14 0 28-4 39-6 3 28-28 25-55 27-57 4-80-31-80-86zm90-17c2-26 0-63-27-48-10 9-11 28-11 48h38" id="R"/><path fill="#3a414a" d="M127-114c3-31-26-38-50-25v123l15 4V0H10v-12l16-4v-133l-16-5v-11h64l2 14c31-23 102-32 102 30v105l17 4V0h-82v-12l14-4v-98" id="S"/><g id="e"><use transform="matrix(0.06172839506172839,0,0,0.06172839506172839,0,0)" xlink:href="#Q"/><use transform="matrix(0.06172839506172839,0,0,0.06172839506172839,15.987654320987653,0)" xlink:href="#O"/><use transform="matrix(0.06172839506172839,0,0,0.06172839506172839,28.333333333333332,0)" xlink:href="#P"/><use transform="matrix(0.06172839506172839,0,0,0.06172839506172839,38.148148148148145,0)" xlink:href="#P"/><use transform="matrix(0.06172839506172839,0,0,0.06172839506172839,47.53086419753086,0)" xlink:href="#R"/><use transform="matrix(0.06172839506172839,0,0,0.06172839506172839,57.34567901234568,0)" xlink:href="#S"/><use transform="matrix(0.06172839506172839,0,0,0.06172839506172839,69.69135802469135,0)" xlink:href="#L"/></g><path fill="#3a414a" d="M37-24c18 20 51 5 51-25v-169l-30-5v-13h112v13l-27 5v142C147-5 82 15 16-2v-53h16" id="T"/><path fill="#3a414a" d="M72-18c49 15 64-22 62-69-1-34-4-62-34-63-10-1-23 2-28 6v126zm33 22C77 4 48-3 21-8v-226l-16-4v-12h67c-1 31 2 66-2 94 11-8 28-14 47-14 51 0 70 31 69 83-1 55-26 91-81 91" id="U"/><g id="f"><use transform="matrix(0.06172839506172839,0,0,0.06172839506172839,0,0)" xlink:href="#T"/><use transform="matrix(0.06172839506172839,0,0,0.06172839506172839,11.11111111111111,0)" xlink:href="#N"/><use transform="matrix(0.06172839506172839,0,0,0.06172839506172839,22.22222222222222,0)" xlink:href="#U"/></g><path fill="#3a414a" d="M5-154v-11h89v11l-19 5 24 37 32-37-16-5v-11h56v11l-15 4-46 54 52 81 16 4V0H90v-11l18-4-29-45-38 45 17 4V0H1v-11l15-3 53-62-48-73" id="V"/><path fill="#3a414a" d="M186-86c2 69-46 103-114 85l1 62 25 4v12H5V65l18-4v-210l-18-5v-11h67v8c12-8 26-13 46-13 49 2 67 30 68 84zm-83 71c28 0 31-33 31-69 0-34-2-66-30-66-12 0-23 3-31 7v124c9 2 20 4 30 4" id="W"/><path fill="#3a414a" d="M76-16l18 4V0H7v-12l18-4v-218l-17-4v-12h68v234" id="X"/><g id="g"><use transform="matrix(0.06172839506172839,0,0,0.06172839506172839,0,0)" xlink:href="#I"/><use transform="matrix(0.06172839506172839,0,0,0.06172839506172839,14.814814814814813,0)" xlink:href="#V"/><use transform="matrix(0.06172839506172839,0,0,0.06172839506172839,25.925925925925924,0)" xlink:href="#W"/><use transform="matrix(0.06172839506172839,0,0,0.06172839506172839,38.2716049382716,0)" xlink:href="#X"/><use transform="matrix(0.06172839506172839,0,0,0.06172839506172839,44.44444444444444,0)" xlink:href="#N"/><use transform="matrix(0.06172839506172839,0,0,0.06172839506172839,55.55555555555556,0)" xlink:href="#P"/><use transform="matrix(0.06172839506172839,0,0,0.06172839506172839,64.93827160493827,0)" xlink:href="#R"/></g><path fill="#3a414a" d="M140-221c-55 0-64 47-64 103S8-14 140-14c56 0 64-48 64-104s-9-103-64-103zm0 225C61 4 18-36 18-118c0-81 41-120 122-120 80 0 122 39 122 120C262-36 219 4 140 4" id="Y"/><path fill="#3a414a" d="M109-18c15 0 31-2 42-6v14c-11 9-31 13-51 13-59 0-86-28-88-86-3-75 66-101 135-80v48h-13c-3-20-7-40-34-37-51 7-55 138 9 134" id="Z"/><path fill="#3a414a" d="M31-163c51-5 127-20 127 40v107l17 4V0h-61l-4-13C82 13 12 12 12-46c0-51 46-52 95-53 9-45-22-69-57-44l-7 20H31v-40zM62-47c0 30 26 34 45 23v-59c-28 0-45 6-45 36" id="aa"/><path fill="#3a414a" d="M102-142c-14-17-68-15-54 18 24 26 83 17 83 72 0 62-72 62-120 47v-45h12c4 23 16 37 43 37 35 0 39-37 9-46-31-9-65-19-64-61 0-52 59-55 108-45v43h-11" id="ab"/><g id="h"><use transform="matrix(0.06172839506172839,0,0,0.06172839506172839,0,0)" xlink:href="#Y"/><use transform="matrix(0.06172839506172839,0,0,0.06172839506172839,17.28395061728395,0)" xlink:href="#Z"/><use transform="matrix(0.06172839506172839,0,0,0.06172839506172839,27.098765432098766,0)" xlink:href="#Z"/><use transform="matrix(0.06172839506172839,0,0,0.06172839506172839,36.91358024691358,0)" xlink:href="#O"/><use transform="matrix(0.06172839506172839,0,0,0.06172839506172839,49.25925925925926,0)" xlink:href="#W"/><use transform="matrix(0.06172839506172839,0,0,0.06172839506172839,61.60493827160494,0)" xlink:href="#aa"/><use transform="matrix(0.06172839506172839,0,0,0.06172839506172839,72.71604938271605,0)" xlink:href="#L"/><use transform="matrix(0.06172839506172839,0,0,0.06172839506172839,80.06172839506173,0)" xlink:href="#K"/><use transform="matrix(0.06172839506172839,0,0,0.06172839506172839,86.23456790123457,0)" xlink:href="#N"/><use transform="matrix(0.06172839506172839,0,0,0.06172839506172839,97.34567901234568,0)" xlink:href="#S"/><use transform="matrix(0.06172839506172839,0,0,0.06172839506172839,109.69135802469137,0)" xlink:href="#ab"/></g><path fill="#3a414a" d="M75-108c48 3 76-12 76-58s-28-57-76-54v112zm111-58c-1 60-46 78-111 74v78l37 5v9H13v-9l28-5v-208l-31-4v-10c81 1 178-14 176 70" id="ac"/><path fill="#3a414a" d="M103-236c-39-15-35 32-34 71h44v15H69v136l35 6v8H15v-8l25-6v-136H11v-9l29-7c-6-59 23-100 80-84v36c-15 2-12-14-17-22" id="ad"/><g id="i"><use transform="matrix(0.06172839506172839,0,0,0.06172839506172839,0,0)" xlink:href="#ac"/><use transform="matrix(0.06172839506172839,0,0,0.06172839506172839,12.345679012345679,0)" xlink:href="#E"/><use transform="matrix(0.06172839506172839,0,0,0.06172839506172839,19.691358024691358,0)" xlink:href="#G"/><use transform="matrix(0.06172839506172839,0,0,0.06172839506172839,30.80246913580247,0)" xlink:href="#ad"/><use transform="matrix(0.06172839506172839,0,0,0.06172839506172839,38.148148148148145,0)" xlink:href="#s"/><use transform="matrix(0.06172839506172839,0,0,0.06172839506172839,44.32098765432099,0)" xlink:href="#u"/><use transform="matrix(0.06172839506172839,0,0,0.06172839506172839,50.49382716049383,0)" xlink:href="#v"/></g><path fill="#3a414a" d="M178-68c0 79-95 82-154 59v-54h12c1 35 22 52 60 52 50 0 69-58 33-82-39-24-105-21-105-85 0-67 86-66 142-53v49h-12l-6-29c-31-27-121-7-89 42 28 43 119 24 119 101" id="ae"/><path fill="#3a414a" d="M141-152c28 39 5 97-54 97-9 0-20-2-27-3L49-35c29 22 130-14 124 52-4 45-38 57-88 61C21 83-8 26 45-2 33-6 22-15 21-31l28-31c-19-9-28-26-28-51-2-51 53-65 100-52l38-20 7 8zM85 64c35 0 61-11 61-42 0-35-57-17-89-21-9 8-16 19-17 34 0 25 19 29 45 29zM52-113c1 26 7 46 35 44 28-1 34-16 35-44 0-26-6-43-34-43s-36 17-36 43" id="af"/><path fill="#3a414a" d="M125-118c4-37-41-34-68-26v132l23 4v8H8C5-13 21-9 28-12v-141c-7-3-23 1-20-12h47l2 13c31-23 98-29 98 31v109c7 3 23-1 20 12h-72v-8l22-4v-106" id="ag"/><g id="j"><use transform="matrix(0.06172839506172839,0,0,0.06172839506172839,0,0)" xlink:href="#ae"/><use transform="matrix(0.06172839506172839,0,0,0.06172839506172839,12.345679012345679,0)" xlink:href="#s"/><use transform="matrix(0.06172839506172839,0,0,0.06172839506172839,18.51851851851852,0)" xlink:href="#af"/><use transform="matrix(0.06172839506172839,0,0,0.06172839506172839,29.62962962962963,0)" xlink:href="#ag"/></g><path fill="#3a414a" d="M130-224c-62 0-78 43-78 106 0 64 16 108 78 108s78-45 78-108-16-106-78-106zm0 228C53 4 15-39 15-118c-1-80 37-120 115-120s115 42 115 120C245-39 207 4 130 4" id="ah"/><g id="k"><use transform="matrix(0.06172839506172839,0,0,0.06172839506172839,0,0)" xlink:href="#ah"/><use transform="matrix(0.06172839506172839,0,0,0.06172839506172839,15.987654320987653,0)" xlink:href="#A"/><use transform="matrix(0.06172839506172839,0,0,0.06172839506172839,27.098765432098766,0)" xlink:href="#t"/></g><path fill="#3a414a" d="M92-20c74 11 92-29 92-98 0-66-23-103-92-98v196zm150-99C242 9 136 6 6 0v-13l31-5v-200l-31-5v-13h112c81 0 124 34 124 117" id="ai"/><path fill="#3a414a" d="M154-149l38 94 32-94-20-5v-11h54v11l-13 4L190 4h-21l-38-93L93 4H72L13-149c-7-2-15-4-12-16h82v11l-20 5 36 94 38-94h17" id="aj"/><g id="l"><use transform="matrix(0.06172839506172839,0,0,0.06172839506172839,0,0)" xlink:href="#ai"/><use transform="matrix(0.06172839506172839,0,0,0.06172839506172839,15.987654320987653,0)" xlink:href="#N"/><use transform="matrix(0.06172839506172839,0,0,0.06172839506172839,27.098765432098766,0)" xlink:href="#aj"/><use transform="matrix(0.06172839506172839,0,0,0.06172839506172839,43.08641975308642,0)" xlink:href="#S"/><use transform="matrix(0.06172839506172839,0,0,0.06172839506172839,55.432098765432094,0)" xlink:href="#X"/><use transform="matrix(0.06172839506172839,0,0,0.06172839506172839,61.60493827160494,0)" xlink:href="#N"/><use transform="matrix(0.06172839506172839,0,0,0.06172839506172839,72.71604938271605,0)" xlink:href="#aa"/><use transform="matrix(0.06172839506172839,0,0,0.06172839506172839,83.82716049382717,0)" xlink:href="#J"/></g><path fill="#3a414a" d="M222-170c0 37-18 56-47 65l63 87 25 5V0h-76l-66-100H92v82l30 5V0H8v-13l28-5v-200l-30-5v-13c89 5 214-24 216 66zM92-119c45 2 75-3 75-50s-30-49-75-47v97" id="ak"/><g id="m"><use transform="matrix(0.06172839506172839,0,0,0.06172839506172839,0,0)" xlink:href="#ak"/><use transform="matrix(0.06172839506172839,0,0,0.06172839506172839,15.987654320987653,0)" xlink:href="#R"/><use transform="matrix(0.06172839506172839,0,0,0.06172839506172839,25.80246913580247,0)" xlink:href="#W"/><use transform="matrix(0.06172839506172839,0,0,0.06172839506172839,38.148148148148145,0)" xlink:href="#N"/><use transform="matrix(0.06172839506172839,0,0,0.06172839506172839,49.25925925925925,0)" xlink:href="#P"/><use transform="matrix(0.06172839506172839,0,0,0.06172839506172839,59.07407407407407,0)" xlink:href="#L"/></g><g id="n"><use transform="matrix(0.06172839506172839,0,0,0.06172839506172839,0,0)" xlink:href="#ai"/><use transform="matrix(0.06172839506172839,0,0,0.06172839506172839,15.987654320987653,0)" xlink:href="#aa"/><use transform="matrix(0.06172839506172839,0,0,0.06172839506172839,27.098765432098766,0)" xlink:href="#L"/><use transform="matrix(0.06172839506172839,0,0,0.06172839506172839,34.44444444444444,0)" xlink:href="#aa"/></g><g id="o"><use transform="matrix(0.06172839506172839,0,0,0.06172839506172839,0,0)" xlink:href="#ai"/><use transform="matrix(0.06172839506172839,0,0,0.06172839506172839,15.987654320987653,0)" xlink:href="#R"/><use transform="matrix(0.06172839506172839,0,0,0.06172839506172839,25.80246913580247,0)" xlink:href="#X"/><use transform="matrix(0.06172839506172839,0,0,0.06172839506172839,31.975308641975307,0)" xlink:href="#R"/><use transform="matrix(0.06172839506172839,0,0,0.06172839506172839,41.79012345679012,0)" xlink:href="#L"/><use transform="matrix(0.06172839506172839,0,0,0.06172839506172839,49.1358024691358,0)" xlink:href="#R"/></g><path fill="#3a414a" d="M126-114c3-31-27-37-49-25v123l15 4V0H10v-12l16-4v-133l-16-5v-11h64l2 14c24-16 81-33 96 3 30-24 105-39 105 27v105l17 4V0h-82v-12l14-4v-98c4-33-27-37-51-24 5 35 0 82 2 122l17 4V0h-83v-12l15-4v-98" id="al"/><g id="p"><use transform="matrix(0.06172839506172839,0,0,0.06172839506172839,0,0)" xlink:href="#al"/><use transform="matrix(0.06172839506172839,0,0,0.06172839506172839,18.456790123456788,0)" xlink:href="#M"/></g><path fill="#3a414a" d="M75-13V0H4v-13l17-5 84-220h51l83 220 18 5V0H152v-13l28-5-23-61H67L45-18zm38-189L74-98h76" id="am"/><g id="q"><use transform="matrix(0.06172839506172839,0,0,0.06172839506172839,0,0)" xlink:href="#am"/><use transform="matrix(0.06172839506172839,0,0,0.06172839506172839,15.987654320987653,0)" xlink:href="#Z"/><use transform="matrix(0.06172839506172839,0,0,0.06172839506172839,25.80246913580247,0)" xlink:href="#Z"/><use transform="matrix(0.06172839506172839,0,0,0.06172839506172839,35.617283950617285,0)" xlink:href="#N"/><use transform="matrix(0.06172839506172839,0,0,0.06172839506172839,46.72839506172839,0)" xlink:href="#O"/><use transform="matrix(0.06172839506172839,0,0,0.06172839506172839,59.07407407407407,0)" xlink:href="#S"/><use transform="matrix(0.06172839506172839,0,0,0.06172839506172839,71.41975308641975,0)" xlink:href="#L"/></g></defs></g></svg>